<svg  viewBox="260 85 155 155"  version="1.1" xmlns="http://www.w3.org/2000/svg" xmlns:xlink="http://www.w3.org/1999/xlink">
  <g>
  <path id="path-0703" d="M319.37501516037446,90.6860241065915L320.10621623323823,91.02053039762541L320.9687491896766,91.76239345186514L321.1758956856829,92.09946368233705L322.7579747527416,92.79358536850305L323.10226488907574,93.9916415380676L323.67454883450046,94.706003018724L324.4042066314869,94.98202147705706L325.1792217342372,94.96806243172432L325.6209660564091,95.71212279211977L326.0949448482388,96.17643409492212L326.5144939921629,98.0298969252417L327.71546031031903,98.47539273932307L328.5646086552806,98.95086092534439L330.5557462559809,98.82111429654469L331.0625816691463,98.99452825126718L331.9942232616413,99.9106228001865L333.1957491794092,99.85781504145962L335.3637292297826,100.09824560149355L336.70461671834346,99.30061214376929L337.48497634741943,99.31970545864078L338.116488055628,99.15551713529294L338.76050754678,99.39906598766993L339.53338384717426,100.08812473771741L339.91461032929146,99.86894245282474L340.27081595758136,99.30791162427067L340.9379814572385,98.66530757699911L341.2158283330864,98.13444847933624L341.8720080145795,97.47133391433181L342.66305932076284,97.71178256411895L343.82939657186216,97.65545754355207L344.66460794032173,97.99856714816724L345.30893909773295,99.04502180003692L346.06924105218786,99.38707709697064L346.77428343286374,100.84187713257325L348.64402596473155,100.68193417984185L349.83548873543623,100.76018634253887L350.84510941783446,100.0407709671299L352.0542740409219,99.69285840147222L352.8213939259549,99.99750463105647L353.7961443634849,98.91778663625428L354.60791801695086,98.16053196380926L354.5238210827374,97.30732471169904L353.43854891969386,96.59479654299957L352.2487571800848,96.14139951331254L351.0987115909302,95.59045454488569L352.2372669565375,95.12866544603457L352.5193793982726,94.8269276835008L353.5326572000922,94.35763138761013L353.82077664064855,94.06617593359988L356.1493634532053,93.84120421973512L356.6330045352697,93.67956133529697L356.8451531991923,93.0398450502662L358.57237797229027,92.6249006125854L359.0416851198679,92.84365221568623L360.671796982293,93.04973833458007L360.8550165346678,93.70199117889115L361.32180038958904,94.29626651599938L362.11964269171585,94.50505606316437L362.70298700968124,94.85056366111803L363.35723077617513,94.8881533234071L364.70115476450883,95.20858070141003L365.99110127936365,95.68519288543939L366.78787802868464,95.30765619869726L367.90719199426894,95.4250634664204L368.636762096241,96.85799951161152L369.6229231476864,96.8794440845877L370.04393203284417,97.08703451537531L371.5201648855509,97.20105464228436L372.03833984440644,97.50218646627127L373.4664575346542,98.0161110310928L374.6994316234013,98.35771345205103L375.40722992932933,98.80294502928155L376.99186426986125,100.13974284982032L378.1823418915337,100.35197712047102L379.38448595818045,100.05551701295099L379.91777208144777,100.32117437957913L380.6136690747153,100.23134297190882L381.01097526453304,100.4316954467613L381.2276913604801,101.02460766212243L382.3824867263829,100.86240101562726L382.8102590662493,99.48228198729521L384.17587875928075,98.76949107423297L386.1930708226864,98.50503070046034L386.7383675288693,97.83335327582063L387.3348618275304,98.16818590901948L389.02677413053243,98.39171048426124L389.1030261386004,98.57407307078847L390.3411532877981,99.59216194719738L391.6584020744958,100.11396205184792L392.84003995867533,100.78186863234623L393.57462865044727,100.64023235026889L395.0085056699136,100.9208817475419L395.9315422753534,101.77263012588628L396.64848060032455,101.90201625049212L398.0918228061637,101.89816798050742L398.5464648985362,102.12434740221761L399.96244717550144,103.38664066387628L399.4280220697401,105.26417191471046L399.4352375634262,105.52299043012499L400.0519127207226,106.3772188446419L400.41424644262224,106.55720993149498L401.4559250431739,107.81239177508814L401.4860343327309,108.23585001614993L401.07577842723185,108.65528241004904L401.1609581400553,110.28355208712856L400.77957676434016,110.92282433426317L400.16522749083015,111.53199666316868L399.4887436493009,111.58137477623222L397.71273761656266,112.99614752543766L397.73726013379564,113.45766423129498L398.54596211784883,114.19191083804253L398.97763973178735,114.8433216153062L398.87076831120794,115.22431273009079L398.1506222898679,116.54899213760564L399.0277639481428,117.11650073729288L399.3280334382689,117.6502746116339L399.3896942538522,118.96106230117948L399.85867048721775,119.58331660485237L399.292891104571,120.26349092224154L399.64104626803964,121.19001095991644L399.45182655594544,121.68594951703017L398.84502832443104,122.4079710207543L398.4781022258394,123.41454098210852L398.58421882871335,123.9554475144887L400.25369699775183,125.50672693797787L401.59417946135,126.27468188724743L402.73648821466486,126.12984715134098L403.3619365554878,125.81960813316346L404.2451575548221,125.89509066326718L405.5180089784153,126.65270999481072L406.3669635049664,126.85120286674646L406.8231212571409,126.33434413860323L408.76647897865405,125.6370905625945L409.1518429772077,125.28406106381044L409.5160042061725,125.52374414161295L410.19833684145124,126.47514039247199L411.18962140525036,127.02049973164503L412.3662943825693,126.92257113050437L413.90627804758697,127.16356422997342L415.3743622094844,127.77055736164039L416.3499312578497,128.5977897636085L416.8812682903226,128.80113043930942L418.1580399804552,130.13797311923645L418.6273033274738,130.9236363245327L419.12631053942096,131.3632289514353L419.41979022664236,131.98800214195217L420.08500198976253,132.55087300939977L420.3079071619104,133.4946990018243L421.1911682149366,134.29582080684213L421.94222777212417,134.49190672065924L421.7554947869248,135.60197480259285L421.51464972184476,136.14637667947954L421.37291549382644,137.35185395178905L421.1442793175265,138.2249269702188L421.2952430182413,138.69726562739288L421.1024926639584,139.21550087590367L420.758684422457,140.81370069393233L420.90842483780943,141.72793878252924L420.5790704675492,143.61039250289468L419.61171437887606,144.36464621682444L419.0330964761015,145.0726915585592L418.4476118309867,145.3525023377024L418.0430440678065,146.88212215266412L418.45879239773785,147.20124959333316L418.88350277233985,148.61809014702976L419.15671179555284,148.9957209244203L419.21000171094056,149.7386367262725L420.00542533822954,150.85626815785236L421.0597126160101,152.08244301661944L420.18647364751814,153.4162031279684L419.6970571281745,153.6700225157856L419.2908654293751,155.17668292199596L419.2941608183428,155.6215317430897L418.9346512810225,156.02337527608597L418.0617995923276,156.3088317167203L417.48620797921467,156.78499551672212L416.55968903372195,157.1747648613391L415.73374403652633,156.81006213495857L413.24882533544223,156.02176057636552L410.60426528362586,155.97087118523177L410.2289434842569,156.5441467803521L409.6668230122523,158.35066282682055L409.73953855036234,158.99208033930972L410.3404093782665,159.6941298389129L410.47493216194925,160.7493858613734L411.03715380077483,161.61245007425987L411.6248168662096,162.1113412855202L411.6768980119159,162.59155549080788L412.08254975625096,163.44962944129384L412.4459007973128,163.77381765816153L412.74763606067063,164.56948157724491L413.230384216582,165.15930575523362L412.5779719190068,166.19927054786876L411.3210948228261,166.8066793148737L411.05014923531417,167.43066198561974L411.31912922497213,168.122663582737L411.9465230226124,169.18473190521217L411.1862413605668,170.0255714513478L411.4443217925,170.98657961344088L411.37140224385803,171.82228228596432L409.64979669909735,172.56909138121682L409.43228604491014,172.95695707749292L408.6301761706236,173.20634296576372L407.06300617437955,174.14189957713643L405.9187952315988,174.61570331262465L405.27685073693647,174.68706630672477L404.5486771589094,174.9895949390857L403.7246036289216,175.65410576339946L402.49150527529855,175.97927593057102L402.2263832423523,176.18439973263685L401.4238784808076,176.28896617042938L400.8581661071803,176.17953385233614L398.5460709358049,177.25944622229417L397.3669912753103,178.23642481252773L396.33604559133164,178.79302732499673L395.1824690466274,178.28668881398517L394.6518074312189,178.80400861177077L393.72507363284603,179.29562768811138L392.88828403594016,179.24943568352046L392.23821174183104,179.49685770650922L392.1228059772002,180.02385907638018L391.4397075689121,180.92798838311228L390.70542678853235,181.6839977533864L391.0362928432369,182.66607039033806L390.53503941776944,182.9774983453235L390.20136412871216,183.82515101720765L390.5340482618012,184.32914635185898L390.6525922008914,185.32665894773072L390.3528299626814,185.952224956166L390.67900104890214,186.90936287216937L390.5022555623218,187.45280337922486L390.41453883068243,189.27395219282153L390.1765080330697,189.84990483235833L389.598645627535,190.45799446788806L388.5352182673705,191.08951004939718L386.7433520704253,192.3365584570165L386.47614372600947,193.16003311664917L385.8441227500989,194.41067853091045L385.77472086657144,195.267947193106L386.14512380660017,195.78815037636377L386.82211745791574,196.25166102776257L386.71637083464884,196.75432279463803L386.02699204029705,198.27676249907654L385.3098287122739,198.45628098310044L383.8010890136502,198.57537378936922L383.37037771518953,199.03558437822812L382.60657873186574,199.124198964244L381.9359170332209,199.4680051662035L380.9647204509747,199.57266843510206L380.1199812474333,199.84229484867865L379.5808637919363,200.35157824463204L378.79966848424374,201.33045918303287L378.382072908229,202.15311054458743L376.79863444410876,203.5088113089996L376.5428770228973,203.8709444580145L376.05287357299676,203.83643723570276L375.71249251216796,204.1734608028819L375.3938608919707,205.00521619518167L375.5576201119293,205.32695835457798L375.2605087480988,205.91461477730172L373.24541336731636,208.60689751939753L373.0207016126733,209.57516403911995L372.1697485142431,210.39535874500598L370.77887275068133,211.3216586428225L370.365342881385,211.7713701237526L369.19609494856195,211.76705604115614L368.3906757240002,212.33403257588816L367.83408644430165,212.49678587062408L368.4139768726309,214.16971076179743L367.58833898512967,214.35820063621668L367.1078590817706,215.0685717627057L366.49658327326324,215.07105566706196L365.33097165881554,215.68562005915192L364.8050063219307,215.52961862761822L363.9909472079562,215.60397372473653L362.9401904288861,215.9005128737963L362.67788717791336,216.39216372010196L363.30073301503216,217.34675439697094L363.9342369194892,217.35158965694154L365.32539160572924,217.69899471208464L365.30229838698506,218.52518564915954L366.31777740402686,219.3450041408587L365.2126480365223,220.4363192272158L365.25837506828975,221.19187191078436L364.78223889265064,221.1688103942306L362.8646262398288,221.9248758202957L362.2507326074592,222.32592441219367L362.1599460415746,222.66705767031726L361.1223505236412,222.82892428546893L360.2319684492941,223.31829686718902L360.08620774614974,224.0866374080415L359.7079292449089,224.25187777218798L358.513816006227,224.29775826361038L356.44567978139094,224.98998001717882L355.6248954140574,225.77996297938807L354.5452870796289,227.2043191358198L353.9205700764942,227.59233896426667L354.308873690341,228.2347402412961L354.83795547467525,228.6728040884891L354.2148682510997,229.4329384668372L353.0158985838607,229.50639204152412L351.2696928164587,229.22681471396663L350.14094826753717,229.89970409458329L349.43098102547447,230.0117508706935L348.719086731031,229.7727214302522L347.29761662645615,230.3905225909557L347.11026511646924,230.98695821719775L345.65172109319246,231.32448332851072L344.00662064176504,232.87481967926215L343.4310942723023,233.24069109372522L342.93648111608127,232.62365892289927L342.04490452297614,232.0822345812012L341.4994440619339,231.92613861353493L340.4283360198424,232.80460749813483L340.1315523696867,232.78269359785008L339.5550662569294,232.39513583924963L339.8712839303262,232.00295297555112L339.9691257824634,231.25592198074446L339.54165971572365,230.8275574139625L337.4343841587106,229.90664715291314L336.64145411789286,229.80208813338322L336.46074305212096,231.0695853925654L335.6306254928604,232.77186059718406L335.1353713704848,233.45491585854597L334.61823168920455,233.5836960430397L334.25222981154366,233.2990407062207L333.4041156492058,233.20818773479732L332.26206776754407,233.62147369224022L331.3918617030031,233.57654002108757L330.865017965858,234.28114812405965L329.85700851165893,233.54414320894466L329.6340833930044,232.9740277207593L329.6592644956254,232.3978072436703L329.0440834503934,231.87074759372263L328.19571904140685,231.37862404394127L327.556342414744,231.3032866653075L326.7257054143374,231.88703990135764L326.673659281405,232.6629557040378L326.2070410889901,233.06589640584298L325.50768155807236,233.24057087685014L324.91421682917644,232.85818156347705L323.8970408454006,232.4793288955325L323.14656393530095,232.34197383988067L322.6257125342381,231.3775728355822L321.5770163364723,231.122826400323L320.4073542095466,230.62189927660074L318.2950912899214,230.78210182032308L317.8221863896033,230.62992841491723L317.2928195666427,230.12758598903565L316.2938060202832,230.95180060524126L315.4978432376811,230.70864565543798L314.4851788586748,230.71397573074591L313.5526258769278,231.128111240816L312.9920018773446,231.1083112850647L312.47452922433877,230.74084398359355L311.2743755803931,230.39215080617123L309.9305075932607,229.4159491231303L309.3180614209814,229.81471103193508L307.24649087115904,229.81994639570894L306.18272111872284,229.4187706380526L305.26961604167445,228.62356067598012L304.88037406972217,227.67513630405028L304.5119674168491,227.58717240402348L303.21039655808636,227.766698045034L302.7385752244991,227.6875296189437L301.5285705044698,228.02390121888584L300.3858661799786,228.82276333865684L299.7727351855283,229.53133654486646L298.590078919864,230.26337711553697L297.59079987086443,230.58230651581198L296.85232218811143,231.20012563059208L296.26084237602845,231.39453811708245L295.3267137554576,231.43080899531378L293.5080653197256,232.21980317188627L291.3333680169235,232.46158892923813L290.2218445517574,232.25341158198626L289.74456857963014,232.02307842870778L288.79360100324266,232.33106182741994L288.2084746811015,232.21850407341844L287.00470671216317,232.55253490264113L286.5637364615104,232.78762856270805L285.78551681977115,232.13020092789247L285.2748565885486,230.56875781596045L284.9395900250274,230.13576493482196L284.7636767996373,229.4946597369426L285.01688107331574,228.53202126088763L284.5860840859168,227.92133355114493L284.11121739670125,227.7584853581975L283.80102475433887,226.80345760495402L283.17690227113053,226.33257235713245L281.8048600607435,225.7293107436726L281.5021866243442,225.41843444717597L281.4060269959882,224.8251684597517L280.74974437994024,223.41723262119376L280.81376437574,222.6783334100537L280.48958325444255,222.56332350911543L279.846152899092,222.77861257195855L279.83459504960774,223.34361685660042L278.6438578405978,223.00214816187872L278.4177733876968,222.80843609608928L277.5094429668461,222.75541208763389L274.8744426631092,223.22049386972412L274.39063148594505,222.9411029380699L274.5754913879682,222.19329981999272L273.62538889702046,220.81215606721435L273.038160518463,219.5689000745815L272.87935791347627,218.71837207046792L271.7914734082078,217.9234213500913L271.2062939849602,217.867349106431L270.09545489207085,218.12923953332756L268.6065881713366,217.36169104560122L268.28078581166847,216.56019595791895L268.26470475012684,216.0303686733714L267.7321463770095,215.5904782881762L267.8019472371816,215.093770058892L266.70966133776164,214.0226288480044L266.1187291401584,212.96363077218302L263.89952865673695,211.9574046552916L261.999754019791,210.66429567724663L261.2935838404119,210.48893563137972L261.2822507131641,209.9156516637213L261.58241000119233,208.72421594883872L261.31332669948824,208.28264459992442L260.35747542632816,207.77313693243832L259.9223907672167,207.21460543839112L259.4731158001741,207.567310775612L258.57378641176183,207.76878940426013L257.8869364763159,207.652579940137L257.41282553783094,207.37005005834453L256.11328278902874,208.28076189800413L255.38769979551944,208.99531629580542L254.80420303821302,209.24477994982226L253.87286021571708,209.19791206474383L253.43043518951163,208.9915662012745L253.12552742075786,207.7267948926483L252.4587955013776,206.82105960147146L252.43594514116194,205.9938683001301L252.20750393628987,205.6309297034286L251.18514878982023,205.36893091138154L250.07922976938426,205.35323710295597L249.57980512784707,204.99859547519827L248.55059404443455,204.93106930977046L247.8706398775248,204.57141051590224L247.1334106119284,204.58934631631746L246.35387020885173,204.22258580015296L245.50504040475062,204.19380574898514L245.0354977326606,203.63461174191343L244.86005745194052,201.30179574763588L244.99472194747068,199.530326961627L245.20885064130198,199.13465504370106L245.7498420773154,199.03615373881894L246.9188765668987,198.42804368098678L248.14617926038773,198.60015012092845L249.34707743404942,199.0067495903977L249.83049213888808,199.04205541665215L250.18380552181043,199.43991197872765L251.23397191425465,197.8090704677361L251.33738786042886,197.0573720419834L251.11272844046835,196.31159012619173L251.38757305316176,195.81301232296028L251.9377880165266,195.52254129413268L252.05703757582523,195.06379619795007L251.43431952891478,194.42464502374696L251.41235136371324,193.77033328445305L251.7658691428187,193.4362186790322L251.48985402204562,192.6875827101294L251.79841239636153,191.35638765759086L252.3181886549064,191.1450643869248L253.175867139842,189.58590445745722L253.50094730427736,188.43977876706413L253.34822793862986,187.2988273665942L253.7480007803715,186.1359783282369L253.12407525201343,185.2902458151666L252.82173625689757,183.92587074266157L252.90424141782933,183.47207792180325L252.53638208858683,182.92918573097995L252.52553674911542,182.40279498345535L252.25802161798492,181.88804281658486L252.8539491041447,181.5061932137496L254.42093519075206,180.06019836479118L254.15274584691724,179.68071380168385L253.3614646339047,179.44709700351086L253.00751748900439,179.1756733571292L251.79293987913115,179.47604280290489L251.16807437224998,179.87311341230725L250.2381392306852,179.8566327275612L249.59272135673018,179.31474522961798L249.18712473996493,179.272971358615L248.1646840825415,178.73909805703352L248.6522518709935,177.94227411024804L248.5217739732434,176.80033485770764L248.70106305306763,176.24332455728654L248.40528413773427,175.6100276027364L248.92450317551265,175.24920377582293L249.9376102955648,174.23270882886118L251.01740310736568,174.14442897280333L251.94846408381636,174.34014796965857L251.98377245124357,172.58507839575395L252.13999706864706,172.16730010567062L252.69108746390702,171.64536701253382L253.7010268727281,172.14571440763484L255.31493481779762,170.9311675477975L255.30920007213354,170.20651600752262L255.53332798622432,169.90000316837995L256.516016115449,170.15242346401737L257.2643668890669,170.1894035415953L258.83478284449666,170.80777485376348L259.8409294126832,170.20670213669382L260.83124120025604,170.05934018802054L261.53239362004024,170.33136822647157L262.26371871631636,169.9866282060093L262.5267516720778,169.43889804963146L262.99273758252093,169.26248145481713L263.28143560028184,169.57366899000044L264.2698450727876,169.74186826556252L264.76947313605706,170.12654517047213L265.1460896577337,170.094827322966L266.2475761717142,168.7975406706064L267.62384728682446,168.2798182337383L269.021055519559,168.23775088515777L269.9322109909335,167.35097763149406L270.4018976427251,165.99591466529L271.7447707616702,165.76799373996528L273.34252799179376,164.72881584426523L274.12117869730355,164.48054025239253L275.92181694845203,164.36325741240398L276.1612994159914,164.01587184172513L276.8371990969099,163.8180353914522L277.3337219356872,162.96944755074674L277.93200801683633,162.86741422090563L279.55178001489185,162.02682146296138L281.0268457945458,161.9159557000812L282.1975561310828,162.0333764649249L283.88202291382186,161.17394982684436L284.8396877769628,160.92537424914553L285.3772222881744,160.41431892499804L286.68184096179175,159.6953870829184L288.0027873310937,159.68113714190713L288.6675400456552,160.3366852509098L289.23720642647095,160.67487394776617L289.77504798875816,160.72303193516746L290.6138269299008,161.62711406462859L293.6906762194194,162.57167465921248L294.33133743407234,162.62721840346785L294.28381665302004,162.19213850653887L294.56050203294217,161.75700032425175L295.5173044508374,160.90814944185877L296.3792079101804,159.62377280252258L296.9328061895285,158.60900176242194L297.201716886706,158.43660587069007L299.00529044533323,158.29146560706613L299.32409600972096,158.13959326589975L300.36870913261737,158.58005855846568L300.8253739530519,158.42430148094445L301.34741504998965,157.74802449196613L301.81924289179733,157.423811860991L303.05395572632915,157.38242282684223L303.61602882597435,157.50700840486206L304.05282652753885,156.9552847541072L305.01626190417664,157.9301107812871L306.06017898914433,158.01139584512748L306.7929562111858,157.93928786158904L307.2700652552412,157.10927613276453L307.79723685894714,156.61476740629132L307.9624270486347,155.96682571002293L308.6323245609674,156.04466558049717L310.07713560633056,155.6881996255761L311.1151574732503,155.172443018816L311.9824755233858,154.87053532559366L312.3871666264349,154.17047502877995L312.74544723408326,153.88790753165358L313.24921270972845,152.53258695816112L312.73929600487463,151.76374120101627L313.4821001483033,151.01745987946924L313.5739154658331,149.12433495991536L313.3403435202854,148.57827531222574L313.19979314906595,147.06152957668655L314.3797609059511,146.60017309085833L314.4557375232107,145.71441166865225L314.70724126336427,145.02799108301588L314.685172516889,144.0518405979028L314.91320488042766,143.43816824583428L314.70043386559337,142.51270161558205L315.0685179826469,141.94402644271122L314.87222454150833,140.98342359165235L315.0376056060777,140.4263458064852L314.81740845433524,139.57266661994709L314.32716620187784,139.79800619418802L313.44968413893,139.8703325727538L311.69790009295684,139.2689301117498L311.4219422360329,138.72728165461103L310.3884887542554,138.185832443688L309.3481165717276,137.32506094639484L308.36495224670216,136.91749864252142L307.95326058594947,135.668301658955L308.0348256789948,134.05203044694008L308.46123328249814,132.72054995208964L308.04207760699137,132.49385572435222L307.6395533493014,131.7339381219963L307.8766697200481,130.6885405751118L307.8950060472489,129.3798896045755L308.08554905243363,128.71974409962786L308.5252530066391,128.03333467561424L307.82076462974874,127.30311818627342L306.2626185993904,125.05994015630768L306.0147588928194,123.64819819325203L306.09332845917015,123.28736643914272L305.2939442956849,122.30912911953965L304.1450581688878,121.51348994891941L302.9772631381893,120.9786449156536L302.21423131385745,120.01270541462873L300.99089685569925,119.27919449660203L300.34303521591573,119.03551024711305L299.83872938053173,118.05011203633785L300.247433320299,117.05251195074561L300.18935359577154,116.2468333216184L300.91781571635147,115.43187681350446L301.6624106783238,114.99245733165117L301.9950453510719,114.20827195219681L302.7253406046948,113.7879156626368L303.35132414067266,112.34116173884013L303.7420558430131,111.79286175120342L304.36907169810365,111.3774044639249L303.89336050917336,110.86803999500626L303.5050761998791,109.7595493044928L303.51564965597936,109.40212788804183L304.0310162503847,108.46562548784732L304.10514651841004,107.99981874271816L303.3409435814465,107.37762234035017L302.9373096540294,106.59922363759779L303.63022429004195,106.1627813109144L304.31545973231914,106.03006192724843L305.31031739849277,105.12690341853613L305.7325758701845,104.0542011704556L306.7993447305853,102.66817530513981L307.2955109208269,101.56524728893692L307.9916904203383,100.60057421709462L308.07416013587135,99.6791898883157L307.9467226351808,99.15668382433887L308.3891150142663,99.04353118704512L308.7505716966916,98.58513485793083L309.3527928660769,98.39195338124773L309.91976245559636,97.68512643589656L311.28585976567047,97.20662574403923L311.8425414979829,96.15800419780226L312.9004401206912,95.05249825844203L313.1881842003495,94.9578965188548L314.549439700917,93.00345363368433L315.13645045594603,92.58286918829344L315.9358719849224,92.58965051620362L316.7209758329809,92.35769119233737L317.9500383646373,91.05618171987317L318.7686777154886,90.67535730989493Z" fill="#FF7B46" stroke = "#222" stroke-width=".35"></path>
  <text x="340" y="170" font-size= "3.5" font-weight="500">
    बझाङ
  </text>
    </g>
</svg>