<svg  viewBox="332 109 155 155"  version="1.1" xmlns="http://www.w3.org/2000/svg" xmlns:xlink="http://www.w3.org/1999/xlink">
  <g>
  <path id="path-0704" d="M401.0259293661329,260.0514702349983L400.64051812627076,260.04720000181624L400.2234524580017,259.43971856392636L398.8073500992796,258.3092008137537L398.3333646079627,258.2709592346919L397.5224487195519,257.8360243762372L396.73348653597714,257.1853482319384L395.5996889929156,256.6883443964207L394.14606670761714,256.8832826611797L393.36589376186384,256.7562241037813L392.0157978823954,257.14402364441594L390.7475837771235,257.81879577477594L390.0468955771066,258.62871989030464L388.5837772574523,258.10506727776556L387.41365095986475,257.3904693478853L386.57921340130633,257.24976023894396L385.59715214267635,257.31958520760145L385.332373468671,257.04531918472185L385.14487538035246,256.1857806385269L384.7679483378197,255.479993521697L384.0504975874319,254.68970578107565L383.65464320952015,253.95945763087002L383.3177556582632,253.69233612121388L382.40413051028736,253.37571782880514L382.55790861870264,254.67856353326624L381.96545630446053,254.9727967611234L381.37483485219127,255.52881174961385L380.5184584486342,255.68120542799534L380.1809310116114,255.97132235207846L379.57364870579477,256.9238593706059L378.6717800523693,257.39506215527217L376.62471001964514,257.42323023282734L376.153558168935,256.94634950291584L375.6136321641061,256.8658156034735L375.13505890145825,255.94307116900745L374.08308948187914,255.75428111148267L373.27697039482155,254.16609381219223L373.40498419088544,253.57063295802527L372.63030687883656,253.61017619913673L371.98740858419114,253.30042730434707L371.61951029058037,252.88342668368296L371.6170106720929,252.27740102243388L371.1024217414306,251.25010131695672L371.14321914872926,250.91277043168884L370.3925518478318,250.7292664614115L369.48227719915303,250.93021807781406L368.98980983477304,250.00947622084732L368.44083196575593,249.86605744243752L368.5463059217873,249.22902083457484L368.3220058280094,248.95990901706682L366.5485645595654,248.58852106603263L366.4754874475111,248.93996360420533L365.5187618650634,249.5691912705297L364.45327440134497,250.01555599481617L364.38496599730206,250.75280492004276L363.5568797178821,250.97364376309633L363.5767392646849,251.72036217374352L362.88122145997113,251.8736330993479L360.1553029836141,252.15056276216092L359.25398129504174,252.9637363923648L357.97766922357187,253.18332279608603L357.6521541725997,252.59909732692267L356.9285835096016,252.31101013224907L356.9303173646549,251.63855472311388L356.02081313018425,250.995578345377L355.9160055878965,250.24235337477512L355.52629142097067,249.3904210766159L354.50970493292334,247.8833863393229L354.9926194664331,247.9253620202644L355.6016533024922,247.34295090933847L355.68363801136366,245.72180788023525L355.2019728341511,245.1578245597966L354.15226575639826,244.33981925257194L353.8121579694962,243.24725115359342L352.9722722644001,242.53369065252627L352.03210365413906,242.21991382044416L351.4901816563579,242.50559565604453L350.97689473142964,242.46072506080782L350.6604673588954,241.6539261726184L349.2641318032256,241.35311648748666L348.7915317533734,240.8327114882586L347.9355801617821,240.49773287177504L346.6486943337841,240.25436789278592L345.66215819848003,240.50183471505716L345.1584625245341,240.4126549648572L344.5114609540178,239.8568861847989L343.2889773474453,239.89067157843056L342.29548069702287,238.94082083907142L341.1769978435732,238.41862478013627L340.63273564885094,237.91925903721767L339.99554929837177,237.76355659641013L339.85888745825287,237.37757607960157L338.4713356539178,236.47665301250072L338.1593596086095,235.68512887126872L337.85150605440504,235.4693648483044L336.49812546132307,235.2053682477108L336.75358233025327,234.6607090340749L339.2367851722847,233.17309806143112L340.1315523696867,232.78269359785008L340.4283360198424,232.80460749813483L341.4994440619339,231.92613861353493L342.04490452297614,232.0822345812012L342.93648111608127,232.62365892289927L343.4310942723023,233.24069109372522L344.00662064176504,232.87481967926215L345.65172109319246,231.32448332851072L347.11026511646924,230.98695821719775L347.29761662645615,230.3905225909557L348.719086731031,229.7727214302522L349.43098102547447,230.0117508706935L350.14094826753717,229.89970409458329L351.2696928164587,229.22681471396663L353.0158985838607,229.50639204152412L354.2148682510997,229.4329384668372L354.83795547467525,228.6728040884891L354.308873690341,228.2347402412961L353.9205700764942,227.59233896426667L354.5452870796289,227.2043191358198L355.6248954140574,225.77996297938807L356.44567978139094,224.98998001717882L358.513816006227,224.29775826361038L359.7079292449089,224.25187777218798L360.08620774614974,224.0866374080415L360.2319684492941,223.31829686718902L361.1223505236412,222.82892428546893L362.1599460415746,222.66705767031726L362.2507326074592,222.32592441219367L362.8646262398288,221.9248758202957L364.78223889265064,221.1688103942306L365.25837506828975,221.19187191078436L365.2126480365223,220.4363192272158L366.31777740402686,219.3450041408587L365.30229838698506,218.52518564915954L365.32539160572924,217.69899471208464L363.9342369194892,217.35158965694154L363.30073301503216,217.34675439697094L362.67788717791336,216.39216372010196L362.9401904288861,215.9005128737963L363.9909472079562,215.60397372473653L364.8050063219307,215.52961862761822L365.33097165881554,215.68562005915192L366.49658327326324,215.07105566706196L367.1078590817706,215.0685717627057L367.58833898512967,214.35820063621668L368.4139768726309,214.16971076179743L367.83408644430165,212.49678587062408L368.3906757240002,212.33403257588816L369.19609494856195,211.76705604115614L370.365342881385,211.7713701237526L370.77887275068133,211.3216586428225L372.1697485142431,210.39535874500598L373.0207016126733,209.57516403911995L373.24541336731636,208.60689751939753L375.2605087480988,205.91461477730172L375.5576201119293,205.32695835457798L375.3938608919707,205.00521619518167L375.71249251216796,204.1734608028819L376.05287357299676,203.83643723570276L376.5428770228973,203.8709444580145L376.79863444410876,203.5088113089996L378.382072908229,202.15311054458743L378.79966848424374,201.33045918303287L379.5808637919363,200.35157824463204L380.1199812474333,199.84229484867865L380.9647204509747,199.57266843510206L381.9359170332209,199.4680051662035L382.60657873186574,199.124198964244L383.37037771518953,199.03558437822812L383.8010890136502,198.57537378936922L385.3098287122739,198.45628098310044L386.02699204029705,198.27676249907654L386.71637083464884,196.75432279463803L386.82211745791574,196.25166102776257L386.14512380660017,195.78815037636377L385.77472086657144,195.267947193106L385.8441227500989,194.41067853091045L386.47614372600947,193.16003311664917L386.7433520704253,192.3365584570165L388.5352182673705,191.08951004939718L389.598645627535,190.45799446788806L390.1765080330697,189.84990483235833L390.41453883068243,189.27395219282153L390.5022555623218,187.45280337922486L390.67900104890214,186.90936287216937L390.3528299626814,185.952224956166L390.6525922008914,185.32665894773072L390.5340482618012,184.32914635185898L390.20136412871216,183.82515101720765L390.53503941776944,182.9774983453235L391.0362928432369,182.66607039033806L390.70542678853235,181.6839977533864L391.4397075689121,180.92798838311228L392.1228059772002,180.02385907638018L392.23821174183104,179.49685770650922L392.88828403594016,179.24943568352046L393.72507363284603,179.29562768811138L394.6518074312189,178.80400861177077L395.1824690466274,178.28668881398517L396.33604559133164,178.79302732499673L397.3669912753103,178.23642481252773L398.5460709358049,177.25944622229417L400.8581661071803,176.17953385233614L401.4238784808076,176.28896617042938L402.2263832423523,176.18439973263685L402.49150527529855,175.97927593057102L403.7246036289216,175.65410576339946L404.5486771589094,174.9895949390857L405.27685073693647,174.68706630672477L405.9187952315988,174.61570331262465L407.06300617437955,174.14189957713643L408.6301761706236,173.20634296576372L409.43228604491014,172.95695707749292L409.64979669909735,172.56909138121682L411.37140224385803,171.82228228596432L411.4443217925,170.98657961344088L411.1862413605668,170.0255714513478L411.9465230226124,169.18473190521217L411.31912922497213,168.122663582737L411.05014923531417,167.43066198561974L411.3210948228261,166.8066793148737L412.5779719190068,166.19927054786876L413.230384216582,165.15930575523362L412.74763606067063,164.56948157724491L412.4459007973128,163.77381765816153L412.08254975625096,163.44962944129384L411.6768980119159,162.59155549080788L411.6248168662096,162.1113412855202L411.03715380077483,161.61245007425987L410.47493216194925,160.7493858613734L410.3404093782665,159.6941298389129L409.73953855036234,158.99208033930972L409.6668230122523,158.35066282682055L410.2289434842569,156.5441467803521L410.60426528362586,155.97087118523177L413.24882533544223,156.02176057636552L415.73374403652633,156.81006213495857L416.55968903372195,157.1747648613391L417.48620797921467,156.78499551672212L418.0617995923276,156.3088317167203L418.9346512810225,156.02337527608597L419.2941608183428,155.6215317430897L419.2908654293751,155.17668292199596L419.6970571281745,153.6700225157856L420.18647364751814,153.4162031279684L421.0597126160101,152.08244301661944L420.00542533822954,150.85626815785236L419.21000171094056,149.7386367262725L419.15671179555284,148.9957209244203L418.88350277233985,148.61809014702976L418.45879239773785,147.20124959333316L418.0430440678065,146.88212215266412L418.4476118309867,145.3525023377024L419.0330964761015,145.0726915585592L419.61171437887606,144.36464621682444L420.5790704675492,143.61039250289468L420.90842483780943,141.72793878252924L420.758684422457,140.81370069393233L421.1024926639584,139.21550087590367L421.2952430182413,138.69726562739288L421.1442793175265,138.2249269702188L421.37291549382644,137.35185395178905L421.51464972184476,136.14637667947954L421.7554947869248,135.60197480259285L421.94222777212417,134.49190672065924L421.1911682149366,134.29582080684213L420.3079071619104,133.4946990018243L420.08500198976253,132.55087300939977L419.41979022664236,131.98800214195217L419.12631053942096,131.3632289514353L418.6273033274738,130.9236363245327L418.1580399804552,130.13797311923645L416.8812682903226,128.80113043930942L416.3499312578497,128.5977897636085L415.3743622094844,127.77055736164039L413.90627804758697,127.16356422997342L412.3662943825693,126.92257113050437L411.18962140525036,127.02049973164503L410.19833684145124,126.47514039247199L409.5160042061725,125.52374414161295L409.1518429772077,125.28406106381044L409.63256690010166,124.63941621137565L410.4944649836543,123.87417810672832L411.5607322260439,123.21278940754291L411.5984974170751,122.79349728096622L411.1994301875311,122.47063553848875L410.5578683749991,120.46419765339215L411.51270128441683,119.21740410109669L414.07030325755477,118.85594346717335L415.4989940621417,118.10192714669665L415.8742746668213,118.26458681413988L417.08500051545343,118.20753022043391L418.2862570682155,118.96055039024395L418.8210811813915,118.97596674099896L420.00230118766194,118.19673481175687L420.8382819323124,118.41803845832783L421.64724021677466,117.58603312256128L422.5141380591849,117.25135655751365L423.1410589683037,116.82779466563443L423.958023674124,116.60378978440622L424.7493168178771,116.72980600498977L425.41392809530225,116.24494159344522L426.3198059257993,116.09366989230602L426.73717545416366,116.28693261582157L427.6992081215503,117.44799108143707L428.8220620323882,117.28702932679244L430.1582468695451,117.54358392393624L430.7066040853788,117.03876511006183L430.88676333800686,116.01078046241037L432.05335674221715,115.1299288498085L432.3802476867386,114.71298691508127L433.36549138665214,115.61847346396189L433.7698451365286,115.75561613576156L434.2325153652382,115.52830131346582L435.3511824781526,115.76602582025316L436.1753425063762,115.42815681875254L437.04515157167043,115.23409186396748L437.5897955917317,114.38124115006485L438.7776208978139,113.78495441793712L439.61003783948036,113.68648915270296L440.77476990424475,114.62532335149172L441.34536766820383,114.8220069112067L442.0021517933674,114.6763397343475L443.7385285574783,115.34814861841096L444.18677840888995,115.19953485982751L444.8975060076082,115.26515657807067L445.9156103505593,114.60725893570725L446.82317610639075,114.27843995668718L448.0614615025297,113.53581778682201L448.5011072959569,113.40481949779132L450.5543307578846,114.83551869660823L451.02107932991566,115.69834036267639L450.69694558996343,116.71419110713123L450.69262609329235,117.25420621102694L453.3776563717838,118.36913261022619L453.3066957460542,119.02841086648095L453.5720187918814,120.9746748579546L454.7470082660402,122.04450119913963L455.9117689429804,121.5620786333111L457.06603722665386,121.41314398614759L458.0204517494567,121.73238568130364L458.586458122918,122.3917769849304L459.5206795246413,122.26663014301266L460.46199637027894,122.49017810428359L460.93603050212187,122.24186532203748L461.6700416816966,122.32415497871989L462.27652422671963,122.1102999215409L462.92951200078096,122.25270210067356L463.87084137261263,121.6731545222001L464.6156284729732,121.39083846228823L464.98445818634355,121.67956570727165L466.2547589063106,122.01019483629625L466.99766957572865,121.95300909449179L467.54803265112423,121.64814207912514L468.5509159518915,121.67700015212813L469.12732396786305,122.21899612594734L469.7639727457463,121.82971758071199L470.4355630536338,121.9885036640917L470.9601973747813,122.6044388779701L471.5744272006232,122.87276030253997L472.7177820567631,123.70779668555952L472.5700128075041,124.82603611431205L471.9631593711274,124.73154115951729L471.54529578038273,124.90334407146656L472.09526750258374,126.14297378870651L472.17901446266114,127.06242160041984L472.0248409524538,127.9008447231945L472.28339179091927,128.66265832921272L472.1418182820162,129.0094610801525L472.1761275418139,131.24841135894076L471.71711017327834,132.22857338521953L471.8614168332897,132.6454548423726L471.3754826239201,133.19087490363836L471.0640790809266,134.17972082289907L471.63335158274276,135.14750278242354L470.545136642515,136.3455655363332L468.7260176657255,137.21806524795193L469.2439145838616,137.8329453287388L469.2903418404858,139.11496989223633L469.0441274237528,140.49096063221532L469.15990160635556,140.90570484771797L468.3828871549449,142.60766833563957L468.70593145101157,143.4411196565561L468.6349995371056,144.19314252756158L468.2422215791703,144.5389881563151L467.99383060208856,145.25579626308354L467.1838987676674,146.12213974593033L465.2060016217765,145.32694537431507L463.84225279786915,146.2805209040107L463.2223885450949,146.40977639392167L462.8647997600747,146.03469034496447L462.3467807230809,146.14990085057525L461.35250187593556,146.8849974676732L459.8528464775154,147.34533104521688L459.9489680568113,148.0328837213865L459.29738086542784,149.04343559585868L459.26383513973997,150.12577990734917L458.92032604284395,151.0403901249665L458.3742191200363,151.80348660781965L457.77196406603616,152.38610076186978L458.0236004260405,153.84065037874097L458.3238338378942,154.6128271135649L458.0211666678515,155.42953756312636L457.3014874452492,156.38066896940472L457.0385779232929,156.9886056629448L456.970745808776,157.8403001186698L457.3653387987979,158.36641515306565L456.8890601696585,159.4507408606978L457.1678405963503,159.68226684407273L456.9735342691274,160.19047690262232L456.23865863281753,160.950153027361L455.5479835802871,161.0494146209894L455.1511104834135,161.62979362367878L454.48536378371864,162.18430794676897L453.9714377094315,163.46429734507L453.95987203370896,164.306547491301L453.58099053618207,165.54330841107185L453.09571721365137,166.74485357870708L453.1198223154861,167.31336151731102L452.12235051077005,168.8110196102607L452.16436505095044,169.22239606233143L451.78239263088835,170.10661968206932L450.9062391554726,171.11569995851005L450.6617810022326,171.61393949795274L450.6612151385234,172.50509855934433L451.0447684312421,173.7850081687493L451.0327173151163,174.72001640739836L451.17959217489624,175.77356770132883L451.65778826535825,176.75513772614158L451.6076105304528,178.3267215618398L451.310009355715,178.73971265535783L452.0172699177965,179.34505210272164L451.2498086974665,179.66326211457817L451.9953144554529,180.21361728320062L451.85550677401625,180.96681828072906L452.6570330205541,181.36806440838245L453.2969475630489,182.01749732199823L453.49795594874377,183.32088312041105L454.0066185351534,183.50965290555087L454.65810639891424,184.50246361693735L455.3593476256465,184.40322895917234L455.66063901461894,184.57136911852467L455.6380603197831,185.38915823933075L456.22984669852303,185.70586156393256L457.2883348255964,185.77514512566086L457.5044647206705,186.1044630202432L458.44699312810553,186.73125703141068L458.81236521181563,187.34072763927725L459.58317969394193,187.6726627117505L460.6475657557057,187.703508956336L462.1655794805956,187.95523115542164L463.26083378465046,187.7226581782379L464.32907803322087,187.89039553396924L464.7689528179508,187.6892739635341L466.4501868120751,187.6145277867463L467.208876102115,187.75956689646046L467.62823359463437,188.6541433013781L468.10751555836396,189.07152093459808L469.4020371052575,189.6064991373769L470.2705646088034,189.59064427688008L470.655342493068,189.7403967376422L470.927920149843,190.36020513365202L470.69580734669216,191.25143513486546L471.67923066375806,192.465867615766L471.9824412613161,193.28312470585115L472.58618457732155,194.20720640312265L472.4248897391444,194.77510815771348L472.67398444186256,197.84752593496614L472.36066907044733,199.37794343850692L471.4973259588769,200.3142217035138L470.8059735372299,201.8912263448383L470.7529241073353,202.50227213022026L471.13800766398344,203.10175777993663L471.37281590049315,203.90447167685852L470.9232454746925,204.36568396948587L469.7970896573861,204.52062528848546L469.0759190175522,205.3103639122719L468.7915447561172,206.2432925238054L468.0969124166768,206.73095826447752L467.960185500473,207.27120547350842L468.6597950347532,208.2240766802097L468.4909371209578,208.7714543634129L467.4535037673122,208.92701681263406L466.21848657222654,208.63858525312753L464.76666236539677,209.50771121075286L465.8551506668664,209.93978717913433L466.7360564126611,209.8789602314855L467.96026369336687,210.14830185482788L468.5704350435153,210.41458063303617L469.1926919855905,210.16090809336765L470.29964844805727,210.66014409541822L470.23781753186995,211.2032720783527L471.53395750316486,212.96839060919774L471.89489969733404,213.24058515792058L472.47379020421795,214.15181432606096L472.70514469625414,214.73721793532332L473.6711697519677,215.94330317579534L474.06880992873994,217.40476496570864L474.3931472224358,217.9175005220468L474.3727045502965,218.6498376515783L474.6155242771383,219.58739978107405L474.5809766357197,220.639005621274L474.02986860661986,220.92131910968965L473.57231456917725,222.06072346275414L473.66803768136015,223.17123487208664L474.0633766215542,223.79719764837046L473.7877327458955,224.2115685835879L473.27771730351014,225.5581910865758L472.67807048147733,226.00432010086843L472.78584894157757,226.41514110602657L472.62473043321734,227.7780348372762L472.2693398747251,228.54060139991816L472.18295528533054,229.15780364367947L472.38166235396784,229.61995424655925L472.1180537131986,230.4900247701289L472.4179933289306,230.71643644638243L471.8093202309901,231.7870996422489L471.69743434249904,232.44273947875172L470.82086958954096,233.17534534092738L470.60015496674896,233.70142841112192L470.58037971115846,234.69208384658305L469.49633563368843,234.65004893793957L468.64974538970637,234.30570823306334L467.8647696286862,234.181477707878L466.7838936287335,234.26993452250008L466.1406574859466,233.99716197475118L465.7231626497414,234.3863835406446L465.640262003988,235.40355759431895L464.6429888804232,235.16932177406397L464.3047705553872,235.39932741222856L464.1660006077036,235.93569176685924L463.83300402141685,236.14231840240336L463.69701448408523,237.0751910250974L463.4781800102828,237.58229221303463L462.80120614633415,238.26698747629143L462.4912036125643,238.95424837951032L461.9932832089253,239.5559920148189L461.88206507358336,240.49000079209054L462.2857499145357,241.8068326345292L462.1492532342818,242.36811826599296L462.61266300098214,242.62368378478186L462.1414657402929,243.42968155025846L461.4891100202549,243.86405414751607L461.16969242643245,245.38240377831244L460.76318474444633,245.87090448662366L459.82352122816155,246.6118318013132L457.7180549668228,246.34094598057254L456.0964108418739,246.9405670990327L455.4567380523731,246.96737760335145L453.7753189760042,247.32265718951749L451.9288144049897,247.34071681959813L451.1860824080759,247.59122503349317L449.925245030925,248.45581601271624L449.6100342344871,249.1690806359602L449.27200721391273,249.51062324226496L447.42244699016373,249.63637748679866L446.5405332796363,249.3174048928904L445.60252799078444,249.7282264527239L444.75289638726827,250.30748878548457L443.52254231395636,249.77884104911755L441.76320281149674,249.70372192056675L441.33585932848655,249.3451424456298L440.0605720890271,249.37849614899005L439.6414109643083,248.8690764501216L439.78989837113113,248.53919881123875L439.66876284343016,247.88962329796595L438.7857041676725,247.07863782773074L438.6701574466024,246.50770908119375L438.85786455430934,245.3698371819737L439.11259962589247,244.5658176993229L439.13402871105063,242.20096002607988L438.9176270185999,241.79900224975336L438.3256732634982,241.97341862975918L437.97284967120504,241.77053536216954L437.8733926569257,240.64543916511502L437.1078492559973,240.02161890488787L435.5546850018036,239.64606150552754L435.31805586583505,239.14344472118955L434.4852967366751,239.05458075320348L433.3788970585483,238.6714679192346L432.0786637142155,238.76606985886247L431.59083556419864,239.35471672156746L430.406531547349,239.46261657223022L429.5670687733764,239.75720501716933L428.05912292757057,239.65718822527015L425.5286303241119,239.9976370769382L425.18164879385586,240.43220839657624L424.72070345660904,240.2954315646257L423.7810224583991,240.81047056255738L423.91591330583833,241.2578749283648L423.80653204680493,242.02847461849706L423.1961827742489,243.19978341044862L422.47213643911164,243.57859126071799L422.32596586307045,243.32501027992384L421.1132395948298,242.76612386553825L420.7603963305337,242.20696894476896L420.5838044497759,241.47177969912718L420.1776185798444,241.7977507126643L418.84765857198727,243.24061912291018L418.8926969756758,244.0626693467384L418.3709521852761,245.45324912980868L417.43629785310986,246.40117707910213L416.6981713137684,246.9763654091239L415.7121356457901,247.2243737604249L414.81013762899966,248.03285297840193L414.19850120375486,248.31658769308524L413.7014030899154,249.53936108915332L413.11027794074107,250.6924318864776L412.5392755464418,250.58471778344938L411.8562717406676,250.72661043095377L411.4663650075745,251.2798493235141L410.6497038325215,251.10773817278186L410.3385545459787,251.21007923605157L409.66399684552016,250.8036492387546L409.1954428873214,251.924058250107L408.7667894763872,253.26781129804112L407.9397495870653,254.54804874134425L407.03082470263325,255.35724509030752L405.94062321899037,255.99636480963727L405.27488054931746,256.8255680317643L404.446600678064,258.3813332387972L403.3605213782321,258.78176590282237L402.7661912516887,259.23428055022305L402.0622181642757,259.40758887607444Z" fill="#e1b03d" stroke = "#222" stroke-width=".35"></path>
    <text x="422" y="192" font-size= "4" font-weight="3.2">
    बाजुरा
  </text>
    </g>
</svg>