<svg xmlns="http://www.w3.org/2000/svg" xmlns:xlink="http://www.w3.org/1999/xlink" id="Layer_1" data-name="Layer 1" viewBox="0 0 897.49 595.71"><defs><clipPath id="clip-path"><rect x="27.2" width="842.45" height="595.71" style="fill:none"/></clipPath><clipPath id="clip-path-3"><rect x="41.6" y="55.44" width="814.13" height="452.66" style="fill:none"/></clipPath><clipPath id="clip-path-67"><rect x="707.88" y="510.75" width="147.61" height="63.36" style="fill:none"/></clipPath><clipPath id="clip-path-95"><rect x="27.2" width="842.26" height="595.5" style="fill:none"/></clipPath></defs><g style="clip-path:url(#clip-path)"><g style="clip-path:url(#clip-path-3)"><polyline points="676.68 60.24 676.92 61.92 677.16 63.12 678.36 64.8 679.08 66 679.56 66.48 679.8 67.68 680.76 69.36 682.2 71.04 683.88 72.48 685.08 72.96 688.2 73.2 688.44 73.44 687.48 74.64 684.6 77.04 683.88 78 683.4 79.44 683.4 80.16 683.64 81.12 684.12 82.56 684.84 83.76 685.08 84.72 685.08 85.68 684.36 86.88 684.36 87.6 685.32 90 686.28 91.69 686.28 93.13 686.52 93.61 687 94.08 687.96 94.33 689.4 95.05 690.36 96.72 690.84 97.92 690.84 98.64 690.84 99.13 690.84 99.84 691.32 100.56 692.04 102 692.28 102.72 692.52 103.69 692.28 104.64 692.52 105.13 693 105.61 693.96 106.33 695.4 107.28 696.12 108.49 696.36 110.41 695.88 111.61 693 114.97 692.76 115.69 692.04 118.09 691.8 118.81 692.04 119.53 692.52 120.25 696.12 122.41 699 124.09 699.72 124.81 699.96 126.97 700.44 128.17 700.92 129.37 701.16 130.09 700.68 131.77 700.92 133.69 700.68 135.61 700.68 136.09 701.4 138.25 701.64 139.21 701.64 139.69 700.2 142.33 699.96 142.57 699.96 143.05 700.44 144.01 700.44 145.69 699.72 148.09 699.72 148.33 699.96 148.81 700.44 149.53 700.44 150.01 700.2 150.97 697.32 155.29 697.32 155.77 697.8 156.73 697.56 157.93 697.56 158.65 697.8 158.89 698.76 160.57 699.96 161.77 700.68 163.21 701.16 163.93 702.12 164.89 702.36 165.37 702.84 166.33 703.08 169.93 703.08 171.61 703.8 174.25 704.52 175.45 705.48 176.89 706.68 178.09 706.92 178.81 707.16 180.25 707.16 180.97 706.68 183.37 706.44 185.05 706.68 186.49 707.16 189.37 707.16 191.53 707.4 194.17 708.12 195.61 709.08 197.05 709.8 197.53 711 199.93 711.48 200.65 711.72 201.13 712.2 201.85 712.44 202.33 712.44 204.01 712.2 206.89 712.2 208.09 712.44 211.45 712.92 213.85 713.64 214.57 717.48 216.49 717.96 216.97 718.68 218.17 719.88 221.77 720.6 223.21 722.28 224.17 725.16 224.65 725.88 224.65 726.6 224.65 727.08 224.89 728.28 226.33 729.48 228.25 730.68 229.69 733.09 231.37 734.76 232.57 736.45 234.25 737.88 236.17 738.13 236.89 738.37 237.85 737.88 239.29 737.4 240.25 737.16 241.45 737.4 241.69 738.13 242.41 738.37 243.13 738.61 243.85 738.85 244.09 739.57 244.33 741.25 244.57 742.92 244.33 743.88 244.09 744.13 244.33 744.61 244.57 745.33 245.53 745.57 246.49 746.28 247.21 746.52 247.45 747.49 247.93 748.45 248.17 749.65 248.65 750.61 248.65 751.81 248.65 752.29 248.89 755.65 252.49 757.09 253.21 759.01 253.69 759.97 254.65 760.93 256.57 760.93 256.81 760.93 258.01 760.69 259.93 760.69 260.89 760.21 262.57 759.73 263.77 759.01 264.25 758.53 264.49 755.65 264.97 755.17 265.21 754.93 265.45 755.17 266.41 755.65 267.85 755.41 268.57 755.17 269.05 753.97 270.01 752.77 270.73 749.41 272.17 742.92 275.77 742.45 278.17 741.97 279.13 741.49 279.85 741.25 279.85 739.8 279.13 738.13 278.65 736.68 278.65 735 279.13 732.13 278.65 730.2 277.93 728.52 277.93 726.6 278.65 723.48 278.65 719.4 279.61 717.72 279.85 716.52 279.37 714.6 279.37 712.92 279.85 712.68 279.85 711.72 281.05 710.76 281.53 709.56 282.73 708.84 283.21 708.12 283.21 705.24 282.97 704.28 282.73 703.8 282.73 702.84 283.45 699.48 283.93 697.32 284.41 697.08 284.41 694.44 285.37 692.28 285.37 691.56 284.65 690.6 281.53 690.6 281.29 689.88 281.05 687.24 280.81 686.52 280.81 683.64 282.49 681.48 284.17 681 284.65 681 285.13 680.52 285.61 680.52 286.57 681 288.01 681.24 289.45 681.24 293.06 681 293.3 680.28 293.54 678.12 293.77 675.72 293.54 673.8 292.33 672.6 291.86 672.12 291.62 671.16 291.86 670.68 292.33 669 294.74 668.76 295.21 667.8 296.42 667.32 296.89 665.88 297.38 663.96 297.86 663 298.1 660.12 299.54 658.44 300.01 657.24 300.01 656.52 300.01 656.28 300.01 655.32 300.01 654.36 300.25 653.88 300.25 652.68 299.3 652.2 298.57 651.96 298.57 648.12 298.1 645 298.81 643.32 300.01 642.36 300.25 640.92 300.98 637.8 302.42 636.36 302.65 634.2 302.18 633.48 302.18 632.52 302.65 630.84 302.65 627.96 303.86 627 304.81 625.32 304.81 624.6 305.06 623.88 305.77 623.4 306.5 622.68 309.38 622.2 310.1 621.72 310.82 620.52 311.3 617.88 311.78 616.2 312.02 615.24 312.5 613.32 314.42 611.64 316.1 610.92 317.06 610.68 317.78 609.72 319.46 609.72 320.66 609.96 322.34 609.48 323.3 608.28 324.5 608.04 325.22 607.32 327.38 607.08 327.62 606.84 328.1 606.12 328.1 604.2 327.86 603.24 328.34 602.76 328.58 602.28 328.82 600.84 328.58 599.16 327.62 598.2 327.14 597 326.42 596.28 326.18 594.84 326.18 593.64 325.94 592.2 325.22 590.76 323.78 590.28 322.34 590.28 320.9 590.04 319.46 590.28 318.02 590.52 316.34 591.24 314.42 591.24 314.18 590.28 312.02 589.56 311.3 589.32 308.42 589.08 307.46 588.84 306.74 587.4 305.77 586.67 305.54 585.24 305.54 583.55 304.57 582.6 303.13 581.39 301.69 578.27 299.06 577.55 298.81 577.32 298.81 576.6 299.06 575.63 299.3 574.67 299.77 573.72 300.74 573.24 300.98 572.27 301.21 571.07 301.45 568.67 302.65 566.75 303.62 565.31 303.38 563.39 303.86 561.95 304.1 560.51 302.89 558.59 301.45 557.63 300.74 557.15 300.25 556.91 300.01 555.95 300.25 554.51 300.74 553.31 299.77 552.35 298.33 551.39 297.62 550.43 296.42 549.47 295.69 548.51 295.45 547.55 295.69 546.83 295.69 543.23 294.5 540.59 292.81 537.71 290.18 536.03 289.45 534.59 288.98 533.87 288.98 532.43 289.45 531.47 289.21 530.51 288.98 528.59 288.98 528.11 288.74 526.67 289.21 525.71 289.45 524.75 289.69 522.59 289.69 521.15 289.94 519.23 289.69 518.03 289.94 516.83 290.18 516.35 290.18 514.67 290.18 514.43 291.13 514.43 292.1 514.19 294.01 513.47 295.45 512.51 296.89 509.15 300.74 508.67 300.74 507.95 300.74 506.75 300.98 505.79 301.21 505.07 301.69 504.59 301.94 504.35 301.94 504.11 302.18 503.87 302.65 503.39 302.89 502.43 303.38 501.23 303.38 500.03 303.86 497.87 304.1 496.91 304.33 495.95 304.57 494.99 304.81 493.79 305.54 491.15 305.54 487.55 306.5 487.07 306.74 485.87 308.18 484.91 309.86 484.43 311.06 482.99 313.7 482.51 314.18 482.03 314.9 481.55 315.38 481.07 315.86 480.83 316.34 480.11 317.3 479.87 317.3 479.39 318.02 478.19 318.74 476.99 319.94 476.51 320.18 475.55 320.66 475.55 321.38 475.79 322.58 475.79 323.06 476.27 325.7 476.51 326.18 476.75 327.14 477.23 328.34 477.71 329.54 478.43 331.7 480.11 334.58 480.11 335.54 480.35 336.26 480.59 337.46 480.35 337.94 479.87 338.66 479.87 339.38 479.39 340.1 478.91 342.26 477.95 344.18 476.99 345.62 476.27 346.34 475.07 347.78 474.59 348.26 474.59 348.74 474.59 349.46 474.83 349.7 475.07 350.42 475.31 350.66 475.31 352.1 475.31 352.34 475.31 353.3 475.31 354.26 475.07 354.98 474.59 355.46 472.91 355.46 471.23 355.22 469.31 355.22 467.39 354.98 464.03 355.46 462.83 355.22 462.11 355.22 460.43 355.7 459.95 355.94 458.27 357.14 457.31 358.1 455.39 359.78 453.71 361.46 452.99 362.18 451.31 363.62 449.63 365.06 446.75 367.94 445.55 368.9 444.59 369.38 444.11 369.62 440.51 369.62 437.63 370.58 436.43 370.82 435.95 370.82 435.23 371.3 434.75 371.78 434.27 372.26 434.03 372.5 433.79 373.7 433.79 374.66 433.55 375.38 433.07 376.34 432.35 378.02 432.11 378.5 432.11 378.98 431.63 379.7 428.99 379.7 428.03 379.94 426.58 380.66 426.11 381.14 425.38 381.38 424.9 381.62 424.19 381.38 423.7 381.38 423.23 381.62 422.99 381.86 422.26 382.58 422.02 383.06 421.79 383.3 421.31 384.02 418.9 386.66 417.7 389.3 416.75 390.26 416.75 390.5 417.7 392.66 418.43 394.1 418.67 395.06 418.67 395.78 418.67 396.5 418.67 397.46 418.19 399.14 417.94 399.62 417.46 400.58 416.75 401.3 415.79 402.02 414.11 402.98 412.19 403.46 411.46 403.46 410.74 403.46 410.26 403.22 409.3 402.74 408.1 402.02 407.62 401.54 406.66 401.06 406.42 401.06 405.94 401.06 404.98 401.06 404.5 401.3 402.58 402.5 402.34 402.74 400.9 405.38 400.66 405.62 399.7 406.82 399.22 407.06 398.74 407.54 398.02 408.5 397.78 408.74 397.3 409.7 397.06 410.66 397.06 412.34 396.82 412.58 396.82 413.54 396.82 414.26 396.82 414.74 396.82 415.46 396.58 415.94 396.34 417.86 395.86 418.82 395.86 420.02 396.1 421.46 396.58 422.42 397.06 423.86 397.06 424.34 397.06 424.58 396.58 425.3 396.1 425.54 395.62 425.54 395.14 425.54 394.42 426.02 393.94 426.98 393.22 427.46 392.74 427.7 391.06 427.7 390.82 427.46 390.58 427.22 389.86 426.98 389.14 426.5 388.42 426.98 387.7 427.46 386.74 428.18 386.02 428.9 385.78 429.14 385.54 430.1 385.78 431.54 385.3 432.26 385.3 432.5 384.82 433.22 384.58 433.7 384.1 434.42 382.66 435.38 380.98 436.34 378.82 437.78 377.14 438.5 375.22 439.7 374.02 440.9 372.58 442.34 371.86 442.82 371.14 443.3 370.66 443.3 369.94 443.06 369.46 443.06 368.5 442.82 368.26 442.82 367.54 443.3 366.82 443.78 366.82 444.02 366.58 444.98 366.34 445.46 365.62 446.18 365.14 446.9 363.94 448.1 363.46 448.34 361.54 449.06 360.1 449.78 358.42 450.74 357.46 451.46 356.26 452.18 356.26 452.42 355.78 452.9 354.58 453.38 352.18 454.34 351.22 454.34 350.26 454.58 349.78 454.58 349.06 454.58 347.86 454.82 346.66 454.82 344.26 454.58 343.54 454.58 342.58 454.82 341.86 455.06 340.66 456.02 340.18 456.26 339.22 457.46 338.98 457.94 338.02 459.38 337.54 460.34 336.58 461.78 336.34 462.02 335.86 462.98 335.38 464.42 334.9 465.86 334.66 466.58 334.66 466.82 334.66 467.3 334.42 468.26 334.18 468.74 333.46 469.94 333.46 470.18 333.46 470.66 333.22 471.14 332.98 472.58 332.74 473.54 332.5 474.02 332.26 474.26 331.78 474.98 331.54 475.46 331.54 475.7 331.3 476.18 331.06 476.9 330.82 477.38 330.34 477.62 330.34 477.86 329.86 478.1 329.62 478.34 329.38 478.58 328.9 478.82 327.94 479.06 327.7 479.3 327.22 479.3 326.98 479.54 326.74 479.78 326.26 479.78 325.3 480.02 324.82 480.26 324.34 480.26 324.1 480.26 323.62 479.78 323.14 479.3 322.9 479.06 321.94 478.58 321.7 478.34 321.22 478.1 320.98 478.34 320.5 478.1 319.78 478.1 319.06 477.86 318.58 478.1 318.1 478.1 317.86 478.1 317.62 478.1 317.14 478.34 316.42 478.34 315.94 478.82 315.46 478.82 315.22 479.06 314.5 479.3 314.26 479.3 313.78 479.3 313.06 479.3 312.82 479.3 310.9 479.54 310.66 479.78 310.42 479.78 310.18 479.78 309.7 480.02 308.74 480.26 307.06 480.74 306.58 480.98 305.86 481.22 304.9 481.94 304.42 482.42 303.94 482.9 303.7 482.9 303.22 483.14 302.98 483.14 302.5 483.38 302.26 483.62 302.26 483.86 301.54 484.1 301.3 484.34 301.06 484.58 300.82 484.58 300.58 484.82 300.1 485.06 299.86 485.06 298.9 485.06 298.42 485.06 297.7 484.82 297.22 484.82 296.02 485.31 295.78 485.31 295.3 485.55 294.34 485.31 293.62 485.06 293.14 485.06 292.9 484.82 292.66 484.58 292.42 484.58 292.18 484.82 291.94 485.06 291.7 485.31 291.46 485.55 290.98 486.02 290.74 486.5 290.26 486.99 290.02 487.94 289.3 488.9 289.06 489.14 288.34 489.63 287.86 490.11 287.38 490.58 287.14 490.82 286.9 491.31 286.66 491.79 286.66 492.02 286.18 492.5 285.94 492.75 285.7 492.99 285.46 493.23 285.46 493.7 285.22 494.19 284.74 494.9 284.5 494.9 284.26 495.38 284.02 495.63 283.78 495.87 283.78 496.35 283.78 496.82 283.54 497.06 283.3 497.79 283.06 498.75 283.06 498.99 283.3 499.46 283.3 499.7 283.3 500.19 283.06 500.43 282.82 500.67 282.34 500.9 282.1 501.14 281.86 501.14 281.62 501.63 281.38 501.63 281.38 502.11 281.14 502.35 280.66 503.06 280.66 503.31 280.42 503.55 279.94 503.55 279.7 503.79 279.46 503.55 278.98 503.31 278.5 503.31 278.5 503.06 278.02 503.06 277.78 502.82 276.82 502.11 276.34 501.87 276.1 501.63 275.38 501.38 275.14 501.38 274.9 501.38 274.9 501.14 274.42 501.38 273.94 501.63 273.7 501.87 273.46 501.87 272.98 501.87 272.74 501.63 271.78 501.14 271.3 500.9 270.82 500.67 270.34 500.67 269.86 500.19 268.9 499.46 268.18 498.75 267.7 498.5 267.21 498.5 266.74 498.26 266.5 498.26 266.25 498.02 266.25 497.55 266.25 497.06 266.01 497.06 265.77 496.82 265.3 496.82 264.81 496.82 264.57 496.82 264.57 496.58 264.33 496.58 264.1 496.58 263.86 496.82 263.62 496.82 263.38 496.82 263.13 496.82 263.13 497.06 262.89 497.31 262.65 497.55 262.18 497.55 262.18 497.31 261.94 497.06 261.69 496.58 261.45 496.11 261.21 495.38 260.98 495.14 260.98 494.9 260.98 494.43 260.74 494.19 260.5 493.94 260.25 493.94 260.01 494.19 259.77 494.43 259.77 494.9 259.54 494.9 259.3 495.63 259.3 496.58 258.81 497.06 258.81 497.31 258.57 497.31 258.33 497.31 257.62 497.31 257.13 497.31 256.89 497.31 256.65 497.31 256.42 497.31 255.46 497.06 255.22 496.82 254.97 496.58 254.5 496.58 254.25 496.35 253.53 496.11 253.29 496.11 252.81 496.11 251.85 495.87 250.65 495.87 250.41 495.87 250.17 495.87 249.93 495.63 249.21 495.63 248.97 495.38 248.73 495.38 248.01 495.14 247.53 495.14 247.05 495.14 246.81 495.14 245.61 494.67 245.13 494.67 244.17 494.43 243.45 494.43 242.73 494.19 242.25 494.43 241.77 494.67 241.53 494.9 241.05 495.38 240.81 495.63 240.33 495.87 239.61 495.87 239.61 495.63 239.13 495.87 238.89 495.63 238.65 495.38 238.17 495.38 237.93 495.14 237.45 494.9 237.21 494.67 236.49 494.67 236.01 494.43 235.77 494.43 235.29 494.43 235.05 494.19 234.09 494.19 233.61 494.19 233.37 494.19 232.41 494.43 231.93 494.43 231.45 494.67 230.97 494.9 230.73 494.9 230.49 494.9 230.01 494.9 229.53 494.9 229.29 494.67 229.05 494.67 228.81 494.43 228.57 494.19 228.33 493.94 227.85 493.46 227.61 493.46 227.37 493.23 226.89 493.23 225.93 493.7 225.45 494.19 224.97 494.67 224.73 494.9 224.49 494.9 224.01 495.14 223.53 495.38 222.81 495.38 222.33 495.87 221.61 496.11 221.13 496.35 220.89 496.35 221.13 495.87 222.09 494.67 222.09 494.19 222.33 493.94 222.57 493.7 223.29 493.46 223.53 492.99 223.77 492.75 224.01 492.26 224.25 491.55 224.49 491.06 224.97 490.58 225.21 490.35 225.45 489.87 225.69 489.63 226.41 489.14 226.65 488.9 226.65 488.67 226.89 488.43 226.65 487.94 226.17 487.7 225.69 487.46 225.45 487.23 225.45 486.99 225.45 486.75 225.69 485.79 225.69 485.55 225.45 485.55 225.21 484.82 224.97 484.58 224.97 483.86 224.97 483.38 225.21 483.14 225.45 482.66 225.93 481.94 225.93 481.46 225.93 481.22 226.17 480.74 225.93 480.26 225.69 480.02 225.69 479.78 225.69 479.3 225.69 479.06 225.69 478.82 225.69 478.34 225.93 477.62 225.93 477.38 225.69 477.14 225.69 476.9 225.45 476.42 225.45 476.18 225.45 475.94 225.45 475.46 225.69 475.22 225.93 474.98 226.41 474.5 226.41 474.26 226.89 474.02 227.13 474.02 227.61 473.54 228.09 473.3 228.09 473.06 228.33 472.58 228.57 472.34 228.81 471.86 229.05 471.62 229.05 471.38 229.05 471.14 229.05 470.9 228.81 470.42 228.81 469.46 228.57 469.46 227.85 469.46 227.37 469.7 227.13 469.7 227.13 469.46 226.89 469.46 226.89 469.22 227.13 468.5 226.89 468.02 227.37 467.54" style="fill:none;stroke:#005ce6;stroke-linecap:round;stroke-linejoin:round;stroke-width:1.4400899410247803px"/><polyline points="227.37 467.54 229.05 467.3 229.05 466.82 228.81 465.86 228.81 465.38 228.81 464.9 229.77 464.42 230.01 464.42 230.49 464.42 230.73 464.66 231.45 465.14 231.93 465.14 232.65 465.14 234.81 464.66 235.53 464.66 236.49 464.66 236.97 464.42 237.45 464.18 237.69 463.94 238.17 463.22 238.65 462.74 238.65 461.78 238.89 461.54 238.89 460.58 238.89 458.9 238.89 458.18 238.89 457.22 239.13 456.5 239.61 455.3 240.09 454.1 240.33 453.62 240.33 453.38 240.57 451.94 240.57 451.7 240.57 450.98 240.33 450.74 240.33 450.26 240.09 449.54 239.13 448.1 238.65 447.38 238.17 447.14 237.45 446.66 237.45 446.42 238.65 443.54 238.89 441.86 239.13 441.38 239.13 441.14 239.13 440.66 239.13 439.7 239.61 438.26 239.61 437.3 239.61 437.06 239.85 436.58 240.09 436.34 240.57 435.62 240.81 434.9 241.05 434.42 241.53 432.98 241.77 432.02 242.01 431.78 242.01 431.3 242.49 429.86 242.49 429.62 242.73 429.38 243.21 428.66 243.21 428.42 243.69 427.94 243.93 427.46 244.41 427.22 245.61 426.74 248.49 425.78 248.73 425.54 249.45 425.06 249.93 424.58 250.17 424.1 250.89 422.9 251.13 421.94 251.13 420.5 251.37 419.54 251.62 419.06 252.57 418.82 252.57 418.58 253.53 417.62 253.78 417.38 254.01 416.18 254.25 415.46 254.5 414.74 255.69 413.06 256.18 412.34 256.65 412.1 257.38 411.62 258.33 411.14 258.57 410.9 257.86 410.18 257.13 409.46 256.42 408.98 256.18 408.74 255.69 408.26 254.74 406.82 254.01 406.34 253.78 406.1 253.53 405.62 253.78 405.14 253.78 404.66 253.53 403.7 253.29 402.74 252.57 402.02 252.34 401.78 252.34 401.54 251.85 400.58 251.37 399.38 250.65 398.18 250.41 397.7 249.21 395.78 248.01 393.14 247.29 391.94 246.57 391.22 245.37 390.02 244.17 388.82 243.69 388.34 242.49 387.14 241.77 386.42 238.41 382.82 237.93 382.58 237.21 381.62 236.49 380.66 236.25 380.42 234.33 378.5 233.85 378.26 234.09 378.02 234.57 377.3 235.29 376.82 235.77 376.34 236.49 375.86 237.45 374.9 238.41 374.18 240.09 373.46 241.05 373.22 242.01 372.98 244.17 372.26 245.85 372.26 246.33 372.02 246.81 371.78 247.29 371.54 248.01 371.3 248.73 371.06 249.93 371.54 250.89 371.54 251.37 371.54 251.62 371.54 252.09 371.78 253.06 371.54 254.5 371.06 255.22 370.82 255.94 370.34 257.86 369.38 259.06 369.14 259.77 368.9 260.25 368.66 261.21 368.42 262.18 367.94 262.65 367.94 263.62 367.7 264.57 366.74 265.06 366.26 265.77 365.3 266.5 364.34 267.45 363.14 268.18 362.66 269.38 361.46 270.34 360.98 271.06 360.5 272.02 359.54 274.18 357.38 274.66 356.9 275.14 356.18 275.62 355.94 276.1 355.7 276.34 355.46 276.58 355.46 276.82 355.22 277.3 354.98 278.98 353.3 279.94 352.34 280.18 352.1 280.9 351.38 281.14 351.14 282.58 349.7 283.3 348.74 283.54 348.26 284.26 347.54 284.98 346.58 285.94 346.1 287.14 345.14 288.58 343.94 288.82 343.46 289.54 342.5 289.78 342.26 290.26 341.78 290.5 341.54 291.7 340.34 292.42 339.62 293.14 339.38 293.62 339.14 294.1 338.42 294.58 337.7 294.82 337.46 295.54 336.98 295.78 336.74 296.02 336.5 298.18 334.58 298.9 333.86 298.9 333.62 299.86 332.42 300.1 331.46 300.58 330.74 301.06 329.78 301.3 329.54 301.78 329.3 302.02 329.06 302.26 327.86 302.74 327.38 302.74 326.9 303.46 325.46 303.7 324.5 304.42 323.06 304.66 322.34 305.14 321.86 306.82 320.66 308.5 319.7 309.46 319.22 310.18 319.22 310.42 318.98 310.9 318.02 310.9 317.3 311.14 316.82 311.38 316.1 311.62 315.86 312.1 315.38 312.58 315.14 313.54 314.9 314.26 314.66 315.46 313.94 316.9 312.98 317.14 312.74 318.58 311.78 319.78 310.82 320.98 310.1 321.94 309.38 322.66 308.9 322.9 308.42 322.42 307.46 321.94 306.74 321.46 306.01 320.02 304.57 319.54 303.86 319.54 303.62 319.06 303.13 318.58 302.65 317.86 302.18 317.14 301.69 316.9 301.45 316.42 300.98 315.22 300.5 314.74 300.25 314.26 300.01 314.26 299.77 314.26 299.54 314.98 299.06 315.22 298.81 315.94 297.86 317.86 295.21 319.54 293.3 319.54 293.06 320.5 292.1 321.94 291.13 322.66 290.65 323.86 290.18 325.06 289.45 325.54 288.98 327.22 287.54 328.18 286.33 329.62 285.13 330.58 283.69 331.54 282.01 332.02 281.29 332.98 279.61 333.46 278.41 333.7 277.21 335.38 276.97 336.34 277.21 337.54 277.45 338.26 277.69 338.5 277.21 338.98 276.73 339.46 276.01 339.94 275.29 340.18 274.33 340.9 272.89 341.62 270.97 342.34 270.01 342.34 269.53 343.3 268.57 343.78 267.13 344.02 266.41 345.22 264.25 345.94 262.09 346.18 261.61 345.7 261.37 344.5 260.65 343.3 260.17 342.82 259.93 341.62 259.69 340.66 259.45 339.94 259.45 338.98 259.21 337.54 258.97 336.58 258.97 335.86 258.73 335.38 258.73 335.14 258.73 334.18 258.49 333.7 258.49 332.74 257.77 331.78 257.05 331.54 256.81 330.58 256.33 329.86 255.61 328.66 254.89 327.7 254.65 327.22 254.41 326.02 254.17 325.54 253.93 325.06 253.45 323.62 252.97 322.9 252.73 322.42 252.49 321.94 252.25 321.22 251.77 319.54 251.05 318.58 250.33 317.86 250.09 315.22 249.85 313.54 250.09 313.54 250.33 313.06 250.33 312.58 250.09 312.34 249.85 312.1 249.61 311.62 248.89 311.38 248.41 311.38 247.69 311.14 246.01 311.14 245.29 311.14 244.09 311.14 242.17 310.9 241.21 310.9 240.97 310.42 240.01 309.94 239.53 308.5 237.13 308.26 236.17 308.02 235.45 308.02 234.01 308.02 232.81 308.02 231.61 308.02 229.45 308.02 228.73 307.78 227.53 307.78 227.05 307.54 226.57 307.3 225.61 307.3 224.17 307.54 223.69 307.78 222.97 307.78 222.49 307.78 220.81 307.54 220.09 307.54 219.85 306.82 219.13 305.38 217.45 304.9 216.49 303.94 215.29 303.7 214.81 303.22 213.85 302.74 213.13 302.5 212.41 302.26 210.97 302.02 210.49 301.54 209.05 301.3 207.37 301.3 206.41 301.3 206.17 301.06 205.69 300.82 204.49 300.58 203.53 300.58 202.81 300.58 202.57 300.34 201.85 300.34 201.61 300.1 201.37 299.86 200.89 299.62 200.17 299.62 199.93 299.38 199.45 299.14 199.21 298.9 198.49 298.66 198.49 297.94 197.77 297.7 197.29 296.98 197.05 296.74 196.33 296.02 196.09 295.3 195.37 294.82 194.89 294.34 194.17 293.62 193.93 293.14 193.45 292.42 192.97 291.94 192.73 291.46 192.49 290.98 192.25 290.74 191.77 290.26 191.77 290.02 191.53 290.02 191.05 289.54 190.33 288.82 190.09 288.58 190.09 288.34 189.85 288.1 189.61 287.38 189.13 287.14 188.89 286.66 188.65 286.42 188.41 286.18 188.17 285.94 187.69 285.7 187.45 285.22 186.97 284.98 186.49 284.5 186.25 284.26 185.77 284.02 185.77 284.02 185.53 283.54 185.05 282.82 184.33 282.1 183.37 281.38 182.65 280.42 181.69 280.18 181.45 279.46 180.73 278.98 179.77 278.5 179.05 277.78 178.33 277.06 177.61 276.34 177.13 275.62 176.41 274.9 175.93 274.66 175.69 274.42 175.21 274.18 174.73 274.18 174.49 273.94 174.25 273.94 173.77 273.7 173.29 273.46 173.05 272.98 172.33 272.74 172.09 272.26 171.85 272.02 171.61 272.02 171.37 272.26 170.65 272.74 169.93 272.74 169.21 273.22 168.25 273.46 168.01 273.22 167.53 273.94 167.53 275.14 167.53 276.1 167.53 278.26 167.53 279.22 167.53 280.18 167.29 281.86 167.29 284.5 167.29 286.18 167.29 286.9 167.29 287.38 167.29 288.58 167.29 289.3 167.53 290.74 167.77 291.22 167.77 291.7 167.53 292.18 167.29 292.42 166.81 292.66 166.33 292.9 165.85 293.14 165.61 293.38 165.37 293.86 165.37 295.06 165.13 295.54 164.65 295.78 164.41 296.5 164.17 296.98 164.17 297.7 164.41 298.18 164.65 298.9 164.65 299.38 164.41 299.62 164.65 300.1 164.89 300.58 164.89 301.06 164.89 301.54 164.89 302.02 164.89 302.5 164.41 302.98 163.93 303.7 163.45 303.94 163.45 305.14 163.69 305.62 163.69 306.34 163.21 307.06 162.97 307.78 162.97 308.5 162.73 309.7 162.49 310.18 162.01 311.14 161.77 312.82 161.29 314.02 160.81 314.74 160.57 315.22 160.57 316.9 159.61 317.14 159.13 318.58 158.65 319.3 158.41 319.78 157.69 320.26 156.73 320.74 156.25 321.22 155.53 321.46 155.05 322.66 155.05 323.38 155.05 323.86 154.81 324.34 154.57 324.58 154.33 325.3 154.33 325.78 154.33 327.22 153.85 328.18 153.61 329.14 153.13 329.86 152.65 331.06 151.93 331.54 151.45 332.02 151.21 332.98 150.97 333.94 150.49 334.66 150.01 335.14 150.01 335.86 150.25 336.34 150.49 337.06 151.21 337.3 151.45 338.02 151.45 338.5 151.45 339.22 151.69 339.94 151.45 341.14 151.45 341.62 151.69 342.1 151.93 342.34 151.93 342.34 152.17 342.58 152.17 342.58 152.89 342.58 153.61 342.34 154.33 342.34 154.81 342.1 155.05 342.34 155.29 342.34 155.53 342.58 156.25 342.58 157.21 342.58 157.93 342.58 159.13 342.58 160.09 342.58 161.05 342.58 161.29 342.1 162.01 341.62 162.97 341.62 163.93 341.86 164.41 341.86 164.65 342.1 165.37 342.34 165.61 342.58 166.09 343.06 166.33 343.78 166.57 344.26 166.81 344.74 167.29 345.7 167.53 346.66 167.77 347.38 167.77 347.86 167.77 348.58 167.53 349.3 167.53 349.54 167.53 350.5 167.77 350.98 168.01 351.46 168.25 351.94 168.25 353.14 168.49 353.62 168.73 355.06 168.73 355.78 168.73 356.26 168.97 356.74 168.97 357.22 168.73 358.42 168.49 359.14 168.25 359.62 168.25 360.58 168.25 361.06 168.25 361.78 168.49 362.26 168.49 362.98 168.73 363.46 168.97 364.66 169.69 365.62 169.93 366.1 170.41 366.82 170.65 367.3 171.13 368.02 171.61 368.26 172.09 368.74 173.05 368.74 173.77 369.22 174.49 369.46 174.97 369.7 175.93 369.94 176.17 370.42 175.93 370.9 175.45 371.86 174.73 372.58 174.01 373.06 173.53 373.3 173.05 373.54 172.81 374.02 172.33 374.98 171.61 375.7 171.13 377.38 169.93 378.1 169.45 378.34 168.97 378.82 168.01 378.82 167.77 380.26 167.05 380.74 166.57 381.46 165.85 382.42 165.61 382.9 165.61 383.38 164.89 384.1 164.17 384.34 163.45 385.06 162.25 385.54 161.77 385.78 161.29 386.5 160.33 387.46 159.61 387.7 158.65 387.7 158.17 387.94 157.45 387.94 156.25 387.94 155.77 388.18 155.29 388.66 154.81 388.9 154.57 389.14 154.57 389.62 154.57 390.1 154.33 390.82 153.85 391.06 153.37 391.54 152.89 392.26 152.41 392.74 152.17 393.46 151.93 393.94 151.45 394.9 150.97 395.38 150.25 395.86 149.77 396.34 149.05 396.58 148.81 397.3 148.33 397.78 148.09 398.02 147.85 398.26 147.61 398.5 146.89 398.74 146.17 398.98 145.93 399.22 145.69 399.7 145.69 400.42 145.45 400.66 145.45 401.14 144.97 401.38 144.73 401.62 144.01 402.1 142.57 402.34 141.37 402.58 140.65 402.58 139.69 402.82 138.73 403.06 137.53 403.06 136.57 403.06 135.37 403.06 134.65 402.82 133.93 402.82 133.69 402.58 132.73 402.58 132.01 402.34 131.05 402.1 130.09 402.1 129.13 402.1 128.65 402.1 128.41 402.34 127.45 402.34 127.21 402.58 126.73 403.06 126.01 403.54 125.77 403.54 125.53 403.78 125.29 404.02 125.05 404.98 125.05 405.94 125.05 406.66 124.81 406.9 124.81 407.86 123.85 408.58 123.61 409.78 122.65 410.26 122.65 411.94 121.93 412.67 121.69 413.87 121.45 414.82 121.45 415.79 121.69 416.5 121.93 416.99 121.93 417.7 121.69 418.67 121.21 419.14 120.73 419.87 120.25 420.58 119.53 420.82 119.29 421.06 118.81 421.55 118.57 422.02 118.09 422.75 117.61 423.7 117.13 424.43 116.89 425.14 116.65 425.87 116.65 426.82 116.17 427.79 116.17 428.99 116.41 429.71 115.93 430.43 115.93 431.63 115.93 432.35 115.93 432.83 116.17 433.55 116.17 433.79 116.17 434.99 116.17 436.19 116.17 436.67 116.17 437.15 116.17 437.63 116.17 438.11 116.17 439.07 115.69 439.31 115.45 440.51 114.97 441.23 114.97 441.71 114.97 441.95 114.97 442.19 114.73 442.91 114.49 443.39 114.25 443.87 114.25 444.83 114.49 445.55 114.49 446.27 114.49 446.51 114.73 447.47 115.21 448.19 115.21 448.67 115.21 449.39 115.45 450.11 115.45 450.59 115.69 450.83 115.69 451.55 116.17 452.03 116.41 452.99 116.65 453.47 116.65 453.95 116.89 454.91 117.13 455.39 117.13 455.87 117.13 456.35 117.37 457.07 117.37 457.55 117.37 457.79 117.61 458.99 117.85 459.23 117.85 459.47 117.85 460.19 117.85 460.67 118.09 461.15 118.09 461.63 118.09 461.87 118.33 462.11 118.33 462.35 118.33 463.07 118.09 463.79 118.09 464.75 118.33 465.23 118.09 466.19 118.09 466.91 118.09 467.63 118.33 468.11 118.57 468.59 119.05 469.07 119.29 469.31 119.53 469.55 119.77 469.79 120.01 470.51 120.01 471.47 120.01 472.43 120.01 473.15 120.01 473.63 120.01 473.87 119.77 474.11 119.77 474.35 119.53 475.07 119.29 475.31 119.29 476.27 119.29 476.99 118.81 477.47 118.81 478.19 118.81 478.91 118.81 479.15 118.57 479.63 118.33 479.87 117.85 479.87 117.61 479.87 117.37 480.11 117.37 482.27 117.61 486.35 116.89 488.03 116.89 490.19 117.61 492.83 119.05 494.75 119.29 495.95 119.29 497.15 119.77 499.07 120.01 503.39 121.93 506.27 122.65 507.47 123.37 510.35 125.29 512.99 126.73 514.67 127.69 515.87 128.89 516.59 129.85 518.03 131.05 519.23 131.77 522.11 132.01 523.55 132.97 524.99 134.65 525.23 134.89 525.95 135.85 526.43 136.09 527.15 136.33 530.03 136.81 530.51 137.05 532.91 138.25 535.07 139.45 535.79 139.93 537.23 140.17 539.39 141.37 539.87 141.37 542.27 140.89 542.99 140.89 543.95 141.13 545.15 141.61 547.31 141.61 548.51 141.61 549.71 141.13 552.35 140.65 553.79 141.13 554.75 141.85 555.47 142.81 556.19 144.01 556.67 144.73 556.91 144.97 557.87 144.73 561.47 143.05 563.63 142.57 567.23 142.33 568.19 142.57 569.63 143.29 572.03 144.49 573 145.45 574.43 145.93 575.15 146.65 575.15 147.13 574.67 147.85 574.2 148.57 572.03 151.45 571.55 152.17 571.79 156.25 571.79 157.21 572.03 159.13 572.51 160.57 573 161.05 573.48 162.49 573.48 164.17 573.48 164.41 573.72 165.61 573.96 167.05 573.72 170.65 574.2 172.81 576.36 179.77 576.84 182.41 577.08 183.37 577.79 184.57 578.51 187.93 579.72 189.13 580.2 189.61 581.15 191.53 581.39 193.69 581.63 195.37 581.88 195.85 582.12 196.09 583.32 196.09 584.75 195.37 585.96 194.17 588.36 192.97 589.08 192.25 589.8 192.01 592.92 190.33 593.64 189.85 594.36 189.13 598.92 186.25 600.12 185.05 600.84 183.61 602.04 182.17 603.24 180.97 605.4 179.29 607.08 178.09 607.8 177.85 609 176.65 610.2 174.25 611.16 172.81 611.64 171.85 613.08 170.41 613.8 168.73 614.28 167.05 615.96 162.97 616.2 162.01 616.44 161.29 617.4 160.09 620.04 158.41 621.24 156.97 623.16 154.33 624.36 153.37 624.6 152.89 626.04 151.45 628.44 149.29 630.12 148.09 630.6 147.37 631.56 145.45 631.32 144.25 630.84 143.77 630.12 142.33 629.64 141.61 628.92 140.89 626.28 137.53 624.6 134.17 624.12 133.93 624.12 133.45 624.12 132.25 624.84 129.37 627.24 124.81 627.96 124.09 628.68 123.61 629.64 123.37 630.84 123.13 631.56 122.17 632.04 120.25 632.76 119.05 633.48 118.09 633.72 117.37 633.72 113.29 634.92 110.17 634.68 105.36 635.16 102.72 635.16 102.48 634.92 101.77 634.44 101.05 634.68 100.33 635.16 99.84 635.4 99.61 637.08 99.36 638.28 98.64 644.28 97.44 645.72 97.92 649.32 98.41 651.24 100.81 652.68 101.77 653.16 101.77 653.64 101.28 653.4 99.13 653.16 98.89 652.68 87.84 652.2 84.24 652.2 81.6 651.72 78.24 651 69.12" style="fill:none;stroke:#005ce6;stroke-linecap:round;stroke-linejoin:round;stroke-width:1.4400899410247803px"/><polyline points="651 69.12 651 66 650.76 64.32 651 64.32 651.24 63.84 654.84 62.88 656.04 62.4 657.96 62.16 658.92 61.92 660.36 60.96 661.32 60.72 662.76 60.96 663.24 60.96 665.64 61.68 666.6 61.68 668.04 61.44 669.24 60.96 671.4 60.72 672.6 60.96 673.56 60.72 675.48 60 676.2 59.76 676.68 60 676.68 60.24" style="fill:none;stroke:#005ce6;stroke-linecap:round;stroke-linejoin:round;stroke-width:1.4400899410247803px"/><polyline points="232.41 129.37 233.13 130.81 233.37 131.05 234.57 131.77 235.53 132.01 237.69 132.49 239.13 133.21 240.57 134.17 241.53 134.65 242.01 135.13 242.73 135.61 243.93 136.57 244.41 137.77 245.85 139.69 246.33 140.41 246.81 141.61 247.05 143.29 248.25 146.17 248.49 147.61 248.73 148.81 248.73 150.01 249.21 151.69 249.45 151.93 249.93 152.17 249.93 152.41 249.93 152.65 250.17 152.65 250.17 152.89 250.89 153.37 251.62 153.85 252.09 154.09 252.57 154.57 252.81 154.81 253.29 155.05 253.53 155.29 253.78 155.53 254.25 156.01 254.74 156.49 254.97 156.97 255.22 157.45 255.46 157.93 255.69 158.41 255.94 159.13 256.18 160.09 256.42 160.57 256.42 160.81 256.65 160.81 256.89 160.81 257.62 160.81 257.62 160.33 258.1 160.09 259.54 160.09 260.25 160.09 260.74 159.85 261.21 159.61 262.89 159.13 263.13 158.89 263.86 158.65 264.81 158.41 265.3 157.93 265.77 157.45 266.25 157.21 266.5 157.21 266.98 156.73 267.45 156.73 268.42 156.73 268.9 156.73 269.38 156.73 269.86 156.97 270.34 157.21 270.82 157.45 271.3 157.93 271.54 158.41 272.02 159.13 272.26 159.37 272.98 159.85 273.22 160.09 273.46 160.57 273.7 161.29 273.94 161.77 273.94 162.49 273.94 163.21 273.94 163.45 273.7 164.41 273.46 164.89 273.22 165.37 272.98 166.33 273.22 167.53 273.46 168.01 273.22 168.25 272.74 169.21 272.74 169.93 272.26 170.65 272.02 171.37 272.02 171.61 272.26 171.85 272.74 172.09 272.98 172.33 273.46 173.05 273.7 173.29 273.94 173.77 273.94 174.25 274.18 174.49 274.18 174.73 274.42 175.21 274.66 175.69 274.9 175.93 275.62 176.41 276.34 177.13 277.06 177.61 277.78 178.33 278.5 179.05 278.98 179.77 279.46 180.73 280.18 181.45 280.42 181.69 281.38 182.65 282.1 183.37 282.82 184.33 283.54 185.05 284.02 185.53 284.02 185.77 284.26 185.77 284.5 186.25 284.98 186.49 285.22 186.97 285.7 187.45 285.94 187.69 286.18 188.17 286.42 188.41 286.66 188.65 287.14 188.89 287.38 189.13 288.1 189.61 288.34 189.85 288.58 190.09 288.82 190.09 289.54 190.33 290.02 191.05 290.02 191.53 290.26 191.77 290.74 191.77 290.98 192.25 291.46 192.49 291.94 192.73 292.42 192.97 293.14 193.45 293.62 193.93 294.34 194.17 294.82 194.89 295.3 195.37 296.02 196.09 296.74 196.33 296.98 197.05 297.7 197.29 297.94 197.77 298.66 198.49 298.9 198.49 299.14 199.21 299.38 199.45 299.62 199.93 299.62 200.17 299.86 200.89 300.1 201.37 300.34 201.61 300.34 201.85 300.58 202.57 300.58 202.81 300.58 203.53 300.82 204.49 301.06 205.69 301.3 206.17 301.3 206.41 301.3 207.37 301.54 209.05 302.02 210.49 302.26 210.97 302.5 212.41 302.74 213.13 303.22 213.85 303.7 214.81 303.94 215.29 304.9 216.49 305.38 217.45 306.82 219.13 307.54 219.85 307.54 220.09 307.78 220.81 307.78 222.49 307.78 222.97 307.54 223.69 307.3 224.17 307.3 225.61 307.54 226.57 307.78 227.05 307.78 227.53 308.02 228.73 308.02 229.45 308.02 231.61 308.02 232.81 308.02 234.01 308.02 235.45 308.26 236.17 308.5 237.13 309.94 239.53 310.42 240.01 310.9 240.97 310.9 241.21 311.14 242.17 311.14 244.09 311.14 245.29 311.14 246.01 311.38 247.69 311.38 248.41 311.62 248.89 312.1 249.61 312.34 249.85 312.58 250.09 313.06 250.33 313.54 250.33 313.54 250.09 315.22 249.85 317.86 250.09 318.58 250.33 319.54 251.05 321.22 251.77 321.94 252.25 322.42 252.49 322.9 252.73 323.62 252.97 325.06 253.45 325.54 253.93 326.02 254.17 327.22 254.41 327.7 254.65 328.66 254.89 329.86 255.61 330.58 256.33 331.54 256.81 331.78 257.05 332.74 257.77 333.7 258.49 334.18 258.49 335.14 258.73 335.38 258.73 335.86 258.73 336.58 258.97 337.54 258.97 338.98 259.21 339.94 259.45 340.66 259.45 341.62 259.69 342.82 259.93 343.3 260.17 344.5 260.65 345.7 261.37 346.18 261.61 345.94 262.09 345.22 264.25 344.02 266.41 343.78 267.13 343.3 268.57 342.34 269.53 342.34 270.01 341.62 270.97 340.9 272.89 340.18 274.33 339.94 275.29 339.46 276.01 338.98 276.73 338.5 277.21 338.26 277.69 337.54 277.45 336.34 277.21 335.38 276.97 333.7 277.21 333.46 278.41 332.98 279.61 332.02 281.29 331.54 282.01 330.58 283.69 329.62 285.13 328.18 286.33 327.22 287.54 325.54 288.98 325.06 289.45 323.86 290.18 322.66 290.65 321.94 291.13 320.5 292.1 319.54 293.06 319.54 293.3 317.86 295.21 315.94 297.86 315.22 298.81 314.98 299.06 314.26 299.54 314.26 299.77 314.26 300.01 314.74 300.25 315.22 300.5 316.42 300.98 316.9 301.45 317.14 301.69 317.86 302.18 318.58 302.65 319.06 303.13 319.54 303.62 319.54 303.86 320.02 304.57 321.46 306.01 321.94 306.74 322.42 307.46 322.9 308.42 322.66 308.9 321.94 309.38 320.98 310.1 319.78 310.82 318.58 311.78 317.14 312.74 316.9 312.98 315.46 313.94 314.26 314.66 313.54 314.9 312.58 315.14 312.1 315.38 311.62 315.86 311.38 316.1 311.14 316.82 310.9 317.3 310.9 318.02 310.42 318.98 310.18 319.22 309.46 319.22 308.5 319.7 306.82 320.66 305.14 321.86 304.66 322.34 304.42 323.06 303.7 324.5 303.46 325.46 302.74 326.9 302.74 327.38 302.26 327.86 302.02 329.06 301.78 329.3 301.3 329.54 301.06 329.78 300.58 330.74 300.1 331.46 299.86 332.42 298.9 333.62 298.9 333.86 298.18 334.58 296.02 336.5 295.78 336.74 295.54 336.98 294.82 337.46 294.58 337.7 294.1 338.42 293.62 339.14 293.14 339.38 292.42 339.62 291.7 340.34 290.5 341.54 290.26 341.78 289.78 342.26 289.54 342.5 288.82 343.46 288.58 343.94 287.14 345.14 285.94 346.1 284.98 346.58 284.26 347.54 283.54 348.26 283.3 348.74 282.58 349.7 281.14 351.14 280.9 351.38 280.18 352.1 279.94 352.34 278.98 353.3 277.3 354.98 276.82 355.22 276.58 355.46 276.34 355.46 276.1 355.7 275.62 355.94 275.14 356.18 274.66 356.9 274.18 357.38 272.02 359.54 271.06 360.5 270.34 360.98 269.38 361.46 268.18 362.66 267.45 363.14 266.5 364.34 265.77 365.3 265.06 366.26 264.57 366.74 263.62 367.7 262.65 367.94 262.18 367.94 261.21 368.42 260.25 368.66 259.77 368.9 259.06 369.14 257.86 369.38 255.94 370.34 255.22 370.82 254.5 371.06 253.06 371.54 252.09 371.78 251.62 371.54 251.37 371.54 250.89 371.54 249.93 371.54 248.73 371.06 248.01 371.3 247.29 371.54 246.81 371.78 246.33 372.02 245.85 372.26 244.17 372.26 242.01 372.98 241.05 373.22 240.09 373.46 238.41 374.18 237.45 374.9 236.49 375.86 235.77 376.34 235.29 376.82 234.57 377.3 234.09 378.02 233.85 378.26 234.33 378.5 236.25 380.42 236.49 380.66 237.21 381.62 237.93 382.58 238.41 382.82 241.77 386.42 242.49 387.14 243.69 388.34 244.17 388.82 245.37 390.02 246.57 391.22 247.29 391.94 248.01 393.14 249.21 395.78 250.41 397.7 250.65 398.18 251.37 399.38 251.85 400.58 252.34 401.54 252.34 401.78 252.57 402.02 253.29 402.74 253.53 403.7 253.78 404.66 253.78 405.14 253.53 405.62 253.78 406.1 254.01 406.34 254.74 406.82 255.69 408.26 256.18 408.74 256.42 408.98 257.13 409.46 257.86 410.18 258.57 410.9 258.33 411.14 257.38 411.62 256.65 412.1 256.18 412.34 255.69 413.06 254.5 414.74 254.25 415.46 254.01 416.18 253.78 417.38 253.53 417.62 252.57 418.58 252.57 418.82 251.62 419.06 251.37 419.54 251.13 420.5 251.13 421.94 250.89 422.9 250.17 424.1 249.93 424.58 249.45 425.06 248.73 425.54 248.49 425.78 245.61 426.74 244.41 427.22 243.93 427.46 243.69 427.94 243.21 428.42 243.21 428.66 242.73 429.38 242.49 429.62 242.49 429.86 242.01 431.3 242.01 431.78 241.77 432.02 241.53 432.98 241.05 434.42 240.81 434.9 240.57 435.62 240.09 436.34 239.85 436.58 239.61 437.06 239.61 437.3 239.61 438.26 239.13 439.7 239.13 440.66 239.13 441.14 239.13 441.38 238.89 441.86 238.65 443.54 237.45 446.42 237.45 446.66 238.17 447.14 238.65 447.38 239.13 448.1 240.09 449.54 240.33 450.26 240.33 450.74 240.57 450.98 240.57 451.7 240.57 451.94 240.33 453.38 240.33 453.62 240.09 454.1 239.61 455.3 239.13 456.5 238.89 457.22 238.89 458.18 238.89 458.9 238.89 460.58 238.89 461.54 238.65 461.78 238.65 462.74 238.17 463.22 237.69 463.94 237.45 464.18 236.97 464.42 236.49 464.66 235.53 464.66 234.81 464.66 232.65 465.14 231.93 465.14 231.45 465.14 230.73 464.66 230.49 464.42 230.01 464.42 229.77 464.42 228.81 464.9 228.81 465.38 228.81 465.86 229.05 466.82 229.05 467.3 227.37 467.54 226.89 468.02 227.13 468.5 226.89 469.22 226.89 469.46 227.13 469.46 227.13 469.7 227.37 469.7 227.85 469.46 228.57 469.46 228.81 469.46 228.81 470.42 229.05 470.9 229.05 471.14 229.05 471.38 229.05 471.62 228.81 471.86 228.57 472.34 228.33 472.58 228.09 473.06 228.09 473.3 227.61 473.54 227.13 474.02 226.89 474.02 226.41 474.26 226.41 474.5 225.93 474.98 225.69 475.22 225.45 475.46 225.45 475.94 225.45 476.18 225.45 476.42 225.69 476.9 225.69 477.14 225.93 477.38 225.93 477.62 225.69 478.34 225.69 478.82 225.69 479.06 225.69 479.3 225.69 479.78 225.69 480.02 225.93 480.26 226.17 480.74 225.93 481.22 225.93 481.46 225.93 481.94 225.45 482.66 225.21 483.14 224.97 483.38 224.97 483.86 224.97 484.58 225.21 484.82 225.45 485.55 225.69 485.55 225.69 485.79 225.45 486.75 225.45 486.99 225.45 487.23 225.69 487.46 226.17 487.7 226.65 487.94 226.89 488.43 226.65 488.67 226.65 488.9 226.41 489.14 225.69 489.63 225.45 489.87 225.21 490.35 224.97 490.58 224.49 491.06 224.25 491.55 224.01 492.26 223.77 492.75 223.53 492.99 223.29 493.46 222.57 493.7 222.33 493.94 222.09 494.19 222.09 494.67 221.13 495.87 220.89 496.35 220.65 496.35 220.41 496.35 220.17 496.11 219.93 495.87 219.69 495.38 219.21 495.14 218.97 495.14 218.73 495.14 218.49 495.14 218.01 494.9 217.77 494.9 217.29 494.43 216.81 494.43 216.09 494.43 215.61 494.43 215.13 494.19 214.89 494.19 214.41 493.94 213.45 493.94 213.21 493.94 212.73 493.94 212.01 493.94 211.53 493.94 211.05 493.94 210.57 493.94 210.09 493.7 208.89 493.7 208.41 493.7 207.69 493.7 207.45 493.7 207.21 493.7 206.97 493.94 206.49 493.94 206.01 493.7 205.53 493.7 204.81 493.23 204.57 493.23 204.09 493.23 203.85 493.23 203.37 493.23 202.89 493.23 201.69 493.23 201.21 493.23 200.49 492.99 199.29 492.75 198.57 492.99 198.33 492.99 198.09 493.23 197.61 493.46 197.37 493.7 196.89 494.43 196.41 494.67 195.69 495.38 195.45 495.63 195.21 495.87 194.49 496.35 194.25 496.35 194.01 496.11 193.77 495.87 193.53 495.63 193.29 494.67 193.05 494.19 192.81 493.46 192.81 492.5 192.57 492.26 192.57 491.79 192.33 491.06 192.09 490.11 192.09 489.63 191.61 488.9 191.37 488.67 191.13 488.43 190.89 487.7 190.89 487.46 190.89 486.99 190.89 486.75 191.13 486.26 191.13 485.79 191.13 485.06 191.13 484.82 191.13 483.86 190.89 482.42 190.89 482.18 190.89 481.46 190.89 481.22 190.89 480.74 191.13 480.26 191.61 479.78 191.85 479.78 192.33 479.54 192.57 479.54 192.81 479.3 193.05 479.06 193.05 478.82 193.05 478.58 193.05 478.34 193.29 478.1 193.05 477.38 193.05 477.14 193.05 476.9 192.81 476.66 192.57 476.18 192.57 475.94 192.57 475.7 192.57 475.46 192.81 475.22 193.29 474.74 194.01 473.78 194.73 473.3 194.73 473.06 195.45 472.34 195.93 471.86 196.17 471.38 196.17 470.9 196.17 470.66 195.93 470.42 195.45 469.7 194.97 469.22 194.25 468.5 194.01 468.26 193.77 468.26 193.77 468.02 194.73 467.3 194.73 466.82 194.25 466.1 194.01 465.62 194.01 465.38 194.25 464.9 194.73 464.42 194.73 464.18 194.73 463.7 194.01 462.5 194.01 461.78 193.77 460.58 193.77 458.18 193.77 457.46 193.77 456.98 194.01 456.5 194.01 455.78 194.25 455.06 194.49 454.58 194.49 453.86 194.97 453.14 195.69 451.7 195.93 451.22 196.65 450.02 196.89 449.54 196.89 449.3 197.13 448.58 196.89 448.34 196.41 448.1 196.17 447.86 195.21 447.86 194.73 447.86 194.49 447.62 193.53 447.62 193.29 447.62 192.57 447.38 192.33 447.38 192.09 447.38 191.61 447.14 190.65 446.9 188.97 446.42 188.01 446.42 187.29 446.66 186.33 446.9 185.85 446.9 185.13 446.66 184.17 446.42 183.93 446.18 183.69 446.18 183.21 446.18 181.77 446.18 181.53 446.18 181.05 445.94 180.33 445.7 179.37 444.74 179.37 444.5 178.89 444.26 178.89 444.02 178.17 443.78 177.93 443.54 177.69 443.3 177.21 443.06 176.73 443.06 176.49 442.82 175.77 442.82 175.53 442.82 174.81 443.06 173.85 443.06 173.61 443.06 173.13 443.06 172.65 442.82 172.41 442.82 171.93 442.34 171.21 441.86 170.01 441.14 169.05 440.66 168.57 440.66 168.09 440.66 167.61 440.42 166.89 440.42 165.45 440.42 165.21 440.42 164.73 440.42 163.29 440.18 162.33 439.94 162.09 439.94 161.61 439.94 160.89 439.7 160.17 439.7 159.45 439.94 158.01 440.18 157.53 440.18 156.57 439.94 155.61 439.22 154.89 438.98 154.65 438.74 154.17 438.74 153.45 438.26 152.97 437.78 151.77 436.82 151.05 436.1 150.57 435.14 149.61 433.94 149.13 433.46 148.65 432.74 148.41 432.26 147.93 431.3 147.45 430.1 147.21 429.86 146.73 429.14 146.73 428.9 146.49 428.18 146.73 427.46 146.97 426.98 147.69 425.54 147.93 425.06 147.93 424.82 148.17 424.34 148.65 423.38 149.13 422.18 149.37 421.46 150.09 419.54 150.57 418.82 151.05 417.62 151.77 416.66 152.01 416.18 152.73 415.7 153.45 414.98 154.17 414.5 154.65 413.78 154.89 413.54 155.37 412.82 155.85 411.86 156.09 411.38 156.81 409.94 157.29 409.22 157.53 408.74 157.77 408.26 158.25 407.54 158.97 406.82 159.21 406.1 159.93 405.38 160.41 404.42 161.13 403.7 161.37 402.98 162.33 402.02 163.53 400.82 164.01 400.1 165.21 398.42 165.45 397.94 166.41 396.5 166.89 395.78 167.37 395.54 168.33 395.06 168.57 394.82 169.05 394.58 169.29 394.1 169.53 393.62 170.01 392.9 170.49 392.66 171.69 392.18 172.17 391.94 172.41 391.7 173.13 390.98 173.37 390.5 174.33 389.3 175.29 388.82 176.01 388.58 177.21 388.1 177.69 387.62 178.17 387.14 179.37 384.98 180.57 383.78 180.81 383.54 181.05 382.82 180.81 382.1 180.57 381.86 180.33 381.38 179.85 381.38 179.37 380.9 178.65 380.66 178.41 380.66 177.45 380.42 176.73 379.94 176.01 379.7 175.29 379.22 175.05 379.22 174.57 378.98 173.13 378.5 172.89 378.5 172.41 378.26 171.69 378.02 170.73 378.02 170.01 377.78 168.81 377.3 168.09 377.06 167.61 376.58 166.89 376.34 165.93 376.34 164.97 376.58 164.01 377.06 163.05 376.58 162.33 376.82 161.37 377.06 160.41 377.3 158.49 377.54 157.53 378.02 156.33 378.26 155.61 378.5 153.21 378.98 151.77 379.46 151.53 379.7 151.05 379.94 149.85 380.42 149.37 380.9 148.65 381.14 148.17 380.9 146.49 380.42 144.57 379.46 143.61 379.22 143.13 379.22 142.65 378.98 142.17 378.5 140.73 377.3 140.01 376.58 138.57 375.62 138.09 375.62 137.13 374.66 136.65 373.94 136.41 373.7 136.41 371.78 136.41 371.06 136.65 370.58 136.65 370.34 136.89 369.14 136.89 367.22 136.65 366.5 136.65 365.3 136.41 364.82 136.65 364.58 136.89 363.14 137.13 362.42 137.37 361.7 137.85 360.02 137.61 358.82 137.85 358.34 138.57 357.62 139.53 356.9 140.01 356.66 140.97 356.42 141.93 356.18 144.09 355.94 145.53 355.46 146.01 355.46 146.97 355.22 147.69 354.98 147.93 354.98" style="fill:none;stroke:#005ce6;stroke-linecap:round;stroke-linejoin:round;stroke-width:1.4400899410247803px"/><polyline points="147.93 354.98 149.13 354.5 150.33 354.02 151.05 353.54 151.53 353.06 153.21 352.1 153.93 351.86 155.13 351.14 155.61 350.66 156.09 350.42 156.57 349.94 158.49 348.74 159.69 347.54 160.17 347.3 161.13 346.34 161.85 345.38 162.09 345.14 162.57 344.42 163.05 343.46 163.53 342.02 164.49 340.58 164.97 339.86 165.93 337.94 166.17 337.7 167.61 336.02 168.57 334.58 168.81 334.1 169.05 333.38 169.05 332.42 169.05 331.94 168.81 331.22 168.57 330.5 168.33 330.26 167.85 330.02 167.37 329.54 167.13 329.06 166.89 328.34 166.89 327.38 166.65 326.9 166.17 326.18 165.69 325.22 165.69 324.5 165.45 324.02 165.45 323.06 165.45 322.82 165.69 321.86 166.17 321.14 166.65 320.18 166.89 319.7 167.85 318.5 168.57 318.02 169.05 317.3 171.45 314.66 171.93 314.18 172.65 313.22 173.61 312.5 174.57 311.78 174.81 311.54 175.29 310.82 176.49 309.62 177.69 308.42 178.17 307.94 179.13 306.98 179.37 306.5 179.85 305.77 180.09 305.3 180.57 304.81 180.81 303.86 181.29 303.13 181.77 301.94 182.97 299.77 183.45 299.06 184.41 298.1 185.61 297.13 186.81 296.42 188.97 295.21 189.69 294.74 190.89 294.25 191.13 294.25 191.61 294.01 193.53 293.77 194.73 293.3 196.17 293.06 199.29 293.06 200.01 293.06 200.97 293.3 201.69 293.3 202.65 293.06 202.89 292.81 203.37 292.1 203.61 291.86 204.09 290.89 204.09 290.65 204.33 289.94 204.81 288.98 205.05 288.25 205.29 288.01 205.29 287.77 206.01 286.09 206.73 285.13 206.73 284.65 207.21 283.93 206.97 283.45 207.45 281.29 207.45 280.81 207.21 279.61 206.49 278.89 206.49 278.41 206.73 277.69 206.49 277.21 206.01 276.97 206.01 276.73 206.01 275.77 206.01 275.53 206.25 274.81 207.21 273.13 207.45 272.17 207.69 271.69 207.69 270.73 207.69 270.25 207.69 269.77 207.93 268.81 208.17 267.85 208.17 267.37 209.37 265.69 209.61 264.73 209.85 263.77 210.33 262.81 210.33 262.09 210.33 261.37 210.09 260.41 210.09 258.73 210.09 258.25 210.57 257.53 210.81 256.81 210.81 256.09 210.81 255.37 210.09 253.21 209.37 252.25 209.13 251.05 208.89 250.81 208.89 250.57 208.89 250.33 208.65 249.61 208.41 249.13 208.17 248.65 207.93 247.93 207.45 247.69 207.21 247.45 206.49 246.49 204.09 244.81 203.61 244.33 203.13 244.09 202.65 244.09 202.17 243.61 201.69 243.37 201.45 243.13 200.01 242.17 199.29 241.93 198.33 241.21 197.61 240.49 197.13 240.25 196.17 239.53 195.69 238.81 195.45 237.61 195.21 236.65 194.97 235.45 196.17 234.49 196.41 234.01 196.41 233.05 195.69 231.61 195.69 230.65 195.93 230.17 197.37 228.97 198.09 228.01 198.57 227.29 198.81 226.57 199.05 225.85 199.53 224.89 200.01 224.41 200.25 223.93 200.25 223.21 200.25 222.01 199.77 219.61 199.53 218.65 199.77 217.69 200.25 216.49 200.49 215.53 200.49 215.29 200.73 215.05 200.97 214.57 200.97 213.85 200.97 213.37 201.69 212.89 202.89 211.93 204.81 210.49 205.77 209.77 207.21 208.81 208.41 208.09 208.65 207.37 207.69 204.49 207.69 203.05 206.73 200.65 204.81 198.01 203.85 197.53 201.69 195.85 200.01 193.21 199.53 192.73 199.29 192.49 195.69 191.29 194.73 190.57 194.01 189.37 193.53 187.69 193.05 185.53 192.09 183.37 191.61 180.49 190.89 179.53 189.93 178.57 189.45 177.85 189.21 177.37 188.25 175.45 187.53 173.53 187.53 172.09 187.53 171.37 186.81 170.17 186.81 169.45 187.05 168.01 187.05 167.05 186.81 164.65 186.09 162.73 184.89 160.57 184.89 159.85 186.57 155.05 186.81 154.57 186.81 153.61 186.33 153.13 184.89 149.53 183.45 147.13 181.53 144.01 181.53 143.53 179.13 140.65 177.69 137.53 176.73 136.57 175.53 134.17 174.09 132.49 173.61 131.77 173.37 131.05 171.93 129.13 170.73 126.25 169.29 124.09 168.57 122.65 170.25 122.89 171.69 122.89 173.37 122.65 174.81 122.89 176.01 123.37 176.97 124.09 177.93 125.53 178.65 126.01 179.85 126.49 181.77 126.73 182.97 127.69 184.41 127.93 186.81 128.89 187.29 129.37 187.53 129.61 187.77 130.09 188.25 130.33 188.97 130.33 189.21 130.09 190.41 128.89 192.33 126.49 194.97 124.09 196.65 122.65 197.61 121.93 199.29 121.21 199.53 120.97 200.25 119.53 200.49 118.57 201.45 117.13 203.85 114.49 205.53 113.29 206.73 113.05 207.69 113.05 209.13 113.77 211.53 115.21 211.77 115.69 214.89 117.61 217.77 120.25 219.69 121.93 220.89 122.41 223.05 123.13 223.77 123.85 224.73 124.33 226.65 125.77 229.05 127.93 230.49 128.65 231.93 129.13 232.41 129.37" style="fill:none;stroke:#005ce6;stroke-linecap:round;stroke-linejoin:round;stroke-width:1.4400899410247803px"/></g></g><g style="clip-path:url(#clip-path)"><g style="clip-path:url(#clip-path-3)"><polyline points="676.68 60.24 676.92 61.92 677.16 63.12 678.36 64.8 679.08 66 679.56 66.48 679.8 67.68 680.76 69.36 682.2 71.04 683.88 72.48 685.08 72.96 688.2 73.2 688.44 73.44 687.48 74.64 684.6 77.04 683.88 78 683.4 79.44 683.4 80.16 683.64 81.12 684.12 82.56 684.84 83.76 685.08 84.72 685.08 85.68 684.36 86.88 684.36 87.6 685.32 90 686.28 91.69 686.28 93.13 686.52 93.61 687 94.08 687.96 94.33 689.4 95.05 690.36 96.72 690.84 97.92 690.84 98.64 690.84 99.13 690.84 99.84 691.32 100.56 692.04 102 692.28 102.72 692.52 103.69 692.28 104.64 692.52 105.13 693 105.61 693.96 106.33 695.4 107.28 696.12 108.49 696.36 110.41 695.88 111.61 693 114.97 692.76 115.69 692.04 118.09 691.8 118.81 692.04 119.53 692.52 120.25 696.12 122.41 699 124.09 699.72 124.81 699.96 126.97 700.44 128.17 700.92 129.37 701.16 130.09 700.68 131.77 700.92 133.69 700.68 135.61 700.68 136.09 701.4 138.25 701.64 139.21 701.64 139.69 700.2 142.33 699.96 142.57 699.96 143.05 700.44 144.01 700.44 145.69 699.72 148.09 699.72 148.33 699.96 148.81 700.44 149.53 700.44 150.01 700.2 150.97 697.32 155.29 697.32 155.77 697.8 156.73 697.56 157.93 697.56 158.65 697.8 158.89 698.76 160.57 699.96 161.77 700.68 163.21 701.16 163.93 702.12 164.89 702.36 165.37 702.84 166.33 703.08 169.93 703.08 171.61 703.8 174.25 704.52 175.45 705.48 176.89 706.68 178.09 706.92 178.81 707.16 180.25 707.16 180.97 706.68 183.37 706.44 185.05 706.68 186.49 707.16 189.37 707.16 191.53 707.4 194.17 708.12 195.61 709.08 197.05 709.8 197.53 711 199.93 711.48 200.65 711.72 201.13 712.2 201.85 712.44 202.33 712.44 204.01 712.2 206.89 712.2 208.09 712.44 211.45 712.92 213.85 713.64 214.57 717.48 216.49 717.96 216.97 718.68 218.17 719.88 221.77 720.6 223.21 722.28 224.17 725.16 224.65 725.88 224.65 726.6 224.65 727.08 224.89 728.28 226.33 729.48 228.25 730.68 229.69 733.09 231.37 734.76 232.57 736.45 234.25 737.88 236.17 738.13 236.89 738.37 237.85 737.88 239.29 737.4 240.25 737.16 241.45 737.4 241.69 738.13 242.41 738.37 243.13 738.61 243.85 738.85 244.09 739.57 244.33 741.25 244.57 742.92 244.33 743.88 244.09 744.13 244.33 744.61 244.57 745.33 245.53 745.57 246.49 746.28 247.21 746.52 247.45 747.49 247.93 748.45 248.17 749.65 248.65 750.61 248.65 751.81 248.65 752.29 248.89 755.65 252.49 757.09 253.21 759.01 253.69 759.97 254.65 760.93 256.57 760.93 256.81 760.93 258.01 760.69 259.93 760.69 260.89 760.21 262.57 759.73 263.77 759.01 264.25 758.53 264.49 755.65 264.97 755.17 265.21 754.93 265.45 755.17 266.41 755.65 267.85 755.41 268.57 755.17 269.05 753.97 270.01 752.77 270.73 749.41 272.17 742.92 275.77 742.45 278.17 741.97 279.13 741.49 279.85 741.25 279.85 739.8 279.13 738.13 278.65 736.68 278.65 735 279.13 732.13 278.65 730.2 277.93 728.52 277.93 726.6 278.65 723.48 278.65 719.4 279.61 717.72 279.85 716.52 279.37 714.6 279.37 712.92 279.85 712.68 279.85 711.72 281.05 710.76 281.53 709.56 282.73 708.84 283.21 708.12 283.21 705.24 282.97 704.28 282.73 703.8 282.73 702.84 283.45 699.48 283.93 697.32 284.41 697.08 284.41 694.44 285.37 692.28 285.37 691.56 284.65 690.6 281.53 690.6 281.29 689.88 281.05 687.24 280.81 686.52 280.81 683.64 282.49 681.48 284.17 681 284.65 681 285.13 680.52 285.61 680.52 286.57 681 288.01 681.24 289.45 681.24 293.06 681 293.3 680.28 293.54 678.12 293.77 675.72 293.54 673.8 292.33 672.6 291.86 672.12 291.62 671.16 291.86 670.68 292.33 669 294.74 668.76 295.21 667.8 296.42 667.32 296.89 665.88 297.38 663.96 297.86 663 298.1 660.12 299.54 658.44 300.01 657.24 300.01 656.52 300.01 656.28 300.01 655.32 300.01 654.36 300.25 653.88 300.25 652.68 299.3 652.2 298.57 651.96 298.57 648.12 298.1 645 298.81 643.32 300.01 642.36 300.25 640.92 300.98 637.8 302.42 636.36 302.65 634.2 302.18 633.48 302.18 632.52 302.65 630.84 302.65 627.96 303.86 627 304.81 625.32 304.81 624.6 305.06 623.88 305.77 623.4 306.5 622.68 309.38 622.2 310.1 621.72 310.82 620.52 311.3 617.88 311.78 616.2 312.02 615.24 312.5 613.32 314.42 611.64 316.1 610.92 317.06 610.68 317.78 609.72 319.46 609.72 320.66 609.96 322.34 609.48 323.3 608.28 324.5 608.04 325.22 607.32 327.38 607.08 327.62 606.84 328.1 606.12 328.1 604.2 327.86 603.24 328.34 602.76 328.58 602.28 328.82 600.84 328.58 599.16 327.62 598.2 327.14 597 326.42 596.28 326.18 594.84 326.18 593.64 325.94 592.2 325.22 590.76 323.78 590.28 322.34 590.28 320.9 590.04 319.46 590.28 318.02 590.52 316.34 591.24 314.42 591.24 314.18 590.28 312.02 589.56 311.3 589.32 308.42 589.08 307.46 588.84 306.74 587.4 305.77 586.67 305.54 585.24 305.54 583.55 304.57 582.6 303.13 581.39 301.69 578.27 299.06 577.55 298.81 577.32 298.81 576.6 299.06 575.63 299.3 574.67 299.77 573.72 300.74 573.24 300.98 572.27 301.21 571.07 301.45 568.67 302.65 566.75 303.62 565.31 303.38 563.39 303.86 561.95 304.1 560.51 302.89 558.59 301.45 557.63 300.74 557.15 300.25 556.91 300.01 555.95 300.25 554.51 300.74 553.31 299.77 552.35 298.33 551.39 297.62 550.43 296.42 549.47 295.69 548.51 295.45 547.55 295.69 546.83 295.69 543.23 294.5 540.59 292.81 537.71 290.18 536.03 289.45 534.59 288.98 533.87 288.98 532.43 289.45 531.47 289.21 530.51 288.98 528.59 288.98 528.11 288.74 526.67 289.21 525.71 289.45 524.75 289.69 522.59 289.69 521.15 289.94 519.23 289.69 518.03 289.94 516.83 290.18 516.35 290.18 514.67 290.18 514.43 291.13 514.43 292.1 514.19 294.01 513.47 295.45 512.51 296.89 509.15 300.74 508.67 300.74 507.95 300.74 506.75 300.98 505.79 301.21 505.07 301.69 504.59 301.94 504.35 301.94 504.11 302.18 503.87 302.65 503.39 302.89 502.43 303.38 501.23 303.38 500.03 303.86 497.87 304.1 496.91 304.33 495.95 304.57 494.99 304.81 493.79 305.54 491.15 305.54 487.55 306.5 487.07 306.74 485.87 308.18 484.91 309.86 484.43 311.06 482.99 313.7 482.51 314.18 482.03 314.9 481.55 315.38 481.07 315.86 480.83 316.34 480.11 317.3 479.87 317.3 479.39 318.02 478.19 318.74 476.99 319.94 476.51 320.18 475.55 320.66 475.55 321.38 475.79 322.58 475.79 323.06 476.27 325.7 476.51 326.18 476.75 327.14 477.23 328.34 477.71 329.54 478.43 331.7 480.11 334.58 480.11 335.54 480.35 336.26 480.59 337.46 480.35 337.94 479.87 338.66 479.87 339.38 479.39 340.1 478.91 342.26 477.95 344.18 476.99 345.62 476.27 346.34 475.07 347.78 474.59 348.26 474.59 348.74 474.59 349.46 474.83 349.7 475.07 350.42 475.31 350.66 475.31 352.1 475.31 352.34 475.31 353.3 475.31 354.26 475.07 354.98 474.59 355.46 472.91 355.46 471.23 355.22 469.31 355.22 467.39 354.98 464.03 355.46 462.83 355.22 462.11 355.22 460.43 355.7 459.95 355.94 458.27 357.14 457.31 358.1 455.39 359.78 453.71 361.46 452.99 362.18 451.31 363.62 449.63 365.06 446.75 367.94 445.55 368.9 444.59 369.38 444.11 369.62 440.51 369.62 437.63 370.58 436.43 370.82 435.95 370.82 435.23 371.3 434.75 371.78 434.27 372.26 434.03 372.5 433.79 373.7 433.79 374.66 433.55 375.38 433.07 376.34 432.35 378.02 432.11 378.5 432.11 378.98 431.63 379.7 428.99 379.7 428.03 379.94 426.58 380.66 426.11 381.14 425.38 381.38 424.9 381.62 424.19 381.38 423.7 381.38 423.23 381.62 422.99 381.86 422.26 382.58 422.02 383.06 421.79 383.3 421.31 384.02 418.9 386.66 417.7 389.3 416.75 390.26 416.75 390.5 417.7 392.66 418.43 394.1 418.67 395.06 418.67 395.78 418.67 396.5 418.67 397.46 418.19 399.14 417.94 399.62 417.46 400.58 416.75 401.3 415.79 402.02 414.11 402.98 412.19 403.46 411.46 403.46 410.74 403.46 410.26 403.22 409.3 402.74 408.1 402.02 407.62 401.54 406.66 401.06 406.42 401.06 405.94 401.06 404.98 401.06 404.5 401.3 402.58 402.5 402.34 402.74 400.9 405.38 400.66 405.62 399.7 406.82 399.22 407.06 398.74 407.54 398.02 408.5 397.78 408.74 397.3 409.7 397.06 410.66 397.06 412.34 396.82 412.58 396.82 413.54 396.82 414.26 396.82 414.74 396.82 415.46 396.58 415.94 396.34 417.86 395.86 418.82 395.86 420.02 396.1 421.46 396.58 422.42 397.06 423.86 397.06 424.34 397.06 424.58 396.58 425.3 396.1 425.54 395.62 425.54 395.14 425.54 394.42 426.02 393.94 426.98 393.22 427.46 392.74 427.7 391.06 427.7 390.82 427.46 390.58 427.22 389.86 426.98 389.14 426.5 388.42 426.98 387.7 427.46 386.74 428.18 386.02 428.9 385.78 429.14 385.54 430.1 385.78 431.54 385.3 432.26 385.3 432.5 384.82 433.22 384.58 433.7 384.1 434.42 382.66 435.38 380.98 436.34 378.82 437.78 377.14 438.5 375.22 439.7 374.02 440.9 372.58 442.34 371.86 442.82 371.14 443.3 370.66 443.3 369.94 443.06 369.46 443.06 368.5 442.82 368.26 442.82 367.54 443.3 366.82 443.78 366.82 444.02 366.58 444.98 366.34 445.46 365.62 446.18 365.14 446.9 363.94 448.1 363.46 448.34 361.54 449.06 360.1 449.78 358.42 450.74 357.46 451.46 356.26 452.18 356.26 452.42 355.78 452.9 354.58 453.38 352.18 454.34 351.22 454.34 350.26 454.58 349.78 454.58 349.06 454.58 347.86 454.82 346.66 454.82 344.26 454.58 343.54 454.58 342.58 454.82 341.86 455.06 340.66 456.02 340.18 456.26 339.22 457.46 338.98 457.94 338.02 459.38 337.54 460.34 336.58 461.78 336.34 462.02 335.86 462.98 335.38 464.42 334.9 465.86 334.66 466.58 334.66 466.82 334.66 467.3 334.42 468.26 334.18 468.74 333.46 469.94 333.46 470.18 333.46 470.66 333.22 471.14 332.98 472.58 332.74 473.54 332.5 474.02 332.26 474.26 331.78 474.98 331.54 475.46 331.54 475.7 331.3 476.18 331.06 476.9 330.82 477.38 330.34 477.62 330.34 477.86 329.86 478.1 329.62 478.34 329.38 478.58 328.9 478.82 327.94 479.06 327.7 479.3 327.22 479.3 326.98 479.54 326.74 479.78 326.26 479.78 325.3 480.02 324.82 480.26 324.34 480.26 324.1 480.26 323.62 479.78 323.14 479.3 322.9 479.06 321.94 478.58 321.7 478.34 321.22 478.1 320.98 478.34 320.5 478.1 319.78 478.1 319.06 477.86 318.58 478.1 318.1 478.1 317.86 478.1 317.62 478.1 317.14 478.34 316.42 478.34 315.94 478.82 315.46 478.82 315.22 479.06 314.5 479.3 314.26 479.3 313.78 479.3 313.06 479.3 312.82 479.3 310.9 479.54 310.66 479.78 310.42 479.78 310.18 479.78 309.7 480.02 308.74 480.26 307.06 480.74 306.58 480.98 305.86 481.22 304.9 481.94 304.42 482.42 303.94 482.9 303.7 482.9 303.22 483.14 302.98 483.14 302.5 483.38 302.26 483.62 302.26 483.86 301.54 484.1 301.3 484.34 301.06 484.58 300.82 484.58 300.58 484.82 300.1 485.06 299.86 485.06 298.9 485.06 298.42 485.06 297.7 484.82 297.22 484.82 296.02 485.31 295.78 485.31 295.3 485.55 294.34 485.31 293.62 485.06 293.14 485.06 292.9 484.82 292.66 484.58 292.42 484.58 292.18 484.82 291.94 485.06 291.7 485.31 291.46 485.55 290.98 486.02 290.74 486.5 290.26 486.99 290.02 487.94 289.3 488.9 289.06 489.14 288.34 489.63 287.86 490.11 287.38 490.58 287.14 490.82 286.9 491.31 286.66 491.79 286.66 492.02 286.18 492.5 285.94 492.75 285.7 492.99 285.46 493.23 285.46 493.7 285.22 494.19 284.74 494.9 284.5 494.9 284.26 495.38 284.02 495.63 283.78 495.87 283.78 496.35 283.78 496.82 283.54 497.06 283.3 497.79 283.06 498.75 283.06 498.99 283.3 499.46 283.3 499.7 283.3 500.19 283.06 500.43 282.82 500.67 282.34 500.9 282.1 501.14 281.86 501.14 281.62 501.63 281.38 501.63 281.38 502.11 281.14 502.35 280.66 503.06 280.66 503.31 280.42 503.55 279.94 503.55 279.7 503.79 279.46 503.55 278.98 503.31 278.5 503.31 278.5 503.06 278.02 503.06 277.78 502.82 276.82 502.11 276.34 501.87 276.1 501.63 275.38 501.38 275.14 501.38 274.9 501.38 274.9 501.14 274.42 501.38 273.94 501.63 273.7 501.87 273.46 501.87 272.98 501.87 272.74 501.63 271.78 501.14 271.3 500.9 270.82 500.67 270.34 500.67 269.86 500.19 268.9 499.46 268.18 498.75 267.7 498.5 267.21 498.5 266.74 498.26 266.5 498.26 266.25 498.02 266.25 497.55 266.25 497.06 266.01 497.06 265.77 496.82 265.3 496.82 264.81 496.82 264.57 496.82 264.57 496.58 264.33 496.58 264.1 496.58 263.86 496.82 263.62 496.82 263.38 496.82 263.13 496.82 263.13 497.06 262.89 497.31 262.65 497.55 262.18 497.55 262.18 497.31 261.94 497.06 261.69 496.58 261.45 496.11 261.21 495.38 260.98 495.14 260.98 494.9 260.98 494.43 260.74 494.19 260.5 493.94 260.25 493.94 260.01 494.19 259.77 494.43 259.77 494.9 259.54 494.9 259.3 495.63 259.3 496.58 258.81 497.06 258.81 497.31 258.57 497.31 258.33 497.31 257.62 497.31 257.13 497.31 256.89 497.31 256.65 497.31 256.42 497.31 255.46 497.06 255.22 496.82 254.97 496.58 254.5 496.58 254.25 496.35 253.53 496.11 253.29 496.11 252.81 496.11 251.85 495.87 250.65 495.87 250.41 495.87 250.17 495.87 249.93 495.63 249.21 495.63 248.97 495.38 248.73 495.38 248.01 495.14 247.53 495.14 247.05 495.14 246.81 495.14 245.61 494.67 245.13 494.67 244.17 494.43 243.45 494.43 242.73 494.19 242.25 494.43 241.77 494.67 241.53 494.9 241.05 495.38 240.81 495.63 240.33 495.87 239.61 495.87 239.61 495.63 239.13 495.87 238.89 495.63 238.65 495.38 238.17 495.38 237.93 495.14 237.45 494.9 237.21 494.67 236.49 494.67 236.01 494.43 235.77 494.43 235.29 494.43 235.05 494.19 234.09 494.19 233.61 494.19 233.37 494.19 232.41 494.43 231.93 494.43 231.45 494.67 230.97 494.9 230.73 494.9 230.49 494.9 230.01 494.9 229.53 494.9 229.29 494.67 229.05 494.67 228.81 494.43 228.57 494.19 228.33 493.94 227.85 493.46 227.61 493.46 227.37 493.23 226.89 493.23 225.93 493.7 225.45 494.19 224.97 494.67 224.73 494.9 224.49 494.9 224.01 495.14 223.53 495.38 222.81 495.38 222.33 495.87 221.61 496.11 221.13 496.35 220.89 496.35 220.65 496.35 220.41 496.35 220.17 496.11 219.93 495.87 219.69 495.38 219.21 495.14 218.97 495.14 218.73 495.14 218.49 495.14 218.01 494.9 217.77 494.9 217.29 494.43 216.81 494.43 216.09 494.43 215.61 494.43 215.13 494.19 214.89 494.19 214.41 493.94 213.45 493.94 213.21 493.94 212.73 493.94 212.01 493.94 211.53 493.94 211.05 493.94 210.57 493.94 210.09 493.7 208.89 493.7 208.41 493.7 207.69 493.7 207.45 493.7 207.21 493.7 206.97 493.94 206.49 493.94 206.01 493.7 205.53 493.7 204.81 493.23 204.57 493.23 204.09 493.23 203.85 493.23 203.37 493.23 202.89 493.23 201.69 493.23 201.21 493.23 200.49 492.99 199.29 492.75 198.57 492.99 198.33 492.99 198.09 493.23 197.61 493.46 197.37 493.7 196.89 494.43 196.41 494.67 195.69 495.38 195.45 495.63 195.21 495.87 194.49 496.35 194.25 496.35 194.01 496.11 193.77 495.87 193.53 495.63 193.29 494.67 193.05 494.19 192.81 493.46 192.81 492.5 192.57 492.26 192.57 491.79 192.33 491.06 192.09 490.11 192.09 489.63 191.61 488.9 191.37 488.67 191.13 488.43 190.89 487.7 190.89 487.46 190.89 486.99 190.89 486.75 191.13 486.26 191.13 485.79 191.13 485.06 191.13 484.82 191.13 483.86" style="fill:none;stroke:#222;stroke-linecap:round;stroke-linejoin:round;stroke-width:1.680109977722168px"/><polyline points="191.13 483.86 190.89 482.42 190.89 482.18 190.89 481.46 190.89 481.22 190.89 480.74 191.13 480.26 191.61 479.78 191.85 479.78 192.33 479.54 192.57 479.54 192.81 479.3 193.05 479.06 193.05 478.82 193.05 478.58 193.05 478.34 193.29 478.1 193.05 477.38 193.05 477.14 193.05 476.9 192.81 476.66 192.57 476.18 192.57 475.94 192.57 475.7 192.57 475.46 192.81 475.22 193.29 474.74 194.01 473.78 194.73 473.3 194.73 473.06 195.45 472.34 195.93 471.86 196.17 471.38 196.17 470.9 196.17 470.66 195.93 470.42 195.45 469.7 194.97 469.22 194.25 468.5 194.01 468.26 193.77 468.26 193.77 468.02 194.73 467.3 194.73 466.82 194.25 466.1 194.01 465.62 194.01 465.38 194.25 464.9 194.73 464.42 194.73 464.18 194.73 463.7 194.01 462.5 194.01 461.78 193.77 460.58 193.77 458.18 193.77 457.46 193.77 456.98 194.01 456.5 194.01 455.78 194.25 455.06 194.49 454.58 194.49 453.86 194.97 453.14 195.69 451.7 195.93 451.22 196.65 450.02 196.89 449.54 196.89 449.3 197.13 448.58 196.89 448.34 196.41 448.1 196.17 447.86 195.21 447.86 194.73 447.86 194.49 447.62 193.53 447.62 193.29 447.62 192.57 447.38 192.33 447.38 192.09 447.38 191.61 447.14 190.65 446.9 188.97 446.42 188.01 446.42 187.29 446.66 186.33 446.9 185.85 446.9 185.13 446.66 184.17 446.42 183.93 446.18 183.69 446.18 183.21 446.18 181.77 446.18 181.53 446.18 181.05 445.94 180.33 445.7 179.37 444.74 179.37 444.5 178.89 444.26 178.89 444.02 178.17 443.78 177.93 443.54 177.69 443.3 177.21 443.06 176.73 443.06 176.49 442.82 175.77 442.82 175.53 442.82 174.81 443.06 173.85 443.06 173.61 443.06 173.13 443.06 172.65 442.82 172.41 442.82 171.93 442.34 171.21 441.86 170.01 441.14 169.05 440.66 168.57 440.66 168.09 440.66 167.61 440.42 166.89 440.42 165.45 440.42 165.21 440.42 164.73 440.42 163.29 440.18 162.33 439.94 162.09 439.94 161.61 439.94 160.89 439.7 160.17 439.7 159.45 439.94 158.01 440.18 157.53 440.18 156.57 439.94 155.61 439.22 154.89 438.98 154.65 438.74 154.17 438.74 153.45 438.26 152.97 437.78 151.77 436.82 151.05 436.1 150.57 435.14 149.61 433.94 149.13 433.46 148.65 432.74 148.41 432.26 147.93 431.3 147.45 430.1 147.21 429.86 146.73 429.14 146.73 428.9 146.49 428.18 146.73 427.46 146.97 426.98 147.69 425.54 147.93 425.06 147.93 424.82 148.17 424.34 148.65 423.38 149.13 422.18 149.37 421.46 150.09 419.54 150.57 418.82 151.05 417.62 151.77 416.66 152.01 416.18 152.73 415.7 153.45 414.98 154.17 414.5 154.65 413.78 154.89 413.54 155.37 412.82 155.85 411.86 156.09 411.38 156.81 409.94 157.29 409.22 157.53 408.74 157.77 408.26 158.25 407.54 158.97 406.82 159.21 406.1 159.93 405.38 160.41 404.42 161.13 403.7 161.37 402.98 162.33 402.02 163.53 400.82 164.01 400.1 165.21 398.42 165.45 397.94 166.41 396.5 166.89 395.78 167.37 395.54 168.33 395.06 168.57 394.82 169.05 394.58 169.29 394.1 169.53 393.62 170.01 392.9 170.49 392.66 171.69 392.18 172.17 391.94 172.41 391.7 173.13 390.98 173.37 390.5 174.33 389.3 175.29 388.82 176.01 388.58 177.21 388.1 177.69 387.62 178.17 387.14 179.37 384.98 180.57 383.78 180.81 383.54 181.05 382.82 180.81 382.1 180.57 381.86 180.33 381.38 179.85 381.38 179.37 380.9 178.65 380.66 178.41 380.66 177.45 380.42 176.73 379.94 176.01 379.7 175.29 379.22 175.05 379.22 174.57 378.98 173.13 378.5 172.89 378.5 172.41 378.26 171.69 378.02 170.73 378.02 170.01 377.78 168.81 377.3 168.09 377.06 167.61 376.58 166.89 376.34 165.93 376.34 164.97 376.58 164.01 377.06 163.05 376.58 162.33 376.82 161.37 377.06 160.41 377.3 158.49 377.54 157.53 378.02 156.33 378.26 155.61 378.5 153.21 378.98 151.77 379.46 151.53 379.7 151.05 379.94 149.85 380.42 149.37 380.9 148.65 381.14 148.17 380.9 146.49 380.42 144.57 379.46 143.61 379.22 143.13 379.22 142.65 378.98 142.17 378.5 140.73 377.3 140.01 376.58 138.57 375.62 138.09 375.62 137.13 374.66 136.65 373.94 136.41 373.7 136.41 371.78 136.41 371.06 136.65 370.58 136.65 370.34 136.89 369.14 136.89 367.22 136.65 366.5 136.65 365.3 136.41 364.82 136.65 364.58 136.89 363.14 137.13 362.42 137.37 361.7 137.85 360.02 137.61 358.82 137.85 358.34 138.57 357.62 139.53 356.9 140.01 356.66 140.97 356.42 141.93 356.18 144.09 355.94 145.53 355.46 146.01 355.46 146.97 355.22 147.69 354.98 147.93 354.98 149.13 354.5 150.33 354.02 151.05 353.54 151.53 353.06 153.21 352.1 153.93 351.86 155.13 351.14 155.61 350.66 156.09 350.42 156.57 349.94 158.49 348.74 159.69 347.54 160.17 347.3 161.13 346.34 161.85 345.38 162.09 345.14 162.57 344.42 163.05 343.46 163.53 342.02 164.49 340.58 164.97 339.86 165.93 337.94 166.17 337.7 167.61 336.02 168.57 334.58 168.81 334.1 169.05 333.38 169.05 332.42 169.05 331.94 168.81 331.22 168.57 330.5 168.33 330.26 167.85 330.02 167.37 329.54 167.13 329.06 166.89 328.34 166.89 327.38 166.65 326.9 166.17 326.18 165.69 325.22 165.69 324.5 165.45 324.02 165.45 323.06 165.45 322.82 165.69 321.86 166.17 321.14 166.65 320.18 166.89 319.7 167.85 318.5 168.57 318.02 169.05 317.3 171.45 314.66 171.93 314.18 172.65 313.22 173.61 312.5 174.57 311.78 174.81 311.54 175.29 310.82 176.49 309.62 177.69 308.42 178.17 307.94 179.13 306.98 179.37 306.5 179.85 305.77 180.09 305.3 180.57 304.81 180.81 303.86 181.29 303.13 181.77 301.94 182.97 299.77 183.45 299.06 184.41 298.1 185.61 297.13 186.81 296.42 188.97 295.21 189.69 294.74 190.89 294.25 191.13 294.25 191.61 294.01 193.53 293.77 194.73 293.3 196.17 293.06 199.29 293.06 200.01 293.06 200.97 293.3 201.69 293.3 202.65 293.06 202.89 292.81 203.37 292.1 203.61 291.86 204.09 290.89 204.09 290.65 204.33 289.94 204.81 288.98 205.05 288.25 205.29 288.01 205.29 287.77 206.01 286.09 206.73 285.13 206.73 284.65 207.21 283.93 206.97 283.45 207.45 281.29 207.45 280.81 207.21 279.61 206.49 278.89 206.49 278.41 206.73 277.69 206.49 277.21 206.01 276.97 206.01 276.73 206.01 275.77 206.01 275.53 206.25 274.81 207.21 273.13 207.45 272.17 207.69 271.69 207.69 270.73 207.69 270.25 207.69 269.77 207.93 268.81 208.17 267.85 208.17 267.37 209.37 265.69 209.61 264.73 209.85 263.77 210.33 262.81 210.33 262.09 210.33 261.37 210.09 260.41 210.09 258.73 210.09 258.25 210.57 257.53 210.81 256.81 210.81 256.09 210.81 255.37 210.09 253.21 209.37 252.25 209.13 251.05 208.89 250.81 208.89 250.57 208.89 250.33 208.65 249.61 208.41 249.13 208.17 248.65 207.93 247.93 207.45 247.69 207.21 247.45 206.49 246.49 204.09 244.81 203.61 244.33 203.13 244.09 202.65 244.09 202.17 243.61 201.69 243.37 201.45 243.13 200.01 242.17 199.29 241.93 198.33 241.21 197.61 240.49 197.13 240.25 196.17 239.53 195.69 238.81 195.45 237.61 195.21 236.65 194.97 235.45 196.17 234.49 196.41 234.01 196.41 233.05 195.69 231.61 195.69 230.65 195.93 230.17 197.37 228.97 198.09 228.01 198.57 227.29 198.81 226.57 199.05 225.85 199.53 224.89 200.01 224.41 200.25 223.93 200.25 223.21 200.25 222.01 199.77 219.61 199.53 218.65 199.77 217.69 200.25 216.49 200.49 215.53 200.49 215.29 200.73 215.05 200.97 214.57 200.97 213.85 200.97 213.37 201.69 212.89 202.89 211.93 204.81 210.49 205.77 209.77 207.21 208.81 208.41 208.09 208.65 207.37 207.69 204.49 207.69 203.05 206.73 200.65 204.81 198.01 203.85 197.53 201.69 195.85 200.01 193.21 199.53 192.73 199.29 192.49 195.69 191.29 194.73 190.57 194.01 189.37 193.53 187.69 193.05 185.53 192.09 183.37 191.61 180.49 190.89 179.53 189.93 178.57 189.45 177.85 189.21 177.37 188.25 175.45 187.53 173.53 187.53 172.09 187.53 171.37 186.81 170.17 186.81 169.45 187.05 168.01 187.05 167.05 186.81 164.65 186.09 162.73 184.89 160.57 184.89 159.85 186.57 155.05 186.81 154.57 186.81 153.61 186.33 153.13 184.89 149.53 183.45 147.13 181.53 144.01 181.53 143.53 179.13 140.65 177.69 137.53 176.73 136.57 175.53 134.17 174.09 132.49 173.61 131.77 173.37 131.05 171.93 129.13 170.73 126.25 169.29 124.09 168.57 122.65 170.25 122.89 171.69 122.89 173.37 122.65 174.81 122.89 176.01 123.37 176.97 124.09 177.93 125.53 178.65 126.01 179.85 126.49 181.77 126.73 182.97 127.69 184.41 127.93 186.81 128.89 187.29 129.37 187.53 129.61 187.77 130.09 188.25 130.33 188.97 130.33 189.21 130.09 190.41 128.89 192.33 126.49 194.97 124.09 196.65 122.65 197.61 121.93 199.29 121.21 199.53 120.97 200.25 119.53 200.49 118.57 201.45 117.13 203.85 114.49 205.53 113.29 206.73 113.05 207.69 113.05 209.13 113.77 211.53 115.21 211.77 115.69 214.89 117.61 217.77 120.25 219.69 121.93 220.89 122.41 223.05 123.13 223.77 123.85 224.73 124.33 226.65 125.77 229.05 127.93 230.49 128.65 231.93 129.13 232.41 129.37 233.13 130.81 233.37 131.05 234.57 131.77 235.53 132.01 237.69 132.49 239.13 133.21 240.57 134.17 241.53 134.65 242.01 135.13 242.73 135.61 243.93 136.57 244.41 137.77 245.85 139.69 246.33 140.41 246.81 141.61 247.05 143.29 248.25 146.17 248.49 147.61 248.73 148.81 248.73 150.01 249.21 151.69 249.45 151.93 249.93 152.17 249.93 152.41 249.93 152.65 250.17 152.65 250.17 152.89 250.89 153.37 251.62 153.85 252.09 154.09 252.57 154.57 252.81 154.81 253.29 155.05 253.53 155.29 253.78 155.53 254.25 156.01 254.74 156.49 254.97 156.97 255.22 157.45 255.46 157.93 255.69 158.41 255.94 159.13 256.18 160.09 256.42 160.57 256.42 160.81 256.65 160.81 256.89 160.81 257.62 160.81 257.62 160.33 258.1 160.09 259.54 160.09 260.25 160.09 260.74 159.85 261.21 159.61 262.89 159.13 263.13 158.89 263.86 158.65 264.81 158.41 265.3 157.93 265.77 157.45 266.25 157.21 266.5 157.21 266.98 156.73 267.45 156.73 268.42 156.73 268.9 156.73 269.38 156.73 269.86 156.97 270.34 157.21 270.82 157.45 271.3 157.93 271.54 158.41 272.02 159.13 272.26 159.37 272.98 159.85 273.22 160.09 273.46 160.57 273.7 161.29 273.94 161.77 273.94 162.49 273.94 163.21 273.94 163.45 273.7 164.41 273.46 164.89 273.22 165.37 272.98 166.33 273.22 167.53 273.94 167.53 275.14 167.53 276.1 167.53 278.26 167.53 279.22 167.53 280.18 167.29 281.86 167.29 284.5 167.29 286.18 167.29 286.9 167.29 287.38 167.29 288.58 167.29 289.3 167.53 290.74 167.77 291.22 167.77 291.7 167.53 292.18 167.29 292.42 166.81 292.66 166.33 292.9 165.85 293.14 165.61 293.38 165.37 293.86 165.37 295.06 165.13 295.54 164.65 295.78 164.41 296.5 164.17 296.98 164.17 297.7 164.41 298.18 164.65 298.9 164.65 299.38 164.41 299.62 164.65 300.1 164.89 300.58 164.89 301.06 164.89 301.54 164.89 302.02 164.89 302.5 164.41 302.98 163.93 303.7 163.45 303.94 163.45 305.14 163.69 305.62 163.69 306.34 163.21 307.06 162.97 307.78 162.97 308.5 162.73 309.7 162.49 310.18 162.01 311.14 161.77 312.82 161.29 314.02 160.81 314.74 160.57 315.22 160.57 316.9 159.61 317.14 159.13 318.58 158.65 319.3 158.41 319.78 157.69 320.26 156.73 320.74 156.25 321.22 155.53 321.46 155.05 322.66 155.05 323.38 155.05 323.86 154.81 324.34 154.57 324.58 154.33 325.3 154.33 325.78 154.33 327.22 153.85 328.18 153.61 329.14 153.13 329.86 152.65 331.06 151.93 331.54 151.45 332.02 151.21 332.98 150.97 333.94 150.49 334.66 150.01 335.14 150.01 335.86 150.25 336.34 150.49 337.06 151.21 337.3 151.45 338.02 151.45 338.5 151.45 339.22 151.69 339.94 151.45 341.14 151.45 341.62 151.69 342.1 151.93 342.34 151.93 342.34 152.17 342.58 152.17 342.58 152.89 342.58 153.61 342.34 154.33 342.34 154.81 342.1 155.05 342.34 155.29 342.34 155.53 342.58 156.25 342.58 157.21 342.58 157.93 342.58 159.13 342.58 160.09 342.58 161.05 342.58 161.29 342.1 162.01 341.62 162.97 341.62 163.93 341.86 164.41 341.86 164.65 342.1 165.37 342.34 165.61 342.58 166.09 343.06 166.33 343.78 166.57 344.26 166.81 344.74 167.29 345.7 167.53 346.66 167.77 347.38 167.77 347.86 167.77 348.58 167.53 349.3 167.53 349.54 167.53 350.5 167.77 350.98 168.01 351.46 168.25 351.94 168.25 353.14 168.49 353.62 168.73 355.06 168.73 355.78 168.73 356.26 168.97 356.74 168.97 357.22 168.73 358.42 168.49 359.14 168.25 359.62 168.25 360.58 168.25 361.06 168.25 361.78 168.49 362.26 168.49 362.98 168.73 363.46 168.97 364.66 169.69 365.62 169.93 366.1 170.41 366.82 170.65 367.3 171.13 368.02 171.61 368.26 172.09 368.74 173.05 368.74 173.77 369.22 174.49 369.46 174.97 369.7 175.93 369.94 176.17 370.42 175.93 370.9 175.45 371.86 174.73 372.58 174.01 373.06 173.53 373.3 173.05 373.54 172.81 374.02 172.33 374.98 171.61 375.7 171.13 377.38 169.93 378.1 169.45 378.34 168.97 378.82 168.01 378.82 167.77 380.26 167.05 380.74 166.57 381.46 165.85 382.42 165.61 382.9 165.61 383.38 164.89 384.1 164.17 384.34 163.45 385.06 162.25 385.54 161.77 385.78 161.29 386.5 160.33 387.46 159.61 387.7 158.65 387.7 158.17 387.94 157.45 387.94 156.25 387.94 155.77 388.18 155.29 388.66 154.81 388.9 154.57 389.14 154.57 389.62 154.57 390.1 154.33 390.82 153.85 391.06 153.37 391.54 152.89 392.26 152.41 392.74 152.17 393.46 151.93 393.94 151.45 394.9 150.97 395.38 150.25 395.86 149.77 396.34 149.05 396.58 148.81 397.3 148.33 397.78 148.09 398.02 147.85 398.26 147.61 398.5 146.89 398.74 146.17 398.98 145.93 399.22 145.69 399.7 145.69 400.42 145.45 400.66 145.45 401.14 144.97 401.38 144.73 401.62 144.01 402.1 142.57 402.34 141.37 402.58 140.65 402.58 139.69 402.82 138.73 403.06 137.53 403.06 136.57 403.06 135.37 403.06 134.65 402.82 133.93 402.82 133.69 402.58 132.73 402.58 132.01 402.34 131.05 402.1 130.09 402.1 129.13 402.1 128.65 402.1 128.41 402.34 127.45 402.34 127.21 402.58 126.73 403.06 126.01 403.54 125.77 403.54 125.53 403.78 125.29 404.02 125.05 404.98 125.05 405.94 125.05 406.66 124.81 406.9 124.81 407.86 123.85 408.58 123.61 409.78 122.65 410.26 122.65 411.94 121.93 412.67 121.69 413.87 121.45 414.82 121.45 415.79 121.69 416.5 121.93 416.99 121.93 417.7 121.69 418.67 121.21 419.14 120.73 419.87 120.25 420.58 119.53 420.82 119.29 421.06 118.81 421.55 118.57 422.02 118.09 422.75 117.61 423.7 117.13 424.43 116.89 425.14 116.65 425.87 116.65 426.82 116.17 427.79 116.17 428.99 116.41 429.71 115.93 430.43 115.93 431.63 115.93 432.35 115.93 432.83 116.17 433.55 116.17 433.79 116.17 434.99 116.17 436.19 116.17 436.67 116.17 437.15 116.17 437.63 116.17 438.11 116.17 439.07 115.69 439.31 115.45 440.51 114.97 441.23 114.97 441.71 114.97 441.95 114.97 442.19 114.73 442.91 114.49 443.39 114.25 443.87 114.25 444.83 114.49 445.55 114.49 446.27 114.49 446.51 114.73 447.47 115.21 448.19 115.21 448.67 115.21 449.39 115.45 450.11 115.45 450.59 115.69 450.83 115.69 451.55 116.17 452.03 116.41 452.99 116.65 453.47 116.65 453.95 116.89 454.91 117.13 455.39 117.13 455.87 117.13 456.35 117.37 457.07 117.37 457.55 117.37 457.79 117.61 458.99 117.85 459.23 117.85 459.47 117.85 460.19 117.85 460.67 118.09 461.15 118.09 461.63 118.09 461.87 118.33 462.11 118.33" style="fill:none;stroke:#222;stroke-linecap:round;stroke-linejoin:round;stroke-width:1.680109977722168px"/><polyline points="462.11 118.33 462.35 118.33 463.07 118.09 463.79 118.09 464.75 118.33 465.23 118.09 466.19 118.09 466.91 118.09 467.63 118.33 468.11 118.57 468.59 119.05 469.07 119.29 469.31 119.53 469.55 119.77 469.79 120.01 470.51 120.01 471.47 120.01 472.43 120.01 473.15 120.01 473.63 120.01 473.87 119.77 474.11 119.77 474.35 119.53 475.07 119.29 475.31 119.29 476.27 119.29 476.99 118.81 477.47 118.81 478.19 118.81 478.91 118.81 479.15 118.57 479.63 118.33 479.87 117.85 479.87 117.61 479.87 117.37 480.11 117.37 482.27 117.61 486.35 116.89 488.03 116.89 490.19 117.61 492.83 119.05 494.75 119.29 495.95 119.29 497.15 119.77 499.07 120.01 503.39 121.93 506.27 122.65 507.47 123.37 510.35 125.29 512.99 126.73 514.67 127.69 515.87 128.89 516.59 129.85 518.03 131.05 519.23 131.77 522.11 132.01 523.55 132.97 524.99 134.65 525.23 134.89 525.95 135.85 526.43 136.09 527.15 136.33 530.03 136.81 530.51 137.05 532.91 138.25 535.07 139.45 535.79 139.93 537.23 140.17 539.39 141.37 539.87 141.37 542.27 140.89 542.99 140.89 543.95 141.13 545.15 141.61 547.31 141.61 548.51 141.61 549.71 141.13 552.35 140.65 553.79 141.13 554.75 141.85 555.47 142.81 556.19 144.01 556.67 144.73 556.91 144.97 557.87 144.73 561.47 143.05 563.63 142.57 567.23 142.33 568.19 142.57 569.63 143.29 572.03 144.49 573 145.45 574.43 145.93 575.15 146.65 575.15 147.13 574.67 147.85 574.2 148.57 572.03 151.45 571.55 152.17 571.79 156.25 571.79 157.21 572.03 159.13 572.51 160.57 573 161.05 573.48 162.49 573.48 164.17 573.48 164.41 573.72 165.61 573.96 167.05 573.72 170.65 574.2 172.81 576.36 179.77 576.84 182.41 577.08 183.37 577.79 184.57 578.51 187.93 579.72 189.13 580.2 189.61 581.15 191.53 581.39 193.69 581.63 195.37 581.88 195.85 582.12 196.09 583.32 196.09 584.75 195.37 585.96 194.17 588.36 192.97 589.08 192.25 589.8 192.01 592.92 190.33 593.64 189.85 594.36 189.13 598.92 186.25 600.12 185.05 600.84 183.61 602.04 182.17 603.24 180.97 605.4 179.29 607.08 178.09 607.8 177.85 609 176.65 610.2 174.25 611.16 172.81 611.64 171.85 613.08 170.41 613.8 168.73 614.28 167.05 615.96 162.97 616.2 162.01 616.44 161.29 617.4 160.09 620.04 158.41 621.24 156.97 623.16 154.33 624.36 153.37 624.6 152.89 626.04 151.45 628.44 149.29 630.12 148.09 630.6 147.37 631.56 145.45 631.32 144.25 630.84 143.77 630.12 142.33 629.64 141.61 628.92 140.89 626.28 137.53 624.6 134.17 624.12 133.93 624.12 133.45 624.12 132.25 624.84 129.37 627.24 124.81 627.96 124.09 628.68 123.61 629.64 123.37 630.84 123.13 631.56 122.17 632.04 120.25 632.76 119.05 633.48 118.09 633.72 117.37 633.72 113.29 634.92 110.17 634.68 105.36 635.16 102.72 635.16 102.48 634.92 101.77 634.44 101.05 634.68 100.33 635.16 99.84 635.4 99.61 637.08 99.36 638.28 98.64 644.28 97.44 645.72 97.92 649.32 98.41 651.24 100.81 652.68 101.77 653.16 101.77 653.64 101.28 653.4 99.13 653.16 98.89 652.68 87.84 652.2 84.24 652.2 81.6 651.72 78.24 651 69.12 651 66 650.76 64.32 651 64.32 651.24 63.84 654.84 62.88 656.04 62.4 657.96 62.16 658.92 61.92 660.36 60.96 661.32 60.72 662.76 60.96 663.24 60.96 665.64 61.68 666.6 61.68 668.04 61.44 669.24 60.96 671.4 60.72 672.6 60.96 673.56 60.72 675.48 60 676.2 59.76 676.68 60 676.68 60.24" style="fill:none;stroke:#222;stroke-linecap:round;stroke-linejoin:round;stroke-width:1.680109977722168px"/></g></g><g style="clip-path:url(#clip-path)"><g style="clip-path:url(#clip-path-3)"><text transform="translate(465.11 264.97)" style="font-size:16px;fill:red;font-family:TimesNewRomanPS-BoldMT, Times New Roman;font-weight:700">1</text><text transform="translate(469.91 264.97)" style="font-size:16px;fill:red;font-family:TimesNewRomanPS-BoldMT, Times New Roman;font-weight:700">(</text><text transform="translate(473.27 264.97)" style="font-size:16px;fill:red;font-family:TimesNewRomanPS-BoldMT, Times New Roman;font-weight:700">1</text><text transform="translate(478.31 264.97)" style="font-size:16px;fill:red;font-family:TimesNewRomanPS-BoldMT, Times New Roman;font-weight:700">)</text></g><g style="clip-path:url(#clip-path-3)"><text transform="translate(222.93 305.3)" style="font-size:16px;fill:red;font-family:TimesNewRomanPS-BoldMT, Times New Roman;font-weight:700">1</text><text transform="translate(227.73 305.3)" style="font-size:16px;fill:red;font-family:TimesNewRomanPS-BoldMT, Times New Roman;font-weight:700">(</text><text transform="translate(231.09 305.3)" style="font-size:16px;fill:red;font-family:TimesNewRomanPS-BoldMT, Times New Roman;font-weight:700">2</text><text transform="translate(236.13 305.3)" style="font-size:16px;fill:red;font-family:TimesNewRomanPS-BoldMT, Times New Roman;font-weight:700">)</text></g></g></svg>