<svg  viewBox="30 158 150 150"  version="1.1" xmlns="http://www.w3.org/2000/svg" xmlns:xlink="http://www.w3.org/1999/xlink">
  <g>
  <path id="path-0401" d="M64.10440961287168,166.10730993102788L63.73549830830598,166.91079435963002L63.637582534516696,167.55536744777237L63.85529821774253,168.92920475209576L63.59374433274934,169.6129352013486L63.53979652515045,170.37519538888955L63.202748571122356,171.34144879280848L63.46186141154976,171.97456431835235L63.3075443756461,173.24041895418577L63.67117764349314,173.7522060206411L63.49173260771204,174.42574549112214L64.206411404346,175.07464413910475L63.84903211270648,175.39815320340404L64.39788688221961,177.54513312425024L64.35354643561732,178.95878286550123L63.704009775741724,180.46113426324246L62.99835337268087,180.95478537644613L62.47162297724208,181.6156149424587L62.684752904711786,183.20342337538204L62.32948177966682,184.2722286768785L63.05953037694053,185.53759522866585L62.97931921801501,186.95524125564498L62.70903276133686,187.70606711910568L63.09893770634153,188.01286952650935L63.91196655455133,188.20267618713115L66.07771509078157,189.16595226573736L67.05207598933703,189.90866467675187L67.58867064919468,190.13307016521867L68.44346338107425,190.92539646524165L68.59460392708206,191.36409045190612L68.5627905941983,193.0907720038349L69.68197183568918,194.6631935695441L69.73389746613975,195.37921202232155L69.41112609463016,196.489028660646L69.3825374431799,197.5002108863664L69.77034517096763,198.44807958973342L70.77108134138689,198.16448853163L71.54759643200669,198.11828150687325L72.59554639526687,198.3711694295871L73.37186636020851,198.21559285679905L75.96324152198213,198.64877028527644L76.91334651868237,198.56567839052514L77.92100391349959,199.05597737340486L78.72351390516633,199.09556629452072L79.35137000941904,198.66761519766806L80.54167629483345,198.2427009662788L80.97128032901674,198.34304791594695L82.93364763922,197.97413662586496L83.19973272370044,198.13287678567303L83.9097596437532,197.82997978232106L86.05064296987257,197.14706846082572L87.09776037148185,196.5613029832739L88.11235221257812,196.14573439927153L89.76655955507886,195.0675074322171L90.06462575434125,194.53657876671878L90.73506877556429,194.24317398473977L91.35481128456013,194.41281175526638L91.6536964138104,194.78161581791574L93.4088241633799,194.8729567331311L93.858223852214,195.5621134823641L95.89349145113738,195.99893803952455L97.00564407688944,196.60292746519553L97.5844027127714,197.3713132356852L98.02824661045815,197.2326452227635L99.8565713156786,197.3137655204946L99.90429967346427,197.56337040658946L99.0372543388221,198.4388891017552L99.95491406652945,198.84406140727515L101.87495186064189,199.39128210061153L102.31821615625813,199.23499731585343L103.7994461017006,199.1707620313091L103.83476443130712,199.8107880342386L104.540802057174,200.63061114084212L104.8527818293187,200.67937204958616L105.54646952776966,201.92609755235299L105.43949498198344,202.6623197630979L106.07900482529658,203.4911304926627L109.05135101402993,204.618783132737L109.15096223269211,205.67243101876738L109.9916193975696,206.70402479576205L109.9704053732894,207.30843191380336L109.47008615463346,208.07776935316997L108.90513192224898,208.4067032792691L108.67941603057989,208.9301148652812L107.60789211392694,210.17751987648353L107.06399937803872,210.48063734230527L106.55720235814442,210.36533363047056L105.20557087277484,210.61374100624926L104.12240391072919,211.1739137881059L103.4636602956889,211.2047602072662L103.4936543522017,212.27700627402373L103.91450796855133,213.06993314074316L104.01759743929142,214.26457461650443L104.4039587539628,214.1080975589448L104.56219498594874,213.52547915133982L105.81629075883029,214.38695961807753L106.25049359182958,214.97072796713292L106.94714754508095,215.189605433241L107.49162797147073,216.12725244531794L107.3402280056107,216.90981965750143L108.22700811162213,217.33148033781345L109.01888387604049,217.40299046686687L109.08503525500782,217.9152573455185L108.21727013662166,218.43396965443844L108.05089691648027,219.1570916259716L107.68303408709107,219.64105324954744L107.49118244974306,220.89140136926926L107.64493997802128,221.4755897565865L107.41606166054044,222.07249871665772L106.54479806501695,222.1676806582891L105.71133487790576,222.98975449262798L106.12367990525308,225.49808891553766L106.66840322390271,225.92204214081994L105.92407707050734,227.66540067939604L104.97107483110449,228.51011367824321L104.84643551315821,229.0271366334373L105.96170558260201,228.7327746428391L106.53516287510865,228.7721292095339L107.21760663931127,229.225936855064L107.34314121676289,229.72180414750528L108.54029546130914,230.10862785025893L108.8704477287938,230.52408776947232L109.50082681547065,230.77231762639894L110.42059214902838,231.77351926283973L111.13158722410662,231.6052731226082L112.1189242998662,232.02708091989734L112.71588004891237,232.09323164411762L112.8425257661911,231.64109065728917L113.6128116001164,231.27744003738917L114.77528635878116,231.02818873266006L115.31953664322282,229.98417146821248L116.40521365837049,229.40773350425388L117.35258999225334,229.54355892025524L117.78576977399644,229.42937032195005L118.6128099188827,228.26391793265884L119.09464384060993,228.659441627241L119.8497899071117,228.07024895548784L121.50058072462343,228.54168884884166L122.46316372272486,228.51030319784059L123.03360054335644,228.26844294431066L124.99036063229505,228.26407686029142L125.30328302446287,228.674962004201L125.41046337724401,229.40584864253378L126.27934183101388,229.63936955535883L126.8531842543016,230.41154330212885L128.4853388327101,231.91883795565536L129.11138623738225,231.66504915142195L129.4363988586665,231.26516139492833L130.0018486802437,231.22024961448642L130.3439409116836,231.52060615099072L131.2668271127477,231.811922949968L132.10287642839467,231.86716731832348L134.5213690853925,231.2050023930251L136.3433987025237,231.40352821140368L136.68051722189557,231.8171015659982L138.17866612546277,232.57639818433654L138.06647549171612,233.17526624162292L139.06950721112662,234.09705743871746L139.4892879007857,234.69584339418816L139.4741489721091,235.3039788904125L141.26964931479597,235.43211224829247L142.0726326216718,235.35049284759862L142.90650016402287,235.4918306722975L143.38758416840938,236.28613817941095L143.5155934450704,237.25722767463412L143.78639913024017,238.05186507843337L145.75524468836375,238.55275556625202L146.69640701006574,238.39883997231664L146.9928436204682,238.88025190102417L147.6652687332171,238.92532369465061L148.9129827720244,239.25229998511531L149.52429751736054,239.0933240553395L150.49679661036862,239.52924322529452L151.92782851853917,239.76502843724666L153.1807209863473,239.80582855761713L153.49110427987398,240.25558652901236L154.1124182186577,240.2505864188579L156.19107705115312,239.31891632864335L156.9368312694496,239.27325912505694L157.46422161046212,239.7308716181351L158.0706391131789,239.80158226892945L158.23045223098597,240.13667002106376L159.12329231695185,240.53345020540291L159.73304609279148,241.086780295238L160.34368372986864,241.25190254803147L161.35477778968925,241.21987732400794L162.45086611133956,241.37848635371938L162.913945229222,241.24119934122064L163.84976794218164,241.48566653672333L164.84357095143423,242.142879415911L165.01243143517058,242.56698672650236L165.04013492727609,243.46079270176142L165.321478402082,243.82444279515585L165.87010854000982,244.2569072510596L166.8391824416176,243.43159288058177L167.65076282244263,242.4036136277291L168.37901099656665,241.8896414969222L168.96464437745817,241.73004202825723L169.15953508539314,241.75084951129975L169.73214481654213,241.73395207629892L170.18660895911307,241.59357555543193L170.4231604209308,241.46732837057607L171.31929889545063,241.12819951378697L172.12471788943367,241.02909688646469L172.6406948253316,241.1641709892665L174.00545559889724,241.6226028448491L174.14533274773567,241.80716102477618L175.430312537992,242.0626743274761L175.99961635621003,242.3810304540757L176.2166531850744,242.39270242686143L176.81101161108745,242.55656230316526L177.6753149780161,242.76411846768588L178.1342032454122,243.29144152836307L178.59490515731522,243.89974827017522L178.6575136407082,243.99286671803202L179.0937806335969,244.5368859530381L179.22740461658032,244.7252468385568L179.27324240678354,244.74977001936168L179.4659663037819,244.86341468333194L180.42365116043948,245.00213627583344L181.47739910874225,245.49397926723577L181.56654755886484,245.43419081175762L181.73634124650926,245.72165668015805L181.23129648145186,247.1586051287013L181.41529831719527,247.887322081805L181.80312520663574,248.2492178290904L182.6078504792349,248.3782717807744L183.03394052479416,248.79367086946695L182.39191388732797,249.98863576052463L182.58490801496737,251.03533100162167L182.4302125723152,251.9135876807668L182.60904213300455,252.46753320917287L183.69151451455764,252.8585620728627L183.71202074975736,253.3148155605586L183.3324598018371,254.13097125113563L183.47938414039163,254.66891956242762L183.65657270349038,254.8469860277246L183.91360942253596,254.85322086081396L184.69003836010597,254.94003062069714L185.0117793708814,255.11769387814365L185.19222294941574,255.40835320433416L185.40511403328128,256.1134371379394L186.05496948598739,256.54007735479627L186.55655474766536,256.7344189178466L186.64375935578937,256.7765285566038L186.74050018858907,256.83953755540006L187.34525341284825,256.86737970113336L188.29708404966004,256.89589995845654L188.3752874030033,257.7123459396589L189.79180673039446,257.88497225852007L190.11907375725787,258.09269982053956L191.00896185324018,258.68018984362425L191.34701412147479,258.97906105967286L191.60289587070292,259.1735845276553L192.06305706258354,259.4630365226885L192.44672342332706,259.73873490353435L192.73800010272316,259.9058226054285L193.27321164033492,260.01331263818065L193.4714281595734,259.96239035501367L193.61364777628114,259.91644497852667L193.64914676909757,259.89383674282726L193.90876792924246,259.8974720890992L194.6214448796345,259.89997177955775L194.9637428707465,260.0760602105074L195.29665555917381,261.1380381537274L195.40589338861537,261.4825738161999L195.9768721450164,261.612522480169L196.292177436997,261.566173463867L196.54610710014458,261.4288152315012L196.69354015058707,261.3785769846245L197.14344832001007,261.44450694187526L197.45219559799443,261.7740817045278L197.52755751860605,262.35516697616276L197.85145501551597,262.6761262255941L198.4735977361961,263.28648047179377L198.51308855551906,263.8494296153285L198.80780343268634,264.3881778731993L198.82335554661768,264.4245995190977L198.91137956742023,265.3778205464605L198.86114816458576,265.5098431771348L198.45020920959723,265.9162235906333L197.6374185062341,266.5702401480321L197.6277388322378,266.81693464585624L197.62889753339186,266.82443587186754L197.8502165720056,267.06842350736315L198.1897104803029,267.41187141130104L198.05057498737733,267.95754809015943L197.79675057868735,268.16299681848614L196.24305339710554,269.1663298416279L195.27385929245793,269.14513284403165L195.0831478808068,270.19984021036544L194.4868328392913,270.2538877508741L194.03170698946997,270.75212562785873L193.99943900411017,271.18816373231584L193.47535506362328,271.9954538652937L192.69004559397945,272.0055068200991L192.33886505444752,273.3834681860053L191.89611698709996,274.1449920979667L190.63594269209716,274.71186718097215L191.03226476650525,275.807963789669L191.6188943622983,276.48048240379376L191.35370004811193,277.09569229889803L190.3343291477904,277.7397152067924L189.86180078284815,278.534586681224L190.2592381699069,279.70092761829073L189.23226484447878,280.4769131103012L190.018330762985,281.1944511037336L190.17164300425793,281.7849823862334L189.88655357264724,282.8421272533287L190.3979527812844,283.6027606404259L190.02645189737086,284.1464206616647L188.97708402645367,285.14983529657366L189.10740796121172,285.98602153174033L188.75411293885918,286.30226733445943L188.22824957185003,287.2726687317445L187.34199797832116,287.3394355178134L186.3456434772488,287.65692372803824L185.5869626877975,288.28161777371315L184.67674395739232,288.67292882333095L183.34394533970044,289.69234533818053L182.3214950475849,290.08940651717694L182.26591064425156,290.7035586961565L181.60063480809913,291.71736538543337L181.54837838403546,293.1659083800132L181.25866162007515,293.80595446299776L180.422623283328,294.3548202326692L178.7728606051205,296.47356731721175L178.7717553181501,296.9374264510352L178.35693907839595,297.3210061023392L177.58265014759672,297.30188565065964L176.74237827908655,297.04275606412375L176.5930009734875,297.9676988158408L175.6420150459162,297.0536453972891L175.41362181271688,296.59371109585754L175.39597378912367,295.68055000032655L174.68337689377222,295.2001541082873L173.38078267254605,295.0460339041956L172.3535295434922,294.37470999738525L172.20183874127542,293.9092043416922L172.9189653353933,292.7770703698252L172.87687924971397,292.4232796470542L171.76326478803458,291.53024699523303L170.51920026719017,290.9894330910993L170.28980473134652,289.3573292124156L170.37381619864027,288.6251026029331L169.09563142052866,287.9664676971033L167.94599352250225,287.64211899160364L166.34977141628406,287.87428002170054L165.08080779287047,288.65184347626564L163.30271320522297,287.63856305515856L162.51183742769717,287.84562387873484L161.15579388564583,287.3077229794353L159.87706582784813,286.1883037466023L158.80001194249053,286.43348399783554L158.52094449560536,287.04793649679505L157.5016230366855,287.95840934967237L157.1988781838627,288.5080841321387L156.12139279066832,288.71312900811154L155.5052559614669,289.1631532589099L154.8188443007857,289.410229053683L154.01049733198306,289.4196880366735L153.56348840963255,288.7108642226349L152.7584773326853,288.393224375488L152.14958173128252,288.45827875077885L151.26153921218793,288.06487013351943L151.73707162890423,287.4581685255516L152.1002739016294,286.3499844509561L152.2480177382713,285.4432082158455L151.16771153489026,284.92237042083525L150.64097122092062,285.0723881666636L149.5487010494653,284.9688424797496L149.2547302658313,285.29172704264784L148.53029314305968,285.48544799661704L147.54097680236373,284.8807286151168L146.9946453811208,285.05287902044165L145.80509678178714,286.3231168925695L144.40286068238856,286.6430023391704L142.86030277486134,285.23255354354933L142.1732104988041,285.6198505657676L141.07185329674758,285.6866054756001L139.97270689973084,286.4252786371799L139.28436043107286,286.4630177345525L138.44201853215054,285.90352643976166L138.44482815406445,285.23162296720056L138.0527204675127,283.90289860471876L136.88438320058776,283.6210026423196L136.38834413418954,282.9426301561043L136.32223168658675,282.1262582214249L135.37941114311252,281.7817792842725L135.10686950716627,281.08210297803817L133.74916369925268,280.6032613083962L132.40874694630475,279.3147159213022L132.1660239161065,278.24654249620926L131.54387518926524,277.2969685292892L131.412131039011,276.753821067422L131.01368914276827,276.65960831257235L129.8985464712532,277.4346292371456L128.45319877552538,275.76009076701575L127.9773456226867,275.0935863192972L126.50943327821733,274.08362857907196L126.60456785591668,273.23702656388014L126.3194496529286,272.76111031484834L125.14198489840055,272.0672997194097L125.18941644231745,271.5330174666515L124.77460726434947,270.6968355280669L123.76938242864344,270.0505550497228L122.41673774574883,269.35769767134116L121.87787369896978,270.11846518722086L121.20399877825184,270.38924758472604L120.59517554210106,270.3465662276276L118.95213274857451,271.1984787920537L118.4354147305894,271.1462895609948L117.21948322611934,271.4289035859356L116.39087587393078,271.4050750756005L115.82176543519017,271.09472503764664L114.88141949165583,271.2259287741417L113.80695863607616,271.122427274423L113.21588911607978,270.4942476933493L112.41677591161351,270.2253286519235L111.74733661194477,269.3970378697886L111.37814160800917,269.3393802283899L110.2442936241132,269.8427523484661L109.27044906027004,270.53733696702056L107.64139650495781,270.5017557410465L106.90494112877059,270.5860031628881L106.37577002949911,271.0107742537539L105.1543870216301,271.2740187468862L104.66581132257488,270.96611842144466L103.67395219800164,271.79713675556195L102.9136364134647,270.75395525666045L102.94364065724221,269.98056934293254L102.02603183859901,269.1286049657556L101.39474714040625,268.90785480416616L100.59647154098639,268.9512993191547L100.13399439449131,268.7119644220038L100.03036231841179,267.8803232903292L99.31026564294007,267.44131055887465L98.9416980844835,266.77412129285767L98.92632865053747,266.17311608167347L98.42473410332605,265.46643211333503L97.35990300219055,264.8148941564523L96.62204852479408,264.7406648433871L96.12569869473737,264.11444461829524L95.58829149348458,264.1394070345241L94.14055978346005,263.6439747201948L94.03062829367991,262.7244577798774L92.83525469691085,261.44320363152474L92.27119395621776,261.10482411606426L92.31314317464785,260.48848883075516L91.3162982324684,259.97241786175255L90.87840713173136,259.133592315412L89.86663095229596,258.4187163882625L89.87031195495001,257.47283208602585L88.9463576314156,257.24917479210853L87.41269291272329,256.3915451801304L87.30067507032072,255.90264412255783L86.38094322497273,255.0977965400798L85.66059813118773,254.87574052071705L84.5034753656364,253.78225456102427L83.51621200259251,253.3275005362275L82.91973749987301,252.77874510905167L82.64825212199503,252.15944360936646L81.67869170901758,252.38990169667977L80.86051583024891,253.40394762177493L80.07078708717381,253.77815955764345L79.83125549229953,254.19784631305902L78.75565190510679,254.94217806295L78.42072616445148,255.0262562156513L77.95296459692327,254.15885213982347L77.29789706863448,253.78697829481644L76.95172308725887,252.83197877147268L76.46206600599908,252.67628681782298L75.50924371947258,252.01565663462316L74.83672926297004,252.75977458256966L73.9007699450085,253.14790674781307L73.75621029620379,253.56168025178977L73.10103698338935,253.89770073284672L72.33368806257567,254.855865353411L71.85219496872014,255.21761035515647L71.44953380099105,255.87377421375095L70.68546310614693,256.59602847055976L69.66828469571556,256.92045322782633L68.94296505582679,256.76743835758407L68.6264883009353,256.1067098462081L68.52352635261195,255.363122972366L66.77521816024455,255.3974013342422L66.26457199463403,255.97604400716136L65.08381739012475,256.48021865265036L63.70682532839055,256.4184312020943L62.59703061496475,255.6096054399586L61.3462319287828,255.52831293864074L60.81479098090858,255.28893444368623L61.13033403041845,254.44286422052028L61.285027401623665,253.42306460618147L61.26564078063893,252.44677469537237L61.74723833093958,251.30203388526024L61.60920586207794,250.45628213152577L60.728671115077304,250.40849480915585L59.90829222607135,249.54853764947165L59.33515697742769,248.44082804826303L58.73367134361979,247.582650224801L57.831800266056234,247.15332486532316L57.383601190034824,247.1268467292639L56.660173816108,245.67221065230842L55.2929855769944,244.8294770894645L54.921939289324655,244.2491686487101L54.93686213180263,242.3718828076435L53.889853039217996,241.5951110129963L53.12288877141327,240.8481024946641L52.515656715440855,240.89625283907662L50.76047959451898,240.55398383311513L49.978497898529895,239.76587467711215L48.91366897037369,239.21244698977534L48.09729697948569,239.777977927376L46.6100822558692,239.91018447603255L45.576892460485396,239.4424487054457L44.29315920435329,239.09077036059352L42.91068488109522,238.94198339668765L42.36784377120057,238.27883700994335L42.29077690491613,237.84672213891008L41.817437417445035,237.34719091170336L41.02144339686856,237.05857540295983L40.1588572816072,237.32383456429943L39.375179501595994,237.1906802114845L38.83453484711208,236.4262744890275L38.04423485149891,234.79725421130388L37.90011622999009,234.1500701167206L37.02974807583814,232.8497984007081L35.960421172279894,232.43198723785645L34.52004997221593,231.53815718213264L33.84069350050049,230.9480793023813L33.201718341246305,230.90621518683201L31.897779486473155,231.08223816010013L30.821231888679904,231.36703327377109L29.373010508879815,230.86598603239236L28.42498447813341,230.92630656784877L27.818536012007826,230.77170057518742L28.290941707105958,229.7547040275267L27.810819053011073,227.88765986785074L26.952899539770442,227.48193677983545L26.244318264201866,226.43220418521196L26.268564006473753,225.90067049246318L26.771392405815277,225.05660309316318L26.04016573907211,224.32982517295568L25.716181410618447,223.29644129194548L24.945539657823247,222.87507577188717L24.820780728779937,222.54576573742452L25.17477846366819,221.67280957160347L23.92231770788203,221.65466109539557L23.775333096338727,221.04403264266057L23.339829680677212,220.79758231779851L22.694575997233187,220.9951192030985L21.82953411903509,220.9825948285643L21.318145858043863,220.77375575594579L20.202904458023113,221.0023886337758L19.04810174848535,220.84961749892773L18.58926156675443,220.48063736526092L19.157269635161356,219.82145605149344L19.371293010128284,219.12273860494588L19.158178032354044,218.32230748775692L19.132650283328985,216.97351087247262L18.171084893074294,215.77693592566993L17.71958455312779,214.72053031889664L17.979760765945684,214.220869851898L18.191846219637227,213.1404211131594L17.266788087406894,212.63792561050832L16.62678933790812,211.84844796927428L16.247644578983454,211.07298872617412L14.582835202869319,209.9052404947106L13.38849688769551,209.96103406352722L11.560866349438584,208.83282933061582L11.626336373225058,207.83609951890867L10.733721873981267,206.73732197214122L10.723124905500299,205.5642770287959L10.197161288415373,205.11877040420495L10.152798042636277,204.50093639587885L9.750172649750311,203.85764785044194L9.887924211256177,203.15520322786324L10.770735659963975,202.63537713018286L11.664246068055945,202.36640415560123L12.153814288132708,202.5489817576481L13.320438534832647,202.61613460876015L14.271460196334374,203.118837662264L14.928885574518063,203.29957097633633L16.357624783217034,203.29555486124082L17.613712619364378,202.66727480685586L17.559071290314023,202.0731181213523L16.155704317025084,201.41793103336295L14.987929167051334,200.14591601340362L14.51807035271122,199.91273077797996L13.458283439911611,198.8978061541411L12.753905037057848,197.8097653861896L12.447429314448527,197.3988950354087L12.047299523739639,195.9582769075987L10.089519335459045,194.55139946943018L9.490401520386513,194.0132053665966L9.620377788512997,193.7408417451652L11.890546697679383,194.01223529498566L13.649278194323415,193.8193466619723L15.226505872797134,193.00927957500153L17.093915051213116,191.7921659207077L18.149301489909703,190.97518434596805L17.58056085493081,190.5572472980857L17.77848281847764,189.8409728315819L17.662480282571778,189.12771821114438L18.018844945992896,188.54903348552307L17.622210061133956,187.35120295189245L17.993168024840998,186.3649260339953L17.978633536575217,185.93180034055877L18.330060386455443,184.99930980750833L18.055662955357548,184.32594029207303L18.553441914391442,183.53112879327182L18.666525655629812,182.21771251998962L19.12174960261109,182.214616375054L19.669869704786834,181.60010122113636L20.4618897218279,181.4581605116473L21.56072441067954,181.580288655L22.893624310068844,182.07539574642033L23.393730698207946,182.6483791189512L24.460560049559717,182.9611876798399L25.041828078559774,183.70727765183074L25.86283241703495,183.86445020570682L26.148852815134887,184.14689367988194L27.05241065683731,184.24126260611774L28.0425070440142,185.31506908857136L29.08086997368082,185.21969189938682L29.417853064052906,185.55651490017317L30.014377828592842,185.6254137324304L30.44106432567787,186.19584329097688L32.350598774191894,187.47136786206465L33.19401168063996,186.54709927759723L33.150263009945775,186.23859851378165L33.868526247519185,185.54583031959191L34.20735932430034,183.91172911919057L34.45801170324194,183.26430187132428L35.14880627132152,182.3069112118601L35.177492082122626,180.9207118292752L34.99482029390856,180.60306305176164L34.26471773015146,180.42301416449482L33.70018963490293,179.69378319394764L32.07149454043247,179.65191854983823L30.03004535333457,178.23535784439537L29.611758469025517,178.0707377011886L28.919553858857398,176.66967995081268L27.79440796374547,175.41782136307302L27.35894142332836,173.94835757293276L27.644243924456532,173.15960953808553L28.353464780837385,171.84484787300335L28.433761563224834,171.03248503920895L29.800034732055792,170.6118465004929L30.747933215614466,170.09739653156612L31.9447897661521,168.88246113007062L32.52864959021463,167.6159319984181L33.10057725501247,166.88404069865192L34.51836134937912,166.44765621415536L35.21402041980764,166.70087604508626L36.285153648677806,167.62257691731975L37.10047664291051,167.38328311479836L38.109074871066696,168.16397648958355L39.236276226805785,168.11758622174966L39.963869873165095,168.3685329322825L40.94829846104403,168.16938685638797L41.82206580757702,168.5469018263102L43.12066129858431,168.60127815523174L43.6979290931813,168.28990162558785L44.45917543325413,167.47801910355884L45.650012151294504,167.63621112500732L47.02091279915476,167.65162451303604L48.34693911249269,166.73395892527242L48.75226915053645,166.64154672397854L50.69762444947264,167.62568082843063L51.31378358995789,168.40202765527738L52.24725021571794,168.98422895404383L54.56080059566375,168.18756400305756L56.351439045614825,168.1115007153776L57.79817234139409,167.67914106963326L58.158225706458325,167.38235421651916L58.61408552962894,166.43239388715574L60.04480337098721,165.80831471923193L61.68179276991941,165.38504288728927Z" fill="#FF7B46" stroke = "#222"></path>
  <text x="90" y="240" font-size= "4" font-weight="bold">
    बागलुङ
  </text>
    </g>
</svg>