<svg  viewBox="355 130 240 240"  version="1.1" xmlns="http://www.w3.org/2000/svg" xmlns:xlink="http://www.w3.org/1999/xlink">
  <g>
  <path id="path-0402" d="M409.07453099179475,350.1384176622396L406.5320941823993,349.0262224734397L406.3715956579399,348.60622925142616L407.168107308622,347.94607713320147L407.56237630011674,347.30519687382366L407.2640570259173,347.0525059582342L405.6690664240705,347.2826632356346L404.74968854248436,345.71158907850804L404.9566613663592,345.2898373686139L405.6987860074987,344.92863690725517L405.72692391687815,344.46543058480256L404.7586036150751,343.6111201915337L404.7902125763285,341.41047587113644L404.68397083903255,340.86790694923457L404.93998812748396,339.63340523846455L405.7888486343254,339.2656525170132L405.893039127317,338.981865996383L404.7215924150878,338.51768319754683L404.0515478700436,337.96861704961884L404.6466993626382,336.8860957754241L404.35613788903356,336.10259852843774L403.83435243703207,335.9584490003308L403.27944949665107,336.84002527918983L402.7064123073542,337.0549858628956L400.5841132368514,336.50632857243636L399.3174640755169,337.1659532250833L398.96726367883457,336.99090477674235L398.55062416956935,336.0551861262893L397.8444111086974,336.22307657649344L397.7898929011826,336.64651923301517L397.2233326585483,336.90665058964623L395.4481277067898,336.4330746161604L395.3575863089827,335.9082856610612L396.7673700528212,335.6496117153474L397.0873032808013,335.27112785966074L396.65964922964486,334.67055926249395L395.0761515553568,333.9612182820574L393.8019104258201,333.7699934113325L392.30414670156097,333.8391916158098L391.2407304030421,333.47937102272135L390.8844069852785,333.12849636142164L390.7983637837169,332.48359824231375L389.34777346724877,331.7599953811423L388.78154772575726,331.657764395668L388.9148527600373,330.72300273135716L388.0700925504061,330.3742300827971L387.4079597052478,330.31405214425286L386.336013501721,329.74468689548394L385.61003583340425,330.1728635237105L384.8661287181858,329.77248665059415L384.7721949987317,328.95439152346444L384.3685921983997,328.5396158779795L383.2631116329212,328.1949321158754L382.90235514883534,328.2527344721484L382.6307515560511,328.4738547083962L382.3694181531464,329.0269607420505L381.61075495913246,329.038439783174L381.43104268761454,328.94403081884593L380.93737166984283,328.6485932663809L379.7184459923992,328.5369104329093L379.62106687392225,328.50121788449724L377.7734799496793,327.9313002098115L377.4188676410304,327.7296483850496L377.0326993489143,327.14607209403584L376.92373285249414,327.01972602250225L376.66088448250594,326.822127904994L376.64372864532197,326.80972511672826L376.2387259562638,326.2068092688369L376.3528839501341,325.9690699090979L376.61849895540945,325.6111448297579L376.68667077959253,325.3598296669952L376.6789130345787,325.14101614170795L376.5408572708002,324.68693280932075L375.9709793672482,323.9172838593713L375.91847035027604,323.79003082293275L375.8142704216589,323.5950593980824L376.39345704960215,322.6374752048778L376.436809952389,322.4365153458739L376.37379927254005,322.29099210641107L376.2551484074029,322.16463133562047L376.18179946269083,322.0013726321931L376.43990966912315,321.4476725213026L376.62197964830193,321.34098857453137L376.8346027428015,321.2252729472284L376.94060947447724,321.15106093154554L377.5661473447908,320.64410051606956L377.72624665013063,320.40542464780447L377.9415907122966,319.6789439746508L378.24533877973226,319.55386893724244L378.7487917955623,319.5286242402781L379.23603857292983,319.43953748710373L379.5740814614401,319.2379046204396L380.7535826796411,319.1633788328827L380.8919354906611,318.86297025534896L380.32303968898486,318.1849405305247L380.65043175382743,317.9334133868206L381.5838479132253,318.10531856496345L383.91254531828963,316.2381993572826L383.8215286870836,315.7171982385762L384.9527676395155,315.4506709281877L384.7699221115363,314.6451585535742L385.6242729100122,313.2596721383361L385.42214326544854,312.2272658871234L385.87907369077584,311.3525686795974L385.4860572382713,310.73190223403344L386.57582521916993,309.6925687649082L386.0700467510542,309.29618397197373L386.29958926839754,308.50652921944675L386.462807382959,308.24968691535014L386.1294109061637,307.5648504621431L385.97476560672294,307.195405275399L386.807808522728,306.8984468418166L386.6359060718314,305.90152625674364L387.5486800576873,305.5249790790167L387.0438822051037,304.3944672164771L387.2262008707221,304.09640488974856L388.4168743060254,304.1524896929059L389.4438868555262,303.11036466243786L389.7838385846735,302.5463397900512L390.0524155393032,302.5016994562284L390.23664264315084,302.5672322313785L390.42396231619205,302.7877362808158L390.70016688681426,303.13887948476986L390.9578704831147,303.0577282960785L391.3943233278842,302.44634749990837L391.52822203456526,302.24357405394494L392.0551448272745,301.54886115070985L391.6506063785346,301.14044310369536L392.2756219324365,300.5163295211278L392.08854373075155,299.74079255926426L392.2752129455621,299.36930705984105L391.6110233085019,298.95083695236826L391.2913938796628,298.16787509344795L391.9150116681376,297.4665358250304L390.8453190294895,297.4321805025729L390.24697409243527,297.0086144633142L389.84454031557834,295.6263859322298L390.38538497076297,295.1494169663292L391.174731296509,295.69754528104113L392.95306755163983,296.04919970546325L393.6500539523877,295.75248103483864L394.5911531501806,296.1210523547343L395.3101074520455,295.81586657969365L397.7963382796661,295.416419618854L398.3501010180116,295.46890481930313L398.4797976716545,295.33907921415266L398.81681496761666,295.10494588264464L399.3570206003351,294.6120237501809L399.5232337676025,294.09036507757355L399.7693347872555,293.9030825464488L400.1505880886107,293.80961547865627L401.2488227171634,293.53763717815855L401.3093344115259,293.49980320389295L401.3691921099271,293.43943578925155L402.12649179695654,292.83908643733866L402.1714519826892,292.79743524033165L402.46088232652255,292.7191800597402L402.5064816550039,292.7000623032054L402.96617678838084,292.6777147380635L403.85169904042414,292.5111731391826L404.40488624206046,292.75090729580734L405.12461307942795,292.4545150154745L406.0348220265296,291.56798693779L406.22022457476123,290.9917248185466L406.8705137741781,290.77876829152865L407.2440366097726,290.34859186783524L406.83453307946183,289.73887314069L407.0392884860885,289.1117804851301L407.9366297596789,288.73465415465034L408.03201863278446,288.03310034166225L407.62936811464533,287.7049085315957L408.3339187471938,287.60426190199814L408.46165531651786,286.7607631867986L409.053915214914,286.6805870711278L409.53042728507353,286.06532874495406L410.50987093651565,286.0908027144724L411.921480166151,285.77758483931757L411.86257847164234,285.365522193566L412.72916567910215,285.3471490542279L412.91350471212354,284.32748153766715L413.35572581004817,283.9802485121545L413.1942017865367,283.53342923195214L414.1992864605745,283.0271757438204L414.78862031482277,282.9503269422221L415.84868743702464,282.2170001665718L416.22118830609907,281.1944034590997L417.69454607677835,281.0452613539064L418.07405014353935,280.38573975776853L419.14543239652994,280.2381339442718L419.3359420688721,279.54508995445303L420.3819198468409,279.1346735084717L421.16093083958185,278.3284182289117L420.92225727026016,277.81471282209895L421.7787485260669,276.5353578552995L422.001516664237,275.6966257729355L421.71992063676225,275.36452550439844L422.57990225619506,274.8155245899097L423.2699081906103,273.8159019369259L424.2533408877134,273.5200698668996L424.453843271418,272.65176391879413L426.6985871735742,271.4485877555544L427.38128919506926,269.90957355979026L427.5882411634884,269.20326474379635L428.38328672956413,268.05410566346745L428.43612503768964,267.5679943145533L427.8302255405324,266.70078550685867L427.7442410902695,265.30245047433164L426.8846603126294,263.6335035338352L426.9561434730058,263.34212723876954L426.6902964888468,261.76495348326625L426.8779850392966,261.1266464024884L427.2431760792242,260.7486966085007L427.4676960763536,259.87355750700135L428.41326240160924,258.5888983146788L428.5167053812693,258.07408834773196L429.8956941236829,256.91000666726904L430.71425005172205,254.91326581748126L431.10652779007796,253.51989934016638L431.15168151485705,252.76888274394696L430.8161625887187,251.44284596863963L430.90082869802427,250.81747834201087L430.3778045031504,249.6438906839985L429.9680881883469,249.5336363066217L429.90486147915,248.9933693357616L430.1099818159928,247.3299313091411L429.9087248969008,246.87480939778197L430.74378625110694,245.7822136197492L430.95417665003333,244.71025992483465L431.35145519009166,243.8172191180838L431.2935770787335,243.34667653137967L431.926503341685,242.44191220773428L431.94209233190486,242.09773102746203L433.1199934195465,241.50821830874702L433.1034334951655,240.85342664329255L432.7800777930461,240.179448562375L433.0561398805148,239.36252135024097L433.93221414292566,239.87456768444645L434.5904297868001,238.6852457945979L434.9707435222117,238.41041190614396L434.75623427972823,237.80129930898875L434.83745617626846,237.2649515093981L435.38609479712613,236.60649676919184L435.2818883257496,235.36680244793024L435.3976921415888,234.99686292622937L436.13276559984297,234.86802287102273L437.12749507197805,234.98823488183643L438.0470312894795,234.82712909187285L439.00940395413636,233.18417750863227L439.72021360137296,232.64725520609318L439.7692202422404,232.19064394162342L441.4104051555114,230.57695864918878L440.7323506874127,229.83568302802087L440.09059114517004,229.49837489917627L438.58345141084646,227.9063078984591L437.4621467831312,227.29533823433394L437.00741898379783,226.89414027394014L436.62577349142884,225.95978827254203L436.5380059008421,225.26657062424238L437.0117683533026,224.58365264562326L435.71628783086635,222.95900759741835L434.9292587247546,221.6939685900461L434.7277325215291,221.14658886794405L433.5333205799543,219.8426241813695L433.10386468197976,219.02711944586463L431.7931399301415,217.8958338089842L430.58901437399254,217.33939435471257L430.0461160785271,216.87888600343285L429.6655968746054,215.81808236764846L429.1895772639946,215.0726444803031L428.5330799042058,213.11615207889463L427.9435920111937,212.18630422935712L427.0475929225431,211.35047192959792L426.2016132188255,210.91810181696474L426.087414567206,210.60872557590847L424.6124423211004,210.2255172257237L424.177526839394,209.7232378630615L423.41973651863736,209.54552245287778L421.931220202634,209.99401665022197L419.93049862196494,209.54967781003415L418.6400308253469,208.99328429624438L418.0367052397123,207.6072273464606L417.2698049908431,206.46336665685703L417.0235189430823,205.58131338077055L416.33144881465705,205.12039152309808L414.84351837911527,202.97881745926225L413.3578065420661,202.55853380517965L411.92959965157206,201.78949337137146L411.2963397244239,201.6168708689247L410.48121406887003,200.63328509281837L411.03380672914136,198.677382642858L410.6392998535048,197.81620157246834L410.5794575092914,197.17090245620784L410.9263736571338,196.54339188979884L410.90605924577903,196.0575047182192L411.8715953441715,195.14088190120037L411.33036608333714,194.21635110162424L411.02451901437234,193.37271115450403L411.1177755225217,192.28032063857063L410.35982314362263,190.7098545458366L409.3673191898124,189.72717776497666L409.4403875488679,188.51353482371724L409.100892113438,188.12231697207153L409.2266631745297,185.61020055193785L408.59853391119395,185.01566648504559L407.0316867189904,184.99479197167875L406.4806349137107,184.57539956452365L407.41185549078,183.45048045660042L406.399735437597,182.7171572420948L407.1697684322862,180.89772958009507L407.0221839708356,180.07942801247282L406.57035027029633,178.83416946434227L406.73350161919734,177.50666966391236L406.23508995088923,176.36094817355024L404.9480789079753,174.1445222780103L405.01443327823654,172.19517846654162L404.75248219331115,170.84399346131704L404.8979047690518,170.53948525001033L404.82501353859334,168.07431073054795L405.2384001183891,167.5424437509737L405.0737128612527,167.12623882749813L404.34792865145573,166.8032365227864L403.65479216826134,165.76296637991436L403.1436655282814,164.59150329204022L403.1992622923026,163.9070028990227L402.5692201404672,162.74206260675692L401.8764848897772,162.43425536860468L399.9748359342557,162.01134936059952L399.49765425951773,161.08941717984362L400.0733301211767,160.65408342541105L400.4113561026643,158.92617804420388L400.3147294658411,158.64269205281198L398.3350824188092,156.60832742161256L398.08969377902395,156.0299187436949L398.3928446374157,155.0487663127633L398.43975905217303,153.97495907492066L398.7205171462447,153.28809335298138L399.92822263426206,152.43533882126303L400.03067134722005,151.97568188084733L399.70737168404594,151.13584504907067L398.7511687337101,150.8453320435383L397.3392264995018,150.79600980699706L395.33691471225393,150.27325723808917L393.27505107610705,148.0641076730035L392.707778846343,146.88778837756036L391.2702373676548,145.7727109407415L391.4587394893715,144.26454250323695L392.0382356640948,143.25699027847259L392.91607517669036,142.23443080575998L393.17213597669615,141.7324525596032L393.7520637634989,141.49004179320036L394.4967551408554,140.3211879607743L395.64319058686306,139.46861271182843L397.51942644925293,139.2263000267758L398.6020980396788,138.44330165030442L400.7770184579458,139.60604834188234L401.02073889172243,139.9582165776592L401.9822644408523,139.7780525508315L403.1125154947731,139.2034096446705L404.55318914240706,139.50296087782408L405.6477519649852,139.13576870108773L407.34838788053094,137.97593067153593L408.10357320703406,137.89322664880729L408.58203671831507,137.5890399176851L408.7097859336427,138.82601485144824L409.15211098699365,139.22354383833226L411.1103757075798,140.12550326101882L411.6348883003411,140.72341062897158L412.1391621564471,141.62739868802055L413.7912243755236,141.7400541673005L415.7354495638683,141.76880986499327L417.0576222823911,141.28933300758672L418.25545739596055,141.50264608382076L418.78600923945487,141.80686117436835L420.2429757391583,142.0417825631257L421.2453726044514,141.617864574936L422.52050758137193,141.26868723584448L423.0934338382722,141.4713006592874L425.13120146920846,141.31767804786705L425.8618696501653,142.22239030304354L426.64777720089114,142.40569016173686L428.3552139311505,143.2951910896045L429.3081906361149,144.1484902673501L429.4403039593817,145.24666996245833L430.21609879496464,145.544211669966L430.93194569453044,146.55940782666858L430.76797231734963,147.62347280309768L430.76551543867026,148.7623099392904L430.9050016214751,149.41552477183632L432.1098237508122,149.91086955679293L432.76232998054184,149.914037778095L433.49114524678953,150.28112642103406L434.1561480841956,151.2393288409612L434.6783782447055,151.356087279466L435.17326188205334,152.1129472217608L435.23047175424654,152.58291027449195L434.96161375024167,153.38908278803865L435.115475682127,153.9329872254384L436.94584165873675,154.96994134151282L438.4207643307236,155.12425003451062L439.8373229934732,155.02151213184152L440.6532698044284,155.48249116100942L440.9922478006265,155.9860938639422L441.79269284415204,156.69205927394069L443.70748029235983,156.77971118298683L443.8358017531609,156.95571351498984L442.90940302293166,158.51332811369412L442.8335230699631,159.50058201233423L442.0190562999378,160.9328126532364L442.3421621972084,161.7301672725198L443.0047205931114,162.27620249750635L442.8601413090473,163.13228232389156L442.46889901045506,163.56296396168545L442.18601919774665,164.35719419076213L441.39956620574594,165.09574510021412L442.83014348065626,165.5642452023385L444.309446969437,165.6695061011833L445.9172197964108,165.9186996610115L446.4042255658969,166.40275221387037L447.39532270262134,166.86108444419733L448.0423189127978,167.60285039404152L448.12634122576856,168.178617729468L448.6257683638105,168.85473162335438L449.98926049829606,168.95589468232356L450.4488751510871,169.36211300182913L451.4817536967348,169.77199098203255L452.78624490253424,169.70136908236418L453.7825993344086,169.4049721601641L455.78629085406646,170.53296336383755L456.68929856492105,170.54334651524914L457.80624236262156,170.73353323487663L458.69841767028265,171.24954492973666L460.9500195661458,171.35406540356962L462.00885810238833,171.58749289132084L469.28223432533196,175.2960789867593L479.9307960233491,180.70513483400464L480.0219425502328,180.30732974343937L481.14332806315724,179.09464996685165L481.92210318676734,178.4165099670863L482.7767383424907,177.936178767789L483.99534263246096,178.32845172376346L484.6717167429488,178.25507705780456L485.30700105089636,177.91764440763382L486.8633905661809,177.87951867649554L487.83157503087205,176.48268209789057L488.3893865569771,176.24775780253003L490.06615965914534,176.08672850861421L490.4162222436571,175.35501727260635L491.4507634606816,176.42032561828L492.6466497561523,176.4637093444435L493.354106263163,176.12263627261473L494.39043713584397,175.40686696278863L494.623178965423,174.9441032330642L497.84264226497544,175.23417797039292L498.7692192280847,175.09686777267962L499.398206156784,174.78058720300942L500.95381439313496,175.0240922603798L501.43520151856137,176.01023808102946L501.3433743874011,176.53183601526052L501.8253154545637,178.43375753279815L502.7690894534171,178.14710543238198L503.3569463643835,177.774306243321L505.5720334208527,176.89781269675586L506.3168265166205,177.04143819455203L507.25348903022314,176.90980200766717L507.4959306166056,176.47349297481014L508.0690835983951,176.14197313839122L509.39018080821916,176.0598091487609L511.0220068978706,175.14837375673687L512.1342286317995,173.97747808547228L512.2352513370861,173.52247024624194L511.08698929374077,172.99025722013994L510.57857485233035,172.27935554182022L511.29001545729625,170.69105563305493L511.83984422106005,170.14710984281555L514.0484483271139,168.24441637440214L514.2211358077548,167.67198690037912L515.1257397060836,166.5945705487493L516.0640187979989,164.94319705409725L518.0144855669096,164.3814034809002L519.4122987321716,162.12666986782915L520.1840982780304,161.71591576836272L521.5365817854836,160.29196425470127L523.5320889250615,159.97319533813697L523.6947193707892,159.3401916307139L523.790141264737,157.4343541739545L524.3984558783995,157.28730490475937L526.1291035845134,157.20419822016902L526.9171520099699,155.36434543436553L526.7100369154577,154.64589307271763L527.8707691480886,154.1665221366884L528.6278824927358,154.63299788507084L530.2243958198487,154.83054388122127L531.2318913457966,155.28511747692482L531.7315982179352,155.8246937587919L533.0594008431544,156.75369718483307L533.8946208717716,156.89280546224745L535.052255538827,156.73105652425966L535.79096125676,155.59392995741746L536.2928613566,155.1964151286693L538.1601426993657,154.31726811512362L540.1851473907736,153.94509859847403L540.8089897126665,153.38191564667522L541.3678120549412,153.18760188182296L541.756798118724,153.53017205740434L543.7127221899973,154.65299419812345L544.63008582783,155.01341006149596L545.4587095176903,155.7789837123364L545.8924917888144,156.75143486585694L545.8984967896686,157.64791516819332L546.4052863427642,158.07411113357557L547.1739027722833,158.14974955109938L548.0251344192948,158.9707874887663L548.56615801316,159.2621981500606L548.4419920721848,160.32592124783332L550.6345896253588,162.17064145641416L551.2938293540428,163.08986720841312L551.757483289166,163.44124455587462L552.8176273653662,163.58544396365505L553.698066511286,163.28687980730592L554.6053838558801,163.38854003133565L555.8487489584513,163.0845778552066L557.0062409187303,163.19116542601296L557.4537352925036,163.5816386326751L558.5876433658086,163.83710773301573L558.7446030431638,164.05348261775634L557.8711820512544,166.09013711599164L558.224325979576,166.38006550770206L559.3105206575929,166.42284169156937L561.0095984796098,167.41144783989694L560.8468655449869,168.80611768111157L560.2635165516003,169.5210183158024L559.8670948058934,170.847155921766L559.0351161508261,171.56792799699542L558.937652658653,172.45277947171144L557.4890669431516,173.1242318077302L556.3960593373777,174.00312851427861L555.2213920093163,174.3655398393439L555.593479628129,175.6211975669239L556.3581071245717,176.00313938662202L557.0149203709298,176.667783393852L557.3340224838503,177.74929429449458L557.0516808381726,178.69044533483157L557.7749994820188,179.68701465197591L558.9155122001284,180.39774246632987L559.4744433426276,181.12268030595988L558.3616951163203,182.67741732131435L557.8699870078999,183.2028394539384L558.716985419087,184.71627971696944L558.6354321970903,185.01634575193657L558.8582035366271,186.46965272595662L558.8138761441842,186.92981404264447L558.2523387550573,187.97628427503605L558.3928748374456,189.0889618010233L558.025668285667,189.66264237429368L556.321816310232,189.78292818232785L554.0967839061632,189.57334603010622L553.4292973277225,189.9011095269443L553.1703885354073,191.27841682185135L553.4241529939864,192.46334211132944L552.7079224066474,193.0089099165134L552.4754287040232,193.9639486318165L551.2251655339787,195.39286010693831L551.3706346825857,196.59240350031996L551.1145465408845,197.200914755158L551.184838168876,198.17194619244492L550.7152042205271,198.80168727544515L550.2841961877311,199.77544526900783L548.553673976694,200.90122520627938L547.537035165049,200.75917876974654L545.7826982207407,200.9525170386505L544.6760774215145,200.7840766001218L544.5430746508719,200.49505057937677L543.5338639931142,200.4228769996398L542.9365309206296,200.8125654360856L541.9533356155625,201.0805914990833L541.6777808396182,201.97905222184272L541.0942572157983,202.17266824942817L540.7997985875081,202.5772056465912L540.7131219257208,204.33456338155884L539.2645891854991,206.12640470522L538.7356365735905,207.02124524309875L537.5959569402985,207.78036039703238L537.7734209527007,209.02514846256963L538.1685783160974,209.70765141205266L539.5184817324807,210.58130905235794L540.7863521447543,210.83936079536034L541.1115994688553,211.03235286477684L540.7255514245444,213.3749316663616L541.0832139882586,215.23138777987606L541.3837698383977,215.88099080422035L541.8660329066188,217.545457543476L541.8866172775233,218.14077397574783L541.4960062044229,218.92786171300395L541.6380374228502,219.81156567505877L542.4689007305205,221.12825109553796L543.6259493793914,222.03747234411276L544.0435284644336,223.1025385831581L543.9938957017912,223.43829818739778L543.0760837687994,224.3743797727593L542.7415643410823,226.13186062150817L543.0006307509793,227.29426745559522L542.6775435057971,228.11248800904377L541.5961726940877,228.62637832323344L541.1828502368335,229.38542220076397L541.1148129642388,230.3714288494475L540.8061245610515,231.47555810016274L539.8521773226785,233.26021703589413L539.6034737806294,233.9965019654819L538.4539502726002,234.24346780491305L536.5610760911841,234.43893229287733L535.6082931279088,234.36910459322735L534.9479075826275,234.0517606504045L533.9520550617926,234.22506318750493L533.0894617701379,234.16781530314347L531.3703705385997,235.02660997709154L530.8579683532407,235.40380483586523L529.957121029769,235.73613224355995L529.6445858533516,236.1444131610633L526.5397730271907,238.65265817521504L525.862184224974,238.8978337646804L525.0338890314451,238.92525282734096L524.5813141414983,239.92497595909572L523.9590533587834,240.85369995403926L524.0818872054988,241.41495465364005L523.4742175917199,242.59420522617438L522.8329503418499,243.0885256075935L521.8460283870263,244.15608061517196L521.7230213093208,244.54923711383435L522.0193431888038,245.16757274948577L522.7580343080554,246.14419344669932L522.9744651020046,247.0010552120557L522.8027570946979,247.54503957807992L522.2847434036194,248.07193268140418L522.2317426340705,248.58948992854766L521.5085189135643,250.0022168886071L521.3685725555297,251.5142776203811L521.1171305972093,251.99709470093057L520.3478486049571,254.2191402298031L519.0313001560207,254.506348026267L518.0405637683325,255.00189211009547L517.1501847616746,255.18134236944206L516.250497261397,255.58003717032352L515.3479802417387,255.62217764758043L514.1285974511266,256.3944546292587L514.1541098315902,256.83967184625635L514.5836502589154,257.4144090058526L513.7373253836668,258.27146631501637L513.4167953933029,259.2224812211007L512.5453631707278,258.3914759125191L511.9486122502349,258.2160900754043L511.47277998950085,258.64857073080293L510.24655532155157,260.4075367099085L509.7988362605247,260.639711304867L509.06733482390337,261.84786970715595L508.4920935582777,262.49040176842027L507.13827074445,263.1424232584932L506.6111047973027,263.5477962664236L506.1608125069506,264.32585380045293L505.5616521316879,264.7146509557915L504.9313440807309,265.81208632432663L505.425622416431,266.73354353696686L506.0825429744036,267.57142976323394L506.2267408724874,268.3788885290178L506.9633015897125,269.0522064863444L507.0827180846063,270.28683575969353L507.64504930639305,270.9621469739632L507.61043575958684,271.426244573282L506.3325187661867,272.34052630453425L505.4055607293776,274.1962164668621L505.7148997467266,275.0927517778773L505.2794818103066,275.452165167314L504.89065231009226,276.2199428037575L504.5773255562235,277.869776934087L504.65657815208033,278.3604315847406L503.78178315455443,279.40739720835245L503.7631719434321,280.85393533683873L503.9430832778053,281.234297733673L503.0580689731287,282.2720986366239L503.72916352974426,283.3020018452353L504.07634178816807,284.580595253321L503.7039921601645,284.9940760387417L503.76261205434275,286.13982030949956L502.4950584374674,286.85486573433263L501.6843752217792,286.6916040894621L500.86927316922447,286.89187828811737L500.27165668461384,287.24434263692L499.9043667530859,286.67559049161446L498.5989441278798,286.2816548362898L497.6623879306644,286.5562601853353L497.0249828832202,286.35459825632915L496.205102591015,287.5013667263438L495.1118054202816,288.80556184345005L495.0472915116661,289.2432199068453L495.3053814805353,290.62299994552995L495.23334008750317,291.2150501781207L494.0490398760994,291.95671250647865L493.23963592305154,291.8848323547172L492.3121415239111,291.4958369404321L491.0409166708414,291.3656921232405L490.19627543655224,291.03948305575796L489.4574363083557,291.53064104826535L488.3809783067263,292.61749274624253L487.6099401345964,291.7990520175981L486.7010695991121,291.30040436924537L486.3981908105743,290.34933999818804L485.65856835615705,289.57565375219565L485.0100823948487,289.35647915108166L483.3976748656278,288.4121052227829L482.89489093261,287.7450814569511L481.386188411092,287.4819232224272L480.4405882430474,287.83954740900845L479.4066949148,287.2244764440002L478.1956932970643,288.2041143471906L476.95486992819497,288.63830054293794L476.41316673730034,289.25482272614136L476.49891661263973,290.06342624869103L475.9944911806233,290.4791223280545L475.2370541642995,291.6257411546085L475.4027721118946,292.3243647031577L475.2114023795366,293.08193447074245L475.2055077757432,293.91892538825414L473.9678036856203,295.0900163714532L473.8968737527248,296.2917769848409L473.3088941914175,297.23572571329987L473.1213034376924,298.3016636071716L472.3490517497339,299.8933369903616L472.20581900966863,300.5225232472212L471.38073374189844,301.36909321647727L471.4578125283806,302.3411944473082L471.3146987887376,302.97950103867333L470.8009914327704,303.46762516777744L470.80467557373777,304.9588734368572L470.6148409258021,305.2430029872239L469.73300855098205,305.7268104845598L469.29029915938736,306.16870796143303L468.6653098093593,307.34951852480026L468.6575575362767,308.14095243225347L469.4058536689081,308.8864310022145L469.5955059574735,309.86616541173953L469.3489072233897,310.4148597361782L469.5226147116846,311.0400601100955L469.35628168615585,311.50558584107966L468.802752917396,312.0138822877643L468.8209103679219,313.0789257334809L469.5644305397145,314.16112881357367L469.099908464028,315.6791068916773L468.74640390663626,315.9118889185165L467.32273443396844,316.277289269794L466.7708436943649,316.2574383055171L465.7929657835484,315.81580108188973L465.6718571473575,316.8199900852642L464.2122942036949,316.797628373145L463.5711940421934,317.49800275277903L463.5035371692902,318.9733139466425L462.81129408511697,319.5302593064125L462.6199254161729,320.34852242296074L461.3746007656555,320.7591650588856L461.0079789058109,321.640263208179L460.5515249258642,321.82483090256846L459.66408171808143,321.76138886843364L459.6240288234185,322.0861267718292L460.50297350989786,322.7672411526919L460.39871140859395,323.17848953953217L459.80936695972923,323.476528740116L459.07467540740254,324.1518162634902L457.8290440255805,324.08321071975297L457.0688077509403,324.16962825551127L456.48036247678465,324.86456523955076L455.5927217756107,325.321353423853L453.70175277446106,325.7443350256999L453.53629016624836,325.9182478075145L453.69881965014065,326.8741569703825L453.46969040797194,327.526041484758L452.63683849832523,328.46746894337684L452.10146128726774,329.76066317849836L452.03876735676386,331.3406056459835L451.65515856584534,331.74876883221805L450.8243590438615,332.08214939750906L450.7686423758423,332.73230812059046L451.29326392596704,332.82735032003984L451.2982505060536,333.362003690856L450.50820644628766,333.5921188779821L450.77508216929346,336.11277234082445L450.9811942831766,336.47691392900197L450.84101413778626,337.4982299175026L450.5360036865568,338.3754948024671L450.7218347840171,339.17118884028423L451.2938689257826,340.04563248406976L451.5819208108769,340.8493757631477L451.1284956896088,341.71833964312555L451.3567867773272,342.23006985222037L452.5031431843054,342.5290025733466L452.9633657924169,342.87788514580916L454.2467774916113,343.35619213458904L454.1582197894604,343.9916905605287L453.5529770297253,344.7745335910731L453.7993584742362,345.23595315759303L455.1264013924083,346.0625551562989L455.7334243596124,347.39733741231703L455.52898790820836,348.38076202947195L455.9569145982132,349.23304589102645L456.7439891484828,349.7993407572376L457.78701652907694,349.6329747628188L458.2452517637539,350.1293869316369L458.1713913340827,351.13174830865864L458.81048059734167,351.62061181298577L458.6967269415618,353.50752727953386L459.2604747051664,353.7262281163048L459.3616713876763,354.51561063778445L460.5067581939693,355.19929073267303L460.6927282359138,355.51509789096144L460.01733050913026,356.91037096603213L460.16028917590666,358.1638203448065L461.0405097602925,359.510986598234L462.11360191054337,360.16589572968496L462.2219062965087,360.60300158622977L461.4985546609605,360.88849132161795L460.42836220295794,361.8863083225024L459.87577199308,361.80384784027046L459.1063151955095,361.32444832763576L458.93108322141416,360.96364833401276L459.14278974966874,360.3181214764654L458.00346343176716,359.5042165634786L456.92826804409196,359.88973841835286L456.10288178325936,360.56462637665027L456.01051816586914,361.77387408922095L455.43750347191235,362.37830572342773L454.64478712381606,362.68179953062645L453.9465891494656,362.57183178997L453.31770489280825,362.8665888808264L451.80701920584033,362.9807356667334L451.3732072594721,364.19677701734963L450.2132807122762,364.9408154180164L449.6527286617056,364.8349006276421L449.12177780839556,363.90707104631747L447.85778350930923,363.6376846056037L447.20725599995785,363.0878456992468L446.80572689568726,363.1404647488689L445.925026488545,363.8002916158439L445.068997878403,363.73368504769314L444.53083827711816,363.30621131486623L444.5923941358087,362.74239849054356L444.334100806911,362.30349766530253L441.853497151762,361.9026578999201L440.9951480974669,361.66774111160794L439.08753042192257,361.4576766183018L437.59711444443747,360.5638925418607L437.1398314276994,360.1444535352339L435.7775377896178,359.8718155804754L435.0406270697422,359.508959701463L434.96062404424083,358.6103556751423L434.4851399471372,357.90074481343345L433.43814209952325,357.08544212688685L433.3921009029218,356.5452191158138L433.9102945682753,355.3245272737113L434.078695504948,354.2673236254486L433.50745705812005,353.06552827529686L433.3013066420972,352.2660764554821L432.8281438878512,351.7688475258692L431.9034880082763,351.45235382787087L430.54817968156203,351.3896468094981L430.013136347221,350.81119739192945L430.724046237774,350.05039606217815L429.8786283672598,349.50589281984776L428.83127918971513,349.69565374277954L427.41960249287877,349.6328139116531L426.88779349686956,348.8678135536293L426.90578421347163,347.53908191618757L425.64276558260826,347.025466607045L425.23495606545475,346.45519974194576L425.37695101855206,345.56137529284297L424.77845428678484,344.9832685312467L423.5946990956363,344.77415817391466L423.13768076658016,344.9656923004077L422.25273715352887,345.86423708383245L421.97817381575805,346.6373603191814L420.80403814409874,346.90296751595906L420.0346472881174,346.7424676618957L419.8259896950294,346.0937539137203L419.2709302655967,345.825351536746L417.9290794861845,345.779845144677L416.76944889006336,344.960296027386L416.48517105045903,344.9628256470569L415.16281109052215,345.8307483663102L414.2441554305624,346.2333347560834L413.39087759979157,347.05665854450035L413.4019301704502,348.6439971353693L412.5544123589207,349.3129287709771L411.1283855574293,349.9076293394637Z" fill="#f9645d" stroke = "#222"></path>
<text x="468" y="256" font-size= "5" font-weight="bold">
        गोरखा
  </text>
    </g>
</svg>