<svg  viewBox="202 160 150 150"  version="1.1" xmlns="http://www.w3.org/2000/svg" xmlns:xlink="http://www.w3.org/1999/xlink">
  <g>
    <path id="path-0403" d="M340.2029910104393,207.859413168846L339.50372102473193,209.06773324683127L338.7159182676878,209.18310129839938L336.7760916664847,210.01162531160026L336.1743352100457,210.55315018533656L335.36361819477315,210.8894858943886L334.82611548106433,211.34589664705254L334.5810467363626,211.89615007654902L335.0533669960532,212.62251557328636L335.08777911179277,213.21563314103878L334.35059951648145,215.71951508059192L333.7054837345131,216.137678598624L332.35121233418977,216.61362015810755L331.98088404283044,217.08859574047892L331.28621041121005,217.14640326241442L330.8372166303561,217.50491026680447L330.23426324196043,218.35970489832835L329.6700884309248,219.7888713639859L329.63417728441345,220.74542157529595L327.68052062531206,222.2474385531341L327.13052104291273,223.19140061177495L326.746324621261,224.66111557470322L327.0792929609852,225.48581643593025L327.6492091282598,225.95054304983387L327.8971072901877,226.51182532731582L327.9571036730049,227.45300024359858L327.72097587504686,228.71756506545717L328.0030517757441,230.04034932731065L327.99250519469206,230.75244776748968L327.45899180172637,231.64923346545675L326.37079310039917,232.39503738477015L325.9420574338619,233.41481214981377L325.5970407027344,234.71945464335022L325.17310649170395,235.18372137515598L324.8631661480031,236.12809566444503L325.0145154527927,237.32517303728582L324.95353772784074,238.5809268058647L324.09232461423744,239.18718921175787L323.95762875408764,239.63635985548717L323.338463843691,240.16846759801138L323.04105582803095,240.91874515933068L322.9615731978156,242.29405866796242L322.5130123182971,243.51869943765814L322.1186420432896,245.03245664082715L321.67170062866353,245.5288973896686L320.9103838840492,245.78041623013996L320.6604728579696,247.08633475054285L321.50952012036214,247.93261053600145L322.3311516956128,248.95796596444507L323.00960464985474,250.35688559227037L324.07528013138653,250.82496163082396L324.3398550715574,251.21092256929478L325.11760821290954,251.3949212706957L325.7749786980203,252.50861570069083L325.74899172596633,252.82975849976992L326.4059178497482,253.25332357569005L326.55520384474585,254.5195907991383L326.45084524108825,255.3141302048516L326.892432821056,255.98510601357611L326.82377875414386,257.38884993761076L327.16497790137873,258.321360812507L326.6931634429857,259.1384096500551L326.99929887733015,259.5700013033065L326.9983598480394,260.15771272450274L326.6239359919091,260.8424410708094L326.4795772545476,261.6310098323238L326.85212277260507,262.10777133102783L326.3797656233437,263.27549225858L326.4553384565479,263.98611895216436L326.1124098608525,264.233338552669L325.9682410664718,264.86265811586054L326.2838326129058,265.7720566810167L325.6894111577676,266.9557029453845L325.49026321856945,267.22941977571463L325.33182590098295,267.3846905717646L324.96962742770484,268.1273640088657L324.3872048290177,268.4230408927451L324.2645772431606,268.4957825833317L324.2034295354242,268.6694410694963L324.21390471056293,268.8517731583561L323.40141919643065,269.15623227363267L322.84960696060807,269.3334781285248L322.74224787166895,269.3697828405966L322.4049447922989,269.4197121711959L322.28222584191826,269.37824183162775L322.06745908083394,269.2460301236433L321.6129704605264,269.6604475126478L321.57729493181614,269.7698028509367L321.6390017142039,270.07981871467655L321.7209499932869,270.20756143180733L321.98697682955753,270.40419393742013L322.3399703888608,270.6277701701447L322.37596428266625,270.8465980252422L322.3660023586963,271.0836078253842L322.3408766253742,271.39352105255966L322.3818594445074,271.52119013243555L322.6631539705231,271.64010653096557L323.010736900771,271.65883200563076L323.5982413184829,271.463419217961L324.1092823547151,271.34512932320376L324.86571699968044,271.3231932249273L325.2644857317755,271.40583445958146L325.2750466435209,271.4160389612898L325.76642393345173,272.1578525703935L325.7922132403619,272.3584399334595L325.950971715949,272.6729401998555L325.99196795804164,272.7276912328016L326.1557422936603,272.8099795979515L326.2170570685921,272.8234808940497L326.3398347092152,272.82796489337215L326.523972053521,272.8647107287934L327.521423663904,273.1971267754134L327.66456494583326,273.1882419034964L328.0225299878912,273.18826608718064L328.15035855957103,273.2334943971082L328.25792927789735,273.3843643238015L328.2683461157394,273.6214035237108L327.8645921389689,273.81755618635816L327.83398069711984,273.8813246732807L327.83398141381986,273.91779112464883L327.8494762949704,274.06367154511554L327.50726624621893,274.5966811744711L326.970839710415,275.4120080071816L327.0831938074589,275.59396718361677L327.3231415837399,275.96165820583246L327.7112073085518,276.3612383789059L327.9103635772408,276.51062150098096L327.99207312349245,276.58315208768545L328.2014791753936,276.7829790725118L328.4263626524771,276.996233791353L328.4776709454127,277.2467151917708L328.253273317554,277.5702377273901L328.24322190492603,277.7884721452165L328.24887725627923,278.3531450444634L328.2236933507811,278.72633612464415L328.2646613085599,278.85348532271564L328.84222830186263,279.38475772073434L328.9955329152872,279.5619630055835L329.1030017875928,279.8211479597394L328.9602659195116,280.05310947879025L328.7562007041197,280.28603745057444L328.7003890667329,280.65006411874856L328.8436703711159,280.9639704826177L329.4467747775052,281.72696415143764L329.5949687755274,281.84947726527935L330.2039648391583,282.35185825169174L330.5887363170623,282.91340599036175L330.50839277761406,283.5723137092209L330.1207887208948,283.992092385306L329.96751818939083,284.0379489000761L328.84871359636963,284.3970158882794L328.20585841387583,284.98102379453667L327.93277407570713,286.94752794043234L329.13298713197946,287.970471472142L329.5237368176349,288.8982730580483L329.38015154681125,289.7479807958198L330.1451351309406,290.9021657268486L330.7542354245925,292.17514013179243L330.5657608910551,292.8966143990838L329.97554784457316,293.5831137946634L329.7228237929994,293.0920311358095L328.31794290956896,292.6296492003976L327.34358853517915,293.07641169309954L326.5945949361703,293.8383270399927L325.55367571392344,293.9220005154484L324.5020537768396,293.57991529078663L323.81305281505774,293.5858674649098L323.1949251097867,293.2439241120528L322.54640787300013,293.6805808845602L321.72851342452486,293.87301156045123L321.04923496271294,293.54978512314665L319.96816656728697,293.59980013354107L318.8369196153435,292.6823928076674L318.82590594152134,292.305399652294L316.72220650808595,292.6287579369773L315.67502757616967,292.37973263195727L314.91794424896216,292.65445324862594L313.9179563454818,293.2705065684095L312.7967075509987,292.44663441548437L312.1323581897341,292.19919260157985L312.03966636029145,291.83500481138617L311.3827779707317,291.8235624820454L310.94591612161094,291.269680139354L310.3823335059824,291.1146580731074L309.3304292104913,291.5232618607761L307.62222274962915,291.51406371646226L304.80899631218927,291.1393267012618L303.97447267176176,290.9021218497619L303.27540560536727,291.1342701090043L302.61340255273535,290.8586205865149L301.66992163095347,290.20097627843097L300.7574217584988,290.1536209748283L300.4006951931369,290.44454108012997L299.73907518038686,290.7706251487516L299.1691805025803,291.4094280692789L298.53734051045467,291.6899843157571L297.44848288523644,292.952661151935L297.0610659539634,293.83399661723615L295.02605712049626,294.6097901812991L294.8331937451294,294.97111551349917L294.6049854640005,295.64181950509555L294.0346636221693,296.4673366064162L293.8757224963192,296.68762314419473L293.7257514576231,296.83986358901257L293.4276233122473,297.2386670490705L292.8236406721189,297.90116253474207L292.2959977376122,297.4681481510006L292.2064832898286,297.03802361375074L291.2376934943022,296.43911215878416L290.7618398522318,295.78682294542796L290.2717184326866,295.45787478426973L289.33212465113684,295.33524001064416L288.70775341901026,296.25680356770044L288.11188807372673,296.5333041054291L287.47581981330586,296.30193377197793L287.1756389333823,295.77952484137404L286.41154403942346,295.2451803945223L286.37978122608183,294.91375949872145L285.2795763196518,294.67856390743145L285.3301759522474,294.3873959702196L286.12096243951237,294.1634903193517L285.55220036391984,293.4629717450762L284.6530976434333,293.3860419537559L283.99786031915573,292.725764053027L283.02826473074674,292.69979923859864L282.884677435035,293.45534768177004L282.32175410138734,292.82568236943825L282.42757248181806,292.22939857471283L282.94160995862694,291.9061390596844L282.5824888127463,291.2647211791955L281.15191393945133,291.67148869034645L279.21826859959765,291.136612428174L279.6504935152989,290.78917193307825L279.7543194263235,290.0829392302903L278.9615711800361,290.2474884990643L278.5393616964575,290.0485113809955L278.4322886898153,289.51708318788405L277.7817151586387,288.84726899046836L277.3110122420039,288.78558768222956L276.0159265024231,287.5055532543465L276.16917289343473,286.97949824655643L276.01726777967997,286.20033654964845L276.86313576083194,285.48927991407254L276.70958767234697,285.0071824135821L276.5511785693561,285.0876338195467L276.1064928832566,284.72619938836124L276.0405436027904,284.6983046706491L275.8270860740122,284.6741850979024L275.6800249179687,284.7551562189683L275.11675493157964,284.63183242232753L274.9926688552696,284.5572971818128L274.92318259862805,284.4318269142541L274.90200116328197,284.40073791684335L274.88128048095314,284.3851712911028L274.3080103984539,284.064527762378L274.1236686334669,284.2087921329903L273.99218947097324,284.33428030670893L273.94183708933997,284.3535763536147L273.8689183485694,284.15732706261315L273.86429882079756,284.14981103365335L273.87949124851,284.0195119462742L274.0252002537745,283.91278409651386L273.5087937208118,283.8527671245738L273.4683483277331,283.86295754906223L273.31106680375524,283.87745739361617L273.1838778357378,283.8779792133919L273.1717722250287,283.8699582638019L273.08190226079023,283.488153677994L273.04966934436743,283.425425933473L272.72686146116394,283.39006357877315L272.52361146260955,283.53649691135433L272.4478450614224,283.5563280860015L272.37622207370805,283.54186142545313L272.31936293343824,283.50915388923386L272.2788116401607,283.41961488995094L272.26814660407035,283.40137440039143L271.9197101034915,283.02229201478895L271.5324854780847,283.09581009533485L271.48251258010714,282.76817726427726L271.5480264907783,282.5568936757991L271.5666781462314,282.34399171836776L271.2154701185791,282.2775553292313L271.14173829170613,282.2802450136078L271.002444243637,282.3001068600943L270.76704972538937,282.346261657769L270.6432623671644,282.3570177969377L270.61490749388395,282.362915245707L270.021312547502,282.5244312593977L269.928078757639,282.55018942456354L269.2011747298893,282.68387115550286L269.1481479543436,282.6618881131808L269.055788004589,282.557882152616L268.6561407270783,282.35795404139753L268.47505053621717,282.43467744298596L268.3444019286035,282.4963827353031L267.51134682867996,282.9202231404679L267.4406602641502,282.940083944246L267.33172816133083,283.05111887634575L267.31169126084933,283.0629132169024L266.9796069627555,283.38529354084403L266.95934708643836,283.3879675591097L266.8949276604362,283.357963555668L266.88830202457393,283.30327141019825L266.90104363755745,283.1718880244762L266.9465222459512,283.0549718902994L266.968324332076,282.9209146562607L266.93714620018,282.8683618520645L266.8936551531151,282.84103124254216L266.6659411994733,282.9596137819726L266.46532168660633,283.18113378750513L266.41541521615727,283.21654636211406L266.0158610468425,283.22310301096786L265.9060807318383,283.25263432858264L265.7484129733966,283.26447531689155L265.68972744634084,283.2612826070026L265.4928014648285,283.22648278557335L265.34379116478885,283.13323194270015L265.2314841823463,283.0796405913752L264.620576807476,282.81012491792535L264.5406355291889,282.7731546466266L264.3452685788325,282.70886970943866L263.2968926399408,282.76342929797374L262.6653148375881,282.7733464489129L262.4008815981106,282.794368793363L262.30892456426227,282.7874333911077L262.0924226555726,282.791283842741L261.6858720314631,282.7694695455575L261.5226035202031,282.72664807871934L261.2847418158417,282.69297777452084L260.17578448530185,282.2511043943059L259.68335070391913,282.16341412499605L259.63749739249397,282.1055289748856L259.6277977721875,282.08461475975764L259.4779670953103,281.8122698501329L259.4070558010426,281.73188134483644L259.25183505352834,281.54695201413506L259.206576205539,281.50622316769386L258.86518257434363,281.2495372214262L258.812229996478,281.2238258350426L258.7520140114175,281.19114805596746L258.7274315208233,281.1782997610899L258.68876803196326,281.16276311431557L258.2947212460749,281.0026434945721L258.1709469285561,280.91906219017073L258.0448482427819,280.45903726453344L258.0457828242361,280.39789839201694L258.04303390673886,280.3432061895646L258.04148850033016,280.30887873441225L258.041547562545,280.2906529368256L257.83743190127643,279.4494025673821L258.57506075029596,278.58402998842666L258.9129227732192,278.250850777561L258.94971342017743,278.1977324957588L258.92680773195025,278.1006919879119L258.9100826160284,278.08622449392715L258.70164000996374,277.7758543670898L258.55348715899163,277.47242012270726L258.5394647163521,277.4252293364134L258.47223226993447,277.09709174913587L258.3529083665453,276.72393262945025L258.09978557299837,276.34064514261627L257.5018027014521,276.1790580763436L257.19224130044313,276.00334053749884L256.89190438990045,275.85765754521253L256.3266048707628,275.2391773472309L256.2104505983225,275.1706132739346L255.798493545386,275.15692416672755L255.572411869176,275.19245823511756L255.49343646559282,275.1764171646155L255.3077235256642,275.07787887339236L255.10834435488505,274.9182019327245L255.09479791177728,274.90695769790455L254.882808760005,274.77250295437443L254.8072349939357,274.7682558682045L254.3060211725242,274.58948131487523L254.24941312130977,274.4828308141223L253.67599503906968,274.18559710598765L253.5749584610021,273.9620466957949L253.46053751446743,273.65914669087033L253.45217249288908,273.52402044011706L253.446854829519,273.51491504960177L253.43960469508602,273.42589544084694L253.31386450765785,273.0704571894612L253.17193755140397,272.88878068243866L253.17566463869298,272.83191970818734L252.7138344169507,272.26867979208055L252.61369213847138,272.2060124950358L252.189013796793,271.8363189767533L252.16864830673876,271.7537461813263L252.19524500931948,271.46361844411695L252.16137700613035,271.33709301761064L252.14024020788565,271.3097620709068L252.05382145537078,271.1982844898339L251.66213459785286,270.94601094242535L251.5450600237782,270.90856590741987L250.75277769024615,270.57884992758136L250.3214433858484,270.12178558486085L249.61916615252994,270.25105526645257L249.43609926029967,270.2640700931461L249.14182618826817,270.3088146356022L249.04360205591001,270.3534076750275L248.8495310135695,270.4785105664023L248.7585264919253,270.5697597502867L248.4752434707989,270.5415712362719L248.35190237837378,270.5861943628288L247.82183166127652,270.5673378571846L247.4087033956057,270.66691011856255L246.85932173693072,270.563371539738L246.5443442496653,269.8938939676773L246.2937776518702,269.58310858114237L245.98144077198958,269.5147554263949L245.50653318837067,269.3870334932981L245.24900911609802,269.52991751556783L245.14358230188736,269.6356643689287L244.93541369823652,269.6691037509072L244.1999774867727,269.4665961170567L243.81851473562347,269.47447446837396L243.6959891231927,269.44350583477535L243.60477543783054,269.4714771970321L243.43398022542897,269.63197669094916L243.3938771557041,269.6781433688802L243.11668834240845,269.8757496322778L242.04323156731698,270.25760143564094L241.002002135785,269.6398859776855L240.2917049164862,269.0373759726217L239.84918018470125,269.04538892439814L239.90154076024191,268.40935691185496L239.48853587216945,267.972255997729L238.88122576653768,267.8410305208117L238.52129546749347,266.822589829776L237.71204086353828,265.980576263838L236.60081670290674,265.82694377491043L235.86280740579605,265.4422970556443L235.344339781499,265.55984416043157L234.47133359756845,265.43064281877196L232.6543148263081,266.32640781747523L231.76446231070076,265.28355522717175L231.61334723783511,264.6435008828994L230.93357449527684,264.08568595532324L230.00494305241227,263.2027367108449L228.33900274102416,262.05385348594336L229.52510564019394,260.82736003280115L230.13673524605474,260.04037382745355L231.18931058872477,259.010934848573L232.19944021285482,258.2454065906877L232.62673886868288,258.1649363172801L234.1390743004995,256.64486451227003L233.9895375305896,255.4342403503788L233.6305008065574,254.53919146576482L231.9812874980853,254.27542508891747L231.672489666802,254.41098686628357L230.42054299297524,254.13870317909823L229.43094592229681,254.40395017058927L227.7715662580449,253.7907893799902L227.06374676221458,253.8122342850129L226.3683190640986,253.27545282212486L225.87455092493838,253.30839145626396L225.17080807487218,252.9121284556013L224.49609331210013,252.76091057820759L224.1593018950407,252.37857505663396L223.4024178365762,252.18783206204898L223.11363368551247,252.64946736354887L222.06168239519684,252.13963632074046L221.61176677143158,251.68621151223851L220.82184581342517,251.3320161810925L220.77042446650375,250.601232492304L221.88518050851417,249.8212647014061L222.56316179367423,249.13697774778757L222.4897554474046,248.29790912738645L220.71490276394252,247.50565604604253L219.64953501993296,246.79055854004673L219.814365776645,246.20042363378252L220.33866519548974,245.79733906347155L220.56978627867647,245.20656444146334L221.14097892485734,244.87204497917446L221.35069497522272,244.20838236705004L222.6525037918218,242.91817872345655L222.02177544614824,242.29184188565068L221.1233115447867,242.20059277241035L219.6121333332303,241.32430699151337L219.15132933810673,240.8237508113898L218.88585676019284,240.08797946367667L218.22000131847744,239.5121762855406L216.80528711915758,238.97690594086362L216.01971604309074,238.5086174222415L215.34133750278852,237.84067541214154L214.30029989773175,236.3707149412876L214.25026757403612,235.26669622196368L213.7679986079129,234.66439085861293L212.5805985084953,234.07363761802117L212.07414402243012,234.01886388507046L211.1211128783616,233.35048040267975L211.52372391349854,231.65467374328364L210.98104617647186,231.03374245500254L210.46138587980022,230.91521579114942L209.86688261183735,230.17322563625385L209.6993514636015,229.36762447468936L209.37494630649962,228.90981593053948L209.66847306597992,227.90755647254173L210.2260849747763,227.3267588616518L210.02643411641475,226.9378707489759L209.31429228282286,226.95113117878827L209.18862645554327,226.59747551002692L208.55980587182057,226.30707550343777L207.72353153198492,225.37206200253604L206.62388131119587,224.5958114197174L206.3055644035594,224.05384035129646L206.0007984674994,222.98633654676178L205.4945895797864,222.570270336274L205.10125611093463,221.64670258801198L205.47496076238895,221.402958607272L206.46563641674948,221.62548549550684L207.90652560518356,222.34846468393425L208.8340559547978,222.36903829524545L210.0787734791047,222.11336833388214L211.24421300944232,222.32442533148696L212.03370851384534,222.18826219212588L213.73440666109673,222.6396479317873L215.82873736315378,222.57454123855223L216.42309590213335,222.741817396407L217.22050977436083,222.6856574629046L218.50372239489297,222.95574222879168L219.13342317555362,222.67471095732708L218.89696721361906,221.59036174642733L218.89588988780815,220.4122806034402L218.40087811435296,219.88016038415572L217.91177209320085,219.81348841070667L217.20462080161815,220.5869142350657L215.99791126164564,220.7575151282972L215.54596471348486,220.50848071893688L214.88827260354083,219.62012081310058L214.1997249341439,219.23054195550048L213.8307411442438,218.5743745522177L213.63096293298804,217.74416094279968L213.07625849581018,217.35594663436405L212.52570255307728,216.42667737015472L213.38942243086422,214.87531849054267L213.5827189774791,213.87488763392867L213.93263198180284,213.0371793675913L213.5838175046665,212.30430592370976L213.77751193712538,211.91034671934085L214.47839858899533,211.3186293154431L215.52837140857446,210.14660764281052L216.09080478646865,209.26831520231826L216.4697097911485,209.11425923558L216.8133528166436,208.18114419711583L217.52848471229663,207.6382514825691L217.88459985649024,206.46490343996356L217.3758743383696,204.18422190128604L218.06587048092842,203.43869208471642L219.6108576385741,202.9362192484723L220.70047165428332,202.41741395698045L221.79844377399422,202.4423519582342L222.50194413707868,201.82988354057306L222.9319450385592,200.93745215413128L224.06520159386127,199.83530215136489L224.23030679291332,198.853751127921L224.72673615638996,198.19180736431917L225.72719970187973,197.62881292051406L225.85884912974507,197.0977527749901L226.32757925566693,196.5489964712542L227.3311002244227,195.86541767035942L227.7278659165204,195.30982964359737L228.51718748940402,194.6373202767063L229.2881450813402,193.6935187857316L230.1555082961786,193.14212727357062L231.35906190930473,193.38171792462435L232.12521882183864,193.0439276311481L233.08339325561974,191.6323874946047L234.0361057736627,190.43215962267186L235.26896248545017,189.7833652300842L235.5978091479301,188.7335727235868L235.3442394989761,188.2840220305361L235.29785356781213,187.57251891838587L234.20605191259892,186.3486895673941L233.13293099461953,185.64283174023603L231.69306035716727,183.836153888411L231.25794370482254,183.64265821518984L230.41258739276964,182.37678848640553L230.22186545609293,181.33787702714017L229.88779566086305,180.37264330432845L229.42996441208743,179.97973382137297L229.02112796021538,179.26556255631203L229.17609307345992,178.5323399612471L230.14577849686248,177.11159030846466L230.9310700895585,176.2037500432598L231.8753615347705,175.80887334686395L233.24012544873403,174.9094018661972L233.59792448816006,174.78989645721686L235.81714383454528,174.85030329603978L237.35901892472612,173.96742093623106L238.51706348635344,173.52903375308415L239.22215500527454,173.02149353346704L240.25705975656092,173.04123346544566L240.95143138104686,172.7477089835047L241.72037253580493,171.9988655099869L242.3880355994661,171.58795073701822L243.56202259548445,171.39639121626988L245.73773478234943,170.60764337453475L246.36867323695333,170.5850705802959L247.20367627754604,171.06152765887055L248.5527233553621,171.57240830016872L249.52614632497352,172.14640908827096L252.57374837624593,172.13920278385467L253.47349133075113,172.3262149617749L255.1342099495705,172.31060770482327L255.86709169401,172.54178320262236L257.2171506783088,172.39135147288562L259.46707447509834,172.58045216163464L260.8998100449098,173.33740186494379L261.76555331213603,173.49947477286332L263.0620674420861,173.41526270485792L264.2665558615008,172.85230950605728L265.0142675411553,172.65043293947838L266.71158510043824,172.65149116276098L267.65126209514347,172.50645766731122L268.80724280868526,173.6086023486132L269.975461052898,173.87806457294846L271.2918211123506,174.63979900115464L271.95585294021294,175.37537083379993L272.90722211727916,176.86378059303934L274.0296807090417,177.30336571815405L274.60427860531854,177.1789402423674L275.6054257774922,177.39445551275185L276.8940493350128,177.1317139650082L278.87782456244895,176.96129378916157L279.4628637257483,176.80586796145053L280.33452233627395,177.90195662889346L281.1817727883099,178.7873573584293L282.3820349363232,179.32058051476906L283.61523521882555,180.2741994490898L284.40396545943804,180.5017348169813L285.3706888139677,181.02533622318697L286.05115132392166,181.1547629681254L287.1260953617384,181.65003623074517L287.9551026561385,181.61814685480203L289.1077324257967,182.2593440491073L290.3237012853824,182.38158805029525L290.6907473603351,182.6772055502379L291.1040896290433,183.6415022985193L292.23151746444273,184.48979356244854L293.28111315528076,186.04641118435848L294.8834688259194,187.29667253279786L295.60841885535046,187.51693044403328L296.5219148564611,188.3850847564736L296.9883497135015,188.1966404036575L297.78343585421317,188.35427299843377L298.8191857333077,188.2852752412009L299.80744082303863,188.52351719169565L303.32423219121847,188.62547956499384L304.5489201032069,188.75091698104552L305.38376099549714,189.2734063686703L306.4921882756644,189.2100816580396L307.06849323286224,189.02830499742413L308.74032053793053,188.16771578032876L309.0873565412803,188.32733087461202L309.37695812596576,189.4005832661369L310.6529677173312,190.4448551514588L310.8576398778896,190.86385203741975L312.16657979820593,191.93395442830206L312.5427864029916,192.7730182083651L313.5284095203897,193.60580415855748L314.1530074674847,193.66712638946592L314.5985475169473,194.4140500813437L315.0485795766217,194.73203633882258L316.40516227130865,194.720280631489L317.02181673010637,194.93339544463106L318.4965655302076,196.06669880786467L319.34447036581696,196.23511450096612L320.3054468638984,196.07126053173943L321.08894307425,197.49545946418493L320.89618661631175,197.9901136981989L320.9713451604366,198.77362844082018L321.2446862437173,199.29413614441637L321.2177290204818,200.11664408909292L322.0609799614649,200.04276229656352L323.4007435554704,200.51442848683382L324.0763415660149,200.2617969151661L325.2985217572059,200.504372523872L326.6188447396926,201.0940981658914L328.3349355133214,200.99921412694857L328.61527505004415,201.64581687544705L330.0431483446264,202.10662343622334L331.5522005619896,201.35793131758874L332.25167356491875,201.3907773342562L333.491560717579,201.721644489171L335.1759716293491,201.7380763687488L336.37831368254774,202.2722203521671L337.17393286268634,202.3375058734764L337.78611723509675,201.84268165370668L338.46878984450814,201.81020026056558L339.60648746230436,202.20330702197225L340.81104873326694,203.78108923133095L341.4044794892434,204.33351307837074L342.2959615713371,204.37767477703346L342.4221465351293,204.679297042886L341.8328657719903,205.16443615192566L340.3087432046632,206.9459086467532Z" fill="#FF7B46" stroke = "#222"></path>
    <text x="270" y="238" font-size= "4" font-weight="bold">
      कास्की
    </text>
    </g>
</svg>