<svg  viewBox="260 96 120 120"  version="1.1" xmlns="http://www.w3.org/2000/svg" xmlns:xlink="http://www.w3.org/1999/xlink">
  <g>
  <path id="path-0405" d="M329.95452632837623,103.87860530094531L330.84767877998456,104.28010799248386L332.1359053769338,104.2405018905647L332.72674623945204,104.5332191122352L333.72840843238373,104.51624007964256L334.5586382824331,104.72147867087915L336.7632403336138,104.71055586027705L337.64337824457107,103.50796708289272L338.82983555893225,103.01430736666862L339.49336252725334,103.01346503792138L340.1215984153496,103.75731061273018L340.9794313079183,104.2351630774765L341.05528659428455,104.93396541240145L341.3907327135785,105.61131455086979L342.48780382222685,105.89182865494513L343.3912804151987,106.34356717531864L344.2805458863804,106.96581428362788L344.572283424066,107.8725832095306L345.7874164655368,108.53467827539771L347.3260820184223,109.08551220687514L348.64910057090674,109.31045413002448L349.09099209345004,109.58274953198725L350.2795432492894,109.78817550599615L351.2776229589763,109.62910368384746L352.51913343894194,110.18912204593289L353.17895550034154,111.32150163651932L353.91271027813855,111.38439641822606L354.4518943372823,111.0951073839542L355.34054913482396,110.90693841576467L355.831399167997,110.55159467697558L355.9124408045318,109.92392532516897L357.2406048065968,109.0012666218945L358.1575309617474,109.08187922392426L358.85388720798437,109.97051992980414L360.085912995477,110.84821962010665L361.0286586248985,111.86676897171401L361.94367148213496,112.08152752692877L363.1761584644046,111.54759789969467L364.10358804740827,111.73082133477146L365.33300966962634,110.92564394860801L365.8891931493781,110.98831871388029L367.15387504932005,111.55594187286079L368.6991414734184,111.66813875826665L370.6765311387062,112.30176145287714L372.42053974477676,113.37181147846604L373.3787881842145,113.46745556322367L373.48015373535964,115.2291164109347L372.9726071389741,116.23668213906785L372.0405684661928,116.55613099259244L371.309902223511,117.17216526034099L371.48180811106795,119.03162335795787L372.272139630466,119.11440662503901L372.71071889153245,119.38435515062883L373.56931418663953,119.36764563119777L375.6899967710706,118.69963008893865L376.199691746242,118.8749430178168L377.317757299159,120.1926182638972L378.070103417278,120.72957621963178L378.4832635587736,120.75073649008482L379.7264085997376,121.33379324231191L378.7436048603813,122.54938120160568L378.46238500814434,123.16883959741699L378.9531643806149,125.87492278832633L379.55947365029715,126.45540514513505L380.56881524010896,127.16001546134157L382.1161136201481,127.84172726741508L381.83544643664936,128.61238394995326L381.779480378118,129.39395469560895L382.252177507482,130.37512427815454L381.74636079127595,130.99917615609957L380.7918443313429,131.81642555992948L380.2447405049861,132.68916279111L380.0306319022202,133.50452879008026L381.2222192510999,133.99473444007162L382.33026553758464,134.19087792711434L383.6717061340569,134.5915713245695L384.28114502199605,135.6777858384803L385.0254722328791,136.30334774450967L385.31602524403206,137.3842050859348L385.87533595867353,137.83274066354534L386.7369276254103,137.61587420409887L387.5799174821368,137.85578162732236L388.6241304659525,138.3530006846504L389.3084769147099,138.82730585497302L390.42079606352127,138.78281538280862L390.8306822326376,139.21988610188782L391.2243743883664,140.1892926869068L391.8956761579284,140.49420370242842L392.6182675029195,141.5737024664868L393.17213597669615,141.7324525596032L392.91607517669036,142.23443080575998L392.0382356640948,143.25699027847259L391.4587394893715,144.26454250323695L391.2702373676548,145.7727109407415L392.707778846343,146.88778837756036L393.27505107610705,148.0641076730035L395.33691471225393,150.27325723808917L397.3392264995018,150.79600980699706L398.7511687337101,150.8453320435383L399.70737168404594,151.13584504907067L400.03067134722005,151.97568188084733L399.92822263426206,152.43533882126303L398.7205171462447,153.28809335298138L398.43975905217303,153.97495907492066L398.3928446374157,155.0487663127633L398.08969377902395,156.0299187436949L398.3350824188092,156.60832742161256L400.3147294658411,158.64269205281198L400.4113561026643,158.92617804420388L400.0733301211767,160.65408342541105L399.49765425951773,161.08941717984362L399.9748359342557,162.01134936059952L401.8764848897772,162.43425536860468L402.5692201404672,162.74206260675692L403.1992622923026,163.9070028990227L403.1436655282814,164.59150329204022L403.65479216826134,165.76296637991436L404.34792865145573,166.8032365227864L405.0737128612527,167.12623882749813L405.2384001183891,167.5424437509737L404.82501353859334,168.07431073054795L404.8979047690518,170.53948525001033L404.75248219331115,170.84399346131704L405.01443327823654,172.19517846654162L404.9480789079753,174.1445222780103L406.23508995088923,176.36094817355024L406.73350161919734,177.50666966391236L406.57035027029633,178.83416946434227L407.0221839708356,180.07942801247282L407.1697684322862,180.89772958009507L406.399735437597,182.7171572420948L407.41185549078,183.45048045660042L406.4806349137107,184.57539956452365L407.0316867189904,184.99479197167875L408.59853391119395,185.01566648504559L409.2266631745297,185.61020055193785L409.100892113438,188.12231697207153L409.4403875488679,188.51353482371724L409.3673191898124,189.72717776497666L410.35982314362263,190.7098545458366L411.1177755225217,192.28032063857063L411.02451901437234,193.37271115450403L411.33036608333714,194.21635110162424L411.8715953441715,195.14088190120037L410.90605924577903,196.0575047182192L410.9263736571338,196.54339188979884L410.5794575092914,197.17090245620784L410.6392998535048,197.81620157246834L411.03380672914136,198.677382642858L410.48121406887003,200.63328509281837L411.2963397244239,201.6168708689247L410.42071193831,202.59391813241655L409.7445848782736,203.12733418986863L408.4224716666504,203.6388063891045L406.94841313692086,204.353483012962L404.35011052316986,204.51733366732878L402.9953524209559,204.432108384638L402.7061634433521,203.95482590761367L400.9819861099386,204.48433713884606L399.9012852843007,205.0646386454937L398.03000166839774,205.64308109255126L397.2453675309516,206.0015341680937L395.64847368254414,206.0658473791027L395.20859768761875,206.31409353754952L392.9188616911706,206.6618013368943L391.90733414699935,205.11388741290466L391.8610244813244,204.52871685908667L390.2549531245895,203.94980967101856L388.50442754350297,201.6240507889661L387.55755435454194,199.96871214126168L386.8932455993163,199.5267434482612L385.92415905557937,197.4939069556949L385.0213801506761,197.04472302568138L383.32218154664224,195.87923494900224L381.2726306698023,195.09607816078915L380.0886759985515,195.25632641179072L379.0552982944173,195.1221967548572L378.5285817449003,195.70391535223644L377.50683644148376,196.41438092958833L376.7917897556981,196.75318104928283L375.4590743087065,199.6129434078266L375.31578381707004,200.3208402329492L375.4739050986864,201.43718614784302L375.39868606277014,202.81607927311325L374.9207954874437,204.28973209108608L373.788517775276,205.3002640002942L372.37639925461554,206.83443167794303L371.86642939006197,207.03024445092797L370.88676566778304,207.85151979632155L370.06949072266434,207.81000102738926L365.2583465214666,206.77169667382623L364.54288712371635,207.27109763834142L365.07513835685313,207.88222523232525L365.22093567090633,208.47835641795973L363.91013372527595,208.64422134870165L363.2513412237131,208.47997675020815L361.9651242014079,208.77896236102697L360.71408312352287,208.50274314908074L359.56902978137805,208.68959407943112L358.39720470611064,208.5750439769654L357.7842890394204,208.89738425395808L354.22367810724245,208.72773375078214L353.5796766845997,209.16159793787392L352.63902184574545,209.4478482432387L350.3827461959336,209.5798757610455L349.2033269405729,209.99865670659347L348.33672770588964,210.13344013330698L347.105706177721,209.71838069611658L346.5947097658245,209.83093704767725L345.44215122777314,210.5453705150794L342.53046172482937,210.1140574051342L342.03861974444226,209.16662093666855L340.2029910104393,207.859413168846L340.3087432046632,206.9459086467532L341.8328657719903,205.16443615192566L342.4221465351293,204.679297042886L342.2959615713371,204.37767477703346L341.4044794892434,204.33351307837074L340.81104873326694,203.78108923133095L339.60648746230436,202.20330702197225L338.46878984450814,201.81020026056558L337.78611723509675,201.84268165370668L337.17393286268634,202.3375058734764L336.37831368254774,202.2722203521671L335.1759716293491,201.7380763687488L333.491560717579,201.721644489171L332.25167356491875,201.3907773342562L331.5522005619896,201.35793131758874L330.0431483446264,202.10662343622334L328.61527505004415,201.64581687544705L328.3349355133214,200.99921412694857L326.6188447396926,201.0940981658914L325.2985217572059,200.504372523872L324.0763415660149,200.2617969151661L323.4007435554704,200.51442848683382L322.0609799614649,200.04276229656352L321.2177290204818,200.11664408909292L321.2446862437173,199.29413614441637L320.9713451604366,198.77362844082018L320.89618661631175,197.9901136981989L321.08894307425,197.49545946418493L320.3054468638984,196.07126053173943L319.34447036581696,196.23511450096612L318.4965655302076,196.06669880786467L317.02181673010637,194.93339544463106L316.40516227130865,194.720280631489L315.0485795766217,194.73203633882258L314.5985475169473,194.4140500813437L314.1530074674847,193.66712638946592L313.5284095203897,193.60580415855748L312.5427864029916,192.7730182083651L312.16657979820593,191.93395442830206L310.8576398778896,190.86385203741975L310.6529677173312,190.4448551514588L309.37695812596576,189.4005832661369L309.0873565412803,188.32733087461202L308.74032053793053,188.16771578032876L307.06849323286224,189.02830499742413L306.4921882756644,189.2100816580396L305.38376099549714,189.2734063686703L304.5489201032069,188.75091698104552L303.32423219121847,188.62547956499384L299.80744082303863,188.52351719169565L298.8191857333077,188.2852752412009L297.78343585421317,188.35427299843377L296.9883497135015,188.1966404036575L296.5219148564611,188.3850847564736L295.60841885535046,187.51693044403328L294.8834688259194,187.29667253279786L293.28111315528076,186.04641118435848L292.23151746444273,184.48979356244854L291.1040896290433,183.6415022985193L290.6907473603351,182.6772055502379L290.3237012853824,182.38158805029525L289.1077324257967,182.2593440491073L287.9551026561385,181.61814685480203L287.1260953617384,181.65003623074517L286.05115132392166,181.1547629681254L285.3706888139677,181.02533622318697L284.40396545943804,180.5017348169813L283.61523521882555,180.2741994490898L282.3820349363232,179.32058051476906L281.1817727883099,178.7873573584293L280.33452233627395,177.90195662889346L279.4628637257483,176.80586796145053L278.87782456244895,176.96129378916157L276.8940493350128,177.1317139650082L275.6054257774922,177.39445551275185L274.60427860531854,177.1789402423674L274.0296807090417,177.30336571815405L272.90722211727916,176.86378059303934L271.95585294021294,175.37537083379993L271.2918211123506,174.63979900115464L269.975461052898,173.87806457294846L268.80724280868526,173.6086023486132L267.65126209514347,172.50645766731122L266.71158510043824,172.65149116276098L265.0142675411553,172.65043293947838L264.2665558615008,172.85230950605728L263.0620674420861,173.41526270485792L261.76555331213603,173.49947477286332L260.8998100449098,173.33740186494379L259.46707447509834,172.58045216163464L257.2171506783088,172.39135147288562L255.86709169401,172.54178320262236L255.1342099495705,172.31060770482327L253.47349133075113,172.3262149617749L252.57374837624593,172.13920278385467L249.52614632497352,172.14640908827096L248.5527233553621,171.57240830016872L247.20367627754604,171.06152765887055L246.36867323695333,170.5850705802959L245.73773478234943,170.60764337453475L245.31795164512005,169.15278056897023L244.02493692652206,167.41781553183955L244.010433254276,167.06983248887718L243.02526479850712,165.1597942218823L242.31372826284132,164.2211103556001L242.04079333839036,163.19295450043137L241.19524112482395,161.79008707101457L240.63262816663337,161.06950134559247L239.99887200906232,160.5597535345605L238.8284799988105,160.01631034573256L237.95741965786146,159.11330811211792L237.50715657240653,158.36369608076438L235.65208434657688,156.95631368149043L234.44660873998146,156.4066323772904L233.25396151278255,155.60820680800316L232.37459858791044,154.72411378520974L231.53942952964644,154.10810398400827L229.5897884885744,153.56394485784313L227.88250490630526,152.81686236235328L226.17069676045867,151.60231162526452L226.51549917690136,150.73045442924013L227.11092051873493,150.5676016085681L228.22225890443588,149.7637785983934L228.9951286783471,149.3958644382119L230.2228948494012,148.22195375849424L231.07147413635175,147.21163529831938L231.74216339670238,146.61015936158492L232.16983206942677,146.47765568766226L233.16800742121268,146.6495004836188L233.9579279633872,146.24039607242867L234.3259981441479,145.75144334329525L235.05276488218806,145.46741005723015L235.91844587696687,145.49417845069183L236.21964637860947,145.00103793170092L236.93655020077495,144.7009476824096L237.35582081017128,144.267206253332L239.35241876316286,143.59083126411406L240.69011019213212,143.72017369791047L241.4645897184564,143.63727683881552L242.54917531035244,144.24093911454838L243.96296444933978,144.5826768348643L244.7614310034005,143.69393856869647L245.84236304489605,143.5636677777029L246.00781767220906,142.99621507065967L246.68558252055664,141.91997738711598L247.5056000289551,140.97231320980882L248.0263388305175,140.80509441706545L248.8646163820231,140.12714777077144L250.38311905064984,139.6030923112612L250.47697437909665,138.7161473462529L250.27912536894655,137.8176505112442L251.02081626286235,136.613831368717L251.0034202525203,135.72430354404332L251.46597418178862,133.8354696440192L251.8560693998079,133.22872482568437L253.38636825297363,132.0940831835769L254.12252910147072,131.4088596731499L254.830551154384,131.1376009918149L256.0346498889776,131.16469085231165L256.4907096433126,131.35637388513078L258.0290003193513,131.0074756984195L258.84047384360383,130.64508649580694L260.39172945058453,130.19549324490072L261.0061141302176,129.81771839872727L261.74519772201893,128.96535830335233L261.9277165637468,128.2902142924977L261.75325413119936,127.77125010624877L262.18807541669594,126.56033551347173L262.51551374263,124.92856596927595L262.4805183255412,124.13233603558729L261.65445784448093,123.69732154410576L261.37928246010415,122.80093523205323L262.08055444700585,121.45316722029565L261.59114576135835,120.35365664262372L262.6448581215773,119.06311540762636L264.69585326612287,117.87787313644367L265.9781246405546,117.89191994447538L266.57378998204877,118.0515162674983L267.0103387789386,118.55755343644887L268.0500667255001,120.61033661761485L268.4327902540863,122.01505270895905L268.926935736381,122.29859186517206L269.90403083599085,122.29891835650324L270.6000384191757,122.1223833668555L271.55910344245785,122.21444805031388L272.62963530257184,122.68723228093222L274.44527756451134,122.8720613578198L275.7610822154784,123.35029316801592L276.4000028490191,124.37281348666511L276.9583762730035,124.7669392089183L277.37253691011574,125.80177694212125L279.0540928057235,126.44798626092961L279.592992654314,126.7971048552281L280.58725489319113,125.88945435421283L281.6390031183764,125.90730729163897L282.0946169970448,125.34170679623912L281.99598046432584,124.07359791080125L282.68473224832996,123.5278832145259L283.6541763750247,123.45034542684152L284.8399846887478,123.17610841654005L285.6385329129407,122.6701708471146L286.05520053531654,122.06171734111103L286.5879117139484,121.92729575691737L286.95737084391294,121.08612633625944L287.46745936621664,120.89864683488577L287.5172088098916,120.4439670134334L287.16589981902143,119.03742338652228L287.5160511082031,118.26972185290288L288.1814343734113,117.51392826386291L288.57711284994,116.09800017570615L289.3725073092828,116.0908133162593L290.62590574932983,116.93317543078501L291.3569339269379,116.58283389624376L293.4062985715718,116.3050481145192L294.3660817333075,115.17797572772179L296.0274985178294,114.44544266977937L296.4493916726642,114.43606323948916L296.6760086108552,113.70108684998922L297.43222202186735,113.05547832348657L296.644199788705,111.8378242463732L296.34333208723547,111.14594738921733L296.33213278414405,110.41458423831318L297.4894311723983,109.09041186930699L298.060341189881,108.76640884918106L297.6641618313879,107.43961679649146L298.5765751770123,106.9228191765269L299.03010610103956,105.45613430315007L299.88393537102456,105.5441453601652L301.9647444114926,106.00257952874836L303.5979150538915,106.98218595524304L305.23424954045913,106.4981447375194L305.91523560538553,106.08535798331195L306.31685006957923,105.14955361857119L307.3085313652846,105.16174798908105L308.33915697781777,105.85444518527311L308.53864919113767,106.46107686502546L309.05393278457996,106.8315556872567L309.1791718143322,107.36412680330614L310.99367698200876,107.13867494528677L311.4794812937944,107.73224552152169L312.4983103059458,108.27170968268001L313.3369576865189,109.00028215970269L314.11459878846654,108.81190714911372L314.8386752037877,107.71145662453728L316.38074318256986,106.86080675994799L316.698454395344,106.80973392252054L318.4060308647895,103.67365456636162L320.00729593207143,102.42274954029745L321.5953118055404,102.62977354942814L322.28346533316653,102.61949862940855L323.90982173917655,103.02936739550114L324.7843645020221,103.50628383749245L325.79878545809333,103.47941191251357L326.86873299055515,103.69341056485791L327.95625897770515,104.25010414082226L329.11669196089133,104.41928702687164Z" fill="#FF7B46" stroke = "#222" stroke-width=".25"></path>
            <text x="318" y="160" font-size= "4" font-weight="300">
    धनकुटा
  </text>
    </g>
</svg>