<svg  viewBox="150 -8 200 200"  version="1.1" xmlns="http://www.w3.org/2000/svg" xmlns:xlink="http://www.w3.org/1999/xlink">
  <g>
  <path id="path-0406" d="M329.95452632837623,103.87860530094531L329.11669196089133,104.41928702687164L327.95625897770515,104.25010414082226L326.86873299055515,103.69341056485791L325.79878545809333,103.47941191251357L324.7843645020221,103.50628383749245L323.90982173917655,103.02936739550114L322.28346533316653,102.61949862940855L321.5953118055404,102.62977354942814L320.00729593207143,102.42274954029745L318.4060308647895,103.67365456636162L316.698454395344,106.80973392252054L316.38074318256986,106.86080675994799L314.8386752037877,107.71145662453728L314.11459878846654,108.81190714911372L313.3369576865189,109.00028215970269L312.4983103059458,108.27170968268001L311.4794812937944,107.73224552152169L310.99367698200876,107.13867494528677L309.1791718143322,107.36412680330614L309.05393278457996,106.8315556872567L308.53864919113767,106.46107686502546L308.33915697781777,105.85444518527311L307.3085313652846,105.16174798908105L306.31685006957923,105.14955361857119L305.91523560538553,106.08535798331195L305.23424954045913,106.4981447375194L303.5979150538915,106.98218595524304L301.9647444114926,106.00257952874836L299.88393537102456,105.5441453601652L299.03010610103956,105.45613430315007L298.5765751770123,106.9228191765269L297.6641618313879,107.43961679649146L298.060341189881,108.76640884918106L297.4894311723983,109.09041186930699L296.33213278414405,110.41458423831318L296.34333208723547,111.14594738921733L296.644199788705,111.8378242463732L297.43222202186735,113.05547832348657L296.6760086108552,113.70108684998922L296.4493916726642,114.43606323948916L296.0274985178294,114.44544266977937L294.3660817333075,115.17797572772179L293.4062985715718,116.3050481145192L291.3569339269379,116.58283389624376L290.62590574932983,116.93317543078501L289.3725073092828,116.0908133162593L288.57711284994,116.09800017570615L288.1814343734113,117.51392826386291L287.5160511082031,118.26972185290288L287.16589981902143,119.03742338652228L287.5172088098916,120.4439670134334L287.46745936621664,120.89864683488577L286.95737084391294,121.08612633625944L286.5879117139484,121.92729575691737L286.05520053531654,122.06171734111103L285.6385329129407,122.6701708471146L284.8399846887478,123.17610841654005L283.6541763750247,123.45034542684152L282.68473224832996,123.5278832145259L281.99598046432584,124.07359791080125L282.0946169970448,125.34170679623912L281.6390031183764,125.90730729163897L280.58725489319113,125.88945435421283L279.592992654314,126.7971048552281L279.0540928057235,126.44798626092961L277.37253691011574,125.80177694212125L276.9583762730035,124.7669392089183L276.4000028490191,124.37281348666511L275.7610822154784,123.35029316801592L274.44527756451134,122.8720613578198L272.62963530257184,122.68723228093222L271.55910344245785,122.21444805031388L270.6000384191757,122.1223833668555L269.90403083599085,122.29891835650324L268.926935736381,122.29859186517206L268.4327902540863,122.01505270895905L268.0500667255001,120.61033661761485L267.0103387789386,118.55755343644887L266.57378998204877,118.0515162674983L265.9781246405546,117.89191994447538L264.69585326612287,117.87787313644367L262.6448581215773,119.06311540762636L261.59114576135835,120.35365664262372L262.08055444700585,121.45316722029565L261.37928246010415,122.80093523205323L261.65445784448093,123.69732154410576L262.4805183255412,124.13233603558729L262.51551374263,124.92856596927595L262.18807541669594,126.56033551347173L261.75325413119936,127.77125010624877L261.9277165637468,128.2902142924977L261.74519772201893,128.96535830335233L261.0061141302176,129.81771839872727L260.39172945058453,130.19549324490072L258.84047384360383,130.64508649580694L258.0290003193513,131.0074756984195L256.4907096433126,131.35637388513078L256.0346498889776,131.16469085231165L254.830551154384,131.1376009918149L254.12252910147072,131.4088596731499L253.38636825297363,132.0940831835769L251.8560693998079,133.22872482568437L251.46597418178862,133.8354696440192L251.0034202525203,135.72430354404332L251.02081626286235,136.613831368717L250.27912536894655,137.8176505112442L250.47697437909665,138.7161473462529L250.38311905064984,139.6030923112612L248.8646163820231,140.12714777077144L248.0263388305175,140.80509441706545L247.5056000289551,140.97231320980882L246.68558252055664,141.91997738711598L246.00781767220906,142.99621507065967L245.84236304489605,143.5636677777029L244.7614310034005,143.69393856869647L243.96296444933978,144.5826768348643L242.54917531035244,144.24093911454838L241.4645897184564,143.63727683881552L240.69011019213212,143.72017369791047L239.35241876316286,143.59083126411406L237.35582081017128,144.267206253332L236.93655020077495,144.7009476824096L236.21964637860947,145.00103793170092L235.91844587696687,145.49417845069183L235.05276488218806,145.46741005723015L234.3259981441479,145.75144334329525L233.9579279633872,146.24039607242867L233.16800742121268,146.6495004836188L232.16983206942677,146.47765568766226L231.74216339670238,146.61015936158492L231.07147413635175,147.21163529831938L230.2228948494012,148.22195375849424L228.9951286783471,149.3958644382119L228.22225890443588,149.7637785983934L227.11092051873493,150.5676016085681L226.51549917690136,150.73045442924013L226.17069676045867,151.60231162526452L225.6189276747864,151.68306605739417L223.646811245766,152.53075101162813L220.97340730062933,153.2027988085938L219.94898111190923,152.77292657815087L218.25899970969112,152.6815560348614L216.34837765238262,152.8566387880437L215.5289269456589,152.41743515093913L214.8741704693457,153.53504059310308L213.52968172852707,155.20413870449192L213.7241039458131,156.33621383252012L213.20710060037527,156.87770717448439L212.0102017064637,157.40661470589112L211.61671488399952,157.76506108028207L211.46048288522434,159.79595339162915L212.13111082130126,160.6128504365879L211.17455164901185,161.0587505030826L210.43476835443653,161.08704363285779L209.47859736345345,161.63542101078383L208.6969656459296,162.8461774426014L208.02630569680696,163.4341956478056L207.06983453090288,163.82391809632918L206.42179608799415,164.4081630534365L206.35066181861112,165.84265360429526L206.14228313976855,166.52247700162025L205.38794178164972,167.98473992744675L204.3130102004725,169.6321917745554L203.6552258874217,170.11035004283258L202.10372505689156,170.18627714559807L201.68642592395554,170.4210202628601L201.3619085768405,171.06896886634695L200.99456639552955,173.87148206865368L200.18559992120936,174.8492697332067L199.42977731399878,177.29455159014014L198.7004338225961,177.98478063171478L198.46714130794498,178.4185934719535L198.47550273310117,179.13441957227406L198.00787067403144,179.6256315749979L196.74837977024436,180.1558025528975L196.24823768932765,181.6151205953356L194.68002035429163,182.12509485672035L193.87534287693052,182.1523342542905L191.17034235747633,181.89072283900623L190.16781493524832,181.71696168590643L190.43993005267112,181.07762915612057L191.06237955215693,180.65826334980102L191.0333592612078,180.04868779766366L189.09896619201754,179.93749061801282L186.61432771246473,179.5871829777161L185.63311059432817,179.19475664666243L184.4133717315708,177.65286178281258L183.70496642145372,177.31654953459747L182.94256203206533,177.37129776246184L182.5922116354268,177.09026649323005L181.79533076901862,177.0438004923799L181.42347199085634,176.72156471811468L180.390876814683,176.30315961359338L178.60100624149345,176.17716567393745L176.44237276368222,177.60148289712015L175.3391361385111,176.45637956209157L173.8989212895467,175.24642899014816L174.1829736784057,174.3575798719903L173.60955098459817,173.02747765741424L172.64427554569193,172.07129953219282L172.9903581808212,171.33024619084244L172.48465498884616,170.94097660529405L172.05614259838694,168.91446019192335L172.78716591073317,166.7565878792484L172.69272245491084,165.66840463065364L172.022664405893,164.3520586862096L172.0855798847224,163.41995827212304L171.67950802272026,162.7890879126071L169.35586485890235,161.66750193678763L168.68550598329603,161.6954671060039L167.65935567574343,160.42437163075374L167.42023404570864,158.97424470321857L167.023639400486,157.61419442764236L167.04188991165938,156.62646673204108L166.55518215896882,156.13482356336226L166.25114919143743,155.33103701762957L165.93825959222522,155.08653105187204L165.65602814192607,154.1201975503709L164.5652684042725,152.97438121135565L163.96689857106685,152.7448225920698L164.8080381444015,151.81429994620794L165.87568035109507,151.1216002820056L166.8542813434251,150.65445898130383L166.12927410128395,148.9840109899069L166.0774226951653,148.29196685782608L166.26865565167827,147.35029867246885L167.3524733653394,145.13697157468778L168.3009188863034,143.73593403337145L168.93548986178575,141.85231168014798L169.64091019935222,140.69020336727772L170.91485982080485,139.74551841380708L171.37026237624377,138.99176342261399L171.28046135070326,137.56580177065734L171.04946563845806,136.94832713302276L170.19198878831958,136.40960264730074L170.48556771919175,135.81775800680407L170.75889054550862,134.656547461419L170.1509455571395,133.1641965599947L169.50998121785233,132.41351802216195L168.38411916396217,131.82962677832347L167.328002654358,131.7238083930215L166.33951716035517,131.05426728615566L165.40874112242454,130.6097475763545L164.12731041562802,130.2742610262967L162.79559257772416,130.25587703493147L161.952596991443,129.67765572829012L160.25627837787397,129.06015859383842L159.3665057486869,129.04193133595436L158.93560528585294,128.72501425655446L158.63408178318787,127.88323144588867L158.13751772105388,127.71348814114754L157.52727301731647,127.88142104296458L156.93481646532018,128.5012994958497L155.66013758151894,128.59828512447257L154.3103411566808,128.46825918859304L154.2687711323706,127.15852897610512L154.58239145606785,126.020638608642L154.46913405823216,125.20339168644568L153.9705356718914,124.2953930155636L153.88292677804202,123.3155694058205L152.68889162588312,122.1416512047117L152.59445169366518,120.47128317038823L153.3128664935757,119.20259787623309L153.4111308379397,118.17274345318401L152.82113255278819,117.64260056492094L153.05685942023774,115.59992861601222L153.70539424727758,115.34759509661217L155.11064644950238,115.14976413254499L155.65139691641525,115.20937968944327L156.9345016737061,116.09141668247594L157.85368193689646,115.24995720909283L157.76506675530254,114.46534405446528L157.90843526642493,113.92917430576563L158.84438105204754,112.89035036423684L158.9257251727904,112.50884070847133L158.760651139306,111.26657902489933L158.8050935394931,110.57046361778703L158.152769253742,109.19756894479633L157.71163370257273,108.81958754948573L157.28744949918473,107.86944724675504L157.76897205347996,107.5287947437555L158.34183160809698,106.63288598925556L159.04934027640775,105.93970168435499L161.03762630544952,104.8381485887794L162.2708813761201,103.32977250030035L163.1142532051308,102.6388587864767L163.4450828476365,101.98302294564928L163.9624739419778,101.5319011906613L164.22201319538362,100.3948287128369L165.33340589093496,100.11000261300978L166.30910198436686,99.22623828128962L166.89828146090804,98.89769008871644L167.30755055844202,98.20088591570129L168.403586936005,97.25886263307439L169.1816536138831,96.057375664549L170.8503753676705,94.43473651471504L171.17365308402077,93.45247077157L171.0215784046959,92.35757486570492L171.3623465605233,91.78971872341026L172.05802855338698,91.68503251883249L173.33934273566774,92.14682185145466L173.88779368631367,91.78047100073218L174.57172582829662,90.87269225964701L175.22046407857488,89.6379790035844L176.18624983188056,89.35453646453243L176.8096729004901,88.61480117496558L177.05668374833476,87.88162218546222L176.8200856102194,87.12957119502789L177.7312164441355,86.35681124733219L178.12519832837643,85.50362511346248L178.0073309333202,84.41930472582408L178.52394064374312,83.5148112537563L179.30468572485552,82.56662835335283L180.83911088895547,82.06497288391165L181.8706133162159,82.82651827552672L182.20290693750576,83.35687285845142L183.39339929910784,83.37375851451816L183.61683973245817,82.73292678029338L184.6217810353519,81.81156664273658L184.88752403298713,80.43605879801726L184.6198575639537,79.17521658785245L185.22264002908196,77.2116513278188L184.57975717199224,76.34061172902057L184.08479103639547,75.09973669753344L184.8413806036915,74.70348169212866L185.11066254392426,74.27859573502064L184.5437832024072,73.3660531110545L184.83124935807427,72.38028243855388L184.74317118209365,71.72374002622928L184.1926268486386,70.62778082847035L184.18597699494785,70.09967912218235L185.02142527161413,69.0817859075878L185.70395363591524,67.80161916972156L185.6714003528905,66.55941514519418L185.50918282778002,65.57332458040946L186.0386332577291,64.30326086981313L187.50817974932215,63.83802817202104L188.5612489405612,63.83780412535452L188.62756488284504,62.88377971506998L188.20601901998816,61.667308670744205L188.5707164950618,59.64174688752246L187.80827030223736,59.0605094027369L187.64239381489824,58.57092640120209L186.75484738685554,57.69891029744758L186.01734538658275,57.394846770002005L185.01679803811567,56.672262932284866L184.75087132787667,56.26286298098694L184.81379028119045,55.5324348740769L185.0918835535267,55.2785621094481L186.08921134322736,55.4338744069064L186.52160711424222,54.7555036747508L187.34415789895138,54.25027923433845L188.02855059772628,53.36424670811175L189.82070101936188,53.16363181076031L192.16887422086438,53.93264321375591L193.05130698274297,53.84721959790113L193.50017862663663,53.34957636023228L193.6786285204471,52.721267246142816L193.27840636277324,51.972204554277596L193.20904511632398,51.40888518583051L193.46974250150015,50.274219209310104L194.26505147663192,49.72743386512411L195.05960924462124,49.498062151458726L195.50520032472923,49.10283681061719L196.0595536285473,49.027994207691336L197.25181971735947,49.364402562921896L198.381071880518,49.38736425677507L199.38394899848936,49.2503510629349L199.9284799305642,48.95737864316743L200.13062230611467,47.65937974700955L199.88804193750912,47.09967255289121L199.00007716436085,46.10830523122968L199.2005721579917,44.87786205317752L199.0596294492534,44.144733682300284L199.36331069256994,43.67916230929313L199.20468422692284,43.27313259080529L198.48495116509002,42.44490341374512L196.2366366391143,41.67143445322745L196.04125030712385,40.62266094459301L196.16441239186315,39.8047126032352L195.95700820825368,39.42402444692743L196.81551150028827,38.557046845648074L196.79098099464318,38.170547995769084L196.03454761709145,37.45076794285524L194.8293385248544,36.82115813449036L195.9746084395374,35.655329950877785L196.29803939184058,34.931775267021294L195.00284549738717,34.12492978377122L194.9222115381708,32.86677358522502L195.10278654145077,32.296914705269955L194.91768372007937,31.501192616907247L194.48920352981077,31.143590884180412L194.47360361860774,30.20216401521975L195.47484976776468,30.2162152882147L197.3374522749982,29.428765051099617L199.01985309993688,29.3098928751142L201.20860927299145,28.029673368800104L202.30829791499855,27.044335956375107L204.16891227043016,24.886328606062307L205.1645781217594,22.905675646817144L205.6221413359708,22.535241332265286L206.459149638933,22.303388303688735L207.09692206238105,21.64252720726654L207.63516871865795,20.549745137936043L209.30083957254465,20.915601343944218L210.14894014517995,21.2666162547539L211.587696173312,20.842246996382528L212.23104439985036,20.47152756797368L214.10832650514203,20.653845336212726L214.61457997494654,20.341355418830062L215.9808999151537,20.825572313319753L216.72068001592925,20.667084298501322L217.91495310898972,21.095393665123993L218.443135057787,21.031706691565887L219.54931650447907,21.62109341456744L221.0214825503681,21.44156087034935L221.72440080060187,20.746029638305117L221.81352322386374,20.140552438905615L223.1829605251769,19.79563783554204L223.6049598321115,19.909145004878155L223.8772163854337,20.42822615188834L224.29930588560455,20.594806405053532L226.47702222062435,19.86912849163764L226.85158530906847,19.50502318573217L228.0596880612211,19.25707749941739L228.03231418186988,18.559047278793514L229.15412611915963,17.91503778668448L229.21087292236552,17.536989580299633L228.79103643309645,17.138702880962228L228.49889159752638,15.9000829303086L227.60915689105605,14.066186271199513L227.26594890041451,13.684445664753184L227.41970612552177,12.747546639191569L227.98379304458285,12.17567650615274L228.09543557994402,11.696724727943547L229.32631123260217,11.589801860245643L229.6727554361205,11.148575403251016L230.5917947818598,10.735473371227272L231.31778520810985,9.558659656812779L230.6170772926307,8.644975783145128L231.54521546349497,7.924679533290146L231.75603701256478,6.889610029387768L232.81936619457701,6.720332956994753L234.22225988041828,6.713611965871678L234.9057341251755,7.436512247691098L235.89146609138697,7.821273012330494L237.04980193801748,7.165186672355048L237.988231623076,7.8186854242349L239.32541077489077,7.635872119430132L239.99276120724244,7.964311747593456L240.396976488395,7.849647968231693L241.59735784209624,6.98833907910921L242.05284121128716,5.143474160463484L243.9667657003847,4.560279046382675L245.4845621507302,4.437621280486383L246.20468478718976,3.959744310710448L247.77205558796777,3.5449238515002435L248.88868169055786,2.8083446622649717L249.49801892827236,2.5928194834805254L252.02470468232423,2.9033755138661945L252.68296501237637,1.7807053479746173L253.62757946427882,1.2594216546276584L254.86830127891153,1.8027588603790718L256.0665355327619,1.996598666679347L257.1992448328747,1.8446994758323854L259.0249314404027,2.986195155231144L260.48345964615874,2.6862565867659214L262.25502879269334,3.488578515873087L264.01782952463327,3.321652066401839L264.5912097635446,2.5188179490423863L265.21482849223685,1.9427579589291781L265.73643067557714,1.1667805575161765L266.1716726142622,0.96074972768929L267.01406018781927,0.12356909243408154L267.9107660444788,0L270.520932752941,0.5688197561494235L272.65374062932096,1.6858312350750566L273.5102858104874,2.413303716102746L274.4151374900648,2.591239506959937L275.20163741850047,3.4592312563590895L276.06843983977524,3.8747413754135778L276.48915807768935,4.528842331003034L276.52190731001247,5.140586005762998L276.0829777923718,5.8777934032086705L275.4049926255866,6.290104590674673L274.5362440448189,6.580200658767353L273.79671347828116,6.593655120892436L273.3555396677257,7.26119762381586L273.84599072588753,7.749601922427246L274.89056830458867,7.9715031536952665L276.2114399295715,8.5757104440263L277.30781672586454,8.354295345879109L278.81831580561993,8.733447759506817L280.0035457908889,9.99513663702055L280.8665346567723,9.867646598242573L282.0425337013512,10.062452167014271L282.5633649164738,10.800298019041293L283.26387177175275,9.140523771464359L284.0226116475242,8.597570970500783L285.504524048014,7.8183995571253035L286.2727835653168,7.211708388411353L286.68604636837335,7.186643275053939L288.82507101682495,7.963767008322975L288.83319541343735,8.667739144346342L289.6481121867255,9.651383153356619L290.5279662684916,9.849609771494215L291.40959885195116,9.858597298974928L292.5467578797761,10.838166234488199L292.92343901208005,10.90966708720498L294.7158806277039,10.427584125273825L295.4976319489215,10.06347221926535L296.6519718591262,8.668580822954937L297.71765375367977,8.778126509224421L300.0885120366693,9.711108778660673L300.5680218764246,10.468503043528472L302.05922796370214,10.909878754914644L303.38254602166126,12.012242151666214L304.3228605972181,12.573884021237973L304.2044870745667,12.926028018924626L304.6357475930781,13.40143605598496L305.2064757263797,13.641080301212241L305.17665170513646,14.428131116033L304.2656526607425,15.788602190044003L303.14374615405177,16.165627596233207L303.08970650117044,16.723185579367964L303.5573011310553,17.34123534698665L302.8656922270129,18.318055632271353L303.2748517828659,18.829885877114975L302.97484532945236,19.574354776242217L303.15790546128846,19.965366740098034L303.9120809619235,20.6463926424276L304.7171244366582,20.384935840322214L305.7547391324915,20.758510587604178L306.88423283474185,20.961709288940256L307.7933073577515,21.34862490120031L309.912259173434,22.537321635633816L311.80859089829755,21.624160959408982L312.8130089161932,21.29876963834613L314.23639951333826,21.24093550816451L316.13132738024433,21.394985193363937L317.12170588401204,21.63536545496754L317.3231517782551,21.897801504008385L318.8901361100907,22.171163165060534L319.33422182431605,21.53695264898306L319.8642847366609,21.206875003693312L320.99996043282226,20.835820567215706L322.04614870959267,20.644292162466627L322.5493652269397,20.718479528568423L322.81065860588933,21.15099213286794L324.03911062330735,21.621961002775606L324.4592111324673,22.560321710418975L323.5526058068026,23.78245822401277L323.28010494473347,25.110671414504395L323.4020194141631,25.759058440092303L323.2270272587084,26.215062075201786L323.6069580332769,26.844550793584858L323.73400394744385,27.833939456177177L322.94935435684965,28.11265627558896L321.8840323879631,28.897124230462396L321.02028647840416,29.77411411425146L320.34441468389923,29.676668221872205L319.3310548471309,29.280128925911413L318.45542821458,29.53148623244033L318.33681773251374,29.917898300070192L317.2843344986868,30.969008956609287L316.3197950535614,31.17473638796946L315.2022462114692,32.55180275059229L315.9088362364382,33.44699344483888L315.6366011343125,33.98335840018808L314.8324719791308,34.64988195456863L315.49708264875517,36.075284438300514L315.9600243299319,36.50317431368694L315.9325178506624,37.31274376782494L316.48976372624384,37.76864666593701L316.01337266979317,39.15670965151821L315.7008549363054,39.671032023884436L316.16949701199337,41.38197481045336L316.85473721535527,42.003719850425114L317.47357758250655,43.07576291926944L317.6180235197062,44.40027096819904L317.33389545252066,45.15856875433383L317.6987444237275,46.234596729133955L317.59815549298946,46.841396346412694L317.80904297756206,47.57728655801202L318.15940847752427,47.858703618800064L320.2817075066596,48.5650041793815L322.14781014788605,48.94885961031014L323.9371612027571,49.110189471442936L323.7759116755333,51.89424995709487L324.0544719691643,52.685514585636156L324.20374532129426,54.01435999242767L323.35108241282796,55.019999708939395L322.84830024042094,55.124891315570494L322.65869525740345,55.72245323425432L322.80099264717865,56.57782962220699L321.59861365558027,58.5486538198702L320.50027572310864,59.489697671988324L320.91511325852116,60.193752727646824L320.5551597646445,60.98890439105344L320.63330708815556,62.635060727919154L321.1162164690868,63.29789505129702L321.0501709131313,65.09076600795197L321.3177009249266,66.1629336347878L321.34397462879133,67.5237764603853L322.9502276907624,67.6134836391775L324.1682872047386,66.86088972319249L325.60579323058846,66.29314954076744L325.9413812528437,65.92585096998664L328.7514191336668,65.95340500055408L329.46017713729816,66.09235231333423L330.8085462859235,66.86243317259232L331.5421360052824,67.57680668350531L332.47487572062164,68.13926583796547L333.3071779595193,68.00724569482009L334.22945992260793,68.51933531780924L334.95665715722134,69.68415452742465L335.62267343536223,70.11753722148842L335.0210036497083,71.22415012908095L334.8837252273115,71.74346075403173L335.86724388553193,72.80743254655499L336.2135926190276,73.49813505985912L336.01465517001634,74.59637882402603L335.219668155798,75.63399829146238L334.2106567314586,76.52005159221335L333.9821033020671,76.9700255041289L333.50913456557464,78.66455518740804L333.18435041679186,79.30255175320417L333.5578172191272,80.51981105364848L332.99533996030004,81.3702523919028L333.1196355152497,82.24496902900319L333.06762298557805,83.15208490126315L333.733060955823,84.35644638444228L333.07539422171976,85.46996731814488L333.1451421687052,86.03952556310287L332.260912500853,86.16290151863268L332.03583875277764,86.81020994070968L332.1875729623607,87.18525458755812L331.45733880180705,87.85957547018734L331.10537929928614,88.80264264241487L331.2009173035731,89.60331289349142L331.05433315479604,90.48240091474963L330.5143872538101,92.0085029585025L329.98385898989,92.84030212682137L329.71178243137183,94.60280035789492L329.759247627906,95.76424382580353L329.5868883219955,96.41648294500828L329.1625537208165,96.88333405497451L329.2926668861837,97.52214043594358L328.664233326439,98.73341470982268L328.76505982248636,99.57108607804003L329.21773487139944,100.57556161269804L329.8491552129053,101.60876184551398L329.6724901775233,103.07492258357252Z" fill="#e1b03d" stroke = "#222" stroke-width=".5"></path>
    <text x="238" y="95" font-size= "5" font-weight="500">
    मुस्ताङ
  </text>
    </g>
</svg>