<svg  viewBox="230 339 120 120"  version="1.1" xmlns="http://www.w3.org/2000/svg" xmlns:xlink="http://www.w3.org/1999/xlink">
  <g>
  <path id="path-0408" d="M251.434920583255,450L250.74649824128937,449.1933952797863L249.8998481384806,448.63737932872573L249.57849773486305,447.9200713836117L249.42659048978385,446.9929485560933L249.42697102325474,445.8828079123832L250.06701665297078,444.32059233216023L248.62549055088675,443.7651052299225L249.1372422131135,442.70602499817596L249.30044733258183,441.7180260870655L248.95511500213615,439.73025906138173L248.19984830979956,439.48366458630517L247.88087950842964,439.0307720139208L247.27837929197995,438.7894337017551L246.7159765110846,438.1967838588662L246.49116157491153,437.66390129969204L247.80853560581818,436.99130924465135L248.60626208352915,436.1250589353949L249.25147854735405,436.26503321216205L250.19987916107857,435.50058974520016L251.83764548797626,435.15289363878946L251.17687991845378,434.3344650476474L250.56118510245506,433.829216443125L249.3738722258895,433.1914347616839L247.93748439511182,433.37925452502986L246.89631728269887,432.938805468013L246.71063121630868,432.6879840053989L246.9157318572761,431.4071388095881L247.33699760706804,430.3722422991423L248.1025482101577,430.1131035302624L248.38907540523724,429.6645244626934L248.23363307320324,428.73847145470245L247.45838516561707,427.5126448368237L246.6873825472685,426.92876176220307L245.81961295640212,425.6778484582719L245.2930694523966,425.2632523833199L243.46496675484377,424.4836393932537L242.60996155392786,424.3284430650974L241.5324942592124,423.1701025466773L241.09209749287766,421.80357433638255L240.77144707115804,421.1850303919382L239.90194214312942,420.86259353084006L239.12690339819528,421.2951671377441L238.61463714826095,421.8416966107643L238.51489174676317,422.36253734197635L238.82686881034897,423.0405861659747L238.6747051032762,423.50358652464183L237.47321789026682,424.2209168121117L237.59093678299905,422.96156664643877L236.48331726258766,420.9990032478181L236.61676732767955,420.60950075174605L236.2846681017254,420.15995050380843L236.240647439874,419.60012042382095L238.11971428701509,418.11506780672244L238.47701618923384,417.5831721150598L237.32254922094944,414.8274823914371L236.5955729688976,414.30062300426016L236.12038817133362,414.45566079661694L235.32336167551694,413.8147093499083L234.36165902873108,413.3311233433333L233.50766493917035,413.2249597376449L232.72267670608198,413.7670963190949L232.06351978764724,413.9884004122159L230.66719064980862,414.1270381870281L230.61937273467993,413.85038370792336L231.0925980582433,412.9610998344324L230.74322128224594,412.3378775389774L230.2002846535397,412.1745364638018L228.99176173099113,412.3558914366795L228.40272707480108,411.7620091978097L227.79407842642104,411.55802876560756L227.52402207900013,411.1165284284334L226.47989103638974,410.23805089704L226.321161285141,409.8607478139602L227.36780227983036,409.13036316105354L228.22382809952978,409.0690483112594L228.71419953344957,408.4655543343888L228.06763682259407,407.00564259548537L228.43508287684745,406.4500694512799L229.94795460514433,406.49456429444854L229.90338346516,405.8896969744401L229.4699396939759,405.4194567349914L229.39904947195828,404.8720150275267L228.97018137200212,404.44736155544797L229.3396895801343,403.7534087621998L229.84018615125387,403.6904950063454L231.03028255518439,403.0683639220588L231.18032492488055,401.94679871797416L230.77546228249048,401.65936570591657L230.3745713541539,400.08003919278417L231.09029108901814,399.9369405485231L231.26066145617733,399.29046387959806L231.68877086609064,398.856588472725L231.09774726300384,398.33023226438127L231.5400324355469,396.61783170354465L230.20987024618444,396.4989899875418L228.65560641291813,395.87052697860963L227.28036301189786,395.6693058299152L225.53561663178334,395.66013713649227L224.94517987260406,395.535030998346L222.892483048141,395.7056143311529L221.1945085321422,395.6193972387391L219.96736514011718,396.88815140582847L219.21087936214462,396.56929265254803L218.8092090651553,395.41645311251614L218.1759543295193,395.5226682958264L215.60019513344741,395.5584151477269L214.6421578248046,394.8769890595713L212.86172116179296,394.97528909942685L212.40432137143216,394.6334913805258L211.3786534509527,394.56737648498256L210.94086004684505,394.2196668305569L209.816608290781,394.82897766898805L209.45777902565897,395.48289886536804L208.7347799543095,396.36761110826137L207.23294108178743,396.9386489800554L206.88178713610978,397.3877191045767L206.35733193124906,397.4413643393709L205.6745251317734,396.66737925142843L203.83413888074574,396.67566494559196L204.06064779689405,396.4461680930772L204.43632345171864,395.13148322861707L204.682036115988,394.81078289307607L204.87317990207885,393.81128692767925L204.8057218494323,393.3196664598672L205.1047835931895,392.7848897900394L206.01585579992388,391.9291696330638L205.17784839397063,390.45299573383363L203.71349266126708,389.050075832547L203.03662109035213,388.7598395653022L202.52327812796648,388.10619859937833L202.57176726514444,386.12992363658486L200.86425184125255,383.3505355442121L199.50454685013028,383.25179174670393L199.86660506403496,382.90182717606876L200.67156239051474,382.70101959899057L202.96786622910804,383.21277886713324L203.62402285155622,383.80284269876665L205.2842242522238,383.851776781994L206.48568341845748,384.0331407869353L207.17760804683348,383.887428322314L207.52350107583334,384.08726828432646L208.57670502482506,384.0416510932919L209.4107335863082,384.81753528324407L209.95004266870092,384.7949939643604L210.48396937745565,385.28997933671144L211.96435790459145,385.3985994154118L212.63655445199402,384.303823196301L214.32580450762907,384.0994969325711L214.82453056428858,383.8904944569849L215.69887214148548,383.12575531002494L216.4150829332757,383.0289859606555L217.10979631804003,382.6861167583693L218.3534390798559,382.87857589248324L219.05911092505266,382.3673516529325L219.93501456713784,382.5310145534213L221.13422475922198,382.37828325493683L222.38384291839975,382.00565329388337L223.38782352164344,381.9938296606233L224.52280556067126,381.7195938626328L225.54444852575398,381.80328079972423L226.07001157972627,382.2245016270517L226.90184702303304,382.4758478978347L227.8987714759205,382.41751646836474L229.06459764125975,382.6062040191382L229.83076052054093,383.32640149906183L230.93211395504477,383.7983994180395L231.32047770296776,384.2724725635362L232.45576564236035,384.4661365221418L233.72982208324902,385.13481319450966L234.73399568665263,384.3216184239627L236.1222494814574,384.44644528239496L236.71066211638754,384.34759832969576L237.95006719488083,385.0856583020477L238.90651771936973,385.1022508443184L239.72307026394628,385.4172020585502L240.33571605858742,384.91351005213255L239.35989374274868,383.9380207327831L239.21483015779086,381.2401875443211L238.68157752327534,380.273886170854L238.98304535085845,379.7313704820381L239.49185352382847,379.3387728537382L241.01334703262182,379.76666311819463L242.95932050357078,379.4852409185314L244.58470748997206,379.60161237583725L245.14501626726997,379.43108062063857L246.7121077146403,379.757294769508L246.80839194919463,379.2306015240465L247.4787685436895,379.305618905908L247.86864634415542,379.71980093389266L248.58145039886585,379.3427374371695L248.81963201842882,379.7973094907811L249.50948403479197,380.01339473747066L249.81974929201533,380.49364816460184L250.85233289113967,380.23649596579435L251.52927885744066,380.5303864000998L252.13840549002634,380.09607721835437L252.97059983745567,380.4682009106227L253.45429137607425,380.1010336607078L253.52409989428634,379.1963078773224L254.3058494335237,379.4145750710377L254.0324880781336,380.164466282592L255.06323817623706,380.3541656578336L255.61199309258518,380.2862453081243L256.2886928173539,380.91755815842953L257.009965345871,380.64953734411574L257.5958525791648,381.3152531761989L258.23753086619763,381.2993351835694L258.4300572651191,380.3875665601872L259.2059050892931,379.55270324949925L259.95450234446616,379.0015805166122L260.6246198624867,378.72559868567623L263.1801943850114,377.1671425668601L263.76200841290483,376.8725058021291L264.8481376568816,376.58842248279325L266.02950888733176,376.4298239335776L266.7051150240295,376.55565643662976L266.8726980608917,376.19256381821924L267.8786747416234,376.4791856118418L268.5485586153736,376.40930246057815L268.68022604404905,376.0333320765503L269.38219071851927,375.8406656812558L269.6387156669589,376.26212799641235L270.73631914745783,376.3734717059051L271.26088772798903,376.03015922138457L271.8292937153601,375.97162599744206L272.9114084620851,376.25197837760516L273.3361969391408,376.156475888507L274.9137847875754,375.4345497266104L274.44130579441116,374.93583531653076L274.6919295032458,373.55705730396585L274.8726626925709,371.8758390951043L276.07020481231666,369.9216493339645L276.28659025499655,368.4753013192076L276.10870476795753,367.5899190426517L276.3631678002639,366.58440632277507L277.47728467399065,364.9445127163817L279.2010919688473,363.6173451185623L279.4652912859892,363.0081654822179L279.6255790615178,361.7372286550817L279.84420848692025,361.12751494083477L281.08419090192183,360.20206517702536L280.96650029366356,359.79019629809954L281.53197348752656,359.3832339477076L282.1382452873295,359.5715877889561L282.4018905611156,358.7291565923924L282.33077643997603,358.143540319822L282.55882602937345,357.6973984727929L282.273408109515,357.1074480168263L282.5881304332288,356.85975353621234L282.25166160882145,356.2660459957042L282.2071914848857,355.52973609692526L281.68311491200075,355.1714218948746L281.0767092956303,354.1963877420385L281.5650596951855,353.5631413254041L281.6009674597626,352.3887126319314L282.73131155411465,351.146934507834L283.04289215932295,350.49703945528745L283.7995949435208,350.50417285325784L284.28759499561056,350.19432687212066L285.11137458596204,350.1580706615514L285.812709157879,350.426396900908L286.027019136367,350.74661521157395L285.46387430332834,351.73800659867356L285.7291591272369,351.96761492536916L286.46522801354877,351.8369780982448L286.45842262067526,350.92586619812573L287.056588416086,350.5495915774409L287.9662223917694,350.6228377317584L288.50682210292507,351.30088275281196L288.4768495669596,352.154599701802L289.01143727732415,352.2390065863219L290.44481221488604,351.4292958004253L292.2923848675455,350.5061537188594L292.7642482569245,349.8827113272155L292.8073341042218,348.91638642296675L293.69121397476556,348.299072260038L294.42004797169284,348.87111696489046L295.0168356702525,348.6590825812018L294.6536534446677,347.7005917698916L294.813498650954,347.36872238515843L296.06587181527357,347.37427351503356L297.8979360063495,347.9170689588882L299.25541484110727,348.1180222367839L300.11381774707843,348.09289134135634L300.39192424297653,348.4877645644983L299.08644182319404,349.57868862511623L299.00648012089005,350.0231944872876L299.9601806315877,350.70383312549893L300.6581557656973,350.8373594874611L301.31045452522085,350.0725937197949L301.6614249782142,349.35588497820845L302.2076385680193,349.2190272253092L302.6507223616718,349.6988031435849L303.34131928243005,351.56825231063885L304.01995780255675,351.8262254729252L304.73423574109256,351.6327122064795L305.07619318423167,351.0752974800125L304.74030526162096,349.8094185866994L305.458726997942,349.60036786105684L306.3759243435088,349.8328631080303L306.9663570620178,350.508560515721L307.07336801427664,350.89906960718235L306.7833680057556,351.4838594494986L305.49367689257633,351.91759961369917L304.96978167323687,352.50113043932834L305.70907047632136,352.9769360697419L306.2857388647026,353.12438244540135L306.9648905464528,353.02526667113307L308.5809355672209,352.4235082690775L310.6197829703997,351.9386589675187L311.8494289462724,352.6210310414035L312.99203306331765,352.4748061282162L313.4965443693982,352.6400192093579L312.9731047919522,353.75270735939193L313.38779403938315,354.4825056437667L314.299875456054,354.3821978799351L314.9727377587842,353.9502196735866L314.8650738862343,352.8191221182142L315.5751669074816,352.82154745454227L316.5371768807963,353.0570719950456L317.13070639535,352.5687242100512L317.3555365433567,351.55331904635204L317.6343760593845,351.4496342560333L319.3331739157511,351.86421202926886L321.26311411684947,352.7800628901132L322.15008032530386,352.77162721681L323.1257712014303,352.28716534156774L323.8189629277331,351.6097844120368L324.6679917805741,351.50377363766347L325.4400920276057,351.9972104931776L325.5847189855049,352.7632267208728L325.23147460147084,353.39923408484447L325.2652037466687,354.0326212109403L325.9892567126408,354.68312449906443L326.6048017871799,354.34728197425375L326.2368123853339,353.6688923101792L326.3138177633482,353.1997734678944L327.31517694035574,352.8039447516203L327.97487364108383,352.8596816131767L328.63328755664406,353.3985880573955L329.4278366631588,354.94699699956254L330.0846542872314,355.12450670682847L330.6410864244681,354.1880305047471L330.2828886880088,353.6838776274253L330.38540906021444,353.04750280263033L331.1596791323136,352.8423282416825L332.01974131625684,353.34840422720026L332.6920448219025,353.2138764989686L333.2170139014379,352.86084935887084L334.243112269196,352.8932301178602L334.69427140592234,353.1149629944566L335.3629435622461,354.14685730752626L336.0289474683959,354.6837881152096L336.85279052062106,354.84779280651674L337.707227892417,354.8252612326896L338.3635325925352,354.59375214016745L339.45188252617663,354.6987827021885L339.67042543430216,355.00327079122326L339.4206231643657,355.83078845136515L339.8580013330102,356.18555378078327L340.30560517962294,356.1269036159247L340.56525829850216,355.47209252745597L341.04345694005315,355.24513153466796L343.4698005414066,354.8869506738574L344.2223331447858,355.07351950178327L345.5098606127067,354.89871322212L346.19636721472125,355.6895423229289L346.6948871985769,357.10205708655394L347.61084549298903,358.5326427922646L348.9290823199117,359.50993875421955L348.64911998065145,359.9238486330014L347.7838313443208,360.27481647147215L348.05855106868694,361.4251622219863L347.854891511015,361.8987837662453L347.2340263363112,362.1087243839893L347.091516437471,362.50899614328046L347.2389994166042,363.4912269182514L347.49855960068453,364.1733760437601L347.5900266762146,365.72446963639413L348.1601496990188,366.1144962276021L348.7860561695634,366.22688670120533L350.8631235356115,367.37754643346034L351.9024153145183,369.8976980685111L351.73478093771337,370.6818708048413L351.2571182755237,371.7297211401201L351.2520974205945,372.4777962016806L351.52672943921425,372.93478907553435L352.62487555426196,373.43122123562443L352.90446639208676,373.7799137169213L353.5431897809758,376.0997062862334L354.3296920666071,376.2957071624296L355.14350077716153,376.0198565335122L355.6734087103832,376.0490069175603L356.8268507815483,377.1570649665455L357.41147424445444,376.97778355637L357.70585739944727,375.6984369635629L358.4554712327772,375.4890144988158L358.9472866021897,375.83988726334974L359.78414242505096,376.06348572839397L360.64119623173974,375.3910486438908L362.0031784814819,374.94142804123567L362.3331768110329,374.2708855427509L362.32244914264083,373.3205886792057L362.90662956097003,372.4957392692877L362.8603787020875,371.8579851592958L363.30227834976176,371.0021972621498L363.34264104164686,370.56312844107197L363.76933384980657,369.85154275896L364.87341186583217,369.10426774461575L365.7307715729803,368.8883372307537L366.83156763650913,368.9390762928233L367.24798604131865,369.2115807942819L368.38119447585996,369.38419609496214L369.4614543299758,369.728301020823L370.9846983877469,370.7719467109491L372.3250099582474,372.6291760240738L372.81921715034696,372.9877728333777L374.29459409224364,373.52840463201574L375.4148040172913,373.6079154461331L375.79039220408595,373.95761642430534L376.0854247141215,374.7532643479035L375.46431543706785,375.40402599946447L375.67600375156326,376.08785460615945L376.8594915656686,376.2968463859452L377.06437353659567,376.8144443826395L376.3922409263505,377.34168121340645L376.92309009159726,379.17734038797516L377.45156573582426,380.40432904711815L377.85522688122,382.2900182697831L378.6416657050031,384.5480016047959L378.78706632712056,385.38450018730873L378.62221191243225,386.2849350459446L377.9776167568343,386.7907669290744L375.96549582756415,387.5798999107292L375.42658914563435,387.6860544844212L373.28202213208715,388.5264356490652L370.0261015689757,390.27007346699884L368.2337069807363,391.1187671842072L366.6957666304879,392.0583485012703L366.1316979164221,392.12383353193945L364.89488336522845,391.7488493023493L364.1262000757051,391.30490580256355L363.0609904268458,390.3925472453466L362.7576774517147,389.9782896336201L362.4477829828902,388.7301011488644L361.92447413208356,388.14902228028313L360.56104271775257,387.3995567622669L359.13352433514956,386.9272227569272L357.8133209036605,387.1936784164518L356.44575923955927,387.9276929925236L354.67962003381035,388.50045907091135L353.75498006225826,388.9943228084294L353.2848524854453,389.5230568160923L353.22563544216973,390.4485339136818L352.47302012446016,391.38204262033287L349.8603047359211,392.93613365668443L348.93648073649456,393.3920605139683L346.8529842327225,394.6826341510405L345.7515751799692,395.2031635150979L344.4425146523281,395.6213966438063L341.77647442816306,396.34050267481234L340.4884425929704,396.5814388241952L339.5595749208769,397.36957448018075L338.41273502201875,398.1777068009551L337.7092417962449,399.21838618404854L337.15644742575387,399.31816866434565L335.86153461390495,398.57360373276424L333.5542732656613,399.1277657419605L332.1124719245345,399.73558225564284L331.0689804918693,400.4840891906033L329.7923886666322,400.8734754587922L328.11625382380953,401.08851203988525L326.69048099878637,401.78187180941495L325.20184575779786,402.3218062406777L324.04495345322357,403.2972092803893L322.60295126839264,404.27815703251326L321.61634138757654,404.6838187713338L320.01358437649105,405.804099051099L317.76333197918575,407.2336042414827L316.1857629078622,408.9670705735489L315.3020498921105,409.7897408887229L314.23971028790766,410.59078639776635L311.8588236779942,412.06989095128574L309.9295333072623,414.09662427028707L308.41042805590405,415.11567361819925L306.94849409418384,416.95213545454317L306.25391761591163,418.25788336831283L306.123633037736,419.50515771705614L304.7339084490304,420.95032063514554L304.6388782397662,421.8141988495272L303.52493677747407,422.5415399478561L302.26827767977375,422.91164522030795L301.76359119995686,422.91661402227874L300.19059898826526,422.4086322795765L297.714945999287,422.2149438393926L296.09881588733697,421.5103258888721L294.7254844233212,421.1271588826821L294.00531950622826,421.0629411877035L293.1041775351878,421.56980153324184L292.18865824472596,422.90578058413666L291.5726180726233,423.0047024075584L290.499144121226,422.52959961129545L289.9920294528638,422.1577383230915L288.73927765655753,421.77702018402397L288.08585084467995,421.82988034572463L287.13189078213327,422.35456634258844L286.5161158663468,423.134141065364L286.1915210643965,424.44258693994743L285.49432696271106,425.57556862315323L284.9320325661138,426.00659442626784L283.6691050056543,426.36398474725047L282.29258785147977,426.39105443808603L280.91756597272615,426.153262859385L279.6733691675254,425.7423019366488L278.18513585163964,424.75863554510306L277.5810771355864,424.56768190692947L275.7669182202226,424.4180405115667L275.29641462597647,424.7017432974699L274.36085137141345,424.8873426088976L273.0542767896841,424.82308902347995L271.8405896882359,424.46122000669675L271.10615559838334,423.8751678200988L270.2338407599964,423.4243036502985L268.9378091655126,423.19665622365756L267.3053436863047,423.44373153523793L266.21879778080256,423.7052221957638L265.53801700702024,424.85631023611677L264.6856242003705,425.398789559129L263.89113950643514,425.6709705715384L263.2341902049775,425.60473160452784L261.860056792244,425.20575974367966L260.1787195032339,424.4353544274136L258.3024799174782,424.6106144474552L257.2449529562691,425.4322620046514L256.9527942938621,427.35771115042826L257.25743568966936,428.9363856939717L257.7496817440333,429.2873775385897L257.5910841455334,430.4270797611953L257.7220401834238,430.9139610305856L258.5862663684311,431.7072092878734L259.64689083872145,432.1083395648993L260.90153484419716,432.0020854013055L262.4565644980721,431.46884964238325L263.45079051478024,430.8565399341687L263.819085817031,430.42897791246196L264.5968669698923,428.9190313717336L265.3951099367696,428.6586592561571L265.9285990677199,428.7727149498842L267.91263515414903,429.69297747939254L268.6302466228153,430.6189777213358L268.9848248942435,431.39222527316633L268.8260858733047,432.8997859332685L268.3039621192038,433.73223935717033L267.1896812429586,434.5798677708426L266.225190077359,435.1212644393863L262.2708463441995,436.66937342323126L261.7020781251231,437.2209242265335L261.6530316169701,437.97069350577476L262.0246340663616,438.87524981981187L262.3222014853927,440.243221252651L262.86701558680215,441.5006010108136L263.06527922283203,442.3827303323769L263.09221129410435,443.33893913140673L262.6950225450928,444.35914481617965L261.84506886045347,445.8750786384526L260.8136724971773,446.8907485830932L260.4079995871507,446.9595878224618L256.43237711706024,448.85969144334285L254.5765986323022,449.48563499272586Z" fill="#e1b03d" stroke = "#222" stroke-width=".25"></path>
            <text x="280" y="400" font-size= "3.2" font-weight="300">
    नवलपरासी
  </text>
    </g>
</svg>