<svg  viewBox="148 213 110 110"  version="1.1" xmlns="http://www.w3.org/2000/svg" xmlns:xlink="http://www.w3.org/1999/xlink">
  <g>
    <path id="path-0409" d="M205.10125611093463,221.64670258801198L205.4945895797864,222.570270336274L206.0007984674994,222.98633654676178L206.3055644035594,224.05384035129646L206.62388131119587,224.5958114197174L207.72353153198492,225.37206200253604L208.55980587182057,226.30707550343777L209.18862645554327,226.59747551002692L209.31429228282286,226.95113117878827L210.02643411641475,226.9378707489759L210.2260849747763,227.3267588616518L209.66847306597992,227.90755647254173L209.37494630649962,228.90981593053948L209.6993514636015,229.36762447468936L209.86688261183735,230.17322563625385L210.46138587980022,230.91521579114942L210.98104617647186,231.03374245500254L211.52372391349854,231.65467374328364L211.1211128783616,233.35048040267975L212.07414402243012,234.01886388507046L212.5805985084953,234.07363761802117L213.7679986079129,234.66439085861293L214.25026757403612,235.26669622196368L214.30029989773175,236.3707149412876L215.34133750278852,237.84067541214154L216.01971604309074,238.5086174222415L216.80528711915758,238.97690594086362L218.22000131847744,239.5121762855406L218.88585676019284,240.08797946367667L219.15132933810673,240.8237508113898L219.6121333332303,241.32430699151337L221.1233115447867,242.20059277241035L222.02177544614824,242.29184188565068L222.6525037918218,242.91817872345655L221.35069497522272,244.20838236705004L221.14097892485734,244.87204497917446L220.56978627867647,245.20656444146334L220.33866519548974,245.79733906347155L219.814365776645,246.20042363378252L219.64953501993296,246.79055854004673L220.71490276394252,247.50565604604253L222.4897554474046,248.29790912738645L222.56316179367423,249.13697774778757L221.88518050851417,249.8212647014061L220.77042446650375,250.601232492304L220.82184581342517,251.3320161810925L221.61176677143158,251.68621151223851L222.06168239519684,252.13963632074046L223.11363368551247,252.64946736354887L223.4024178365762,252.18783206204898L224.1593018950407,252.37857505663396L224.49609331210013,252.76091057820759L225.17080807487218,252.9121284556013L225.87455092493838,253.30839145626396L226.3683190640986,253.27545282212486L227.06374676221458,253.8122342850129L227.7715662580449,253.7907893799902L229.43094592229681,254.40395017058927L230.42054299297524,254.13870317909823L231.672489666802,254.41098686628357L231.9812874980853,254.27542508891747L233.6305008065574,254.53919146576482L233.9895375305896,255.4342403503788L234.1390743004995,256.64486451227003L232.62673886868288,258.1649363172801L232.19944021285482,258.2454065906877L231.18931058872477,259.010934848573L230.13673524605474,260.04037382745355L229.52510564019394,260.82736003280115L228.33900274102416,262.05385348594336L230.00494305241227,263.2027367108449L230.93357449527684,264.08568595532324L230.33423087164192,264.2189645970402L229.57946585155878,263.77121855119367L229.46316560754713,264.60951770314114L228.89360135490278,266.21262375050264L228.28475988622813,266.7781672697647L226.802642381248,267.85930445140184L225.7204229266681,268.2802964550892L225.55828326155824,269.0114250706092L224.9245230974775,269.07196442800796L224.8444423163819,269.5059088715125L224.1685710913407,269.46676401281366L223.3128017950694,268.92815784862796L222.68240301668266,269.22572159865103L221.88117192070786,269.29729994438367L220.86520956574532,270.3103544444066L220.2060867431719,270.7270769894776L218.324224234766,271.1545275571434L218.6483220615337,272.6296831451118L218.62915584645816,273.1230573229341L219.56397816875688,274.63306599447515L219.64137316849883,275.11608552962116L220.65219934254856,275.81735499799834L219.80892692317502,277.1100622156546L219.30977317227007,277.4680795621907L220.27722513486515,278.8155707347187L220.0991128835558,280.0524468656731L219.60624381135494,280.5016079518673L219.0861169515847,281.6280798082953L218.24237486893253,281.6606820003044L217.70402437286612,281.300749166433L216.32279439979902,281.0313934684782L215.94385917247928,281.1682931286896L214.61602774152198,280.943944088639L213.00640812082565,281.18941479823116L212.27201549997335,281.1865589600784L211.41125016099977,281.9282740406097L210.4118828958235,283.1561312239255L210.05626776045392,283.31342499679704L209.3646237957255,284.1352894550928L207.7988263358202,284.6383269402777L207.09592078538117,285.3149347941344L206.8302352662613,285.8747989436688L207.03275413709707,286.33553571246193L206.4720448920707,288.08594827752313L206.8458089738815,288.6160355890115L208.56001563447353,289.40552714359364L209.49564653062407,290.48144415757906L210.61268566201034,291.0197049180615L211.8826456892275,291.87303051982235L212.0180423060956,292.3274850871876L211.26380644701203,292.3686714856276L210.39210848261064,293.0841546741676L209.8085292270298,294.2693748695601L209.14153851248557,294.9233447988172L207.75853519763405,295.13427663386665L207.37900038381122,294.9849406765161L205.81663786538775,294.9110506867328L207.18371499641216,296.0883989465119L207.47127023056964,296.60849086213784L207.048241354918,297.0566111184389L207.09312324783605,298.3708582273557L207.5260307655626,298.76997741847026L207.9011261552114,301.365150016376L206.88896118376215,302.12822735294867L206.36179252471993,303.1959519927723L205.732551864563,303.4782903832529L205.48366210678068,303.86492755635845L204.79037083727962,303.9833387005956L203.9987008884964,303.8290327774066L203.52610414972878,304.15505430088615L203.14930496037778,304.931312488241L203.5243313851497,305.45223495610117L203.51661129603235,306.4319719330433L202.22311102384265,307.2725019300733L202.62875041697407,307.8083670264641L202.84820778414723,308.57363930220254L203.5848676639289,308.2910022453725L204.44721134492283,308.53147489871026L203.3747104837239,309.99512485788273L202.3633532465101,309.4863623512865L202.03541055271126,310.4727289613829L201.53419650509386,311.06747373296L200.67012524167149,311.3713983837861L199.97072304561516,311.9500147011504L198.39369309688118,312.287831775021L197.90274275881166,312.8869137402353L196.62067766795735,312.8417618700387L194.43863479084757,313.56892477861857L193.6116130188202,313.36564584935695L192.14805290036747,313.1961690735934L190.81228181870392,312.5513045657217L190.2695763065276,312.02934476968585L188.89685463356727,312.41265640456186L188.17334420917177,312.9234944561813L187.68768154292775,313.51789731729605L187.68895712259837,315.0054461828022L187.04909724556637,314.54655768285556L185.56307583242233,314.2117418734906L184.74065000517294,313.5490747215217L183.85179397672255,313.34995578228063L183.060405258846,313.93457438837686L182.3546864451746,313.51080159502726L181.963783203013,313.05932154038965L180.90484019933865,312.7728341665161L180.42662958358778,311.5510592508663L179.96661583136301,311.2049392887848L179.08230937297776,311.24239913708607L178.94669681972664,310.35532323811367L178.36668501989698,310.11091004252467L177.45247944567745,310.1806925225146L176.59340554214577,309.2513232450956L176.23549991763502,308.45393878452614L175.9416088523867,308.2768097645421L174.9872009437131,308.64493441127706L174.1615486847113,308.59817148618913L172.78006515779998,308.27005322792957L172.0488586808642,307.8771621712722L172.61720587651507,307.0747434449222L172.55601599563306,306.5901788033216L171.7678507150813,306.39321218478835L171.4797039711775,306.0064195828154L172.08682196783775,304.605430694849L172.0753701004396,303.81396788084567L172.63491581378912,302.56864909241085L171.95802741859006,301.3551359814446L172.4442879588496,300.96213788438126L173.24561081070715,301.028226146881L173.727772677521,300.6802949886105L174.43496912364935,299.11172239360076L175.31524024649843,298.5400403268095L176.5930009734875,297.9676988158408L176.74237827908655,297.04275606412375L177.58265014759672,297.30188565065964L178.35693907839595,297.3210061023392L178.7717553181501,296.9374264510352L178.7728606051205,296.47356731721175L180.422623283328,294.3548202326692L181.25866162007515,293.80595446299776L181.54837838403546,293.1659083800132L181.60063480809913,291.71736538543337L182.26591064425156,290.7035586961565L182.3214950475849,290.08940651717694L183.34394533970044,289.69234533818053L184.67674395739232,288.67292882333095L185.5869626877975,288.28161777371315L186.3456434772488,287.65692372803824L187.34199797832116,287.3394355178134L188.22824957185003,287.2726687317445L188.75411293885918,286.30226733445943L189.10740796121172,285.98602153174033L188.97708402645367,285.14983529657366L190.02645189737086,284.1464206616647L190.3979527812844,283.6027606404259L189.88655357264724,282.8421272533287L190.17164300425793,281.7849823862334L190.018330762985,281.1944511037336L189.23226484447878,280.4769131103012L190.2592381699069,279.70092761829073L189.86180078284815,278.534586681224L190.3343291477904,277.7397152067924L191.35370004811193,277.09569229889803L191.6188943622983,276.48048240379376L191.03226476650525,275.807963789669L190.63594269209716,274.71186718097215L191.89611698709996,274.1449920979667L192.33886505444752,273.3834681860053L192.69004559397945,272.0055068200991L193.47535506362328,271.9954538652937L193.99943900411017,271.18816373231584L194.03170698946997,270.75212562785873L194.4868328392913,270.2538877508741L195.0831478808068,270.19984021036544L195.27385929245793,269.14513284403165L196.24305339710554,269.1663298416279L197.79675057868735,268.16299681848614L198.05057498737733,267.95754809015943L198.1897104803029,267.4118714112974L197.8502165720056,267.06842350736315L197.62889753339186,266.82443587186754L197.6277388322378,266.81693464585624L197.6374185062341,266.5702401480321L198.45020920959723,265.9162235906333L198.86114816458576,265.5098431771348L198.91137956742023,265.3778205464605L198.82335554661768,264.4245995190977L198.80780343268634,264.3881778731993L198.51308855551906,263.8494296153285L198.4735977361961,263.28648047179377L197.85145501551597,262.6761262255941L197.52755751860605,262.35516697616276L197.45219559799443,261.7740817045278L197.14344832001007,261.44450694187526L196.69354015058707,261.3785769846245L196.54610710014458,261.4288152315012L196.292177436997,261.566173463867L195.9768721450164,261.612522480169L195.40589338861537,261.4825738161999L195.29665555917381,261.1380381537274L194.96374287075378,260.0760602105074L194.6214448796345,259.89997177955775L193.90876792924246,259.8974720890992L193.64914676909757,259.89383674282726L193.61364777628114,259.91644497852667L193.4714281595734,259.96239035501367L193.27321164033492,260.01331263818065L192.73800010272316,259.9058226054285L192.44672342332706,259.73873490353435L192.06305706258354,259.4630365226885L191.60289587070292,259.1735845276553L191.34701412147479,258.97906105967286L191.00896185324018,258.68018984362425L190.11907375725787,258.09269982053956L189.79180673039446,257.88497225852007L188.37528739212576,257.7123459400227L188.2970840387643,256.8958999588158L187.34525341284825,256.86737970113336L186.74050018858907,256.83953755540006L186.64375935578937,256.7765285566038L186.55655474766536,256.7344189178466L186.05496948598739,256.54007735479627L185.40511403328128,256.1134371379421L185.19222294941574,255.40835320433416L185.0117793708814,255.11769387814365L184.69003836010597,254.94003062069714L183.91360942253596,254.85322086081396L183.65657270349038,254.8469860277246L183.47938414039163,254.66891956242762L183.3324598018371,254.13097125113018L183.71202074975736,253.3148155605586L183.69151451455764,252.8585620728627L182.60904213300455,252.46753320917287L182.4302125723152,251.9135876807668L182.58490801496737,251.03533100162167L182.39191388732797,249.98863576052463L183.03394052479416,248.79367086946695L182.6078504792349,248.3782717807744L181.80312520663574,248.2492178290904L181.41529831719527,247.887322081805L181.23129648145186,247.1586051287013L181.73634124650926,245.72165668015805L181.56654755886484,245.43419081175762L181.46979303476473,244.65051297417358L181.45392813938088,243.7872464995571L181.43134412133077,243.4199979054638L181.2848348808766,242.84075565869261L180.76452795039222,242.30284265436785L180.5427611077248,241.94101871951534L180.51007402230607,241.4257952844082L180.3119713713313,241.2145751428625L179.75183192167606,240.8902327508913L179.34184782634475,240.73486659566515L179.02031728379734,239.90735813817992L178.58842037670547,239.53222820295377L178.32375961087018,239.29869843001325L177.45172345955143,238.6139000172643L177.189480799414,238.223260041329L176.94167810743602,237.96663213575903L176.4399868737164,237.66413902955446L175.46029518940486,237.0456947915127L175.28664379949623,236.9765225578085L174.89386808622658,235.69135031382757L173.98368351963654,235.51779552090193L173.71670873633047,235.44678278664833L173.5317901660128,234.15562132442665L173.74211402139554,233.42462591556523L173.0862744579499,232.30546528858758L172.98979640791367,231.2199256745189L173.3359880280659,229.9463879705645L173.27043042032165,229.42378265553725L173.39811616047155,228.99386307182976L173.8718793249609,228.31511993143067L173.829015172676,227.66643401243618L173.91079327496846,227.44417324171445L174.20359396496133,227.30544790507338L175.24574381241473,227.1450692097842L175.44373062029263,226.7337011556374L176.34592408259414,226.1282112770159L177.27560361643918,225.91354308470545L178.36581268659575,224.6549522202149L178.53244286536574,224.1766676194502L179.37440847653124,223.69422869265145L179.48098866032524,223.3180212853822L180.30372715178964,223.25069093557522L183.08268515279633,224.4147529685124L183.90960393220666,224.68745901517832L184.55473612611968,225.1221054671587L185.12078127375207,225.137144053866L186.61389282845266,225.7694689645059L187.53214098819808,225.85112221806048L187.914301289813,226.59864121377814L188.06467639643597,227.3848582018527L188.46783837972544,228.08514134982943L189.0332387712333,228.55924107296596L189.28400732927912,229.34091126314615L190.09132034257345,229.64332548850416L190.6786799850015,230.43376933158197L191.4003318878822,230.62813724917214L192.10688837131238,231.36627857623625L193.01162482903965,231.69746343264524L193.04460251631463,232.64863525595592L193.6509785556991,232.87874348780133L194.44408228977045,233.45906036997985L194.99940641420835,233.63247185937416L196.3806244602565,233.29926235584844L197.75260886740944,231.68188493038724L197.94510881485985,230.9591336794847L198.70467878419004,230.24948996415878L198.7959485001411,229.27120783249393L200.05988426062322,228.13731305552756L199.68006002695984,226.8319690054741L199.7653088125262,226.35078906628405L200.3510888882265,225.32308046063827L200.74237760874166,224.96129193181605L200.88307461395016,223.74856928582085L201.4897224574015,222.66292999271536L202.2302788173256,221.88531491954836L202.92082364301677,221.85853773955841L204.1617197442356,221.389238450618L204.7731409706721,221.36215052098032Z" fill="#FF7B46" stroke = "#222" stroke-width=".3"></path>
    <text x="205" y="272" font-size= "3.2" font-weight="500">
      पर्वत
    </text>
    </g>
</svg>