<svg  viewBox="150 242 120 120"  version="1.1" xmlns="http://www.w3.org/2000/svg" xmlns:xlink="http://www.w3.org/1999/xlink">
  <g>
  <path id="path-04010" d="M230.93357449527684,264.08568595532324L231.61334723783511,264.6435008828994L231.76446231070076,265.28355522717175L232.6543148263081,266.32640781747523L234.47133359756845,265.43064281877196L235.344339781499,265.55984416043157L235.86280740579605,265.4422970556443L236.60081670290674,265.82694377491043L237.71204086353828,265.980576263838L238.52129546749347,266.822589829776L238.88122576653768,267.8410305208117L239.48853587216945,267.972255997729L239.90154076024191,268.40935691185496L239.84918018470125,269.04538892439814L240.2917049164862,269.0373759726217L241.002002135785,269.6398859776855L242.04323156731698,270.25760143564094L243.11668834240845,269.8757496322778L243.3938771557041,269.6781433688802L243.43398022542897,269.63197669094916L243.60477543783054,269.4714771970321L243.6959891231927,269.44350583477535L243.81851473562347,269.47447446837396L244.1999774867727,269.4665961170567L244.93541369823652,269.6691037509072L245.14358230188736,269.6356643689287L245.24900911609802,269.52991751556783L245.50653318837067,269.3870334932981L245.98144077198958,269.5147554263949L246.2937776518702,269.58310858114237L246.5443442496653,269.8938939676773L246.85932173693072,270.5633715397453L247.4087033956057,270.66691011856255L247.82183166127652,270.5673378571846L248.35190237837378,270.5861943628288L248.4752434707989,270.5415712362719L248.7585264919253,270.5697597502867L248.8495310135695,270.4785105664023L249.04360205591001,270.3534076750275L249.14182618826817,270.3088146356022L249.43609926029967,270.2640700931461L249.61916615252994,270.25105526645257L250.3214433858484,270.12178558486085L250.75277769024615,270.57884992758136L251.5450600237782,270.90856590741987L251.66213459785286,270.94601094242535L252.05382145537078,271.1982844898339L252.14024020788565,271.3097620709068L252.16137700613035,271.33709301761064L252.19524500931948,271.46361844411695L252.16864830673876,271.7537461813263L252.189013796793,271.8363189767533L252.61369213847138,272.2060124950358L252.7138344169507,272.26867979208055L253.17566463869298,272.83191970818734L253.17193755140397,272.88878068243866L253.31386450765785,273.0704571894612L253.43960469508602,273.42589544084694L253.446854829519,273.51491504960177L253.45217249288908,273.52402044011706L253.46053751446743,273.65914669087033L253.5749584610021,273.9620466957949L253.67599503906968,274.18559710598765L254.24941312130977,274.4828308141223L254.3060211725242,274.58948131487523L254.8072349939357,274.7682558682045L254.882808760005,274.77250295437443L255.09479791177728,274.90695769790455L255.10834435488505,274.9182019327245L255.3077235256642,275.07787887339236L255.49343646559282,275.1764171646155L255.572411869176,275.19245823511756L255.798493545386,275.15692416672755L256.2104505983225,275.1706132739346L256.3266048707628,275.2391773472309L256.89190438990045,275.85765754521253L257.19224130044313,276.00334053749884L257.5018027014521,276.1790580763436L258.09978557299837,276.34064514261627L258.3529083665453,276.72393262945025L258.47223226993447,277.09709174913587L258.5394647163521,277.4252293364134L258.55348715899163,277.47242012270726L258.70164000996374,277.7758543670898L258.9100826160284,278.08622449392715L258.92680773195025,278.1006919879119L258.94971342017743,278.1977324957588L258.9129227732192,278.250850777561L258.57506075029596,278.58402998842666L257.83743190127643,279.44940256737937L258.041547562545,280.2906529368256L258.04148850033016,280.30887873441225L258.04303390673886,280.3432061895646L258.0457828242361,280.39789839201694L258.0448482427819,280.45903726453344L258.1709469285561,280.91906219017073L258.2947212460749,281.0026434945721L258.68876803196326,281.16276311431557L258.7274315208233,281.1782997610899L258.7520140114175,281.19114805596746L258.812229996478,281.2238258350426L258.86518257434363,281.2495372214262L259.206576205539,281.50622316769386L259.25183505352834,281.54695201413506L259.4070558010426,281.73188134483644L259.4779670953103,281.8122698501329L259.6277977721875,282.08461475975764L259.63749739249397,282.1055289748856L259.68335070391913,282.16341412499605L260.17578448530185,282.2511043943059L261.2847418158417,282.69297777452084L261.5226035202031,282.72664807871934L261.6858720314631,282.7694695455575L262.0924226555726,282.791283842741L262.30892456426227,282.7874333911077L262.4008815981106,282.794368793363L262.6653148375881,282.7733464489129L263.2968926399408,282.76342929797374L264.3452685788325,282.70886970943866L264.5406355291889,282.7731546466266L264.620576807476,282.81012491792535L265.2314841823463,283.0796405913752L265.34379116478885,283.13323194270015L265.4928014648285,283.22648278557335L265.68972744634084,283.2612826070026L265.7484129733966,283.26447531689155L265.9060807318383,283.25263432858264L266.0158610468425,283.22310301096786L266.41541521615727,283.21654636211406L266.46532168660633,283.18113378750513L266.6659411994733,282.9596137819726L266.8936551531151,282.84103124254216L266.93714620018,282.8683618520645L266.968324332076,282.9209146562607L266.9465222459512,283.0549718902994L266.90104363755745,283.1718880244762L266.88830202457393,283.30327141019825L266.8949276604362,283.357963555668L266.95934708643836,283.3879675591097L266.9796069627555,283.38529354084403L267.31169126084933,283.0629132169024L267.33172816133083,283.05111887634575L267.4406602641502,282.940083944246L267.51134682867996,282.9202231404679L268.3444019286035,282.4963827353031L268.47505053621717,282.43467744298596L268.6561407270783,282.35795404139753L269.055788004589,282.557882152616L269.1481479543436,282.6618881131808L269.2011747298893,282.68387115550286L269.928078757639,282.55018942456354L270.021312547502,282.5244312593977L270.61490749388395,282.362915245707L270.6432623671644,282.3570177969377L270.76704972538937,282.346261657769L271.002444243637,282.3001068600943L271.14173829170613,282.2802450136078L271.2154701185791,282.2775553292313L271.5666781462314,282.34399171836776L271.5480264907783,282.5568936757991L271.48251258010714,282.76817726427726L271.5324854780847,283.09581009533485L271.9197101034915,283.02229201478895L272.26814660407035,283.40137440039143L272.2788116401607,283.41961488995094L272.31936293343824,283.50915388923386L272.37622207370805,283.54186142545313L272.4478450614224,283.5563280860015L272.52361146260955,283.53649691135433L272.72686146116394,283.39006357877315L273.04966934436743,283.425425933473L273.08190226079023,283.488153677994L273.1717722250287,283.8699582638019L273.1838778357378,283.8779792133919L273.31106680375524,283.87745739361617L273.4683483277331,283.86295754906223L273.5087937208118,283.8527671245738L274.0252002537745,283.91278409651386L273.87949124851,284.0195119462742L273.86429882079756,284.14981103365335L273.8689183485694,284.15732706261315L273.94183708933997,284.3535763536147L273.99218947097324,284.33428030670893L274.1236686334669,284.2087921329903L274.3080103984539,284.064527762378L274.88128048095314,284.3851712911028L274.90200116328197,284.40073791684335L274.92318259862805,284.4318269142541L274.9926688552696,284.5572971818128L275.11675493157964,284.63183242232753L275.6800249179687,284.7551562189683L275.8270860740122,284.6741850979024L276.0405436027904,284.6983046706491L276.1064928832566,284.72619938836124L276.5511785693561,285.0876338195467L276.70958767234697,285.0071824135821L276.8631357659724,285.4892799139152L276.0172677848459,286.20033654950475L276.169172898597,286.97949824640364L276.0159265076036,287.5055532541892L276.7619212506215,288.3560494605954L277.40332604805735,288.8070353852827L277.11731543277347,289.0617552875583L275.7643489542679,289.4564156150036L275.5297670878026,290.05059208414514L274.607339581642,290.47801368317687L274.84929157133956,290.8018855666396L274.83978463046515,291.529046048895L275.0759459269757,291.96178263300317L274.4259942400604,292.72703836989785L273.8195533938924,293.00593051030046L272.94499181311403,293.10628221782736L272.01714278064173,292.7610458932995L270.58744411956286,293.9313509872518L270.0795358623909,294.7561986122146L269.1056295192684,295.3291154230328L267.84529650708646,295.3782119638081L267.198691304362,295.60683892064844L266.4615253271186,296.60338683421924L266.453800580457,297.32249645739194L268.10225163776704,298.0851328083536L268.73201842877097,298.12894243350365L268.84709630935686,298.60725279385315L266.8928777800029,299.5451163235002L265.97779799391355,299.7325424748915L264.7932689303125,300.1705291554499L264.3251873058398,300.4790379569067L261.91482787698624,300.10944864224257L262.28788468358107,300.924924959636L262.33020571761153,301.90302734237775L263.13888493702325,302.9382018931901L263.90087029296046,304.2324152270294L265.43362956275087,304.2586835644197L266.9409287096896,305.75167608830816L267.05347499663185,306.6643457838345L267.61020176530656,307.1554090375894L268.5120268688406,307.4517169040246L269.6987004483417,307.3039912570439L271.6250602903274,307.45273930683743L272.08734741252556,307.05423047067234L272.8434647865797,306.75170342792444L272.9356673185175,306.3934841113387L273.55768260988043,305.7638602064835L274.1064050407622,305.5648683486552L274.19261363663463,305.56057425076415L274.29877137839503,305.61526489633525L274.5883645876165,305.5112234264161L275.22382850718714,305.2130504104707L275.4710514856706,305.43610847083073L275.5409402966834,305.64042352995875L275.52537505800865,305.69458127698545L275.45098656636037,306.30751590536784L275.42492160806796,306.4437270461158L275.3840478776183,306.5794036689658L275.3549995620415,307.59988551454626L275.36966214282074,307.72214817766326L275.39451402001214,307.8401327481506L275.6409826065501,308.225693068106L275.8179618553331,308.3254346808735L276.02172028170025,308.3543819487877L276.10255160552697,308.3307926473526L276.1425807712658,308.30289631760206L276.76485823605617,308.17527658213294L276.86231182028496,308.22408519477267L276.9039317775605,308.27341454165344L276.93724052033576,308.66809841888426L277.7053314578334,309.22958105640737L277.8277828225,309.2596138939389L278.9090791219387,309.4757967937594L279.70235045505615,309.4737200701866L279.92033189435824,309.16647760104297L279.97533277555704,309.1160773045749L280.5147910469168,309.14026621470293L280.86517078352335,309.38538083496496L280.9746870962117,309.5291208781691L281.0255501077263,309.80100686437345L281.33493433566764,310.0284161950758L282.94718421038124,310.59230722004213L283.24663182902805,310.833159529152L283.4799630771049,311.6252579028651L283.38633606807343,312.0579846920609L282.7395523326886,312.2755752109124L282.13561791608663,313.13399433496033L281.2561370315707,313.0920303954208L280.1717626763311,313.4715504844726L279.8263287540176,313.2087447218055L278.0243197320124,313.0032081597001L277.5554184786888,313.17372379031985L277.3748386639163,314.3041569336556L276.84725903005165,314.84413583312653L276.31762263910787,315.0200146573152L275.76483753031425,314.8189450558748L274.37403346757856,314.90370790126144L274.47077962715775,316.0142771147912L274.1873715360707,316.43901534487395L273.5511518684252,316.8321348425425L271.56668799069666,316.8012389063133L271.3173055743973,317.054948198298L271.784986349503,318.30219789532293L271.23026842620675,318.77741395629164L271.08241924612594,319.5936112294903L271.25002901702464,320.6231956402189L271.5906702638058,321.14493561973086L271.71252632193864,321.88870095218863L271.3161881285814,323.07495854344324L270.9349524323625,323.31204825630175L270.93515701653814,323.9121182830904L270.3253361632451,324.5401823669381L269.11103399800413,326.17331865864526L268.4198672057246,326.32417098462884L268.4361599228105,327.0287977583803L268.71188389519375,327.89641306286103L269.19057392375544,328.52319815186183L269.07777344685746,331.4045402109132L269.6371988362953,331.6489536008803L270.16237810563325,332.9659121517361L269.93948461737455,333.5070450787489L269.93592831011483,334.72918396463956L270.61734760982654,335.1596710149897L270.64333509627613,335.6321155110909L271.07080903948736,336.1629448556878L271.08995252618115,337.59046905609375L270.46670302299026,338.1574093467716L270.1199184584257,339.5040147234213L269.2571091133759,339.78680245782107L268.7638111579545,339.56597613235954L267.815689791616,340.1357138500125L266.93749042944546,340.3150440088575L266.64901567315246,340.6562139895841L265.3285274354348,340.7595876673431L265.5435387988364,341.25824656225905L264.89877451845314,341.45043672734846L265.10848203814385,341.8858178549599L264.69921305382377,342.6399593128717L263.55218733778383,341.46701912605386L262.8556685468102,341.3686369930929L262.1500357870791,341.58397052634973L262.1681737602303,342.47308344506746L261.3570145160047,343.0241922165096L261.3748985971033,343.84090696677777L261.8124811299167,344.03055569760545L261.65157005901347,344.54811447729935L262.17643616065106,345.0235519993721L262.53527838522496,345.8449554909812L261.810055416423,345.34976521344925L261.2153157222274,345.4685463678288L260.14456265475746,346.6826207711574L258.60769324427383,347.6776508802859L258.32747039185415,347.6756497977667L257.39107295938084,346.92916345317826L255.77688943921385,347.0068144157649L255.11568753184838,346.68064631815105L255.01737107175722,346.5589641895949L254.9655613968789,346.4914537391669L255.4226472444825,345.9463067335473L255.66885063672817,345.6667516070311L255.50034610481453,345.2228436816131L254.89947718146504,344.83228278954175L254.12717423294453,344.60167185449245L253.33511707976504,344.4086268662131L253.16761554962432,344.377094428678L252.48220663674874,344.25640145589205L252.07094541499464,344.13011928942797L250.67981458478607,343.4394163604102L249.9873255367056,343.5767069770782L249.91130683785377,343.60894119690965L249.07638122953358,344.10566994218334L248.87477921646496,344.2189937803196L248.39631131746864,344.33576787766197L248.09660113232894,344.3451303524971L247.9742244494555,344.3372001710868L247.86677475653778,344.2975862806479L247.81493536832204,344.2295410888428L247.80409141613927,344.17538373167463L247.80500611463503,343.84773518236125L247.88541267874098,343.3553699399072L247.873825023853,343.2465203326583L247.0591439493328,342.9303066761586L246.14633003796553,343.56017256906944L243.50256902644833,344.17941403872373L243.0486002787111,344.6142406368235L243.26755539591613,345.519764157204L243.0767779091584,346.23103377984353L242.45118986160378,346.45477338939963L241.0209588439102,346.21656701242136L240.8132883810904,345.8912833561917L241.04951335115766,344.98474297279245L240.7388774933097,344.5453379226374L239.64510674520352,344.45376476351703L239.2084083744594,344.6751991815481L239.22159516892498,345.30473929053915L239.76740687724669,345.91280749044654L239.98139370877107,346.43435635710284L239.9003829857429,347.1836059004763L239.53924768505385,347.62857635937235L238.07334257906405,347.58036742982586L236.19661197697133,346.8811751947569L235.37757686350233,346.4563940052112L234.34809422160106,345.73213051883613L233.50265327130546,345.485478345071L232.5386430481194,346.2809368214603L230.53025531052845,346.5110693287161L229.70382360394797,346.1041278360626L229.01452570741458,345.32968261754286L228.77298968717878,345.0039835542939L228.2411108539818,344.4175573518123L227.9296628640077,344.2308329262387L226.91973790036354,344.0720146157646L226.62889327993616,343.981290989017L226.01178979134056,343.5912947454508L225.89085174926004,343.46974663717447L225.82631307469273,343.41729828485586L225.70999456748905,343.3037860971681L225.23592453553647,342.69908867601225L224.97883418690617,342.21898299700933L224.92769201759802,342.10324174798643L224.86399876061478,341.98589645863285L224.75154098712665,341.81232967871165L224.30556985852672,341.01721901069504L222.79599528727704,339.34865226310194L221.61798076676132,338.6904613787128L221.28970525423938,338.5714266732466L220.85736855304276,338.5153148611662L220.7669112088479,338.4827563390654L220.49333903740626,338.2869555882826L220.45020391135768,338.22964967646385L219.4555272485377,337.74603458210913L218.85203891911442,337.85970599798657L218.738188442745,337.8722444256182L218.6006773316294,337.92234885284597L218.50686378411774,337.9241327204827L218.31790019293112,337.9437873070765L218.3159602905398,338.2564036402737L218.44527951285272,338.58598123982756L218.7978328761492,339.1050177025818L218.78850652351684,339.1865214842146L218.38568794533785,339.37331593138424L217.78825267545835,339.11000876676644L217.00784686174302,338.4571593881419L215.58891998551917,338.25008662785785L215.1609885176913,338.6536154749265L215.14550547550243,339.1309177898929L215.87961974996506,339.3274247028894L216.24675830859633,339.8061770308259L215.95697693268085,340.1751089742711L215.11556443845257,340.09462788173823L213.27037574195856,339.0336522049847L213.13757301417354,338.28687166980944L212.8555187245911,338.0439840077588L211.45472205755505,337.5324494791794L210.404103057288,336.79450580426965L209.81679610853826,335.6513245732758L209.06954983764444,335.3648771634389L207.59889347530407,336.19268004016067L206.47927776271536,336.0829704686639L205.82358724123333,335.7894363584346L205.13470468199375,335.7694828426802L204.51620371460012,336.0990120864235L203.94251823205923,335.7972922307499L203.24628299324468,334.9697888218534L202.6262519897573,334.4992693343029L202.03539062528944,334.69901917592506L201.6389172496165,335.82875726762086L201.02897362362273,336.25590655137785L200.44884281638952,336.0078986776434L200.13120344942945,335.1565193656161L200.71454401921073,334.6891608295455L200.6196246192194,334.33277134747823L200.01229269430405,333.83438565550114L199.16867919037395,333.6052462003081L198.644479161434,333.78506104290227L197.82965169915406,334.3650753669517L196.84047032265153,335.437827577819L194.89822963000915,338.31478465456803L194.2524748858923,339.5503311202019L192.87545363390745,339.5736572774922L192.19353110790325,340.0178005187663L191.826633151024,340.4879632410557L190.81589256567895,339.5961171015997L189.76152276499124,340.0268229942658L189.11023610202392,340.1207689834964L188.91079205702772,339.66494867386155L188.92398152772512,338.85410091207723L188.66665615563033,337.7130983353036L189.10516083000766,337.1821076353235L188.91086906217242,336.62866708270394L187.6015048758636,336.660072771293L186.50789158224507,336.2388753479672L186.33902619365836,335.55078334755854L187.54252192984495,334.2513567335491L187.05281604567062,333.8891206155631L185.8824014066049,333.74432667465226L185.7449684331732,333.20576895735667L185.19507725611766,332.8624873692306L184.67851263696866,333.0848734910178L184.40790972751347,333.606325461441L183.749754534183,334.15729793912305L181.94410280357624,334.5324759188943L181.10107258456992,334.51506463156693L180.4686150585876,333.548987748296L179.51280345654231,332.7275634083444L178.337460213359,332.72569423403456L177.67292528465623,332.86550939455174L175.15469507387388,332.9536303198629L174.91089958372686,332.52646395638203L175.5503512203395,331.8021461738017L175.5782510991521,331.29155603050185L174.82650530823594,330.2562317949296L174.29868618534965,329.9119843676417L173.49092989657584,330.54514591097177L173.38244292365562,331.4329830403476L172.77205620692257,331.99475359427925L171.64667694404488,331.85246925239517L169.96508182669277,333.1143222486389L168.8959759890531,333.45886047506156L168.16563319747365,333.18616748247587L167.09667587554577,333.529695628893L166.56629364361288,333.53522906845774L166.05349715164266,332.7089855285485L166.2655238152147,331.6684779806992L165.85943766700075,331.062814064313L164.78809311743316,330.8293999131447L164.54936094017467,331.110692684505L164.75813701465086,331.79315441955896L164.6970584971932,332.50336729019546L163.9098826172085,333.5994667432187L163.1418918325362,334.40542368131537L162.62255254706906,333.9835790584484L162.89577936232672,333.1830807648985L162.68252241103255,332.7601918902683L162.00650732297436,332.1769465301204L161.2503512364019,331.19772571313297L160.79469028488165,330.89151817649963L159.57090242735285,330.4577561436181L158.86027694161385,330.55788216600195L158.217702627986,331.09591652242216L158.29242619813886,331.7096509817884L159.07848764178925,332.1921255319521L159.65971251759402,332.17289602082747L159.49378192272343,332.7494248560088L158.8264186311717,333.3534705401016L157.72417508669605,333.70011845538374L156.3900779956748,333.6100487307731L155.67179384130577,333.2131913533576L154.94047790747572,333.3258246901696L154.1413910966039,334.5015711541546L153.58491596772,334.743357039486L152.14472920382104,334.2597185472405L149.69877135484785,333.3263616404074L149.1378689510857,332.71077752781L148.02880238470243,331.9632834701015L146.2385387396389,332.3344652262258L145.61275316976753,333.1171884266241L145.08222625181588,333.3295185257948L143.81953040573717,332.5044890653826L143.22558812849093,332.36212259297736L143.32399428489953,331.7155435402692L144.4033553458903,330.91699429115033L144.43727444106116,330.5983319941324L143.85022862199912,329.89607546734624L144.13336739697843,329.3527881029877L145.50906986275004,328.7096662739714L146.94248175419125,328.2985623015056L148.47830807483479,327.1278109429577L148.88386861257095,325.82153377205395L149.36948333519103,325.0372678147378L151.58651543577434,322.4225985555713L152.2546588874393,322.241489432824L152.89139792642163,321.0169798923662L153.93700501826243,320.63499527860677L155.780645830906,321.56495928157346L157.45176805410665,321.8393021466427L159.45280786077637,323.4794609160226L159.62438551279047,323.8547434642178L160.73993509310094,324.17468122660466L162.82242917270196,324.9411888491204L163.72309384167966,324.3562567809886L164.79305992916488,324.74727135193643L165.59512245657243,323.8500809680345L166.8734667413919,323.49561724699015L167.1979907847708,323.1668797026696L168.4086998779312,323.178953052683L169.29507731854756,321.8868988463937L170.3308007328087,321.967184094563L170.76311650425123,322.49988498042603L171.78652655634505,322.5818637554603L173.70048631401005,322.08782293212244L174.72845510295883,322.1033896130193L175.67543539587132,322.47528890894137L176.21307251756298,322.02158192446495L176.11155608271292,321.5473116205121L176.4562356262686,321.1950153974076L177.6008215162401,321.40819731098964L177.71858895937112,321.1659870547028L177.38028734914406,319.44618675749643L177.61015370237874,319.25297803660305L179.6176174040338,318.88341188763206L180.37731156187874,318.42643375468924L181.9745072007354,317.02057290291395L182.16002708872838,316.33042591275535L181.92508289237594,315.8361344635523L182.37463176083475,314.9532535752687L182.3546864451746,313.51080159502726L183.060405258846,313.93457438837686L183.85179397672255,313.34995578228063L184.74065000517294,313.5490747215217L185.56307583242233,314.2117418734906L187.04909724556637,314.54655768285556L187.68895712259837,315.0054461828022L187.68768154292775,313.51789731729605L188.17334420917177,312.9234944561813L188.89685463356727,312.41265640456186L190.2695763065276,312.02934476968585L190.81228181870392,312.5513045657217L192.14805290036747,313.1961690735934L193.6116130188202,313.36564584935695L194.43863479084757,313.56892477861857L196.62067766795735,312.8417618700387L197.90274275881166,312.8869137402353L198.39369309688118,312.287831775021L199.97072304561516,311.9500147011504L200.67012524167149,311.3713983837861L201.53419650509386,311.06747373296L202.03541055271126,310.4727289613829L202.3633532465101,309.4863623512865L203.3747104837239,309.99512485788273L204.44721134492283,308.53147489871026L203.5848676639289,308.2910022453725L202.84820778414723,308.57363930220254L202.62875041697407,307.8083670264641L202.22311102384265,307.2725019300733L203.51661129603235,306.4319719330433L203.5243313851497,305.45223495610117L203.14930496037778,304.931312488241L203.52610414972878,304.15505430088615L203.9987008884964,303.8290327774066L204.79037083727962,303.9833387005956L205.48366210678068,303.86492755635845L205.732551864563,303.4782903832529L206.36179252471993,303.1959519927723L206.88896118376215,302.12822735294867L207.9011261552114,301.365150016376L207.52603066176744,298.7699774354787L207.09312324783605,298.3708582273557L207.048241354918,297.0566111184389L207.47127023056964,296.60849086213784L207.18371499641216,296.0883989465119L205.81663786538775,294.9110506867328L207.37900038381122,294.9849406765161L207.75853519763405,295.13427663386665L209.14153851248557,294.9233447988172L209.8085292270298,294.2693748695601L210.39210848261064,293.0841546741676L211.26380644701203,292.3686714856276L212.0180423060956,292.3274850871876L211.8826456892275,291.87303051982235L210.61268566201034,291.0197049180615L209.49564653062407,290.48144415757906L208.56001563447353,289.40552714359364L206.8458089738815,288.6160355890115L206.4720448920707,288.08594827752313L207.03275413709707,286.33553571246193L206.8302352662613,285.8747989436688L207.09592078538117,285.3149347941344L207.7988263358202,284.6383269402777L209.3646237957255,284.1352894550928L210.05626776045392,283.31342499679704L210.4118828958235,283.1561312239255L211.41125016099977,281.9282740406097L212.27201549997335,281.1865589600784L213.00640812082565,281.18941479823116L214.61602774152198,280.943944088639L215.94385917247928,281.1682931286896L216.32279439979902,281.0313934684782L217.70402437286612,281.300749166433L218.24237486893253,281.6606820003044L219.0861169515847,281.6280798082953L219.60624381135494,280.5016079518673L220.0991128835558,280.0524468656731L220.27722513486515,278.8155707347187L219.30977317227007,277.4680795621907L219.80892692317502,277.1100622156546L220.65219934254856,275.81735499799834L219.64137316849883,275.11608552962116L219.56397816875688,274.63306599447515L218.62915584645816,273.1230573229341L218.6483220615337,272.6296831451118L218.324224234766,271.1545275571434L220.2060867431719,270.7270769894776L220.86520956574532,270.3103544444066L221.88117192070786,269.29729994438367L222.68240301668266,269.22572159865103L223.3128017950694,268.92815784862796L224.1685710913407,269.46676401281366L224.8444423163819,269.5059088715125L224.9245230974775,269.07196442800796L225.55828326155824,269.0114250706092L225.7204229266681,268.2802964550892L226.802642381248,267.85930445140184L228.28475988622813,266.7781672697647L228.89360135490278,266.21262375050264L229.46316560754713,264.60951770314114L229.57946585155878,263.77121855119367L230.33423087164192,264.2189645970402Z" fill="#e1b03d" style="stroke: rgb(0, 0, 0);  stroke-width= ".3"></path>
                    <text x="225" y="308" font-size= "3.2" font-weight="500">
    स्याङ्जा
  </text>
    </g>
</svg>