<svg  viewBox="279 270 120 120"  version="1.1" xmlns="http://www.w3.org/2000/svg" xmlns:xlink="http://www.w3.org/1999/xlink">
  <g>
    <path id="path-04011" d="M382.680329146202,293.04115213277146L383.7565827293911,293.6130868626733L383.7760746278982,293.8314099894278L383.552196215649,294.12130327254727L383.58306693236955,294.3986409857225L384.11655736072134,294.5773702963306L384.8263993830333,294.6585360744193L385.1641264799,295.0130501470385L385.2993000136448,295.42962720935066L385.65589995290065,296.2432321848655L386.02560779743726,296.6750605991683L386.31813180615427,296.80688488347096L386.56315300344795,296.8441941916735L386.6451289378638,296.8659093937731L386.9717358835951,297.471366367914L386.943531951114,297.59888801604484L386.9369409721003,297.79513857855L386.93584615992586,298.0133729095105L387.31679399480345,298.244717315305L387.58356181700583,298.3501910858131L387.65561617740605,298.39439533175664L387.8450528781723,299.01066813464604L387.86740929638836,299.1195918417843L387.2708943630496,299.5969775855028L387.25198753627046,299.670356421605L387.55583105195547,299.8660525412897L388.1258130484857,299.8899882140886L388.9004502423777,300.2197636360406L388.9418620309225,300.2558283934968L389.04601614644343,300.3864970147224L389.2962564694353,300.70588286145266L389.4206852806783,300.8317979003896L389.39783432721015,301.25051641769005L389.18320799110734,301.4631987105304L389.5431334577661,302.1948098297662L389.6569267441919,302.29333434150794L389.7620918768407,302.473882532744L389.7838385846735,302.5463397900512L389.4438868555262,303.11036466243786L388.4168743060254,304.1524896929059L387.2262008707221,304.09640488974856L387.0438822051037,304.3944672164771L387.5486800576873,305.5249790790167L386.6359060718314,305.90152625674364L386.807808522728,306.8984468418166L385.97476560672294,307.195405275399L386.1294109061637,307.5648504621431L386.462807382959,308.24968691535014L386.29958926839754,308.50652921944675L386.0700467510542,309.29618397197373L386.57582521916993,309.6925687649082L385.4860572382713,310.73190223403344L385.87907369077584,311.3525686795974L385.42214326544854,312.2272658871234L385.6242729100122,313.2596721383361L384.7699221115363,314.6451585535742L384.9527676395155,315.4506709281877L383.8215286870836,315.7171982385762L383.91254531828963,316.2381993572826L381.5838479132253,318.10531856496345L380.65043175382743,317.9334133868206L380.32303968898486,318.1849405305247L380.8919354906611,318.86297025534896L380.7535826796411,319.1633788328827L379.5740814614401,319.2379046204396L379.23603857292983,319.43953748710373L378.7487917955623,319.5286242402781L378.24533877973226,319.55386893724244L377.9415907122966,319.6789439746508L377.72624665013063,320.40542464780447L377.5661473447908,320.64410051606956L376.94060947447724,321.15106093154554L376.8346027428015,321.2252729472284L376.62197964830193,321.34098857453137L376.43990966912315,321.4476725213026L376.18179946269083,322.0013726321931L376.2551484074029,322.16463133562047L376.37379927254005,322.29099210641107L376.436809952389,322.4365153458739L376.39345704960215,322.6374752048778L375.8142704216589,323.5950593980824L375.91847035027604,323.79003082293275L375.9709793672482,323.9172838593713L376.5408572708002,324.68693280932075L376.6789130345787,325.14101614170795L376.68667077959253,325.3598296669952L376.61849895540945,325.6111448297579L376.3528839501341,325.9690699090979L376.2387259562638,326.2068092688369L376.64372864532197,326.80972511672826L376.66088448250594,326.822127904994L376.92373285249414,327.01972602250225L377.0326993489143,327.14607209403584L377.4188676410304,327.7296483850496L377.7734799496793,327.9313002098115L379.62106687392225,328.50121788449724L379.7184459923992,328.5369104329093L380.93737166984283,328.6485932663809L381.43104268761454,328.94403081884593L381.61075495913246,329.038439783174L382.3694181531464,329.0269607420505L382.6307515560511,328.4738547083962L382.90235514883534,328.2527344721484L383.2631116329212,328.1949321158754L384.3685921983997,328.5396158779795L384.7721949987317,328.95439152346444L384.8661287181858,329.77248665059415L385.61003583340425,330.1728635237105L386.336013501721,329.74468689548394L387.4079597052478,330.31405214425286L388.0700925504061,330.3742300827971L388.9148527600373,330.72300273135716L388.78154772575726,331.657764395668L389.34777346724877,331.7599953811423L390.7983637837169,332.48359824231375L390.8844069852785,333.12849636142164L391.2407304030421,333.47937102272135L392.30414670156097,333.8391916158098L393.8019104258201,333.7699934113325L395.0761515553568,333.9612182820574L396.65964922964486,334.67055926249395L397.0873032808013,335.27112785966074L396.7673700528212,335.6496117153474L395.3575863089827,335.9082856610612L395.4481277067898,336.4330746161604L397.2233326585483,336.90665058964623L397.7898929011826,336.64651923301517L397.8444111086974,336.22307657649344L398.55062416956935,336.0551861262893L398.96726367883457,336.99090477674235L399.3174640755169,337.1659532250833L400.5841132368514,336.50632857243636L402.7064123073542,337.0549858628956L403.27944949665107,336.84002527918983L403.83435243703207,335.9584490003308L404.35613788903356,336.10259852843774L404.6466993626382,336.8860957754241L404.0515478700436,337.96861704961884L404.7215924150878,338.51768319754683L405.893039127317,338.981865996383L405.7888486343254,339.2656525170132L404.93998812748396,339.63340523846455L404.68397083903255,340.86790694923457L404.7902125763285,341.41047587113644L404.7586036150751,343.6111201915337L405.72692391687815,344.46543058480256L405.6987860074987,344.92863690725517L404.9566613663592,345.2898373686139L404.74968854248436,345.71158907850804L405.6690664240705,347.2826632356346L407.2640570259173,347.0525059582342L407.56237630011674,347.30519687382366L407.168107308622,347.94607713320147L406.3715956579399,348.60622925142616L406.5320941823993,349.0262224734397L409.07453099179475,350.1384176622396L408.6456165778145,351.1544946605263L408.93890957414624,352.61534739542367L408.5900177348085,354.77450970217797L408.21612723758517,355.40310544102067L406.97260538769115,356.10596967918354L405.96090559858203,356.36633080780484L404.87309941785134,355.9781097744717L402.7663640634055,356.06214171430383L401.92622686217874,355.90393039771334L401.0522582614285,355.9735347987189L400.0375175618901,356.43784082608L399.8975165776719,357.52374179544404L399.9744950203931,358.7102452741028L399.38528735413274,359.92909618636713L398.12134913926275,360.2327307828764L397.01116010130863,359.89990047173615L395.8091560549983,359.23214447735336L394.1491572816594,358.9569412085675L393.3889854171539,359.30010920305904L392.38614111944844,358.9517251160569L390.4745586863537,358.77984987789387L389.0031041018192,358.29962929481644L387.6216518889487,358.12707739284724L386.87903105837904,358.1840835445855L387.04826017689265,359.2035527846101L386.7655163253512,359.4149587288439L384.200279795823,359.057849826665L382.2197240526657,358.40843562804184L381.73360985393083,358.6937431623883L381.10350791028395,359.7605049165295L380.4812060435688,360.1746578058646L379.73301626993634,360.28543535485824L378.9891750452771,360.97810187368214L378.6187065019876,363.4228318137921L378.6943902374005,363.7308720773499L378.4600069363223,366.1277701950212L378.7666864569219,367.0323419602855L379.444625688222,367.97344874212286L380.68290911044096,369.0316555047202L381.55772740868997,369.11757215718626L382.8374591608044,369.03965821382826L384.49025789871666,369.5105329443386L385.5971981179064,370.0520764023868L387.34563101356616,371.7117715888162L388.10424948357104,373.20247372444555L388.4422242122382,374.8263630000265L388.3195721397824,375.17128874156424L387.6445808709468,375.3518639356362L386.72335627621214,375.0382664815661L385.66539289854336,374.01420615627194L384.9052939668327,373.53226626595824L383.18386938175536,373.6467426309664L382.7069225838859,374.08332277736827L381.2694546892999,376.0060417453842L380.5117650779903,377.2054068575435L379.192386634124,377.88660017867187L377.88666908966843,377.5913384050855L377.1525135782904,377.59605842619476L376.57227332680486,377.85972518542894L376.39224086858303,377.3416811964744L377.0643735458543,376.8144443285173L376.85949147048814,376.2968463445568L375.6760036871565,376.0878544915595L375.46431555338495,375.40402593377803L376.0854246228773,374.75326431627036L375.7903922673868,373.95761642819616L375.41480413163663,373.6079154083027L374.29459407880495,373.52840456321155L372.8192170629227,372.9877728164183L372.3250100641744,372.62917610122986L370.98469848197055,370.77194659431916L369.46145428296586,369.7283010597357L368.38119458148503,369.38419598379915L367.2479861006177,369.211580695066L366.83156768814297,368.9390763426336L365.730771552182,368.8883372961536L364.8734118312386,369.1042676536508L363.76933377101886,369.85154282208714L363.3426411301916,370.563128361091L363.3022783087472,371.00219720234054L362.86037865118124,371.8579852268613L362.906629452842,372.4957393180648L362.32244913369505,373.32058873192454L362.33317682963025,374.2708855628898L362.00317854699824,374.9414281315376L360.6411962845159,375.3910487289322L359.7841424527469,376.0634858370677L358.9472866311771,375.83988714982934L358.45547120952324,375.4890144319552L357.7058573944523,375.69843706923893L357.41147432041544,376.9777835233308L356.82685070934895,377.1570649404148L355.67340873847206,376.04900685161647L355.1435007647633,376.0198566483796L354.3296921432084,376.2957071699275L353.54318966289065,376.09970635376885L352.9044664168541,373.7799136967933L352.6248754362605,373.4312212582863L351.52672944098595,372.93478901592516L351.252097379529,372.4777962781709L351.2571181755775,371.72972105226745L351.7347809672101,370.68187081653286L351.902415309105,369.8976979818517L350.8631235751491,367.3775464891205L348.78605627152865,366.2268866109116L348.1601496553012,366.114496286179L347.59002676798264,365.72446974526156L347.4985596278457,364.1733761214755L347.2389993407305,363.49122686096143L347.09151645832753,362.5089961981721L347.23402639130654,362.10872437084345L347.8548914676612,361.89878384836993L348.0585511305435,361.4251622325237L347.78383136271805,360.27481641973554L348.64912007406747,359.92384865845634L348.9290824375021,359.509938791276L347.610845414074,358.532642762013L346.6948871594104,357.10205715733537L346.19636720104245,355.68954243367443L345.5098607307482,354.8987133395103L344.2223330732595,355.073519608085L343.4698004369566,354.8869505651619L341.04345682139683,355.24513152902637L340.5652583220435,355.47209248490617L340.30560512615557,356.12690351940546L339.85800121991997,356.18555379967256L339.4206232504148,355.8307885455579L339.6704253452699,355.0032706885431L339.4518824319748,354.6987827375224L338.36353249958484,354.59375220043694L337.7072278359483,354.8252611860953L336.8527905855226,354.8477928585962L336.02894758186085,354.68378805014436L335.3629436783049,354.1468573470929L334.6942714532961,353.11496308831283L334.243112188291,352.8932300982178L333.217013984824,352.8608493024185L332.69204480478584,353.21387649691314L332.0197412410562,353.34840421626996L331.15967923033895,352.8423281485839L330.3854089425913,353.047502845875L330.2828887249598,353.6838776864706L330.6410864638274,354.18803041089905L330.084654350685,355.1245067057098L329.4278367744919,354.94699707843483L328.6332875155167,353.3985880470145L327.97487365927736,352.85968164564747L327.31517690167675,352.8039448104755L326.3138177787441,353.199773509883L326.23681233534444,353.6688923869633L326.6048017668545,354.3472818920163L325.98925665563,354.68312442070237L325.2652038023043,354.03262122405704L325.23147452244666,353.3992341149078L325.58471892542366,352.763226808338L325.44009213910977,351.9972104051685L324.6679918111804,351.5037737040384L323.81896282691014,351.6097844966516L323.12577112552754,352.28716525097116L322.1500802680748,352.771627105024L321.2631140027661,352.78006281603575L319.3331738557281,351.8642120375889L317.63437601386977,351.44963424271646L317.3555365074826,351.5533191120603L317.1307064118737,352.568724224122L316.5371768762234,353.05707196998446L315.5751669173005,352.82154740150963L314.86507387397796,352.81912215516513L314.9727377100462,353.9502196855474L314.2998754614091,354.3821978626838L313.3877939989652,354.4825056525433L312.9731047780151,353.7527073086312L313.4965443080182,352.64001909468334L312.9920330317873,352.474806196341L311.84942883466283,352.62103107039184L310.61978306070887,351.9386589530004L308.58093565870877,352.42350824194455L306.96489044222835,353.0252665921453L306.2857388443299,353.1243825037109L305.7090704642651,352.97693602008076L304.9697815621257,352.5011304228974L305.4936768828993,351.91759961620573L306.7833680269432,351.48385934271755L307.07336798489996,350.89906949726264L306.9663571151141,350.5085605873646L306.37592440539083,349.83286304190005L305.45872704122667,349.60036797638986L304.740305376632,349.8094186186927L305.0761931113411,351.0752974542529L304.73423568690123,351.6327122405737L304.01995779334175,351.82622557758896L303.34131921444714,351.5682523433734L302.65072247505304,349.6988031975734L302.20763854421966,349.2190271086765L301.66142496014436,349.3558848980465L301.3104546250215,350.0725936428362L300.65815578075126,350.8373595075691L299.9601805720231,350.7038330132973L299.00648000902584,350.02319459729006L299.08644178794566,349.5786887259719L300.3919242274933,348.4877646390705L300.1138178257461,348.0928912682375L299.2554148995732,348.1180223224437L297.8979358900215,347.91706886142674L296.06587172206855,347.3742736255308L294.81349861065974,347.36872235802366L294.653653483143,347.70059187576135L295.0168356709837,348.6590824897685L294.4200479610299,348.8711169015378L293.69121401327357,348.2990723556386L292.80733413865164,348.9163864596421L292.76424829753887,349.882711261469L292.2923849312174,350.5061538160644L290.4448122638496,351.4292957468042L289.01143725746806,352.2390065900636L288.4768495964563,352.1545996298246L288.50682213510663,351.30088286936734L287.96622238097916,350.6228376239469L287.0565884688149,350.5495916503578L286.4584225358594,350.92586625772856L286.46522792097676,351.8369781457741L285.72915901314263,351.9676149527895L285.463874230667,351.7380064957115L286.0270191223208,350.74661522394035L285.81270922091426,350.42639686481834L285.1113746234696,350.15807072917505L284.28759503459514,350.1943268176674L283.7995949479591,350.5041728601409L283.0428921489183,350.4970395248656L282.78459179526544,350.44336122326786L281.6791126937933,349.37705693413045L281.2266027493788,349.1994847120577L280.3876300758129,349.33290074569777L279.9846383979384,349.79082458587436L280.03458571769806,350.3378207739297L280.77465594747264,350.5105908363257L281.4047269056755,350.9166290875164L281.631249731181,351.4202193569263L281.2420249297975,351.76552029808136L280.06015902091895,351.6784790759557L278.0013549630421,350.92646914335273L276.90542953316617,350.7934387657124L276.308699065532,350.8915581338806L275.671986371457,350.36388092671314L275.61425994796446,349.24898840905917L275.24894126053186,348.40919579651927L274.90007653542125,348.1636057415499L274.68082596280874,348.12983114725193L274.49774435085783,348.15450632496686L274.3139929488607,348.1062485887642L273.6716297788116,348.0312160744161L273.58014842757257,348.04571491259867L273.21501172983335,348.18141129662035L272.45244399785224,348.2844646660469L271.627847158019,348.3022572591717L270.71338185332934,348.012811978082L270.6059618434774,347.97261878938207L269.96936877242115,347.4852700740839L269.9089228322482,347.0777229986752L269.8043208178933,346.8203352268738L269.6963502960534,346.7307972057379L269.1378829360219,346.87731017015085L269.0380572141112,347.0596588317785L268.93187203253547,347.12455736109405L268.7697940569815,347.2034491570803L268.43358877100763,347.18851113264736L268.1886565518944,347.14138321357586L268.03528003090105,347.084034396421L267.72814020116857,346.9377275501183L267.58970543059695,346.8438971931355L267.4564548179296,346.76832226974784L266.6609830296038,346.66343559116467L266.2879250880069,346.5664894292195L266.1815168419671,346.6174698038685L265.9389949968536,346.78753638580565L265.6960864548055,346.930791583407L265.6506805361205,346.96727358058433L264.3465969555655,347.4192544765374L264.0406329510479,347.3995330181997L263.88742023798113,347.3641977585239L263.2403121155039,346.9332942239671L262.53527838522496,345.8449554909812L262.17643616065106,345.0235519993721L261.65157005901347,344.54811447729935L261.8124811299167,344.03055569760545L261.3748985971033,343.84090696677777L261.3570145160047,343.0241922165096L262.1681737602303,342.47308344506746L262.1500357870791,341.58397052634973L262.8556685468102,341.3686369930929L263.55218733778383,341.46701912605386L264.69921305382377,342.6399593128717L265.10848203814385,341.8858178549599L264.89877451845314,341.45043672734846L265.5435387988364,341.25824656225905L265.3285274354348,340.7595876673431L266.64901567315246,340.6562139895841L266.93749042944546,340.3150440088575L267.815689791616,340.1357138500125L268.7638111579545,339.56597613235954L269.2571091133759,339.78680245782107L270.1199184584257,339.5040147234213L270.46670302299026,338.1574093467716L271.08995252618115,337.59046905609375L271.07080903948736,336.1629448556878L270.64333509627613,335.6321155110909L270.61734760982654,335.1596710149897L269.93592831011483,334.72918396463956L269.93948461737455,333.5070450787489L270.16237810563325,332.9659121517361L269.6371988362953,331.6489536008803L269.07777344685746,331.4045402109132L269.19057392375544,328.52319815186183L268.71188389519375,327.89641306286103L268.4361599228105,327.0287977583803L268.4198672057246,326.32417098462884L269.11103399800413,326.17331865864526L270.3253361632451,324.5401823669381L270.93515701653814,323.9121182830904L270.9349524323625,323.31204825630175L271.3161881285814,323.07495854344324L271.71252632193864,321.88870095218863L271.5906702638058,321.14493561973086L271.25002901702464,320.6231956402189L271.08241924612594,319.5936112294903L271.23026842620675,318.77741395629164L271.784986349503,318.30219789532293L271.3173055743973,317.054948198298L271.56668799069666,316.8012389063133L273.5511518684252,316.8321348425425L274.1873715360707,316.43901534487395L274.47077962715775,316.0142771147912L274.37403346757856,314.90370790126144L275.76483753031425,314.8189450558748L276.31762263910787,315.0200146573152L276.84725903005165,314.84413583312653L277.3748386639163,314.3041569336556L277.5554184786888,313.17372379031985L278.0243197320124,313.0032081597001L279.8263287540176,313.2087447218055L280.1717626763311,313.4715504844726L281.2561370315707,313.0920303954208L282.13561791608663,313.13399433496033L282.7395523326886,312.2755752109124L283.38633606807343,312.0579846920609L283.4799630771049,311.6252579028651L283.24663182902805,310.833159529152L282.94718421038124,310.59230722004213L281.33493433566764,310.0284161950758L281.0255501077263,309.80100686437345L280.9746870962117,309.5291208781691L280.86517078352335,309.38538083496496L280.5147910469168,309.14026621470293L279.97533277555704,309.1160773045749L279.92033189435824,309.16647760104297L279.70235045505615,309.47372007017657L278.9090791219387,309.4757967937594L277.8277828225,309.2596138939389L277.7053314578334,309.22958105640737L276.93724052033576,308.66809841888426L276.9039317775605,308.27341454165344L276.86231182028496,308.22408519477267L276.76485823605617,308.17527658213294L276.1425807712658,308.30289631760206L276.10255160552697,308.3307926473526L276.02172028170025,308.3543819487877L275.8179618553331,308.3254346808735L275.6409826065501,308.225693068106L275.39451402001214,307.8401327481506L275.36966214282074,307.72214817766326L275.3549995620415,307.59988551454626L275.3840478776183,306.5794036689658L275.42492160806796,306.4437270461158L275.45098656636037,306.30751590536784L275.52537505800865,305.69458127698545L275.5409402966834,305.64042352995875L275.4710514856706,305.43610847083073L275.22382850718714,305.2130504104607L274.5883645876165,305.5112234264161L274.29877137839503,305.61526489633525L274.19261363663463,305.56057425076415L274.1064050407622,305.5648683486552L273.55768260988043,305.7638602064835L272.9356673185175,306.3934841113387L272.8434647865797,306.75170342792444L272.08734741252556,307.05423047067234L271.6250602903274,307.45273930683743L269.6987004483417,307.3039912570439L268.5120268688406,307.4517169040246L267.61020176530656,307.1554090375894L267.05347499663185,306.6643457838345L266.9409287096896,305.75167608830816L265.43362956275087,304.2586835644197L263.90087029296046,304.2324152270294L263.13888493702325,302.9382018931901L262.33020571761153,301.90302734237775L262.28788468358107,300.924924959636L261.91482787698624,300.10944864224257L264.3251873058398,300.4790379569067L264.7932689303125,300.1705291554499L265.97779799391355,299.7325424748915L266.8928777800029,299.5451163235002L268.84709630935686,298.60725279385315L268.73201842877097,298.12894243350365L268.10225163776704,298.0851328083536L266.453800580457,297.32249645739194L266.4615253271186,296.60338683421924L267.198691304362,295.60683892064844L267.84529650708646,295.3782119638081L269.1056295192684,295.3291154230328L270.0795358623909,294.7561986122146L270.58744411956286,293.9313509872518L272.01714278064173,292.7610458932995L272.94499181311403,293.10628221782736L273.8195533938924,293.00593051030046L274.4259942400604,292.72703836989785L275.0759459269757,291.96178263300317L274.83978463046515,291.529046048895L274.84929157133956,290.8018855666396L274.607339581642,290.47801368317687L275.5297670878026,290.05059208414514L275.7643489542679,289.4564156150036L277.11731543277347,289.0617552875583L277.40332604805735,288.8070353852827L277.7817151637282,288.8472689903256L278.4322886948721,289.5170831877331L278.5393617015143,290.0485113808418L278.961571185082,290.247488498916L279.7543194313221,290.08293923014844L279.650493520312,290.7891719329318L279.21826860462534,291.1366124280321L281.15191394438443,291.67148869020366L282.5824888176212,291.26472117905814L282.9416099634873,291.90613905954797L282.4275724867002,292.2293985745782L282.3217541062695,292.82568236929546L282.8846774398917,293.45534768162725L283.02826473559253,292.69979923845585L283.99786032395787,292.72576405289874L284.65309764820995,293.38604195361404L285.5522003686601,293.4629717449434L286.1209624442272,294.163490319218L285.33017595699494,294.3873959700877L285.27957632439575,294.67856390729503L286.37978123077846,294.91375949858775L286.4115440441201,295.24518039439045L287.1756389380498,295.7795248412385L287.4758198179552,296.3019337718415L288.1118880783506,296.53330410529725L288.707753423605,296.25680356757493L289.3321246557134,295.3352400105141L290.27171843722317,295.4578747841333L290.76183985673924,295.7868229453061L291.2376934987951,296.4391121586623L292.2064832942888,297.0380236136234L292.29599774206145,297.4681481508742L292.82364067433446,297.90116253468113L293.4276233122473,297.2386670490705L293.7257514576231,296.83986358901257L293.8757224963192,296.68762314419473L294.0346636221693,296.4673366064162L294.60498546400777,295.64181950509555L294.8331937451294,294.97111551349917L295.026057118328,294.60979018136277L297.0610659497106,293.8339966173471L297.44848288099456,292.9526611520614L298.5373405062637,291.6899843158735L299.16918049842207,291.40942806939074L299.7390751762432,290.77062514886893L300.4006951931369,290.44454108012997L300.7574217584988,290.1536209748283L301.66992163095347,290.20097627843097L302.61340255273535,290.8586205865149L303.27540560536727,291.1342701090043L303.97447267176176,290.9021218497619L304.80899631218927,291.1393267012618L307.62222274962915,291.51406371646226L309.3304292104913,291.5232618607761L310.3823335059824,291.1146580731074L310.94591612161094,291.269680139354L311.3827779707317,291.8235624820454L312.03966636029145,291.83500481138617L312.1323581897341,292.19919260157985L312.7967075509987,292.44663441548437L313.9179563454818,293.2705065684095L314.91794424896216,292.65445324862594L315.67502757616967,292.37973263195727L316.72220650808595,292.6287579369773L318.82590594152134,292.305399652294L318.8369196153435,292.6823928076674L319.96816656728697,293.59980013354107L321.04923496271294,293.54978512314665L321.72851342452486,293.87301156045123L322.54640787300013,293.6805808845602L323.1949251097867,293.2439241120528L323.81305281505774,293.5858674649098L324.5020537768396,293.57991529078663L325.55367571392344,293.9220005154484L326.5945949361703,293.8383270399927L327.34358853517915,293.07641169309954L328.31794290956896,292.6296492003976L329.7228237929994,293.0920311358095L329.97554784457316,293.5831137946634L329.92219805647255,293.75408361904374L330.86840674758787,294.893560376624L331.0801803567301,295.393169841127L330.97856846697323,296.89502494319913L331.3676951989946,297.6217486355363L333.07317446063826,297.1608190429697L333.69648139090714,296.5082306929835L334.45768864753336,296.7197986805422L334.9506500585594,295.67928648108773L335.2812661668977,295.47448992568116L336.45175158347774,296.18019807392557L338.31793111384104,295.07258423022813L338.9663651339906,294.179911023296L339.7965045208366,294.2817963322241L340.25909227252123,294.8269887087272L341.20748269192336,294.3617927961004L342.34882465556075,294.2466421727413L343.0242420176546,293.0929548587974L343.99837843453133,292.8922628892751L344.59044083725894,292.5910601175119L345.48275180058044,292.4669266834526L345.63142752028216,292.1594326883396L346.61656434221004,291.65855698568885L347.6263041656093,291.45750795308504L347.7141381639194,291.02280563882414L349.00482440842825,290.60899907235944L349.7744995123285,290.8927867948096L350.18946590460473,290.6004099973934L351.79017498611574,288.896146531104L352.4589320551131,288.9486448925454L352.5523821281422,288.5917326456711L353.2304487864276,287.71657174828397L353.53182264714997,287.7129872723035L353.69027711505623,287.6731465115672L353.8442432866359,287.50190774678595L354.00433976474596,287.122104524713L354.21427434004363,287.00570568837065L355.1841666329201,287.0048291130415L355.4746687504776,287.0462819902241L355.97897069626924,287.14295854902684L356.10133220085845,287.13414825568543L356.99816393205765,287.2816786583071L357.2997721442807,287.1108089474328L357.67332726413224,286.8087777082892L357.8521301510955,286.7368372346127L358.21968899746935,286.6610763637145L358.3770131617275,286.5477976700622L358.60324216147274,286.4480795658883L359.02770103043076,286.2175099048227L359.12342978291053,286.1710898127285L359.4064435287546,286.09620663613623L359.83415857152795,286.03241711447845L360.5834466118031,285.894932130941L360.85101314445274,285.8323482660744L361.06601433499236,285.79858188797516L361.61458973339904,285.67721655987043L362.0073272776972,285.71845988419955L362.3236005030958,285.78954598980636L362.80323209734706,285.93721654069304L363.3053205080396,286.0136174716372L364.24439226176764,286.01721237766833L364.6653791252829,285.9722429109779L364.8387771964044,285.99094134138613L365.565369588312,285.8647605530259L365.93989555101507,285.83469032254925L366.29114959314757,285.9681030697848L366.40561032125333,286.0193622832303L366.70918555387107,286.17089759602914L366.85458513094636,286.19060652980534L367.5015649817942,286.1285960553578L368.5360282324,286.30578762001096L368.8174680198281,286.2556362889027L369.3491395060955,286.0919968519074L369.47482577881965,285.9631219896846L369.5268848325868,285.86995717958416L369.71615612616006,285.6372373347949L370.1723440459791,285.525409662765L370.30627670900503,285.53758781836314L370.8631955292549,285.9558664852484L371.5834702407483,286.32528795229064L372.1977208912285,286.64239544517113L372.6551618343801,286.7997956671861L373.1849093710334,286.98797215463856L373.26719748289906,287.0230707655537L374.2261820477979,287.49676326801364L375.21760346200244,287.828466314857L376.08655036416894,288.4622709938776L376.4807188218874,288.00553545664934L376.66230915204505,288.43078648347273L376.82534443337136,288.69243634692157L377.3631412105897,288.8163693525321L377.5642278177802,288.93228647565957L377.57150810786334,289.0411658482817L377.73117864619053,289.65350277716334L377.8076638145285,289.9256111769728L377.869409599356,289.95154521829045L378.16865782358946,289.8656104222582L378.326013357786,289.8360783053422L378.8143352678526,290.03815873727217L379.45372421938373,290.6799138685037L379.88317954052764,290.7375702178806L380.1963046490164,290.84689043691014L380.2396047869406,290.9826994688656L380.3462565091286,291.2270156513605L380.6810390244791,291.3997025034232L380.8242701340132,291.42481830504494L381.3344376755449,291.4446997859941L381.49782448232145,291.4564764211973L381.648995574782,291.8999091737787L381.61106308750095,292.04617665922433L381.53540642122243,292.35695228369514L381.51649958522466,292.4298112274555L381.5371363591221,292.707119388866L381.5894511994338,292.77914539946414L381.819648959201,292.8259911795694L382.02435824227723,292.86420720963997L382.1879681061364,292.88886222042765L382.618345524952,293.0060977669391Z" fill="#FF7B46" stroke = "#222" stroke-width=".3"></path>
    <text x="332" y="330" font-size= "3.2" font-weight="500">
      तनहुँ
    </text>
  </g>
</svg>