<svg xmlns="http://www.w3.org/2000/svg" xmlns:xlink="http://www.w3.org/1999/xlink" id="Layer_1" data-name="Layer 1" viewBox="0 0 626.87 841.75"><defs><clipPath id="clip-path"><rect x="14.48" width="595.71" height="841.75" style="fill:none"/></clipPath><clipPath id="clip-path-3"><rect x="29.12" y="49.68" width="569.07" height="704.46" style="fill:none"/></clipPath><clipPath id="clip-path-123"><rect x="450.1" y="757.02" width="147.61" height="63.37" style="fill:none"/></clipPath><clipPath id="clip-path-135"><rect x="14.48" width="595.5" height="841.49" style="fill:none"/></clipPath></defs><g style="clip-path:url(#clip-path)"><g style="clip-path:url(#clip-path-3)"><polyline points="432.58 374.43 433.06 374.91 433.3 375.63 434.02 376.35 434.26 377.31 434.5 378.03 434.26 378.51 434.02 378.99 434.02 379.47 434.02 379.71 434.26 380.43 434.74 380.67 434.98 380.67 435.46 381.15 435.46 381.63 435.46 381.87 435.7 382.35 436.18 382.59 436.66 382.83 436.9 383.07 437.14 383.31 437.86 383.79 438.1 384.03 438.34 384.51 438.34 384.99 438.34 385.47 438.34 385.71 438.34 385.95 438.82 386.67 439.3 387.15 439.78 387.63 440.26 388.11 440.26 388.59 440.5 389.07 440.5 389.79 440.98 390.27 441.46 390.75 441.7 391.23 441.94 391.23 442.18 391.47 442.66 391.47 442.9 391.47 443.38 390.99 443.62 390.27 444.82 389.55 445.06 389.55 446.26 389.55 447.22 389.55 448.42 389.55 448.66 389.79 449.86 390.99 451.06 391.95 451.54 392.67 452.5 393.63 452.98 394.35 453.46 394.83 454.42 395.31 455.14 395.55 456.34 396.27 457.06 396.51 457.78 396.75 458.5 396.99 459.22 397.71 459.22 398.43 459.94 398.91 460.66 399.39 461.86 399.63 462.82 399.87 463.78 400.83 464.26 401.31 464.98 402.51 465.22 403.23 465.46 403.47 465.94 404.19 466.9 404.91 467.38 405.39 468.34 406.11 469.06 406.11 469.78 406.35 470.5 406.35 471.7 406.35 472.42 406.35 473.14 406.35 473.62 406.11 474.1 405.87 474.58 405.63 475.06 406.11 475.3 406.59 475.54 407.07 475.54 408.03 475.54 408.75 476.26 409.71 476.98 410.67 477.46 411.39 478.18 412.11 478.66 412.83 478.9 413.79 479.38 414.51 480.1 415.23 480.58 415.71 481.06 415.71 481.54 415.47 482.02 415.23 482.26 415.71 482.26 416.43 482.5 416.91 482.98 418.11 483.46 418.83 483.7 419.55 483.7 420.27 483.7 420.51 483.94 420.99 483.94 421.23 483.7 421.95 483.46 422.67 483.22 422.91 483.22 424.35 483.22 425.07 483.22 425.31 483.22 426.75 482.98 427.48 482.5 428.68 482.5 429.15 482.26 429.39 482.02 429.63 481.54 431.07 481.54 431.56 481.54 432.27 481.54 433 481.3 433.71 481.3 435.15 481.06 435.63 480.34 436.83 479.86 437.32 479.38 437.8 478.66 438.28 477.94 438.52 476.74 439 476.02 439.24 475.54 439.48 474.82 439.24 474.34 439.24 473.62 439 473.86 439.48 474.1 440.2 474.34 440.68 474.34 441.4 474.1 442.12 473.62 443.08 473.14 443.56 472.42 444.52 471.7 445 470.98 445.72 470.5 446.2 469.78 447.4 469.54 448.12 468.58 448.84 468.1 449.56 467.86 450.76 467.38 452.68 466.9 453.16 466.9 454.6 467.14 455.32 467.62 456.28 467.86 457 468.1 458.2 468.1 458.92 468.58 459.4 468.82 459.88 469.3 460.12 469.54 460.36 469.78 460.84 470.02 461.32 470.02 461.56 470.74 461.8 471.94 462.28 472.18 462.52 472.66 462.76 472.66 463.48 472.66 465.16 473.14 466.36 473.38 466.6 474.34 467.08 474.82 468.04 475.3 469.48 475.54 469.72 475.78 471.4 476.74 471.64 479.62 471.64 481.06 471.4 481.78 471.4 482.5 471.16 482.74 471.16 483.22 471.4 484.9 472.12 485.86 472.12 487.06 472.12 488.5 471.4 488.74 471.4 489.94 470.68 491.62 471.4 492.82 471.88 493.78 472.36 494.5 471.88 494.74 471.88 495.22 471.64 496.18 471.4 498.1 471.64 498.82 471.64 499.06 471.88 500.02 473.08 500.5 473.32 501.22 473.32 501.22 473.56 502.66 474.52 502.9 474.52 503.14 474.76 503.86 475 504.82 475 505.54 475.24 505.78 475.24 507.46 475.96 507.7 476.2 508.42 476.68 508.66 477.4 508.9 478.6 508.66 479.08 508.42 479.32 508.42 479.8 508.9 480.04 508.9 480.28 509.38 480.04 509.38 479.8 509.86 479.8 510.34 480.04 510.58 480.04 511.54 480.52 512.74 480.52 512.98 480.76 513.94 481.24 514.66 481.48 515.86 481 516.58 481 516.82 481.24 516.82 481.48 517.06 481.96 518.26 483.64 519.94 484.6 520.18 485.32 520.66 485.8 521.38 486.28 521.62 486.76 521.62 487.96 521.86 488.44 522.58 489.16 522.82 489.88 523.06 491.8 522.82 492.52 522.82 493 522.34 493.96 521.62 494.68 521.14 495.16 520.9 495.4 520.9 495.88 521.14 496.12 521.62 497.56 521.38 498.76 520.42 501.16 520.18 502.84 520.42 504.76 520.9 504.28 521.62 504.28 522.34 505 523.54 505.24 524.98 505.24 525.94 505.96 526.66 506.2 527.14 506.2 528.1 505.96 528.82 505.96 530.26 506.44 531.46 507.16 532.18 508.12 533.62 508.84 536.5 512.2 537.22 513.16 537.7 514.12 537.94 514.12 538.42 514.6 539.38 515.32 539.86 515.8 540.34 516.28 541.06 516.76 541.54 517.24 542.26 517.96 542.98 518.2 543.94 518.92 545.14 520.12 545.38 520.12 546.58 522.28 546.58 523.48 547.06 523.96 548.02 526.12 548.26 526.36 549.22 526.84 549.94 527.56 550.42 527.8 551.38 528.04 552.1 528.76 552.82 529.48 553.54 530.2 556.18 531.16 556.9 531.16 557.38 531.16 558.1 530.68 558.34 530.68 559.54 530.92 561.22 531.64 565.3 533.8 566.26 534.52 569.38 537.4 570.34 537.88 570.34 537.64 570.34 537.16 570.58 536.92 570.82 536.44 571.06 536.2 572.26 536.92 573.46 538.12 574.42 539.08 575.38 539.8 576.1 540.04 576.58 540.04 577.06 540.04 577.54 540.52 578.5 540.76 578.99 540.76 579.23 541 579.71 541.24 580.18 541.72 580.66 541.96 581.14 542.2 581.63 542.2 582.11 542.44 582.59 542.44 583.07 542.68 583.3 542.92 583.78 543.64 584.02 543.88 584.5 544.12 584.75 544.36 585.23 544.6 585.47 544.84 585.95 544.84 586.9 545.32 587.38 545.56 587.63 546.04 588.11 546.52 588.35 547.24 588.59 547.72 588.83 547.96 589.3 548.45 589.78 548.68 590.26 549.16 590.26 549.64 590.5 550.13 590.5 550.61 590.5 551.33 590.99 551.8 590.99 552.28 591.23 553 590.99 553.25 590.99 553.73 590.99 554.21 590.99 554.68 590.99 555.16 591.47 556.13 591.71 556.85 591.95 557.8 592.18 558.28 592.42 558.76 592.42 559.25 591.95 559.97 591.95 560.45 591.71 560.93 591.47 561.65 591.47 561.89 591.23 562.13 591.47 563.09 591.47 563.81 591.23 564.53 591.23 565.01 591.23 565.25 590.99 565.49 590.75 565.73 590.75 565.97 590.75 566.45 590.99 567.17 590.75 567.65 590.5 568.13 590.26 568.61 589.3 569.33 589.3 569.57 589.07 569.81 588.59 570.05 588.35 570.29 587.87 570.05 587.63 570.05 586.9 569.81 586.66 569.81 586.18 569.81 585.71 570.05 585.23 570.53 584.99 571.01 584.75 571.49 584.75 571.97 584.75 572.21 584.99 572.45 585.23 572.69 585.47 572.93 585.71 573.41 585.47 573.65 585.23 573.89 584.99 574.37 584.75 574.85 584.75 575.57 584.75 576.05 584.75 576.77 584.75 577.25 584.99 577.97 585.47 578.45 585.71 578.69 585.95 579.41 586.18 580.37 586.18 580.85 586.42 581.33 586.66 582.05 586.9 582.29 587.14 582.53 587.38 582.77 587.87 583.01 588.35 583.49 588.59 583.73 588.83 584.21 589.07 584.45 589.3 585.17 589.07 585.65 589.07 585.89 588.83 586.37 588.59 586.85 588.35 587.09 588.11 587.33 587.63 587.81 587.38 588.29 587.14 588.53 586.66 589.01 586.42 589.25 586.42 589.49 585.71 590.45 585.71 591.41 586.18 592.61 586.9 593.33 587.63 594.05 588.11 594.53 588.35 594.77 588.83 595.25 589.3 595.49 589.54 595.73 589.54 595.97 589.3 596.21 588.83 596.69 588.59 597.17 588.35 597.41 588.35 597.89 588.11 598.61 587.87 599.09 587.87 599.33 587.87 599.81 587.87 600.05 588.11 600.77 588.11 601.25 588.11 601.97 588.11 602.45 587.87 602.93 587.87 603.41 587.63 603.65 587.14 603.89 586.9 604.37 586.66 604.85 586.42 605.33 586.18 605.57 586.42 606.05 586.42 606.29 586.66 607.25 586.42 607.97 586.42 608.69 586.18 608.69 585.95 609.41 585.95 610.13 585.95 610.61 586.18 610.85 585.95 611.09 585.71 611.33 585.47 611.57 585.23 611.81 584.99 612.05 584.75 612.53 584.5 612.77 584.5 613.25 584.75 613.49 584.99 613.97 584.99 614.45 584.99 614.93 584.75 615.17 584.26 615.65 584.02 616.37 584.02 616.85 583.78 617.33 583.54 617.57 583.54 618.05 583.3 618.29 583.3 619.01 583.07 619.73 583.07 620.45 583.3 620.93 583.3 621.65 583.3 621.41 583.07 621.41 582.83 621.17 582.35 620.93 582.11 620.93 581.87 620.69 581.14 620.45 580.66 620.45 580.42 620.45 579.95 620.21 579.47 620.21 579.23 620.21 578.99 620.45 578.75 620.69 578.75 620.93 578.5 621.17 578.5 621.89 578.5 622.37 578.5 622.61 578.26 622.85 578.02 623.33 578.02 623.57 577.78 624.05 577.54 624.05 577.54 624.29 577.3 624.77 577.3 625.01 577.3 625.25 577.06 626.21 577.06 626.45 577.06 627.17 576.82 627.41 576.82 628.13 576.82 628.85 576.58 629.33 576.34 629.57 576.34 629.81 575.86 630.29 575.62 630.53 575.38 630.77 574.9 631.01 574.66 631.25 574.66 631.49 574.42 631.73 574.42 631.97 574.18 632.93 574.18 633.17 573.94 633.41 573.94 633.89 573.7 634.13 573.7 634.37 573.46 634.85 573.22 635.09 572.98 635.57 572.74 635.57 572.74 635.81 572.5 636.05 572.26 636.77 572.02 637.25 571.78 637.49 571.54 637.73 571.3 637.73 570.82 637.97 570.58 637.97 570.34 637.97 570.1 638.21 569.86 638.45 569.62 638.69 569.38 638.69 568.42 638.69 567.22 639.41 566.02 639.65 564.82 639.89 563.62 639.65 562.9 639.17 561.46 639.17 560.02 639.41 558.82 639.65 557.86 640.13 556.9 640.85 555.94 642.05 555.46 643.49 555.46 644.93 555.7 646.13 555.94 647.33 555.94 649.01 555.94 650.93 554.98 652.13 554.26 652.61 552.82 653.57 551.86 654.05 551.14 654.53 549.94 655.25 549.46 655.73 549.22 655.97 548.98 655.97 548.74 656.21 548.26 656.21 547.78 656.45 547.54 656.45 547.3 656.69 547.06 656.93 546.82 657.17 546.34 657.41 545.86 657.41 545.38 657.65 544.42 657.89 544.18 657.89 543.7 658.13 543.22 658.37 542.5 658.85 542.26 658.85 541.3 659.81 540.58 660.29 540.1 660.53 539.62 660.77 538.9 661.01 538.42 661.25 537.7 661.97 536.74 662.93 536.5 663.17 535.78 663.41 535.3 663.65 534.82 663.65 534.1 663.65 533.86 663.89 533.14 664.37 532.42 664.85 531.94 665.09 531.46 665.33 530.98 665.57 530.98 665.81 530.74 666.29 530.74 667.01 530.5 667.49 530.5 667.97 530.26 668.69 530.02 668.93 529.78 669.41 529.78 669.65 528.82 670.37 528.58 670.85 528.1 671.58 527.62 671.82 527.38 672.05 526.9 671.82 526.18 671.58 525.94 671.34 525.46 671.34 524.98 671.58 524.74 671.58 524.5 671.58 523.78 671.82 523.3 671.82 522.34 672.05 521.86 672.29 521.38 672.53 520.9 672.53 520.42 672.53 520.42 672.77 519.94 672.77 519.7 672.77 519.46 672.77 518.98 672.77 518.74 672.77 518.26 673.01 518.02 673.25 517.54 673.25 517.3 673.25 517.06 673.25 516.58 673.01 516.34 673.01 515.86 673.01 514.9 673.25 514.9 673.5 514.18 673.74 513.46 673.74 512.74 673.74 512.5 673.74 512.26 673.98 511.78 674.22 511.3 674.46 510.82 674.7 510.58 674.7 510.34 674.7 510.1 674.93 509.86 675.17 509.62 675.65 509.38 675.65 509.14 675.65 508.42 675.89 508.18 676.13 507.94 676.38 507.7 676.38 507.22 676.13 507.22 675.89 506.98 675.89 506.5 676.13 506.26 676.13 505.54 676.38 505.3 676.38 505.06 676.62 504.58 676.62 504.34 676.62 504.1 676.38 503.86 676.38 503.38 676.13 502.9 676.13 502.18 675.89 501.7 675.89 501.46 676.13 500.98 675.89 500.5 675.89 499.78 675.41 499.54 675.17 499.3 675.41 499.06 675.41 498.58 675.65 498.34 675.89 497.86 676.13 497.62 676.38 496.9 676.38 496.42 676.38 495.94 676.62 495.22 676.62 494.98 676.86 494.26 677.1 493.78 677.34 493.54 677.58 493.3 677.82 492.82 678.05 492.58 678.05 491.86 678.53 491.14 679.25 490.9 679.5 490.66 679.74 490.42 679.98 490.18 680.22 489.94 680.22 489.7 680.22 489.46 680.22 489.22 680.22 488.74 680.22 488.5 680.22 488.02 679.74 487.3 679.25 487.06 679.01 486.58 678.53 486.34 678.05 485.86 677.82 485.62 677.82 485.14 677.58 484.42 677.34 483.94 677.1 483.7 676.86 483.7 676.62 483.46 676.38 483.22 675.89 483.22 675.41 482.98 674.93 482.74 674.7 482.26 674.46 481.54 673.98 481.3 673.5 481.06 672.53 479.62 670.13 479.38 669.89 479.14 669.65 478.66 669.65 478.18 669.65 477.7 669.65 477.46 669.89 477.22 670.13 476.98 670.37 476.74 670.37 476.26 671.09 476.02 671.09 474.82 672.05 474.58 672.05 474.1 672.29 473.86 672.53 473.14 673.25 472.42 673.74 472.18 673.74 471.46 673.98 471.22 673.98 470.74 674.22 470.02 674.22 469.78 674.46 469.54 674.7 469.06 674.7 468.58 674.7 468.1 674.46 467.86 674.46 467.38 674.46 466.66 674.46 465.46 674.93 465.22 674.93 464.98 674.93 464.5 674.7 464.02 674.7 463.54 674.7 463.06 674.46 462.1 674.22 461.86 674.22 461.62 673.98 460.9 673.25 460.66 673.01 460.42 673.01 459.7 673.01 459.22 673.01 458.98 672.77 458.98 672.53 458.74 672.53 458.74 672.29 458.02 671.82 457.54 671.82 457.06 671.82 456.34 672.05 455.62 672.53 454.66 673.25 454.42 673.25 454.42 673.5 453.46 674.22 452.98 674.93 452.74 675.41 452.26 676.38 452.02 676.86 451.78 677.1 451.54 677.34 451.06 678.05 451.06 678.53 450.82 678.77 450.58 679.25 450.58 679.98 450.1 680.7 449.86 680.93 449.38 681.17 449.14 681.41 448.66 681.41 448.18 681.41 447.94 681.41 447.46 681.17 446.98 680.93 446.74 680.93 446.5 680.93 446.02 681.17 445.78 681.65 445.54 681.65 445.06 682.38 444.82 682.86 444.34 683.1 444.1 683.34 443.62 683.82 443.62 684.06 443.38 684.54 443.38 685.26 443.14 685.5 442.9 685.74 441.94 686.46 441.94 686.22 441.22 686.46 440.98 686.7 440.74 686.7 440.5 686.7 440.26 686.94 439.54 686.94 439.3 686.94 438.58 686.7 437.86 686.7 436.9 686.94 435.94 686.94 435.46 686.94 434.5 686.94 433.06 686.94 432.34 686.94 431.86 686.7 431.62 686.7 430.9 685.74 430.42 685.26 430.18 685.02 429.7 685.02 429.46 684.78 428.98 684.78 428.74 685.02 428.02 685.02 427.78 685.02 427.3 685.26 426.58 685.5 426.34 685.5 425.38 685.5 423.94 685.74 423.22 685.5 422.02 685.26 421.54 685.26 420.58 685.02 418.9 684.78 417.94 684.78 417.46 685.02 417.22 685.26 416.5 685.26 416.02 685.26 415.54 685.26 415.06 685.02 414.34 684.54 413.86 683.82 413.62 683.58 413.14 682.38 412.9 682.13 412.42 680.7 411.94 679.98 411.7 679.5 411.7 679.25 411.46 678.53 410.74 677.34 410.02 676.38 409.54 675.17 409.3 674.93 409.06 674.7 408.82 674.7 408.1 674.7 407.62 674.7 406.66 674.7 406.18 674.7 405.22 674.46 404.02 674.22 402.82 673.74 402.1 673.5 401.86 673.5 401.38 673.01 400.66 672.53 400.42 672.29 400.18 672.05 399.46 671.82 398.74 671.58 398.5 671.34 398.02 671.09 396.58 670.37 396.1 670.13 395.38 670.13 394.9 670.13 394.66 670.37 392.74 671.34 391.78 671.82 391.54 671.82 391.3 671.82 390.58 671.82 390.1 671.82 389.86 672.05 389.62 672.05 389.38 672.05 389.14 671.82 388.66 671.82 388.42 671.58 387.46 671.09 387.22 670.85 386.26 670.37 385.78 670.13 386.02 669.41 385.78 668.93 385.54 668.69 385.3 668.45 385.06 667.97 384.82 667.97 384.34 667.73 384.1 667.49 383.62 667.01 383.14 666.29 382.9 665.81 382.9 665.57 382.9 665.09 382.66 664.13 382.66 663.89 382.42 663.65 381.94 663.41 380.74 662.21 379.54 661.01 379.3 660.77 378.82 660.29 378.58 660.05 378.1 659.57 377.14 659.09 376.42 658.85 375.94 658.61 375.21 658.37 374.98 658.13 374.74 657.89 374.5 657.65 374.25 656.93 373.77 656.21 373.54 655.49 373.06 654.77 373.06 654.53 371.62 653.57 370.89 653.09 370.18 652.85 369.69 652.37 369.45 652.13" style="fill:none;stroke:#005ce6;stroke-linecap:round;stroke-linejoin:round;stroke-width:1.440060019493103px"/><polyline points="369.45 652.13 368.98 650.69 368.25 650.45 367.06 650.21 366.1 649.97 365.38 649.73 364.42 649.25 363.45 648.77 362.98 648.53 362.25 647.57 361.3 646.85 359.86 645.89 360.57 645.17 360.57 644.21 361.3 641.33 360.33 638.45 360.33 637.97 361.77 636.53 362.01 636.29 361.3 636.29 360.81 636.53 360.57 636.53 359.86 637.01 359.13 637.49 357.94 637.49 357.69 637.01 357.45 636.05 357.21 635.81 355.77 635.57 355.54 635.33 353.62 634.37 352.89 634.13 352.41 634.13 351.93 633.89 351.93 632.69 351.69 632.45 350.97 632.45 349.77 631.25 348.81 631.01 348.09 631.25 347.13 631.25 345.93 630.77 345.21 630.53 344.49 631.01 342.81 630.53 341.61 631.25 340.65 631.25 340.17 631.01 339.45 629.33 338.73 629.09 337.77 629.09 336.09 629.81 335.13 629.81 333.21 630.05 330.57 631.49 329.85 632.45 328.41 632.93 327.45 633.89 326.25 635.57 325.29 635.57 324.57 635.57 322.41 636.29 321.69 636.53 319.05 637.97 318.57 638.45 318.09 638.93 317.61 639.17 317.13 639.17 316.41 638.69 315.69 637.97 315.21 637.49 314.25 637.01 310.65 637.25 309.93 636.29 308.97 634.85 307.29 633.65 307.05 633.41 306.33 632.69 305.85 632.21 305.13 631.73 304.65 631.25 304.41 630.53 303.93 629.57 303.21 628.61 302.49 627.89 301.77 627.65 301.05 627.41 299.61 627.41 298.89 626.93 298.17 626.69 296.97 625.97 296.01 625.49 295.53 625.25 295.29 625.49 294.09 625.97 293.13 626.45 292.65 626.45 292.17 626.21 291.45 625.97 290.97 625.49 290.73 625.49 290.25 625.49 290.01 625.73 289.53 626.21 288.81 626.93 288.33 627.41 287.85 627.41 287.13 627.41 286.65 627.17 286.41 626.93 285.93 626.93 285.69 627.41 285.21 627.65 284.49 627.89 283.77 627.65 283.05 627.17 281.61 627.17 281.37 627.17 280.89 626.69 280.41 625.49 280.41 625.25 280.89 624.77 280.89 624.29 280.89 623.33 281.13 621.89 280.89 620.69 281.13 619.97 280.89 618.05 280.41 617.57 279.69 616.61 278.97 615.89 277.77 615.41 277.53 615.41 277.29 615.17 276.57 614.45 275.85 614.21 274.65 613.97 273.45 613.73 271.77 613.49 270.57 613.73 269.13 613.49 268.89 613.49 268.41 613.25 267.69 613.01 267.21 611.81 267.21 610.61 266.49 609.65 266.49 609.17 266.25 608.93 265.77 608.45 265.77 607.73 265.77 605.57 264.81 604.13 264.09 603.17 263.37 602.45 262.65 601.97 262.17 601.73 261.45 601.01 260.49 598.85 260.25 598.13 260.01 597.41 259.53 596.93 259.53 596.69 259.53 596.21 259.77 595.49 259.77 595.01 259.77 594.77 259.53 594.53 258.81 594.53 258.33 594.53 258.09 594.05 257.61 593.57 257.61 593.33 257.13 592.61 256.89 592.61 256.41 592.37 256.17 592.13 255.45 592.61 254.97 592.61 254.73 592.37 254.25 592.13 253.53 591.89 252.81 591.89 252.33 592.13 251.61 592.37 250.41 592.61 250.17 592.61 249.21 592.61 248.49 592.85 248.01 593.09 247.53 593.09 247.05 593.33 246.33 594.05 245.85 594.53 245.61 594.77 245.13 595.01 244.89 595.25 244.17 595.25 242.25 595.49 241.53 595.97 240.81 596.21 240.09 596.21 238.89 596.45 238.17 596.69 237.21 596.93 236.25 596.93 235.53 597.17 234.09 597.41 233.61 597.41 233.13 597.17 232.65 597.17 231.93 596.93 231.21 597.17 230.25 597.41 229.29 597.65 228.09 598.13 226.65 599.09 226.17 599.81 225.45 600.29 224.73 600.77 224.25 601.01 223.77 601.49 222.81 601.73 222.33 601.73 221.85 601.49 221.13 601.25 219.93 601.01 218.73 601.49 217.77 602.21 216.57 602.21 215.61 602.69 214.41 602.45 213.21 602.21 212.73 602.45 212.01 602.45 211.29 602.69 210.33 602.45 208.89 602.21 208.41 601.97 207.45 601.25 206.97 600.77 206.73 600.53 206.25 600.29 205.29 600.05 204.09 599.57 202.65 599.33 202.17 599.09 201.21 598.37 200.73 598.13 199.77 597.65 199.05 597.17 198.09 596.45 197.37 595.73 196.41 595.25 195.93 595.01 195.45 594.77 195.21 594.53 194.97 594.53 195.21 595.01 194.97 595.49 193.29 596.69 192.33 597.89 191.61 598.85 191.13 599.81 190.41 600.29 189.69 599.81 188.73 599.33 188.25 599.33 187.53 599.81 187.29 600.05 185.61 600.29 184.89 600.77 184.41 601.49 184.17 601.97 184.17 602.69 183.21 603.41 182.97 603.65 182.49 604.37 182.25 605.09 181.53 605.81 180.57 606.53 179.85 607.49 179.13 607.73 177.93 608.21 177.45 609.17 176.97 609.41 176.25 608.45 175.05 607.25 174.33 606.53 173.61 605.57 169.05 602.93 168.57 602.45 168.09 601.97 167.37 600.53 167.13 599.81 166.17 598.37 164.97 597.41 164.25 597.17 163.77 596.69 163.29 595.97 162.57 595.25 162.09 595.25 161.85 595.25 158.73 595.01 158.25 594.77 157.53 594.29 157.05 594.05 156.81 593.81 156.09 593.33 155.61 593.09 154.89 592.37 154.65 591.89 154.17 591.65 153.69 591.41 153.45 591.17 152.97 591.17 152.25 590.93 151.53 591.17 151.05 591.41 150.56 591.17 150.32 591.17 149.84 591.17 149.37 591.17 148.41 591.41 147.44 591.89 146.49 592.37 146.25 592.61 145.76 592.85 145.04 593.09 144.56 593.09 144.09 592.85 142.88 592.13 142.16 591.65 141.93 591.65 141.69 591.41 141.44 590.93 140.97 590.69 140.72 590.69 140.25 590.69 139.76 590.45 139.04 590.21 138.32 589.73 137.37 589.25 137.37 589.01 136.65 588.29 135.93 587.81 135.21 587.33 134.25 586.85 133.76 586.37 133.28 586.37 132.81 586.37 131.6 586.85 130.65 587.33 130.16 587.33 128 585.17 126.8 584.93 127.04 583.73 127.28 579.65 127.04 577.97 127.04 577.01 126.8 575.81 126.56 574.37 126.32 573.89 125.36 571.25 125.12 570.05 125.36 569.09 126.08 567.17 127.28 565.01 128.49 561.17 128.97 559.49 129.21 557.57 129.44 556.61 129.69 555.64 129.69 554.45 129.69 552.04 129.44 548.92 129.44 547.48 129.69 546.28 129.93 544.84 130.16 543.64 129.93 543.64 130.41 543.16 130.88 540.04 132.09 536.44 133.04 534.52 134 533.32 136.16 532.36 137.84 531.16 139.53 528.76 140.97 526.84 141.21 524.92 141.21 523.72 142.65 522.28 143.37 521.56 143.13 519.16 144.09 517.48 143.84 515.56 144.56 512.68 145.53 511 145.53 510.76 146.25 509.32 146.25 507.88 146.49 505.72 147.44 503.8 147.21 500.92 146.25 499.72 145.53 498.28 145.04 497.32 144.81 496.84 145.28 494.92 145.76 493.72 146.25 492.04 146.25 490.84 146.25 490.36 145.53 490.36 144.56 489.88 145.28 488.92 145.28 488.68 145.76 487.72 146 486.28 146.25 485.56 146.97 483.16 147.21 482.2 147.21 481.72 147.21 480.04 146.72 479.08 146.72 478.36 146.72 477.64 146.72 476.92 147.21 475.72 148.16 474.52 148.41 473.8 149.37 471.4 149.84 470.68 149.84 469.72 150.09 468.52 150.56 467.8 151.29 466.6 151.77 465.88 152.01 465.64 152.97 464.92 154.89 464.44 156.33 463.96 156.57 463.72 158.25 463.24 159.93 462.52 161.13 461.56 162.09 460.6 163.05 459.88 164.73 459.64 166.89 459.88 167.85 459.64 169.53 459.16 170.97 458.2 172.65 457.24 174.09 456.76 175.05 456.04 176.49 454.6 177.21 453.16 177.93 451.72 178.17 450.52 178.41 449.08 178.89 447.16 179.37 446.44 180.57 445.48 181.29 444.76 181.77 443.8 182.49 442.36 184.41 438.76 184.65 438.28 185.61 436.12 185.85 434.44 186.09 431.07 186.09 427.95 185.85 426.75 185.37 425.8 182.97 423.63 182.01 422.67 181.05 421.71 181.05 419.55 181.29 418.11 181.29 417.87 181.53 415.95 182.01 414.27 182.01 414.03 182.25 413.79 182.49 413.55 183.21 412.83 184.41 412.11 185.61 411.39 186.57 410.67 187.05 410.19 187.29 409.23 188.01 408.03 188.25 408.03 189.21 406.59 190.17 405.63 191.37 404.91 192.57 403.71 193.05 403.23 194.25 402.75 194.73 402.51 195.45 403.47 195.69 405.15 195.69 406.35 198.09 407.31 200.01 409.23 201.93 411.15 203.61 411.63 205.53 412.83 206.73 414.27 208.17 415.95 209.37 416.91 210.81 418.59 212.01 419.31 213.93 420.51 215.61 421.71 218.01 422.19 220.17 421.47 221.85 420.27 224.01 420.27 225.45 420.99 225.45 421.71 224.01 423.15 222.09 424.11 221.13 425.07 218.49 429.88 217.53 432.75 216.09 434.44 215.37 436.83 214.89 438.52 215.13 440.92 215.37 440.92 218.01 440.68 220.17 441.64 221.13 441.4 222.57 440.68 224.97 441.64 228.33 442.6 230.49 443.32 232.65 443.08 233.85 441.88 236.01 440.44 237.45 439.24 237.21 438.04 237.45 436.6 239.13 436.12 240.09 434.19 241.05 431.8 242.73 430.12 245.37 429.39 246.57 428.68 247.77 426.51 249.21 423.87 249.69 423.39 251.37 422.91 252.81 421.71 254.97 421.47 256.41 421.23 258.33 421.23 259.77 418.83 260.97 418.35 262.65 417.15 265.05 416.91 267.21 415.95 270.09 414.51 272.01 414.03 272.49 414.75 273.45 415.71 275.37 415.95 278.01 416.19 278.73 416.67 279.69 416.67 280.65 416.91 281.85 417.63 282.09 418.11 282.33 419.55 282.57 420.51 282.81 421.47 282.81 422.43 282.81 423.15 282.33 424.35 282.09 425.31 281.61 427.24 281.61 427.95 281.85 429.15 281.85 430.36 281.85 432.75 281.61 434.19 280.65 436.12 279.93 437.32 281.85 438.76 283.77 440.44 285.45 441.88 286.89 442.6 287.61 443.08 289.05 444.52 289.77 444.76 290.73 443.8 293.61 443.8 294.81 443.56 296.25 443.32 298.41 442.6 300.09 441.4 302.97 440.68 304.65 440.2 305.85 439.48 307.53 438.52 308.97 437.8 310.89 437.08 313.29 435.15 315.21 433.71 316.17 432.75 317.13 432.04 318.09 431.56 319.29 431.31 319.77 431.31 320.01 431.31 320.73 431.31 321.45 431.07 321.93 430.83 322.65 430.83 323.61 430.36 324.09 430.36 324.33 430.12 325.53 429.39 325.77 429.15 326.01 428.92 326.73 427.71 327.21 427.48 327.45 427.24 328.65 427 329.13 426.75 330.09 426.51 330.81 426.04 331.05 425.8 331.29 425.56 332.73 424.59 332.73 424.35 332.97 424.35 333.21 424.11 333.93 423.39 334.41 423.15 334.65 422.67 336.81 422.67 337.29 422.43 338.49 421.95 338.97 421.71 339.21 421.47 339.93 420.51 340.41 420.03 340.65 420.03 342.57 419.31 344.01 418.59 344.49 418.35 344.49 418.11 345.45 416.91 345.93 416.91 345.93 416.43 346.17 416.19 347.37 415.47 347.85 415.23 348.57 414.75 349.77 414.27 350.25 414.03 350.73 414.03 351.93 414.03 352.89 413.79 354.33 413.55 354.57 413.55 356.5 412.59 356.74 412.35 358.18 411.15 358.65 411.15 359.86 410.43 361.06 408.99 361.54 408.51 362.25 408.27 362.98 408.51 363.69 408.27 364.18 408.27 365.13 408.51 365.38 408.27 366.57 408.03 366.81 407.79 367.3 407.31 367.54 407.31 368.98 406.11 369.45 406.11 370.42 405.15 370.89 404.91 371.13 404.67 371.86 404.67 372.1 404.67 372.81 404.43 373.3 404.19 374.5 403.71 374.98 403.47 375.21 403.47 376.9 403.47 377.38 403.23 377.86 402.99 378.34 402.51 379.06 402.27 379.3 401.79 379.3 401.31 379.54 400.35 379.54 398.91 380.26 398.67 381.7 397.95 381.94 397.47 383.14 397.23 384.1 396.27 384.34 396.03 385.06 395.07 385.3 394.83 386.74 393.63 386.98 393.39 387.22 393.15 388.66 392.43 388.9 392.19 389.62 391.71 389.86 391.47 391.06 390.75 391.78 390.27 392.5 390.03 392.74 390.03 392.98 389.79 393.46 389.55 394.42 389.55 395.38 389.55 396.58 389.79 397.78 389.31 398.26 389.31 399.7 389.31 400.42 389.31 400.66 389.31 402.1 389.07 403.54 388.59 404.26 388.11 405.22 386.91 405.46 386.67 406.66 385.47 407.38 384.99 407.86 384.99 409.06 384.75 409.54 384.99 410.02 384.51 410.74 382.11 410.98 380.67 411.22 378.99 412.9 377.55 413.62 377.07 416.98 376.11 418.18 375.39 418.66 375.39 418.9 374.91 419.62 374.43 420.58 374.43 421.3 374.19 422.02 373.95 422.5 374.19 423.22 374.67 426.1 374.43 426.58 374.19 427.54 373.95 428.5 373.47 428.98 373.23 429.46 372.75 429.94 372.75 430.18 372.75 430.66 372.75 431.38 372.99 431.86 373.23 432.1 373.23 432.1 373.47 432.58 374.43" style="fill:none;stroke:#005ce6;stroke-linecap:round;stroke-linejoin:round;stroke-width:1.440060019493103px"/><polyline points="425.86 118.09 427.3 118.33 428.74 118.09 429.46 118.57 429.94 118.57 431.14 118.33 431.86 117.85 432.58 117.85 433.3 118.09 434.26 118.57 435.46 119.77 436.18 120.25 436.66 120.49 437.62 120.25 438.34 119.77 439.3 119.77 440.98 120.01 442.42 120.01 443.38 119.53 443.86 119.29 444.1 118.57 444.58 118.33 445.06 118.57 445.3 120.49 445.54 121.45 445.78 122.41 446.26 123.13 446.98 123.85 447.7 124.81 448.42 126.01 449.38 126.97 449.86 127.93 450.82 129.37 451.54 130.09 452.26 130.33 452.74 130.57 455.14 132.01 456.1 132.25 458.02 133.93 458.98 134.89 459.46 135.85 462.58 138.73 464.5 138.01 464.98 137.77 465.94 137.77 466.18 137.77 467.86 138.25 468.1 138.25 468.82 138.01 470.74 136.81 472.9 135.85 474.1 135.61 475.78 135.37 478.18 135.85 478.9 136.09 479.86 136.57 481.06 136.81 482.26 136.57 482.5 136.81 482.74 136.57 483.7 136.81 486.34 138.25 489.46 138.97 491.62 139.21 492.82 139.21 495.46 138.25 497.38 138.49 498.34 138.01 500.02 138.25 500.26 138.25 502.66 139.21 503.38 140.17 503.86 141.13 504.34 141.85 504.1 143.53 504.34 144.01 505.3 144.25 506.98 145.21 508.9 146.17 508.9 146.41 509.38 146.41 509.38 146.65 509.14 147.85 508.42 148.81 507.7 150.25 506.98 151.21 506.98 151.69 506.98 152.17 507.22 152.41 507.46 153.61 508.42 157.21 508.18 158.17 508.18 159.37 508.18 160.57 508.18 161.77 507.22 165.61 507.22 168.49 508.42 172.57 506.5 175.69 506.26 176.89 506.02 181.46 505.3 183.85 505.06 186.97 506.26 188.66 506.26 190.09 507.22 191.54 507.22 193.7 507.94 196.1 507.46 197.06 507.22 197.54 506.98 198.02 506.74 198.74 506.74 199.7 506.5 200.9 506.26 201.86 506.26 202.82 505.78 203.3 504.34 204.02 503.38 204.98 502.66 206.18 501.7 207.38 501.7 207.86 501.94 208.58 501.94 208.82 502.42 209.78 502.18 210.74 501.94 211.22 502.66 211.94 502.9 212.42 503.38 213.14 503.62 214.82 503.38 216.5 503.14 217.46 503.14 218.18 503.62 219.62 503.62 220.34 503.86 221.3 503.62 221.78 503.62 222.5 503.62 223.46 503.86 223.94 503.86 225.38 503.62 225.62 503.38 226.1 503.38 226.82 503.38 227.54 503.62 228.02 504.58 228.5 504.58 228.98 504.58 229.94 504.58 231.14 504.34 232.1 503.86 232.82 503.86 233.3 503.62 234.02 503.14 234.74 502.66 235.7 502.18 236.66 502.18 236.9 502.18 237.86 502.18 238.58 502.42 239.54 502.42 240.26 502.18 240.74 502.18 241.94 501.94 243.14 501.7 244.1 501.94 244.58 502.42 245.06 502.9 245.78 503.14 246.5 503.38 247.46 503.86 248.42 504.58 248.66 504.82 249.38 505.06 250.1 505.3 250.82 506.26 252.98 506.5 254.18 506.26 255.38 505.78 256.34 505.54 257.06 505.78 257.78 506.26 258.98 506.5 259.46 506.5 259.7 506.74 260.42 507.22 261.14 507.46 262.34 507.22 263.3 506.98 264.5 506.5 266.18 506.5 266.66 506.5 267.14 506.5 267.86 505.78 268.1 505.54 268.34 505.06 269.3 503.86 271.22 503.38 272.18 502.18 272.66 501.7 273.14 500.26 273.38 498.82 274.34 497.14 274.82 496.18 275.54 495.7 276.26 494.98 276.98 494.26 276.98 493.06 277.94 491.86 278.42 490.66 279.86 489.46 279.62 488.98 279.62 487.78 280.34 485.86 280.1 484.42 280.1 482.98 280.34 482.74 280.82 482.26 282.74 482.26 283.7 482.02 284.9 481.3 286.34 480.82 286.82 479.86 288.98 478.18 290.42 476.98 292.1 476.26 292.82 475.3 293.3 474.58 293.3 474.1 293.78 473.62 294.74 473.38 295.94 472.66 296.42 471.94 296.66 471.7 296.66 470.98 296.66 471.94 297.62 472.42 298.34 472.9 300.26 473.14 300.98 473.86 303.63 473.86 304.35 473.62 305.31 472.9 306.26 472.66 306.5 472.66 306.75 472.42 307.46 472.18 308.19 471.7 308.9 470.74 309.63 469.78 310.82 469.3 311.79 468.58 312.5 467.14 314.43 464.74 316.83 461.86 318.75 461.86 318.99 461.14 319.47 459.46 319.95 458.02 320.67 457.06 322.11 456.34 323.79 455.86 324.27 455.38 325.71 455.38 326.67 454.9 327.63 454.66 328.35 454.9 330.51 454.66 332.67 455.14 333.63 454.66 335.31 454.18 335.79 453.46 336.75 452.5 337.71 451.3 337.95 451.06 337.95 450.82 338.19 450.34 338.19 449.62 338.19 448.9 338.19 448.18 338.19 447.94 338.43 447.22 338.19 446.26 337.95 445.54 337.71 444.34 337.47 443.38 337.47 442.9 337.47 441.94 337.71 440.74 337.23 440.5 336.99 440.02 336.75 439.54 336.27 439.06 336.51 437.86 336.75 436.42 336.75 435.46 336.51 434.74 336.27 434.02 335.79 433.54 336.03 432.82 336.27 432.82 336.75 432.82 337.71 432.34 338.19 431.62 337.95 430.9 337.95 430.18 338.43 429.46 338.67 428.26 339.15 428.02 339.63 427.78 340.83 428.02 342.03 427.3 342.99 427.3 343.23 426.1 343.47 424.9 343.71 423.7 343.71 422.98 343.71 422.02 343.47 421.54 343.47 421.3 343.71 421.06 344.67 420.82 344.91 420.58 346.11 420.1 347.07 420.58 347.79 420.34 348.03 420.34 348.51 420.1 350.19 420.1 351.63 419.86 351.87 419.86 352.11 419.62 352.59 419.62 353.07 419.86 353.55 420.34 354.27 420.34 354.51 420.1 354.99 420.1 355.23 420.34 355.95 420.58 356.19 420.58 356.67 420.58 356.91 420.58 357.15 420.58 357.63 421.3 359.79 422.02 361.95 422.02 362.19 422.5 362.67 422.98 363.63 423.22 364.59 423.22 365.07 422.74 366.03 422.98 366.99 422.98 369.15 423.22 369.39 423.7 370.11 423.94 370.35 426.82 371.79 427.3 372.03 427.54 372.27 428.02 372.51 428.74 372.51 429.46 372.75 428.98 373.23 428.5 373.47 427.54 373.95 426.58 374.19 426.1 374.43 423.22 374.67 422.5 374.19 422.02 373.95 421.3 374.19 420.58 374.43 419.62 374.43 418.9 374.91 418.66 375.39 418.18 375.39 416.98 376.11 413.62 377.07 412.9 377.55 411.22 378.99 410.98 380.67 410.74 382.11 410.02 384.51 409.54 384.99 409.06 384.75 407.86 384.99 407.38 384.99 406.66 385.47 405.46 386.67 405.22 386.91 404.26 388.11 403.54 388.59 402.1 389.07 400.66 389.31 400.42 389.31 399.7 389.31 398.26 389.31 397.78 389.31 396.58 389.79 395.38 389.55 394.42 389.55 393.46 389.55 392.98 389.79 392.74 390.03 392.5 390.03 391.78 390.27 391.06 390.75 389.86 391.47 389.62 391.71 388.9 392.19 388.66 392.43 387.22 393.15 386.98 393.39 386.74 393.63 385.3 394.83 385.06 395.07 384.34 396.03 384.1 396.27 383.14 397.23 381.94 397.47 381.7 397.95 380.26 398.67 379.54 398.91 379.54 400.35 379.3 401.31 379.3 401.79 379.06 402.27 378.34 402.51 377.86 402.99 377.38 403.23 376.9 403.47 375.21 403.47 374.98 403.47 374.5 403.71 373.3 404.19 372.81 404.43 372.1 404.67 371.86 404.67 371.13 404.67 370.89 404.91 370.42 405.15 369.45 406.11 368.98 406.11 367.54 407.31 367.3 407.31 366.81 407.79 366.57 408.03 365.38 408.27 365.13 408.51 364.18 408.27 363.69 408.27 362.98 408.51 362.25 408.27 361.54 408.51 361.06 408.99 359.86 410.43 358.65 411.15 358.18 411.15 356.74 412.35 356.5 412.59 354.57 413.55 354.33 413.55 352.89 413.79 351.93 414.03 350.73 414.03 350.25 414.03 349.77 414.27 348.57 414.75 347.85 415.23 347.37 415.47 346.17 416.19 345.93 416.43 345.93 416.91 345.45 416.91 344.49 418.11 344.49 418.35 344.01 418.59 342.57 419.31 340.65 420.03 340.41 420.03 339.93 420.51 339.21 421.47 338.97 421.71 338.49 421.95 337.29 422.43 336.81 422.67 334.65 422.67 334.41 423.15 333.93 423.39 333.21 424.11 332.97 424.35 332.73 424.35 332.73 424.59 331.29 425.56 331.05 425.8 330.81 426.04 330.09 426.51 329.13 426.75 328.65 427 327.45 427.24 327.21 427.48 326.73 427.71 326.01 428.92 325.77 429.15 325.53 429.39 324.33 430.12 324.09 430.36 323.61 430.36 322.65 430.83 321.93 430.83 321.45 431.07 320.73 431.31 320.01 431.31 319.77 431.31 319.29 431.31 318.09 431.56 317.13 432.04 316.17 432.75 315.21 433.71 313.29 435.15 310.89 437.08 308.97 437.8 307.53 438.52 305.85 439.48 304.65 440.2 302.97 440.68 300.09 441.4 298.41 442.6 296.25 443.32 294.81 443.56 293.61 443.8 290.73 443.8 289.77 444.76 289.05 444.52 287.61 443.08 286.89 442.6 285.45 441.88 283.77 440.44 281.85 438.76 279.93 437.32 280.65 436.12 281.61 434.19 281.85 432.75 281.85 430.36 281.85 429.15 281.61 427.95 281.61 427.24 282.09 425.31 282.33 424.35 282.81 423.15 282.81 422.43 282.81 421.47 282.57 420.51 282.33 419.55 282.09 418.11 281.85 417.63 280.65 416.91 279.69 416.67 278.73 416.67 278.01 416.19 275.37 415.95 273.45 415.71 272.49 414.75 272.01 414.03 270.09 414.51 267.21 415.95 265.05 416.91 262.65 417.15 260.97 418.35 259.77 418.83 258.33 421.23 256.41 421.23 254.97 421.47 252.81 421.71 251.37 422.91 249.69 423.39 249.21 423.87 247.77 426.51 246.57 428.68 245.37 429.39 242.73 430.12 241.05 431.8 240.09 434.19 239.13 436.12 237.45 436.6 237.21 438.04 237.45 439.24 236.01 440.44 233.85 441.88 232.65 443.08 230.49 443.32 228.33 442.6 224.97 441.64 222.57 440.68 221.13 441.4 220.17 441.64 218.01 440.68 215.37 440.92 215.13 440.92 214.89 438.52 215.37 436.83 216.09 434.44 217.53 432.75 218.49 429.88 221.13 425.07 222.09 424.11 224.01 423.15 225.45 421.71 225.45 420.99 224.01 420.27 221.85 420.27 220.17 421.47 218.01 422.19 215.61 421.71 213.93 420.51 212.01 419.31 210.81 418.59 209.37 416.91 208.17 415.95 206.73 414.27 205.53 412.83 203.61 411.63 201.93 411.15 200.01 409.23 198.09 407.31 195.69 406.35 195.69 405.15 195.45 403.47 194.73 402.51 194.25 402.75 193.05 403.23 192.57 403.71 191.37 404.91 190.17 405.63 189.21 406.59 188.25 408.03 188.01 408.03 187.29 409.23 187.05 410.19 186.57 410.67 185.61 411.39 184.41 412.11 183.21 412.83 182.49 413.55 182.25 413.79 182.01 414.03 182.01 414.27 181.53 415.95 181.29 417.87 181.29 418.11 181.05 419.55 181.05 421.71 182.01 422.67 182.97 423.63 185.37 425.8 185.85 426.75 186.09 427.95 186.09 431.07 185.85 434.44 185.61 436.12 184.65 438.28 184.41 438.76 182.49 442.36 181.77 443.8 181.29 444.76 180.57 445.48 179.37 446.44 178.89 447.16 178.41 449.08 178.17 450.52 177.93 451.72 177.21 453.16 176.49 454.6 175.05 456.04 174.09 456.76 172.65 457.24 170.97 458.2 169.53 459.16 167.85 459.64 166.89 459.88 164.73 459.64 163.05 459.88 162.09 460.6 161.13 461.56 159.93 462.52 158.25 463.24 156.57 463.72 156.33 463.96 154.89 464.44 152.97 464.92 152.01 465.64 151.77 465.88 151.29 466.6 150.56 467.8 150.09 468.52 149.84 469.72 149.84 470.68 149.37 471.4 148.41 473.8 148.16 474.52 147.21 475.72 146.72 476.92 146.72 477.64 146.72 478.36 146.72 479.08 147.21 480.04 147.21 481.72 147.21 482.2 146.97 483.16 146.25 485.56 146 486.28 145.76 487.72 145.28 488.68 145.28 488.92 144.56 489.88 143.84 490.6 143.13 491.08 142.41 491.8 141.69 493 140.97 493.48 140.72 493.96 139.28 495.16 138.81 495.4 138.32 495.88 137.84 496.12 136.65 496.36 135.93 496.6 135.21 497.32 134.49 498.28 133.53 499.48 132.81 500.2 131.37 500.68 130.41 500.92 129.44 499.96 126.8 499.24 124.16 499 122.24 498.76 120.56 498.52 119.6 498.28 118.4 498.04 117.2 497.8 115.04 496.84 113.12 495.88 110.96 494.2 109.28 493.24 107.84 492.52 107.6 492.52 105.68 491.56 104.48 490.84 103.52 489.4 102.32 488.44 100.88 488.2 100.64 488.2 100.4 487.96 100.16 487.96 99.92 487.72 99.68 487.72 99.68 487.48 99.44 487.48 99.2 487.24 99.2 487 98.96 487 98.96 486.76 98.72 486.04 98.48 485.56 98.24 484.36 98 483.88 97.76 483.16 97.76 482.44 97.52 481.96 98 481.48 98 480.28 98 479.56 98 478.36 98 478.12 98 477.4 98 476.68 98 476.44 97.52 475.96 96.8 475.48 95.84 474.52 95.36 473.8 94.4 473.08 93.44 472.12 92.48 471.4 91.76 470.68 90.32 469.72 89.36 469.24 88.64 468.76 88.4 468.76 87.92 468.76 86.96 468.76 86.24 469 85.76 469 85.52 469 84.8 469 84.32 468.76 84.08 468.52 83.6 468.28 83.6 468.04 82.88 468.04 82.16 468.04 81.68 468.28 81.2 468.52 80.72 468.76 80 469 79.76 468.76 78.32 468.52 78.08 468.52 77.84 468.76 77.12 469.72 77.12 469.96 76.64 470.44 76.4 470.68 75.92 470.68 75.68 470.44 74.72 469.96 74 469.96 73.04 469.72 72.32 469.96 71.84 470.2 71.36 470.2 70.88 470.2 69.92 469.96 68.48 469.96 67.28 469.96 64.4 469.72 63.2 469.72 63.2 469.48 63.2 469.24 63.2 469 62.96 469 62.96 468.76 62.96 468.52 62.72 468.52 62.72 468.28 62.48 468.28 62.48 468.04 62.24 467.8 61.28 466.12 60.8 464.92 60.8 463 60.56 462.04 60.32 461.08 59.84 460.6 59.84 460.12 59.84 458.68 59.84 457.24 59.36 455.8 59.36 454.84 59.36 454.36 59.12 453.64 59.6 452.2 59.6 451.96 59.6 450.76 59.84 449.8 56.72 449.32 55.28 448.6 53.12 446.68 51.92 444.76 51.44 441.4 52.16 439.96 52.88 438.76 53.6 437.32 54.8 436.12 55.04 435.15 54.8 433.48 55.52 432.27 55.76 430.83 55.04 429.15 54.8 428.92 54.08 427.95 53.12 426.75 51.92 425.31 51.2 423.87 50.72 422.91 49.76 421.71 49.28 419.79 49.28 418.35 49.04 416.43 48.8 416.19 48.08 414.99 47.6 414.51 47.36 413.79 47.12 412.59 47.36 411.87 48.56 409.23 49.04 408.27 49.52 406.35 50 405.63 50.24 404.43 50.48 403.71 50.72 402.99 50.96 401.79 51.2 400.83 51.44 398.91 51.44 398.43 51.68 396.99 51.68 395.79 51.68 394.59 51.68 393.15 51.44 391.95 51.68 390.75 51.92 388.83 51.92 387.39 52.16 385.95 52.4 384.75 52.4 383.79 52.88 382.11 53.12 381.39 53.36 381.15 54.56 379.95 55.28 379.47 55.76 378.99 56 378.51 56.96 377.55 57.44 377.07 57.44 376.11 57.92 375.15 58.4 374.67 59.84 373.71 60.32 372.99 60.56 372.27 60.56 372.03 61.04 371.55 61.76 371.07 62.48 370.59 63.2 370.35 63.68 369.63 64.64 368.67 65.6 369.15 65.84 368.91 66.08 368.67 65.84 368.19 64.64 365.55 63.92 365.07 63.2 364.35 62.72 363.39 61.76 361.47 61.52 360.75 61.28 360.03 61.04 359.07 61.28 357.15 60.8 355.47 60.08 354.27 59.84 352.83 60.32 351.39 61.52 350.19 61.52 348.75 61.52 347.31 61.04 346.35 60.8 345.87 59.84 345.39 59.36 344.19 57.92 342.03 57.2 341.55 56 341.31 55.52 341.07 54.56 340.35 53.84 339.87 52.64 340.11 51.68 340.35 50.96 340.11 50.24 339.63 49.04 338.91 47.84 338.91 46.4 338.43 45.2 338.43 44.72 338.91 44.48 338.91 44.24 338.91 44 338.43 42.56 336.51 42.32 335.79 41.84 335.79 41.36 335.55 40.88 335.31 40.4 335.31 39.92 334.83 39.44 334.35 38.96 333.39 38.72 333.39 38 333.39 37.76 332.91 36.56 331.71 34.88 329.55 34.64 329.55 36.8 328.35 38.48 327.15 39.68 326.19 41.12 325.71 43.04 325.23 44.72 324.03 45.92 323.07 45.92 322.83 46.4 322.59 46.88 322.59 47.84 322.35 48.8 321.63 49.28 321.63 50 321.39 50.96 320.91 51.92 318.99 52.64 316.83 53.36 315.63 55.04 312.75 56 311.55 56.72 310.35 58.16 308.19 59.12 307.94 60.32 306.75 61.76 305.79 63.44 305.06 66.08 302.9 67.52 300.98 67.76 300.74 70.88 295.7 71.84 294.02 72.08 293.54 72.08 293.06 72.08 292.82" style="fill:none;stroke:#005ce6;stroke-linecap:round;stroke-linejoin:round;stroke-width:1.440060019493103px"/><polyline points="72.08 292.82 72.32 291.86 73.04 290.42 73.04 289.7 73.04 289.46 73.04 288.5 74 286.82 74.48 285.38 74.72 284.66 75.44 282.98 75.68 281.54 76.4 280.82 76.88 280.82 77.12 281.3 79.52 282.98 80.96 282.5 83.36 283.94 83.6 283.94 84.8 283.46 85.52 282.5 85.76 281.3 86.72 280.58 87.2 281.06 88.16 280.82 89.12 280.1 89.84 279.86 90.8 280.58 92.24 280.58 92.48 280.58 92.72 279.86 92.96 278.9 93.44 277.7 94.4 276.26 95.6 274.34 96.32 272.42 96.8 271.7 96.8 270.26 97.76 268.58 98 267.86 98.24 267.86 98.72 267.62 100.88 266.42 101.6 265.7 101.84 265.46 103.28 264.02 103.76 263.3 104.48 262.82 105.2 262.1 105.92 262.1 107.12 261.62 108.56 261.14 109.76 260.9 110.72 260.42 111.68 259.22 112.88 258.26 113.36 258.02 113.84 257.3 114.08 256.82 114.8 256.34 115.52 255.38 116.24 254.9 116.96 254.18 117.92 252.98 118.64 250.82 119.84 247.22 120.08 246.5 120.56 245.54 120.8 244.58 120.8 243.38 120.32 243.14 120.08 242.42 120.32 241.22 120.8 240.5 121.76 239.3 122.48 238.58 123.2 237.86 123.92 237.14 125.36 235.22 126.8 233.54 128.72 231.62 128.72 231.86 129.44 234.26 129.44 235.7 129.69 236.18 130.16 236.66 130.65 237.14 131.13 238.1 131.13 238.82 131.37 239.06 131.6 239.3 132.32 239.78 133.04 240.02 133.28 240.26 134 240.98 136.65 241.94 137.13 242.42 137.37 243.38 140.97 241.46 141.44 240.5 142.16 238.34 143.37 236.66 143.84 235.22 143.6 233.78 143.84 232.58 144.56 230.9 143.84 228.5 144.32 228.26 145.04 228.5 145.53 228.02 146 226.82 146.97 226.34 148.41 225.86 149.37 226.58 150.56 226.82 150.81 226.34 151.53 225.14 152.25 224.42 152.73 224.18 154.17 223.7 159.21 223.22 160.17 223.46 160.65 223.7 161.13 223.7 162.09 223.7 164.01 222.74 167.37 222.98 171.21 223.46 175.05 222.02 177.69 221.54 179.85 221.78 180.81 221.54 182.73 218.9 182.97 218.42 185.37 217.7 189.21 217.94 194.25 220.1 197.37 220.34 198.33 220.82 198.57 222.26 199.29 223.46 203.61 224.9 205.29 225.38 206.49 225.62 206.97 226.82 208.41 227.54 210.09 228.98 210.33 231.86 210.33 235.22 210.81 235.94 211.29 236.18 212.01 236.18 213.93 235.22 214.89 235.46 215.37 236.18 215.85 237.62 215.13 240.74 215.61 242.42 215.61 250.1 214.41 253.7 214.17 254.42 213.45 257.78 213.21 260.66 213.21 260.9 213.45 261.38 213.69 263.78 216.09 266.42 217.29 267.14 217.77 268.1 217.53 269.78 218.01 270.5 218.25 271.7 217.53 273.38 218.49 274.82 218.73 275.78 218.97 275.78 219.45 276.02 221.37 276.26 224.01 275.78 225.45 276.02 227.37 277.94 229.05 277.94 230.97 278.42 234.09 278.18 235.77 278.66 237.21 279.86 238.89 280.82 239.85 281.3 241.29 281.54 243.69 280.34 243.93 279.86 245.37 278.42 247.53 277.94 249.93 276.5 250.41 276.5 252.57 277.7 254.01 278.18 254.49 278.66 255.69 278.42 255.93 278.42 256.41 278.42 258.57 278.18 259.05 277.7 262.65 277.7 264.33 275.78 265.29 273.14 266.01 272.18 272.01 267.62 275.37 266.42 284.01 266.42 288.57 265.7 288.81 265.7 289.29 265.46 290.49 265.22 292.17 264.74 295.05 264.5 299.13 262.58 299.37 262.34 302.73 261.38 304.65 261.38 305.13 261.86 305.37 261.86 310.41 263.06 310.65 263.06 312.57 263.06 313.29 262.82 313.53 262.34 314.25 261.86 314.49 261.38 314.97 260.66 315.69 260.18 316.17 259.94 317.13 259.22 317.37 258.74 318.09 258.02 318.57 257.54 319.05 256.58 319.29 255.62 319.53 254.66 319.53 254.18 319.77 253.7 319.77 253.46 320.01 252.74 320.01 252.26 320.01 251.78 320.25 251.06 320.49 250.58 320.49 249.62 320.49 248.9 320.73 248.42 320.97 248.42 321.21 248.18 321.69 247.94 322.65 247.22 323.85 246.26 324.81 244.82 325.53 243.38 326.01 242.66 326.25 241.94 325.53 241.46 324.81 241.22 324.09 240.5 323.85 240.02 324.33 238.58 324.57 237.62 324.57 236.9 324.09 236.42 323.85 235.94 323.85 235.7 324.33 235.22 324.81 234.98 324.81 234.26 324.33 233.78 323.85 233.54 323.37 233.06 323.61 232.34 323.61 232.1 323.37 231.62 322.89 230.42 322.89 228.74 323.37 227.06 323.61 225.38 324.57 223.94 326.01 222.26 326.97 220.1 327.45 218.66 329.13 216.26 329.37 215.78 329.37 216.02 329.61 216.02 330.33 215.78 330.81 215.06 331.77 212.9 331.77 212.42 331.53 211.46 331.53 210.74 332.25 209.78 332.25 209.06 332.01 208.58 332.49 207.38 334.17 206.18 334.41 205.94 334.65 205.22 334.65 204.02 334.89 203.3 335.61 202.34 336.33 202.1 338.01 202.82 338.97 202.82 340.17 203.54 340.65 203.54 341.13 203.54 341.85 202.82 341.85 202.34 341.85 200.18 341.61 198.98 341.61 198.02 342.09 197.3 343.29 196.58 343.53 196.1 344.01 196.1 344.97 197.06 345.93 197.3 346.65 197.54 347.37 197.54 348.57 197.3 349.53 197.06 350.49 197.06 351.69 197.06 353.38 197.78 354.81 197.78 355.3 198.02 357.45 198.74 357.69 198.98 358.42 199.22 359.38 199.94 360.1 200.18 360.81 200.18 361.54 200.42 362.25 200.42 362.74 200.66 363.21 200.42 363.94 200.42 364.42 200.18 364.65 199.7 364.65 198.02 364.42 197.06 364.42 195.86 364.65 194.9 365.13 193.94 365.38 192.98 365.62 192.02 367.77 189.38 369.21 188.66 369.94 188.18 370.18 187.22 370.18 186.74 370.42 184.57 370.65 184.34 371.13 183.62 371.38 182.9 371.86 182.18 372.1 181.46 372.33 180.74 373.06 180.01 373.3 179.78 373.54 179.29 373.54 179.06 373.06 178.57 372.33 178.09 372.1 177.85 372.1 177.37 372.33 176.65 372.57 175.69 372.57 174.97 372.81 174.25 373.3 173.29 373.3 173.05 373.06 172.57 372.57 171.37 372.57 170.65 372.57 169.69 373.06 167.29 373.06 166.81 373.54 166.09 373.77 165.37 374.01 164.41 374.5 163.93 374.74 163.21 374.98 161.29 375.21 159.61 375.45 157.69 375.7 156.01 375.45 155.29 375.21 154.57 375.21 153.85 375.7 152.89 376.18 152.41 376.9 151.93 378.1 151.45 378.34 150.73 379.06 149.05 379.54 146.65 380.02 145.45 380.5 144.25 381.46 143.29 381.94 142.09 381.22 140.89 380.74 139.69 380.02 138.73 379.78 137.53 379.78 136.81 379.78 134.65 380.02 134.17 379.78 132.73 380.02 131.53 380.74 130.09 380.98 129.37 381.46 128.65 381.7 128.41 381.7 127.45 381.94 126.49 382.9 125.53 384.58 125.29 384.58 125.05 386.5 124.09 386.74 123.85 386.98 123.61 387.46 123.61 388.9 123.85 390.34 123.85 391.78 123.61 393.22 123.61 394.66 123.85 395.86 123.61 397.3 123.85 398.5 124.09 398.74 124.33 399.94 124.33 401.14 123.85 401.62 123.85 402.34 123.37 403.3 122.65 405.22 120.97 408.1 122.41 410.02 122.65 410.98 122.17 411.46 121.69 412.66 120.49 413.62 119.05 415.3 117.85 417.7 117.61 419.14 116.89 420.1 116.89 420.58 117.13 421.78 117.37 422.5 117.37 422.98 117.61 423.94 117.61 424.9 118.09 425.86 118.09" style="fill:none;stroke:#005ce6;stroke-linecap:round;stroke-linejoin:round;stroke-width:1.440060019493103px"/></g></g><g style="clip-path:url(#clip-path)"><g style="clip-path:url(#clip-path-3)"><polyline points="425.86 118.09 427.3 118.33 428.74 118.09 429.46 118.57 429.94 118.57 431.14 118.33 431.86 117.85 432.58 117.85 433.3 118.09 434.26 118.57 435.46 119.77 436.18 120.25 436.66 120.49 437.62 120.25 438.34 119.77 439.3 119.77 440.98 120.01 442.42 120.01 443.38 119.53 443.86 119.29 444.1 118.57 444.58 118.33 445.06 118.57 445.3 120.49 445.54 121.45 445.78 122.41 446.26 123.13 446.98 123.85 447.7 124.81 448.42 126.01 449.38 126.97 449.86 127.93 450.82 129.37 451.54 130.09 452.26 130.33 452.74 130.57 455.14 132.01 456.1 132.25 458.02 133.93 458.98 134.89 459.46 135.85 462.58 138.73 464.5 138.01 464.98 137.77 465.94 137.77 466.18 137.77 467.86 138.25 468.1 138.25 468.82 138.01 470.74 136.81 472.9 135.85 474.1 135.61 475.78 135.37 478.18 135.85 478.9 136.09 479.86 136.57 481.06 136.81 482.26 136.57 482.5 136.81 482.74 136.57 483.7 136.81 486.34 138.25 489.46 138.97 491.62 139.21 492.82 139.21 495.46 138.25 497.38 138.49 498.34 138.01 500.02 138.25 500.26 138.25 502.66 139.21 503.38 140.17 503.86 141.13 504.34 141.85 504.1 143.53 504.34 144.01 505.3 144.25 506.98 145.21 508.9 146.17 508.9 146.41 509.38 146.41 509.38 146.65 509.14 147.85 508.42 148.81 507.7 150.25 506.98 151.21 506.98 151.69 506.98 152.17 507.22 152.41 507.46 153.61 508.42 157.21 508.18 158.17 508.18 159.37 508.18 160.57 508.18 161.77 507.22 165.61 507.22 168.49 508.42 172.57 506.5 175.69 506.26 176.89 506.02 181.46 505.3 183.85 505.06 186.97 506.26 188.66 506.26 190.09 507.22 191.54 507.22 193.7 507.94 196.1 507.46 197.06 507.22 197.54 506.98 198.02 506.74 198.74 506.74 199.7 506.5 200.9 506.26 201.86 506.26 202.82 505.78 203.3 504.34 204.02 503.38 204.98 502.66 206.18 501.7 207.38 501.7 207.86 501.94 208.58 501.94 208.82 502.42 209.78 502.18 210.74 501.94 211.22 502.66 211.94 502.9 212.42 503.38 213.14 503.62 214.82 503.38 216.5 503.14 217.46 503.14 218.18 503.62 219.62 503.62 220.34 503.86 221.3 503.62 221.78 503.62 222.5 503.62 223.46 503.86 223.94 503.86 225.38 503.62 225.62 503.38 226.1 503.38 226.82 503.38 227.54 503.62 228.02 504.58 228.5 504.58 228.98 504.58 229.94 504.58 231.14 504.34 232.1 503.86 232.82 503.86 233.3 503.62 234.02 503.14 234.74 502.66 235.7 502.18 236.66 502.18 236.9 502.18 237.86 502.18 238.58 502.42 239.54 502.42 240.26 502.18 240.74 502.18 241.94 501.94 243.14 501.7 244.1 501.94 244.58 502.42 245.06 502.9 245.78 503.14 246.5 503.38 247.46 503.86 248.42 504.58 248.66 504.82 249.38 505.06 250.1 505.3 250.82 506.26 252.98 506.5 254.18 506.26 255.38 505.78 256.34 505.54 257.06 505.78 257.78 506.26 258.98 506.5 259.46 506.5 259.7 506.74 260.42 507.22 261.14 507.46 262.34 507.22 263.3 506.98 264.5 506.5 266.18 506.5 266.66 506.5 267.14 506.5 267.86 505.78 268.1 505.54 268.34 505.06 269.3 503.86 271.22 503.38 272.18 502.18 272.66 501.7 273.14 500.26 273.38 498.82 274.34 497.14 274.82 496.18 275.54 495.7 276.26 494.98 276.98 494.26 276.98 493.06 277.94 491.86 278.42 490.66 279.86 489.46 279.62 488.98 279.62 487.78 280.34 485.86 280.1 484.42 280.1 482.98 280.34 482.74 280.82 482.26 282.74 482.26 283.7 482.02 284.9 481.3 286.34 480.82 286.82 479.86 288.98 478.18 290.42 476.98 292.1 476.26 292.82 475.3 293.3 474.58 293.3 474.1 293.78 473.62 294.74 473.38 295.94 472.66 296.42 471.94 296.66 471.7 296.66 470.98 296.66 471.94 297.62 472.42 298.34 472.9 300.26 473.14 300.98 473.86 303.63 473.86 304.35 473.62 305.31 472.9 306.26 472.66 306.5 472.66 306.75 472.42 307.46 472.18 308.19 471.7 308.9 470.74 309.63 469.78 310.82 469.3 311.79 468.58 312.5 467.14 314.43 464.74 316.83 461.86 318.75 461.86 318.99 461.14 319.47 459.46 319.95 458.02 320.67 457.06 322.11 456.34 323.79 455.86 324.27 455.38 325.71 455.38 326.67 454.9 327.63 454.66 328.35 454.9 330.51 454.66 332.67 455.14 333.63 454.66 335.31 454.18 335.79 453.46 336.75 452.5 337.71 451.3 337.95 451.06 337.95 450.82 338.19 450.34 338.19 449.62 338.19 448.9 338.19 448.18 338.19 447.94 338.43 447.22 338.19 446.26 337.95 445.54 337.71 444.34 337.47 443.38 337.47 442.9 337.47 441.94 337.71 440.74 337.23 440.5 336.99 440.02 336.75 439.54 336.27 439.06 336.51 437.86 336.75 436.42 336.75 435.46 336.51 434.74 336.27 434.02 335.79 433.54 336.03 432.82 336.27 432.82 336.75 432.82 337.71 432.34 338.19 431.62 337.95 430.9 337.95 430.18 338.43 429.46 338.67 428.26 339.15 428.02 339.63 427.78 340.83 428.02 342.03 427.3 342.99 427.3 343.23 426.1 343.47 424.9 343.71 423.7 343.71 422.98 343.71 422.02 343.47 421.54 343.47 421.3 343.71 421.06 344.67 420.82 344.91 420.58 346.11 420.1 347.07 420.58 347.79 420.34 348.03 420.34 348.51 420.1 350.19 420.1 351.63 419.86 351.87 419.86 352.11 419.62 352.59 419.62 353.07 419.86 353.55 420.34 354.27 420.34 354.51 420.1 354.99 420.1 355.23 420.34 355.95 420.58 356.19 420.58 356.67 420.58 356.91 420.58 357.15 420.58 357.63 421.3 359.79 422.02 361.95 422.02 362.19 422.5 362.67 422.98 363.63 423.22 364.59 423.22 365.07 422.74 366.03 422.98 366.99 422.98 369.15 423.22 369.39 423.7 370.11 423.94 370.35 426.82 371.79 427.3 372.03 427.54 372.27 428.02 372.51 428.74 372.51 429.46 372.75 429.94 372.75 430.18 372.75 430.66 372.75 431.38 372.99 431.86 373.23 432.1 373.23 432.1 373.47 432.58 374.43 433.06 374.91 433.3 375.63 434.02 376.35 434.26 377.31 434.5 378.03 434.26 378.51 434.02 378.99 434.02 379.47 434.02 379.71 434.26 380.43 434.74 380.67 434.98 380.67 435.46 381.15 435.46 381.63 435.46 381.87 435.7 382.35 436.18 382.59 436.66 382.83 436.9 383.07 437.14 383.31 437.86 383.79 438.1 384.03 438.34 384.51 438.34 384.99 438.34 385.47 438.34 385.71 438.34 385.95 438.82 386.67 439.3 387.15 439.78 387.63 440.26 388.11 440.26 388.59 440.5 389.07 440.5 389.79 440.98 390.27 441.46 390.75 441.7 391.23 441.94 391.23 442.18 391.47 442.66 391.47 442.9 391.47 443.38 390.99 443.62 390.27 444.82 389.55 445.06 389.55 446.26 389.55 447.22 389.55 448.42 389.55 448.66 389.79 449.86 390.99 451.06 391.95 451.54 392.67 452.5 393.63 452.98 394.35 453.46 394.83 454.42 395.31 455.14 395.55 456.34 396.27 457.06 396.51 457.78 396.75 458.5 396.99 459.22 397.71 459.22 398.43 459.94 398.91 460.66 399.39 461.86 399.63 462.82 399.87 463.78 400.83 464.26 401.31 464.98 402.51 465.22 403.23 465.46 403.47 465.94 404.19 466.9 404.91 467.38 405.39 468.34 406.11 469.06 406.11 469.78 406.35 470.5 406.35 471.7 406.35 472.42 406.35 473.14 406.35 473.62 406.11 474.1 405.87 474.58 405.63 475.06 406.11 475.3 406.59 475.54 407.07 475.54 408.03 475.54 408.75 476.26 409.71 476.98 410.67 477.46 411.39 478.18 412.11 478.66 412.83 478.9 413.79 479.38 414.51 480.1 415.23 480.58 415.71 481.06 415.71 481.54 415.47 482.02 415.23 482.26 415.71 482.26 416.43 482.5 416.91 482.98 418.11 483.46 418.83 483.7 419.55 483.7 420.27 483.7 420.51 483.94 420.99 483.94 421.23 483.7 421.95 483.46 422.67 483.22 422.91 483.22 424.35 483.22 425.07 483.22 425.31 483.22 426.75 482.98 427.48 482.5 428.68 482.5 429.15 482.26 429.39 482.02 429.63 481.54 431.07 481.54 431.56 481.54 432.27 481.54 433 481.3 433.71 481.3 435.15 481.06 435.63 480.34 436.83 479.86 437.32 479.38 437.8 478.66 438.28 477.94 438.52 476.74 439 476.02 439.24 475.54 439.48 474.82 439.24 474.34 439.24 473.62 439 473.86 439.48 474.1 440.2 474.34 440.68 474.34 441.4 474.1 442.12 473.62 443.08 473.14 443.56 472.42 444.52 471.7 445 470.98 445.72 470.5 446.2 469.78 447.4 469.54 448.12 468.58 448.84 468.1 449.56 467.86 450.76 467.38 452.68 466.9 453.16 466.9 454.6 467.14 455.32 467.62 456.28 467.86 457 468.1 458.2 468.1 458.92 468.58 459.4 468.82 459.88 469.3 460.12 469.54 460.36 469.78 460.84 470.02 461.32 470.02 461.56 470.74 461.8 471.94 462.28 472.18 462.52 472.66 462.76 472.66 463.48 472.66 465.16 473.14 466.36 473.38 466.6 474.34 467.08 474.82 468.04 475.3 469.48 475.54 469.72 475.78 471.4 476.74 471.64 479.62 471.64 481.06 471.4 481.78 471.4 482.5 471.16 482.74 471.16 483.22 471.4 484.9 472.12 485.86 472.12 487.06 472.12 488.5 471.4 488.74 471.4 489.94 470.68 491.62 471.4 492.82 471.88 493.78 472.36 494.5 471.88 494.74 471.88 495.22 471.64 496.18 471.4 498.1 471.64 498.82 471.64 499.06 471.88 500.02 473.08 500.5 473.32 501.22 473.32 501.22 473.56 502.66 474.52 502.9 474.52 503.14 474.76 503.86 475 504.82 475 505.54 475.24 505.78 475.24 507.46 475.96 507.7 476.2 508.42 476.68 508.66 477.4 508.9 478.6 508.66 479.08 508.42 479.32 508.42 479.8 508.9 480.04 508.9 480.28 509.38 480.04 509.38 479.8 509.86 479.8 510.34 480.04 510.58 480.04 511.54 480.52 512.74 480.52 512.98 480.76 513.94 481.24 514.66 481.48 515.86 481 516.58 481 516.82 481.24 516.82 481.48 517.06 481.96 518.26 483.64 519.94 484.6 520.18 485.32 520.66 485.8 521.38 486.28 521.62 486.76 521.62 487.96 521.86 488.44 522.58 489.16 522.82 489.88 523.06 491.8 522.82 492.52 522.82 493 522.34 493.96 521.62 494.68 521.14 495.16 520.9 495.4 520.9 495.88 521.14 496.12 521.62 497.56 521.38 498.76 520.42 501.16 520.18 502.84 520.42 504.76 520.9 504.28 521.62 504.28 522.34 505 523.54 505.24 524.98 505.24 525.94 505.96 526.66 506.2 527.14 506.2 528.1 505.96 528.82 505.96 530.26 506.44 531.46 507.16 532.18 508.12 533.62 508.84 536.5 512.2 537.22 513.16 537.7 514.12 537.94 514.12 538.42 514.6 539.38 515.32 539.86 515.8 540.34 516.28 541.06 516.76 541.54 517.24 542.26 517.96 542.98 518.2 543.94 518.92 545.14 520.12 545.38 520.12 546.58 522.28 546.58 523.48 547.06 523.96 548.02 526.12 548.26 526.36 549.22 526.84 549.94 527.56 550.42 527.8 551.38 528.04 552.1 528.76 552.82 529.48 553.54 530.2 556.18 531.16 556.9 531.16 557.38 531.16 558.1 530.68 558.34 530.68 559.54 530.92 561.22 531.64 565.3 533.8 566.26 534.52 569.38 537.4 570.34 537.88 570.34 537.64 570.34 537.16 570.58 536.92 570.82 536.44 571.06 536.2 572.26 536.92 573.46 538.12 574.42 539.08 575.38 539.8 576.1 540.04 576.58 540.04 577.06 540.04 577.54 540.52 578.5 540.76 578.99 540.76 579.23 541 579.71 541.24 580.18 541.72 580.66 541.96 581.14 542.2 581.63 542.2 582.11 542.44 582.59 542.44 583.07 542.68 583.3 542.92 583.78 543.64 584.02 543.88 584.5 544.12 584.75 544.36 585.23 544.6 585.47 544.84 585.95 544.84 586.9 545.32 587.38 545.56 587.63 546.04 588.11 546.52 588.35 547.24 588.59 547.72 588.83 547.96 589.3 548.45 589.78 548.68 590.26 549.16 590.26 549.64 590.5 550.13 590.5 550.61 590.5 551.33 590.99 551.8 590.99 552.28 591.23 553 590.99 553.25 590.99 553.73 590.99 554.21 590.99 554.68 590.99 555.16 591.47 556.13 591.71 556.85 591.95 557.8 592.18 558.28 592.42 558.76 592.42 559.25 591.95 559.97 591.95 560.45 591.71 560.93 591.47 561.65 591.47 561.89 591.23 562.13 591.47 563.09 591.47 563.81 591.23 564.53 591.23 565.01 591.23 565.25 590.99 565.49 590.75 565.73 590.75 565.97 590.75 566.45 590.99 567.17 590.75 567.65 590.5 568.13 590.26 568.61 589.3 569.33 589.3 569.57 589.07 569.81 588.59 570.05 588.35 570.29 587.87 570.05 587.63 570.05 586.9 569.81 586.66 569.81 586.18 569.81 585.71 570.05 585.23 570.53 584.99 571.01 584.75 571.49 584.75 571.97 584.75 572.21 584.99 572.45 585.23 572.69 585.47 572.93 585.71 573.41 585.47 573.65 585.23 573.89 584.99 574.37 584.75 574.85 584.75 575.57 584.75 576.05 584.75 576.77 584.75 577.25 584.99 577.97 585.47 578.45 585.71 578.69 585.95 579.41 586.18 580.37 586.18 580.85 586.42 581.33 586.66 582.05 586.9 582.29 587.14 582.53 587.38 582.77 587.87 583.01 588.35 583.49 588.59 583.73 588.83 584.21 589.07 584.45 589.3 585.17 589.07 585.65 589.07 585.89 588.83 586.37 588.59 586.85 588.35 587.09 588.11 587.33 587.63 587.81 587.38 588.29 587.14 588.53 586.66 589.01 586.42 589.25 586.42 589.49 585.71 590.45 585.71 591.41 586.18 592.61 586.9 593.33 587.63 594.05 588.11 594.53 588.35 594.77 588.83 595.25 589.3 595.49 589.54 595.73 589.54 595.97 589.3 596.21 588.83 596.69 588.59 597.17 588.35 597.41 588.35 597.89 588.11 598.61 587.87 599.09 587.87 599.33 587.87 599.81 587.87 600.05 588.11 600.77 588.11 601.25 588.11 601.97 588.11 602.45 587.87 602.93 587.87 603.41 587.63 603.65 587.14 603.89 586.9 604.37 586.66 604.85 586.42 605.33 586.18 605.57 586.42 606.05 586.42 606.29 586.66 607.25 586.42 607.97 586.42 608.69 586.18 608.69 585.95 609.41 585.95 610.13 585.95 610.61 586.18 610.85 585.95 611.09 585.71 611.33 585.47 611.57 585.23 611.81 584.99 612.05 584.75 612.53 584.5 612.77 584.5 613.25 584.75 613.49 584.99 613.97 584.99 614.45 584.99 614.93 584.75 615.17 584.26 615.65 584.02 616.37 584.02 616.85 583.78 617.33 583.54 617.57 583.54 618.05 583.3 618.29 583.3 619.01 583.07 619.73 583.07 620.45 583.3 620.93 583.3 621.65 583.3 621.41 583.07 621.41 582.83 621.17 582.35 620.93 582.11 620.93 581.87 620.69 581.14 620.45 580.66 620.45 580.42 620.45 579.95 620.21 579.47 620.21 579.23 620.21 578.99 620.45 578.75 620.69 578.75 620.93 578.5 621.17 578.5 621.89 578.5 622.37 578.5 622.61 578.26 622.85 578.02 623.33 578.02 623.57 577.78 624.05 577.54 624.05 577.54 624.29 577.3 624.77 577.3 625.01 577.3 625.25 577.06 626.21 577.06 626.45 577.06 627.17 576.82 627.41 576.82 628.13 576.82 628.85 576.58 629.33 576.34 629.57 576.34 629.81 575.86 630.29 575.62 630.53 575.38 630.77 574.9 631.01 574.66 631.25 574.66 631.49 574.42 631.73 574.42 631.97 574.18 632.93 574.18 633.17 573.94 633.41 573.94 633.89 573.7 634.13 573.7 634.37 573.46 634.85 573.22 635.09 572.98 635.57 572.74 635.57 572.74 635.81 572.5 636.05 572.26 636.77 572.02 637.25 571.78 637.49 571.54 637.73 571.3 637.73 570.82 637.97 570.58 637.97 570.34 637.97 570.1 638.21 569.86 638.45 569.62 638.69 569.38 638.69 568.42 638.69 567.22 639.41 566.02 639.65 564.82 639.89 563.62 639.65 562.9 639.17 561.46 639.17 560.02 639.41 558.82 639.65 557.86 640.13 556.9 640.85 555.94 642.05 555.46 643.49 555.46 644.93 555.7 646.13 555.94 647.33 555.94 649.01 555.94 650.93 554.98 652.13 554.26 652.61 552.82 653.57 551.86 654.05 551.14 654.53 549.94 655.25 549.46 655.73 549.22 655.97 548.98 655.97 548.74 656.21 548.26 656.21 547.78 656.45 547.54 656.45 547.3 656.69 547.06 656.93 546.82 657.17 546.34 657.41 545.86 657.41 545.38 657.65 544.42 657.89 544.18 657.89 543.7 658.13 543.22 658.37 542.5 658.85 542.26 658.85 541.3 659.81 540.58 660.29 540.1 660.53 539.62 660.77 538.9 661.01 538.42 661.25 537.7 661.97 536.74 662.93 536.5 663.17 535.78 663.41 535.3 663.65 534.82 663.65 534.1 663.65 533.86 663.89" style="fill:none;stroke:#222;stroke-linecap:round;stroke-linejoin:round;stroke-width:1.6800800561904907px"/><polyline points="533.86 663.89 533.14 664.37 532.42 664.85 531.94 665.09 531.46 665.33 530.98 665.57 530.98 665.81 530.74 666.29 530.74 667.01 530.5 667.49 530.5 667.97 530.26 668.69 530.02 668.93 529.78 669.41 529.78 669.65 528.82 670.37 528.58 670.85 528.1 671.58 527.62 671.82 527.38 672.05 526.9 671.82 526.18 671.58 525.94 671.34 525.46 671.34 524.98 671.58 524.74 671.58 524.5 671.58 523.78 671.82 523.3 671.82 522.34 672.05 521.86 672.29 521.38 672.53 520.9 672.53 520.42 672.53 520.42 672.77 519.94 672.77 519.7 672.77 519.46 672.77 518.98 672.77 518.74 672.77 518.26 673.01 518.02 673.25 517.54 673.25 517.3 673.25 517.06 673.25 516.58 673.01 516.34 673.01 515.86 673.01 514.9 673.25 514.9 673.5 514.18 673.74 513.46 673.74 512.74 673.74 512.5 673.74 512.26 673.98 511.78 674.22 511.3 674.46 510.82 674.7 510.58 674.7 510.34 674.7 510.1 674.93 509.86 675.17 509.62 675.65 509.38 675.65 509.14 675.65 508.42 675.89 508.18 676.13 507.94 676.38 507.7 676.38 507.22 676.13 507.22 675.89 506.98 675.89 506.5 676.13 506.26 676.13 505.54 676.38 505.3 676.38 505.06 676.62 504.58 676.62 504.34 676.62 504.1 676.38 503.86 676.38 503.38 676.13 502.9 676.13 502.18 675.89 501.7 675.89 501.46 676.13 500.98 675.89 500.5 675.89 499.78 675.41 499.54 675.17 499.3 675.41 499.06 675.41 498.58 675.65 498.34 675.89 497.86 676.13 497.62 676.38 496.9 676.38 496.42 676.38 495.94 676.62 495.22 676.62 494.98 676.86 494.26 677.1 493.78 677.34 493.54 677.58 493.3 677.82 492.82 678.05 492.58 678.05 491.86 678.53 491.14 679.25 490.9 679.5 490.66 679.74 490.42 679.98 490.18 680.22 489.94 680.22 489.7 680.22 489.46 680.22 489.22 680.22 488.74 680.22 488.5 680.22 488.02 679.74 487.3 679.25 487.06 679.01 486.58 678.53 486.34 678.05 485.86 677.82 485.62 677.82 485.14 677.58 484.42 677.34 483.94 677.1 483.7 676.86 483.7 676.62 483.46 676.38 483.22 675.89 483.22 675.41 482.98 674.93 482.74 674.7 482.26 674.46 481.54 673.98 481.3 673.5 481.06 672.53 479.62 670.13 479.38 669.89 479.14 669.65 478.66 669.65 478.18 669.65 477.7 669.65 477.46 669.89 477.22 670.13 476.98 670.37 476.74 670.37 476.26 671.09 476.02 671.09 474.82 672.05 474.58 672.05 474.1 672.29 473.86 672.53 473.14 673.25 472.42 673.74 472.18 673.74 471.46 673.98 471.22 673.98 470.74 674.22 470.02 674.22 469.78 674.46 469.54 674.7 469.06 674.7 468.58 674.7 468.1 674.46 467.86 674.46 467.38 674.46 466.66 674.46 465.46 674.93 465.22 674.93 464.98 674.93 464.5 674.7 464.02 674.7 463.54 674.7 463.06 674.46 462.1 674.22 461.86 674.22 461.62 673.98 460.9 673.25 460.66 673.01 460.42 673.01 459.7 673.01 459.22 673.01 458.98 672.77 458.98 672.53 458.74 672.53 458.74 672.29 458.02 671.82 457.54 671.82 457.06 671.82 456.34 672.05 455.62 672.53 454.66 673.25 454.42 673.25 454.42 673.5 453.46 674.22 452.98 674.93 452.74 675.41 452.26 676.38 452.02 676.86 451.78 677.1 451.54 677.34 451.06 678.05 451.06 678.53 450.82 678.77 450.58 679.25 450.58 679.98 450.1 680.7 449.86 680.93 449.38 681.17 449.14 681.41 448.66 681.41 448.18 681.41 447.94 681.41 447.46 681.17 446.98 680.93 446.74 680.93 446.5 680.93 446.02 681.17 445.78 681.65 445.54 681.65 445.06 682.38 444.82 682.86 444.34 683.1 444.1 683.34 443.62 683.82 443.62 684.06 443.38 684.54 443.38 685.26 443.14 685.5 442.9 685.74 441.94 686.46 441.94 686.22 441.22 686.46 440.98 686.7 440.74 686.7 440.5 686.7 440.26 686.94 439.54 686.94 439.3 686.94 438.58 686.7 437.86 686.7 436.9 686.94 435.94 686.94 435.46 686.94 434.5 686.94 433.06 686.94 432.34 686.94 431.86 686.7 431.62 686.7 430.9 685.74 430.42 685.26 430.18 685.02 429.7 685.02 429.46 684.78 428.98 684.78 428.74 685.02 428.02 685.02 427.78 685.02 427.3 685.26 426.58 685.5 426.34 685.5 425.38 685.5 423.94 685.74 423.22 685.5 422.02 685.26 421.54 685.26 420.58 685.02 418.9 684.78 417.94 684.78 417.46 685.02 417.22 685.26 416.5 685.26 416.02 685.26 415.54 685.26 415.06 685.02 414.34 684.54 413.86 683.82 413.62 683.58 413.14 682.38 412.9 682.13 412.42 680.7 411.94 679.98 411.7 679.5 411.7 679.25 411.46 678.53 410.74 677.34 410.02 676.38 409.54 675.17 409.3 674.93 409.06 674.7 408.82 674.7 408.1 674.7 407.62 674.7 406.66 674.7 406.18 674.7 405.22 674.46 404.02 674.22 402.82 673.74 402.1 673.5 401.86 673.5 401.38 673.01 400.66 672.53 400.42 672.29 400.18 672.05 399.46 671.82 398.74 671.58 398.5 671.34 398.02 671.09 396.58 670.37 396.1 670.13 395.38 670.13 394.9 670.13 394.66 670.37 392.74 671.34 391.78 671.82 391.54 671.82 391.3 671.82 390.58 671.82 390.1 671.82 389.86 672.05 389.62 672.05 389.38 672.05 389.14 671.82 388.66 671.82 388.42 671.58 387.46 671.09 387.22 670.85 386.26 670.37 385.78 670.13 386.02 669.41 385.78 668.93 385.54 668.69 385.3 668.45 385.06 667.97 384.82 667.97 384.34 667.73 384.1 667.49 383.62 667.01 383.14 666.29 382.9 665.81 382.9 665.57 382.9 665.09 382.66 664.13 382.66 663.89 382.42 663.65 381.94 663.41 380.74 662.21 379.54 661.01 379.3 660.77 378.82 660.29 378.58 660.05 378.1 659.57 377.14 659.09 376.42 658.85 375.94 658.61 375.21 658.37 374.98 658.13 374.74 657.89 374.5 657.65 374.25 656.93 373.77 656.21 373.54 655.49 373.06 654.77 373.06 654.53 371.62 653.57 370.89 653.09 370.18 652.85 369.69 652.37 369.45 652.13 368.98 650.69 368.25 650.45 367.06 650.21 366.1 649.97 365.38 649.73 364.42 649.25 363.45 648.77 362.98 648.53 362.25 647.57 361.3 646.85 359.86 645.89 360.57 645.17 360.57 644.21 361.3 641.33 360.33 638.45 360.33 637.97 361.77 636.53 362.01 636.29 361.3 636.29 360.81 636.53 360.57 636.53 359.86 637.01 359.13 637.49 357.94 637.49 357.69 637.01 357.45 636.05 357.21 635.81 355.77 635.57 355.54 635.33 353.62 634.37 352.89 634.13 352.41 634.13 351.93 633.89 351.93 632.69 351.69 632.45 350.97 632.45 349.77 631.25 348.81 631.01 348.09 631.25 347.13 631.25 345.93 630.77 345.21 630.53 344.49 631.01 342.81 630.53 341.61 631.25 340.65 631.25 340.17 631.01 339.45 629.33 338.73 629.09 337.77 629.09 336.09 629.81 335.13 629.81 333.21 630.05 330.57 631.49 329.85 632.45 328.41 632.93 327.45 633.89 326.25 635.57 325.29 635.57 324.57 635.57 322.41 636.29 321.69 636.53 319.05 637.97 318.57 638.45 318.09 638.93 317.61 639.17 317.13 639.17 316.41 638.69 315.69 637.97 315.21 637.49 314.25 637.01 310.65 637.25 309.93 636.29 308.97 634.85 307.29 633.65 307.05 633.41 306.33 632.69 305.85 632.21 305.13 631.73 304.65 631.25 304.41 630.53 303.93 629.57 303.21 628.61 302.49 627.89 301.77 627.65 301.05 627.41 299.61 627.41 298.89 626.93 298.17 626.69 296.97 625.97 296.01 625.49 295.53 625.25 295.29 625.49 294.09 625.97 293.13 626.45 292.65 626.45 292.17 626.21 291.45 625.97 290.97 625.49 290.73 625.49 290.25 625.49 290.01 625.73 289.53 626.21 288.81 626.93 288.33 627.41 287.85 627.41 287.13 627.41 286.65 627.17 286.41 626.93 285.93 626.93 285.69 627.41 285.21 627.65 284.49 627.89 283.77 627.65 283.05 627.17 281.61 627.17 281.37 627.17 280.89 626.69 280.41 625.49 280.41 625.25 280.89 624.77 280.89 624.29 280.89 623.33 281.13 621.89 280.89 620.69 281.13 619.97 280.89 618.05 280.41 617.57 279.69 616.61 278.97 615.89 277.77 615.41 277.53 615.41 277.29 615.17 276.57 614.45 275.85 614.21 274.65 613.97 273.45 613.73 271.77 613.49 270.57 613.73 269.13 613.49 268.89 613.49 268.41 613.25 267.69 613.01 267.21 611.81 267.21 610.61 266.49 609.65 266.49 609.17 266.25 608.93 265.77 608.45 265.77 607.73 265.77 605.57 264.81 604.13 264.09 603.17 263.37 602.45 262.65 601.97 262.17 601.73 261.45 601.01 260.49 598.85 260.25 598.13 260.01 597.41 259.53 596.93 259.53 596.69 259.53 596.21 259.77 595.49 259.77 595.01 259.77 594.77 259.53 594.53 258.81 594.53 258.33 594.53 258.09 594.05 257.61 593.57 257.61 593.33 257.13 592.61 256.89 592.61 256.41 592.37 256.17 592.13 255.45 592.61 254.97 592.61 254.73 592.37 254.25 592.13 253.53 591.89 252.81 591.89 252.33 592.13 251.61 592.37 250.41 592.61 250.17 592.61 249.21 592.61 248.49 592.85 248.01 593.09 247.53 593.09 247.05 593.33 246.33 594.05 245.85 594.53 245.61 594.77 245.13 595.01 244.89 595.25 244.17 595.25 242.25 595.49 241.53 595.97 240.81 596.21 240.09 596.21 238.89 596.45 238.17 596.69 237.21 596.93 236.25 596.93 235.53 597.17 234.09 597.41 233.61 597.41 233.13 597.17 232.65 597.17 231.93 596.93 231.21 597.17 230.25 597.41 229.29 597.65 228.09 598.13 226.65 599.09 226.17 599.81 225.45 600.29 224.73 600.77 224.25 601.01 223.77 601.49 222.81 601.73 222.33 601.73 221.85 601.49 221.13 601.25 219.93 601.01 218.73 601.49 217.77 602.21 216.57 602.21 215.61 602.69 214.41 602.45 213.21 602.21 212.73 602.45 212.01 602.45 211.29 602.69 210.33 602.45 208.89 602.21 208.41 601.97 207.45 601.25 206.97 600.77 206.73 600.53 206.25 600.29 205.29 600.05 204.09 599.57 202.65 599.33 202.17 599.09 201.21 598.37 200.73 598.13 199.77 597.65 199.05 597.17 198.09 596.45 197.37 595.73 196.41 595.25 195.93 595.01 195.45 594.77 195.21 594.53 194.97 594.53 195.21 595.01 194.97 595.49 193.29 596.69 192.33 597.89 191.61 598.85 191.13 599.81 190.41 600.29 189.69 599.81 188.73 599.33 188.25 599.33 187.53 599.81 187.29 600.05 185.61 600.29 184.89 600.77 184.41 601.49 184.17 601.97 184.17 602.69 183.21 603.41 182.97 603.65 182.49 604.37 182.25 605.09 181.53 605.81 180.57 606.53 179.85 607.49 179.13 607.73 177.93 608.21 177.45 609.17 176.97 609.41 176.25 608.45 175.05 607.25 174.33 606.53 173.61 605.57 169.05 602.93 168.57 602.45 168.09 601.97 167.37 600.53 167.13 599.81 166.17 598.37 164.97 597.41 164.25 597.17 163.77 596.69 163.29 595.97 162.57 595.25 162.09 595.25 161.85 595.25 158.73 595.01 158.25 594.77 157.53 594.29 157.05 594.05 156.81 593.81 156.09 593.33 155.61 593.09 154.89 592.37 154.65 591.89 154.17 591.65 153.69 591.41 153.45 591.17 152.97 591.17 152.25 590.93 151.53 591.17 151.05 591.41 150.56 591.17 150.32 591.17 149.84 591.17 149.37 591.17 148.41 591.41 147.44 591.89 146.49 592.37 146.25 592.61 145.76 592.85 145.04 593.09 144.56 593.09 144.09 592.85 142.88 592.13 142.16 591.65 141.93 591.65 141.69 591.41 141.44 590.93 140.97 590.69 140.72 590.69 140.25 590.69 139.76 590.45 139.04 590.21 138.32 589.73 137.37 589.25 137.37 589.01 136.65 588.29 135.93 587.81 135.21 587.33 134.25 586.85 133.76 586.37 133.28 586.37 132.81 586.37 131.6 586.85 130.65 587.33 130.16 587.33 128 585.17 126.8 584.93 127.04 583.73 127.28 579.65 127.04 577.97 127.04 577.01 126.8 575.81 126.56 574.37 126.32 573.89 125.36 571.25 125.12 570.05 125.36 569.09 126.08 567.17 127.28 565.01 128.49 561.17 128.97 559.49 129.21 557.57 129.44 556.61 129.69 555.64 129.69 554.45 129.69 552.04 129.44 548.92 129.44 547.48 129.69 546.28 129.93 544.84 130.16 543.64 129.93 543.64 130.41 543.16 130.88 540.04 132.09 536.44 133.04 534.52 134 533.32 136.16 532.36 137.84 531.16 139.53 528.76 140.97 526.84 141.21 524.92 141.21 523.72 142.65 522.28 143.37 521.56 143.13 519.16 144.09 517.48 143.84 515.56 144.56 512.68 145.53 511 145.53 510.76 146.25 509.32 146.25 507.88 146.49 505.72 147.44 503.8 147.21 500.92 146.25 499.72 145.53 498.28 145.04 497.32 144.81 496.84 145.28 494.92 145.76 493.72 146.25 492.04 146.25 490.84 146.25 490.36 145.53 490.36 144.56 489.88 143.84 490.6 143.13 491.08 142.41 491.8 141.69 493 140.97 493.48 140.72 493.96 139.28 495.16 138.81 495.4 138.32 495.88 137.84 496.12 136.65 496.36 135.93 496.6 135.21 497.32 134.49 498.28 133.53 499.48 132.81 500.2 131.37 500.68 130.41 500.92 129.44 499.96 126.8 499.24 124.16 499 122.24 498.76 120.56 498.52 119.6 498.28 118.4 498.04 117.2 497.8 115.04 496.84 113.12 495.88 110.96 494.2 109.28 493.24 107.84 492.52 107.6 492.52 105.68 491.56 104.48 490.84 103.52 489.4 102.32 488.44 100.88 488.2 100.64 488.2 100.4 487.96 100.16 487.96 99.92 487.72 99.68 487.72 99.68 487.48 99.44 487.48 99.2 487.24 99.2 487 98.96 487 98.96 486.76 98.72 486.04 98.48 485.56 98.24 484.36 98 483.88 97.76 483.16 97.76 482.44 97.52 481.96 98 481.48 98 480.28 98 479.56 98 478.36 98 478.12 98 477.4 98 476.68 98 476.44 97.52 475.96 96.8 475.48 95.84 474.52 95.36 473.8 94.4 473.08 93.44 472.12 92.48 471.4 91.76 470.68 90.32 469.72 89.36 469.24 88.64 468.76 88.4 468.76 87.92 468.76 86.96 468.76 86.24 469 85.76 469 85.52 469 84.8 469 84.32 468.76 84.08 468.52 83.6 468.28 83.6 468.04 82.88 468.04 82.16 468.04 81.68 468.28 81.2 468.52 80.72 468.76 80 469 79.76 468.76 78.32 468.52 78.08 468.52 77.84 468.76 77.12 469.72 77.12 469.96 76.64 470.44 76.4 470.68 75.92 470.68 75.68 470.44 74.72 469.96 74 469.96 73.04 469.72 72.32 469.96 71.84 470.2 71.36 470.2 70.88 470.2 69.92 469.96 68.48 469.96 67.28 469.96 64.4 469.72 63.2 469.72 63.2 469.48 63.2 469.24 63.2 469 62.96 469 62.96 468.76 62.96 468.52 62.72 468.52 62.72 468.28 62.48 468.28 62.48 468.04 62.24 467.8 61.28 466.12 60.8 464.92 60.8 463 60.56 462.04 60.32 461.08 59.84 460.6 59.84 460.12 59.84 458.68 59.84 457.24 59.36 455.8 59.36 454.84 59.36 454.36 59.12 453.64 59.6 452.2 59.6 451.96 59.6 450.76 59.84 449.8 56.72 449.32 55.28 448.6 53.12 446.68 51.92 444.76 51.44 441.4 52.16 439.96 52.88 438.76 53.6 437.32 54.8 436.12 55.04 435.15 54.8 433.48 55.52 432.27 55.76 430.83 55.04 429.15 54.8 428.92 54.08 427.95 53.12 426.75 51.92 425.31 51.2 423.87 50.72 422.91 49.76 421.71 49.28 419.79 49.28 418.35 49.04 416.43 48.8 416.19 48.08 414.99 47.6 414.51 47.36 413.79 47.12 412.59 47.36 411.87 48.56 409.23 49.04 408.27 49.52 406.35 50 405.63 50.24 404.43 50.48 403.71 50.72 402.99 50.96 401.79 51.2 400.83 51.44 398.91 51.44 398.43 51.68 396.99 51.68 395.79 51.68 394.59 51.68 393.15 51.44 391.95 51.68 390.75 51.92 388.83 51.92 387.39 52.16 385.95 52.4 384.75 52.4 383.79 52.88 382.11 53.12 381.39 53.36 381.15 54.56 379.95 55.28 379.47 55.76 378.99 56 378.51 56.96 377.55 57.44 377.07 57.44 376.11 57.92 375.15 58.4 374.67 59.84 373.71 60.32 372.99 60.56 372.27 60.56 372.03 61.04 371.55 61.76 371.07 62.48 370.59 63.2 370.35 63.68 369.63 64.64 368.67 65.6 369.15 65.84 368.91 66.08 368.67 65.84 368.19 64.64 365.55 63.92 365.07 63.2 364.35 62.72 363.39 61.76 361.47 61.52 360.75 61.28 360.03 61.04 359.07 61.28 357.15 60.8 355.47 60.08 354.27 59.84 352.83 60.32 351.39 61.52 350.19 61.52 348.75 61.52 347.31 61.04 346.35" style="fill:none;stroke:#222;stroke-linecap:round;stroke-linejoin:round;stroke-width:1.6800800561904907px"/><polyline points="61.04 346.35 60.8 345.87 59.84 345.39 59.36 344.19 57.92 342.03 57.2 341.55 56 341.31 55.52 341.07 54.56 340.35 53.84 339.87 52.64 340.11 51.68 340.35 50.96 340.11 50.24 339.63 49.04 338.91 47.84 338.91 46.4 338.43 45.2 338.43 44.72 338.91 44.48 338.91 44.24 338.91 44 338.43 42.56 336.51 42.32 335.79 41.84 335.79 41.36 335.55 40.88 335.31 40.4 335.31 39.92 334.83 39.44 334.35 38.96 333.39 38.72 333.39 38 333.39 37.76 332.91 36.56 331.71 34.88 329.55 34.64 329.55 36.8 328.35 38.48 327.15 39.68 326.19 41.12 325.71 43.04 325.23 44.72 324.03 45.92 323.07 45.92 322.83 46.4 322.59 46.88 322.59 47.84 322.35 48.8 321.63 49.28 321.63 50 321.39 50.96 320.91 51.92 318.99 52.64 316.83 53.36 315.63 55.04 312.75 56 311.55 56.72 310.35 58.16 308.19 59.12 307.94 60.32 306.75 61.76 305.79 63.44 305.06 66.08 302.9 67.52 300.98 67.76 300.74 70.88 295.7 71.84 294.02 72.08 293.54 72.08 293.06 72.08 292.82 72.32 291.86 73.04 290.42 73.04 289.7 73.04 289.46 73.04 288.5 74 286.82 74.48 285.38 74.72 284.66 75.44 282.98 75.68 281.54 76.4 280.82 76.88 280.82 77.12 281.3 79.52 282.98 80.96 282.5 83.36 283.94 83.6 283.94 84.8 283.46 85.52 282.5 85.76 281.3 86.72 280.58 87.2 281.06 88.16 280.82 89.12 280.1 89.84 279.86 90.8 280.58 92.24 280.58 92.48 280.58 92.72 279.86 92.96 278.9 93.44 277.7 94.4 276.26 95.6 274.34 96.32 272.42 96.8 271.7 96.8 270.26 97.76 268.58 98 267.86 98.24 267.86 98.72 267.62 100.88 266.42 101.6 265.7 101.84 265.46 103.28 264.02 103.76 263.3 104.48 262.82 105.2 262.1 105.92 262.1 107.12 261.62 108.56 261.14 109.76 260.9 110.72 260.42 111.68 259.22 112.88 258.26 113.36 258.02 113.84 257.3 114.08 256.82 114.8 256.34 115.52 255.38 116.24 254.9 116.96 254.18 117.92 252.98 118.64 250.82 119.84 247.22 120.08 246.5 120.56 245.54 120.8 244.58 120.8 243.38 120.32 243.14 120.08 242.42 120.32 241.22 120.8 240.5 121.76 239.3 122.48 238.58 123.2 237.86 123.92 237.14 125.36 235.22 126.8 233.54 128.72 231.62 128.72 231.86 129.44 234.26 129.44 235.7 129.69 236.18 130.16 236.66 130.65 237.14 131.13 238.1 131.13 238.82 131.37 239.06 131.6 239.3 132.32 239.78 133.04 240.02 133.28 240.26 134 240.98 136.65 241.94 137.13 242.42 137.37 243.38 140.97 241.46 141.44 240.5 142.16 238.34 143.37 236.66 143.84 235.22 143.6 233.78 143.84 232.58 144.56 230.9 143.84 228.5 144.32 228.26 145.04 228.5 145.53 228.02 146 226.82 146.97 226.34 148.41 225.86 149.37 226.58 150.56 226.82 150.81 226.34 151.53 225.14 152.25 224.42 152.73 224.18 154.17 223.7 159.21 223.22 160.17 223.46 160.65 223.7 161.13 223.7 162.09 223.7 164.01 222.74 167.37 222.98 171.21 223.46 175.05 222.02 177.69 221.54 179.85 221.78 180.81 221.54 182.73 218.9 182.97 218.42 185.37 217.7 189.21 217.94 194.25 220.1 197.37 220.34 198.33 220.82 198.57 222.26 199.29 223.46 203.61 224.9 205.29 225.38 206.49 225.62 206.97 226.82 208.41 227.54 210.09 228.98 210.33 231.86 210.33 235.22 210.81 235.94 211.29 236.18 212.01 236.18 213.93 235.22 214.89 235.46 215.37 236.18 215.85 237.62 215.13 240.74 215.61 242.42 215.61 250.1 214.41 253.7 214.17 254.42 213.45 257.78 213.21 260.66 213.21 260.9 213.45 261.38 213.69 263.78 216.09 266.42 217.29 267.14 217.77 268.1 217.53 269.78 218.01 270.5 218.25 271.7 217.53 273.38 218.49 274.82 218.73 275.78 218.97 275.78 219.45 276.02 221.37 276.26 224.01 275.78 225.45 276.02 227.37 277.94 229.05 277.94 230.97 278.42 234.09 278.18 235.77 278.66 237.21 279.86 238.89 280.82 239.85 281.3 241.29 281.54 243.69 280.34 243.93 279.86 245.37 278.42 247.53 277.94 249.93 276.5 250.41 276.5 252.57 277.7 254.01 278.18 254.49 278.66 255.69 278.42 255.93 278.42 256.41 278.42 258.57 278.18 259.05 277.7 262.65 277.7 264.33 275.78 265.29 273.14 266.01 272.18 272.01 267.62 275.37 266.42 284.01 266.42 288.57 265.7 288.81 265.7 289.29 265.46 290.49 265.22 292.17 264.74 295.05 264.5 299.13 262.58 299.37 262.34 302.73 261.38 304.65 261.38 305.13 261.86 305.37 261.86 310.41 263.06 310.65 263.06 312.57 263.06 313.29 262.82 313.53 262.34 314.25 261.86 314.49 261.38 314.97 260.66 315.69 260.18 316.17 259.94 317.13 259.22 317.37 258.74 318.09 258.02 318.57 257.54 319.05 256.58 319.29 255.62 319.53 254.66 319.53 254.18 319.77 253.7 319.77 253.46 320.01 252.74 320.01 252.26 320.01 251.78 320.25 251.06 320.49 250.58 320.49 249.62 320.49 248.9 320.73 248.42 320.97 248.42 321.21 248.18 321.69 247.94 322.65 247.22 323.85 246.26 324.81 244.82 325.53 243.38 326.01 242.66 326.25 241.94 325.53 241.46 324.81 241.22 324.09 240.5 323.85 240.02 324.33 238.58 324.57 237.62 324.57 236.9 324.09 236.42 323.85 235.94 323.85 235.7 324.33 235.22 324.81 234.98 324.81 234.26 324.33 233.78 323.85 233.54 323.37 233.06 323.61 232.34 323.61 232.1 323.37 231.62 322.89 230.42 322.89 228.74 323.37 227.06 323.61 225.38 324.57 223.94 326.01 222.26 326.97 220.1 327.45 218.66 329.13 216.26 329.37 215.78 329.37 216.02 329.61 216.02 330.33 215.78 330.81 215.06 331.77 212.9 331.77 212.42 331.53 211.46 331.53 210.74 332.25 209.78 332.25 209.06 332.01 208.58 332.49 207.38 334.17 206.18 334.41 205.94 334.65 205.22 334.65 204.02 334.89 203.3 335.61 202.34 336.33 202.1 338.01 202.82 338.97 202.82 340.17 203.54 340.65 203.54 341.13 203.54 341.85 202.82 341.85 202.34 341.85 200.18 341.61 198.98 341.61 198.02 342.09 197.3 343.29 196.58 343.53 196.1 344.01 196.1 344.97 197.06 345.93 197.3 346.65 197.54 347.37 197.54 348.57 197.3 349.53 197.06 350.49 197.06 351.69 197.06 353.38 197.78 354.81 197.78 355.3 198.02 357.45 198.74 357.69 198.98 358.42 199.22 359.38 199.94 360.1 200.18 360.81 200.18 361.54 200.42 362.25 200.42 362.74 200.66 363.21 200.42 363.94 200.42 364.42 200.18 364.65 199.7 364.65 198.02 364.42 197.06 364.42 195.86 364.65 194.9 365.13 193.94 365.38 192.98 365.62 192.02 367.77 189.38 369.21 188.66 369.94 188.18 370.18 187.22 370.18 186.74 370.42 184.57 370.65 184.34 371.13 183.62 371.38 182.9 371.86 182.18 372.1 181.46 372.33 180.74 373.06 180.01 373.3 179.78 373.54 179.29 373.54 179.06 373.06 178.57 372.33 178.09 372.1 177.85 372.1 177.37 372.33 176.65 372.57 175.69 372.57 174.97 372.81 174.25 373.3 173.29 373.3 173.05 373.06 172.57 372.57 171.37 372.57 170.65 372.57 169.69 373.06 167.29 373.06 166.81 373.54 166.09 373.77 165.37 374.01 164.41 374.5 163.93 374.74 163.21 374.98 161.29 375.21 159.61 375.45 157.69 375.7 156.01 375.45 155.29 375.21 154.57 375.21 153.85 375.7 152.89 376.18 152.41 376.9 151.93 378.1 151.45 378.34 150.73 379.06 149.05 379.54 146.65 380.02 145.45 380.5 144.25 381.46 143.29 381.94 142.09 381.22 140.89 380.74 139.69 380.02 138.73 379.78 137.53 379.78 136.81 379.78 134.65 380.02 134.17 379.78 132.73 380.02 131.53 380.74 130.09 380.98 129.37 381.46 128.65 381.7 128.41 381.7 127.45 381.94 126.49 382.9 125.53 384.58 125.29 384.58 125.05 386.5 124.09 386.74 123.85 386.98 123.61 387.46 123.61 388.9 123.85 390.34 123.85 391.78 123.61 393.22 123.61 394.66 123.85 395.86 123.61 397.3 123.85 398.5 124.09 398.74 124.33 399.94 124.33 401.14 123.85 401.62 123.85 402.34 123.37 403.3 122.65 405.22 120.97 408.1 122.41 410.02 122.65 410.98 122.17 411.46 121.69 412.66 120.49 413.62 119.05 415.3 117.85 417.7 117.61 419.14 116.89 420.1 116.89 420.58 117.13 421.78 117.37 422.5 117.37 422.98 117.61 423.94 117.61 424.9 118.09 425.86 118.09" style="fill:none;stroke:#222;stroke-linecap:round;stroke-linejoin:round;stroke-width:1.6800800561904907px"/></g></g><g style="clip-path:url(#clip-path)"><g style="clip-path:url(#clip-path-3)"><text transform="translate(355.89 537.88)" style="font-size:16px;fill:red;font-family:TimesNewRomanPS-BoldMT, Times New Roman;font-weight:700">1</text><text transform="translate(360.7 537.88)" style="font-size:16px;fill:red;font-family:TimesNewRomanPS-BoldMT, Times New Roman;font-weight:700">(</text><text transform="translate(364.06 537.88)" style="font-size:16px;fill:red;font-family:TimesNewRomanPS-BoldMT, Times New Roman;font-weight:700">1</text><text transform="translate(369.1 537.88)" style="font-size:16px;fill:red;font-family:TimesNewRomanPS-BoldMT, Times New Roman;font-weight:700">)</text></g><g style="clip-path:url(#clip-path-3)"><text transform="translate(264.69 314.43)" style="font-size:16px;fill:red;font-family:TimesNewRomanPS-BoldMT, Times New Roman;font-weight:700">1</text><text transform="translate(269.49 314.43)" style="font-size:16px;fill:red;font-family:TimesNewRomanPS-BoldMT, Times New Roman;font-weight:700">(</text><text transform="translate(272.85 314.43)" style="font-size:16px;fill:red;font-family:TimesNewRomanPS-BoldMT, Times New Roman;font-weight:700">2</text><text transform="translate(277.89 314.43)" style="font-size:16px;fill:red;font-family:TimesNewRomanPS-BoldMT, Times New Roman;font-weight:700">)</text></g></g></svg>