<svg  viewBox="100 176 100 100"  version="1.1" xmlns="http://www.w3.org/2000/svg" xmlns:xlink="http://www.w3.org/1999/xlink">
  <g>
  <path id="path-0502" d="M130.04321453912962,183.69382298271375L131.5290045837919,184.1318441823896L132.3524015576786,184.2416617606723L132.56130937020862,184.62336262886856L133.4537516386681,185.2004210097939L134.88080505260223,184.86721917371506L135.45796996580793,185.55484243939918L136.0755649453149,186.48845328174593L136.7443311286297,186.66776958327682L137.2936371310152,187.12814809679185L137.80636188661992,187.02659790042435L138.54169810871463,187.55785149988242L139.49496652599555,187.48052572559936L140.03132896191892,187.90794509859825L140.2646800189923,188.88495440807765L140.5423126221358,189.23331085416885L140.5834190253736,189.7168335834731L140.83901041555146,190.23020299248583L140.68549385454025,190.8777323559334L141.04381706023923,191.63181744955637L141.96655536712387,191.7004735934779L143.1842952296738,190.41294333764745L143.45413487511541,189.99974172710608L144.0917880338875,189.93026066473067L145.12166047016217,190.71266153784381L145.65000836804393,190.76869143574095L146.57387955403829,191.09151244754503L147.37281690462623,191.05688567918878L148.00491863140087,191.4339102645581L149.64256806005505,191.9085388383137L150.75227327063658,192.05623479525184L151.00200465445778,192.518082102697L151.99662461250227,193.21732271086967L152.68417111852432,194.23453765683007L153.5770721604913,194.95269068875132L154.14630658504575,195.26444586530397L154.79267383427396,196.46610143394355L154.5431119564346,197.52080268718964L153.9679297156472,198.36800264362864L154.5797358001655,198.47241978518014L156.1559716610609,198.21239870828504L157.0628381425522,198.32352389223797L157.43512992853357,197.93929386023592L158.25756909145093,197.4868819529829L159.06279676032136,198.09802944569765L159.35986131157915,198.76398374472956L160.08391816342555,198.97414535375538L160.80890352721508,199.42271864633312L161.67820026567824,199.45313301531223L162.25313570410617,199.63852607091303L163.3316698241524,199.6517556058161L164.06729594057833,200.27602770548583L165.1713266832612,200.6912764661556L165.63613465929848,200.65972784743008L165.8548666239567,201.20299530125794L165.64104166373,201.869040409013L166.51218637806414,202.55020006315044L166.86288415204763,203.21920346351453L166.68292000533802,204.02935658163824L167.37522142131456,204.34483231561444L168.19771552910788,204.3010197870135L168.96022233288386,204.80902741540103L168.97711573325796,205.53557295375504L169.57898396320343,205.8470035101427L170.37403346919564,205.93961528357522L170.7832849296883,206.4811992566465L171.57903805503702,207.0033747524394L172.6946719782427,206.99078863534942L173.19213473031414,206.78146338954411L173.58218185521218,206.97187782147466L173.87986716954038,207.42170549909497L173.66904428752787,208.11414207876714L174.0799435068784,208.82482113388778L175.104131072394,209.24599041725014L175.47857171389114,208.84209276203546L175.93813298862915,208.81718408549477L176.6375098490098,209.34315507807332L176.72602808381998,209.7074353947828L177.12001676198815,210.09948394453204L177.9611142327576,210.36427599774197L178.2718562860773,211.1479831884335L178.69893511607006,211.54982904534882L180.40723297334443,212.83260223302568L180.6093696236876,213.2367324111019L181.25221027873158,213.9097783631605L181.99560135176762,215.04388121191823L183.09231282690234,216.43892833224436L183.54826374393087,217.33733686459527L183.83148981712839,217.58431787314748L184.32101772009264,218.8821760984929L184.25187073452253,220.22225848692142L184.320404901433,220.98907504440012L184.05157240509834,221.32125331021234L183.92226082721027,221.95611514709253L184.25987698325844,222.94642715456575L184.11972171071466,223.47460660849083L184.45967208345428,224.04622116883183L184.51203415691634,224.85496653823247L185.17671197774143,225.3652928801148L186.92402794533882,225.7424588279091L187.85533064544506,226.01301308413713L188.66098984626296,225.85527794381596L189.20925795071525,225.9816687644934L190.40620547020444,226.98942763680225L191.10104187644356,226.67921657457464L191.56045114682456,226.89166301583646L191.96367405050114,227.3511790359089L192.8000050001483,227.61206887268327L193.43215465114008,227.97194744657372L194.49377474794346,228.15531684459438L195.11039162349334,228.73183862377118L195.59995026699835,229.00179837781525L195.9609728252799,228.903215789971L196.69281025152304,229.11962092809426L197.13468041027045,229.47418291062513L197.72679832355425,229.00557632789332L198.22512209377055,229.29646423001668L199.15154968237766,229.5357281745337L199.87976748922483,230.12668092771673L200.42908118082778,230.31095765044847L201.40336250487235,230.29669232149809L201.98016414883205,230.77682211912816L202.66079260522565,230.9244996335101L203.53285746215988,231.3286089315052L204.41777636714687,232.1493743278843L204.81361862020276,232.09540941626165L205.71120982063076,232.5262340343197L206.4253451640052,233.1848586507458L207.6821941074595,233.52380060861833L209.01357097952314,234.0636673667732L209.90298876688576,234.67140381089393L210.72891188457288,235.03376523986026L211.96656351838283,235.43688506703802L212.4858709678665,235.5045618113836L213.98304526475658,235.29322990434503L214.25945092652,235.49365972441592L214.62450841983264,236.14389608778038L215.1033929070818,236.38854512905073L215.38792757794909,237.33020544205192L215.96965112020553,237.7599656463708L217.10931362748306,237.93321198799913L217.5501760201314,238.32883806134032L218.0638870237417,239.72546609273286L217.87051604773296,240.79432340394305L217.2003364802149,241.54743795624017L217.1230932191247,241.94421164035975L217.23645436215884,243.0941964351632L217.40479457846595,243.6066666828583L216.82363019142758,244.28946682292553L216.48418543379012,245.2210135946434L216.71568169029706,246.54234931496921L217.07864685755703,247.00405120665528L217.29712036285127,247.87279371725435L217.66204309679597,248.3639848801331L217.8774004071929,249.55734980358557L217.2567547136914,250.01572688682973L217.29059678869635,250.46895621585554L217.7029372677207,251.19417599601184L217.57703489611595,251.78990702755527L217.72010950237018,252.0741718190111L217.56244749251528,252.53008128175497L217.7769046705962,253.03643936555636L217.41561992775678,253.2552364959929L216.48291836001772,253.34859168286948L215.8886342756723,253.52899340051863L214.78961698714193,253.5459980214173L214.21965314314366,253.43148246068085L212.98315067627846,252.83106283041434L212.04807874738253,252.62334147011734L210.87870287053374,251.90872197300723L209.6138458468413,251.59428641671093L209.02056677678593,251.5646369223732L207.90686399463812,252.2016132591998L207.02303150114858,251.7300965079994L206.37190225018276,251.5383527224485L206.13909522658832,252.22384979207345L205.82203985126216,252.28367308453198L205.34245056779037,252.9645507240939L204.41799894050564,253.85549745591197L203.72701556684842,254.1120970984839L202.62022504743982,253.82961012875057L202.71784234039114,253.36706159329879L201.8673910458183,253.7888562144435L201.3155458770416,253.72156407086004L200.52338618651083,254.13824291250876L199.42684919608655,253.85208163624793L199.06201961451188,253.18384661868004L199.05413796826906,252.8647836268965L198.25402940775166,253.24851524174028L198.07194578316376,253.68744703966604L197.6749412973677,253.88758565619173L196.86358284875678,253.57040640418836L195.9193623576557,253.38355333025538L195.1851391453547,253.38170195755902L194.39963858718875,253.53075574870581L194.04323529019348,253.43955498227206L193.69151016841533,253.8035170538551L193.5168848766025,255.09510473564933L193.2167615947419,255.32727684577185L193.35296201774872,255.9464061017752L193.6241789702126,256.0356268373462L193.7140120296408,256.7649333178615L194.00001850930676,257.4203458782886L193.81941144019584,257.8458778011345L193.3379776639067,258.08357554921804L193.2921578306723,258.6258861734477L193.81651972334475,258.6732950496844L193.70848184282295,259.2025428380193L192.80846224883317,259.30741221943845L189.43544743556777,258.77535271411944L185.67630970407663,258.65996658237145L179.0752156764538,257.86827315187384L176.49202552588213,258.00151319381985L174.66382622782112,257.9175119184092L173.4142774136344,259.03095318905616L172.95350047198735,260.32937659350046L171.34477759849324,261.5180106532571L170.72962049954185,262.80500538358865L168.87855721376764,264.68132185422564L168.86648515394336,265.7991054868662L167.3258723360741,266.8137686177961L166.40367369651176,268.18984760917647L166.5220772113389,268.62193144755656L166.58154026346892,271.2083074047314L164.687699535516,271.7517708023024L164.28233554939106,271.7768227756378L161.9668743093971,272.36451357284477L160.18357351856685,271.9268321054069L158.76710035049473,271.7421462206912L157.8961100491597,270.9671870894763L157.32244769010686,270.08795495020604L156.48098217187544,269.35656899468177L155.0284750152332,268.29410883888795L154.21506178409436,267.8676893542133L152.96871101293436,267.06540708958346L151.48528601441467,265.9370647094456L150.2266194447966,265.3090768077709L149.16048487884473,264.39666363266315L148.79361808698195,263.94885381492077L148.2835523010035,263.6744275186238L147.234585037555,263.3677332874122L146.4054292359251,262.81532413191326L145.37639656123247,262.73639118219944L144.95253996578504,262.6029864520251L144.12259310645823,262.86466663112697L143.2466066189736,262.723871417209L137.72700243184227,258.33681061795505L136.1609953198149,257.1204217018667L130.5585335263131,252.6736870892246L127.96507887834923,250.64647612513818L122.8082932035395,246.53357958070592L121.83897846513537,246.28941693465003L116.02859319669369,245.80952232952768L112.26756767675397,245.45398218844366L111.46080295890715,244.81910840289493L110.8435345258622,244.75642757532114L109.29374347059456,243.96126936170185L108.54565306515178,243.96652602490303L107.61512542879427,242.61208406708738L107.19791713106133,242.26734335001493L106.50847443936254,242.01632104816508L103.64059452537913,240.43627967104203L101.3513796090283,239.50486304187507L99.19108619587314,238.29113529913684L96.07571899739378,236.15560351219574L93.7903276449415,234.81351013559924L87.86148681517443,232.09743798143882L85.64516168338741,231.0363083539778L85.94343400385333,230.68327368343034L85.54188480878292,230.49367568764774L85.19970322188237,230.0169046561623L85.69506178384108,229.61343792874322L86.1146236099521,229.97909486200388L86.72648997295983,230.10187102238524L87.28737348377217,230.02940141734052L88.20065493212314,229.61758446822387L88.48260101107007,228.68626713487902L88.73186267943856,228.3322124885117L89.42475789107448,228.25942900996597L89.26910872016742,227.72741123935975L87.6172975674217,226.87070627382673L86.64566580248538,226.6252107940345L87.00491289891579,225.88143038819453L86.3013862213229,225.6018315124802L85.35639048869234,224.2169040371764L86.48282813127844,224.08018958485354L86.79310228225768,223.43939415795376L86.23655467430581,222.86515277346462L85.92382389719205,222.31523453720183L85.07094627965307,221.92242323705887L84.90688042648617,221.3830332800335L85.81161006974071,220.7803766410252L85.22680102265258,220.32352841179L84.51000663023115,220.01098241403088L84.84644726789338,219.6346776441569L85.4318648968856,219.86048649219356L85.49282453035448,218.53606171140655L84.84714988598535,217.79898207684892L84.45665422176899,216.59211194427007L84.73790978333273,216.02530426907015L85.5629920936135,215.66725597212098L85.79903116507376,215.10507158228484L86.11198042078831,215.06114585523937L86.74251329067738,215.70239751821646L87.2802207056684,215.4174637161086L87.57308927910526,214.2794332141957L87.8792654958088,214.15185455887877L88.6927333157364,214.27543257595153L89.0004209227518,214.05987835511678L89.08571964254588,213.5920711821327L88.69622296525995,213.2763271666845L88.0944472522151,213.46824329231458L87.98381286507902,213.08074167391078L88.64964973277893,212.54231371550304L89.0243173864892,212.06087486413617L88.86392715158217,211.62290831898827L88.3644606863636,211.18016730994805L89.27660233023926,210.82736495854988L88.16937762883754,210.3745218001768L88.23361575968738,209.83642572863118L89.95837225163268,209.57772411978567L90.5283928833469,208.78323536941934L90.53810628560859,208.05463639011577L90.02055452659079,207.39898689692836L90.0877694754654,206.81277860838236L90.66737710391317,206.37463450785435L91.78814496714404,206.080363765087L92.23604830234763,205.350450415237L92.76720074468358,205.10462359652593L93.24763255906328,205.2825016498091L94.27095877126521,205.18864154834864L94.74021761722724,204.94389615016735L96.52653957444454,204.44489690320916L96.58905650090128,203.64845751381927L96.59981054896707,203.41661355278848L96.57406531852575,203.2179935243139L96.56556452403493,203.207115260534L96.48417712964329,202.76726262431566L96.65303098962977,202.41036337409332L96.72754343147062,202.40893358000721L96.81329595723037,202.52849852413055L96.79026866283675,202.60251017812698L96.80464980624129,203.17298819909047L97.48330651162905,203.18186468730983L97.9688217459352,202.91079965312565L98.35856057587625,202.61594991393304L98.58205934838588,202.4569378881415L99.03903190343044,201.99203165913332L99.38762121182845,201.50368909282042L99.52785690332712,201.47524262561546L99.72160551770139,201.43835452507028L99.78462549469805,201.30122137820217L99.73060238491416,200.94903174977026L99.6002582550318,200.86698936266384L99.42457769343127,200.79646230429262L99.25237848316465,200.69301191378963L99.20089333376563,200.62040604122285L99.17396127131542,200.53273102525054L99.21689476443316,200.42152132415504L99.44604933552546,200.3071873990666L99.59191427143378,200.16822811839575L99.807467444145,200.17520143221918L100.55621132004308,200.49610379678325L100.68034391929177,200.3245577041498L100.50606317065103,199.95235389961726L100.48440269534149,199.90891272937915L100.47140838240921,199.71034056859753L100.49354658655284,199.59946733200923L100.63924059870078,199.2880029960761L100.88893553648086,199.00386533093206L101.15466171183289,198.87410189440106L101.2688305891752,198.80567233815236L101.39774220035179,198.65971317399817L101.61794877109605,198.35421537470665L102.08327206259128,198.26865926512437L101.85464880770269,198.56719309384698L101.79720366135916,198.93580977539477L102.13667912077653,199.12495220946676L102.20237847688986,199.10529584870346L102.37177540103403,198.91834414800633L102.614939998919,198.70788172449738L102.78362817416019,198.498825083273L103.15905881460276,199.15409211807673L103.4584425238354,199.2225883895544L104.25679840950397,198.87715974590355L104.33970358819715,198.8866442340668L104.95392259697837,198.97473192395228L105.62538245721953,198.68340860525404L105.95175871100037,198.13654403124292L105.97157801929825,197.92642068083205L106.01617916808209,197.00987517658996L106.0397470488897,196.95406617889967L106.31807430985464,196.4746337310844L106.93285514523632,196.412357317864L107.4470231835312,196.46192772244285L107.64581532534066,196.47323578144915L107.79425158921003,196.45223356231327L107.90924945611914,196.41677530608013L108.07927119619671,196.25934888872052L108.15207702655425,196.1556431966019L108.3785299731644,195.30365716962842L108.50537798973528,195.25092063819739L108.83616651587909,195.06215378521938L108.8972549449536,195.01692249939606L109.37458125192643,194.7191659057562L109.53421874837295,194.64665336506368L109.8043273658368,194.52133246135782L109.84172779335859,194.52844014183847L110.42467754449535,194.35732036531772L110.52568655450887,194.24553357430432L111.01659337005731,194.01678122386875L111.67038241016235,193.8954416888473L112.11741153508228,193.3115218436733L112.14139988425632,193.27045747770444L112.13777076565202,193.07972579342004L112.57050921824157,193.04666482779612L112.7456619870427,193.14674118666608L112.9315230481061,193.1545553593014L113.06041864285908,192.7667985419439L112.96739014845116,192.6471616623303L112.75274582681413,192.4194630540669L112.70798733984884,191.80289044664005L112.68211238471304,191.74815071523153L112.56495151419585,191.67261598363802L112.47750749918305,191.64055833608018L112.41349905316929,191.53840332267646L112.4291788392602,191.49427727104467L112.6998487117562,191.1847564532236L112.65587518775646,190.84300082533446L112.5851324226951,190.8218573553786L111.80363615374517,190.58628947651414L112.75454269047987,189.99087238306038L112.90448277049654,189.425519268264L113.47068812011094,188.81358547814762L113.61435896095281,188.13765967661675L114.17021963706065,187.82520544767067L115.21998426478604,188.46480650539797L115.84316861952175,189.06599058957363L117.09558596018542,185.75928536143238L117.57913867690331,185.16437861060786L117.81901888745415,184.55830848456935L117.83504863322742,183.8973931410892L118.30822587650619,183.1923580198145L118.65894615011894,182.33848530926662L119.27869164878211,181.9154934903463L119.42655847844435,182.3093702801243L119.30974493803114,182.90518479596176L118.96970204127683,183.25153208789834L118.90048374723119,183.9321396561245L119.51391611388863,183.64695263588146L119.8169921142744,182.64853987353763L120.2896637587819,181.86463055523382L120.04291143250339,181.4828341283992L120.30119873226067,180.94407519638116L120.13040931891737,180.42178349131336L119.65512271083753,180.63049592205425L119.3563799782496,180.11754735455088L118.50160358573521,180.3425822759782L118.18361568780529,179.90670710333052L118.4443819821281,179.70817943098518L119.11289250643858,179.68029040537567L120.3957477638287,179.36076656763908L121.0820688408221,179.62644925733184L122.57633482283381,180.02413875075854L123.08305687334905,179.95824955955868L123.72240699765644,180.1362094720489L124.34657743475327,180.82816665288556L124.77421579402835,180.957380769265L125.25469680320748,181.92514137891976L125.95691396514303,182.15637567696376L126.3895552293161,182.77715767008067L126.76477423926917,182.97287942724324L127.31983356982164,182.84793900602654L127.89773040367072,183.50981918187426L129.45884295624637,183.55890757665566Z" fill="#FF7B46" stroke = "#222" stroke-width=".25"></path>
               <text x="142" y="230" font-size= "3" font-weight="500">
    बाँके
  </text>
    </g>
</svg>