<svg  viewBox="382 187 100 80"  version="1.1" xmlns="http://www.w3.org/2000/svg" xmlns:xlink="http://www.w3.org/1999/xlink">
  <g>
  <path id="path-0505" d="M457.5595696775181,256.67712343658786L456.8117434589112,256.7295811088261L456.21585703534765,256.62279909082645L455.9508104343913,255.84797610616715L455.0124151271575,255.82802203682513L454.5113200435171,256.3572039602386L454.5178108938853,256.75424093505717L454.03569271344895,256.98902176248066L453.27471764147595,257.60081595504744L452.2074898989322,257.45666283183255L451.79875281758723,257.53644359893315L450.7161118229633,256.9103998147548L449.7649525678262,256.8356337281548L449.53259950993925,256.6970757641484L449.48511972813685,255.72240431448245L449.2805101938302,255.38910363517698L448.4295606301639,254.83149666690315L448.3516401324996,254.28394038572515L447.4520671554583,253.89216346626472L447.21377780151306,253.47797179837562L446.51564737291847,252.91584796781262L444.84173348482545,252.34169522429238L444.2672933590238,252.37508314743536L443.25051995630565,253.0364460783203L442.2336119743086,253.5617451399212L440.7627100882364,253.2842595562006L439.18346706155353,253.9787580498487L439.09384847869114,254.53532203104714L438.72469494823963,255.15953776518563L438.7156897662935,255.7989251998315L439.50066485498064,256.438469251646L439.40643257922966,257.47662399690034L439.0159250078523,258.4065394942563L438.0888907591816,258.54144007376L437.8655309893784,259.078710675356L437.071815670206,259.12328029941455L435.88729269887335,259.4476317910512L435.379116809032,259.49042024089704L434.429839750268,259.2588540088318L433.89942016351597,258.8865351130562L432.2501825842319,258.4660600829975L432.0435679858565,258.13159473785436L431.49957454332434,258.061505438538L430.94707464883686,258.32958275547026L429.9156406110069,258.30188535787784L428.8792447304022,258.75929677133445L428.0965744455225,258.74904201962454L427.03586506591455,258.5343472661507L426.6544707236353,258.16658889275186L426.4176646155447,257.4435158847582L426.59232053606866,256.6125176125315L427.25572415261195,256.3091019729027L427.31354692509376,255.61310062235407L427.80961093377664,255.06306263608985L428.7712152186359,255.10663435914103L429.2251869412321,254.7007535875564L429.1954182840236,253.8005976759332L429.9940326159285,253.77743657044175L430.1574967776942,253.51349529570507L430.6996004725188,253.32651373187855L431.04012989462717,252.6728571639469L430.33253636502377,251.998959836209L430.7953967703561,251.148337905086L430.7295533021734,250.51320207825665L429.9476608343448,250.35853858267L429.1471295610845,250.6049467495768L428.27285836865303,250.42610238764155L426.7164760862415,250.4779712602458L426.2448024764326,249.99367381665343L426.19811401441257,249.60814021712395L424.8056398644494,248.06717588711854L424.49026656095884,247.54003505636138L424.13275907450225,247.49165180997443L423.53553231025217,246.9621256405053L423.4114236490859,246.4638830195163L423.3221774231497,246.37374740620453L423.1571481178871,246.40238659030547L422.89563649097363,246.55116967305003L422.6073608884053,246.62293994368156L422.2764402394005,246.8132804137449L422.1274272466144,246.81973034392104L421.766165079056,246.95518703968537L421.7042115131717,246.96376096309905L421.59436214767265,246.8776600133233L421.54707914871324,246.80856014073743L421.405533618321,246.78201459868887L421.3457637608444,246.70952891878824L421.25829275371507,246.52361306844614L421.2114272276831,246.3036926777786L421.20126526367494,246.06099439165064L421.2355777123048,245.93901431155336L421.2428018117589,245.7291910690774L421.25779372603574,245.49675844642297L421.3144965380761,245.27497547366147L421.30951322391047,245.24204021686364L421.27415230937186,245.1507751656709L421.2155840480209,245.12984772710206L420.7437454753035,244.81513782674665L420.6567221406385,244.8169041156716L420.1821742606735,244.73022007301552L420.12028970931533,244.57321682494967L420.09382610450484,244.50747862684148L420.08434007125834,244.4598468103186L420.0395652265652,244.3244079715687L419.9060270279315,244.24150123883192L419.935356985965,244.1316723633381L419.897809330163,243.95545749144276L419.88060350762316,243.93041104045915L419.81496118057476,243.7881645074376L419.8127623688015,243.69975665689253L419.78349922140296,243.52350564515473L419.7614542269166,243.4690059793138L419.8073163496174,243.31357410447617L419.79458612780036,243.13333651579524L419.7274329344127,243.09815683710804L419.6544433455929,242.99626609332245L419.6558821170602,242.88616145829565L419.76743156535304,242.70738694026113L419.6217677907316,242.6804572330193L419.3342101028629,242.616151633787L419.1616893366481,242.67821853964688L419.11737417938275,242.73091810357892L419.0353821862118,242.76560764054648L418.8300026075558,242.33892820278197L418.7057800151906,242.17576624040885L418.68085136130685,242.0068514736913L418.671773819804,241.97396430492063L418.6802084230567,241.6462318587719L418.590830067169,241.55266223502622L418.4734501137282,241.33007730397912L418.4559199093601,241.29378025597907L418.3939633909358,241.14067930316924L418.4130646367321,241.07771407848395L418.5057883774989,240.92852519593453L418.13741056468825,240.63756375244247L418.0914730363547,240.60877151738896L417.98398774302404,240.45592336882783L417.9153208644202,240.37352000054943L417.7799453054249,240.27068160036652L417.743419441651,240.1620904021829L417.77411885620677,240.09127240298312L417.7233762501346,239.92770114609357L417.6712904578326,239.84867151936942L417.6583350754445,239.83054106646978L417.6330227036324,239.68851008424826L417.6708774093404,239.58469661999243L417.66422438718473,239.508019720397L417.7191000691764,239.16961234795326L417.692588644577,239.1151367623752L417.75327869877583,238.9522723179116L417.7203545170196,238.8284801488535L417.8240604121602,238.47030847713086L417.8308913208384,238.4260504077265L417.8200840376867,238.34939758263317L417.7431303123649,238.13916732520738L417.64706078261224,237.85232038411323L417.76223699854745,237.7173115024034L417.7873885923873,237.60273990920177L417.7023546045348,237.3999181165891L417.6960859888841,237.33407156788144L417.7160718943833,237.0621837359604L417.6386113484605,236.71282784914547L417.4262797810734,236.27492194406568L417.38887696348866,236.140323500892L417.3873873523571,236.09655784091956L417.3747179851962,235.96139471051174L417.31633956371115,235.81650653169254L417.20318668792424,235.63639047018296L417.1993881973376,235.394556619367L417.0498393075686,234.9844821460283L416.92574928958675,234.84863622017747L416.46994921588157,234.41037361709823L416.3482738527491,234.34778264147826L415.9596796138121,234.19696773991473L415.9471086468511,234.1900998909523L415.87632747812677,234.04529594210908L415.73038718981115,233.99799028476173L415.36846053349655,233.9055652607767L415.22142704891667,233.8253483074659L415.1263980608055,233.31831616305954L415.08993001685303,233.08879000910474L414.9767291181106,232.90868595906431L414.239105858167,232.80799349021618L413.5719954712986,231.96875865822312L413.3885997855996,231.53766034750697L413.266515998057,231.46380677002253L412.6477713319564,231.46650525367932L412.58597373261546,231.46816311524708L412.4368042312781,231.450394835083L412.34555428257954,231.43445079223784L411.733787623607,230.90138281337022L411.6986793335891,230.8365692892139L411.61183142323716,230.58221329628486L411.4918453722494,230.32197432859812L410.392077095863,230.0041756757837L410.3507060382144,228.88006471854533L409.9615404853921,228.34486829996695L408.7017880022504,228.18196282730332L408.2214890518917,227.43798922781116L407.3584184424162,227.82283942495087L407.2293180327597,228.14262490227975L406.51013950202105,228.84435094504624L405.7871466952547,229.09707360142147L405.46576122165243,230.051314087249L405.07935877085765,230.2603862993774L404.45901895668794,231.01446163403034L404.05375303935944,231.15779554408073L403.3135837655609,231.67899595965446L402.8988331294331,232.5055188517381L401.7777523160257,232.7933077697462L401.35540625399335,232.56056926412202L399.3212670325538,232.32272684026702L398.75503864395614,231.64795103898814L398.16289843523555,231.53813107955375L397.35993145075736,231.20515120399523L396.7695845076378,230.6709902515313L397.20701448316504,229.7887423744105L397.03236085743447,228.10723033634713L396.4845842473442,227.96682780261835L395.98630706623953,228.29336650847108L394.95542108167683,228.67491710488412L394.0701660156501,228.59872105865907L392.5416295944251,229.43958422658488L392.17921698976534,229.03149398252572L391.41250601365937,228.49169224170055L391.3949245726217,227.6175556571734L391.523658042699,226.9253717334259L391.93416518145204,226.4731925887163L391.86053432285735,226.09918622401074L390.24005097413465,225.56721328781077L389.54362805182245,225.78683207464837L389.26338229479006,225.71630670202012L387.89169594795567,226.37521283280967L387.1876049020593,226.81816273819823L386.6209162610485,226.5801311784271L385.8047814195397,225.76386795550297L385.60516072552673,224.4358797469513L385.68313533814035,224.0053780864273L386.33825239560247,223.5995666770632L385.9221230560124,223.21706422567604L385.46180676028234,223.33504000073663L384.98646568473487,223.1991630712655L384.53031091022604,223.71720147325505L383.83875957415694,223.767028562821L383.0429637595971,222.9472470008277L382.69169857896304,222.83265678608132L383.2603624747717,222.0892806016236L383.0657088849366,221.22418790104257L383.5922826099013,220.7420375581396L384.2454473311409,219.93655974227022L384.1333559302275,219.36258864807405L383.8307246096265,218.99451705500633L383.0713967743777,218.40248460373095L382.7962503417657,217.479867331459L382.4016644450676,217.3014242880172L382.6828017945845,216.88338306204423L383.5818198526631,217.15803133905501L383.55444454791177,216.47469889849162L383.1231830272991,215.8738966355022L383.13919213545523,215.455522999795L382.6599254695939,215.34830694929315L382.24241518844065,214.95418172498103L380.28495418131934,214.28346022622281L379.9803308620194,213.9743912835129L379.9691924548388,213.51459374629212L380.88553417489857,212.37257882713675L380.9261544606961,211.83266956633815L380.3772674050706,212.02636300723043L379.5700427548636,211.94101646209128L378.85208797488485,211.2669033079501L378.5505571404501,210.67134629427437L379.26018873057,210.53844222134103L379.3346146675358,209.73781156712266L379.8318801795813,208.58397572109152L380.0499586120277,207.47372943138362L379.63163301018903,206.48065695760852L379.7373819578297,205.56971717997203L379.44003612867164,204.68500654668696L378.8966014927737,203.637784122614L378.60531775460913,202.68674651678248L378.1649165526451,201.93570033626565L378.015816913643,201.13664584532853L378.3345770795386,199.75261361157118L378.09815302764946,198.90347901082987L377.59219829024914,198.92745229730735L377.695902515492,198.47855556129707L378.85991330016986,197.91419596269498L379.9583102729357,198.111011683578L380.393641875482,198.0472600718549L381.11903151975457,197.56064031923324L382.6839488413116,197.4621721806716L385.02772623975034,197.82700858225962L386.47878461893924,198.32854592637887L387.52924217569125,199.325247408804L387.83513349590976,199.3769333368282L388.75882230105526,197.53990272450937L389.2396851471749,196.95545306646818L389.8945040232502,196.6671786074412L390.03852510220895,196.16170409843926L390.86404695884085,194.8984073758793L391.293632149258,195.0919066851593L392.3047032643608,195.15761869850394L393.20179517118413,195.811425241699L394.3148734904389,195.86137053443326L395.26932514427426,195.45382579789566L395.6821010720014,194.98608554599377L397.0953292222439,194.95837696111175L397.1785575251306,195.55944827499843L397.43437847298264,196.09354182670722L398.02068364360093,196.21722992871128L398.8429100506564,195.95498428940937L399.4605392646845,195.37115699179049L399.7860265556137,194.840753233354L400.1752368775451,194.54834013255822L400.79551601407366,193.77381695623262L401.3251190743358,193.50219802487936L401.44197247922784,193.16772818358004L402.19854621228114,192.85398527238613L402.7421668196348,192.2524846698443L403.51237157150535,192.78649873891572L403.90818117431263,192.9123508356024L404.1880075902118,193.684315535962L404.7175251405679,193.98491619001015L405.09563571496074,194.68607395095114L405.3663697234151,194.61811018304343L406.235823561452,194.01643675575087L406.42944662758237,193.67718699439502L407.06781627867895,193.37469636703554L407.7291808989303,192.55500207443947L408.5129157546962,192.36871349107423L408.7323683546856,192.86931991542406L409.21452279508776,193.3129010990324L410.01256766066035,193.6804971510819L410.9479167442514,194.5644060333252L411.5302007882583,194.74390288568975L412.2736571995447,195.39449370553393L412.3642057475099,195.78969218384736L413.6039289055607,196.4829488507321L414.35079851657247,196.66374007801733L414.34782301339874,197.42833657686697L415.1656825788723,198.00619967250896L415.5196476480796,198.68425625338296L416.3254376911973,199.10141726887377L416.291528443031,199.59962598229595L416.74748152995016,199.87315181647227L417.7137503058948,200.90884131216444L417.802612370735,201.6521240070324L418.97287240585865,202.05260196406834L419.40728035994107,202.03242383445377L419.808499982013,202.53862294409282L420.40493756824253,202.5986254969921L421.26568357054566,203.12528995217144L421.67114270939965,203.69653115652L421.6835664438422,204.18234795163426L421.98149449288576,204.72166399235903L422.56357773033415,205.07653572099116L422.6473477245636,205.74878484921283L423.02118668792355,205.94224891662725L423.66646510833016,205.90713095983756L424.1767580361993,206.0855722346023L424.9184983192208,206.7742494633003L424.8942446766905,207.39940854512224L425.5088386450043,208.24265429921616L426.3105984503054,207.57090860342214L426.7055339281833,207.81979687683088L427.69282716199814,207.60700571694542L428.12057754208035,207.26364608181757L428.715884178273,207.1955454868248L430.03271317869803,207.2243072293977L430.81991108670627,206.66284641833863L431.7364462238929,206.25595039551808L432.0348814624667,206.30255739665063L432.57601629630335,206.97209830197244L433.2219717867101,207.18947642851708L433.6997571611955,207.69725936476152L434.5682872831003,207.78092380884118L435.32840690283774,207.67486652749812L435.7884418647136,207.9257350025082L436.4582386664042,207.94499655017444L437.44112522975774,207.71654821512584L437.858809281086,207.75873487923582L439.18694715632046,207.07009953287707L439.6790835768934,207.10460059830984L440.2238039024378,206.8857162457598L440.65938948362236,206.27075712475016L441.75278683283614,206.83082173779076L442.5653506824747,207.3532363606446L442.90065770090587,208.02915600655706L442.8623168675422,208.46103793851307L443.8141092027163,209.02187307541317L444.0445817660584,209.40657540834673L443.96768064310345,210.090918023192L445.15425350042096,210.90730767078003L445.53890483015493,211.44607014520534L446.707237770197,212.79966724838323L447.60865264761924,212.17318652123504L447.9307293309339,212.24934249753642L448.0372234505521,212.68839053620286L448.5401314036517,213.45596954009216L448.7363342359022,214.3194172778949L449.8198472552849,215.3610005764558L450.91733571633813,215.74806764506593L451.1376421324003,216.31364427300014L451.89976207125255,216.59210051616992L451.9532034338481,217.25200693552597L452.3541718530978,217.80036282498259L453.29858607125607,218.0282307210673L453.61554255694864,219.1022923088185L453.6132714260384,219.64541903316513L454.294170416777,220.09767845233728L454.85058867922817,220.06717241512706L455.73907312166375,219.47007305339503L456.6293446471391,219.4161123626227L457.18474909503857,219.10304453127992L458.43166097694484,220.24316728031772L459.56514507180145,219.98459094923237L460.526705266966,218.95780635471237L460.9683270286405,218.81865022655256L461.76803139899494,219.30746933560022L462.35362319536944,219.1508768614376L462.5912516573262,218.88987622347304L463.47417776881593,218.973576385848L463.89996324692584,218.85231098060376L464.7732183996286,219.27332521415337L464.65379108705383,220.00630908222865L464.36020001524776,220.9020990446079L463.97580794948226,221.39252046739966L464.6936485979877,221.71052854794561L465.18584351431673,221.65794246795213L465.8365664933481,221.9147035902679L466.197901866155,222.48767451835465L466.8513213813567,222.4800284402245L467.4061756603478,222.28030709250015L467.9042239536793,221.91653430787574L468.7751989315384,221.75078825002765L469.01991982812615,221.30646391439132L469.84387854786473,220.5704919208174L470.0694600405768,220.0738051396729L470.9400862132188,219.87561603637914L471.9737337678507,220.78048783110535L473.0698785522454,221.21529486126747L473.70917539763286,221.0479192315206L475.14648109466543,221.86699473631325L476.17223566246685,221.23845877944495L477.4625264844108,221.05079363862205L478.3918252471667,221.31297780220848L479.4250336468758,221.84537900796477L479.3571237834785,222.4372673611715L479.54255346355967,223.75656286956382L480.5481810807323,224.19372459923034L481.44836064439914,224.91559897363913L481.48238052789384,225.20158230935613L480.90269812720726,226.11673194136802L481.0253159315289,226.4930189710767L481.8556861407069,227.03567720901083L482.9086256795217,227.16025879702465L483.4846465416813,227.54858220639562L483.4989121521994,228.28672721512157L483.6835316305551,228.65851069407745L484.4522519792881,229.39737700355454L483.4193863572309,229.86002377166096L482.70782764230535,230.32213748439517L482.13617218145373,231.59007808928618L481.74642126332037,231.8713249022694L481.0986796256493,231.81790308947166L480.7056155841692,232.13557932995718L481.2527718228921,233.11651100813197L480.80046841500007,234.12315250047595L480.8097254221175,234.7629238711661L480.31896741552373,235.89539979463007L480.55188807085506,236.20805988270877L481.18899391202285,236.36727595867524L481.23845616504514,236.75896913675024L480.77903816339676,237.40759661405082L481.37010190224646,237.7251863294514L482.4868108542778,237.99041757483792L483.1542189347456,238.02821793658768L483.9257054090631,237.73064791098568L484.1632694314303,237.87382845452976L484.4525790084808,238.51838653139657L485.14700315458504,239.26963326841542L485.88599245763544,239.21322527035954L486.3548394301379,239.41079433158484L486.4644605361973,240.12785362199065L487.1792811758787,240.0975733130863L487.55112887812174,240.37735606301067L487.9376858403757,241.3649660917199L488.79367225560054,241.59654541120926L489.10965514022973,241.96149498089835L489.1257777447445,243.12748719711544L488.76238923087294,243.8411554908871L488.9523041174307,244.24071124054717L488.8023408962508,244.79858493727625L487.5112631285392,245.93499906593297L486.8971716461947,246.3043929544583L485.2744576269197,246.60312820456056L485.0886473661176,246.75930662003157L485.3621102263478,248.14949068678743L485.26691404380654,248.34527902316677L484.3416990232854,248.17295546905189L484.06308062185417,248.45773074030512L484.1451404577965,248.84110258932833L483.71054664973417,249.20785227638225L482.9450642173415,248.90723104933113L482.1141155113546,248.89464787220913L480.5669845079228,249.29400103085572L479.73972081312786,249.2277342747384L479.39026250785355,248.79713062553765L478.55304542491103,248.7322328156106L477.8365507266153,249.7766524344961L476.8578856493277,249.76689305787113L476.5955597530483,250.03262489720146L475.56222241762043,250.319152244615L474.91388287031805,251.04438748185294L474.04898605106973,250.72831460566886L473.3209424088327,251.20113882983696L471.63757830354734,250.5815397487122L470.7358345053053,250.32292112866344L470.59714135678587,250.01956508210333L468.97962003137764,248.6937584801126L467.62878441862085,248.47199605777405L466.1384950596057,247.72026858006575L465.29328860073656,248.02904217700961L464.7785867088296,249.0188627134412L464.23849936129227,249.16526053485995L462.44638273779674,251.2788033397046L462.0538407368076,251.91275720035355L461.7260097679555,252.96867381619995L460.48453929970856,253.91503944215674L459.3258545525223,254.2473513932764L458.2138186657867,254.76721275225736L457.98494615407617,255.20637387976058L458.45947900852843,255.77403620421683L458.4320608334383,256.0316238140749Z" fill="#FF7B46" stroke = "#222" stroke-width=".25"></path>
  <text x="430" y="230" font-size= "2.5" font-weight="500">
    गुल्मी
  </text>
    </g>
</svg>