<svg  viewBox="250 128 110 110"  version="1.1" xmlns="http://www.w3.org/2000/svg" xmlns:xlink="http://www.w3.org/1999/xlink">
  <g>
    <path id="path-05010" d="M364.1918408923066,175.0801366497517L363.6900512762222,175.03588586821843L362.6263252792869,174.61456204153274L361.53553443243436,174.73396359765866L360.5625495025997,176.05392329829465L359.9102599317557,176.77111305069957L358.9275111513725,177.29372143225828L358.76295006384134,177.9741746998834L358.51249956484935,178.28560484614445L358.7199205587167,178.73775097241924L358.42831136486166,179.69182246913897L358.4932770773448,180.26341665752443L358.01559901718247,181.01439173680956L357.59263546722286,182.4683541931563L357.1595932294622,182.97542964537297L356.4601926994237,183.1812162387896L356.0361910472784,183.67044909928336L355.0573940360773,184.28590784613698L354.5080388479928,184.47885677335125L354.0502178747374,185.13784563844183L353.73769152419845,186.6594782167167L353.0366619151864,187.07644463530505L352.5815163364223,187.62275940274412L351.7927104500104,187.56759824663732L351.3216649692549,187.93421587721969L351.140686036073,188.34699646178706L351.56766780602265,189.32043715744658L351.51699518334135,191.03066062911694L351.1669847682406,191.2463240389352L350.4820056038425,192.20281456706562L349.64103148556023,192.82038458007173L349.35510719755985,192.77506205264308L348.7689192551188,193.15131095856577L348.40371219370354,193.5678043336493L347.77819770746464,193.65834627032655L346.7583893230167,194.44173602664978L346.16365205951297,194.78130353711003L345.2074512510444,194.73252044459514L344.7027374689169,194.990714965179L343.83422289825285,195.08382982786225L343.7575769344112,195.2899197496272L344.06059119702877,196.26168126197445L344.06727662502817,196.80555206813005L344.6177691753819,198.42839186766196L344.51861796992307,199.02342617700742L344.14727831938217,199.59433017994252L343.3023785871701,199.57760429270093L341.9238543512329,199.875758562569L341.53568022232866,200.37358794783268L341.4972427803459,200.78868389121908L340.4642998426971,201.60970387355337L340.1082651978413,201.99718810140894L338.7485502798336,202.691490372079L337.8272105755823,202.98679249795168L337.6354353123752,203.2666913238627L339.22056436920684,204.77734685263385L339.35605424988535,205.90391756785357L339.2751824340885,206.13606283699755L338.0263544035679,207.20086481127692L337.39425143562767,208.13730283673976L336.80728096105304,208.40114180524142L334.5704770839857,208.42930574043112L333.1333725863151,208.03757219870386L332.27847102248234,209.34274955922865L331.88942501616293,210.1016360363583L330.63094938996073,210.14272977806013L329.91268917574416,209.82754301590285L328.3841326356378,209.5292014822062L327.6371862708711,209.7430933695823L326.9531481616468,209.6231526132351L326.4061802395772,209.70785794067524L326.06028829396746,209.26719237658472L325.6045112702668,208.07903002777311L325.3455474945458,207.68872078070217L324.6988678985672,207.24257221752123L323.9593597561907,207.12886388834613L324.09432670881324,206.54338669113622L323.3835582387783,206.20752369482943L323.1032586023339,205.80226598606623L322.15776671142885,205.70220053514186L321.9489219827519,205.52425911750652L321.6542396746063,204.5097883960634L321.49422668047373,204.39814917368494L320.6318137463022,204.6219964845377L320.2673379551088,204.30682878053995L317.6165667722107,203.97581972954322L316.17766363419105,204.38162976022159L315.4461470370625,203.99588979474902L314.7459702386768,203.7650642228682L314.51705178996417,204.3284977762978L314.5578765315895,205.1468010093604L313.45912421940557,205.8841086435059L313.1922728583704,206.88261783483813L312.8116136969966,207.32270518424957L312.41673707948394,208.34195232484944L311.7847744766259,208.39916267139597L311.8727887631612,207.4088687840249L311.1549056105632,207.36248358306693L309.9638507868767,207.63187812182423L309.47845986525317,207.46235747886567L309.0541675580953,207.82274269237496L308.56145865152394,207.99136441686824L308.01316135604975,207.5862905301019L307.16430046606547,207.6227797286474L306.13251947207755,208.3003393508243L305.6088438934257,208.36531672600086L305.37938081658467,208.6865562700259L304.2682911160082,209.04904024065218L303.71316391375694,209.4237996850925L302.8877067645699,209.6309445993993L302.2452016098505,209.64125555965802L300.767445292553,210.046117441575L300.81058910491083,210.29271743536538L300.3073187461323,210.70473399517869L299.75767116877796,210.6634614129407L299.0008060661512,211.48026282650608L298.63596596502975,211.60876722802277L298.41648169984546,212.00970935911482L298.03953268894657,213.82166102356314L297.3879843794439,215.06778472122915L296.8540117785051,215.39350710094186L296.58177475839875,215.33690967947769L296.030635273366,215.8019259714738L294.6181628166687,215.77609434961505L294.1264509871289,215.97661872464414L293.8329799257208,216.91533321088627L293.8193124818499,217.3696678088072L294.5379816717468,217.73499610125418L294.73019952593495,218.03856745364828L295.8592804658929,218.664526905377L296.14463369624355,219.00962932599487L296.8604891800587,219.13667793193235L296.8194468522033,219.59086883402415L297.0456549752216,219.88197641182978L297.0739525025383,220.45853011167583L297.45674789001714,221.32490486752977L297.31649716834363,221.86763706942475L297.3780095242546,222.71560948279694L297.19655284726105,223.28433750286513L297.3281798398293,223.93396464083162L297.29909957547534,224.59129051655418L296.8959190967562,225.20431558195833L296.4354759311336,225.6155390948843L296.11933148179196,226.26885858933383L295.4817503784998,226.36073326740006L295.4812723224495,225.80253792849453L295.25423816905095,224.96536211638795L294.4022341683067,224.4700594161195L293.87562793495454,224.4772108754205L293.7270873629968,224.03277229727064L293.25755063444194,223.49673643499682L292.8995506145493,223.4198242709581L292.4382282262304,222.9903267721911L291.811346511342,223.1706091357646L291.1422949240605,222.49886044365758L290.506921116732,222.48077459650358L289.7432629920695,222.08828696707405L289.2556665995726,221.44589299077143L289.30877568710093,221.0015476999224L288.7554849153348,220.66366519453277L288.5296795714439,219.3766936527045L288.19660050859966,219.0369470241676L288.71633144973566,218.60068805220817L287.8201073314267,218.0978455529721L287.1675744148488,217.97687160891564L286.8578469455151,218.25838094210394L286.12103561353797,218.56000795254295L285.39219113645595,218.54910359334008L284.9180011805747,218.99836555074216L283.3132850344955,218.56214784937765L282.78237372864896,218.1825645812287L282.0647686379143,218.2440144808661L281.4538358015361,217.97711838570558L281.1080534877983,217.61635960923286L280.00813430912604,217.55023995731972L279.873214493402,217.409543314875L280.3360795017961,216.800828039909L280.6214490564089,216.0237164685932L279.92773026771647,215.70228553937523L278.8445605364559,215.65466850521898L278.2180079355967,215.42832039911718L277.5937413387983,215.474135836168L277.27079437583416,215.73812705530145L277.02363703642186,216.94174016056513L276.4244821186894,217.33281768543293L275.9505001008147,218.00154428653877L275.0639170882914,218.17390550912387L274.8066364512815,218.58889636148342L274.24566329872505,219.03829155006588L273.86430279642445,219.2010161891967L273.4101565507317,218.5512134102628L273.2394616084621,217.9699309252519L273.35639469529815,217.36879686087468L272.93460431797394,216.6201156734487L272.4988381600124,216.54866775476694L272.04813014346837,216.8363506049509L271.6926852974484,217.31790982282928L271.02276874896415,217.29858766994857L270.44199606026086,217.01498934442225L269.9735982067032,217.06069455551096L269.02982740468906,216.50324463468678L268.136043034503,216.13229937843425L266.79021540987196,215.90437615786323L266.3830623358608,215.92001489518952L264.7491130802264,215.6341256173646L263.4982562294281,214.66583501189416L262.9503470160944,214.47288937660596L262.49837525928524,214.5847651412205L261.1387248887877,214.1684636388636L260.28883317968393,213.61056816126984L259.3349821425709,213.35067681253076L258.21814799587264,212.71555570120017L257.61050865262223,211.9651960860283L256.9977171030969,211.82459001268307L257.3366638430889,211.27720848767876L257.80104551513796,210.19760123768174L257.4621279472067,209.66019481271815L258.22759002811654,208.85456007419907L257.9206779644501,208.0934140556883L257.73265349753456,207.2732398150447L257.92079179286884,207.04503146581828L257.94553059859027,205.97351098321997L258.1983305436024,205.4296006835266L258.0640011946325,204.72092308491574L258.4633072314282,203.629417785879L258.3226936904921,203.33585962354118L258.7118766374624,202.8427612528003L258.97324053179545,201.8001144887612L260.46631195375267,201.10564298032932L260.9186857571658,200.64268140935474L261.0210588028003,200.2645303420768L261.383172540709,200.08799790609646L262.3964657009201,200.2259569050202L263.0506830581817,199.8691708035858L263.02908256890805,199.13911915522567L262.7399192222092,198.55622943825892L262.8748065198197,198.21179369085803L263.55220719777935,197.78246074645904L263.8072257377262,197.77862700463356L264.49689676580056,197.33124730991858L264.61840313646826,196.66381041242312L263.3917504326746,196.32026985558696L262.74401319153367,195.7943104355445L262.33728385391987,196.00718878889165L261.1519306631053,195.4947326468946L260.6623908213078,195.62184585845716L260.164646174464,195.500101312693L259.57924127913066,194.65632675115558L259.06798866602,194.49850124116165L258.87928906798334,194.2096505169784L258.28885048015763,193.88330731577844L258.25889654817183,193.33043166687003L257.66641088203505,192.66212806322164L257.3849656179391,191.9571627182313L256.7458662592053,191.03877718263357L256.69724420176135,189.9145109054707L255.94714060367733,189.4587340379485L254.99059813372514,188.39066113195986L254.3973998543479,188.16623371177593L254.32613388013124,187.75119944045127L253.884506617218,186.87648082437954L253.05409155245434,185.74215138147338L253.02088656304477,185.3444067303144L253.27735649302485,184.57512437333935L253.1403507772684,183.93016826499388L252.82906206685402,183.49754698361448L251.54952989190497,182.9884541306801L250.67924848803705,182.95937298705485L250.73241645851158,182.4485088715719L251.10831319841418,182.24727780202102L251.2980093892602,181.853060180415L251.19948759333238,181.3801283720759L251.33809422448576,180.88310720474055L250.75799942475533,180.90633675215395L250.5834272856082,180.37499175562698L250.73890244042923,179.8413128793818L250.5359497853624,178.7896193411898L251.07398767792438,178.1917216024749L252.0416460397646,177.76761982886092L252.33857229258683,177.3627865261924L253.02213497314006,177.09230666103122L253.6342685907839,176.69328044214853L253.48186541860377,175.75866684005723L253.08469358789444,175.3000275182976L253.44402122988868,175.09477431658433L253.89857591978762,174.39338907696492L254.3086194573898,174.20771865398274L254.45531176325312,172.6447007291772L254.27805564793198,172.4275078883784L253.292229639359,172.06302382450667L252.83553252834645,171.77887157826626L251.49641026337122,170.4830065935539L251.15247341679606,169.91313338263717L250.61263182138828,169.6676209194884L250.4185098312264,168.95277271091436L250.46845761395343,168.30492041781508L250.99562797045837,166.9333495294086L250.36755695586726,166.37449068306069L250.12345528732476,165.85805943522973L249.22761068615364,165.74857956524647L248.73316601346232,165.51699464830108L248.56709857849455,165.21934252208757L248.7528278933114,164.55854480232028L248.26472856465807,163.97859969128604L248.0752402955659,163.21830482267706L248.23870320405877,162.88232172777862L248.4312026409716,162.81749310613122L248.66220833293846,162.82888461435323L248.76074552244972,162.8094919014029L249.48444915444816,162.72309135743126L250.3709110431173,162.51352041159134L250.46130787768925,162.49795805355916L250.65817794072427,162.44748978327607L250.9044426403143,162.38580626400653L251.1195283449033,162.43478000731193L251.69597311237703,162.41283523992388L251.806155786031,162.34547426030622L252.04738878514218,162.2287265457535L252.2755098286052,162.06459925066702L252.3574537501172,162.03076230040642L252.45055138995122,161.97752182827026L253.1156819244461,161.59073007104143L253.16180876694125,161.46465556948533L253.1826596046849,160.52659366793523L253.03685798879087,160.16195402796347L252.9515498022265,160.05707375045858L252.9098120430972,159.88156749502286L252.915931223175,159.6458693162922L252.81573320828647,159.44203926963746L252.6443063221668,158.8868843635928L252.60286898507002,158.7261107372451L252.5393866395716,158.50659899999846L252.5751624375407,158.29982536269017L252.60306216073332,158.10465062944968L254.45064832376192,156.65638472345472L255.05697211376537,156.3396908408231L255.95840832075555,156.25615749954704L256.7673879330923,155.81112963390387L256.95739790594234,155.51361671207815L256.81753011663386,154.6168252306261L256.9583829368421,154.18057170358497L257.68819634742977,154.00865693371088L257.8633019564204,153.46961071213718L258.6919852150586,152.39948434622784L258.7862641197171,151.92895138074073L258.6343206842903,151.19844550454945L258.9021633467437,150.5853866510679L259.3926988676558,150.4192865775749L259.853374972854,149.61973180701443L259.86632904955513,148.88660613219872L259.3961310331051,148.28626091421847L259.052418367497,147.49613077236972L259.24184641257307,146.88271280208392L259.6163133884602,146.63263713431115L259.8899738740256,145.71933032230027L260.33557063831904,145.64769020271342L260.645183251896,144.9947914480008L260.82473849881353,143.51063553291715L261.10062173338156,142.6857845204413L261.6594345842004,142.98674510246838L262.88050303831733,143.2816689935371L263.4035828690594,143.49129256131164L263.91296615394276,143.18723139460417L264.8590454412424,143.26699303321948L266.1155255888407,143.8120829697109L266.7933410324349,143.77120163821746L269.1047357369498,144.17730753432534L269.83714325861,144.0473692636524L270.40052409100645,143.30545882185197L270.9946992736095,143.10516124365768L271.638107372768,142.5773591196894L271.95407217664797,142.64362155475828L273.1783091044108,142.19108345757377L273.85637537415823,141.40240401626033L275.0956794211161,140.8907430604586L275.47043223208857,140.51219209018018L275.6824661974897,139.77131912661116L275.25437017279,138.9020638560578L275.31999555884977,138.1023584712102L275.70337217423184,137.89943426766695L276.78179681007896,137.8365744472003L278.5557458483636,138.36825723077618L279.68495261839416,137.99966158346524L280.0455035193154,137.7231345696846L280.70159068642533,137.8797811975528L281.1413217832269,137.4459609336809L281.8829571996084,137.0309754952932L282.6472458197677,137.1136932988329L283.46264333468025,137.70681739241172L283.70444984255664,138.1072365949185L283.6162971605627,140.07565898451958L284.68300672003534,140.86546681448363L285.0292968295216,142.0959788799828L285.2304722242334,142.43791239842176L285.33100303996434,143.12067900120564L286.07340952024424,143.52270017935734L286.8789653231779,143.64584509154975L288.15601617233915,143.70810775302562L289.25000831102625,144.03455173921338L289.61688339048123,144.2456302836772L290.0317070878318,144.82370317382902L290.98093620984764,145.12834440389997L291.5371692026147,145.50907970376738L293.1348215864964,145.7571827441643L293.76808779908606,145.43249165765428L294.9379910816115,146.0860302081237L295.62090048098617,146.88894308931867L296.1747490554317,146.87110489108L297.0323053002867,146.33312968784048L298.1729013140266,146.3526491595685L298.70685173211314,146.1482819422772L299.0320300542953,146.46349807787647L300.2823375772932,146.92273764159472L300.66336090441837,147.38604776732245L301.41793019556644,147.79446849904252L302.4134919131393,148.0630879381397L303.3237273906798,148.56057467229766L303.8421321214446,149.17685250579962L305.0039706606385,149.35983542864687L306.41613075363057,149.4060546957253L307.04560018953816,149.59658550207223L307.54105214730225,148.4163709979348L308.67940290774277,147.76463712610075L309.01132408737067,147.81121975697715L309.5215692469337,146.69719983244158L309.92726121495434,146.22819932274797L310.58129610451215,145.7589791912169L311.59515413536974,145.27023055206155L311.81170001027203,144.395731106144L312.78791264583015,143.63393100170197L313.7538911655429,143.94921012851955L314.1648800103558,144.25642834858536L314.17058143799295,144.8284314261482L313.48030452029707,145.61081958079467L313.4400761221932,145.9132773704423L314.2831367736744,145.83539986647338L315.80876877388073,146.44875777110792L316.38087612454547,146.25520829768448L317.37196447666247,145.4726477825452L317.9442639072404,144.61432878016058L318.81362051170254,143.96513212055743L319.35859595545844,143.92879113522395L321.13048241010983,143.2512691248703L322.03990182963753,143.10236902903944L322.54815051304104,143.1318751354629L323.3951316801449,143.4061518755325L323.4827528967944,144.59844927000358L323.21433529187925,145.273992906079L323.447404120956,145.83653124046123L323.9086299947958,146.23748767050347L324.5838091765236,146.4756857047987L325.4769878743864,147.213769578525L326.2831267493293,147.03953608115535L327.4875763255204,147.8727953222342L328.1637631159774,148.05821040653245L329.87243758016484,148.16801456509347L330.68988111706494,148.35229897980298L331.35685561345053,148.3559156516667L332.245512906522,148.04750232905099L332.6738105177592,148.0956924984921L333.1983591569133,148.51402220703858L333.5865303665796,148.52921760874688L335.5619930131852,149.4734829472318L336.31003706480806,149.55880633583274L336.48922001307074,150.08554047259622L337.32003216803423,150.56238812967786L338.32500555565275,150.7413027146731L339.11032501681984,151.21903953640594L339.511512441617,151.29619105326492L340.1595544639076,152.0572838843027L340.79037138882086,152.39294363747922L342.4107831483725,152.34570892973352L342.9202526686622,152.16151373872708L343.9622433263412,152.4018797905619L344.37327229634684,152.26968847245553L344.7299895791275,152.45737739529523L345.54508843992335,152.4509420267159L346.62813152337185,152.1484573363141L347.69122679788416,152.23147085047822L348.14306090705577,152.4808265549009L349.6978029083166,152.75660603156666L349.5864527554604,153.3244204014527L349.91191112813976,153.84441652405167L349.9477717321479,154.34383671584328L350.3729293747838,154.70395772067604L350.38149533256546,155.65217734389353L351.10303169735016,156.54036362976967L351.05010963188397,157.34606060827718L352.52745723923545,158.2580340776849L353.4928891552372,158.21293388173672L354.8386218386313,159.15687195873306L355.1450998661694,159.7837069964571L355.6624367137938,160.4218736717894L356.4101985779671,160.82806108932618L356.23876133668455,161.7014314591188L356.02845039174827,162.10532720279116L356.39341635887104,162.95926253758262L357.1706885147414,163.92650241329648L357.1913236256969,165.01678921398434L357.3635930728924,165.66381002649268L357.1905893315434,166.22861156940053L356.73144546014737,166.76145445877046L357.1023445179417,167.05971600902467L358.0358182065156,167.18320708986175L358.9373128901807,166.99839389706722L359.35068868358394,167.16720695736421L360.0499369847421,167.17733091533228L360.5715216077897,167.01765386969691L360.9235566146781,167.2168696248209L361.0423702149292,167.7104652748967L362.05478484804735,167.72513542148317L361.7686341760691,168.43078116109155L361.8694818591539,168.69697576733506L362.49242272482115,169.03758254198056L362.75431234771713,169.87290848567045L363.34539240680533,170.46039244318854L362.93893589542495,171.1426862256003L362.919337082325,171.57234638544833L363.49211195676435,172.4208876549019L364.1856029625542,172.74885001971234L364.5737055026566,174.25805724971906Z" fill="#f9645d" stroke = "#222" stroke-width=".25"></path>
    <text x="299" y="180" font-size= "3" font-weight="500">
      धनकुटा
    </text>
  </g>
</svg>