<svg  viewBox="404 195 180 180"  version="1.1" xmlns="http://www.w3.org/2000/svg" xmlns:xlink="http://www.w3.org/1999/xlink">
  <g>
    <path id="path-0508" d="M457.5595696775181,256.67712343658786L457.4800240053064,257.19977940916397L457.9601315455475,257.31485998096014L458.9808196156846,257.98176462816355L459.4096659587867,257.8101296300547L459.91551371904825,257.17742284215547L461.362656156869,256.87738163151425L462.25915947301655,257.4816112799854L462.712559548585,257.97921279015463L464.68972610398123,258.7336828891448L465.8538872543031,259.12462742327534L466.30370858470997,258.9291821230854L466.9496427401082,257.97877875158247L467.540794957391,257.88773267461875L468.12141306079866,258.20852852734333L469.1998176421075,258.2813355249082L470.0908056339704,258.0011260090814L470.6302623465672,257.5128514768685L470.7643907506317,257.04681992541646L470.29456319980636,257.06236391620405L469.6591579750111,256.67236024348585L469.59875589413605,256.1762538827552L470.11817467430774,255.74133897381125L470.69260196642426,255.66040306444302L471.68183913738176,256.0110304412701L472.05016829494525,256.258550365088L472.6613998113262,257.0500941157334L473.20785012060514,257.5215549056893L473.3802343307343,257.863393069385L473.1593740565513,258.51046818325995L473.57917698429264,258.8514622360635L474.1999749653114,258.19997467924986L474.8362810340295,257.3139532047526L474.8856532674963,256.73985944609467L474.7168911311419,256.1881980515809L474.9098679957169,255.96081773918468L475.7758790815569,256.1494958284002L476.10413492259613,256.6390784431587L475.93274520374143,257.4801627345778L476.34725932714355,258.14804877129245L476.77598871468945,258.1435758685202L477.6400701079765,257.86588818791734L478.230435695059,258.08631695166605L479.09463713959667,257.80781278258473L480.45393841583973,256.7878060220228L481.3636279436614,256.9028202044001L481.8570281887569,256.4487183679739L481.9447225922613,255.73104374427658L482.5976646369254,255.2192336866501L483.0243221598721,255.49750279104137L483.63198865607774,256.3343972017228L483.6094360567713,256.74712784435087L483.09254146260173,257.3326231732244L483.2896112075596,257.67791900398515L485.3251984330891,257.60668729963254L485.8623688657153,257.49366905631814L486.812446297552,257.49517998543433L487.5850674339363,258.15917046810864L488.0963084058985,258.94008944606594L488.7777637935724,258.9541636930953L490.23734504267304,258.65089217341847L490.76935847743334,258.2055188583072L490.98809774254005,257.7840081619561L491.40565779539065,257.6042444744635L491.85015705151636,257.8817328520381L491.9612496767604,258.3170708147245L492.9073431187553,258.43411360739265L493.3031921709244,258.72692369728793L492.33035794152784,259.7773027312078L492.46685865793006,260.3335152966929L493.3508704693304,260.6739861919568L494.4092824444542,260.64859970496036L494.56633633052843,261.095968064762L494.2118752849601,261.5251893016157L494.41988178015527,262.4475077852994L494.4092201980875,263.10294879250705L494.57043887795953,263.4714067656723L495.09690020211565,263.39546642679943L495.9491899125933,263.04730945158826L496.7662123655209,263.7682247201128L497.06279080814966,263.3881731953106L497.6140163382006,263.02915426829895L498.7271182531167,263.0102987928958L499.2491079037536,262.0115566639106L500.8190995295845,259.6859960186821L501.6186948029317,258.81884706333585L502.2773527628433,258.3499980504057L502.70108482592696,258.2046464479272L503.3830117063717,258.3898691276727L503.8739426398188,258.7927344191894L503.9506698259411,259.0808184370462L503.4791320741915,259.45860322482804L503.7358928083522,260.14680752172626L504.204835979348,260.3472823065349L504.6978780562986,260.0020002820065L505.01836350489975,259.0887873367392L505.4959806188617,258.92732146909657L505.9971767306106,259.30766138167473L506.55997180471604,259.9765658213955L507.023704959347,260.22045817137405L507.52366428110145,259.9540863694119L508.0805158872299,259.970215602395L508.610537028153,260.2074910835963L509.5155676454051,260.2961737629257L510.7043586032378,259.627027251262L511.3083879556161,259.85857426620623L511.7831318917415,260.78265384412225L512.6323896786926,261.3791635323041L513.7647102222109,261.7926575597103L513.9927061005565,261.98899347053884L514.1000559111653,262.5926463499163L515.5915964872365,263.4502758569206L516.2717442026096,263.5153319757601L516.5059861970421,263.2171093796078L516.2092132662947,262.83011452950814L515.6157990372158,262.6712700521002L515.6283146057904,262.28544730607064L515.9742289013084,261.95925863487264L517.1212048254456,262.1266439135434L517.7520383760566,262.65436844390297L518.234969443376,262.86721026368195L518.5605839755299,262.716216764823L518.568122843184,262.6503339650635L518.2831397151222,262.2307758211573L518.1786057627378,261.9643649312393L518.1801738642189,261.71166451821864L518.332920769828,261.69577692175426L518.4087540507098,261.6943349494677L518.5199098377998,261.6538335165287L518.6119397778439,261.6436981988736L519.0997637777582,261.5518130006594L519.903801113067,261.94273862133014L519.9386689782768,261.9890613052312L520.1598084178186,262.1473349631897L520.2329287439516,262.1736533320927L520.5824039675899,262.2190107769302L520.8477623279505,262.3152313388164L521.7999990545122,262.84727362432113L523.0202491731361,264.19604354288913L523.3807456619143,264.83876362115006L523.4716498239504,264.9790646621241L523.5231356570202,265.073919600708L523.5644759388124,265.1674779286832L523.7722924550471,265.5555667471308L524.1555024161207,266.04436810474454L524.2495273652057,266.13612459237993L524.3016965834686,266.17852071467405L524.3994556892449,266.27677296160346L524.898285372421,266.59202268262106L525.13338683035,266.6653582557028L525.9497499833014,266.7937375129277L526.2015059772912,266.94467441050165L526.6314451281069,267.4187064038333L526.8266884522454,267.681982116148L527.3838757859867,268.3079974770344L528.051913925472,268.6369447275456L529.6753748865849,268.4509193234908L530.4546232996945,267.8079180974537L531.1380273788745,268.0072970152005L531.9701997933662,268.592748454259L532.632258967742,268.93611625255653L534.149296140522,269.5013015862096L535.3342464658799,269.5402708117872L535.6261667206763,269.1805832113496L535.6916509612456,268.5749345328877L535.518676759435,268.15334551139586L535.0774751027129,267.6618194171242L535.0668156839492,267.15293671119434L535.4198166213082,266.97394232429997L536.3039557095326,267.0479646087242L536.555055224313,267.40315346441275L536.3641050366114,268.1359466840204L536.5319734623918,268.3988866060572L537.6880869808083,268.5914384450198L538.1937750758043,268.41058067867743L538.3479882264892,267.8356327046786L538.1709979586267,267.1036614565346L538.5379592395002,266.7521735486289L540.6750180831878,266.25161564897826L541.4128824489289,265.742469598742L542.0714220777008,265.9980778735353L542.0807888473319,266.08606540901565L542.0157929728321,266.4840641279343L542.0150535850789,266.7489156886013L542.0238191897661,266.792693268565L542.0657230617708,266.84769694638817L542.152578989937,266.87971845458287L542.2515010071911,266.8861287406262L542.49376885928,266.8785606739375L542.8805337939757,266.7841674529345L543.0434968466325,266.6925632158518L543.7184009500324,266.2910373013019L543.7798499357596,266.26498107902626L544.3396168072832,266.1540035266753L545.464124069611,266.7123266110766L545.7965631316856,266.8144055885123L546.3506068491079,266.9119665948747L546.4860051036248,266.9374555381655L547.126256902684,267.09350160194936L547.7505405799748,267.2799137383181L548.236247208124,267.59561988753376L548.3724562294992,267.9544485992301L548.1734400799869,268.18042430309197L547.8039591213474,268.62108865376285L547.8458389748612,268.67566007852474L547.9253121419151,268.7740206594617L548.4597883587321,269.0376755112038L549.7645981172809,268.9749071007491L550.5215259959969,269.57832217398845L550.7480414447764,269.5799397299961L551.9903550847539,268.77561668975795L552.8558880517685,267.79423129628594L553.68838650008,267.8385128154414L554.4927744541528,268.97824616982507L555.015858099905,269.3265629068128L555.139706126256,269.355125824889L555.387029193229,269.37106747648613L556.4411726413655,269.00571305652556L556.4778760800109,268.9762231841951L556.6742288689857,268.8604242199144L556.8702690752034,268.72295253039283L556.9562831597777,268.68174303376145L557.2578409669422,268.76010853345815L557.9008529535531,268.84489267358094L558.0085648076092,268.905982937672L558.1204672259573,268.98182980632737L558.3687407599555,269.1000955415511L558.4927211988743,269.14645290756926L558.6907098077827,269.1845483087036L558.9624781244183,269.1966233174062L559.0934923006298,269.1328518911796L559.1793260731865,269.0803917877847L559.2600192375503,268.93299199700596L559.7114509688836,268.81455964818633L559.7987279041099,268.88693684834834L559.8832819386334,269.0949937837486L559.9321428343246,269.4244305512657L560.4467267344589,269.81837420859665L560.5335586686033,269.8508639869815L561.2727579222883,270.0848343023863L561.9393128647971,270.07045183047376L562.5557271732177,269.9871496282158L562.850881918921,269.8774607583564L562.9248299913233,269.8657407616447L563.4440780956083,269.9263925745936L563.5926117781055,269.9654012525634L563.7406040422429,269.9454553094447L563.9178331386502,269.9727566786396L564.1998345914271,270.1712770428503L564.4951364467561,270.85011534240675L564.5417990472324,271.7513280103576L565.0564796434883,272.1778708170923L565.5388409906736,272.09855696740397L566.4247217952307,272.2060907965879L568.0889362987873,272.81397080919396L569.044286264847,272.884329745837L569.3589123979782,272.60520904362056L569.1758048457341,272.1981366818791L568.6664930329353,271.8699195579402L568.0682643645359,271.7302625359325L568.0278899279092,271.28810341638473L568.3536443835455,270.9179450744923L569.0318198932982,270.8100995039813L569.397601964507,270.9536383056811L570.2912053878172,271.81557514537144L570.5,271.8589654853613L570.2481367727323,272.38430187492304L569.3344339929881,273.38808128844175L569.3054082810177,274.3374193927639L568.9106549126409,274.8492980331257L569.4008370745869,275.63745764281794L569.8244694669338,275.9270974074616L569.8604164037733,276.5222865063897L570.1323977778939,277.0022043363588L569.8779949475811,277.20242578848956L570.1087097734435,277.67930645845354L569.9243681809021,278.03994109159066L569.9818525292121,278.51331831529205L569.7687373543758,279.1942895689017L569.2786633643973,279.04203550328566L568.821568512969,279.37099963755554L568.9167027002295,279.70392979018106L567.914374669077,280.4520083429643L567.7376477302168,280.94486453904665L567.6080806583741,281.9722140284057L567.3945176288235,282.4646385283777L566.0010945855956,283.5374417243547L565.1005089300725,284.8630340203026L564.8948162549787,285.6758306206857L565.0386082112618,286.3915209278248L564.8636950651398,287.5606624282336L563.8956734148942,289.1403130159706L563.7495795477862,290.49930964424766L563.5469902439563,291.6138314940554L563.9289140530982,292.01696262053883L562.6536860268152,292.600524598628L562.3103123285055,292.67772310078544L561.4355952658861,292.4511030589201L560.9761297266141,292.4984177399383L560.5520998576831,292.77593113782405L559.6648625621856,292.68592754227575L559.4575030964334,292.3452424850102L558.8900767664636,292.5009824797571L558.7836445025532,292.80489462883634L558.242150429216,292.8613839208474L557.428978832575,292.62969596466974L557.2935145455376,292.9231984303824L556.7473949633895,292.82148283835886L555.7924448965623,292.94968443875405L554.9144827079072,293.17932047807426L554.4441788699951,293.4174874339251L552.3784047083755,294.6772504247847L551.8367216753522,294.90033757934725L551.231600257137,295.34583234844195L550.6044511511463,296.0206861987008L550.4488242116386,296.75770554028713L549.9301297407819,296.7705728352785L549.4565334754425,296.23244773349415L548.8734997774136,296.4490997142002L548.3264960312172,295.9387840457075L547.8829152974122,295.9936869134517L547.0497182910876,295.8403452379807L547.2706873167899,295.2341778130494L546.6387675826809,295.0577435717951L546.5823385899439,295.78907007608996L546.1913510741542,296.08586627248314L545.5186547771791,295.7850635650884L545.0262730188333,296.13613315455495L544.4790703124581,295.8985697295702L543.6443913011844,296.1064362764819L543.3935913130354,295.71822793320644L542.8359561091402,295.5435576111404L542.643424270469,295.1761085986336L542.0672359681812,295.4809042384031L541.7520819148849,295.1461042312885L541.2101894394527,295.08546466537337L541.1323590188204,295.51121194845564L539.8656156823272,295.2475198636512L539.4126954270796,295.3853675803457L538.0988296029172,295.2912998390166L536.5258205853315,295.51878484559893L535.2959358221342,295.1729039031079L534.8846456225747,295.49025644602807L534.6409570338001,295.92879369564344L535.0720065912956,296.70989418781755L535.1892673538532,298.89066164742235L535.9780640293411,299.6791892152105L535.4828377460199,300.08634376977443L534.8227852382715,299.83175598399794L534.0496476151566,299.8183435665278L533.0477864242857,299.2217399077581L532.5721486936654,299.30164189900006L531.449967212613,299.20073924399094L530.6382531182662,299.8580774516222L529.6083817341187,299.3175591452027L528.6906826673021,299.16101275803703L528.3767524172181,298.77780027018616L527.4864841040453,298.39626529658017L526.867163709916,297.8141004480394L525.9247792837632,297.6615767827798L525.1189249953859,297.7087283991041L524.4465187608512,297.5055549808649L524.0216848844066,297.16506523348653L523.1958495717972,297.09741769758875L522.2783977325089,297.3190934785207L521.4668396449342,297.32865107948965L520.4567227911684,297.6298629435287L519.4873528291919,297.75332177753535L518.7793245223529,297.6210265064665L518.2089013678233,298.0342696835032L517.203614640106,297.87869711639996L516.6420497769195,298.1558522114292L516.0631077404287,298.23407469689937L515.3563420935261,298.85224425804427L514.9532015458954,299.02118944483664L513.5877125000334,299.1863545812339L513.0443488450092,300.0713064501206L511.84769110038906,299.98350447956363L511.41609647416044,299.5833877795276L510.9801512491613,299.60160889638337L510.3059722174512,298.97443037832L509.45462497689914,299.011304558986L509.17502561622496,298.8497657752714L508.61571501919934,298.96755118922647L507.6445270744807,298.8209473417728L506.3025190535209,298.78139182105315L505.7721211853259,298.3044194230406L503.91592605820733,297.8907436729096L503.2652465087813,298.0530645730205L502.9725802757348,298.33595504306686L504.0716846637988,298.41577380119907L505.45193842754816,300.66246532378227L505.41274266736764,302.25996834922626L505.8276985806042,302.7883326504152L506.3748410884218,303.02294244411223L507.55853915570515,304.1569792770206L508.2359344173019,305.3502303391833L507.499477885367,306.04194351839305L507.2577341470296,306.47422502472364L507.312263221158,306.87162169024214L507.15775397291327,307.67955461074416L506.9591345274639,307.9387898235209L506.65546069341326,309.0015026191668L506.1601838287461,308.6258932109786L505.5669768966818,308.6449811218645L505.3575297269508,309.02214977757103L504.7197136537616,308.7799648424443L504.3249277158029,308.84545710380644L503.1891957597236,307.7084177449233L502.67594899686446,307.5427159162491L502.3534819570268,307.14725631487L501.4980847167317,306.98022671612307L499.99407445675934,305.75404038956003L499.97991567461395,305.5880430796424L499.2150879157034,304.9938732246228L499.07193016741985,304.14197486985177L498.5699821428425,304.00667473493195L498.3851223541187,303.624805112634L497.3192278460465,303.5338552824014L495.6851273958073,303.64209877023404L494.93210928735243,303.437293469814L494.3519714907725,303.1297532910239L494.18303903081323,303.1076627835919L494.01826165047714,303.1297701784988L493.4868066428153,303.2699122687809L493.39208933815644,303.3950151420049L492.93904226228915,303.8175859923722L492.92259390782056,303.850581615352L492.79898798286376,303.9280769442212L492.6754555122425,304.0822973427821L492.5787797328794,304.1311194345499L492.20993833579996,304.10871966299874L492.13163017495935,304.0278653101486L491.9419802677385,303.6716188097371L491.5662167815299,303.30635773276754L491.10271107297194,303.02717650303566L490.86824456906106,302.8782684545722L490.52079526205307,302.66206252356733L490.2185390593713,301.8206366698305L489.91917505891433,301.5557534449963L489.1149370449275,301.3495320483753L488.68674201896647,301.0395041858819L487.65900143783074,300.7901807294429L487.4456125013785,300.9711421390739L486.6712984431506,300.96256839694706L485.98919005771495,300.70579551654555L485.1677424670561,300.9223907190135L483.94044525413847,300.8948884504407L483.516380561754,300.5884146097251L482.6848859210186,300.2840599490846L481.9649268043231,299.6941519348029L481.8876478092934,299.42823286572184L480.63334366396157,299.1699194034072L479.92144365411696,298.7270016107932L479.2934039140764,298.6418927615541L478.8191476799202,298.75916054150093L478.0762055948089,298.68788548587236L477.49958297558805,298.2272433111775L476.57922921016507,297.99100594074207L476.02777269873513,297.5515438407756L474.9517826978372,296.9092902586235L474.4871234022685,297.2281803093174L473.4876554660914,296.8236892583327L473.0517250448793,296.9912179869025L472.38255105938697,296.913782225276L471.607985992001,296.3091783699856L470.84429811138034,296.9729272964414L470.2585129650979,297.0812153989409L469.46206721359704,296.87079136707325L468.7815370233093,296.2460022858295L468.21035863644283,296.7253320912987L467.590993442298,296.9560445750176L466.9078685331351,296.25934529335245L466.3522397674533,296.1461028384001L465.88267721257216,296.87003882283534L465.4938871067443,297.18142333787L464.27085182775045,297.78293433105773L463.4081228766863,297.83996831836885L462.94703350110285,297.72036074466723L462.1910937629891,297.28674901823615L461.8746671091958,296.94336392339756L460.9488408793004,296.8407650608351L460.30724118423495,296.5025717188473L459.7857662595925,296.7846489246458L458.89980327171907,296.7651983101114L458.31740000179525,297.3128483632345L457.89457613934064,297.2291533188536L457.8255379256352,296.538460673818L457.147057542752,295.72842675097763L456.392892570253,295.8298972388993L455.9665522419127,295.16755841572285L456.14295527983086,294.67136446231507L455.90113758395637,294.3442118262228L455.31206071801716,294.3453369961253L454.81230542410776,293.95812881691563L454.2841132878675,293.9351909735569L453.97377395558397,294.24857949806665L453.21021090046634,293.857748997867L452.5691126178226,294.01867675778885L452.2870985204572,294.43124311366864L451.378289005057,295.173760280697L450.7650912933823,295.1906990706548L450.31814041441066,294.7834143296277L449.6811540170438,294.59544112239564L449.26751940190115,294.0844389931726L449.02821832150585,293.49507633561643L448.6698026354279,293.03066077280164L448.146395106849,292.6775049263015L447.58058411807906,292.52394290128814L446.9526234822042,292.82105442534703L446.59985083484935,293.6731158765888L445.1421951267657,293.57777687605176L445.10272480408094,293.97242519982046L444.5947682251008,294.8581446480366L444.1775346581835,295.1717147955587L443.3720084769611,294.763582706375L443.0399778288156,294.0043456233989L442.62037042760676,293.8476236244587L442.28739279505135,293.1725079596599L441.7828293734092,292.4791200359332L441.5332260614705,291.85389247497005L441.02650117894154,291.80510311098897L439.7956712157884,292.2690612500819L439.38791713023056,292.26924721855266L439.1630512413194,291.20005860298716L438.62559421623155,290.74312600961184L438.17697018717445,290.76043461894096L437.491203399235,290.02853069228604L437.1936091692205,289.3593940503788L436.47095733638344,289.23543163970044L435.8532999037325,288.95796958570827L435.20612227912534,289.5558579523886L435.0739834348078,289.8382536701729L434.23052913269566,289.4561774224685L433.8313289166872,289.74293553201824L433.12364227256694,289.896419808314L432.51200067779973,289.6493475021998L432.19448499099053,289.49705463103055L432.17090382806055,289.47939259828036L431.91622964646376,289.28734348175567L431.5855328339221,289.2482532700624L431.1959250082291,288.82671533676694L430.5452719422374,289.11868810341093L430.1454073168097,289.8446160845424L429.96499055352433,290.14809686837907L429.7331225944272,290.27628746159644L429.07276744593946,290.5245667056779L427.83853932920465,290.97045419497044L427.3362241111681,291.10049774384333L426.5829434324078,290.9661256216923L425.3141033978827,290.9103470195887L423.75364134769734,291.12016853197747L422.8059977465655,290.92581195344064L422.83964171003026,290.3521626429583L422.04372814725866,289.0170140668297L422.0297168911402,288.37337635179483L422.4184593328573,288.082163809564L422.271283347538,287.427121305278L422.54433864138446,285.5790643302362L422.0189314306299,284.8549626998347L420.9166411640308,284.5228154468332L420.01002805428107,284.555499594263L420.02439413239154,283.57361090300583L420.1549082737092,283.0796150052265L420.61809873705533,282.5395913289012L420.78166286070336,281.8239088066666L420.3917956699461,281.6639324587886L420.46678943589177,281.05188405126046L419.6704219424155,280.5074598089077L419.5617652214969,279.9792352456152L419.238655368581,279.8735057928561L417.8169591127753,278.42924621707334L418.09120299636925,277.90712777386307L418.867296564722,277.4087040650693L420.02510396061007,277.02001931610357L420.5684277267992,276.57404572227915L420.9097972486852,276.55442131516884L421.4303464274817,276.871063755686L422.5353456845769,276.957870895777L422.8369069501914,277.237138529159L423.89103713876284,277.4686073203793L424.7004322613848,277.37979157987866L425.63156804958817,277.64233637051075L426.2210976901042,277.4563267138028L427.1238020151468,277.719496273181L428.10880307803563,277.5375393167933L428.6596340534543,277.2637826910968L429.01200409587364,276.72230773675983L428.7623056070297,276.14316331100144L429.10994853590273,275.79244441751143L429.2364161571277,275.2837759699323L429.95854267833784,274.91553340993596L430.2169702431729,274.19206896537617L430.6263547661165,274.0603817724832L431.3689587893714,273.3821529267607L432.44471055542454,272.8327429140991L431.4464060911341,272.34533112343706L431.16495515184215,272.0329237655951L431.2387497000709,271.50371202286715L431.93955148930036,271.7342612925431L432.563864558977,271.57639563501925L432.9661008800067,271.2085418935749L433.83573336945847,271.1517720514603L434.7395197172791,270.17677465322595L435.10385500121447,270.0067976192586L435.97450303151527,269.01770441950794L435.7860047617796,268.59946560559456L436.2649292776514,268.36608969961617L436.3884430646485,267.8475034817011L435.9129783147637,267.5264418553179L435.06359289694774,267.8041171034556L434.511865046954,267.61567442698924L434.4592276732765,266.9189181592792L433.9995554049783,266.8102129667204L433.4987036260318,266.20323986564836L433.1255022935129,266.0863446193207L432.24098169760146,265.48345944558696L432.48422477490385,264.9703227191667L432.72467000911274,263.7822938601739L432.65245124659305,263.1554309236044L431.82829515487174,262.3130042852472L430.75996514548206,262.2932560787958L430.2043916168186,261.9068412529514L430.0435789993644,261.41002794128235L431.8012380920518,260.6516734771403L432.2220774294401,259.89706046206084L432.1431271222591,258.83937275334847L432.2501825842319,258.4660600829975L433.89942016351597,258.8865351130562L434.429839750268,259.2588540088318L435.379116809032,259.49042024089704L435.88729269887335,259.4476317910512L437.071815670206,259.12328029941455L437.8655309893784,259.078710675356L438.0888907591816,258.54144007376L439.0159250078523,258.4065394942563L439.40643257922966,257.47662399690034L439.50066485498064,256.438469251646L438.7156897662935,255.7989251998315L438.72469494823963,255.15953776518563L439.09384847869114,254.53532203104714L439.18346706155353,253.9787580498487L440.7627100882364,253.2842595562006L442.2336119743086,253.5617451399212L443.25051995630565,253.0364460783203L444.2672933590238,252.37508314743536L444.84173348482545,252.34169522429238L446.51564737291847,252.91584796781262L447.21377780151306,253.47797179837562L447.4520671554583,253.89216346626472L448.3516401324996,254.28394038572515L448.4295606301639,254.83149666690315L449.2805101938302,255.38910363517698L449.48511972813685,255.72240431448245L449.53259950993925,256.6970757641484L449.7649525678262,256.8356337281548L450.7161118229633,256.9103998147548L451.79875281758723,257.53644359893315L452.2074898989322,257.45666283183255L453.27471764147595,257.60081595504744L454.03569271344895,256.98902176248066L454.5178108938853,256.75424093505717L454.5113200435171,256.3572039602386L455.0124151271575,255.82802203682513L455.9508104343913,255.84797610616715L456.21585703534765,256.62279909082645L456.8117434589112,256.7295811088261Z" fill="#e1b03d"></path>
    <text x="490" y="282" font-size= "4.5" font-weight="500">
      पाल्पा
    </text>
  </g>
</svg>