<svg  viewBox="375 260 150 150"  version="1.1" xmlns="http://www.w3.org/2000/svg" xmlns:xlink="http://www.w3.org/1999/xlink">
  <g>
    <path id="path-05012" d="M494.3519714907725,303.1297532910239L494.41313510732834,303.90424335881016L494.6640398224281,304.12075087633366L494.4371276991824,304.745577240893L494.6550753289648,305.0094290539246L494.3831450455709,305.32920487835963L494.25552136075385,306.29795983719123L493.8089523483104,307.7270698994298L494.0696575032398,308.1117600833295L493.8225866633147,308.75225596026485L493.22246597031153,308.8791432632579L492.7084973046203,309.28195140134085L491.8931998626849,309.6539298227035L491.61027209559506,310.00239065989354L490.96270717757216,310.43549453974447L489.9015308925682,311.6318808550159L488.8806890009055,311.7630848084582L488.09793482673194,312.43725626911964L487.99196544631013,313.1107694875209L487.7536439324613,313.5666327695253L488.3476545753456,314.16227005081873L488.08117462884,314.44957872135274L487.57524064404424,314.32575734192415L487.24526870753107,314.53739848115674L487.78108324682216,315.11195222901915L487.50582603686235,315.3732777623163L486.8080977894733,315.1542552399733L486.59035164338275,315.4002469259922L486.8299776018157,316.02029971862976L486.0920357187806,316.2530912164211L485.3177738331833,317.12931725665385L483.71877910960393,317.821234996004L483.27478693625926,317.70034242082147L483.0190188909801,318.1012496691974L482.7577255744163,319.03450175402577L483.0723435163327,320.2633471485442L483.0671302231003,320.78529387778144L483.5146300875458,321.6591487926107L484.3333330423011,322.35719102859275L484.18677774923344,322.8262487443526L484.823769842209,323.31460242381763L484.7591623439275,323.95507166558673L484.42548358296517,324.34319254826005L484.4434507239621,325.94881167404674L485.66099141727136,326.2282341819491L486.1208286123565,326.1501456246415L486.2898617625997,325.76859498543763L487.10526527420916,325.9378706047073L487.44136992897074,327.5490684167071L487.1721141451235,327.71155179780635L487.1273475781545,328.68704162633276L486.753098365547,329.0574767204498L486.8330466901916,329.5362688920568L486.48630453617625,329.91052183083957L486.4261157377696,330.56788496556055L486.6042146372238,330.8868498039583L487.48115243720713,331.0958318768853L487.40196441405897,331.4866506717972L486.78691264668487,331.89593209064697L486.3829539813105,331.979050791203L486.2079885306848,332.96057007593754L486.5407004583485,333.5400497604069L486.49121607037523,333.90086249713386L485.605714278352,334.1679242647733L486.0399965545639,334.47268104997056L486.359319047433,334.9351521786939L486.2084833549179,335.731498318597L486.6217728268821,336.4000451869915L486.9920272693289,336.21472291829286L487.6438607302789,336.77118046260057L487.5669687133013,337.97176709315045L487.1755525712615,338.4774979578169L487.47147308278545,339.53090870920914L487.27938891790836,339.9996549549569L487.682919902074,340.82344121660935L488.05610560012065,340.72829189319873L489.0280189180139,341.1399277129867L489.40621598465987,341.95731458860064L489.8388655206527,342.26908353743147L490.24455490201944,342.28138488549394L490.13719390123515,343.0234105186846L490.4152018093173,343.4817158295855L490.2962473827556,343.8340526191305L490.63143242553997,344.40014445006454L490.5572798528865,345.05060379918814L490.88694175072123,345.60932338301336L490.9856939752117,346.17956108502403L484.36771707324624,345.90044484739974L472.3079124266642,345.31743625458057L470.4173730672319,345.2715965336156L458.8378441495006,344.76190734578904L453.7549527861265,344.48691055733525L447.60776591275135,344.2370596252604L448.18996972511195,344.5990880346362L448.1784277794468,345.0638452879093L447.62853576034104,345.4919526944459L447.9509903668895,345.87416867986303L448.93505276601536,346.2114808323104L448.8871917264187,346.7153936182176L449.3616344890361,346.94787945307326L449.94982933509164,346.6280271022879L450.2463223145969,346.816185430167L449.7093867954118,347.3248239833074L449.733460466834,348.0239464553324L450.1099830607418,348.5459958448919L449.809866217387,349.1442036526778L449.49997083814924,350.1213422725814L448.8680995759696,350.63126694020957L448.13562705552613,350.5598954520392L447.8260927997071,350.92018358507994L446.6604941244623,351.4025956902524L447.13172552962715,351.99181121542097L446.7203080358013,352.5922779396333L446.94032240780143,352.95240242785803L447.868874500291,353.7321033792814L448.4481133637073,354.8003148614589L448.9414217443682,355.218225417575L449.7882231612366,355.432203087933L450.0850550359937,355.77121808272204L450.8185257133464,355.93106955925396L451.15921217328287,356.64271091366027L451.5513103991834,356.6701054181585L451.592536838476,357.11470211156666L451.11043869272726,357.15099431820727L450.81326464326594,358.48787622530654L450.41811695199976,359.14197827107273L449.271313859359,359.92720809383263L448.9853376899737,360.35891388132404L448.3315094961854,360.37129046949485L447.6509066053277,361.04921858021316L446.97526614079834,361.2641665245419L446.79402052828664,361.55454776181614L446.96192195115873,362.33237450423894L447.4540053326946,362.73163815109L447.14613138181994,363.2848316517493L447.48749195933306,364.09614361575404L446.944676064586,364.76915888513304L446.0613032973524,365.2620491334501L444.90425751008115,365.31619340624L444.52481274772435,365.88188727098714L444.4421708865666,366.5095333297986L444.68672644558137,366.8595715827196L444.7795962558921,367.486866945831L443.9262447795354,367.5839081038148L443.7218761735512,367.9658795048126L442.76263161801035,368.3239675874611L441.63907353879404,369.13455594797597L441.9189527129074,369.50520982500984L441.96144543693845,370.26711702925786L441.20740903244405,370.1921196469357L440.36280331243506,370.57013780371017L440.66872487786895,370.9519338654072L439.12559097947087,371.3657549632908L438.7057831846523,372.1012171795737L438.29901396431524,372.1313126307259L437.75212157051465,372.45511469186204L437.25762895576554,372.28406916224867L436.63392830226803,372.47345330310327L436.1693296151061,372.1687567951685L435.72397157211344,372.21077579510984L435.2455013816052,371.6837808289465L434.1131671435178,371.85574992278544L433.51264625571457,372.44693788088534L432.8798682893721,372.61564598454333L431.9911865208778,372.3161545239045L431.4505270293321,372.7250264737668L430.5140418067931,372.120640486266L429.5215247158376,372.34455010345846L429.45219373044347,372.0514107958852L425.3073059213257,368.6415372806241L423.9301473786363,366.1630721531501L425.2086987903858,362.6918862074899L422.2800862542317,360.64388405835416L419.03832601396243,358.3070446164693L416.34805001393397,357.3027043908214L415.1264186354183,356.53442616935445L414.5925762493025,356.11346633938047L415.3277460508616,355.9519971041309L415.39796128460694,356.0066522293173L415.49933245172724,356.0021841754269L415.3293635105929,355.75864747182004L415.83525016161,355.2473439080295L415.7742488413187,354.7912087513332L416.16128541406033,354.43230040782873L416.1224913700298,354.3813670274476L416.052083693201,354.30762068843615L416.16141316914036,354.18867725850214L416.39967172139404,354.2285373198001L416.5594287429358,354.1131952945898L416.85741371145195,353.8068190725062L416.97675973927835,353.8625061095627L417.1416815870052,353.860726737782L417.335295104891,353.6351114403269L417.31981776513203,353.5840456536416L416.97145348053346,353.22098124072454L417.0621100299122,352.94694294471356L416.821500156233,353.01763187370307L416.77537061424846,352.99491517674596L416.5622499273122,352.7386035821446L416.4326497676666,352.65219063673976L416.39528350270666,352.5448841140351L415.4381127074921,352.0274295759873L415.3966421347486,352.02896706415686L415.26379423520666,352.2828701210292L415.23309359183986,352.28780545372683L415.18698645769837,352.1744835202335L414.97166754045975,351.85968559362846L415.1640941670503,351.7333206335579L415.10391541199897,351.62268847937594L414.70002147169544,351.2933406643051L414.7610843691473,351.15904089499054L414.68138291579817,351.0450470414089L414.59195963669845,351.12704448007753L414.55558956253117,350.9998062337836L414.74945692661277,350.8708357233436L414.7821257895739,350.8177760874196L414.74990774200705,350.5643556445275L414.7405986527556,350.337698603802L414.793774143076,349.5766306919959L414.75071380291047,349.3016097130203L414.7987751053224,349.25149158867134L414.86955402220883,349.27102606760127L415.1584644830382,349.1029472389082L415.4908892962394,349.08375527288354L415.5934250472892,349.07668167012616L415.63303402079873,349.042208857044L415.64948127570096,348.94588803253555L415.65753590358327,348.84655355586347L415.72258535490437,348.7339384721208L415.83456737724373,348.5646854491051L415.7951969730584,348.5111465485479L415.8146213959426,348.38922664186885L415.9073214427881,348.2500035348712L415.8810728116423,348.1188028201532L416.0910278973897,347.9312256485673L416.12249644306394,347.89724523970654L416.1543459968161,347.6829188660513L416.2020679368452,347.4537755631791L416.2006265670152,347.420840232965L416.362712185437,347.2682162733381L416.35455459462173,346.9782580292567L416.36047107974264,346.8239192672472L416.56529337955544,346.299112036786L416.52945262881804,346.2303841635576L416.3869579620132,346.17308851314374L416.1135581208964,346.23747420169366L416.03707721322644,346.28080874160605L415.8363505817979,346.21040221005387L415.8326732547903,346.02315224843915L415.85556893665307,345.97837761912706L415.9191047831464,345.8219728309623L416.048005773313,345.7514655864625L415.81882202995075,345.59061031685997L415.65464310414245,345.50831628567266L415.5561776344166,345.518823849241L415.43415580775945,345.5563476178104L415.40898991207723,345.5460819418222L415.316137115331,345.1967860356863L415.3393037972892,344.8620050201316L415.3790928672188,344.8275322051386L415.5236878302949,344.8371358057748L415.55525066379596,344.7038690642121L415.44001866578947,344.4106103985996L415.51562270193426,344.34517088465964L414.97692216992255,344.1769716725421L415.0897465374892,344.1143292767065L415.1697691116369,344.05623801779166L415.3872174487078,343.9349396836833L415.38907748461133,343.8798753067349L415.1136081575678,343.6984886309865L415.0959700323965,343.6695398725251L415.50991334186256,343.3174031452463L415.5674829128402,343.21608680853296L415.5892784957141,342.7491081503267L415.50526629192063,342.61257712521365L415.4956467105985,342.48085987750983L415.52339335725446,342.4542518534299L415.7131670761628,342.35912928841117L415.60964471304396,342.2491701502304L415.5220067267237,342.1235175679267L415.518787609868,342.04680454490153L415.3835805164672,341.96693553232035L415.62012882924137,341.70898464625134L415.6780724972632,341.7143029520812L415.8451084537519,341.7671196215242L415.8958846790283,341.7984813289049L415.9917468062795,341.2296457880648L416.1448184463188,341.24267127730764L416.2130886490031,341.29906744476466L416.5655055709358,341.3491318765955L416.69465523163854,341.0839902826947L416.3424785720017,341.0412981791651L416.4077543125677,340.82593873524456L416.50684613917656,340.9289818713696L416.5449313271365,340.9534757229467L416.6935826631634,340.8598786344619L416.65193003666354,340.7513114412004L416.6324061054129,340.67859699829205L416.7354582635562,340.67889571706473L416.8077488225681,340.6321032050964L416.87559507218975,340.47914438452335L416.8968932263433,340.39753213728454L416.9193316392466,340.29553189628496L416.9600206502855,340.23028498936856L417.0443536386665,340.17605994057703L417.0789314127196,340.11604819564764L417.0725309465397,340.06101995786685L416.99067907017707,339.87682090112867L416.8520882219964,339.9144409618175L416.6475316476535,339.85185108335645L416.64814071871297,339.6684793471486L416.53559935238627,339.44109135225335L416.57876016005866,339.288697213653L416.5999261802317,339.20362693743755L416.6947298435516,339.203961793708L416.77356501579743,339.2160998098316L416.9240283572817,339.0674383468295L417.11350531738753,339.16392435084526L417.23810958625654,339.18491091787473L417.37940979179984,338.9158068265051L417.0802778099387,338.86024241425L417.0460225773986,338.82835216390686L417.2316656994317,338.03967821250535L417.4112930427309,337.8973680683812L417.64408343480136,337.64726984963454L417.6631491578464,337.60987961423234L417.4106991647095,337.58526872764287L417.33766211048896,337.5145962429933L417.3893356841563,337.36951428089924L417.53676183076095,337.24688415388937L417.52181258326164,337.1849759963843L417.356396462008,337.0731926677827L417.32547872358555,337.0230756631827L417.119156472083,336.9201781334623L416.95864958295533,336.7272990947731L417.0034697839419,336.71491918797346L417.1458803377973,336.76874479378057L417.3714965676827,336.8416244158734L417.39115086601487,336.81854658038355L417.3731986784187,336.68339543798265L417.2231504664742,336.5455085575977L417.22728742636355,336.24811779357697L417.2495344885101,336.1885985136023L417.1850342084872,336.12480595071065L416.97568853331904,336.14676981559296L416.8688304361549,336.15387950407967L416.61801053276577,335.9718921426729L416.5557596307408,335.46723656094036L415.91790873532045,334.6046828781091L416.01607530673573,333.9916253523106L415.42593624713845,333.6815155304639L415.26165068166847,333.00446413020563L414.5304874277499,332.2807613487221L414.6230770827606,331.3378461478369L414.04659165694466,331.15036417291776L414.1261403966437,330.77971732324386L413.36735747286,330.46975398001996L413.36652331409823,330.14941782282676L412.9626966589749,329.55177247352276L412.44449305895614,329.4801697429084L412.13777453214243,328.8386372438963L412.5425923538751,328.46093765851856L412.91495132626187,327.7934122897768L413.09732977668864,327.06890413956535L412.59993098232735,326.85499352950046L413.03172019226804,326.0679371146862L413.55462428470673,325.79966813665305L413.58410368489604,325.31400645139L413.8288533642208,325.10888650307334L414.08012987870643,323.9665439621731L414.9129491043277,323.82746647430395L415.09526182297304,323.45756262039504L415.07068246624476,322.6752554672812L415.4544094389821,321.8871911491624L415.9425913832001,321.6629645263365L416.1063648185227,321.22727429769657L416.632886941994,320.5160290762615L416.93459721377985,320.3990520893385L417.351678449264,319.6173390309259L417.318682359215,318.82815197256696L417.01853407974886,318.3378242421986L417.1468269769757,317.1645533162973L417.0295751027861,316.7174243680465L417.1351141418745,316.1333758417859L416.75723830580864,315.7986606203867L416.74242580431564,315.32755213870405L416.4538778067308,314.9468366344754L416.28071983613336,314.29628501495336L415.4870247783874,313.474521655402L415.7110196259473,312.8507881549849L415.2782709248986,312.34952390780927L415.57716764566794,312.00929985161383L415.9891475497152,311.9809813694992L416.05756028345604,310.6116842218653L415.8266869594718,309.9662244335541L416.03631351644617,309.5406795409872L416.3236558694116,308.30453750149536L416.7256886485702,307.9585485973521L416.5019128384938,307.40538692429527L416.50644693853246,306.49288698218334L416.749319681192,306.07237257765155L416.373852950348,305.5027153827041L416.74998276436963,304.21839981937046L416.5372423676745,303.7436320413144L416.93599981445914,302.8670876263541L416.26030640405406,302.7897958517833L416.5096925374146,302.02722449663725L416.00317119215106,301.94553573367466L416.14339524093157,301.2594268371131L415.4871037348803,301.1447688451981L415.6834406455855,300.8094571496349L415.3760697035177,299.9446777099474L415.62251976507105,299.49031539559473L415.5266660729558,298.5172773840977L415.0830402959291,298.0628888800602L414.93235936270503,297.4581799405578L414.60882801564185,297.28315777303305L414.289455688242,296.7049748139225L414.32789163267444,296.2049646669484L414.8070411602366,295.79219147188996L414.5564102520311,295.43557363992386L414.74784557851854,294.93903135454184L414.43262023953685,293.95682311454766L414.1668739052693,293.6449437721931L414.24459647270123,293.21361340227486L413.66913198061775,292.3742327436248L413.39341196683927,291.6038043077933L413.6864959541199,290.51370408125604L414.1484348961585,290.479429376629L415.0852728978425,290.0254774908208L415.51255049888823,290.07638128886083L415.81951742476485,289.84101471799113L416.4403880273985,289.86832189916913L417.0739283424118,290.7174154127579L417.6238688546655,290.99611521070256L418.5263866675632,292.23388511305893L419.0727066380732,292.1476546876238L419.3439521179407,291.8015475937482L420.16979068887304,292.0688247457947L420.6902253377775,291.36031730140894L420.42968206756086,290.6187535995814L421.19440749480054,290.2288137208634L421.5599152498962,289.8245551345999L422.04372814725866,289.0170140668297L422.83964171003026,290.3521626429583L422.8059977465655,290.92581195344064L423.75364134769734,291.12016853197747L425.3141033978827,290.9103470195887L426.5829434324078,290.9661256216923L427.3362241111681,291.10049774384333L427.83853932920465,290.97045419497044L429.07276744593946,290.5245667056779L429.7331225944272,290.27628746159644L429.96499055352433,290.14809686837907L430.1454073168097,289.8446160845424L430.5452719422465,289.11868810341093L431.1959250082291,288.82671533676694L431.58553283393303,289.24825327005783L431.91622964646376,289.28734348175567L432.17090382806055,289.47939259828036L432.19448499099053,289.49705463103055L432.51200067779973,289.6493475021998L433.12364227256694,289.896419808314L433.8313289166872,289.74293553201824L434.23052913269566,289.4561774224685L435.0739834348078,289.8382536701729L435.20612227912534,289.5558579523886L435.8532999037325,288.95796958570827L436.47095733638344,289.23543163970044L437.1936091692205,289.3593940503788L437.491203399235,290.02853069228604L438.17697018717445,290.76043461894096L438.62559421623155,290.74312600961184L439.1630512413194,291.20005860298716L439.38791713023056,292.26924721855266L439.7956712157884,292.2690612500819L441.02650117894154,291.80510311098897L441.5332260614705,291.85389247497005L441.7828293734092,292.4791200359332L442.28739279505135,293.1725079596599L442.62037042760676,293.8476236244587L443.0399778288156,294.0043456233989L443.3720084769611,294.763582706375L444.1775346581835,295.1717147955587L444.5947682251008,294.8581446480366L445.10272480408094,293.97242519982046L445.1421951267657,293.57777687605176L446.59985083484935,293.6731158765888L446.9526234822042,292.82105442534703L447.58058411807906,292.52394290128814L448.146395106849,292.6775049263015L448.6698026354279,293.03066077280164L449.02821832150585,293.49507633561643L449.26751940190115,294.0844389931726L449.6811540170438,294.59544112239564L450.31814041441066,294.7834143296277L450.7650912933823,295.1906990706548L451.378289005057,295.173760280697L452.2870985204572,294.43124311366864L452.5691126178226,294.01867675778885L453.21021090046634,293.857748997867L453.97377395558397,294.24857949806665L454.2841132878675,293.9351909735569L454.81230542410776,293.95812881691563L455.31206071801716,294.3453369961253L455.90113758395637,294.3442118262228L456.14295527983086,294.67136446231507L455.9665522419127,295.16755841572285L456.392892570253,295.8298972388993L457.147057542752,295.72842675097763L457.8255379256352,296.538460673818L457.89457613934064,297.2291533188536L458.31740000179525,297.3128483632345L458.89980327171907,296.7651983101114L459.7857662595925,296.7846489246458L460.30724118423495,296.5025717188473L460.9488408793004,296.8407650608351L461.8746671091958,296.94336392339756L462.1910937629891,297.28674901823615L462.94703350110285,297.72036074466723L463.4081228766863,297.83996831836885L464.27085182775045,297.78293433105773L465.4938871067443,297.18142333787L465.88267721257216,296.87003882283534L466.3522397674533,296.1461028384001L466.9078685331351,296.25934529335245L467.590993442298,296.9560445750176L468.21035863644283,296.7253320912987L468.7815370233093,296.2460022858295L469.46206721359704,296.87079136707325L470.2585129650979,297.0812153989409L470.84429811138034,296.9729272964414L471.607985992001,296.3091783699856L472.38255105938697,296.913782225276L473.0517250448793,296.9912179869025L473.4876554660914,296.8236892583327L474.4871234022685,297.2281803093174L474.9517826978372,296.9092902586235L476.02777269873513,297.5515438407756L476.57922921016507,297.99100594074207L477.49958297558805,298.2272433111775L478.0762055948089,298.68788548587236L478.8191476799202,298.75916054150093L479.2934039140764,298.6418927615541L479.92144365411696,298.7270016107932L480.63334366396157,299.1699194034072L481.8876478092934,299.42823286572184L481.9649268043231,299.6941519348029L482.6848859210186,300.2840599490846L483.516380561754,300.5884146097251L483.94044525413847,300.8948884504407L485.1677424670561,300.9223907190135L485.98919005771495,300.70579551654555L486.6712984431506,300.96256839694706L487.4456125013785,300.9711421390739L487.65900143783074,300.7901807294429L488.68674201896647,301.0395041858819L489.1149370449275,301.3495320483753L489.91917505891433,301.5557534449963L490.2185390593713,301.8206366698305L490.52079526205307,302.66206252356733L490.86824456906106,302.8782684545722L491.10271107297194,303.02717650303566L491.5662167815299,303.30635773276754L491.9419802677385,303.6716188097371L492.13163017495935,304.0278653101486L492.20993833579996,304.10871966299874L492.5787797328794,304.1311194345499L492.6754555122425,304.0822973427821L492.79898798286376,303.9280769442212L492.92259390782056,303.850581615352L492.93904226228915,303.8175859923722L493.39208933815644,303.3950151420049L493.4868066428153,303.2699122687809L494.01826165047714,303.1297701784988L494.18303903081323,303.1076627835919Z" fill="#FF7B46"></path>
    <text x="445" y="330" font-size= "4" font-weight="500">
      रूपन्देही
    </text>
  </g>
</svg>