<svg  viewBox="305 185 150 150"  version="1.1" xmlns="http://www.w3.org/2000/svg" xmlns:xlink="http://www.w3.org/1999/xlink">
  <g>
  <path id="path-0501" d="M382.69169857896304,222.83265678608132L383.0429637595971,222.9472470008277L383.83875957415694,223.767028562821L384.53031091022604,223.71720147325505L384.98646568473487,223.1991630712655L385.46180676028234,223.33504000073663L385.9221230560124,223.21706422567604L386.33825239560247,223.5995666770632L385.68313533814035,224.0053780864273L385.60516072552673,224.4358797469513L385.8047814195397,225.76386795550297L386.6209162610485,226.5801311784271L387.1876049020593,226.81816273819823L387.89169594795567,226.37521283280967L389.26338229479006,225.71630670202012L389.54362805182245,225.78683207464837L390.24005097413465,225.56721328781077L391.86053432285735,226.09918622401074L391.93416518145204,226.4731925887163L391.523658042699,226.9253717334259L391.3949245726217,227.6175556571734L391.41250601365937,228.49169224170055L392.17921698976534,229.03149398252572L392.5416295944251,229.43958422658488L394.0701660156501,228.59872105865907L394.95542108167683,228.67491710488412L395.98630706623953,228.29336650847108L396.4845842473442,227.96682780261835L397.03236085743447,228.10723033634713L397.20701448316504,229.7887423744105L396.7695845076378,230.6709902515313L397.35993145075736,231.20515120399523L398.16289843523555,231.53813107955375L398.75503864395614,231.64795103898814L399.3212670325538,232.32272684026702L401.35540625399335,232.56056926412202L401.7777523160257,232.7933077697462L402.8988331294331,232.5055188517381L403.3135837655609,231.67899595965446L404.05375303935944,231.15779554408073L404.45901895668794,231.01446163403034L405.07935877085765,230.2603862993774L405.46576122165243,230.051314087249L405.7871466952547,229.09707360142147L406.51013950202105,228.84435094504624L407.2293180327597,228.14262490227975L407.3584184424162,227.82283942495087L408.2214890518917,227.43798922781116L408.7017880022504,228.18196282730332L409.9615404853921,228.34486829996695L410.3507060382144,228.88006471854533L410.392077095863,230.0041756757837L411.4918453722494,230.32197432859812L411.61183142323716,230.58221329628486L411.6986793335891,230.8365692892139L411.733787623607,230.90138281337022L412.34555428257954,231.43445079223784L412.4368042312781,231.450394835083L412.58597373261546,231.46816311524708L412.6477713319564,231.46650525367932L413.266515998057,231.46380677002253L413.3885997855996,231.53766034750697L413.5719954712986,231.96875865822312L414.239105858167,232.80799349021618L414.9767291181106,232.90868595906431L415.08993001685303,233.08879000910474L415.1263980608055,233.31831616305954L415.22142704891667,233.8253483074659L415.36846053349655,233.9055652607767L415.73038718981115,233.99799028476173L415.87632747812677,234.04529594210908L415.9471086468511,234.1900998909523L415.9596796138121,234.19696773991473L416.3482738527491,234.34778264147826L416.46994921588157,234.41037361709823L416.92574928958675,234.84863622017747L417.0498393075686,234.9844821460283L417.1993881973376,235.394556619367L417.20318668792424,235.63639047018296L417.31633956371115,235.81650653169254L417.3747179851962,235.96139471051174L417.3873873523571,236.09655784091956L417.38887696348866,236.140323500892L417.4262797810734,236.27492194406568L417.6386113484605,236.71282784914547L417.7160718943833,237.0621837359604L417.6960859888841,237.33407156788144L417.7023546045348,237.3999181165891L417.7873885923873,237.60273990920177L417.76223699854745,237.7173115024034L417.64706078261224,237.85232038411323L417.7431303123649,238.13916732520738L417.8200840376867,238.34939758263317L417.8308913208384,238.4260504077265L417.8240604121602,238.47030847713086L417.7203545170196,238.8284801488535L417.75327869877583,238.9522723179116L417.692588644577,239.1151367623752L417.7191000691764,239.16961234795326L417.66422438718473,239.508019720397L417.6708774093404,239.58469661999243L417.6330227036324,239.68851008424826L417.6583350754445,239.83054106646978L417.6712904578326,239.84867151936942L417.7233762501346,239.92770114609357L417.77411885620677,240.09127240298312L417.743419441651,240.1620904021829L417.7799453054249,240.27068160036652L417.9153208644202,240.37352000054943L417.98398774302404,240.45592336882783L418.0914730363547,240.60877151738896L418.13741056468825,240.63756375244247L418.5057883774989,240.92852519593453L418.4130646367321,241.07771407848395L418.3939633909358,241.14067930316924L418.4559199093601,241.29378025597907L418.4734501137282,241.33007730397912L418.590830067169,241.55266223502622L418.6802084230567,241.6462318587719L418.671773819804,241.97396430492063L418.68085136130685,242.0068514736913L418.7057800151906,242.17576624040885L418.8300026075558,242.33892820278197L419.0353821862118,242.76560764054648L419.11737417938275,242.73091810357892L419.1616893366481,242.67821853964688L419.3342101028629,242.616151633787L419.6217677907316,242.6804572330193L419.76743156535304,242.70738694026113L419.6558821170602,242.88616145829565L419.6544433455929,242.99626609332245L419.7274329344127,243.09815683710804L419.79458612780036,243.13333651579524L419.8073163496174,243.31357410447617L419.7614542269166,243.4690059793138L419.78349922140296,243.52350564515473L419.8127623688015,243.69975665689253L419.81496118057476,243.7881645074376L419.88060350762316,243.93041104045915L419.897809330163,243.95545749144276L419.935356985965,244.1316723633381L419.9060270279315,244.24150123883192L420.0395652265652,244.3244079715687L420.08434007125834,244.4598468103186L420.09382610450484,244.50747862684148L420.12028970931533,244.57321682494967L420.1821742606735,244.73022007301552L420.6567221406385,244.8169041156716L420.7437454753035,244.81513782674665L421.2155840480209,245.12984772710206L421.27415230937186,245.1507751656709L421.30951322391047,245.24204021686364L421.3144965380761,245.27497547366147L421.25779372603574,245.49675844642297L421.2428018117589,245.7291910690774L421.2355777123048,245.93901431155336L421.20126526367494,246.06099439165064L421.2114272276831,246.3036926777786L421.25829275371507,246.52361306844614L421.3457637608444,246.70952891878824L421.405533618321,246.78201459868887L421.54707914871324,246.80856014073743L421.59436214767265,246.8776600133233L421.7042115131717,246.96376096309905L421.766165079056,246.95518703968537L422.1274272466144,246.81973034392104L422.2764402394005,246.8132804137449L422.6073608884053,246.62293994368156L422.89563649097363,246.55116967305003L423.1571481178871,246.40238659030547L423.3221774231497,246.37374740620453L423.4114236490859,246.4638830195163L423.53553231025217,246.9621256405053L424.13275907450225,247.49165180997443L424.49026656095884,247.54003505636138L424.8056398644494,248.06717588711854L426.19811401441257,249.60814021712395L426.2448024764326,249.99367381665343L426.7164760862415,250.4779712602458L428.27285836865303,250.42610238764155L429.1471295610845,250.6049467495768L429.9476608343448,250.35853858267L430.7295533021734,250.51320207825665L430.7953967703561,251.148337905086L430.33253636502377,251.998959836209L431.04012989462717,252.6728571639469L430.6996004725188,253.32651373187855L430.1574967776942,253.51349529570507L429.9940326159285,253.77743657044175L429.1954182840236,253.8005976759332L429.2251869412321,254.7007535875564L428.7712152186359,255.10663435914103L427.80961093377664,255.06306263608985L427.31354692509376,255.61310062235407L427.25572415261195,256.3091019729027L426.59232053606866,256.6125176125315L426.4176646155447,257.4435158847582L426.6544707236353,258.16658889275186L427.03586506591455,258.5343472661507L428.0965744455225,258.74904201962454L428.8792447304022,258.75929677133445L429.9156406110069,258.30188535787784L430.94707464883686,258.32958275547026L431.49957454332434,258.061505438538L432.0435679858565,258.13159473785436L432.2501825842319,258.4660600829975L432.1431271222591,258.83937275334847L432.2220774294401,259.89706046206084L431.8012380920518,260.6516734771403L430.0435789993644,261.41002794128235L430.2043916168186,261.9068412529514L430.75996514548206,262.2932560787958L431.82829515487174,262.3130042852472L432.65245124659305,263.1554309236044L432.72467000911274,263.7822938601739L432.48422477490385,264.9703227191667L432.24098169760146,265.48345944558696L433.1255022935129,266.0863446193207L433.4987036260318,266.20323986564836L433.9995554049783,266.8102129667204L434.4592276732765,266.9189181592792L434.511865046954,267.61567442698924L435.06359289694774,267.8041171034556L435.9129783147637,267.5264418553179L436.3884430646485,267.8475034817011L436.2649292776514,268.36608969961617L435.7860047617796,268.59946560559456L435.97450303151527,269.01770441950794L435.10385500121447,270.0067976192586L434.7395197172791,270.17677465322595L433.83573336945847,271.1517720514603L432.9661008800067,271.2085418935749L432.563864558977,271.57639563501925L431.93955148930036,271.7342612925431L431.2387497000709,271.50371202286715L431.16495515184215,272.0329237655951L431.4464060911341,272.34533112343706L432.44471055542454,272.8327429140991L431.3689587893714,273.3821529267607L430.6263547661165,274.0603817724832L430.2169702431729,274.19206896537617L429.95854267833784,274.91553340993596L429.2364161571277,275.2837759699323L429.10994853590273,275.79244441751143L428.7623056070297,276.14316331100144L429.01200409587364,276.72230773675983L428.6596340534543,277.2637826910968L428.10880307803563,277.5375393167933L427.1238020151468,277.719496273181L426.2210976901042,277.4563267138028L425.63156804958817,277.64233637051075L424.7004322613848,277.37979157987866L423.89103713876284,277.4686073203793L422.8369069501914,277.237138529159L422.5353456845769,276.957870895777L421.4303464274817,276.871063755686L420.9097972486852,276.55442131516884L420.5684277267992,276.57404572227915L420.02510396061007,277.02001931610357L418.867296564722,277.4087040650693L418.09120299636925,277.90712777386307L417.8169591127753,278.42924621707334L419.238655368581,279.8735057928561L419.5617652214969,279.9792352456152L419.6704219424155,280.5074598089077L420.46678943589177,281.05188405126046L420.3917956699461,281.6639324587886L420.78166286070336,281.8239088066666L420.61809873705533,282.5395913289012L420.1549082737092,283.0796150052265L420.02439413239154,283.57361090300583L420.01002805428107,284.555499594263L420.9166411640308,284.5228154468332L422.0189314306299,284.8549626998347L422.54433864138446,285.5790643302362L422.271283347538,287.427121305278L422.4184593328573,288.082163809564L422.0297168911402,288.37337635179483L422.04372814725866,289.0170140668297L421.5599152498962,289.8245551345999L421.19440749480054,290.2288137208634L420.42968206756086,290.6187535995814L420.6902253377775,291.36031730140894L420.16979068887304,292.0688247457947L419.3439521179407,291.8015475937482L419.0727066380732,292.1476546876238L418.5263866675632,292.23388511305893L417.6238688546655,290.99611521070256L417.0739283424118,290.7174154127579L416.4403880273985,289.86832189916913L415.81951742476485,289.84101471799113L415.51255049888823,290.07638128886083L415.0852728978425,290.0254774908208L414.1484348961585,290.479429376629L413.6864959541199,290.51370408125604L413.32935088839986,290.5928836580424L411.77559216424925,290.33738376565634L410.86149047225445,290.5650384405353L408.53201092013296,291.5106147577826L407.12771077719844,290.6519865853079L406.32728819829936,290.94674702104567L405.4433160323806,290.7907880085222L404.31838627969773,290.72518546434276L403.6395690856025,290.527306920766L402.798189920577,290.69454104758734L402.1317274586545,290.4966263031365L400.13091520700436,290.120149642069L399.1698639629285,289.4542643185705L398.8032205460495,289.46696096908454L398.1997641033213,289.02861616758037L397.5055285730359,288.72088533572605L396.98660381919217,289.26860625134486L396.5217977666289,289.43842853600563L396.2269157588653,290.02850714597116L395.85933555773045,289.3550729777726L395.2166452768779,289.112971939433L394.86846903578953,289.18802092800433L394.20084606917044,288.54817472912873L393.7316754981257,288.3743433139125L393.39406855607194,288.6474364189389L392.813746438258,288.7517618753345L392.10491386145804,288.60508178598684L391.83593100749204,287.91157044356623L391.36859201855077,287.43434488483854L391.1989758932068,286.7757246272222L390.83913753011075,285.967955503118L390.13329852079187,286.0406441550049L390.29697609599134,286.9615344618978L390.2017502057115,288.1905893492167L389.26123302558335,287.68183996624794L388.82347756574745,288.51568767748176L387.70403233585057,288.9800040721002L387.27128915708454,289.45319597925027L386.87975712716616,289.51779943185466L386.268152924109,289.33855483192383L385.7136342282938,289.5195809300385L385.87235358984253,289.79679743758334L385.7164159318854,290.65219382051964L385.0760237345403,290.6794828716802L384.4614513702709,290.3572703728223L384.7545678857241,289.73543317644635L384.24540271861224,289.5143665737596L383.9508971300038,289.6693817300429L382.8368663730107,290.7814422879592L382.7150923871177,289.9006309052711L382.3548563415661,289.6811711432174L382.5035776772711,289.4768450953079L381.8855594755332,287.8084023309548L379.90224872163344,286.52004994949766L379.2256678388967,285.81650647306105L379.1714559907814,285.0115306923717L379.30309216191745,284.1415221227626L378.8285225054351,283.507676728801L377.20901198400315,283.0115082780867L377.06806321625663,282.78494927064L376.78727542383604,281.94647703785085L376.8337606215209,281.0419734422794L376.7294713191968,281.0123535240873L376.353184147878,280.8819622835563L375.9950756433991,280.79478415242556L375.97228627506956,280.7407647643904L376.04543793601806,280.50704654441324L376.1275366200498,280.39420315076495L376.2243545196161,280.23659727485483L376.30472348202966,280.079988215728L376.4815019199432,279.75451067569156L376.5663615185331,279.60869588959304L376.6475953366771,279.4737475330194L376.68898007668577,279.37333200792364L376.7467139760138,279.0629970337459L376.7072095479507,278.89900533031323L376.70461496137796,278.8331226951068L376.6551942565202,278.7320600696339L376.5089556464627,278.788147051353L376.30305290492106,279.31278590378497L375.9005382039286,279.56098926269715L375.84096279092046,279.6181916783253L375.3442487874927,280.0898715393032L375.28805889251635,280.12884720834245L374.9460241453635,280.54740571003276L374.92483419434575,280.6364142550683L374.5638270617528,281.61384107419326L374.018777051353,282.2159181567231L373.76382774223384,282.74916675727854L373.6628694109186,283.0095410162885L373.45318934584793,283.12678078412046L372.94030076818854,283.50021920268136L372.51301818069624,283.8392442161794L372.20863260169426,284.07160889208535L371.6864569738573,284.1079255463601L371.21544193839327,284.18590593727004L369.6438386410264,283.7509727008892L369.2569327101719,284.01561347494226L367.7625950131751,283.7791916664564L366.75508316119704,284.03983079073623L365.8116381752898,283.622983335149L365.33406476753225,283.5424827775287L364.82927100915185,284.05254925349254L364.3851391819753,284.16252803278894L363.85538162138073,284.5479737054584L363.19206341024255,284.25912944899665L362.30419786209495,284.58578162040067L361.7487518279049,284.60477254303805L361.1404956951137,284.99953677507347L360.8114209531268,285.02200656886725L360.3221875262043,285.525108725421L359.41998363240054,285.7084809792859L358.53144094852723,285.08688853956755L357.7791150045632,285.2903945084099L357.37085067449334,285.6251807253102L357.00093784343517,285.42912281218014L356.3912465893318,284.78590177645947L355.90753063384,284.9760881667162L355.02372855193425,284.9206519691843L354.5683994380088,284.62302763087973L354.41177269233776,284.5388604143227L354.0892926802153,284.05900325839866L353.73108879497886,284.0080983794105L353.2535878512699,283.9503631556645L353.2207142137813,283.96492816346745L352.8913862434583,283.92508137080677L352.54199800290917,284.03537098090965L352.4968903575282,284.0868698377917L352.27909342294697,284.1787748204297L352.156184049436,284.26557548317487L352.08196005437276,284.2887140998955L351.7487550762671,284.3113400278917L351.46902739899633,284.34478355897045L350.690760865813,284.18071811227037L349.6532973219437,284.0209307870455L349.529616840131,283.95519392665574L349.2208921482852,283.91868480015455L348.8343431071935,283.99638779399083L348.62061612871184,284.0735480607309L347.90491986385496,284.1478696532449L347.6250712849269,284.13369323007464L347.24195262361354,284.0133159106899L347.0034073613224,284.0464706922912L346.84740845397573,284.1604437599981L346.75708425520133,284.21536525332795L346.5356634172804,284.4248072664659L346.1204191355482,284.52401527598977L345.708484795834,284.4038905027155L345.24694045971955,284.34095598647946L345.20137515350143,284.31230780572423L345.1408734061424,284.26598545912657L344.8017231870781,284.17430436662926L344.2768812246377,284.15829427091376L343.8511060108649,284.1891463011316L342.9993583867272,283.9613244289667L342.88671560529656,284.1053025005458L342.6216654468262,284.45297024326646L342.56530787612974,284.5158639411793L342.3855707244202,284.55464920395025L341.84247684570437,284.4257130750366L341.7436986448138,284.400967924008L340.8253304474183,284.3826939585406L340.49556726606534,284.17268327808506L340.1884257347756,284.0387369276241L339.779340712721,284.13236155993127L339.23694489658556,284.09882140609534L338.6765132818946,283.9523312083329L337.61092573267706,283.5219293875916L337.4467964991636,283.5276710351536L337.37774777114464,283.5763725770603L336.84537218251717,283.9285586676706L335.92206522070774,283.67689176765816L335.6752583007019,283.64347958042254L335.28956058850963,283.65591222570947L334.48800778002624,283.8535713465717L333.9962957077987,283.3719635019497L334.23410203160347,282.2819724857427L333.4682412065795,281.59819379485725L332.6966655110191,281.61230076788524L332.2071865524449,281.80903100966043L331.8905708444454,282.30072396731794L332.19674704141653,283.5311418578631L331.5055046298712,283.4063381832648L330.51381520154246,282.16808919110554L329.3546494749007,281.7774319652135L328.6993278293412,280.8071756093941L328.22866842466647,280.62152917110234L327.3596364897894,280.6804357651081L326.6839417377778,280.50836012456966L326.172527996041,280.0847345844595L326.21762288166246,279.3041558672312L325.3884257567024,278.51238667844063L324.5678588656592,278.26538907274517L324.61830557711437,277.30835474199466L325.286559956392,277.00583997154627L325.64659665308864,276.1352881150924L326.5502346533849,275.5775603144848L327.3849013836898,275.37763143409666L328.8914948849051,274.78423433956686L329.603467317982,274.611467087595L330.5635451078506,274.571758477241L330.84038901173335,274.4145703946597L331.3427297986691,273.69714241430574L332.3990282748873,272.99263833226723L332.6092727159903,272.19718061456115L333.1343005305862,271.8610000460003L333.63851360660556,271.7859490031924L335.071497764231,272.03136511830144L335.46481858037623,271.9612264939424L335.9322025812962,271.6000120261551L335.77184978793775,271.2858619013132L333.66200585043043,270.84519661894865L332.9436816387588,270.31618816134414L333.16977179349124,270.03854609660993L334.06724550156287,269.8855158299484L334.926571344311,269.5559945207542L335.5088673659611,269.73429105526066L336.19823241338054,269.61476333042265L336.2471833679101,268.95119325447376L335.52239575585554,268.8837837749461L335.2054053640277,268.5493199139846L335.56818659468445,268.08413789672704L335.4671099188763,267.7620983267643L335.6503700762387,267.33229156544985L336.04383356712606,267.18325463778L336.94878734650047,266.3501932053514L337.27450820956983,265.4206992468253L338.4151653024164,264.0815855829205L338.4274128277775,263.45041104719166L338.9343688382123,263.0052787878885L339.1320336711742,262.39765949369666L339.94158329726633,262.23342784223496L340.54669037588974,262.33534721040087L341.3096441491307,262.25606605000394L341.9221161651403,262.6366568324138L342.6291945496432,262.72779244530375L343.53514461804843,263.24075680723035L343.9418530148505,263.18837639408684L344.3349763318911,262.8145075215343L344.9602361306843,262.56268702402303L345.87277272600295,262.78916317408584L346.26595017734144,262.76034076842916L346.50301726755424,261.9742962074952L347.297819865189,261.6400809832776L347.6149015672272,261.7050826932418L348.2380643971119,262.3661699055683L348.70160103175476,263.06497348510675L349.4234363748492,263.20731892023196L350.18302302829034,262.1517929040874L351.164955041917,262.24483375917316L351.67120383315523,261.86670078128464L351.88830522606986,261.1480400284063L352.77876316354195,260.7737679330967L353.4512808839718,261.20962627450626L353.8671385874277,261.85125295987746L354.33584870245613,261.7972507027216L354.9579465896786,261.9851642538915L355.77929946562836,262.5417153339449L356.7053300224925,262.68784009851606L357.16934330815275,262.50561465633837L357.40834713542245,261.9294411923338L357.92589145393504,261.4043898202726L358.54228747144043,260.98651195093953L358.6578102130261,260.0801584683277L358.97596544035696,259.74782298311766L359.2837399035616,259.015953193988L360.9314005335327,258.56499341755807L361.6143969456625,258.15663618992676L361.94233211373466,257.52303177738577L362.7985067249083,257.56111808443984L363.8590713489739,257.7550169437782L364.1571761050127,258.1207353558211L365.36922822075576,258.3729262847082L365.6491295239739,257.9794274329279L366.8849343019956,258.4404205474648L367.31942050040925,258.08998878667717L367.7896798674665,258.058739823261L368.47680807771394,258.4090477080963L369.7957251117041,257.6953783166018L370.0576734342558,257.79400049613105L370.44438124844964,258.5410134089461L371.11457280107606,258.4745449500797L371.15976761622005,257.92763537035626L371.38124801461345,257.6962924873369L372.5124832602305,257.2264167864232L373.2831821842392,257.86795437797264L373.7844457143783,257.3498312491065L374.1851806690265,258.29140613653817L374.6123575156016,258.75819803477043L374.75492562422187,259.56900783964466L375.1922272994252,259.5506909140104L375.6386228056308,259.13485657705405L375.94493806029277,258.0486228007667L375.4030676495677,257.1834387377985L375.93942337666886,256.503856357368L375.3713748213795,255.4212851079974L376.27869080178607,254.42827756442057L375.6785952211376,253.92673974184436L376.22903815964855,253.44600585743865L375.9823927620055,253.0464028561655L376.0794325466086,252.5433542924202L374.8867523974459,251.2567681979017L374.6993090593296,250.73668567013738L374.29118862996984,250.38376835540475L373.2719722825059,250.0660523375209L372.7370970743177,248.94343717702486L372.8481519802008,248.6353228146172L372.51236064419027,248.37856890744388L371.777365373222,248.8633157308168L371.1174260580374,248.8525427357281L370.61830913320773,248.55583168833073L370.344933901275,247.971836885421L369.94297588971676,247.78885519824962L369.4168503378205,247.83045503893572L369.16144166309823,247.51290832446193L368.23659842550296,247.29092313457022L368.09760335329156,246.87585355612282L368.37672301937346,246.41736059642153L368.04509361992496,245.91834048390865L366.9165683917108,245.51935031571884L366.65487577707427,245.61883237931215L366.3000030522817,246.5330297808332L365.1709670200853,245.76915752000878L364.63644859195665,245.7927108794429L363.92119240736247,245.6256309361279L363.7400579073019,245.40553235267635L364.1145415029878,244.72565216952898L365.2417342215904,244.46788102724167L365.8547463757368,244.16633945461217L366.2861779939449,243.54501682131286L366.7999407937368,243.72623188982652L366.80326718044125,243.089053998071L367.4698833906423,243.1720492778195L367.8167608085041,242.9865475401948L367.49737889243625,241.8641575292204L367.5075417878743,241.49436442437946L368.00206584314765,241.43735999129876L367.9473540076724,240.87646368246897L368.33659846591945,240.46787045704423L368.18618617153516,240.10838167038582L368.40187828812304,239.81635528913193L367.9837545201772,238.68777106565722L367.9905893095456,238.19057126715234L367.19847106184534,236.8953105604951L366.1996639804456,236.46939880902391L365.3272662956824,236.30043601313446L365.5455739970548,235.23818173986274L366.07450120357134,234.0933866577925L366.56459490683847,234.04114908169322L367.3782995177771,233.25702956355508L367.6252538612316,232.81133660238356L368.1059049454616,232.45450446413724L368.13808007470107,231.65544724395295L368.666488455925,231.03862590842436L369.67126976556756,230.51971526254692L370.0292487633851,230.08882541345156L370.42057338350605,229.1852658068501L370.6737629953677,228.9558436312509L371.3554345158027,227.66136658763935L371.67499605776175,226.7570395556968L372.0258371131695,226.6565116064885L372.3144277614574,226.0827029043212L373.26273559449146,225.85690898954454L373.3843655001783,225.3991747480468L373.2197432356297,224.03116659710486L372.91314632754074,223.4712344925647L373.3718600945249,222.37650981359457L373.64338267074345,222.75638479001918L374.7616732177594,222.87701566292708L375.3034919195361,223.5375634433667L376.04358814643274,223.62586472187104L376.9971784932786,224.04424859321352L377.68159730488514,224.62277423382693L378.09000860180095,225.12612770400483L378.7398759249554,225.22381976887027L379.4507291661539,224.92017552892048L380.3363043283389,224.11208888005694L381.05254332614277,224.84825453734356L381.5468529151567,224.88468887206818L382.6489719174351,223.74749806277214L382.64069302719327,223.39517549924676L382.16239322728507,222.97674885614742Z" fill="#e1b03d"></path>
    <text x="390" y="265" font-size= "3.5" font-weight="500">
      अर्घाखाँची
    </text>
  </g>
</svg>