<svg  viewBox="292 250 150 150"  version="1.1" xmlns="http://www.w3.org/2000/svg" xmlns:xlink="http://www.w3.org/1999/xlink">
  <g>
  <path id="path-0506" d="M382.3548563415661,289.6811711432174L382.71509236348356,289.90063090634794L382.83686634939295,290.78144228903784L383.9508971066043,289.6693817311034L384.2454026952564,289.5143665748192L384.7545678624665,289.73543317749954L384.46145134696235,290.3572703738746L385.0760237113427,290.67948287273157L385.71641590881154,290.65219382156556L385.8723535667923,289.7967974386229L385.7136342052163,289.5195809310753L386.26815290113336,289.3385548329643L386.879757104296,289.517799432886L387.2712891342944,289.4531959802798L387.70403231313685,288.9800040731261L388.82347754323564,288.5156876784895L389.26123300314975,287.6818399672511L390.20175018345253,288.1905893502071L390.29697607375056,286.9615344628919L390.133298498522,286.04064415599896L390.8391375079682,285.9679555041066L391.1989758711279,286.77572462820353L391.36859199649916,287.43434488581715L391.83593098551864,287.91157044454303L392.10491383953376,288.6050817869691L392.81374641645743,288.75176187631223L393.3940685343732,288.6474364199048L393.73167547649064,288.37434331487566L394.2008460476136,288.5481747300837L394.86846901434,289.18802092895476L395.21664525549204,289.1129719403734L395.85933553646646,289.3550729787157L396.22691573765405,290.02850714690794L396.52179774547585,289.4384285369415L396.9866037981192,289.2686062522662L397.5055285520448,288.72088533664646L398.1997640824502,289.0286161685053L398.80322052527845,289.46696096999585L399.1698639422193,289.45426431948545L400.1309151864589,290.1201496429703L402.1317274384364,290.4966263040178L402.798189900479,290.6945410484677L403.6395690656391,290.52730692164187L404.3183862598471,290.72518546520496L405.4433160127064,290.7907880093753L406.3272881787743,290.9467470218897L407.127710757808,290.65198658614736L408.532010900959,291.5106147586066L410.86149045345155,290.5650384413384L411.77559214559005,290.3373837664658L413.3293508699808,290.59288365883367L413.60367245280577,291.04819908966874L413.3934119484238,291.6038043085855L413.66913196225323,292.3742327444106L414.24459645441857,293.2136134030643L414.16687388697756,293.64494377297433L414.43262022128147,293.9568231153289L414.7478455603159,294.9390313553258L414.55641023379394,295.4355736407051L414.80704114203763,295.7921914726703L414.32789161440814,296.2049646677333L414.2894556699521,296.7049748147083L414.60882799741194,297.28315777380976L414.93235934452605,297.4581799413372L415.08304027777194,298.0628888808351L415.52666605486047,298.5172773848726L415.62251974699393,299.49031539637417L415.3760696854097,299.9446777107278L415.68344062752294,300.80945715041344L415.48710371678135,301.1447688459775L416.14339522293085,301.2594268378916L416.0031711741249,301.9455357344568L416.50969251947026,302.02722449740304L416.2603063860679,302.7897958525609L416.93599979657665,302.86708762712806L416.53724234973197,303.74363204209203L416.7499827464635,304.2183998201408L416.3738529323764,305.50271538347806L416.74931966327495,306.072372578421L416.50644692057904,306.49288698295913L416.5019128205422,307.40538692506925L416.7256886306477,307.9585485981297L416.3236558514254,308.3045375022775L416.03631349841635,309.5406795417648L415.8266869414074,309.96622443433625L416.0575602654262,310.61168422264745L415.9891475316781,311.98098137028046L415.577167627569,312.0092998524042L415.27827090675237,312.34952390859326L415.7110196078702,312.8507881557671L415.4870247602703,313.47452165619234L416.28071981813264,314.2962850157355L416.45387778876284,314.94683663526484L416.7424257863877,315.32755213948894L416.7572382878807,315.7986606211671L417.13511412401203,316.1333758425644L417.0295750849018,316.7174243688278L417.14682695911324,317.16455331707675L417.0185340618609,318.3378242429826L417.31868234137255,318.82815197335185L417.3516784314306,319.61733903170625L416.93459719587554,320.39905209012704L416.63288692404785,320.5160290770518L416.1063648004874,321.227274298486L415.94259136514484,321.66296452712595L415.4544094208504,321.8871911499664L415.07068244805305,322.6752554680925L415.09526182297304,323.45756262039504L414.9129491043277,323.82746647430395L414.08012987870643,323.9665439621731L413.8288533642208,325.10888650307334L413.58410368489604,325.31400645139L413.55462428470673,325.79966813665305L413.03172019226804,326.0679371146862L412.59993098232735,326.85499352950046L413.09732977668864,327.06890413956535L412.91495132626187,327.7934122897768L412.5425923538751,328.46093765851856L412.13777453214243,328.8386372438963L412.44449305895614,329.4801697429084L412.9626966589749,329.55177247352276L413.36652331409823,330.14941782282676L413.36735747286,330.46975398001996L414.1261403966437,330.77971732324386L414.04659165694466,331.15036417291776L414.6230770827606,331.3378461478369L414.5304874277499,332.2807613487221L415.26165068166847,333.00446413020563L415.42593624713845,333.6815155304639L416.01607530673573,333.9916253523106L415.91790873532045,334.6046828781091L416.5557596307408,335.46723656094036L416.61801053276577,335.9718921426729L416.8688304361549,336.15387950407967L416.97568853331904,336.14676981559296L417.1850342084872,336.12480595071065L417.2495344885101,336.1885985136023L417.22728742636355,336.24811779357697L417.2231504664742,336.5455085575977L417.3731986784187,336.68339543798265L417.39115086601487,336.81854658038355L417.3714965676827,336.8416244158734L417.1458803377973,336.76874479378057L417.0034697839419,336.71491918797346L416.95864958295533,336.7272990947731L417.119156472083,336.9201781334623L417.32547872358555,337.0230756631827L417.356396462008,337.0731926677827L417.52181258326164,337.1849759963843L417.53676183076095,337.24688415388937L417.3893356841563,337.36951428089924L417.33766211048896,337.5145962429933L417.4106991647095,337.58526872764287L417.6631491578464,337.60987961423234L417.64408343480136,337.64726984963454L417.4112930427309,337.8973680683812L417.2316656994317,338.03967821250535L417.0460225773986,338.82835216390686L417.0802778099387,338.86024241425L417.37940979179984,338.9158068265051L417.23810958625654,339.18491091787473L417.11350531738753,339.16392435084526L416.9240283572817,339.0674383468295L416.77356501579743,339.2160998098316L416.6947298435516,339.203961793708L416.5999261802317,339.20362693743755L416.57876016005866,339.288697213653L416.53559935238627,339.44109135225335L416.64814071871297,339.6684793471486L416.6475316476535,339.85185108335645L416.8520882219964,339.9144409618175L416.99067907017707,339.87682090112867L417.0725309465397,340.06101995786685L417.0789314127196,340.11604819564764L417.0443536386665,340.17605994057703L416.9600206502855,340.23028498936856L416.9193316392466,340.29553189628496L416.8968932263433,340.39753213728454L416.87559507218975,340.47914438452335L416.8077488225681,340.6321032050964L416.7354582635562,340.67889571706473L416.6324061054129,340.67859699829205L416.65193003666354,340.7513114412004L416.6935826631634,340.8598786344619L416.5449313271365,340.9534757229467L416.50684613917656,340.9289818713696L416.4077543125677,340.82593873524456L416.3424785720017,341.0412981791651L416.69465523163854,341.0839902826947L416.5655055709358,341.3491318765955L416.2130886490031,341.29906744476466L416.1448184463188,341.24267127730764L415.9917468062795,341.2296457880648L415.8958846790283,341.7984813289049L415.8451084537519,341.7671196215242L415.6780724972632,341.7143029520812L415.62012882924137,341.70898464625134L415.3835805164672,341.96693553232035L415.518787609868,342.04680454490153L415.5220067267237,342.1235175679267L415.60964471304396,342.2491701502304L415.7131670761628,342.35912928841117L415.52339335725446,342.4542518534299L415.4956467105985,342.48085987750983L415.50526629192063,342.61257712521365L415.5892784957141,342.7491081503267L415.5674829128402,343.21608680853296L415.50991334186256,343.3174031452463L415.0959700323965,343.6695398725251L415.1136081575678,343.6984886309865L415.38907748461133,343.8798753067349L415.3872174487078,343.9349396836833L415.1697691116369,344.05623801779166L415.0897465374892,344.1143292767065L414.97692216992255,344.1769716725421L415.51562270193426,344.34517088465964L415.44001866578947,344.4106103985996L415.55525066379596,344.7038690642121L415.5236878302949,344.8371358057748L415.3790928672188,344.8275322051386L415.3393037972892,344.8620050201316L415.316137115331,345.1967860356863L415.40898991207723,345.5460819418222L415.43415580775945,345.5563476178104L415.5561776344166,345.518823849241L415.65464310414245,345.50831628567266L415.81882202995075,345.59061031685997L416.048005773313,345.7514655864625L415.9191047831464,345.8219728309623L415.85556893665307,345.97837761912706L415.8326732547903,346.02315224843915L415.8363505817979,346.21040221005387L416.03707721322644,346.28080874160605L416.1135581208964,346.23747420169366L416.3869579620132,346.17308851314374L416.52945262881804,346.2303841635576L416.56529337955544,346.299112036786L416.36047107974264,346.8239192672472L416.35455459462173,346.9782580292567L416.362712185437,347.2682162733381L416.2006265670152,347.420840232965L416.2020679368452,347.4537755631791L416.1543459968161,347.6829188660513L416.12249644306394,347.89724523970654L416.0910278973897,347.9312256485673L415.8810728116423,348.1188028201532L415.9073214427881,348.2500035348712L415.8146213959426,348.38922664186885L415.7951969730584,348.5111465485479L415.83456737724373,348.5646854491051L415.72258535490437,348.7339384721208L415.65753590358327,348.84655355586347L415.64948127570096,348.94588803253555L415.63303402079873,349.042208857044L415.5934250472892,349.07668167012616L415.4908892962394,349.08375527288354L415.1584644830382,349.1029472389082L414.86955402220883,349.27102606760127L414.7987751053224,349.25149158867134L414.75071380291047,349.3016097130203L414.793774143076,349.5766306919959L414.7405986527556,350.337698603802L414.74990774200705,350.5643556445275L414.7821257895739,350.8177760874196L414.74945692661277,350.8708357233436L414.55558956253117,350.9998062337836L414.59195963669845,351.12704448007753L414.68138291579817,351.0450470414089L414.7610843691473,351.15904089499054L414.70002147169544,351.2933406643051L415.10391541199897,351.62268847937594L415.1640941670503,351.7333206335579L414.97166754045975,351.85968559362846L415.18698645769837,352.1744835202335L415.23309359183986,352.28780545372683L415.26379423520666,352.2828701210292L415.3966421347486,352.02896706415686L415.4381127074921,352.0274295759873L416.39528350270666,352.5448841140351L416.4326497676666,352.65219063673976L416.5622499273122,352.7386035821446L416.77537061424846,352.99491517674596L416.821500156233,353.01763187370307L417.0621100299122,352.94694294471356L416.97145348053346,353.22098124072454L417.31981776513203,353.5840456536416L417.335295104891,353.6351114403269L417.1416815870052,353.860726737782L416.97675973927835,353.8625061095627L416.85741371145195,353.8068190725062L416.5594287429358,354.1131952945898L416.39967172139404,354.2285373198001L416.16141316914036,354.18867725850214L416.052083693201,354.30762068843615L416.1224913700298,354.3813670274476L416.16128541406033,354.43230040782873L415.7742488413187,354.7912087513332L415.83525016161,355.2473439080295L415.3293635105929,355.75864747182004L415.49933245172724,356.0021841754269L415.39796128460694,356.0066522293173L415.3277460508616,355.9519971041309L414.5925762493025,356.11346633938047L413.34080007836747,354.8712100466073L411.2480056618515,351.8231405900142L410.55310695792105,350.691413434919L408.99101538512514,349.08964633691176L406.6133685052846,348.9059358592376L405.3425415434631,348.5398346404245L404.5002693529823,348.4703136367243L402.7017387169399,348.54921326286603L401.22635307080054,348.6791503204395L396.33759367030143,348.9314631272091L394.50089547010066,349.0783471515997L387.2774052957793,349.4023265143569L386.0323798468835,349.68242044848375L382.96472456106676,349.9185459689443L379.45602100751785,350.155482058678L376.71329005325424,349.2053780996339L372.66661504399417,348.38672146465706L370.2510337493459,347.85541892115634L366.4827933831675,347.1982171675736L364.1007433914092,346.49210342002334L362.28274254161624,344.74292916355444L361.28504722402613,341.9975664366357L359.340002775416,340.1073711701638L356.2415584609571,340.07547533018806L349.8043450750647,340.59076293235375L347.98895642690877,340.60066979973635L345.7986623408651,340.53877965059564L343.8997181566574,340.4304541935953L340.80490396651294,339.9365267121184L334.8429791841154,341.0010458351271L331.64963578963216,340.2957594424752L327.9043135340271,340.1535992795516L322.1343738511987,339.84521711306024L322.0177530238125,339.7686857634817L322.0438845400113,338.6800661145926L322.40156447665504,338.281511175569L322.4213399486216,337.6246651774245L322.2114613748108,337.376050050525L322.32407392276764,336.86571282209934L322.69787119106695,336.73228535701037L323.35561517360475,336.8359932613903L323.6216840835277,336.371953120326L324.17789774637095,336.29975911455585L324.7633304873907,335.9468638693943L324.57548725912966,335.196089562206L324.3291267919176,335.2945387468171L323.75676147692866,334.5038942942083L323.5285414114933,333.81980770856626L323.72206911015564,333.48950309911106L323.28851975767793,333.1843858646116L323.0782960759425,331.7216778291004L322.5413222299085,331.40622394513775L322.6039939764214,330.5717090630387L323.1452199590058,330.2967642065687L323.44084977426064,329.8810160337798L324.20804266286723,329.8298794974562L324.24584698886065,329.5829059586649L323.73108212254374,329.08692577720467L323.7061702649553,328.4902957866152L324.703584046616,328.1804882044362L325.140830188604,327.71969964379696L325.0612810618477,327.3832031505717L324.4399778941024,326.6389306502233L324.69542031218225,326.1364320956345L324.6197490412942,325.78516688155105L325.0641542959256,325.51112387835474L325.0271292676898,324.9978229942799L325.32946116547646,324.0298344831908L325.8807246569668,323.7591880071768L325.78559869080345,323.1709879485452L324.81831309566223,322.30889504618153L323.888365754643,322.0203784042387L323.98095560404363,321.0620584690578L323.4052643157229,320.26194059376667L322.18116188033855,319.571323907473L321.96261364713064,319.26817291923544L322.2249145624937,318.92684492247463L321.8985419744313,318.29698359937447L322.01802649189995,318.0345198654022L321.65404144124295,317.6369114193958L322.0191568235623,316.74589929466947L321.9362462827321,316.43370514328853L322.2842249304813,316.04001323280136L321.7620036536264,315.522480558815L322.41585036105243,315.2174445012579L322.00151146164717,314.2169388042985L322.4593170584776,314.0060166907315L322.5258365967966,313.5047935184666L322.1694583956196,312.80153354379763L321.6607072294646,312.90630203546243L321.2175739715003,312.4439646931605L320.7422470267502,312.4344616383323L320.7667674744898,311.9201753812531L321.293311133908,311.7467383343719L321.14709602672156,311.08231828527823L320.4834961408069,310.46945160738323L320.17345350060714,309.90059791636213L319.853308816193,309.76224509095664L319.2781896175911,310.103025038763L318.99763144717326,310.0202282827968L319.0648906377064,309.24463204910535L317.7789743535068,308.99994605183474L317.5147639010429,308.6175011666928L318.219805882487,308.28024951527277L318.2219717300941,307.85676088342643L317.7966939722246,307.49619505585724L318.3283380073299,307.1852532283838L318.38600844527355,306.66806083118354L318.0001239161429,306.29498312245505L318.10592466430717,305.55327027057683L318.7717017545401,304.3217822290062L318.2737641474214,303.48249640091217L317.3333910016245,302.94901215806476L316.6216640938037,302.05584164376705L316.26653695774075,300.7965713459471L316.4179742290871,299.34531341265483L316.7276813273511,298.56788883435274L316.79533520801306,297.70646628061695L316.8210313303189,297.1379922562255L316.44703369602576,296.78867636195355L316.5330883384904,296.3162939131489L316.38822104632163,295.830046500997L316.4500774775079,295.06749007174676L315.99820033715514,294.4233061845307L315.9151743289585,293.6850900405343L315.4274846177177,293.2089933075322L315.5907577191592,292.30116223412733L315.1773688726662,292.079661912996L315.0891016713067,291.667437183758L314.59930098514087,291.3162017701716L314.5091267868538,291.02145401826783L315.18850963732984,290.623242965029L315.8521119813631,290.6902571721421L316.48345953355783,290.455918953081L317.2107666592019,290.4140163544171L317.580418378966,290.7893875795662L318.2029581842453,290.8451517416661L318.74352424531935,290.60608398768636L319.4470378020196,290.75821559110955L319.8256607718795,290.5795935402193L319.83914615924004,290.00778174703646L320.2606864269019,289.48117086395996L321.23874345674085,289.06171520229964L321.3917040202432,288.21859025383037L321.30159458864546,287.5077262850973L322.0944061873379,287.2837478994734L323.36069712780954,287.1538622014532L326.06531099521635,287.02839923042757L327.7988042933903,287.13074735078953L329.16597446457854,287.0184505427287L330.2426501187292,287.11163434428636L330.9334806016723,287.02404537927396L331.14878433507147,287.1695197828021L331.3518975395018,288.4645730783168L331.7303120855995,288.03993861029994L332.5901005854121,288.0692479137688L334.05299479242603,287.72317253481197L334.3579657692517,287.3221809545521L334.90349497910756,287.33783058221616L335.26380494741716,286.98666747973857L335.45689656426293,286.44536309454725L335.48445834397535,286.14734779841456L335.1820597796559,285.35027616791103L335.1353131389769,285.0537747927183L335.1380018348991,285.009985054342L335.2141278200379,284.5849825568639L335.56264900396855,284.32754663114156L335.49491319986555,283.93196339634414L335.43613968392674,283.8449251273323L335.6752583007019,283.64347958042254L335.92206522070774,283.67689176765816L336.84537218251717,283.9285586676706L337.37774777114464,283.5763725770603L337.4467964991636,283.5276710351536L337.61092573267706,283.5219293875916L338.6765132818946,283.9523312083329L339.23694489658556,284.09882140609534L339.779340712721,284.13236155993127L340.1884257347756,284.0387369276241L340.49556726606534,284.17268327808506L340.8253304474183,284.3826939585406L341.7436986448138,284.400967924008L341.84247684570437,284.4257130750366L342.3855707244202,284.55464920395025L342.56530787612974,284.5158639411793L342.6216654468262,284.45297024326646L342.88671560529656,284.1053025005458L342.9993583867308,283.9613244289667L343.8511060108649,284.1891463011234L344.2768812246377,284.15829427091376L344.8017231870781,284.17430436662926L345.1408734061424,284.26598545912657L345.20137515350143,284.31230780572423L345.24694045971955,284.34095598647946L345.708484795834,284.4038905027155L346.1204191355482,284.52401527598977L346.5356634172804,284.4248072664659L346.75708425520133,284.21536525332795L346.84740845397573,284.1604437599981L347.0034073613224,284.0464706922912L347.24195262361354,284.0133159106899L347.6250712849269,284.13369323007464L347.90491986385496,284.1478696532449L348.62061612871184,284.0735480607309L348.8343431071935,283.99638779399083L349.2208921482852,283.91868480015455L349.529616840131,283.95519392665574L349.6532973219437,284.0209307870455L350.690760865813,284.18071811227037L351.46902739899633,284.34478355897045L351.7487550762671,284.3113400278917L352.08196005437276,284.2887140998955L352.156184049436,284.26557548317487L352.27909342294697,284.1787748204297L352.4968903575282,284.0868698377917L352.54199800290917,284.03537098090965L352.8913862434583,283.92508137080677L353.2207142137813,283.96492816346745L353.2535878512699,283.9503631556645L353.73108879497886,284.0080983794105L354.0892926802153,284.05900325839866L354.41177269233776,284.5388604143227L354.5683994380088,284.62302763087973L355.0237285519379,284.92065196917974L355.9075305130318,284.9760881684706L356.3912465110334,284.7859018648642L357.0009378009181,285.4291228634065L357.3708507103547,285.6251807140461L357.77911496859633,285.2903945076723L358.53144086142856,285.0868885840746L359.4199836499265,285.70848099515297L360.3221874418614,285.52510869209436L360.81142096016083,285.0220065570629L361.14049558278566,284.9995368222744L361.74875170258747,284.60477251926386L362.3041977395187,284.5857816043672L363.1920634569742,284.2591294707663L363.8553814991883,284.54797374554073L364.3851391024182,284.1625279819609L364.8292710288315,284.05254927282476L365.33406470380396,283.5424827524448L365.8116382211447,283.6229833035686L366.75508318092216,284.0398308026679L367.7625950171314,283.7791916244296L369.2569327481342,284.0156134819408L369.64383865721356,283.75097262912004L371.21544187881045,284.1859059140943L371.6864569738573,284.1079255463601L372.2086326016979,284.0716088920817L372.51301818069624,283.8392442161794L372.94030076818854,283.50021920268136L373.45318934584793,283.12678078412046L373.6628694109186,283.0095410162885L373.76382774223384,282.74916675727854L374.018777051353,282.2159181567231L374.5638270617528,281.61384107419326L374.92483419434575,280.6364142550683L374.9460241453635,280.54740571003276L375.28805889251635,280.12884720834245L375.3442487874927,280.0898715393032L375.84096279092046,279.6181916783253L375.9005382039286,279.56098926269715L376.30305290492106,279.3127859037804L376.5089556464627,278.788147051353L376.6551942565202,278.7320600696339L376.70461496137796,278.8331226951068L376.7072095479507,278.89900533031323L376.7467139760138,279.0629970337459L376.68898007668577,279.37333200792364L376.6475953366771,279.4737475330194L376.5663615185331,279.60869588959304L376.4815019199432,279.75451067569156L376.30472348202966,280.079988215728L376.2243545196161,280.23659727485483L376.1275366200498,280.39420315076495L376.04543793601806,280.50704654441324L375.97228627506956,280.7407647643904L375.9950756433991,280.79478415242556L376.353184147878,280.8819622835563L376.7294713191968,281.0123535240873L376.8337606215209,281.0419734422794L376.78727542383604,281.94647703785085L377.06806321625663,282.78494927064L377.20901198400315,283.0115082780867L378.8285225054351,283.507676728801L379.30309216191745,284.1415221227626L379.1714559907814,285.0115306923717L379.2256678388967,285.81650647306105L379.90224872163344,286.52004994949766L381.8855594755332,287.8084023309548L382.5035776772711,289.4768450953079Z" fill="#FF7B46"></path>
              <text x="362" y="318" font-size= "4" font-weight="500">
    कपिलवस्तु
  </text>
    </g>
</svg>