<svg  viewBox="268 150 150 150"  version="1.1" xmlns="http://www.w3.org/2000/svg" xmlns:xlink="http://www.w3.org/1999/xlink">
  <g>
    <path id="path-0509" d="M364.1918408923066,175.0801366497517L364.6820576903192,175.20511092029483L365.4483854348564,175.1563513943047L366.61904128984315,175.56136812374007L367.4892582097873,175.3311567265455L368.5432846702297,175.18887024524975L369.0597941084998,175.22271070131956L369.6089453931927,175.69969449293058L370.7732556307219,176.42221344113204L371.6376357717745,176.7599470852374L372.34118951698474,177.81100924925158L372.45768642169605,178.3341543016213L373.0965178392962,179.65095721076796L373.53354275763195,180.26885724115073L374.1670211708024,180.3764912844781L374.8642843795551,180.1620715868803L375.5077185075952,180.3953711637705L375.8903379400472,180.79916243769821L375.95263420185984,181.14845834705102L376.39143460385094,181.6845063651126L377.50894445660197,181.80477687960047L378.54663791527673,182.08905269489787L379.38180697171447,182.46714241658083L380.58398272198974,182.36027452165035L381.2438891867805,181.90313301517017L382.10463343258016,182.3504909754447L382.73674083250444,182.9875514488731L384.1555214152286,183.2642213153713L384.6463716205744,183.22529944652342L385.26633982653584,183.8291366138992L386.11267957925156,184.45703264006988L386.1006168427393,185.97451863494825L386.40054854875416,186.44360539429545L387.5057020420754,187.12482098280725L388.0904776176576,188.30066209668348L388.4527750397665,188.32206544387827L389.1817938708082,188.66910647833447L389.66799901094055,189.36280628671193L390.1312873892821,190.25821271308268L390.79443279171574,190.95335083082136L391.5062046046951,190.99197925428325L391.6177818263168,191.6756345684389L391.2284870680214,192.60097481717003L391.2441580570576,193.39014939793105L391.1191131549076,194.2144946300141L390.86404695884085,194.8984073758793L390.03852510220895,196.16170409843926L389.8945040232502,196.6671786074412L389.2396851471749,196.95545306646818L388.75882230105526,197.53990272450937L387.83513349590976,199.3769333368282L387.52924217569125,199.325247408804L386.47878461893924,198.32854592637887L385.02772623975034,197.82700858225962L382.6839488413116,197.4621721806716L381.11903151975457,197.56064031923324L380.393641875482,198.0472600718549L379.9583102729357,198.111011683578L378.85991330016986,197.91419596269498L377.695902515492,198.47855556129707L377.59219829024914,198.92745229730735L378.09815302764946,198.90347901082987L378.3345770795386,199.75261361157118L378.015816913643,201.13664584532853L378.1649165526451,201.93570033626565L378.60531775460913,202.68674651678248L378.8966014927737,203.637784122614L379.44003612867164,204.68500654668696L379.7373819578297,205.56971717997203L379.63163301018903,206.48065695760852L380.0499586120277,207.47372943138362L379.8318801795813,208.58397572109152L379.3346146675358,209.73781156712266L379.26018873057,210.53844222134103L378.5505571404501,210.67134629427437L378.85208797488485,211.2669033079501L379.5700427548636,211.94101646209128L380.3772674050706,212.02636300723043L380.9261544606961,211.83266956633815L380.88553417489857,212.37257882713675L379.9691924548388,213.51459374629212L379.9803308620194,213.9743912835129L380.28495418131934,214.28346022622281L382.24241518844065,214.95418172498103L382.6599254695939,215.34830694929315L383.13919213545523,215.455522999795L383.1231830272991,215.8738966355022L383.55444454791177,216.47469889849162L383.5818198526631,217.15803133905501L382.6828017945845,216.88338306204423L382.4016644450676,217.3014242880172L382.7962503417657,217.479867331459L383.0713967743777,218.40248460373095L383.8307246096265,218.99451705500633L384.1333559302275,219.36258864807405L384.2454473311409,219.93655974227022L383.5922826099013,220.7420375581396L383.0657088849366,221.22418790104257L383.2603624747717,222.0892806016236L382.69169857896304,222.83265678608132L382.16239322728507,222.97674885614742L382.64069302719327,223.39517549924676L382.6489719174351,223.74749806277214L381.5468529151567,224.88468887206818L381.05254332614277,224.84825453734356L380.3363043283389,224.11208888005694L379.4507291661539,224.92017552892048L378.7398759249554,225.22381976887027L378.09000860180095,225.12612770400483L377.68159730488514,224.62277423382693L376.9971784932786,224.04424859321352L376.04358814643274,223.62586472187104L375.3034919195361,223.5375634433667L374.7616732177594,222.87701566292708L373.64338267074345,222.75638479001918L373.3718600945249,222.37650981359457L372.91314632754074,223.4712344925647L373.2197432356297,224.03116659710486L373.3843655001783,225.3991747480468L373.26273559449146,225.85690898954454L372.3144277614574,226.0827029043212L372.0258371131695,226.6565116064885L371.67499605776175,226.7570395556968L371.3554345158027,227.66136658763935L370.6737629953677,228.9558436312509L370.42057338350605,229.1852658068501L370.0292487633851,230.08882541345156L369.67126976556756,230.51971526254692L368.666488455925,231.03862590842436L368.13808007470107,231.65544724395295L368.1059049454616,232.45450446413724L367.6252538612316,232.81133660238356L367.3782995177771,233.25702956355508L366.56459490683847,234.04114908169322L366.07450120357134,234.0933866577925L365.5455739970548,235.23818173986274L365.3272662956824,236.30043601313446L366.1996639804456,236.46939880902391L367.19847106184534,236.8953105604951L367.9905893095456,238.19057126715234L367.9837545201772,238.68777106565722L368.40187828812304,239.81635528913193L368.18618617153516,240.10838167038582L368.33659846591945,240.46787045704423L367.9473540076724,240.87646368246897L368.00206584314765,241.43735999129876L367.5075417878743,241.49436442437946L367.49737889243625,241.8641575292204L367.8167608085041,242.9865475401948L367.4698833906423,243.1720492778195L366.80326718044125,243.089053998071L366.7999407937368,243.72623188982652L366.2861779939449,243.54501682131286L365.8547463757368,244.16633945461217L365.2417342215904,244.46788102724167L364.1145415029878,244.72565216952898L363.7400579073019,245.40553235267635L363.92119240736247,245.6256309361279L364.63644859195665,245.7927108794429L365.1709670200853,245.76915752000878L366.3000030522817,246.5330297808332L366.65487577707427,245.61883237931215L366.9165683917108,245.51935031571884L368.04509361992496,245.91834048390865L368.37672301937346,246.41736059642153L368.09760335329156,246.87585355612282L368.23659842550296,247.29092313457022L369.16144166309823,247.51290832446193L369.4168503378205,247.83045503893572L369.94297588971676,247.78885519824962L370.344933901275,247.971836885421L370.61830913320773,248.55583168833073L371.1174260580374,248.8525427357281L371.777365373222,248.8633157308168L372.51236064419027,248.37856890744388L372.8481519802008,248.6353228146172L372.7370970743177,248.94343717702486L373.2719722825059,250.0660523375209L374.29118862996984,250.38376835540475L374.6993090593296,250.73668567013738L374.8867523974459,251.2567681979017L376.0794325466086,252.5433542924202L375.9823927620055,253.0464028561655L376.22903815964855,253.44600585743865L375.6785952211376,253.92673974184436L376.27869080178607,254.42827756442057L375.3713748213795,255.4212851079974L375.93942337666886,256.503856357368L375.4030676495677,257.1834387377985L375.94493806029277,258.0486228007667L375.6386228056308,259.13485657705405L375.1922272994252,259.5506909140104L374.75492562422187,259.56900783964466L374.6123575156016,258.75819803477043L374.1851806690265,258.29140613653817L373.7844457143783,257.3498312491065L373.2831821842392,257.86795437797264L372.5124832602305,257.2264167864232L371.38124801461345,257.6962924873369L371.15976761622005,257.92763537035626L371.11457280107606,258.4745449500797L370.44438124844964,258.5410134089461L370.0576734342558,257.79400049613105L369.7957251117041,257.6953783166018L368.47680807771394,258.4090477080963L367.7896798674665,258.058739823261L367.31942050040925,258.08998878667717L366.8849343019956,258.4404205474648L365.6491295239739,257.9794274329279L365.36922822075576,258.3729262847082L364.1571761050127,258.1207353558211L363.8590713489739,257.7550169437782L362.7985067249083,257.56111808443984L361.94233211373466,257.52303177738577L361.6143969456625,258.15663618992676L360.9314005335327,258.56499341755807L359.2837399035616,259.015953193988L358.97596544035696,259.74782298311766L358.6578102130261,260.0801584683277L358.54228747144043,260.98651195093953L357.92589145393504,261.4043898202726L357.40834713542245,261.9294411923338L357.16934330815275,262.50561465633837L356.7053300224925,262.68784009851606L355.77929946562836,262.5417153339449L354.9579465896786,261.9851642538915L354.33584870245613,261.7972507027216L353.8671385874277,261.85125295987746L353.4512808839718,261.20962627450626L352.77876316354195,260.7737679330967L351.88830522606986,261.1480400284063L351.67120383315523,261.86670078128464L351.164955041917,262.24483375917316L350.18302302829034,262.1517929040874L349.4234363748492,263.20731892023196L348.70160103175476,263.06497348510675L348.2380643971119,262.3661699055683L347.6149015672272,261.7050826932418L347.297819865189,261.6400809832776L346.50301726755424,261.9742962074952L346.26595017734144,262.76034076842916L345.87277272600295,262.78916317408584L344.9602361306843,262.56268702402303L344.3349763318911,262.8145075215343L343.9418530148505,263.18837639408684L343.53514461804843,263.24075680723035L342.6291945496432,262.72779244530375L341.9221161651403,262.6366568324138L341.3096441491307,262.25606605000394L340.54669037588974,262.33534721040087L339.94158329726633,262.23342784223496L339.1320336711742,262.39765949369666L338.9343688382123,263.0052787878885L338.4274128277775,263.45041104719166L338.4151653024164,264.0815855829205L337.27450820956983,265.4206992468253L336.94878734650047,266.3501932053514L336.04383356712606,267.18325463778L335.6503700762387,267.33229156544985L335.4671099188763,267.7620983267643L335.09153001947925,267.56251042947497L334.55558392210696,267.65082970614094L333.9519667118202,266.9274856373422L333.3831983249529,267.21852032011157L332.74748711975553,267.14649889058273L332.75298952470075,266.658400400599L332.4909403382626,265.6022763193969L332.09442236409996,265.4770363396701L331.9787302498171,264.9566405883261L331.18705855432563,265.1326508649545L330.64314286715125,264.0122810147641L330.2047739086356,264.1019797353056L330.1053455045203,264.6533206271297L329.49981762461175,264.51782953155725L329.56838163858447,263.53464367784545L329.108352998388,262.9479738293794L328.8464073272917,262.31490600910456L328.988908940024,260.0463889836474L328.57104562972745,259.367912700367L329.7946882793731,258.5079271173572L328.90077118979934,257.4461805844712L328.64541847350847,256.89108644775115L328.18851697737773,256.61300964408747L327.78331215178514,256.13858092027385L327.6290419239813,255.55440432191608L327.21764590279236,255.31668256479134L326.2755127860346,255.05992501100354L325.89592213766264,254.8258289385849L325.5736874323193,255.31504843767743L325.1715136089533,255.14402568218975L325.1681571448262,254.76698051745734L325.47395758881794,254.4300345870406L326.4372875679637,252.94639476902557L327.12609293710557,252.41401685852452L327.4472691783267,251.8186310911933L327.9685017049396,251.4186691941395L327.98029968969604,250.48715052931766L327.8636655458977,250.33475874719898L326.69714347023,250.14023684704443L326.78551243943,249.51055020222066L327.29610016624974,248.7140918494615L326.20583223485846,248.55619037623728L325.6782081178626,248.72219509894967L324.6405578934209,248.8521017301091L324.1844829361107,249.14491184514918L323.89349725984175,248.72671054767943L323.92495061132104,247.83271364762913L323.29144449098203,246.84120478735622L323.03913790034494,246.08504069955507L322.02932604488706,245.9426031681478L320.97552715495294,245.39668154920673L319.3692787110849,243.8837803537872L317.67956089175277,243.7335476718763L316.24682263172326,243.1150847507506L315.71260728272136,242.617796450676L315.2858197490459,242.4259298199422L314.63668553555,241.6809618292118L314.38944906851975,241.11381257665107L314.27621055449345,240.15271038651372L314.6176471601684,239.8621111954344L314.57992421412564,239.26999640177928L315.39473980905314,238.15664404698146L315.5477541681739,237.6533066860602L315.91855937543005,237.39884828585036L316.8065493326758,237.33935306332114L317.19746755190863,236.52216030483942L317.7164162162335,235.9776937383649L318.77326720127166,235.30556081398663L317.9173875193228,234.95728442524342L317.17839949468726,234.38649189623357L316.133765359029,234.049576790866L315.24160880677846,234.08922443238498L314.45451255388434,234.30776353766487L313.5154081552537,234.2161508338022L313.29714684941973,234.52292179261713L312.51900268356076,234.47010160389618L310.88892331559146,233.745066950607L310.07565966177026,233.6696980156912L309.4437449150937,233.04173846216054L309.0687019819434,233.3283877818876L308.44104246866846,232.97953186687027L308.01046545877944,233.04612888966676L307.64457348738506,232.76364427614953L306.86736633825967,232.73830817621365L306.3271328039864,232.07224900798155L305.78511062827056,232.10705292192142L305.2989000142152,231.7555775102819L304.30307233939675,231.40957235722817L303.688811413178,231.01952009171964L302.361401032942,230.76530135049688L301.5753684032916,230.69989785719372L301.1794922686622,230.87981684677015L300.80273628737996,230.70415903268258L300.93719138771667,230.36129609349337L300.79796686534246,229.85993197989137L300.3178921743511,229.54057531973285L299.8524960455743,228.91248139327672L299.6503205562385,228.36929762963155L299.1274620223612,227.78904055673956L298.44018885824516,227.36691849547242L298.1023854186733,226.69856320542112L297.5756664744222,226.44170384618792L296.11933148179196,226.26885858933383L296.4354759311336,225.6155390948843L296.8959190967562,225.20431558195833L297.29909957547534,224.59129051655418L297.3281798398293,223.93396464083162L297.19655284726105,223.28433750286513L297.3780095242546,222.71560948279694L297.31649716834363,221.86763706942475L297.45674789001714,221.32490486752977L297.0739525025383,220.45853011167583L297.0456549752216,219.88197641182978L296.8194468522033,219.59086883402415L296.8604891800587,219.13667793193235L296.14463369624355,219.00962932599487L295.8592804658929,218.664526905377L294.73019952593495,218.03856745364828L294.5379816717468,217.73499610125418L293.8193124818499,217.3696678088072L293.8329799257208,216.91533321088627L294.1264509871289,215.97661872464414L294.6181628166687,215.77609434961505L296.030635273366,215.8019259714738L296.58177475839875,215.33690967947769L296.8540117785051,215.39350710094186L297.3879843794439,215.06778472122915L298.03953268894657,213.82166102356314L298.41648169984546,212.00970935911482L298.63596596502975,211.60876722802277L299.0008060661512,211.48026282650608L299.75767116877796,210.6634614129407L300.3073187461323,210.70473399517869L300.81058910491083,210.29271743536538L300.767445292553,210.046117441575L302.2452016098505,209.64125555965802L302.8877067645699,209.6309445993993L303.71316391375694,209.4237996850925L304.2682911160082,209.04904024065218L305.37938081658467,208.6865562700259L305.6088438934257,208.36531672600086L306.13251947207755,208.3003393508243L307.16430046606547,207.6227797286474L308.01316135604975,207.5862905301019L308.56145865152394,207.99136441686824L309.0541675580953,207.82274269237496L309.47845986525317,207.46235747886567L309.9638507868767,207.63187812182423L311.1549056105632,207.36248358306693L311.8727887631612,207.4088687840249L311.7847744766259,208.39916267139597L312.41673707948394,208.34195232484944L312.8116136969966,207.32270518424957L313.1922728583704,206.88261783483813L313.45912421940557,205.8841086435059L314.5578765315895,205.1468010093604L314.51705178996417,204.3284977762978L314.7459702386768,203.7650642228682L315.4461470370625,203.99588979474902L316.17766363419105,204.38162976022159L317.6165667722107,203.97581972954322L320.2673379551088,204.30682878053995L320.6318137463022,204.6219964845377L321.49422668047373,204.39814917368494L321.6542396746063,204.5097883960634L321.9489219827519,205.52425911750652L322.15776671142885,205.70220053514186L323.1032586023339,205.80226598606623L323.3835582387783,206.20752369482943L324.09432670881324,206.54338669113622L323.9593597561907,207.12886388834613L324.6988678985672,207.24257221752123L325.3455474945458,207.68872078070217L325.6045112702668,208.07903002777311L326.06028829396746,209.26719237658472L326.4061802395772,209.70785794067524L326.9531481616468,209.6231526132351L327.6371862708711,209.7430933695823L328.3841326356378,209.5292014822062L329.91268917574416,209.82754301590285L330.63094938996073,210.14272977806013L331.88942501616293,210.1016360363583L332.27847102248234,209.34274955922865L333.1333725863151,208.03757219870386L334.5704770839857,208.42930574043112L336.80728096105304,208.40114180524142L337.39425143562767,208.13730283673976L338.0263544035679,207.20086481127692L339.2751824340885,206.13606283699755L339.35605424988535,205.90391756785357L339.22056436920684,204.77734685263385L337.6354353123752,203.2666913238627L337.8272105755823,202.98679249795168L338.7485502798336,202.691490372079L340.1082651978413,201.99718810140894L340.4642998426971,201.60970387355337L341.4972427803459,200.78868389121908L341.53568022232866,200.37358794783268L341.9238543512329,199.875758562569L343.3023785871701,199.57760429270093L344.14727831938217,199.59433017994252L344.51861796992307,199.02342617700742L344.6177691753819,198.42839186766196L344.06727662502817,196.80555206813005L344.06059119702877,196.26168126197445L343.7575769344112,195.2899197496272L343.83422289825285,195.08382982786225L344.7027374689169,194.990714965179L345.2074512510444,194.73252044459514L346.16365205951297,194.78130353711003L346.7583893230167,194.44173602664978L347.77819770746464,193.65834627032655L348.40371219370354,193.5678043336493L348.7689192551188,193.15131095856577L349.35510719755985,192.77506205264308L349.64103148556023,192.82038458007173L350.4820056038425,192.20281456706562L351.1669847682406,191.2463240389352L351.51699518334135,191.03066062911694L351.56766780602265,189.32043715744658L351.140686036073,188.34699646178706L351.3216649692549,187.93421587721969L351.7927104500104,187.56759824663732L352.5815163364223,187.62275940274412L353.0366619151864,187.07644463530505L353.73769152419845,186.6594782167167L354.0502178747374,185.13784563844183L354.5080388479928,184.47885677335125L355.0573940360773,184.28590784613698L356.0361910472784,183.67044909928336L356.4601926994237,183.1812162387896L357.1595932294622,182.97542964537297L357.59263546722286,182.4683541931563L358.01559901718247,181.01439173680956L358.4932770773448,180.26341665752443L358.42831136486166,179.69182246913897L358.7199205587167,178.73775097241924L358.51249956484935,178.28560484614445L358.76295006384134,177.9741746998834L358.9275111513725,177.29372143225828L359.9102599317557,176.77111305069957L360.5625495025997,176.05392329829465L361.53553443243436,174.73396359765866L362.6263252792869,174.61456204153274L363.6900512762222,175.03588586821843Z" fill="#FF7B46"></path>
    <text x="340" y="228" font-size= "4" font-weight="500">
      प्यूठान
    </text>
  </g>
</svg>