<svg  viewBox="-20 88 180 180"  version="1.1" xmlns="http://www.w3.org/2000/svg" xmlns:xlink="http://www.w3.org/1999/xlink">
  <g>
<path id="path-0503" d="M130.04321453912962,183.69382298271375L129.45884295624637,183.55890757665566L127.89773040367072,183.50981918187426L127.31983356982164,182.84793900602654L126.76477423926917,182.97287942724324L126.3895552293161,182.77715767008067L125.95691396514303,182.15637567696376L125.25469680320748,181.92514137891976L124.77421579402835,180.957380769265L124.34657743475327,180.82816665288556L123.72240699765644,180.1362094720489L123.08305687334905,179.95824955955868L122.57633482283381,180.02413875075854L121.0820688408221,179.62644925733184L120.3957477638287,179.36076656763908L119.11289250643858,179.68029040537567L118.4443819821281,179.70817943098518L118.18361568780529,179.90670710333052L118.50160358573521,180.3425822759782L119.3563799782496,180.11754735455088L119.65512271083753,180.63049592205425L120.13040931891737,180.42178349131336L120.30119873226067,180.94407519638116L120.04291143250339,181.4828341283992L120.2896637587819,181.86463055523382L119.8169921142744,182.64853987353763L119.51391611388863,183.64695263588146L118.90048374723119,183.9321396561245L118.96970204127683,183.25153208789834L119.30974493803114,182.90518479596176L119.42655847844435,182.3093702801243L119.27869164878211,181.9154934903463L118.65894615011894,182.33848530926662L118.30822587650619,183.1923580198145L117.83504863322742,183.8973931410892L117.81901888745415,184.55830848456935L117.57913867690331,185.16437861060786L117.09558596018542,185.75928536143238L115.84316861952175,189.06599058957363L115.21998426478604,188.46480650539797L114.17021963706065,187.82520544767067L113.61435896095281,188.13765967661675L113.47068812011094,188.81358547814762L112.90448277049654,189.425519268264L112.75454269047987,189.99087238306038L111.80363615374517,190.58628947651414L112.5851324226951,190.8218573553786L112.65587518775646,190.84300082533446L112.6998487117562,191.1847564532236L112.4291788392602,191.49427727104467L112.41349905316929,191.53840332267646L112.47750749918305,191.64055833608018L112.56495151419585,191.67261598363802L112.68211238471304,191.74815071523153L112.70798733984884,191.80289044664005L112.75274582681413,192.4194630540669L112.96739014845116,192.6471616623303L113.06041864285908,192.7667985419439L112.9315230481061,193.1545553593014L112.7456619870427,193.14674118666608L112.57050921824157,193.04666482779612L112.13777076565202,193.07972579342004L112.14139988425632,193.27045747770444L112.11741153508228,193.3115218436733L111.67038241016235,193.89544168884004L111.01659337005731,194.01678122386875L110.52568655450887,194.24553357430432L110.42467754449535,194.35732036531772L109.84172779335859,194.52844014183847L109.8043273658368,194.52133246135782L109.53421874837295,194.64665336506368L109.37458125192643,194.7191659057562L108.8972549449536,195.01692249939606L108.83616651587909,195.06215378521938L108.50537798973528,195.25092063819739L108.3785299731644,195.30365716962842L108.15207702655425,196.1556431966019L108.07927119619671,196.25934888872052L107.90924945611914,196.41677530608013L107.79425158921003,196.45223356231327L107.64581532534066,196.47323578144915L107.4470231835312,196.46192772244285L106.93285514523632,196.412357317864L106.31807430985464,196.4746337310844L106.0397470488897,196.95406617889967L106.01617916808209,197.00987517658996L105.97157801929825,197.92642068083205L105.95175871100037,198.13654403124292L105.62538245721953,198.68340860525404L104.95392259698383,198.97473192395228L104.33970358819715,198.8866442340668L104.25679840950397,198.87715974590355L103.4584425238354,199.2225883895544L103.15905881461731,199.15409211807582L102.78362817416019,198.498825083273L102.614939998919,198.70788172449738L102.37177540103403,198.91834414800633L102.20237847688986,199.10529584870346L102.13667912077653,199.12495220946676L101.79720366136462,198.93580977539477L101.85464880770269,198.56719309384698L102.08327206259128,198.26865926512437L101.61794877109605,198.35421537470665L101.39774220035179,198.65971317399817L101.2688305891752,198.80567233815236L101.15466171183289,198.87410189440106L100.88893553648086,199.00386533093206L100.63924059870078,199.2880029960761L100.49354658655284,199.59946733200923L100.47140838240921,199.71034056859753L100.48440269534149,199.90891272937915L100.50606317065103,199.95235389961726L100.68034391929177,200.3245577041498L100.55621132004308,200.49610379678325L99.807467444145,200.17520143221918L99.59191427143378,200.16822811839575L99.44604933552546,200.3071873990666L99.21689476443316,200.42152132415504L99.17396127131542,200.53273102525054L99.20089333376563,200.62040604122285L99.25237848316465,200.69301191378963L99.42457769343127,200.79646230429262L99.6002582550318,200.86698936266384L99.73060238491416,200.94903174977026L99.78462549469805,201.30122137820217L99.72160551770139,201.43835452507028L99.52785690332712,201.47524262561546L99.38762121182845,201.50368909282042L99.03903190343044,201.99203165913332L98.58205934838588,202.4569378881415L98.35856057587625,202.61594991393304L97.9688217459352,202.91079965312565L97.48330651162905,203.18186468730983L96.80464980624492,203.17298819909047L96.79026866283675,202.60251017812698L96.81329595723037,202.52849852413055L96.72754343147062,202.40893358000721L96.65303098962977,202.41036337409332L96.48417712964329,202.76726262431566L96.56556452403493,203.207115260534L96.57406531852575,203.2179935243139L96.59981054896707,203.41661355278848L96.58905650090128,203.64845751381927L96.52653957444454,204.44489690320916L94.74021761722724,204.94389615016735L94.27095877126521,205.18864154834864L93.24763255906328,205.2825016498091L92.76720074468358,205.10462359652593L92.23604830234763,205.350450415237L91.78814496714404,206.080363765087L90.66737710391317,206.37463450785435L90.0877694754654,206.81277860838236L90.02055452659079,207.39898689692836L90.53810628560859,208.05463639011577L90.5283928833469,208.78323536941934L89.95837225163268,209.57772411978567L88.23361575968738,209.83642572863118L88.16937762883754,210.3745218001768L89.27660233023926,210.82736495854988L88.3644606863636,211.18016730994805L88.86392715158217,211.62290831898827L89.0243173864892,212.06087486413617L88.64964973277893,212.54231371550304L87.98381286507902,213.08074167391078L88.0944472522151,213.46824329231458L88.69622296525995,213.2763271666845L89.08571964254588,213.5920711821327L89.0004209227518,214.05987835511678L88.6927333157364,214.27543257595153L87.8792654958088,214.15185455887877L87.57308927910526,214.2794332141957L87.2802207056684,215.4174637161086L86.74251329067738,215.70239751821646L86.11198042078831,215.06114585523937L85.79903116507376,215.10507158228484L85.5629920936135,215.66725597212098L84.73790978333273,216.02530426907015L84.45665422176899,216.59211194427007L84.84714988598535,217.79898207684892L85.49282453035448,218.53606171140655L85.4318648968856,219.86048649219356L84.84644726789338,219.6346776441569L84.51000663023115,220.01098241403088L85.22680102265258,220.32352841179L85.81161006974071,220.7803766410252L84.90688042648617,221.3830332800335L85.07094627965307,221.92242323705887L85.92382389719205,222.31523453720183L86.23655467430581,222.86515277346462L86.79310228225768,223.43939415795376L86.48282813127844,224.08018958485354L85.35639048869234,224.2169040371764L86.3013862213229,225.6018315124802L87.00491289891579,225.88143038819453L86.64566580248538,226.6252107940345L87.6172975674217,226.87070627382673L89.26910872016742,227.72741123935975L89.42475789107448,228.25942900996597L88.73186267943856,228.3322124885117L88.48260101107007,228.68626713487902L88.20065493212314,229.61758446822387L87.28737348377217,230.02940141734052L86.72648997295983,230.10187102238524L86.1146236099521,229.97909486200388L85.69506178384108,229.61343792874322L85.19970322188237,230.0169046561623L85.54188480878292,230.49367568764774L85.94343400385333,230.68327368343034L85.64516168338741,231.0363083539778L82.41293295242576,229.49276093974822L80.55378955697961,228.4082010293514L80.56125446165606,226.72681970795566L80.816574760418,223.1139475181817L81.63622261511773,221.5472711353823L81.03973164138552,221.11518154961777L79.45091682709608,220.13435906823543L78.49027009533347,219.82678706654679L76.61966747170845,218.4251576121933L75.0846379762479,217.19945097463915L75.11975070172775,215.32181446663162L74.32145665082862,214.30057829534144L74.52703836725959,213.93367673200646L74.30198946299606,213.27278840363124L71.06030097701478,211.78563830388703L70.58205227324834,211.47682345494468L68.33319588011909,210.7859192130909L67.31321682058297,210.7134937078663L66.25175790869798,210.80656167234338L63.554506397074874,210.8802349653497L60.716731538319436,210.26675945836905L60.38560973041422,210.63949799425154L60.049990519008134,211.32562017006694L59.60701424011495,211.59100522947028L59.12957755744537,212.49781848098064L59.145277921230445,212.98550798039196L59.42066511314988,213.3369143661348L61.09405685722777,213.7740573287383L61.33251625223238,214.38979903831296L61.01244027995381,215.49987740549932L60.712316592256684,215.70494933388454L59.973370662781235,216.91012870738632L59.15838311705011,217.0995259459878L58.698244609906396,217.0605809330218L55.70880593808761,217.35708431054627L54.373766454262295,217.45124828439475L52.89404497869873,217.33142470696384L50.256124054087195,218.5552868532941L49.739124133777295,218.60740388001886L49.24180356684337,217.950421243213L49.80235058756807,216.36350454205513L51.63836622649069,215.777898399886L50.15081762096088,213.47702122101055L48.320954379489194,214.3765751823903L48.14673605999815,213.39395775090816L47.05338065561409,213.0369423461425L46.654170194173275,212.681046878316L46.702101782928366,212.0283559368645L47.13097246673897,211.8914703642531L47.77874998333937,212.00258731716713L49.014641869289335,212.05264110578355L50.357615536591766,211.82991774860056L51.03059782764649,210.6355936577711L49.80220024015762,209.22657173536936L50.0666447304593,207.03732601645333L50.231927731683754,206.36758362789533L48.98266226213491,204.9229971846653L46.19988896020914,202.02775235741683L44.72076058354469,201.4458981550706L43.603212443409575,200.3594438568207L39.02089249928031,195.3481503918756L37.05403337772259,193.1368520303231L34.53608725699087,190.18178504613843L33.35033663026843,188.7454347741632L33.48723043908649,186.96546270670115L33.70392676969095,181.89311373579585L32.64672949148553,180.42884559969025L30.82125590265059,178.00675028136448L29.636879846924785,175.43275802254902L29.10940248022598,174.9898253008223L22.30833883773994,173.69155439204678L20.585386935486895,173.38466426856394L17.190129021604662,172.9269147155146L15.263426432771666,172.60976108822433L9.890062983949974,171.6269927164176L5.805674437844573,170.85505162337267L3.9732314651846536,170.3090547616075L1.5725718695994146,168.48249128894986L1.609845402306746,168.0612002008811L1.371478685443435,167.21066124247955L1.0287702936911955,166.80477989805058L0.1340936429805879,166.0978531800347L0.042614239782778895,165.98641708271225L0,165.79004265728418L0.41734091649959737,164.68752808456247L0.7574296857219451,164.2000505026408L0.8093076417990233,164.06224519049465L1.230504852372178,163.09931228396908L1.761052050478611,162.5556034203937L1.8056787386940414,162.45982279894451L2.4344626646416145,161.88063194324604L2.5989379897400795,161.76065566810757L3.2812111578350596,161.19581254372406L4.955456475869141,160.25274767288101L5.3381256835109525,159.34925004040088L5.4653982528689085,158.81749319083065L5.456752324742411,158.73990388175662L5.7885496509316,157.81947697971646L5.759931858909113,157.4267514577914L5.801322263350812,156.922251638719L6.153872786719148,156.3746066880094L6.879611327707607,155.924754325064L7.405990265966466,156.0105139576317L8.51298888488418,155.88866482297271L9.338938175216754,155.7133278821193L9.854348333134112,155.37955008763493L10.137610375499207,154.15226017822533L10.689491067012568,153.48305357879144L11.887912686861455,152.9500826377698L12.227079380825671,152.61880449188357L13.593620883870244,151.62964842246947L15.274276114909298,149.8515906557177L15.995439727928897,149.37728000105017L16.772028428098565,149.09116680223087L17.029947852508485,148.8036432662202L16.928116589226192,148.55343009187072L17.977894809970167,147.85197836282896L18.86154062958485,148.004252401347L19.399899546189772,147.9333801621242L19.733330626942916,147.07554588260336L19.90169876813161,145.63454435524181L20.108887106262046,145.1341728900552L20.760300283991455,144.37688147208974L20.798122437421625,143.7336885467612L22.467338220214515,142.13900222200118L24.074525390509734,140.36316664903825L24.993585415171765,139.46417692604882L26.663727860832296,138.00933641475967L27.935633016320935,136.9722614167049L29.1754731364108,136.2052368632203L30.709063155487456,135.34989690313705L31.953174602671425,134.40010131177314L32.6428539430126,133.73680039682858L33.14744654178503,133.4221138451121L34.819674294050856,131.7411208970434L35.57873480894705,130.80536764981844L36.39926083204409,130.1263838904497L37.35179698560751,128.62064261992418L38.02171644661394,127.39876305948565L38.61688945390961,126.55122751977979L40.26925768964247,125.56969213157481L40.42336705715388,125.1885751430209L40.616233250411824,124.06072868004594L40.63682415739822,123.31006113506555L41.87046237978393,122.15441717795693L42.744357734914956,121.5043456460835L43.63565279481554,120.26010619639965L43.899783813934846,119.51254538037574L43.96395641847812,118.64538512955733L43.85082475908166,116.79569220963276L43.46712404169557,115.53750487615889L43.44778336496165,114.91592541165755L44.54475387184539,114.6460655190831L45.14854154709428,114.90309221423195L46.416619964256824,114.82265296521837L46.571091977428296,115.32448463817946L47.0952320103861,115.06645896474947L47.720721952622625,114.9876968910612L47.913802442200904,115.21741284334075L48.58763506333162,115.41010499120875L49.07273390829505,115.39475381144166L49.79659808437464,115.61273211316256L50.32307812937506,116.00839290864133L50.448943282679465,116.79276228350318L50.276344926247475,117.23445495291708L49.45005222004875,118.41924681434193L49.39874489185786,118.9370744896396L48.65552850463973,118.8590623284199L48.23252031222364,119.17839459360312L48.35876928416292,119.94022679042064L49.10090211100032,120.56824482429238L49.374324485215766,121.18219661220155L49.30290811827763,121.81440348743945L49.52108161360047,122.0069213635361L50.94311287751407,122.24737992370592L51.58033144986257,122.79199849834458L53.378159984147715,123.36203311718964L53.934435253348056,123.45530859265364L54.09174968136904,123.76561617902371L55.21883341692228,124.2751559610524L55.92761360819895,124.258337052137L56.51604418274292,124.46444214197072L57.17438602072434,124.50864358500985L58.278370707619615,124.37720052731311L59.01758079871979,124.68780083438378L59.70992289602327,125.3281267093098L59.81542861880189,125.60104508111999L60.4675176671044,125.80264671295208L60.97639821295161,126.3189663673038L61.5104170684026,126.63296729307967L62.15431564178107,126.71062048611839L62.85024241237261,127.0294341512672L63.15824418232478,126.94970353837289L64.39660409216776,127.44304438702056L65.6391018299164,127.66773994868436L65.55064927854073,128.36141106998366L67.37980593008069,129.83793977178175L68.14559517959424,129.9473259595743L68.71011584988628,129.85109438434756L69.17803920395272,130.18454753970946L69.39440758021556,130.85097081443473L70.27007688317644,131.47133866371678L69.65968351889933,132.54997384004037L70.03492825921603,132.8627881129678L70.1537034377834,133.27145778727845L71.27199021552042,133.27540572730504L71.60041201591594,133.73719179858108L71.88166372302476,135.13850440985698L71.71654422525171,135.50769863359073L72.13743330490615,136.27925284396133L72.96075421014211,136.89779632186765L73.60508627070158,137.04728754250118L74.19404190194291,137.77952858785102L74.84873479051566,137.88052328581125L75.69589519722467,138.1685249719585L76.95435176745741,137.79003522293897L77.68827341564611,137.75568566648417L78.23524595836898,137.9833799060998L78.75567157834303,138.90578915196238L79.37602371450703,138.87760065976272L79.74172698130315,140.1384300093714L80.10167736211588,140.56618777446602L80.61344548348825,140.713183229479L82.02787259240904,140.69003944950418L82.51239076280035,141.12911823538252L82.50229776512606,141.3999729226216L83.08864620396525,142.02102892697076L84.1837201604576,141.76322388159588L84.90307652797128,142.36877709314922L85.80082173233677,142.7344515755767L86.3597107022124,143.31994311590825L86.90246742939598,143.45287793045645L87.12650331741861,143.83427831717654L86.94567941650166,144.2102447516063L87.80701391391995,145.60482605949528L88.5441594111544,145.93531001722295L89.28654725780325,145.994074830327L90.55824893687895,146.450217442537L91.42714935775257,147.22773340748518L92.26166618523894,148.1897858590728L92.19200995813299,149.25055980640172L92.84960511446843,149.1465464071871L93.64896447198953,149.23948248001125L94.0172552378699,149.4139038347139L94.88220585674935,149.48630703321942L95.34441548755058,149.1718009151191L95.7090654193853,149.1737173165884L96.12432023974725,149.7436616305149L96.86423929584089,150.0743856826648L97.73376626032041,150.9812894026154L98.6791072569522,151.45898884654525L99.10626652643441,152.3887717009202L99.77301695321512,152.6629315832579L100.57995979412954,153.19733002017256L101.27488336741771,153.8235956998633L101.48489503321616,154.16562524225628L102.04605333130894,154.02848566745524L102.44566849584953,154.16501242416143L103.14465181365449,154.88323989882974L103.952962510406,155.36270615482135L104.45228020188188,156.24564867245863L105.46679776154997,157.14174421119787L106.17457885186923,156.95592621725064L106.57605716915168,157.22038786022313L107.102817886509,157.8694690929815L108.05306236967772,158.6322994354823L108.95528421243944,158.8791522628935L109.31469811478746,159.52880000791356L109.97594821225903,160.4398969331587L110.53380129716606,160.81655024479278L111.55600706594669,161.2300591018011L112.3416622398563,161.75213861140674L113.20088229723842,163.05176850059888L114.71938424328619,163.86955965205743L115.21090553444265,164.49780916944746L116.72060682631854,164.6009539202123L117.31314483178176,164.86088642673894L118.18056603544937,164.0390418337729L119.07091794596272,164.5523188189327L119.83354666125342,165.19371249837695L119.92667021490342,165.25355432982906L120.0891188898986,165.28254919238043L120.8544161251848,165.38826112215793L120.87148962701212,165.40221307029424L121.04770052339336,165.59598024985917L121.12246728956598,165.7263876465986L121.29634984077165,165.97519509088306L121.46809413205665,166.1581079726884L121.55137369451222,166.2989613765949L121.56316997167778,166.65097137628527L121.87932058685146,167.06911213691092L122.24986106913093,167.50746002371307L122.53720395152595,167.68014140739524L122.73007793233955,167.75609537428227L122.86470807070145,167.8187823310236L123.08127236986002,167.9819910903052L123.17954727397773,168.0748281791084L123.36325195874088,168.37136345169893L123.38224748858192,168.44428190953568L123.5001425656319,168.62822810204307L123.93636836533187,168.92564859919094L124.38770748720344,169.05021566407777L124.57133590862395,169.09364270130027L124.96229507012322,169.26731931551967L125.11457533838438,169.362617140996L125.4712594643388,169.7502234959602L125.50148054069177,169.79025454668044L125.9328432234579,170.05864210349955L126.4992467636439,170.5388199389463L127.20358980425044,170.81562085822952L127.77806312657776,170.6608667157434L127.8664678795758,170.7059999947096L127.87519685864936,170.7203482842924L127.96064862326239,170.80228315614022L128.01565112882417,170.84071694774138L128.0714704546408,170.90169993551535L128.30813347010007,171.05250516834712L128.50489963116706,171.25161521439168L128.61641821105877,171.3731489386464L128.79847517601775,171.49982075050593L129.31483127433967,171.72363709033561L129.66352517486666,171.75802067064524L130.22849301604765,171.82304336795096L130.3119146370227,171.84256571140668L130.42944725310372,171.8904482193957L130.59615843082793,171.9299251610728L131.19337748522958,172.09657495770898L131.68975083362238,172.08671068695185L131.91818730828345,172.11309915418406L132.44630761747612,172.20617075651353L132.78491671369375,172.28039379825896L132.98279668262148,172.31182561828518L133.3221752427071,172.44849722610616L133.38097263153213,172.53594367491405L133.5702483461173,172.8312901858053L133.92706172589897,173.04868484624876L134.12603545146703,173.1494812794881L134.68121640421305,173.11963652915983L134.93924700280695,173.02961642332411L134.98836541644778,173.01428279879838L135.19766236187752,172.97254360993338L135.4694301339041,172.98490729159403L135.93408533049842,173.15785050064915L135.67363133585422,174.07916555028805L134.65809202136188,175.2810228136159L134.54339135811279,175.8559810885854L134.223535817604,176.46230442196793L133.7046821691638,176.94617063138503L133.04172781441957,178.24064553623793L132.96837515596235,179.38841080297425L133.1257191364275,180.01948640464798L132.94288316898565,180.69722578984783L132.02216588983174,181.57768956810378L131.9655996142228,182.08364267988145L131.47872616760105,182.97949380597584L131.77995223184735,184.08813529492727L131.52900468480948,184.13184417535103Z" fill="#00c200"></path>
    <text x="65" y="175" font-size= "4.5" font-weight="500">
      बर्दिया
    </text>
  </g>
</svg>