<svg  viewBox="465 290 100 100"  version="1.1" xmlns="http://www.w3.org/2000/svg" xmlns:xlink="http://www.w3.org/1999/xlink">
  <g>
    <path id="path-0507" d="M506.4723643961097,309.1870142063981L507.96002296147344,309.18031654503284L508.5119632855003,309.8059599635799L508.9359016175895,309.7625963528235L509.21975353984817,309.3995948270185L510.43375058055244,308.9380018431284L511.01817994185694,308.2228531914325L511.3082361349334,307.6942622674751L512.2170142534414,307.2017316982783L512.5709003505126,307.482799460754L513.3999891715503,307.53624280211625L513.7697239028057,307.8125317082413L515.2089227939814,307.73307181432847L515.9833430589351,308.2838960536101L518.0654332876657,308.2550004289096L518.5773186764,308.1691424047385L518.9020050064755,309.101029184083L519.513503025737,309.35877559747496L520.505452610807,308.3331903416856L521.877994016766,308.4028831009846L523.5372717968003,308.2649937008564L524.0145456851515,308.36612204708763L525.4248946786392,308.3735334724315L526.5365594847899,308.5361886570272L527.7929337394362,309.0442006994617L528.8681575807477,309.1402652601664L528.5106406057639,310.52446782103743L528.9883888637578,310.9499428110503L528.6423307304631,311.30066183265444L528.5046134790737,311.8232350442822L527.9260682995609,311.93890746017223L528.2501246344673,313.21554089158144L528.5773914663132,313.4478846086231L528.4561061566019,314.3544910786177L527.494103148847,314.85738477052655L527.0895315484322,314.9082405013405L526.7908431342494,315.4691905824766L527.1375145473612,315.8124551415849L527.1948179780538,316.2549743924719L527.5451880910896,316.6350885775264L527.5812167443837,317.12402727124754L526.3583014005853,317.0880602917523L526.0612799087066,317.5371525114979L526.5839226714997,318.7172581560835L526.1875356285782,319.20508672105825L525.4955753717913,319.2546499915006L524.6495331674778,319.8450494167855L524.7778408387003,320.1500387433298L525.6218541473372,320.86014762581453L525.8401516042704,321.2170301866572L526.3321468984941,321.38191581159845L526.8082874103511,321.8619748203946L527.7851853176053,321.71537826838176L528.224062931311,321.8474134590515L528.5064782955087,322.3511892210372L528.1239511463555,323.07003330645693L528.1626042991811,323.2936642998193L529.2913135583458,323.181597784941L529.8241367279807,323.002708744938L530.4586744333192,322.56447784175543L531.1489923605477,322.65029417364985L531.9263754664171,323.0411962814933L532.5706441859093,323.55930323276334L532.9547552570675,323.4339799210793L533.542399534228,323.8598616508734L534.4756018295848,326.08739699490525L534.1867802656561,326.51734977310025L532.6678546116091,327.7177778053183L532.7034382911861,328.1703110782537L532.9718875136059,328.53370070721485L532.864014434097,328.8485513121832L533.7593480445194,330.43497060237223L533.6641911072311,331.4529542238597L534.6354017661943,330.87310716960474L534.7584018386187,330.4988452727048L534.5062181730518,329.95075101249495L534.5868464111809,329.5297344054943L535.0009319185228,329.087952550567L535.6274270505892,328.73828582647457L536.3302830152443,328.9989245689858L536.5894777066278,329.49891863082576L536.9454682065734,330.603538596185L537.8164285547009,331.53987203862107L538.5075638040889,331.6653235011954L539.9852930768757,332.2955161804193L540.4109194655393,332.63065093907335L541.1123726870537,333.6418147043332L541.7356052549258,334.11379098466296L542.3622694616151,335.10467616798815L542.4879197790615,335.8532422304379L542.2563082704855,336.2158468150674L541.6374827868276,336.42531915215295L541.2969566605207,337.26186781533215L541.131165525574,338.29722673816104L541.2812630754652,338.49997586053996L542.1228805195697,338.85600862915726L543.2839708387619,338.7041863258064L544.2437238088824,339.2197310277397L544.741414805083,339.6281438887554L545.2755383123913,340.2897127866281L543.9516656183223,340.5707695976953L543.1850350832301,341.18870013848664L542.6634805463,341.07555327507725L542.01864600316,341.77577839988226L540.9537593470177,342.31946173326924L541.1354863433135,342.7502122363476L541.5900992343395,343.229275049679L542.0771245026135,343.4243585583963L542.3349598723198,343.79044992325L542.9454724554071,343.989782200817L543.2246185308559,345.5965746010834L543.0926932386756,346.3952140398769L542.6790236933703,347.2513113820978L543.8442674848648,347.7003340506444L543.3268927420686,348.96313602363625L543.3265851414872,349.86050755988435L543.4493779053228,350.60993840068295L543.7091384203541,351.1897673947087L544.3935199063617,351.6392175531273L544.9499995002734,352.2912287383979L541.9932665546221,352.91830487240804L539.9200890571792,353.84875048259255L539.5315538021969,354.316010733196L539.5464150789157,354.8080238955099L540.0893863775109,356.0638340556625L540.2841269336659,357.05509811992215L541.1084735952863,358.4103827689105L540.6468948290385,361.0678038376818L541.7349433661311,361.2389365785202L542.9762534545152,361.2881832182775L545.1185027461925,361.5518145819533L546.8155197153483,361.51809783224144L547.0040950031234,362.18730851965574L547.0009767287884,363.0214029107401L546.4805000427132,364.06739374657536L545.2950917946837,365.2794758248283L544.3467263859402,365.69810386825884L544.0049345053831,366.92868847618865L543.4622346868673,367.3700038388188L542.8528835313355,367.6501255518133L542.548535343507,367.9642347260424L541.3675324505712,368.47550068678083L540.3151406025445,368.8098286904378L539.2780893962554,369.59460131880223L538.6531520564367,369.794624112611L532.8760160438142,365.60534971217294L532.3553214819967,365.2517975375149L524.8180513995285,361.80302414701055L520.0418057542829,359.57585654035665L516.6882890167162,358.04836763995354L514.1929461653563,356.8439039113455L509.394032990338,354.64125520171183L506.2891136146045,353.1951943777867L503.24799839740626,351.82129499503753L497.51585583666747,349.1253016602823L494.66325653897184,347.8078566845361L491.01717515545715,346.1851078650143L490.886941762481,345.60932340540967L490.55727983468387,345.05060376463007L490.63143251402107,344.40014441559833L490.2962474172218,343.83405254408444L490.4152018024233,343.4817157855432L490.13719390670667,343.02341053493274L490.24455495903203,342.2813849712429L489.83886554465244,342.2690834461937L489.40621602595274,341.9573146108114L489.02801891677154,341.13992767624404L488.0561056373881,340.7282918298988L487.6829198621308,340.82344127412034L487.27938883925344,339.9996548643967L487.4714730022624,339.53090867823994L487.1755526089255,338.47749796336393L487.56696866524544,337.9717670837199L487.6438607380478,336.77118054403127L486.99202727327975,336.2147228529675L486.6217728296451,336.4000451830898L486.2084833180015,335.73149830578586L486.35931903239725,334.93515213391674L486.03999659528563,334.47268111467656L485.6057143535163,334.1679242658065L486.4912160814074,333.9008624160715L486.5407003863129,333.5400498305071L486.20798858255694,332.9605701293176L486.3829539380804,331.9790507204816L486.78691264293775,331.895932089732L487.40196449588984,331.48665060775875L487.48115252546813,331.09583188445777L486.6042146202617,330.8868498638676L486.4261158120644,330.5678849812057L486.4863044630765,329.91052181502073L486.8330467722735,329.5362689482354L486.7530982910848,329.0574766543523L487.12734750737945,328.68704160823654L487.1721140534046,327.7115518237897L487.44136983874705,327.5490684036122L487.10526520644817,325.9378706483176L486.2898618248346,325.76859503869673L486.12082868363177,326.15014558970415L485.66099138619757,326.2282342498265L484.4434506946982,325.94881169893233L484.42548363210153,324.34319263827L484.7591624275574,323.9550716161575L484.8237698827488,323.3146024649768L484.1867777131429,322.82624880797994L484.3333329572015,322.35719098655954L483.5146301223558,321.6591488459326L483.06713027835576,320.785293863104L483.0723435412383,320.2633471883046L482.7577256059958,319.03450174359386L483.0190189363966,318.1012496865105L483.2747869843406,317.70034239463894L483.71877910592957,317.82123499010413L485.3177738989998,317.1293171940624L486.09203565648386,316.2530911315416L486.8299776832937,316.0202997509559L486.5903516524413,315.40024693912255L486.80809788765873,315.15425524803504L487.5058260873848,315.3732778046551L487.7810832539926,315.1119521964147L487.245268808123,314.5373985233491L487.5752406420743,314.3257574197396L488.08117460341055,314.4495786569223L488.34765449056067,314.16227011887986L487.75364397672456,313.5666328380694L487.99196544301776,313.1107695632154L488.0979348957826,312.4372563104207L488.8806890034921,311.7630848193321L489.90153094704874,311.6318807841981L490.96270718334563,310.43549459660517L491.6102720898143,310.00239068975225L491.89319986547343,309.65392977525426L492.7084973832898,309.28195134667294L493.2224660406064,308.87914331003685L493.82258668138456,308.7522558657647L494.0696575682214,308.1117600084963L493.808952348596,307.727069856689L494.25552132143275,306.29795991834L494.38314500889464,305.3292048763915L494.655075247636,305.009429011835L494.4371276599013,304.74557727473893L494.6640398541167,304.12075079411716L494.4131351998021,303.90424341490143L494.51248826228766,303.1991157019029L495.6851273401571,303.64209875527104L497.3192277926719,303.53385524860187L498.38512236425413,303.62480510929527L498.5699822367824,304.0066747886558L499.07193026346795,304.14197484908163L499.21508787574567,304.9938731841703L499.9799156524823,305.5880431661071L499.99407450091894,305.75404045684263L501.4980846975159,306.9802266264278L502.3534819170163,307.147256233131L502.67594895033653,307.54271586319646L503.18919577420274,307.70841765753903L504.3249277791474,308.8454571090215L504.71971360833595,308.77996489392444L505.3575296325598,309.02214971574995L505.566976992679,308.64498107991676L506.1601838255574,308.62589312931414Z" fill="#FF7B46"></path>
    <text x="505" y="338" font-size= "2.5" font-weight="500">
      नवलपरासी (प)
    </text>
  </g>
</svg>