<svg  viewBox="248 35 180 180"  version="1.1" xmlns="http://www.w3.org/2000/svg" xmlns:xlink="http://www.w3.org/1999/xlink">
  <g>
    <path id="path-05011" d="M314.4167120265611,78.13794613902337L315.2259162091068,78.83868889676069L315.2926780977432,79.14573172048495L316.1474392041473,80.07399504961904L316.813586886894,80.18461832882258L317.575361389494,80.67049596169909L318.9325963720894,81.00382778494077L319.80736742900626,81.01113958966107L320.32268730139367,81.66844511109502L320.85293827378337,81.4016893512362L322.1862252003666,81.35059240227747L322.610542451519,81.7240770335602L323.27575234326287,81.76379879334945L323.54183443832335,82.06944596274752L323.6459189951893,82.72328733058475L324.1747110510405,83.42648353621735L324.2134979238126,83.74207577905963L324.741346444649,84.71527410694671L325.4476395405309,85.23700552749779L325.7668284410647,85.64922635260609L326.16285540097306,86.51405111617623L326.6657530042612,86.76077640934454L326.8028566370667,87.47674170911432L327.4655291479703,87.94866859687863L327.81649240616935,88.63755499045419L328.2106074493495,88.69418652199238L328.89581466164236,87.78002139593718L329.7509904485287,87.09879024315251L330.2872682410998,86.80617121688465L330.9020460309548,85.93777789868273L331.22742283364096,85.94480935943193L332.0282658077922,86.38526382162945L332.5484247528984,86.41266842233836L333.074338720613,86.65108450676598L333.84976371142875,86.4313807424478L334.3361629127776,86.59865573001935L335.72077466948576,85.72872645668212L337.14383487641317,85.05267415448452L337.46846264339365,84.80929897775695L337.74992674657733,84.55374929056143L338.3545320140129,84.8223378979028L338.843675314778,84.69802207772591L340.0116211406985,84.67832577364243L340.7595088735616,84.76631455775168L341.5181246505781,84.54221642591983L342.1007843661828,84.93763561194191L342.31336718059356,85.33580973075095L342.6843591930501,85.47390927111246L343.51129459594813,85.38578977932684L344.2544426154782,84.98031364055441L344.9493688677667,84.3819692467614L345.521178183586,84.31819166984224L346.7524250543229,84.44127002327787L347.05725194127626,84.08376827635766L347.57026534126453,84.02051984929767L348.5176502391514,84.58291555105552L349.7487654198376,84.72566140673553L350.5993915396866,85.38209757254299L351.39258246938516,85.60784234044877L352.20557681938226,85.43907177858455L352.83707843552475,85.79836108213931L353.3098569431695,85.6783559817959L353.7534015133642,85.01773469737236L354.39703266854303,84.89071501989838L354.61046265235564,84.35808000944871L355.65415805387056,84.60663449969616L357.049542458637,84.53386372331806L358.673930381412,85.27366550465104L359.47791280557067,85.37085079607186L360.5511384837082,85.30905908428758L360.8327733022379,85.19502422477308L362.026187618987,85.31350434238084L362.744603855288,84.99672441777602L363.2135951771397,85.24442269300016L363.45019812308783,86.01833251604785L363.7942938677661,86.06508291317914L364.55885404298533,86.5445486473609L365.181503912032,86.7434361102587L366.307161530347,86.6515659925808L366.3308759639094,87.37687444599851L366.7699215210905,87.54340561704157L367.13330189431326,88.34716309936175L367.8433396825112,88.783812548696L368.103023787,89.16192224097995L368.2219377905403,89.8800010951627L368.6462781922055,90.19749690184017L369.3171713365591,90.45245650597644L370.36954792539655,90.07875836474614L371.1054427104009,90.24443272502776L371.95891929877325,89.87228636853251L372.38337290656636,89.82276320056735L373.9846503888384,90.66512933545073L374.54049105365266,90.59907056947577L375.2559148549317,90.77108492783191L376.7618929416294,92.05812089751271L377.2696060105227,92.3409151605565L377.78368356638384,92.03815034519357L379.01799875096003,91.86458272775417L379.82039639042705,91.9606873457351L381.65152145222055,93.15684934508317L382.665413375551,93.22035177910129L384.0240008522469,93.30055096647993L385.42693401284487,93.67825976968743L386.1605813806491,94.36228975988251L386.47916701235044,93.96701357266647L387.42343368818183,93.42138818920375L388.116218427489,93.23073039997234L388.35060319557306,94.15876259792458L388.5960231362624,94.51117745449938L389.19772344606827,94.80137866923269L390.4390751028932,95.935424863972L391.1674545926435,96.77609869672051L391.7554899487204,96.98409995923885L391.8684051438904,97.29539266774464L392.54942101706547,98.24780465749063L392.5878411196227,99.48317179880087L393.65291938391056,100.3151836627303L394.5120791887639,100.79624493708525L394.6827870273555,101.38628010944649L394.98837889480274,101.48439712683376L396.2164817884186,101.04254432659764L397.41902953943827,100.95892175790686L398.3188508147032,100.5561326268662L399.35667143903447,100.59803399178145L400.49313439634716,101.10351349562461L400.2683423180988,102.06147401288854L400.38591035282116,102.70692243604844L400.29527093932484,103.22888156018325L400.9560389418275,103.9190122191767L400.60303731203567,104.67104197967183L400.91801755698907,105.36726527540759L400.8164380642884,105.77616633002708L401.4636484416951,106.98345220003739L401.80101328606725,107.27778771510566L401.83159046932815,108.3706435737895L401.7026625442468,108.90887281157484L402.19296144281,109.57280664741484L401.91592798626334,109.84239265320684L401.6919838140275,110.56065677105562L401.4461540988541,110.7658966190138L400.5450802459691,110.96574288290958L400.2465648471025,111.7534087551976L400.58438702262356,112.10535403323411L400.62548043217794,112.48215821307349L400.992103800505,113.34189260346011L399.95681885147314,114.0661721076549L399.4687751628917,114.57245588530895L398.7931370108672,114.83767715158228L397.38617515268925,114.76608773403223L396.4660336584202,114.25888796952859L395.9745873287884,114.50997425555215L395.6459617258988,115.41490127463203L395.7893616315487,115.73425030312319L396.2515806272222,115.93885545138073L396.90467781895677,116.70219320359138L396.79812514444166,117.62127329362102L396.55498761651324,118.61361030506214L395.767627500225,119.4538981550113L395.3013671620465,120.14995281103347L395.0089005162772,120.80630967531943L395.1996076763626,121.85000647907054L395.18922167587516,122.47245137114624L394.94079394720393,123.07520819373076L393.79934223874443,122.8924176921264L391.5648795351008,122.2254593690177L390.24163486329235,122.56760709258378L389.0851278256396,123.07207549922805L388.71663791207357,123.8399668154616L388.42559222958516,124.07987162015615L387.2561392530097,124.42936539080165L385.80869384528523,124.4908504195073L383.9385575968681,125.13482688772001L383.1839988076281,124.66421005473876L382.6859324791749,124.03665754720441L381.1134231912456,123.24114218777777L380.78577854459763,123.3158427039034L379.7138978990024,124.05762887570472L378.6057435156745,124.04516961140325L377.6431420821118,123.91729660888905L377.0277959081868,124.5735740546088L376.5611670259477,124.82527228435265L375.51145982237176,124.78131770065374L374.80515837261373,124.47615709739512L374.0094049703239,124.63713491681119L373.4212616284003,124.4342845514766L372.510099229301,124.47178367934157L371.69480853025743,123.84071768148715L371.0357500118462,124.03414853046434L370.16990974506916,123.28910047516183L369.60758041114786,123.08441265477177L368.4615282437244,123.43715986522602L367.99921600423477,124.02877717401952L367.5272585182447,125.0525638437548L366.5597910108809,126.034645216856L365.79356636789817,126.45049591249335L364.6891525628271,126.79051503871051L364.6242454293297,127.44718073987406L364.0509535558849,128.50995571515887L363.82033201689774,129.1475326201462L364.17233721603407,130.3353595737317L365.081838103275,131.34728745008124L365.6413750573902,132.47981903779691L365.97949324636465,132.61288815082207L367.62967910665975,133.7579514035151L368.946219157031,133.7917922868337L369.40255002554477,134.38125914407283L369.99272142677,134.52679993429138L370.14038241383787,134.78356827539847L370.11719451392673,135.90408924411986L369.55879735380586,136.67798679642783L369.35618490857814,137.20132839941562L369.08229244248287,138.52223842363128L368.5016912469473,139.08223094548066L368.53705506507504,139.33160457748272L367.85529033570674,140.0787282183128L366.31173648844924,139.04767017142058L365.9668285530897,138.58656891173177L365.4846334840204,138.53087520180816L365.212236436666,138.25860756135535L364.37288572677426,138.33570479696664L363.5725508133273,137.46770363131418L362.8421685026897,137.39142141535922L362.6109666585853,137.16311094338016L361.9473156800668,137.03606201770162L361.47745324678726,136.432967348469L360.61509197807027,136.1801115500184L360.2108357783236,135.71694593928078L359.1333989353843,135.3167308730708L358.2451664592518,135.2180097603341L357.60494467881836,135.33274617078496L357.1618770540972,135.82948359847796L356.79390114494527,135.8319863375009L356.70249098789463,136.89367377824146L356.30011614312934,137.53615202616038L356.5219226733989,138.0804638122072L356.2378501516487,138.83423358624714L356.24959896578184,139.18434658420847L355.94973865556676,139.98159406630384L356.2703546585708,140.94984888356612L355.98229070261914,141.41762312837363L356.07606023935296,141.99417565630756L355.91607191942967,142.57316924782572L356.3758079539748,142.91100464987903L355.5226964539106,143.57140386591163L354.0131941645195,144.55524600873014L352.73825730596036,145.21005596496707L351.31660357772853,145.36597564045132L349.4815343249338,145.1465972688029L349.3764692558452,145.3667597885551L349.8607603924247,145.80180382697563L351.44331322043945,146.9390397034631L351.7667542970521,148.10354954268132L352.01449100642276,148.43567264796457L352.5838685290619,149.31517996171897L353.44053711011475,150.1355845419912L353.82034297384416,150.32407758937643L354.7643028101593,151.35229872428772L355.8987010360761,151.88191291958356L355.94286983008533,152.3621937746857L354.9275232813452,152.87005792754098L353.77261565240224,152.87330431566807L353.24119215672545,152.7272102755751L352.472442922819,152.3208550863028L351.52941340809593,152.26657272351622L351.1336756353867,152.11898787093378L350.41141507129214,152.33640959381773L349.6978029083366,152.7566060315403L348.1430609070503,152.4808265549027L347.6912267978969,152.2314708504582L346.62813152338276,152.14845733630045L345.5450884399379,152.4509420266868L344.72998957914206,152.45737739527976L344.37327229635775,152.26968847246462L343.96224332633756,152.40187979054008L342.9202526686804,152.16151373870798L342.4107831483998,152.3457089297217L340.79037138882086,152.39294363746285L340.159554463904,152.05728388427997L339.51151244163157,151.29619105326128L339.1103250168326,151.21903953639685L338.3250055556691,150.7413027146631L337.32003216804696,150.56238812967513L336.4892200130944,150.08554047258713L336.3100370648026,149.55880633583547L335.5619930132052,149.47348294722633L333.58653036660326,148.52921760874506L333.19835915692966,148.51402220702312L332.6738105177592,148.09569249847573L332.24551290654927,148.0475023290237L331.3568556134778,148.35591565164214L330.68988111708495,148.3522989797948L329.872437580163,148.168014565078L328.16376311598833,148.05821040650608L327.4875763255495,147.8727953222151L326.2831267493293,147.03953608113716L325.47698787439185,147.21376957851044L324.58380917651994,146.4756857047687L323.9086299948067,146.2374876704862L323.44740412096144,145.83653124047305L323.214335291892,145.273992906059L323.4827528968199,144.59844926998994L323.39513168015037,143.40615187551066L322.54815051304104,143.13187513545745L322.03990182963935,143.10236902903307L321.1304824101135,143.25126912486576L319.35859595548027,143.9287911352185L318.813620511708,143.96513212055834L317.9442639072531,144.6143287801524L317.37196447667884,145.47264778253884L316.38087612455274,146.25520829769357L315.80876877389346,146.4487577711061L314.28313677368897,145.83539986647338L313.44007612219684,145.91327737043775L313.48030452029343,145.6108195807792L314.17058143799295,144.8284314261391L314.16488001038306,144.25642834856262L313.75389116554834,143.94921012850682L312.78791264584834,143.63393100169833L311.8117000102884,144.39573110614128L311.5951541353861,145.27023055205518L310.5812961045285,145.75897919119052L309.9272612149525,146.22819932271796L309.5215692469228,146.69719983242067L309.01132408739795,147.8112197569526L308.67940290775186,147.76463712609984L307.5410521473332,148.41637099793024L307.0456001895327,149.59658550208133L306.4161307536524,149.4060546957262L305.0039706606549,149.35983542862414L303.84213212143914,149.17685250579052L303.3237273907016,148.56057467227856L302.4134919131393,148.06308793812786L301.4179301955792,147.7944684990307L300.663360904422,147.38604776729971L300.2823375772932,146.92273764157926L299.03203005431715,146.46349807787828L298.7068517321295,146.1482819422672L298.17290131403024,146.35264915956213L297.0323053002903,146.33312968783594L296.1747490554244,146.8711048910527L295.62090048097525,146.88894308929957L294.937991081626,146.08603020810642L293.7680877990988,145.43249165764246L293.1348215864891,145.75718274416795L291.53716920263105,145.50907970375283L290.98093620984946,145.12834440387996L290.0317070878282,144.8237031738263L289.61688339048123,144.24563028367083L289.25000831103534,144.03455173918883L288.1560161723428,143.70810775303835L286.87896532319246,143.64584509152974L286.0734095202606,143.52270017935462L285.33100303996434,143.12067900121565L285.2304722242625,142.4379123983981L285.029296829538,142.09597887998734L284.6830067200535,140.8654668144809L283.61629716055177,140.07565898451594L283.70444984257847,138.1072365949094L283.4626433346966,137.706817392409L282.40378792957927,137.02142263937185L282.6365750948662,135.94374007675196L283.2138752388091,135.41700746290462L283.6563365482216,134.5780098038831L284.87308623275203,134.39891991239074L285.31286919439117,134.1805538537601L285.879420084937,133.4641942994649L287.18800605221804,132.52714709891643L287.7529317858334,132.91116015679927L288.36558802118634,132.88125407353618L289.6671978970189,133.26486059006675L290.77719794561017,133.1049473836465L291.25418958140835,132.91270809359503L291.61428723346035,132.13667645057922L292.1948919944989,131.7691690350839L292.3823921863295,131.45475022276605L292.02798669185177,130.95444610918003L292.42298182349623,130.54208301711606L292.286434077776,129.34222206425966L292.38695914779055,129.03478056156746L291.94126885351943,128.57790717768876L292.252000474984,127.4024022417625L292.30870502033395,126.61048956871582L291.7592192707489,126.20455148521614L291.19823531449583,126.68972754421065L289.89170602997547,127.15290515628021L289.3827107002162,126.99273846265896L288.58712385394574,127.06271458814808L288.1570226614549,126.86273146496569L287.0868783956357,126.02517183332839L286.67280862297775,125.97586474404307L285.6388340202957,125.47253237962741L285.71063705530105,125.02930375763208L286.3022054036537,124.08691148729122L285.7733362268573,123.75584897103636L285.289439854776,123.89105493383795L285.1442709614257,124.6674557290462L284.5222313384311,125.01303884687604L283.34462219312263,124.4788504127373L282.2282879403938,124.25694002997716L280.3585009073686,124.28035585473845L279.3813681679949,123.94132691590494L278.4515543827729,123.6720341598766L277.9895079860398,123.03184964125921L275.73175986122806,122.02541565293177L274.72266009097075,121.36773251658724L274.0956524483845,121.19183823446565L274.6299923144725,119.94660547309377L275.0657310995066,119.17440313505267L275.10038627498034,118.74792487362629L274.7968776965263,118.31469137259319L274.8869979046576,117.60455821285086L275.72813961479187,116.9884896695421L276.5307061210915,117.13875847805048L276.97401348994754,116.61728688225776L277.090081122773,115.98243745405489L277.70934669014787,116.94587305859022L279.2873387190248,117.56595418561756L280.1388112639088,117.24112804613014L280.9607959326313,117.59182995675565L281.1712294767294,117.99645199537827L281.6460468616897,118.41597106452718L282.1748391013916,118.47608287850653L283.3143465949033,119.40411448629129L283.80608473196116,119.35372609595925L284.27238041048804,119.93502804245418L285.9799508205724,120.10646455887127L287.141658558221,120.37571799911802L288.4820006879727,120.0546311597418L289.19621686981736,119.18335483341434L289.66087402692756,118.7845107128469L290.2245279246781,118.55103806249645L291.19961062157563,117.727774193615L291.9643333678887,116.58865627746582L292.4118264245262,116.47996233340564L293.4800269214902,116.72317378305797L293.97979430044506,116.4999800377982L294.58353304195225,115.99446347292724L295.1652015402706,116.02829111138908L295.67326602435423,115.83841675975327L296.00435127116543,115.47572767700876L295.92733268423035,114.99116094928377L296.2306521452465,114.25780315890916L295.9903337263877,113.15694177543264L296.07391681342415,112.80852053458693L296.471217342656,112.40917305399125L298.85787672033257,111.92831782826488L299.09460017796846,111.42622842866695L298.4244529508305,110.58153114702691L298.64919176211515,109.96168895659866L298.54738127574274,109.56444973988891L298.7760720187998,109.04338935014857L298.9905246331855,107.94911345241417L298.5724116366782,107.40043400739887L297.1389086114086,106.925900293837L296.65162818280623,104.50843539729703L296.6462013843884,103.85497679002674L296.3576119709087,103.15419045982708L296.4949708406548,102.72894749367424L296.30654303321353,101.54436043868918L295.1888528577274,101.3626737918812L294.9854441257594,101.67766912096522L294.12350385951686,102.10483141073382L293.4321080304999,102.08172761594506L292.5091269931654,101.86734306336166L291.22342323877456,101.99656882881663L290.8295837699534,101.90668973540505L290.24563716108787,101.37939716727942L289.53247174906755,101.25824424925122L289.39228506963263,100.67470450528162L289.6044793338024,100.1806001806026L289.69830852491214,99.42122618473604L289.6082710263854,98.72491570716375L289.06234273057817,98.51012961251672L288.9782900703449,98.12230369488498L289.28857557719493,97.5175171866158L289.13408102925496,97.14950386412511L289.7613525566394,96.65098712568306L289.80923880002774,96.22318794942294L290.22604269465955,96.0909366422311L290.5951020509019,95.59387638923545L291.1471788475974,95.21145668742065L291.64422242967885,95.08618033081166L292.47073647345496,94.27707491143337L293.4026193604004,94.10913143758171L294.02768717066283,93.25321344051099L293.9760115561203,92.61716573331796L294.4321193204323,92.18467805937871L295.3107549613578,92.10878122184658L296.09247315369794,91.32756875495488L296.6357130332144,90.94015423795099L297.0650070695883,90.33421337342224L297.608534570305,89.9177778572166L298.8700817558092,89.16506328801552L299.6966310441203,88.9758808286997L299.8943201877919,88.41741903533602L299.7077017580232,87.69823657322377L299.33291478917454,86.84836025276763L298.7137565232915,85.85409085040101L298.6632380486517,85.46762128326282L299.43079577961544,85.08619509679374L300.5791939156952,83.70027938301428L301.0402321694528,83.04165122816448L301.1166921616641,82.52083320828933L300.74641395632534,82.01758780634555L300.78607543424005,81.57689322281203L301.4891042657364,80.87592485586447L301.78381795233145,80.31261086876293L303.0978168498059,79.96213104156686L303.3307144465325,79.0423652347663L304.52466525074124,77.6591984874567L305.3706374409012,77.27497352623323L306.8087390599667,77.76329099973373L306.73800326758646,78.12368300582875L307.2676513118113,79.0249951848864L307.89761668070605,79.42782208626159L308.62998091827467,80.22747987549974L309.3744140819035,80.50180591458684L310.18402508185864,80.47345780913656L311.112589276383,80.04268038508144L311.84276663729725,79.44140595247973L312.450620461359,78.77890941299393L313.8045054942704,78.45460426006684Z" fill="#f9645d"></path>
    <text x="325" y="120" font-size= "4." font-weight="500">
      रुकुम (पूर्वी भाग)
    </text>
  </g>
</svg>