<svg xmlns="http://www.w3.org/2000/svg" xmlns:xlink="http://www.w3.org/1999/xlink" id="Layer_1" data-name="Layer 1" viewBox="0 0 626.81 841.75"><defs><clipPath id="clip-path"><rect x="14.22" width="595.71" height="841.75" style="fill:none"/></clipPath><clipPath id="clip-path-3"><rect x="28.86" y="49.68" width="569.07" height="704.46" style="fill:none"/></clipPath><clipPath id="clip-path-99"><rect x="449.84" y="757.02" width="147.61" height="63.37" style="fill:none"/></clipPath><clipPath id="clip-path-111"><rect x="14.22" width="595.5" height="841.49" style="fill:none"/></clipPath></defs><g style="clip-path:url(#clip-path)"><g style="clip-path:url(#clip-path-3)"><polyline points="327.92 56.65 328.4 57.13 329.36 58.56 329.6 58.8 329.84 59.77 330.56 60.48 330.8 61.92 331.28 63.13 332 65.53 333.68 66.97 334.4 67.69 335.12 68.17 335.36 68.65 335.84 71.77 336.32 72.49 336.32 73.69 336.8 75.37 337.52 76.09 337.52 76.33 337.28 76.57 336.32 76.81 336.08 76.81 336.32 77.29 338.24 78.97 339.44 80.41 341.84 82.33 343.04 82.81 343.28 83.29 343.52 83.77 343.76 84.25 344.24 84.73 344.48 85.21 344.48 85.45 344.96 86.17 345.2 86.41 345.44 86.41 346.16 86.17 346.64 86.17 347.6 87.13 349.76 90.25 350.96 91.21 351.2 91.69 350.96 92.41 351.68 92.89 351.92 93.13 353.12 92.89 353.6 93.13 354.32 93.85 354.8 94.33 355.28 94.33 356 95.05 356 95.29 355.76 96.25 356 96.97 356.24 97.45 356.48 97.69 356.96 97.93 357.92 97.93 359.36 97.69 361.04 97.69 361.52 97.69 363.2 98.89 364.4 99.61 364.16 99.85 362.72 100.57 362.24 101.53 361.76 102.25 361.04 102.49 360.32 103.69 359.12 104.89 359.12 105.37 359.12 106.33 358.64 108.73 357.92 109.69 357.2 111.13 357.2 111.85 357.2 112.33 357.68 113.29 358.4 114.25 358.64 114.73 358.88 115.21 359.36 115.69 359.84 117.37 360.08 118.09 360.32 119.29 360.32 121.69 360.56 121.93 360.8 122.41 362 123.37 363.2 125.77 363.92 126.97 364.4 127.21 365.6 126.97 365.84 127.21 366.32 127.69 366.8 127.93 367.76 127.93 368.24 128.41 368.48 129.13 369.2 129.61 369.44 129.85 369.68 131.05 370.88 132.01 371.12 132.49 371.12 135.13 370.64 137.29 370.64 137.53 370.4 138.49 369.68 139.45 369.2 140.17 368.96 140.89 369.2 142.09 368.72 144.25 368.48 144.97 368.72 145.45 368.72 145.69 368.96 145.69 371.36 147.13 372.8 149.05 373.52 149.53 374.72 150.01 378.08 150.49 378.8 150.49 379.04 150.73 380.24 151.21 382.16 152.65 382.4 153.61 382.64 154.09 383.12 154.09 384.56 154.33 385.28 154.57 385.76 154.81 386.72 155.77 387.2 156.49 387.44 156.97 387.68 156.97 388.16 157.45 388.4 158.41 388.88 159.37 388.88 160.09 388.88 161.77 389.12 162.25 389.12 163.45 388.64 164.89 388.64 165.13 389.12 167.05 389.12 167.29 389.36 167.53 390.32 168.49 391.04 169.21 391.52 169.93 391.76 171.61 392 172.09 392.48 172.81 393.68 174.97 394.16 175.21 395.84 176.65 395.84 177.13 396.08 178.09 396.08 178.33 396.08 178.57 397.04 179.06 397.52 179.53 397.76 180.01 398.48 180.74 400.16 181.46 400.4 181.94 400.16 182.66 400.4 183.13 401.12 183.85 402.08 184.34 402.56 184.34 403.28 184.57 403.76 184.81 404.48 185.29 404.48 185.53 405.44 186.74 405.92 186.97 406.64 186.97 408.08 186.97 408.32 187.22 408.8 187.46 409.04 187.69 409.52 187.94 410.72 188.66 410.96 188.9 412.16 189.62 412.64 189.85 413.84 190.09 414.8 190.58 415.52 191.3 415.76 191.3 416.48 192.02 416.96 192.26 417.68 193.22 418.16 193.46 418.64 194.18 419.12 194.9 419.12 195.62 419.12 196.58 419.12 196.82 419.36 197.54 420.8 200.42 421.04 200.66 421.76 201.14 422 201.38 422.24 201.62 422.48 202.1 422.48 202.34 422.48 202.58 422.96 203.06 423.2 203.54 423.92 204.02 424.4 204.26 424.88 204.5 425.12 204.5 425.84 204.5 426.8 204.98 427.28 205.46 428.48 206.9 428.72 207.38 429.44 207.86 430.88 207.86 431.36 208.34 431.84 208.58 432.32 209.3 432.8 209.78 433.04 209.78 433.04 210.02 433.76 210.5 434.48 210.74 434.72 210.98 435.44 210.98 438.08 210.98 439.04 210.98 439.52 211.22 440 211.7 440.72 212.42 441.92 213.62 441.92 213.86 442.64 214.58 443.12 215.06 443.36 215.54 443.6 215.78 443.84 216.26 443.6 216.5 443.36 217.22 442.4 218.42 440.96 219.38 440.72 219.62 438.56 221.06 438.32 221.3 438.08 221.78 438.08 222.26 437.84 222.98 437.84 223.46 437.6 224.42 437.6 224.9 437.36 225.14 436.88 225.14 436.64 225.14 436.16 224.9 435.44 225.14 435.2 225.14 435.2 225.38 434.72 225.86 434.72 226.1 434.72 226.34 434.48 226.58 434.48 227.3 434 228.98 433.76 230.18 433.52 230.42 433.28 230.66 432.8 231.14 431.6 231.62 429.92 232.58 429.44 233.06 428.96 233.78 428.48 234.74 428.48 235.22 428.48 235.94 428.72 236.18 428.48 236.9 427.52 237.86 426.56 238.58 426.32 238.82 425.6 239.3 425.12 240.02 424.88 240.26 424.64 240.98 424.64 241.94 424.4 242.42 423.68 243.62 423.68 244.1 423.92 244.34 424.4 244.58 425.12 244.82 425.6 245.06 426.08 245.3 426.8 245.78 427.04 246.02 427.28 246.26 427.76 246.5 428.24 246.98 428.48 246.98 428.72 247.46 429.2 247.94 429.68 248.42 430.64 249.14 430.88 249.62 431.36 249.86 433.04 250.82 433.52 251.06 434 251.3 435.2 251.78 436.64 252.26 437.12 252.74 437.84 252.74 439.04 253.22 439.52 253.46 439.76 253.46 440.48 253.7 441.2 254.18 441.68 254.42 442.4 255.38 443.12 256.34 443.36 257.06 443.6 257.06 443.6 257.3 443.6 257.78 443.84 258.02 443.84 258.26 443.84 258.74 443.84 258.98 443.84 259.22 443.84 259.46 443.6 260.42 442.88 261.62 442.16 262.34 441.92 262.58 441.2 263.3 440.48 264.02 440.24 264.5 439.76 264.74 439.28 265.7 439.04 266.18 438.8 266.42 438.56 266.66 437.36 267.38 436.64 267.86 435.68 268.58 434.24 269.3 433.76 269.78 433.28 270.02 433.04 270.5 432.32 270.98 432.08 271.22 431.84 271.7 431.6 271.94 431.36 272.42 431.12 272.9 431.12 273.62 431.36 274.1 431.6 274.82 431.6 275.78 431.6 276.02 431.36 276.26 431.12 276.5 430.88 276.74 430.16 276.74 429.92 276.74 429.68 276.98 429.68 277.46 430.16 277.46 430.88 277.46 431.6 277.7 433.28 279.14 434 280.1 434.48 280.34 435.2 280.34 435.68 280.34 435.92 280.34 436.4 280.34 436.64 280.34 437.36 281.06 437.84 281.54 438.32 282.5 439.76 283.7 440.48 284.42 441.68 284.9 442.16 285.14 442.64 285.38 443.84 285.86 444.56 286.34 445.04 286.34 445.28 286.58 446 287.3 446.48 287.54 446.72 287.54 446.96 287.54 447.2 287.54 447.68 287.06 448.16 285.86 448.4 284.18 448.88 283.46 449.12 283.46 449.36 283.46 449.36 283.7 449.6 283.7 450.08 284.66 450.56 284.9 451.52 285.14 452 285.14 452.72 285.38 452.96 285.38 453.44 285.62 454.16 286.1 454.88 286.58 455.12 287.3 455.36 288.02 455.6 288.5 456.32 288.98 458 289.46 458.96 289.46 459.44 289.46 459.92 289.46 460.4 289.7 460.88 289.94 461.12 290.42 461.12 290.66 461.6 290.9 461.84 291.14 463.04 291.38 463.76 291.86 464.48 292.34 464.96 292.58 465.44 292.58 466.64 292.1 466.88 292.1 467.36 292.1 467.84 292.1 467.84 292.34 468.08 292.58 468.56 293.78 469.28 294.98 469.76 295.46 470 295.46 470.49 295.94 471.2 296.18 471.69 296.18 472.17 296.18 473.37 295.94 474.08 295.7 474.56 295.46 474.81 295.46 475.76 295.46 476.25 295.7 476.96 295.94 478.17 297.38 478.4 297.62 479.13 297.86 480.08 297.86 480.56 297.86 481.29 297.86 481.76 297.86 482 298.34 482.96 299.54 483.69 300.26 484.64 300.74 484.88 300.74 485.37 300.74 487.76 300.5 488.25 300.26 488.96 300.26 489.93 299.78 490.17 299.54 490.64 299.54 491.13 299.3 491.61 299.3 492.08 299.54 492.57 299.78 492.81 299.54 493.53 299.06 493.77 298.82 494.25 298.58 494.73 298.58 495.21 298.82 496.17 299.06 496.89 299.06 497.37 299.3 497.85 299.78 498.09 299.78 498.57 299.78 499.05 299.54 499.77 299.54 500.01 299.78 500.25 300.02 500.73 300.26 501.21 300.5 501.93 300.74 502.41 300.74 503.37 300.02 504.33 299.54 506.01 299.54 506.97 299.78 508.17 300.26 508.89 300.5 509.85 300.74 510.09 300.74 510.81 300.98 511.29 300.74 511.77 300.74 512.01 300.74 512.49 300.74 512.73 300.74 513.21 300.5 513.69 300.5 514.17 300.74 514.65 300.98 515.13 301.7 515.37 302.43 515.61 302.67 516.09 304.11 516.33 304.58 516.81 306.5 517.53 308.19 517.77 308.9 517.77 309.87 517.77 310.11 518.01 310.82 518.25 312.5 518.25 313.94 518.49 314.67 518.49 316.35 518.49 317.07 518.49 317.31 518.25 317.55 518.25 317.79 518.01 318.27 517.53 318.99 517.29 318.99 516.81 318.99 516.57 319.23 516.09 319.47 515.37 320.43 514.89 320.67 514.41 321.39 514.17 321.63 513.69 322.35 513.45 322.83 513.21 323.07 512.49 323.55 512.01 323.55 511.53 324.03 511.29 324.27 510.57 325.47 509.85 326.43 509.13 327.87 508.65 328.35 507.69 328.83 507.21 328.83 506.01 328.83 505.77 328.83 504.33 330.51 503.61 331.23 503.13 331.47 501.93 332.19 500.25 333.39 499.29 334.35 499.05 334.59 498.81 335.07 498.09 335.79 497.85 336.27 496.41 337.71 495.93 338.43 494.01 340.35 493.29 340.83 492.57 341.79 492.33 342.03 491.61 342.75 491.37 343.47 490.88 344.19 489.69 346.11 489.2 346.83 488.73 347.55 488.25 348.03 487.29 348.51 486.08 349.47 484.64 351.15 483.93 352.11 482.96 353.31 482.49 353.55 481.52 355.47 481.05 355.95 480.81 356.67 480.56 356.91 481.76 357.87 482.73 358.59 483.2 358.83 483.93 359.31 485.61 361.23 486.81 361.95 488 362.91 488.73 363.63 489.44 364.11 489.93 364.59 491.37 365.55 491.85 366.03 492.08 366.51 492.81 367.95 493.29 368.19 493.53 368.43 494.01 368.91 494.25 369.39 494.49 369.87 494.73 370.35 495.21 370.59 496.89 371.55 497.37 372.03 497.13 372.27 496.41 372.51 496.17 372.51 495.45 372.75 494.73 372.75 494.01 372.99 493.53 372.99 493.29 372.75 492.57 372.51 491.85 371.79 491.37 371.07 491.13 370.11 490.88 369.87 490.4 369.15 490.17 368.91 489.69 369.15 488.73 369.39 488.49 369.63 488.25 370.35 488 370.59 487.52 372.51 487.52 372.99 487.76 373.95 487.76 374.91 487.76 375.15 487.76 375.87 487.76 376.35 487.29 377.07 487.05 377.79 486.56 380.19 486.32 380.91 486.32 381.39 486.08 381.87 485.85 382.59 485.85 383.07 485.13 384.27 485.13 384.75 484.88 385.23 484.4 385.95 484.17 387.15 484.17 387.63 483.69 388.11 483.2 388.59 482.73 388.83 482.49 389.55 482.49 390.51 482.25 390.75 482 391.23 481.76 391.23 480.81 391.47 480.32 391.71 480.08 391.71 479.85 391.95 479.37 392.67 479.13 392.67 478.17 393.63 477.44 394.35 476.73 394.59 475.76 395.07 475.52 395.31 475.05 396.03 474.81 396.51 474.56 396.75 473.61 397.23 472.64 397.47 471.69 398.19 471.2 398.43 470.96 398.91 470.49 399.63 470.25 399.87 470 400.11 469.52 400.11 469.28 400.11 468.8 400.11 468.56 400.11 466.88 400.83 465.68 401.07 465.2 401.31 464 402.03 463.28 402.75 463.04 403.23 463.04 403.71 463.04 404.43 462.8 405.63 462.8 406.83 462.8 407.31 462.32 408.27 462.08 408.51 461.6 408.51 460.88 408.75 460.16 408.51 459.92 408.27 459.44 408.27 458.72 408.27 458.24 408.51 458 408.75 458 409.47 457.76 410.43 457.76 411.15 457.76 411.63 457.52 411.87 457.04 412.35 456.08 412.59 455.6 412.59 454.16 412.11 453.68 411.63 453.2 411.63 452.72 411.15 452.48 410.67 452 410.43 451.04 409.47 449.36 408.27 449.12 408.03 448.64 407.79 448.4 407.79 447.68 407.55 447.2 407.79 446.72 408.03 445.76 408.51 444.8 409.23 443.36 409.71 442.88 409.95 441.2 409.71 440 409.71 439.76 409.71 439.28 409.71 438.56 410.19 438.32 410.19 437.6 410.91 436.4 412.11 436.16 412.59 435.92 412.59 434.72 414.51 433.76 415.47 433.52 415.71 432.56 416.67 431.6 417.63 429.44 419.31 428.48 420.03 427.28 420.75 426.08 421.23 425.6 421.47 425.12 421.47 424.16 421.71 422.72 422.19 422.24 422.43 420.32 423.15 419.84 423.15 419.12 423.15 417.44 423.63 415.52 423.63 415.04 423.63 415.04 423.87 414.56 423.87 414.32 424.11 413.84 424.59 413.12 425.07 412.88 425.56 412.64 425.8 412.16 427 410.48 428.68 410 429.15 409.52 429.63 408.8 431.07 408.32 431.8 408.32 433 407.84 434.19 407.12 434.92 406.88 435.39 406.88 435.63 406.64 436.36 406.64 436.83 406.64 437.8 406.4 438.52 406.16 438.52 405.44 438.76 405.2 438.76 404.48 438.76 404.24 438.76 403.52 438.76 403.04 439 402.08 439.24 401.6 439.24 398.48 439.24 398 439 397.04 437.8 395.84 437.32 395.36 437.08 394.4 436.83 393.68 436.83 392.96 436.6 392.24 436.36 391.76 436.36 391.04 436.36 390.8 436.6 390.32 436.6 389.84 436.36 389.36 436.36 388.88 436.12 387.92 436.12 387.68 436.12 387.2 436.12 386.72 436.12 386.24 435.88 385.76 435.88 384.8 436.12 384.56 436.12 383.84 436.12 383.12 436.36 382.16 436.6 381.2 436.6 380.48 436.6 380.24 436.36 379.76 435.88 379.28 435.63 378.32 435.15 377.6 435.15 376.16 434.68 375.68 434.19 374.96 434.19 374.48 434.44 374.24 434.44 374 434.19 373.52 433.95 373.28 433.71 372.8 433.48 372.08 433.24 371.6 433.24 371.36 433 371.12 433.24 370.88 433 370.64 433 370.16 432.27 369.2 432.04 368.48 432.04 367.28 432.51 366.56 433 366.08 433.48 365.36 433.48 364.4 433.24 364.16 433.24 363.92 433.24 363.44 432.75 362.96 432.51 362 432.27 361.52 432.04 361.28 432.04 361.04 431.8 360.56 431.07 360.08 431.07 359.6 431.07 358.88 431.07 358.64 430.83 358.4 430.6 358.16 430.36 357.92 430.12 357.68 430.12 357.2 429.88 356.96 429.88 356.24 429.39 355.28 429.15 354.56 429.15 354.32 429.15 354.08 428.44 353.84 428.19 353.12 427.71 352.88 427.71 352.64 427.95 352.16 428.19 351.68 428.44 351.2 428.44 350.48 427.95 350.24 427.48 350 427.24 349.76 426.27 349.28 425.56 348.56 425.31 347.36 425.07 347.12 425.07 346.64 424.83 346.16 424.35 345.92 424.11 345.44 423.15 344.96 422.67 344.48 422.43 344.24 422.43 343.76 422.19 343.04 421.95 341.36 421.71 341.12 421.71 340.64 421.47 340.16 420.75 339.92 420.51 338.96 420.27 338.48 420.03 338.24 419.55 337.76 419.07 337.52 418.83 337.04 418.59 335.84 418.35 335.36 418.11 335.12 417.87 334.88 417.63 334.64 416.91 334.16 416.43 333.68 416.19 333.2 415.95 332.96 415.47 332 414.51 331.52 414.03 330.8 414.03 329.36 413.31 328.64 413.31 328.16 413.31 327.68 413.31 326.96 413.31 326.48 413.07 326.24 412.83 325.76 411.87 325.52 411.39 324.56 410.91 324.08 410.67 323.12 410.67 322.4 410.43 321.68 410.19 320.72 409.71 319.76 408.51 318.8 408.03 318.56 407.79 317.6 407.55 316.88 407.55 316.16 407.31 314 405.87 313.28 405.63 313.04 405.39 312.56 405.39 311.6 405.63 310.64 405.87 309.92 406.11 309.44 406.59 308.72 407.31 308.24 407.79 307.76 408.27 307.28 408.51 307.04 408.75 306.8 408.75 306.56 408.75 306.08 408.75 305.84 408.51 305.36 407.79 304.88 407.31 304.64 407.31 304.16 407.07 303.92 407.07 303.2 407.31 302.72 407.31 302.24 407.31 301.52 406.83 301.04 406.83 300.8 406.83 300.32 406.83 299.84 407.07 298.64 407.31 297.92 407.31 297.68 407.55 296.96 407.55 295.76 407.55 294.8 407.31 293.84 407.31 292.64 407.79 292.16 407.79 291.68 407.55 290.96 407.31 290.48 406.59 290.24 406.35 290 406.11 289.52 405.87 289.04 405.87 288.56 405.63 288.08 405.39 287.6 404.91 287.36 404.19 287.12 403.95 286.64 403.23 286.4 403.23 285.68 403.23 284.96 403.47 284.48 403.47 284 403.23 283.04 402.51 282.08 402.27 281.6 402.03 281.12 401.79 280.88 401.55 281.6 400.59 282.56 400.11 283.04 399.63 283.28 399.15 283.52 398.67 283.76 397.95 283.76 396.99 283.76 396.51 283.52 396.03 283.52 395.79" style="fill:none;stroke:#005ce6;stroke-linecap:round;stroke-linejoin:round;stroke-width:1.440060019493103px"/><polyline points="283.52 395.79 283.04 395.07 282.56 394.35 281.36 393.39 280.4 392.43 279.92 392.19 279.92 391.71 279.92 391.23 279.92 390.27 279.92 389.79 280.4 389.07 281.12 388.11 282.32 387.15 283.28 386.67 284 385.95 284.96 385.23 285.2 384.99 286.4 384.03 287.12 383.55 287.84 382.35 287.84 382.11 288.32 381.15 288.32 380.91 288.32 379.95 288.32 378.99 288.08 378.51 288.08 377.55 287.84 376.83 287.84 375.87 287.84 375.15 287.6 373.95 287.6 373.71 287.36 372.99 286.64 371.79 286.4 371.55 286.4 371.31 286.16 370.83 285.68 369.87 285.68 366.51 285.44 365.55 285.2 365.07 284.96 364.83 284.48 364.11 284.24 363.87 284 363.63 283.52 362.67 283.28 362.19 283.04 361.95 282.8 361.71 282.08 361.47 281.6 361.23 281.36 360.99 281.12 360.99 280.64 360.75 280.16 360.51 279.92 360.27 279.68 359.55 279.2 358.83 279.44 357.87 279.2 356.67 278.96 355.23 278.72 354.51 278.48 353.55 278 353.07 277.76 352.59 277.04 352.35 276.8 352.11 275.36 351.63 274.64 351.39 273.92 351.63 272.96 351.87 272.48 352.35 272 352.59 271.28 352.83 270.56 353.31 269.84 353.31 269.12 353.31 268.88 353.31 268.16 353.31 267.19 353.31 266.48 353.31 266 352.83 265.51 352.35 265.04 351.39 264.8 349.71 264.56 348.75 264.56 347.31 264.56 345.87 263.83 344.91 263.12 342.75 262.63 341.79 261.68 341.07 260.48 340.59 259.27 340.59 256.88 340.59 255.68 340.59 255.44 340.59 254.47 340.35 254 340.59 253.75 340.59 253.51 340.83 252.79 341.07 252.56 341.31 251.59 341.31 250.4 341.55 249.68 341.31 249.19 341.07 248.47 340.59 248 340.59 247.03 339.87 246.07 339.39 245.11 338.43 243.91 337.47 243.67 337.23 242.95 336.75 240.55 335.07 240.31 334.83 239.83 334.35 239.35 333.87 239.11 333.63 237.91 332.91 237.43 332.19 236.95 331.95 236.71 331.47 235.51 330.27 234.55 329.79 234.31 329.31 231.19 327.39 230.95 327.15 230.47 326.91 229.75 326.43 228.79 325.71 227.59 324.75 226.63 324.75 225.67 324.75 225.19 324.99 224.23 324.99 222.07 325.23 220.87 325.23 220.15 324.99 219.67 324.27 219.43 324.03 219.43 323.79 219.19 323.31 219.19 323.07 218.95 322.35 218.95 320.43 218.95 319.47 218.95 319.23 219.19 318.51 219.19 318.27 218.71 317.79 217.51 317.55 217.27 317.31 216.79 317.31 212.95 318.03 211.51 318.27 209.35 318.03 208.87 317.79 208.63 317.55 208.39 317.31 207.67 317.07 204.55 315.63 203.59 314.91 202.39 314.43 201.67 313.46 200.23 312.5 199.99 312.02 199.51 311.06 199.27 310.11 199.03 308.19 198.79 307.23 198.55 306.75 197.83 305.06 197.59 305.06 196.63 304.58 195.67 303.87 194.71 303.38 193.51 303.14 191.83 303.14 191.35 303.14 190.63 303.14 189.91 303.14 188.95 303.14 188.23 302.67 187.75 301.7 186.79 298.82 186.79 297.86 187.03 297.14 187.75 295.7 188.23 294.26 188.95 293.06 189.19 291.86 189.43 288.98 189.19 288.5 188.95 288.02 188.23 287.78 187.75 287.3 187.03 287.06 183.91 286.58 181.99 285.62 181.51 284.66 181.27 283.94 180.79 282.26 181.03 281.54 181.03 281.3 181.75 276.98 181.75 276.26 181.99 275.78 181.99 275.06 181.03 271.46 180.55 269.78 180.55 268.1 180.79 267.14 181.03 266.42 181.03 266.18 181.51 265.46 183.43 263.06 184.39 260.66 184.87 259.46 184.87 258.5 184.87 257.3 184.63 256.82 184.15 256.58 184.15 256.34 183.67 256.1 182.23 255.38 180.07 255.14 179.83 255.14 177.43 254.66 176.95 254.42 175.27 252.98 174.31 251.78 173.59 249.62 173.35 246.26 173.35 245.3 173.35 244.34 173.59 243.14 173.83 242.66 174.31 241.46 174.79 239.78 176.23 236.9 176.47 236.18 176.47 235.7 175.99 234.5 175.51 233.78 175.51 233.54 174.79 231.86 174.79 231.62 175.03 230.66 175.03 229.7 175.03 228.98 174.79 227.78 174.07 225.38 174.07 224.66 174.07 224.18 174.31 223.46 174.55 222.74 174.79 221.54 174.55 218.9 174.79 217.7 174.31 216.02 174.31 215.54 174.07 215.3 173.59 214.58 173.35 213.62 173.11 212.66 172.87 212.18 172.15 211.46 171.91 211.46 170.23 210.5 169.27 209.3 169.03 208.82 168.79 207.86 168.79 204.26 168.79 204.02 167.35 202.58 167.35 202.34 165.91 201.38 164.71 200.9 163.75 200.18 163.03 199.94 161.11 198.98 160.63 198.26 160.39 197.06 159.91 194.66 158.95 192.74 157.51 191.54 156.07 190.09 154.87 188.9 154.63 188.41 154.39 188.41 153.67 187.69 153.43 187.46 148.87 183.38 147.91 181.69 147.19 180.5 146.47 179.78 145.51 178.57 144.07 177.61 142.63 176.65 142.15 176.17 141.67 175.93 141.67 175.69 140.23 174.49 139.03 173.53 136.87 172.33 136.63 172.09 135.91 171.61 134.71 171.13 134.47 170.89 133.99 169.69 132.79 165.85 132.55 163.93 132.31 162.97 132.31 162.01 132.31 161.77 132.07 161.77 131.35 160.33 131.11 160.09 130.39 159.85 128.71 160.09 126.79 160.33 126.31 160.33 125.11 160.09 124.63 159.85 124.15 158.89 123.43 155.77 123.43 154.57 123.43 153.61 123.43 150.25 123.43 149.29 124.63 147.37 124.63 145.69 124.63 144.97 124.63 144.73 124.39 144.25 123.91 143.77 123.19 142.09 121.75 139.21 121.51 138.73 121.51 138.49 121.27 138.49 121.27 138.25 120.55 136.57 120.07 135.61 119.83 132.97 119.59 130.57 119.83 128.65 119.83 128.41 121.03 123.85 122.23 119.29 121.99 117.85 121.75 116.41 121.75 115.45 121.75 114.73 122.47 112.33 122.71 112.33 123.67 110.41 124.15 109.45 125.83 107.29 126.31 106.09 125.59 103.45 125.59 103.21 125.35 102.49 125.59 101.53 126.07 100.81 126.31 100.33 127.99 99.85 128.71 99.85 129.67 99.37 129.67 99.13 129.91 99.13 129.91 98.89 130.39 98.65 132.55 98.17 134.71 98.65 135.43 98.65 135.67 98.41 135.91 97.93 135.91 97.69 135.91 96.73 135.91 96.01 135.91 95.53 136.63 94.81 137.59 94.33 139.99 92.41 141.91 91.21 142.63 90.73 143.83 90.49 144.55 90.25 147.91 89.53 148.63 89.29 148.87 89.05 149.59 88.33 149.59 87.61 150.07 85.93 150.55 84.73 151.27 84.01 152.71 83.29 153.43 82.57 154.39 81.61 155.11 80.65 155.11 80.41 155.59 78.01 155.83 77.29 156.31 76.81 158.71 74.89 161.11 73.93 161.59 73.21 162.07 72.49 162.07 71.53 162.07 71.05 162.31 70.81 162.31 70.57 164.47 70.33 165.19 70.33 167.83 70.09 168.55 70.09 169.27 70.33 169.51 70.57 169.75 70.57 170.95 71.29 171.91 72.25 174.31 72.73 175.03 73.21 176.23 74.17 176.95 74.17 177.91 74.89 178.15 74.89 179.83 75.85 181.27 76.09 181.99 76.33 182.71 77.05 184.63 78.01 185.83 78.73 187.51 79.21 187.75 79.21 189.67 80.17 191.35 80.65 192.31 81.37 193.51 81.85 194.47 82.81 195.43 84.01 195.91 84.01 196.63 84.01 197.11 83.77 197.35 83.77 198.07 83.77 198.55 84.01 199.03 84.01 199.99 84.25 201.19 84.97 201.67 85.21 203.83 86.41 204.55 86.41 206.23 87.37 208.87 88.81 209.11 88.81 210.07 88.81 211.99 89.29 212.47 89.29 213.43 89.29 214.87 89.29 215.35 90.97 215.59 91.69 216.07 93.13 216.31 93.37 216.31 93.61 216.55 94.09 217.27 94.81 217.51 95.29 217.51 96.97 217.75 97.45 218.47 98.89 218.47 99.37 218.23 99.61 218.23 100.33 218.23 100.57 218.23 100.81 219.43 102.73 219.43 103.21 220.87 105.85 221.35 106.33 221.59 106.81 223.03 107.77 224.23 108.97 224.47 109.45 225.19 110.65 225.19 111.37 225.43 113.05 225.91 114.49 226.15 115.21 227.35 115.93 227.59 115.93 228.07 115.69 229.51 116.17 230.71 116.89 231.43 117.37 232.15 118.33 232.39 119.53 232.39 120.01 232.63 120.49 233.59 121.69 234.55 122.65 234.79 122.89 235.03 123.13 235.27 123.13 238.63 124.57 239.35 124.57 240.07 124.57 242.47 126.97 243.91 129.37 244.63 130.09 244.87 130.33 245.84 130.81 246.56 131.29 247.03 131.77 248.24 131.53 249.19 132.25 249.44 132.25 249.91 132.01 250.16 132.25 250.4 132.49 249.91 133.45 249.68 134.17 249.44 134.89 249.44 135.13 249.68 136.33 249.68 136.81 249.91 137.29 249.91 138.01 250.16 138.49 250.16 138.97 250.63 139.69 250.88 139.69 254 140.89 254.72 141.37 256.15 142.33 257.83 143.53 259.27 145.21 259.75 145.69 262.39 146.41 263.36 146.89 263.83 146.65 264.8 146.65 265.51 146.41 266.48 145.93 267.19 145.69 269.6 145.69 270.32 145.45 271.52 144.73 272.48 144.49 272.72 144.25 273.44 143.29 275.12 141.37 275.12 141.13 274.88 140.41 275.12 139.69 277.04 138.25 278.96 135.85 279.44 134.89 280.64 133.93 281.12 133.21 281.36 132.49 281.84 130.57 282.08 129.85 282.08 129.61 282.08 129.37 282.56 127.69 282.56 127.21 283.28 126.01 284 125.05 284.48 124.81 285.92 124.57 286.16 124.09 286.4 123.37 287.6 121.93 287.84 121.45 288.32 119.53 288.32 119.29 288.08 117.37 288.08 115.69 288.32 114.73 288.32 114.25 288.8 113.53 289.76 112.57 290.96 111.37 292.4 110.65 293.12 110.17 294.08 109.21 295.04 107.77 296.48 106.57 296.72 106.09 296.72 105.85 296 105.13 295.76 104.89 295.76 104.65 295.76 104.41 295.76 104.17 296 103.69 295.76 102.97 295.76 102.73 295.76 101.29 295.52 100.81 295.28 100.57 295.04 99.61 295.04 99.37 295.04 98.89 294.08 96.73 294.08 95.77 294.08 95.53 294.32 95.29 294.56 94.81 294.56 94.57 294.56 93.37 295.04 92.65 295.28 92.17 295.52 91.21 295.76 90.49 296 90.01 296.24 89.53 296.48 89.05 297.2 87.85 297.68 87.13 297.92 86.41 298.4 85.69 299.12 84.97 300.32 84.25 300.8 83.29 301.04 83.05 301.04 82.33 300.56 80.89 300.56 80.17 300.8 79.93 300.8 79.45 301.04 78.49 301.04 77.77 301.04 77.29 302 76.09 302 75.61 302 74.17 302 73.93 302.24 73.69 302.96 72.97 303.44 72.25 303.68 72.01 304.16 70.57 304.4 69.61 304.64 69.13 304.88 68.89 305.12 68.41 305.36 67.69 305.36 66.97 305.6 66.72 305.84 66.25 306.32 65.77 307.52 64.56 308.24 63.13 308.48 62.88 308.48 62.41 308.96 61.92 310.4 60.97 310.64 60.73 310.64 60.48 310.88 60.48 310.16 59.52 309.92 59.28 309.92 58.8 309.92 58.56 309.92 58.09 311.12 58.56 312.56 59.05 313.52 59.77 314.24 59.77 314.96 60.24 315.2 60.24 315.68 59.77 315.92 59.77 318.32 59.05 319.28 58.56 320.24 58.09 321.44 57.84 323.36 56.88 324.08 56.65 324.32 56.65 325.04 56.88 326 56.65 327.44 56.65 327.92 56.65" style="fill:none;stroke:#005ce6;stroke-linecap:round;stroke-linejoin:round;stroke-width:1.440060019493103px"/><polyline points="284.48 403.47 284.96 403.47 285.68 403.23 286.4 403.23 286.64 403.23 287.12 403.95 287.36 404.19 287.6 404.91 288.08 405.39 288.56 405.63 289.04 405.87 289.52 405.87 290 406.11 290.24 406.35 290.48 406.59 290.96 407.31 291.68 407.55 292.16 407.79 292.64 407.79 293.84 407.31 294.8 407.31 295.76 407.55 296.96 407.55 297.68 407.55 297.92 407.31 298.64 407.31 299.84 407.07 300.32 406.83 300.8 406.83 301.04 406.83 301.52 406.83 302.24 407.31 302.72 407.31 303.2 407.31 303.92 407.07 304.16 407.07 304.64 407.31 304.88 407.31 305.36 407.79 305.84 408.51 306.08 408.75 306.56 408.75 306.8 408.75 307.04 408.75 307.28 408.51 307.76 408.27 308.24 407.79 308.72 407.31 309.44 406.59 309.92 406.11 310.64 405.87 311.6 405.63 312.56 405.39 313.04 405.39 313.28 405.63 314 405.87 316.16 407.31 316.88 407.55 317.6 407.55 318.56 407.79 318.8 408.03 319.76 408.51 320.72 409.71 321.68 410.19 322.4 410.43 323.12 410.67 324.08 410.67 324.56 410.91 325.52 411.39 325.76 411.87 326.24 412.83 326.48 413.07 326.96 413.31 327.68 413.31 328.16 413.31 328.64 413.31 329.36 413.31 330.8 414.03 331.52 414.03 332 414.51 332.96 415.47 333.2 415.95 333.68 416.19 334.16 416.43 334.64 416.91 334.88 417.63 335.12 417.87 335.36 418.11 335.84 418.35 337.04 418.59 337.52 418.83 337.76 419.07 338.24 419.55 338.48 420.03 338.96 420.27 339.92 420.51 340.16 420.75 340.64 421.47 341.12 421.71 341.36 421.71 343.04 421.95 343.76 422.19 344.24 422.43 344.48 422.43 344.96 422.67 345.44 423.15 345.92 424.11 346.16 424.35 346.64 424.83 347.12 425.07 347.36 425.07 348.56 425.31 349.28 425.56 349.76 426.27 350 427.24 350.24 427.48 350.48 427.95 351.2 428.44 351.68 428.44 352.16 428.19 352.64 427.95 352.88 427.71 353.12 427.71 353.84 428.19 354.08 428.44 354.32 429.15 354.56 429.15 355.28 429.15 356.24 429.39 356.96 429.88 357.2 429.88 357.68 430.12 357.92 430.12 358.16 430.36 358.4 430.6 358.64 430.83 358.88 431.07 359.6 431.07 360.08 431.07 360.56 431.07 361.04 431.8 361.28 432.04 361.52 432.04 362 432.27 362.96 432.51 363.44 432.75 363.92 433.24 364.16 433.24 364.4 433.24 365.36 433.48 366.08 433.48 366.56 433 367.28 432.51 368.48 432.04 369.2 432.04 370.16 432.27 370.64 433 370.88 433 371.12 433.24 371.36 433 371.6 433.24 372.08 433.24 372.8 433.48 373.28 433.71 373.52 433.95 374 434.19 374.24 434.44 374.48 434.44 374.96 434.19 375.68 434.19 376.16 434.68 377.6 435.15 378.32 435.15 379.28 435.63 379.76 435.88 380.24 436.36 380.48 436.6 381.2 436.6 382.16 436.6 383.12 436.36 383.84 436.12 384.56 436.12 384.8 436.12 385.76 435.88 386.24 435.88 386.72 436.12 387.2 436.12 387.68 436.12 387.92 436.12 388.88 436.12 389.36 436.36 389.84 436.36 390.32 436.6 390.8 436.6 391.04 436.36 391.76 436.36 392.24 436.36 392.96 436.6 393.68 436.83 394.4 436.83 395.36 437.08 395.84 437.32 397.04 437.8 398 439 398.48 439.24 401.6 439.24 402.08 439.24 403.04 439 403.52 438.76 404.24 438.76 404.48 438.76 405.2 438.76 405.44 438.76 406.16 438.52 406.4 438.52 406.64 437.8 406.64 436.83 406.64 436.36 406.88 435.63 406.88 435.39 407.12 434.92 407.84 434.19 408.32 433 408.32 431.8 408.8 431.07 409.52 429.63 410 429.15 410.48 428.68 412.16 427 412.64 425.8 412.88 425.56 413.12 425.07 413.84 424.59 414.32 424.11 414.56 423.87 415.04 423.87 415.28 424.35 415.28 424.83 415.52 425.8 415.76 426.04 415.76 426.75 416.24 428.92 416.48 429.88 416.48 430.6 416.72 432.27 416.72 433 416.72 433.71 416.96 434.19 416.96 434.92 416.96 436.12 416.96 437.08 416.72 437.56 416.96 438.28 416.96 438.52 417.44 439 417.92 439.48 418.16 439.72 418.4 440.68 418.88 441.88 418.88 442.12 419.12 442.84 419.12 443.08 419.6 443.8 420.32 444.52 421.04 445.48 421.52 446.68 421.76 447.16 422 447.88 422.24 448.84 422.72 449.08 422.96 449.56 423.2 450.52 423.44 451.24 423.44 451.96 423.44 452.44 423.44 453.16 423.68 453.64 423.92 453.88 424.64 454.36 425.12 454.6 425.36 454.84 425.6 455.08 426.08 455.8 426.56 456.04 427.76 456.28 428.24 456.52 428.48 456.76 428.72 457.24 429.2 457.72 430.16 458.44 429.68 458.92 429.2 459.4 428.96 459.88 428.48 460.6 428.24 461.8 427.76 462.76 427.04 463.24 425.84 464.44 425.12 464.92 424.88 465.16 424.88 465.4 424.64 466.12 424.4 466.6 424.64 467.8 424.4 468.28 424.4 468.52 423.92 468.76 423.68 469 423.44 469 422 469.48 421.52 469.72 421.28 470.2 421.28 470.44 421.28 470.92 421.28 471.4 421.52 471.64 422 472.12 422.48 472.6 423.44 473.32 423.68 474.28 423.92 474.76 424.16 475.24 424.64 475.72 425.36 476.44 426.08 477.4 426.56 478.12 427.52 480.52 427.76 481.24 427.52 481.96 427.28 482.2 427.28 482.44 427.04 482.68 427.04 483.16 427.04 483.64 427.28 484.36 427.52 485.56 427.52 486.76 427.52 487.24 427.28 487.96 426.56 489.4 426.32 489.64 425.36 490.6 424.16 491.56 423.68 492.04 423.2 492.76 422.96 493.48 422.72 494.2 422.48 495.16 422 495.64 421.28 496.12 421.04 496.6 420.8 497.32 420.56 498.28 420.32 498.76 419.84 500.44 419.84 500.92 419.84 501.16 419.12 501.4 417.92 501.88 417.44 501.88 416.96 501.64 416.24 501.4 415.76 501.4 415.04 501.4 414.32 501.4 413.36 500.92 413.12 500.68 411.44 499.24 411.44 499 410.72 498.76 410.48 498.52 409.76 498.52 409.28 498.52 408.56 498.28 407.84 498.04 406.88 497.8 405.2 497.8 404.48 497.56 403.28 497.32 403.04 497.08 402.32 497.08 401.84 496.84 400.88 497.08 400.16 497.56 399.44 497.56 399.2 497.8 398.96 497.8 397.52 497.8 397.28 497.56 396.56 497.56 394.64 497.08 393.44 496.84 393.2 496.84 391.76 496.12 391.28 496.12 390.56 496.12 389.84 496.12 388.88 496.36 388.4 496.36 387.44 496.6 386.48 496.6 384.56 496.84 382.64 497.56 381.2 497.8 380.96 497.8 380 497.8 378.32 497.8 376.4 498.04 375.92 497.8 375.2 497.8 374.72 498.04 374.24 498.52 374 498.76 373.76 499.48 373.04 500.68 372.56 500.92 372.08 501.4 369.68 503.32 368.96 503.8 368.72 504.04 368.48 504.76 368.24 505.24 368.24 505.96 368 506.2 367.76 506.68 367.04 507.64 365.36 508.84 364.88 509.32 364.64 509.56 364.64 509.8 364.4 510.76 363.92 511.24 363.2 512.2 362.72 512.44 362 512.92 361.28 513.16 360.8 513.4 360.32 513.88 360.08 514.6 359.6 515.32 359.36 515.8 359.12 516.28 358.64 516.52 357.92 517.24 357.2 518.2 356.72 518.92 356.24 519.4 355.04 520.36 354.32 520.84 353.36 521.08 352.16 521.32 351.92 521.32 351.2 521.32 350.96 521.32 350.72 521.32 350 521.8 349.28 522.28 348.08 522.52 347.12 522.76 346.88 523 345.92 523.24 344.72 524.44 343.52 525.88 343.04 526.36 342.8 526.84 341.36 528.28 341.12 528.76 340.64 530.2 340.4 530.68 340.16 530.92 339.68 531.88 339.68 532.36 339.68 532.84 340.64 533.8 340.88 534.52 340.88 535.24 340.88 535.72 340.64 536.92 340.64 537.4 340.64 537.88 340.64 538.12 340.4 538.6 339.68 540.04 338.96 541.96 338.96 542.44 338.72 543.16 338.24 544.36 338.24 544.6 338.48 545.08 338.48 545.8 337.76 547.48 337.76 547.96 337.28 548.68 337.04 548.68 336.56 549.16 336.32 549.4 335.6 549.4 335.84 549.64 336.08 549.88 336.8 550.61 337.04 550.61 337.28 550.61 338 551.33 338.24 551.8 338.24 552.04 338.24 552.28 338.48 552.52 338.96 552.52 339.68 552.52 340.88 552.76 341.36 553 341.36 553.25 342.32 553.49 343.04 553.73 343.52 553.97 344 554.68 344.48 555.4 344.72 555.64 344.96 555.88 345.92 556.13 347.84 556.85 348.8 557.09 349.28 557.57 349.76 557.8 350.96 558.28 350.96 558.52 351.68 559 352.64 560.21 353.6 560.93 355.04 563.09 356.48 564.77 356.48 565.01 356.72 565.49 356.96 566.21 357.2 566.69 357.68 567.17 358.4 567.41 358.64 567.65 359.12 567.89 361.28 568.61 361.76 568.85 362.24 569.09 362.48 569.33 364.16 570.29 364.88 570.77 365.36 571.01 365.6 571.25 366.32 571.97 366.8 572.21 368.24 573.41 369.44 574.13 370.16 574.61 370.88 575.09 371.12 575.33 372.56 576.53 373.04 577.49 373.52 578.21 373.76 578.93 374 579.41 373.76 579.65 373.52 579.89 372.8 579.89 372.08 579.65 371.12 579.65 370.4 579.65 369.68 579.65 369.2 579.89 368.48 580.37 368 580.61 367.28 581.33 366.32 582.29 366.08 582.53 365.12 583.49 364.88 583.49 364.4 583.97 363.92 584.21 362.72 585.41 361.76 587.09 361.28 588.29 360.8 589.49 360.56 590.45 359.6 592.13 359.36 593.09 358.88 594.29 357.44 596.45 357.2 596.93 356.72 597.17 356 597.65 354.56 599.09 354.32 599.33 353.84 599.57 353.12 599.57 352.64 599.57 352.16 599.57 350.96 599.57 350 599.57 349.52 599.81 348.56 600.05 348.56 600.29 347.84 600.53 347.36 600.53 346.16 600.53 345.44 600.53 344.96 600.53 344.48 600.29 343.52 599.81 343.04 599.57 342.32 599.33 341.12 599.33 339.92 599.09 337.76 599.09 337.04 599.09 336.32 598.85 335.84 598.85 335.12 599.09 334.4 598.85 333.92 598.85 333.68 598.61 333.44 598.61 333.2 598.61 332.72 598.85 333.2 599.09 333.2 599.57 334.16 600.29 334.64 601.01 335.12 601.49 335.6 602.21 335.84 602.45 336.08 602.93 337.04 603.41 337.28 603.89 338.24 604.61 338.72 605.09 338.96 605.33 340.64 606.53 341.36 607.01 341.84 607.73 342.56 608.69 342.8 609.41 343.28 610.37 343.52 610.85 343.52 611.33 343.52 611.57 343.04 611.81 342.56 612.05 341.84 612.53 341.6 612.77 341.12 613.25 340.88 613.97 340.88 614.69 340.88 615.65 340.88 616.37 341.12 618.29 341.12 618.77 341.12 619.97 341.12 620.45 340.88 621.41 340.64 622.13 340.4 622.85 340.4 623.09 340.4 623.57 340.16 623.81 340.4 624.05 340.64 624.29 340.88 624.29 341.12 624.53 341.6 624.77 341.84 624.77 342.56 625.49 343.28 626.21 344 627.41 344.24 628.37 344.48 630.53 344.72 634.13 344.96 635.81 344.96 636.77 344.96 638.21 345.2 638.93 345.2 639.41 345.2 639.65 345.44 639.89 345.44 640.13 346.16 642.29 346.4 642.77 346.4 643.25 346.4 643.49 346.88 645.41 346.88 645.65 346.64 646.13 346.4 646.61 345.2 647.09 344.48 647.57 344 648.05 343.76 648.77 343.52 649.01 343.52 649.25 343.28 650.21 343.04 650.45 342.32 650.93 341.6 651.17 340.88 651.41 339.92 651.89 339.68 652.13 338.72 653.57 338.48 654.05 338 655.01 337.76 655.73 337.28 658.13 337.04 658.85 337.04 659.09 336.8 659.33 336.8 659.57 336.56 659.81 336.32 660.05 334.88 660.53 334.4 660.77 332.72 661.73 332.24 661.97 331.76 662.45 331.76 662.93 331.52 663.41 331.52 663.89 331.28 664.37 330.8 664.85 330.56 664.85 330.08 665.09 329.12 665.09 328.4 665.09 326.72 665.81 326 665.81 325.28 665.57 324.32 665.09 323.84 664.85 323.36 665.09 322.64 665.57 322.16 665.57 321.68 665.33 321.44 665.09 321.2 664.85 320.72 664.61 320 664.85 318.56 665.09 317.6 665.33 317.84 666.05 317.6 667.01 317.12 668.21 317.12 668.45 316.64 669.41 316.4 669.89 316.16 670.61 316.16 671.09 315.92 671.34 315.2 672.77 314.96 673.25 314.48 673.5 314.24 673.5 314 673.74 314 673.98 314.24 674.22 314.48 674.7 315.2 674.7 315.68 674.93 316.16 675.41 316.4 675.65 316.88 675.89 317.12 676.38 317.6 676.62 318.08 677.1 318.08 677.34 318.08 677.82 317.12 678.53 316.64 679.01 316.64 679.74 316.64 680.46 316.64 680.7 316.64 681.41 316.64 681.89 316.64 682.13 316.88 682.13 317.12 682.38 317.36 682.86 317.6 683.82 317.6 684.06 317.36 684.54 316.88 684.78 316.64 685.26 316.4 685.5 316.4 685.74 316.64 686.22 316.4 686.22 316.4 686.7 316.16 686.94 315.92 687.18 315.68 687.66 315.44 687.9 315.2 688.14 314.96 688.38 314.48 688.14 314 687.66 313.76 687.42 313.28 687.18 312.8 687.42 312.56 687.66 312.08 688.14 311.84 688.62 310.88 688.86 310.4 688.86 309.68 689.1 309.44 689.34 309.2 689.58 309.2 690.06 309.2 690.54 309.68 691.02 309.92 691.02 310.16 691.26 310.4 691.5 310.4 691.98 310.64 692.22 311.36 692.22 311.6 692.22 311.84 692.46 311.84 692.7 311.84 692.94 311.84 693.18 311.84 693.9 311.84 694.38 312.08 695.82 312.8 698.22 313.28 699.66 313.28 699.9 313.76 699.66 314.48 698.94 315.68 698.46 316.64 697.98 317.12 697.74 318.08 697.5 318.32 697.5 318.56 697.5 319.28 697.74 319.76 697.98 320.72 698.7 322.16 698.94 322.64 699.18 323.36 699.18 323.6 699.42 323.6 699.9 323.6 700.14 322.88 701.34 322.4 701.58 322.16 702.06 321.44 702.78 321.2 703.02 320.48 703.5 320.24 704.22 319.76 704.7 319.28 706.62 318.8 707.34 318.32 708.06 317.84 708.78 317.6 709.02 316.88 709.74 316.64 709.98 315.68 709.5 315.2 709.26 314.96 709.02 314 708.3 313.28 707.82 312.56 707.1 312.08 706.86 311.6 706.62 311.12 706.38 310.64 706.38 309.92 706.38 309.68 706.62 309.44 706.86 309.44 707.34 309.2 707.82 308.96 708.3 308.96 708.54 308.96 708.78 308.72 709.74 308.72 710.46 308.72 711.18 308 712.62 308 713.1 307.76 713.58 305.84 716.46 305.36 717.18 304.88 717.66 304.64 717.9 303.44 718.38 302 719.1 300.56 719.82 300.08 720.06 299.36 720.06 298.88 720.3 297.92 721.02 297.44 721.74 296.72 722.46 294.32 724.38 293.6 724.86 293.12 725.1 292.64 725.34 291.68 725.58 291.44 725.82 291.2 725.82 290.48 726.06 290 726.06 289.28 726.3 288.56 726.54 288.08 726.54 287.84 726.3 287.36 726.3 286.4 725.82 285.92 725.82 285.68 725.82 285.44 725.82 285.2 725.82 284.96 725.82 284.48 725.1 284.48 724.62 284.24 724.86 284 727.02 283.28 728.7 283.04 729.66 282.56 730.62 282.08 731.1 281.36 731.1 280.64 731.34 277.52 731.1 275.6 730.86 274.4 730.62 274.16 730.62 273.68 730.86 272.96 730.86 272.24 730.86 271.76 731.1 271.28 731.58 270.8 732.06 270.56 732.54 270.32 732.3 269.84 731.58 269.36 731.82 267.92 732.3 267.68 732.54 266.24 733.02 265.04 733.5 264.07 733.74 263.36 734.22 261.19 735.18 260.71 735.42 260.48 735.66 259.27 735.9 258.8 736.14 258.31 736.38 258.07 736.38 257.12 735.9 256.39 735.9 254.72 735.42 254.24 735.18 252.56 734.7 250.4 734.7 249.68 734.7 249.44 734.7 248 734.46 246.56 734.46 246.31 734.46 245.35 733.98 244.39 733.74 243.67 733.74 242.95 733.5 242.47 733.02 240.79 731.82 239.83 731.34 239.11 730.86 238.39 730.38 237.91 730.14 237.67 729.9 236.95 729.9 236.23 729.9 235.51 729.42 234.79 728.94 234.31 728.7 233.83 728.22 233.35 727.74 232.87 727.26 232.63 726.78 232.15 726.3 231.91 725.82 231.67 725.58 231.43 725.34 230.71 724.86 230.23 724.86 229.75 724.86 228.07 725.34 227.35 725.58 225.91 726.06 222.79 727.26 221.83 727.74 220.87 728.22 220.15 728.46 219.67 728.94 219.19 729.42 218.95 729.66 217.03 731.34 216.31 732.3 216.07 732.78 215.83 733.26 215.59 733.5 214.63 734.7 213.91 735.66 213.43 736.86 213.43 737.58 213.43 738.06 213.43 738.54 213.43 739.98 213.43 741.18 213.43 742.14 213.43 743.34 213.67 744.06 213.91 745.98 213.91 746.7 213.67 746.94 213.43 747.18" style="fill:none;stroke:#005ce6;stroke-linecap:round;stroke-linejoin:round;stroke-width:1.440060019493103px"/><polyline points="213.43 747.18 212.95 747.18 212.47 746.94 211.51 746.46 211.27 746.22 210.79 745.26 210.55 744.78 210.31 744.06 209.83 743.58 209.59 743.34 209.11 742.86 207.91 742.38 207.67 741.9 207.19 741.9 206.95 741.66 205.99 741.9 204.79 742.14 204.31 742.38 203.83 742.38 203.35 742.14 203.11 741.9 202.63 741.42 202.15 741.18 201.67 741.18 200.47 741.18 199.99 740.94 199.03 739.98 198.79 739.74 198.31 739.26 197.35 738.54 196.87 738.3 195.67 737.58 195.19 737.1 195.19 736.62 194.95 736.38 194.71 736.14 194.71 735.9 194.23 736.14 193.99 736.38 193.75 736.62 193.03 736.62 192.55 736.62 192.07 736.38 191.83 736.14 191.35 735.9 190.87 735.66 190.63 735.18 190.15 734.94 189.43 734.7 188.71 734.46 188.47 734.46 187.75 734.7 186.79 734.94 186.79 735.18 186.31 735.42 185.83 735.66 185.59 736.14 185.35 736.38 184.63 737.82 184.15 738.3 183.67 738.78 183.19 738.78 182.71 739.02 181.99 738.78 181.75 738.78 181.51 738.54 181.27 738.3 180.79 737.58 180.79 737.1 180.31 736.14 179.83 735.9 179.59 735.66 179.11 735.66 178.87 735.66 178.87 735.18 178.63 734.7 178.39 734.22 177.67 733.02 177.19 732.78 176.47 732.3 175.27 732.06 174.79 732.3 174.31 732.3 173.59 732.06 172.15 731.58 171.67 731.34 171.19 731.34 170.23 730.86 169.99 730.62 169.51 730.14 169.27 729.42 169.03 728.94 169.03 728.7 168.79 727.5 168.55 726.54 168.31 726.06 168.07 725.34 168.07 725.1 167.83 724.62 167.83 723.9 167.11 722.94 166.39 721.02 165.67 720.3 164.95 719.58 164.47 719.34 163.99 718.86 163.75 718.62 163.51 718.62 162.31 718.62 161.83 718.62 161.11 718.62 160.63 718.86 159.67 719.1 159.19 719.34 158.95 719.58 158.23 719.34 157.51 718.86 157.51 718.38 157.27 717.42 157.27 715.98 157.27 714.54 157.27 714.3 157.27 714.06 156.79 712.86 156.79 712.38 156.31 711.42 155.83 711.18 155.59 710.94 153.91 710.46 152.95 710.46 152.47 710.46 152.23 710.7 151.27 710.7 151.03 710.94 150.55 710.94 150.07 710.94 149.35 711.18 147.43 711.18 147.19 711.18 146.95 710.94 146.23 710.22 145.75 709.74 145.51 709.5 145.27 709.26 145.03 709.02 142.87 706.14 142.39 705.66 141.91 704.7 141.43 703.98 141.19 703.5 140.71 702.54 139.99 700.38 139.51 699.18 139.27 698.7 139.03 698.22 138.55 697.74 138.31 697.26 138.07 697.26 137.83 697.02 137.35 697.02 137.35 696.78 137.11 696.78 136.39 697.26 135.67 697.5 134.47 698.46 133.75 698.94 132.79 699.18 132.07 699.42 130.87 699.66 130.39 699.42 129.91 699.42 128.47 699.42 127.99 699.42 126.79 699.18 126.07 699.18 125.59 699.18 123.43 698.7 122.71 698.46 121.99 698.22 121.27 697.98 119.83 697.5 119.59 697.5 119.11 697.5 117.91 697.02 117.67 697.02 116.95 696.78 116.47 696.78 115.03 696.3 113.35 695.58 113.11 695.34 112.39 694.86 112.15 694.62 111.67 693.9 111.67 693.42 111.67 692.7 111.91 692.22 112.15 691.5 113.35 690.3 113.59 690.3 113.59 690.06 114.79 689.1 115.51 687.9 115.75 686.94 115.75 685.98 115.51 685.26 115.51 684.78 115.03 684.3 114.31 683.82 113.11 683.1 112.39 683.1 112.15 683.1 111.43 682.86 111.19 683.1 110.23 682.86 109.99 682.86 109.51 682.62 109.27 682.62 108.79 682.13 108.79 681.89 108.31 680.93 108.07 680.7 108.07 679.98 108.07 679.74 108.55 678.53 108.55 678.29 108.55 677.82 109.03 676.38 109.99 674.46 110.47 673.74 110.95 672.77 111.19 672.29 111.19 671.58 111.67 670.61 112.15 669.65 111.91 668.21 111.91 667.73 111.91 664.61 111.91 663.89 112.15 663.17 113.35 659.81 113.83 658.61 114.07 658.13 114.79 656.93 114.79 656.69 115.03 656.45 115.27 655.97 115.51 655.49 115.75 654.77 115.75 654.29 115.51 653.81 115.27 653.57 115.03 652.85 114.79 652.61 114.79 652.37 114.55 652.13 114.31 651.41 114.07 651.17 113.35 649.49 112.87 649.01 111.91 647.09 111.67 646.85 111.67 646.61 111.19 645.65 110.95 644.69 110.95 643.97 110.95 643.73 111.19 643.49 111.43 643.49 112.87 643.01 113.83 643.01 114.31 642.77 114.55 642.77 115.51 643.01 115.99 643.25 116.23 643.49 116.71 643.25 116.95 643.49 117.43 643.49 118.39 643.49 119.59 643.49 121.03 642.77 121.27 642.53 121.75 642.05 122.47 641.33 122.71 641.09 122.95 640.85 122.95 640.37 122.95 640.13 123.43 639.17 123.43 638.45 123.67 637.49 123.91 636.77 124.63 635.33 125.11 634.37 126.07 632.69 127.03 630.77 127.27 629.57 127.51 629.33 128.23 628.37 128.95 627.41 130.15 626.69 130.87 626.45 131.35 625.97 132.79 625.49 133.27 625.01 134.47 624.53 134.71 624.53 134.95 624.29 135.67 624.05 136.15 623.81 136.63 623.57 137.11 623.57 138.79 622.85 139.03 622.85 139.99 622.37 140.47 622.13 140.71 621.89 141.19 621.41 141.43 621.17 141.67 620.93 141.91 620.69 142.39 619.97 142.63 619.01 142.63 618.53 142.63 617.81 142.39 617.09 142.15 616.13 142.15 615.17 142.39 614.45 142.63 613.97 143.11 613.97 143.83 614.21 144.55 614.45 145.03 614.93 145.51 615.17 146.47 615.41 147.67 615.89 148.15 615.89 148.87 616.13 149.35 616.13 150.07 616.13 152.23 616.37 153.19 616.13 153.91 615.89 154.15 615.65 155.11 615.17 155.35 614.93 155.59 614.69 156.07 613.25 156.07 612.05 156.07 611.57 155.83 611.33 155.83 611.09 156.07 610.37 156.07 609.89 156.07 609.65 156.31 609.17 157.27 607.97 159.43 604.13 161.83 601.49 162.31 600.77 163.27 599.57 163.75 598.85 165.43 596.45 165.67 595.73 165.91 595.73 165.91 595.49 166.39 594.77 166.87 594.29 170.23 591.65 170.95 591.17 171.67 590.93 172.39 590.21 172.63 589.97 172.63 589.49 173.11 589.01 173.35 588.29 173.59 587.81 173.59 587.09 173.83 586.61 174.31 585.65 174.31 585.17 174.31 584.45 174.31 583.73 174.31 583.49 174.31 582.29 174.31 581.81 174.31 581.33 174.31 580.61 174.07 579.65 173.83 578.45 173.83 577.73 174.31 575.81 174.55 574.85 175.51 573.65 176.23 572.93 176.23 572.69 177.19 571.25 177.43 570.53 178.15 569.57 178.15 568.85 178.39 568.61 178.63 568.13 178.87 567.41 178.87 567.17 179.11 565.97 179.11 565.25 179.35 564.53 179.35 563.33 179.35 562.85 179.83 562.61 181.51 561.89 183.91 560.93 184.39 560.69 184.87 560.45 185.11 560.21 186.07 559.97 186.55 559.73 186.79 559.49 187.03 559.25 187.27 559 187.51 558.76 188.71 557.57 189.91 556.37 189.91 556.13 190.39 555.88 191.83 554.68 192.55 554.21 192.79 553.97 193.51 553.49 193.75 553.25 194.71 552.52 197.11 551.33 197.59 551.09 198.31 550.85 198.55 550.85 200.71 549.64 201.43 549.16 202.39 548.45 203.11 547.96 203.83 547.24 203.83 547 204.07 546.52 204.31 546.52 204.55 546.28 204.79 546.04 205.03 545.8 205.03 545.56 205.75 545.08 206.47 544.6 207.19 544.12 207.67 543.88 207.91 543.64 208.15 543.88 210.07 543.16 211.75 542.92 212.23 542.68 213.43 542.68 213.91 542.92 215.11 542.92 216.31 543.16 216.79 542.92 217.03 542.92 217.51 542.68 217.99 542.2 218.47 541.48 218.95 540.76 219.43 539.56 219.67 538.6 220.15 537.4 220.39 537.16 220.87 535.96 221.35 535.24 222.07 534.76 223.03 533.8 223.51 533.32 223.75 532.84 223.99 532.36 223.99 531.64 223.75 530.92 223.27 529.24 223.03 529 223.03 528.28 222.79 527.8 222.79 527.32 223.03 526.6 223.03 526.36 223.27 525.88 223.51 525.16 223.99 524.68 224.47 524.44 224.95 524.2 225.67 523.96 225.91 523.72 226.39 523.48 226.87 523 227.35 522.76 227.59 522.52 229.27 520.12 229.75 519.16 230.23 518.92 230.71 518.68 230.95 518.68 231.43 518.44 231.91 518.68 232.15 518.44 232.63 518.44 232.87 517.96 233.11 517.24 232.63 516.04 232.15 515.32 230.71 513.4 230.23 512.92 229.51 512.44 229.27 511.96 228.79 511 228.79 510.52 229.03 509.56 230.71 501.88 230.95 500.92 230.71 500.44 230.23 498.76 229.99 497.8 229.75 497.56 229.03 496.6 228.31 495.64 227.11 495.4 226.39 494.92 225.43 494.2 224.95 493.48 224.71 493 224.71 492.28 224.95 491.8 225.91 490.84 226.15 490.6 226.39 490.36 226.87 490.12 227.35 489.64 228.07 489.16 228.31 489.16 229.03 488.68 229.51 488.44 230.47 487.96 230.71 487.48 231.19 487.24 231.43 486.52 231.43 486.28 231.43 485.32 231.43 484.6 231.19 483.88 231.19 483.64 230.95 482.68 230.47 481.72 229.99 480.76 229.27 480.04 229.03 479.56 228.79 478.6 228.79 477.88 229.03 476.68 229.51 475.72 229.99 474.76 229.99 474.52 230.23 474.04 230.95 473.32 231.91 472.12 232.39 471.64 233.59 471.16 234.07 470.68 234.31 470.68 234.79 470.44 235.75 469.72 235.75 469.48 236.23 469.24 236.47 469 236.95 468.76 237.43 468.28 238.63 467.32 239.59 466.36 240.07 465.64 240.07 465.4 240.31 464.44 240.31 464.2 240.55 463.72 240.31 462.76 240.07 462.28 239.83 462.04 239.11 460.84 237.91 459.4 236.47 457.72 236.23 457.24 235.75 456.04 235.75 455.32 235.27 453.88 235.03 453.4 234.07 451.72 233.83 451.24 233.59 450.52 234.07 449.8 234.31 449.56 235.03 449.32 235.51 448.84 236.23 448.6 237.43 448.12 237.67 448.12 238.87 447.64 239.83 447.16 240.55 446.68 241.51 445.96 242.23 445.48 242.71 445 243.19 443.8 244.87 440.92 245.11 439.96 245.35 438.28 245.35 437.32 245.84 436.83 246.07 435.63 246.07 435.39 246.07 434.19 246.07 433.95 246.56 431.56 247.03 430.6 247.28 429.88 247.51 429.88 247.75 429.63 248.47 429.63 249.19 429.88 249.91 430.12 250.4 430.6 251.35 430.6 251.84 430.36 252.56 429.63 253.03 429.15 253.51 427.71 253.75 427 254.24 426.75 254.47 426.27 255.19 425.56 255.44 425.07 255.91 424.35 256.15 423.87 256.15 421.71 256.15 421.23 256.39 420.51 256.63 420.03 257.36 419.31 257.6 418.83 257.83 418.35 258.31 417.39 258.8 416.91 259.27 416.91 260 417.15 260.48 417.63 260.95 417.63 261.92 417.63 262.15 417.63 262.63 417.15 262.88 416.91 263.12 416.43 263.36 415.95 263.36 415.23 263.36 414.75 263.36 414.03 263.6 412.59 264.07 411.63 264.07 411.15 264.31 409.71 264.31 408.99 264.56 408.75 265.27 408.03 266 407.79 266.24 407.79 267.68 408.03 268.16 408.03 268.64 408.27 270.08 408.75 270.32 408.99 270.8 408.99 271.52 408.75 272.72 407.79 272.96 407.55 273.68 407.07 274.88 405.63 276.08 404.91 276.8 404.43 277.52 403.95 277.76 403.71 278.48 403.23 278.72 402.99 279.2 402.75 279.92 402.27 280.88 401.55 281.12 401.79 281.6 402.03 282.08 402.27 283.04 402.51 284 403.23 284.48 403.47" style="fill:none;stroke:#005ce6;stroke-linecap:round;stroke-linejoin:round;stroke-width:1.440060019493103px"/></g></g><g style="clip-path:url(#clip-path)"><g style="clip-path:url(#clip-path-3)"><polyline points="327.92 56.65 328.4 57.13 329.36 58.56 329.6 58.8 329.84 59.77 330.56 60.48 330.8 61.92 331.28 63.13 332 65.53 333.68 66.97 334.4 67.69 335.12 68.17 335.36 68.65 335.84 71.77 336.32 72.49 336.32 73.69 336.8 75.37 337.52 76.09 337.52 76.33 337.28 76.57 336.32 76.81 336.08 76.81 336.32 77.29 338.24 78.97 339.44 80.41 341.84 82.33 343.04 82.81 343.28 83.29 343.52 83.77 343.76 84.25 344.24 84.73 344.48 85.21 344.48 85.45 344.96 86.17 345.2 86.41 345.44 86.41 346.16 86.17 346.64 86.17 347.6 87.13 349.76 90.25 350.96 91.21 351.2 91.69 350.96 92.41 351.68 92.89 351.92 93.13 353.12 92.89 353.6 93.13 354.32 93.85 354.8 94.33 355.28 94.33 356 95.05 356 95.29 355.76 96.25 356 96.97 356.24 97.45 356.48 97.69 356.96 97.93 357.92 97.93 359.36 97.69 361.04 97.69 361.52 97.69 363.2 98.89 364.4 99.61 364.16 99.85 362.72 100.57 362.24 101.53 361.76 102.25 361.04 102.49 360.32 103.69 359.12 104.89 359.12 105.37 359.12 106.33 358.64 108.73 357.92 109.69 357.2 111.13 357.2 111.85 357.2 112.33 357.68 113.29 358.4 114.25 358.64 114.73 358.88 115.21 359.36 115.69 359.84 117.37 360.08 118.09 360.32 119.29 360.32 121.69 360.56 121.93 360.8 122.41 362 123.37 363.2 125.77 363.92 126.97 364.4 127.21 365.6 126.97 365.84 127.21 366.32 127.69 366.8 127.93 367.76 127.93 368.24 128.41 368.48 129.13 369.2 129.61 369.44 129.85 369.68 131.05 370.88 132.01 371.12 132.49 371.12 135.13 370.64 137.29 370.64 137.53 370.4 138.49 369.68 139.45 369.2 140.17 368.96 140.89 369.2 142.09 368.72 144.25 368.48 144.97 368.72 145.45 368.72 145.69 368.96 145.69 371.36 147.13 372.8 149.05 373.52 149.53 374.72 150.01 378.08 150.49 378.8 150.49 379.04 150.73 380.24 151.21 382.16 152.65 382.4 153.61 382.64 154.09 383.12 154.09 384.56 154.33 385.28 154.57 385.76 154.81 386.72 155.77 387.2 156.49 387.44 156.97 387.68 156.97 388.16 157.45 388.4 158.41 388.88 159.37 388.88 160.09 388.88 161.77 389.12 162.25 389.12 163.45 388.64 164.89 388.64 165.13 389.12 167.05 389.12 167.29 389.36 167.53 390.32 168.49 391.04 169.21 391.52 169.93 391.76 171.61 392 172.09 392.48 172.81 393.68 174.97 394.16 175.21 395.84 176.65 395.84 177.13 396.08 178.09 396.08 178.33 396.08 178.57 397.04 179.06 397.52 179.53 397.76 180.01 398.48 180.74 400.16 181.46 400.4 181.94 400.16 182.66 400.4 183.13 401.12 183.85 402.08 184.34 402.56 184.34 403.28 184.57 403.76 184.81 404.48 185.29 404.48 185.53 405.44 186.74 405.92 186.97 406.64 186.97 408.08 186.97 408.32 187.22 408.8 187.46 409.04 187.69 409.52 187.94 410.72 188.66 410.96 188.9 412.16 189.62 412.64 189.85 413.84 190.09 414.8 190.58 415.52 191.3 415.76 191.3 416.48 192.02 416.96 192.26 417.68 193.22 418.16 193.46 418.64 194.18 419.12 194.9 419.12 195.62 419.12 196.58 419.12 196.82 419.36 197.54 420.8 200.42 421.04 200.66 421.76 201.14 422 201.38 422.24 201.62 422.48 202.1 422.48 202.34 422.48 202.58 422.96 203.06 423.2 203.54 423.92 204.02 424.4 204.26 424.88 204.5 425.12 204.5 425.84 204.5 426.8 204.98 427.28 205.46 428.48 206.9 428.72 207.38 429.44 207.86 430.88 207.86 431.36 208.34 431.84 208.58 432.32 209.3 432.8 209.78 433.04 209.78 433.04 210.02 433.76 210.5 434.48 210.74 434.72 210.98 435.44 210.98 438.08 210.98 439.04 210.98 439.52 211.22 440 211.7 440.72 212.42 441.92 213.62 441.92 213.86 442.64 214.58 443.12 215.06 443.36 215.54 443.6 215.78 443.84 216.26 443.6 216.5 443.36 217.22 442.4 218.42 440.96 219.38 440.72 219.62 438.56 221.06 438.32 221.3 438.08 221.78 438.08 222.26 437.84 222.98 437.84 223.46 437.6 224.42 437.6 224.9 437.36 225.14 436.88 225.14 436.64 225.14 436.16 224.9 435.44 225.14 435.2 225.14 435.2 225.38 434.72 225.86 434.72 226.1 434.72 226.34 434.48 226.58 434.48 227.3 434 228.98 433.76 230.18 433.52 230.42 433.28 230.66 432.8 231.14 431.6 231.62 429.92 232.58 429.44 233.06 428.96 233.78 428.48 234.74 428.48 235.22 428.48 235.94 428.72 236.18 428.48 236.9 427.52 237.86 426.56 238.58 426.32 238.82 425.6 239.3 425.12 240.02 424.88 240.26 424.64 240.98 424.64 241.94 424.4 242.42 423.68 243.62 423.68 244.1 423.92 244.34 424.4 244.58 425.12 244.82 425.6 245.06 426.08 245.3 426.8 245.78 427.04 246.02 427.28 246.26 427.76 246.5 428.24 246.98 428.48 246.98 428.72 247.46 429.2 247.94 429.68 248.42 430.64 249.14 430.88 249.62 431.36 249.86 433.04 250.82 433.52 251.06 434 251.3 435.2 251.78 436.64 252.26 437.12 252.74 437.84 252.74 439.04 253.22 439.52 253.46 439.76 253.46 440.48 253.7 441.2 254.18 441.68 254.42 442.4 255.38 443.12 256.34 443.36 257.06 443.6 257.06 443.6 257.3 443.6 257.78 443.84 258.02 443.84 258.26 443.84 258.74 443.84 258.98 443.84 259.22 443.84 259.46 443.6 260.42 442.88 261.62 442.16 262.34 441.92 262.58 441.2 263.3 440.48 264.02 440.24 264.5 439.76 264.74 439.28 265.7 439.04 266.18 438.8 266.42 438.56 266.66 437.36 267.38 436.64 267.86 435.68 268.58 434.24 269.3 433.76 269.78 433.28 270.02 433.04 270.5 432.32 270.98 432.08 271.22 431.84 271.7 431.6 271.94 431.36 272.42 431.12 272.9 431.12 273.62 431.36 274.1 431.6 274.82 431.6 275.78 431.6 276.02 431.36 276.26 431.12 276.5 430.88 276.74 430.16 276.74 429.92 276.74 429.68 276.98 429.68 277.46 430.16 277.46 430.88 277.46 431.6 277.7 433.28 279.14 434 280.1 434.48 280.34 435.2 280.34 435.68 280.34 435.92 280.34 436.4 280.34 436.64 280.34 437.36 281.06 437.84 281.54 438.32 282.5 439.76 283.7 440.48 284.42 441.68 284.9 442.16 285.14 442.64 285.38 443.84 285.86 444.56 286.34 445.04 286.34 445.28 286.58 446 287.3 446.48 287.54 446.72 287.54 446.96 287.54 447.2 287.54 447.68 287.06 448.16 285.86 448.4 284.18 448.88 283.46 449.12 283.46 449.36 283.46 449.36 283.7 449.6 283.7 450.08 284.66 450.56 284.9 451.52 285.14 452 285.14 452.72 285.38 452.96 285.38 453.44 285.62 454.16 286.1 454.88 286.58 455.12 287.3 455.36 288.02 455.6 288.5 456.32 288.98 458 289.46 458.96 289.46 459.44 289.46 459.92 289.46 460.4 289.7 460.88 289.94 461.12 290.42 461.12 290.66 461.6 290.9 461.84 291.14 463.04 291.38 463.76 291.86 464.48 292.34 464.96 292.58 465.44 292.58 466.64 292.1 466.88 292.1 467.36 292.1 467.84 292.1 467.84 292.34 468.08 292.58 468.56 293.78 469.28 294.98 469.76 295.46 470 295.46 470.49 295.94 471.2 296.18 471.69 296.18 472.17 296.18 473.37 295.94 474.08 295.7 474.56 295.46 474.81 295.46 475.76 295.46 476.25 295.7 476.96 295.94 478.17 297.38 478.4 297.62 479.13 297.86 480.08 297.86 480.56 297.86 481.29 297.86 481.76 297.86 482 298.34 482.96 299.54 483.69 300.26 484.64 300.74 484.88 300.74 485.37 300.74 487.76 300.5 488.25 300.26 488.96 300.26 489.93 299.78 490.17 299.54 490.64 299.54 491.13 299.3 491.61 299.3 492.08 299.54 492.57 299.78 492.81 299.54 493.53 299.06 493.77 298.82 494.25 298.58 494.73 298.58 495.21 298.82 496.17 299.06 496.89 299.06 497.37 299.3 497.85 299.78 498.09 299.78 498.57 299.78 499.05 299.54 499.77 299.54 500.01 299.78 500.25 300.02 500.73 300.26 501.21 300.5 501.93 300.74 502.41 300.74 503.37 300.02 504.33 299.54 506.01 299.54 506.97 299.78 508.17 300.26 508.89 300.5 509.85 300.74 510.09 300.74 510.81 300.98 511.29 300.74 511.77 300.74 512.01 300.74 512.49 300.74 512.73 300.74 513.21 300.5 513.69 300.5 514.17 300.74 514.65 300.98 515.13 301.7 515.37 302.43 515.61 302.67 516.09 304.11 516.33 304.58 516.81 306.5 517.53 308.19 517.77 308.9 517.77 309.87 517.77 310.11 518.01 310.82 518.25 312.5 518.25 313.94 518.49 314.67 518.49 316.35 518.49 317.07 518.49 317.31 518.25 317.55 518.25 317.79 518.01 318.27 517.53 318.99 517.29 318.99 516.81 318.99 516.57 319.23 516.09 319.47 515.37 320.43 514.89 320.67 514.41 321.39 514.17 321.63 513.69 322.35 513.45 322.83 513.21 323.07 512.49 323.55 512.01 323.55 511.53 324.03 511.29 324.27 510.57 325.47 509.85 326.43 509.13 327.87 508.65 328.35 507.69 328.83 507.21 328.83 506.01 328.83 505.77 328.83 504.33 330.51 503.61 331.23 503.13 331.47 501.93 332.19 500.25 333.39 499.29 334.35 499.05 334.59 498.81 335.07 498.09 335.79 497.85 336.27 496.41 337.71 495.93 338.43 494.01 340.35 493.29 340.83 492.57 341.79 492.33 342.03 491.61 342.75 491.37 343.47 490.88 344.19 489.69 346.11 489.2 346.83 488.73 347.55 488.25 348.03 487.29 348.51 486.08 349.47 484.64 351.15 483.93 352.11 482.96 353.31 482.49 353.55 481.52 355.47 481.05 355.95 480.81 356.67 480.56 356.91 481.76 357.87 482.73 358.59 483.2 358.83 483.93 359.31 485.61 361.23 486.81 361.95 488 362.91 488.73 363.63 489.44 364.11 489.93 364.59 491.37 365.55 491.85 366.03 492.08 366.51 492.81 367.95 493.29 368.19 493.53 368.43 494.01 368.91 494.25 369.39 494.49 369.87 494.73 370.35 495.21 370.59 496.89 371.55 497.37 372.03 497.13 372.27 496.41 372.51 496.17 372.51 495.45 372.75 494.73 372.75 494.01 372.99 493.53 372.99 493.29 372.75 492.57 372.51 491.85 371.79 491.37 371.07 491.13 370.11 490.88 369.87 490.4 369.15 490.17 368.91 489.69 369.15 488.73 369.39 488.49 369.63 488.25 370.35 488 370.59 487.52 372.51 487.52 372.99 487.76 373.95 487.76 374.91 487.76 375.15 487.76 375.87 487.76 376.35 487.29 377.07 487.05 377.79 486.56 380.19 486.32 380.91 486.32 381.39 486.08 381.87 485.85 382.59 485.85 383.07 485.13 384.27 485.13 384.75 484.88 385.23 484.4 385.95 484.17 387.15 484.17 387.63 483.69 388.11 483.2 388.59 482.73 388.83 482.49 389.55 482.49 390.51 482.25 390.75 482 391.23 481.76 391.23 480.81 391.47 480.32 391.71 480.08 391.71 479.85 391.95 479.37 392.67 479.13 392.67 478.17 393.63 477.44 394.35 476.73 394.59 475.76 395.07 475.52 395.31 475.05 396.03 474.81 396.51 474.56 396.75 473.61 397.23 472.64 397.47 471.69 398.19 471.2 398.43 470.96 398.91 470.49 399.63 470.25 399.87 470 400.11 469.52 400.11 469.28 400.11 468.8 400.11 468.56 400.11 466.88 400.83 465.68 401.07 465.2 401.31 464 402.03 463.28 402.75 463.04 403.23 463.04 403.71 463.04 404.43 462.8 405.63 462.8 406.83 462.8 407.31 462.32 408.27 462.08 408.51 461.6 408.51 460.88 408.75 460.16 408.51 459.92 408.27 459.44 408.27 458.72 408.27 458.24 408.51 458 408.75 458 409.47 457.76 410.43 457.76 411.15 457.76 411.63 457.52 411.87 457.04 412.35 456.08 412.59 455.6 412.59 454.16 412.11 453.68 411.63 453.2 411.63 452.72 411.15 452.48 410.67 452 410.43 451.04 409.47 449.36 408.27 449.12 408.03 448.64 407.79 448.4 407.79 447.68 407.55 447.2 407.79 446.72 408.03 445.76 408.51 444.8 409.23 443.36 409.71 442.88 409.95 441.2 409.71 440 409.71 439.76 409.71 439.28 409.71 438.56 410.19 438.32 410.19 437.6 410.91 436.4 412.11 436.16 412.59 435.92 412.59 434.72 414.51 433.76 415.47 433.52 415.71 432.56 416.67 431.6 417.63 429.44 419.31 428.48 420.03 427.28 420.75 426.08 421.23 425.6 421.47 425.12 421.47 424.16 421.71 422.72 422.19 422.24 422.43 420.32 423.15 419.84 423.15 419.12 423.15 417.44 423.63 415.52 423.63 415.04 423.63 415.04 423.87 415.28 424.35 415.28 424.83 415.52 425.8 415.76 426.04 415.76 426.75 416.24 428.92 416.48 429.88 416.48 430.6 416.72 432.27 416.72 433 416.72 433.71 416.96 434.19 416.96 434.92 416.96 436.12 416.96 437.08 416.72 437.56 416.96 438.28 416.96 438.52 417.44 439 417.92 439.48 418.16 439.72 418.4 440.68 418.88 441.88 418.88 442.12 419.12 442.84 419.12 443.08 419.6 443.8 420.32 444.52 421.04 445.48 421.52 446.68 421.76 447.16 422 447.88 422.24 448.84 422.72 449.08 422.96 449.56 423.2 450.52 423.44 451.24 423.44 451.96 423.44 452.44 423.44 453.16 423.68 453.64 423.92 453.88 424.64 454.36 425.12 454.6 425.36 454.84 425.6 455.08 426.08 455.8 426.56 456.04 427.76 456.28 428.24 456.52 428.48 456.76 428.72 457.24 429.2 457.72 430.16 458.44 429.68 458.92 429.2 459.4 428.96 459.88 428.48 460.6 428.24 461.8 427.76 462.76 427.04 463.24 425.84 464.44 425.12 464.92 424.88 465.16 424.88 465.4 424.64 466.12 424.4 466.6 424.64 467.8 424.4 468.28 424.4 468.52 423.92 468.76 423.68 469 423.44 469 422 469.48 421.52 469.72 421.28 470.2 421.28 470.44 421.28 470.92 421.28 471.4 421.52 471.64 422 472.12 422.48 472.6 423.44 473.32 423.68 474.28 423.92 474.76 424.16 475.24 424.64 475.72 425.36 476.44 426.08 477.4 426.56 478.12 427.52 480.52 427.76 481.24 427.52 481.96 427.28 482.2 427.28 482.44 427.04 482.68 427.04 483.16 427.04 483.64 427.28 484.36 427.52 485.56 427.52 486.76 427.52 487.24 427.28 487.96 426.56 489.4 426.32 489.64 425.36 490.6 424.16 491.56 423.68 492.04 423.2 492.76 422.96 493.48 422.72 494.2 422.48 495.16 422 495.64 421.28 496.12 421.04 496.6 420.8 497.32 420.56 498.28 420.32 498.76 419.84 500.44 419.84 500.92 419.84 501.16 419.12 501.4 417.92 501.88 417.44 501.88 416.96 501.64 416.24 501.4 415.76 501.4 415.04 501.4 414.32 501.4 413.36 500.92 413.12 500.68 411.44 499.24 411.44 499 410.72 498.76 410.48 498.52 409.76 498.52 409.28 498.52 408.56 498.28 407.84 498.04 406.88 497.8 405.2 497.8 404.48 497.56 403.28 497.32 403.04 497.08 402.32 497.08 401.84 496.84 400.88 497.08 400.16 497.56 399.44 497.56 399.2 497.8 398.96 497.8 397.52 497.8 397.28 497.56 396.56 497.56 394.64 497.08 393.44 496.84 393.2 496.84 391.76 496.12 391.28 496.12 390.56 496.12 389.84 496.12 388.88 496.36 388.4 496.36 387.44 496.6 386.48 496.6 384.56 496.84 382.64 497.56 381.2 497.8 380.96 497.8 380 497.8 378.32 497.8 376.4 498.04 375.92 497.8 375.2 497.8 374.72 498.04 374.24 498.52 374 498.76 373.76 499.48 373.04 500.68 372.56 500.92 372.08 501.4 369.68 503.32 368.96 503.8 368.72 504.04 368.48 504.76 368.24 505.24 368.24 505.96 368 506.2 367.76 506.68 367.04 507.64 365.36 508.84 364.88 509.32 364.64 509.56 364.64 509.8 364.4 510.76 363.92 511.24 363.2 512.2 362.72 512.44 362 512.92 361.28 513.16 360.8 513.4 360.32 513.88 360.08 514.6 359.6 515.32 359.36 515.8 359.12 516.28 358.64 516.52 357.92 517.24 357.2 518.2 356.72 518.92 356.24 519.4 355.04 520.36 354.32 520.84 353.36 521.08 352.16 521.32 351.92 521.32 351.2 521.32 350.96 521.32 350.72 521.32 350 521.8 349.28 522.28 348.08 522.52 347.12 522.76 346.88 523 345.92 523.24 344.72 524.44 343.52 525.88 343.04 526.36 342.8 526.84 341.36 528.28 341.12 528.76 340.64 530.2 340.4 530.68 340.16 530.92 339.68 531.88 339.68 532.36 339.68 532.84 340.64 533.8 340.88 534.52 340.88 535.24 340.88 535.72 340.64 536.92 340.64 537.4 340.64 537.88 340.64 538.12 340.4 538.6 339.68 540.04 338.96 541.96 338.96 542.44 338.72 543.16 338.24 544.36" style="fill:none;stroke:#222;stroke-linecap:round;stroke-linejoin:round;stroke-width:1.6800800561904907px"/><polyline points="338.24 544.36 338.24 544.6 338.48 545.08 338.48 545.8 337.76 547.48 337.76 547.96 337.28 548.68 337.04 548.68 336.56 549.16 336.32 549.4 335.6 549.4 335.84 549.64 336.08 549.88 336.8 550.61 337.04 550.61 337.28 550.61 338 551.33 338.24 551.8 338.24 552.04 338.24 552.28 338.48 552.52 338.96 552.52 339.68 552.52 340.88 552.76 341.36 553 341.36 553.25 342.32 553.49 343.04 553.73 343.52 553.97 344 554.68 344.48 555.4 344.72 555.64 344.96 555.88 345.92 556.13 347.84 556.85 348.8 557.09 349.28 557.57 349.76 557.8 350.96 558.28 350.96 558.52 351.68 559 352.64 560.21 353.6 560.93 355.04 563.09 356.48 564.77 356.48 565.01 356.72 565.49 356.96 566.21 357.2 566.69 357.68 567.17 358.4 567.41 358.64 567.65 359.12 567.89 361.28 568.61 361.76 568.85 362.24 569.09 362.48 569.33 364.16 570.29 364.88 570.77 365.36 571.01 365.6 571.25 366.32 571.97 366.8 572.21 368.24 573.41 369.44 574.13 370.16 574.61 370.88 575.09 371.12 575.33 372.56 576.53 373.04 577.49 373.52 578.21 373.76 578.93 374 579.41 373.76 579.65 373.52 579.89 372.8 579.89 372.08 579.65 371.12 579.65 370.4 579.65 369.68 579.65 369.2 579.89 368.48 580.37 368 580.61 367.28 581.33 366.32 582.29 366.08 582.53 365.12 583.49 364.88 583.49 364.4 583.97 363.92 584.21 362.72 585.41 361.76 587.09 361.28 588.29 360.8 589.49 360.56 590.45 359.6 592.13 359.36 593.09 358.88 594.29 357.44 596.45 357.2 596.93 356.72 597.17 356 597.65 354.56 599.09 354.32 599.33 353.84 599.57 353.12 599.57 352.64 599.57 352.16 599.57 350.96 599.57 350 599.57 349.52 599.81 348.56 600.05 348.56 600.29 347.84 600.53 347.36 600.53 346.16 600.53 345.44 600.53 344.96 600.53 344.48 600.29 343.52 599.81 343.04 599.57 342.32 599.33 341.12 599.33 339.92 599.09 337.76 599.09 337.04 599.09 336.32 598.85 335.84 598.85 335.12 599.09 334.4 598.85 333.92 598.85 333.68 598.61 333.44 598.61 333.2 598.61 332.72 598.85 333.2 599.09 333.2 599.57 334.16 600.29 334.64 601.01 335.12 601.49 335.6 602.21 335.84 602.45 336.08 602.93 337.04 603.41 337.28 603.89 338.24 604.61 338.72 605.09 338.96 605.33 340.64 606.53 341.36 607.01 341.84 607.73 342.56 608.69 342.8 609.41 343.28 610.37 343.52 610.85 343.52 611.33 343.52 611.57 343.04 611.81 342.56 612.05 341.84 612.53 341.6 612.77 341.12 613.25 340.88 613.97 340.88 614.69 340.88 615.65 340.88 616.37 341.12 618.29 341.12 618.77 341.12 619.97 341.12 620.45 340.88 621.41 340.64 622.13 340.4 622.85 340.4 623.09 340.4 623.57 340.16 623.81 340.4 624.05 340.64 624.29 340.88 624.29 341.12 624.53 341.6 624.77 341.84 624.77 342.56 625.49 343.28 626.21 344 627.41 344.24 628.37 344.48 630.53 344.72 634.13 344.96 635.81 344.96 636.77 344.96 638.21 345.2 638.93 345.2 639.41 345.2 639.65 345.44 639.89 345.44 640.13 346.16 642.29 346.4 642.77 346.4 643.25 346.4 643.49 346.88 645.41 346.88 645.65 346.64 646.13 346.4 646.61 345.2 647.09 344.48 647.57 344 648.05 343.76 648.77 343.52 649.01 343.52 649.25 343.28 650.21 343.04 650.45 342.32 650.93 341.6 651.17 340.88 651.41 339.92 651.89 339.68 652.13 338.72 653.57 338.48 654.05 338 655.01 337.76 655.73 337.28 658.13 337.04 658.85 337.04 659.09 336.8 659.33 336.8 659.57 336.56 659.81 336.32 660.05 334.88 660.53 334.4 660.77 332.72 661.73 332.24 661.97 331.76 662.45 331.76 662.93 331.52 663.41 331.52 663.89 331.28 664.37 330.8 664.85 330.56 664.85 330.08 665.09 329.12 665.09 328.4 665.09 326.72 665.81 326 665.81 325.28 665.57 324.32 665.09 323.84 664.85 323.36 665.09 322.64 665.57 322.16 665.57 321.68 665.33 321.44 665.09 321.2 664.85 320.72 664.61 320 664.85 318.56 665.09 317.6 665.33 317.84 666.05 317.6 667.01 317.12 668.21 317.12 668.45 316.64 669.41 316.4 669.89 316.16 670.61 316.16 671.09 315.92 671.34 315.2 672.77 314.96 673.25 314.48 673.5 314.24 673.5 314 673.74 314 673.98 314.24 674.22 314.48 674.7 315.2 674.7 315.68 674.93 316.16 675.41 316.4 675.65 316.88 675.89 317.12 676.38 317.6 676.62 318.08 677.1 318.08 677.34 318.08 677.82 317.12 678.53 316.64 679.01 316.64 679.74 316.64 680.46 316.64 680.7 316.64 681.41 316.64 681.89 316.64 682.13 316.88 682.13 317.12 682.38 317.36 682.86 317.6 683.82 317.6 684.06 317.36 684.54 316.88 684.78 316.64 685.26 316.4 685.5 316.4 685.74 316.64 686.22 316.4 686.22 316.4 686.7 316.16 686.94 315.92 687.18 315.68 687.66 315.44 687.9 315.2 688.14 314.96 688.38 314.48 688.14 314 687.66 313.76 687.42 313.28 687.18 312.8 687.42 312.56 687.66 312.08 688.14 311.84 688.62 310.88 688.86 310.4 688.86 309.68 689.1 309.44 689.34 309.2 689.58 309.2 690.06 309.2 690.54 309.68 691.02 309.92 691.02 310.16 691.26 310.4 691.5 310.4 691.98 310.64 692.22 311.36 692.22 311.6 692.22 311.84 692.46 311.84 692.7 311.84 692.94 311.84 693.18 311.84 693.9 311.84 694.38 312.08 695.82 312.8 698.22 313.28 699.66 313.28 699.9 313.76 699.66 314.48 698.94 315.68 698.46 316.64 697.98 317.12 697.74 318.08 697.5 318.32 697.5 318.56 697.5 319.28 697.74 319.76 697.98 320.72 698.7 322.16 698.94 322.64 699.18 323.36 699.18 323.6 699.42 323.6 699.9 323.6 700.14 322.88 701.34 322.4 701.58 322.16 702.06 321.44 702.78 321.2 703.02 320.48 703.5 320.24 704.22 319.76 704.7 319.28 706.62 318.8 707.34 318.32 708.06 317.84 708.78 317.6 709.02 316.88 709.74 316.64 709.98 315.68 709.5 315.2 709.26 314.96 709.02 314 708.3 313.28 707.82 312.56 707.1 312.08 706.86 311.6 706.62 311.12 706.38 310.64 706.38 309.92 706.38 309.68 706.62 309.44 706.86 309.44 707.34 309.2 707.82 308.96 708.3 308.96 708.54 308.96 708.78 308.72 709.74 308.72 710.46 308.72 711.18 308 712.62 308 713.1 307.76 713.58 305.84 716.46 305.36 717.18 304.88 717.66 304.64 717.9 303.44 718.38 302 719.1 300.56 719.82 300.08 720.06 299.36 720.06 298.88 720.3 297.92 721.02 297.44 721.74 296.72 722.46 294.32 724.38 293.6 724.86 293.12 725.1 292.64 725.34 291.68 725.58 291.44 725.82 291.2 725.82 290.48 726.06 290 726.06 289.28 726.3 288.56 726.54 288.08 726.54 287.84 726.3 287.36 726.3 286.4 725.82 285.92 725.82 285.68 725.82 285.44 725.82 285.2 725.82 284.96 725.82 284.48 725.1 284.48 724.62 284.24 724.86 284 727.02 283.28 728.7 283.04 729.66 282.56 730.62 282.08 731.1 281.36 731.1 280.64 731.34 277.52 731.1 275.6 730.86 274.4 730.62 274.16 730.62 273.68 730.86 272.96 730.86 272.24 730.86 271.76 731.1 271.28 731.58 270.8 732.06 270.56 732.54 270.32 732.3 269.84 731.58 269.36 731.82 267.92 732.3 267.68 732.54 266.24 733.02 265.04 733.5 264.07 733.74 263.36 734.22 261.19 735.18 260.71 735.42 260.48 735.66 259.27 735.9 258.8 736.14 258.31 736.38 258.07 736.38 257.12 735.9 256.39 735.9 254.72 735.42 254.24 735.18 252.56 734.7 250.4 734.7 249.68 734.7 249.44 734.7 248 734.46 246.56 734.46 246.31 734.46 245.35 733.98 244.39 733.74 243.67 733.74 242.95 733.5 242.47 733.02 240.79 731.82 239.83 731.34 239.11 730.86 238.39 730.38 237.91 730.14 237.67 729.9 236.95 729.9 236.23 729.9 235.51 729.42 234.79 728.94 234.31 728.7 233.83 728.22 233.35 727.74 232.87 727.26 232.63 726.78 232.15 726.3 231.91 725.82 231.67 725.58 231.43 725.34 230.71 724.86 230.23 724.86 229.75 724.86 228.07 725.34 227.35 725.58 225.91 726.06 222.79 727.26 221.83 727.74 220.87 728.22 220.15 728.46 219.67 728.94 219.19 729.42 218.95 729.66 217.03 731.34 216.31 732.3 216.07 732.78 215.83 733.26 215.59 733.5 214.63 734.7 213.91 735.66 213.43 736.86 213.43 737.58 213.43 738.06 213.43 738.54 213.43 739.98 213.43 741.18 213.43 742.14 213.43 743.34 213.67 744.06 213.91 745.98 213.91 746.7 213.67 746.94 213.43 747.18 212.95 747.18 212.47 746.94 211.51 746.46 211.27 746.22 210.79 745.26 210.55 744.78 210.31 744.06 209.83 743.58 209.59 743.34 209.11 742.86 207.91 742.38 207.67 741.9 207.19 741.9 206.95 741.66 205.99 741.9 204.79 742.14 204.31 742.38 203.83 742.38 203.35 742.14 203.11 741.9 202.63 741.42 202.15 741.18 201.67 741.18 200.47 741.18 199.99 740.94 199.03 739.98 198.79 739.74 198.31 739.26 197.35 738.54 196.87 738.3 195.67 737.58 195.19 737.1 195.19 736.62 194.95 736.38 194.71 736.14 194.71 735.9 194.23 736.14 193.99 736.38 193.75 736.62 193.03 736.62 192.55 736.62 192.07 736.38 191.83 736.14 191.35 735.9 190.87 735.66 190.63 735.18 190.15 734.94 189.43 734.7 188.71 734.46 188.47 734.46 187.75 734.7 186.79 734.94 186.79 735.18 186.31 735.42 185.83 735.66 185.59 736.14 185.35 736.38 184.63 737.82 184.15 738.3 183.67 738.78 183.19 738.78 182.71 739.02 181.99 738.78 181.75 738.78 181.51 738.54 181.27 738.3 180.79 737.58 180.79 737.1 180.31 736.14 179.83 735.9 179.59 735.66 179.11 735.66 178.87 735.66 178.87 735.18 178.63 734.7 178.39 734.22 177.67 733.02 177.19 732.78 176.47 732.3 175.27 732.06 174.79 732.3 174.31 732.3 173.59 732.06 172.15 731.58 171.67 731.34 171.19 731.34 170.23 730.86 169.99 730.62 169.51 730.14 169.27 729.42 169.03 728.94 169.03 728.7 168.79 727.5 168.55 726.54 168.31 726.06 168.07 725.34 168.07 725.1 167.83 724.62 167.83 723.9 167.11 722.94 166.39 721.02 165.67 720.3 164.95 719.58 164.47 719.34 163.99 718.86 163.75 718.62 163.51 718.62 162.31 718.62 161.83 718.62 161.11 718.62 160.63 718.86 159.67 719.1 159.19 719.34 158.95 719.58 158.23 719.34 157.51 718.86 157.51 718.38 157.27 717.42 157.27 715.98 157.27 714.54 157.27 714.3 157.27 714.06 156.79 712.86 156.79 712.38 156.31 711.42 155.83 711.18 155.59 710.94 153.91 710.46 152.95 710.46 152.47 710.46 152.23 710.7 151.27 710.7 151.03 710.94 150.55 710.94 150.07 710.94 149.35 711.18 147.43 711.18 147.19 711.18 146.95 710.94 146.23 710.22 145.75 709.74 145.51 709.5 145.27 709.26 145.03 709.02 142.87 706.14 142.39 705.66 141.91 704.7 141.43 703.98 141.19 703.5 140.71 702.54 139.99 700.38 139.51 699.18 139.27 698.7 139.03 698.22 138.55 697.74 138.31 697.26 138.07 697.26 137.83 697.02 137.35 697.02 137.35 696.78 137.11 696.78 136.39 697.26 135.67 697.5 134.47 698.46 133.75 698.94 132.79 699.18 132.07 699.42 130.87 699.66 130.39 699.42 129.91 699.42 128.47 699.42 127.99 699.42 126.79 699.18 126.07 699.18 125.59 699.18 123.43 698.7 122.71 698.46 121.99 698.22 121.27 697.98 119.83 697.5 119.59 697.5 119.11 697.5 117.91 697.02 117.67 697.02 116.95 696.78 116.47 696.78 115.03 696.3 113.35 695.58 113.11 695.34 112.39 694.86 112.15 694.62 111.67 693.9 111.67 693.42 111.67 692.7 111.91 692.22 112.15 691.5 113.35 690.3 113.59 690.3 113.59 690.06 114.79 689.1 115.51 687.9 115.75 686.94 115.75 685.98 115.51 685.26 115.51 684.78 115.03 684.3 114.31 683.82 113.11 683.1 112.39 683.1 112.15 683.1 111.43 682.86 111.19 683.1 110.23 682.86 109.99 682.86 109.51 682.62 109.27 682.62 108.79 682.13 108.79 681.89 108.31 680.93 108.07 680.7 108.07 679.98 108.07 679.74 108.55 678.53 108.55 678.29 108.55 677.82 109.03 676.38 109.99 674.46 110.47 673.74 110.95 672.77 111.19 672.29 111.19 671.58 111.67 670.61 112.15 669.65 111.91 668.21 111.91 667.73 111.91 664.61 111.91 663.89 112.15 663.17 113.35 659.81 113.83 658.61 114.07 658.13 114.79 656.93 114.79 656.69 115.03 656.45 115.27 655.97 115.51 655.49 115.75 654.77 115.75 654.29 115.51 653.81 115.27 653.57 115.03 652.85 114.79 652.61 114.79 652.37 114.55 652.13 114.31 651.41 114.07 651.17 113.35 649.49 112.87 649.01 111.91 647.09 111.67 646.85 111.67 646.61 111.19 645.65 110.95 644.69 110.95 643.97 110.95 643.73 111.19 643.49 111.43 643.49 112.87 643.01 113.83 643.01 114.31 642.77 114.55 642.77 115.51 643.01 115.99 643.25 116.23 643.49 116.71 643.25 116.95 643.49 117.43 643.49 118.39 643.49 119.59 643.49 121.03 642.77 121.27 642.53 121.75 642.05 122.47 641.33 122.71 641.09 122.95 640.85 122.95 640.37 122.95 640.13 123.43 639.17 123.43 638.45 123.67 637.49 123.91 636.77 124.63 635.33 125.11 634.37 126.07 632.69 127.03 630.77 127.27 629.57 127.51 629.33 128.23 628.37 128.95 627.41 130.15 626.69 130.87 626.45 131.35 625.97 132.79 625.49 133.27 625.01 134.47 624.53 134.71 624.53 134.95 624.29 135.67 624.05 136.15 623.81 136.63 623.57 137.11 623.57 138.79 622.85 139.03 622.85 139.99 622.37 140.47 622.13 140.71 621.89 141.19 621.41 141.43 621.17 141.67 620.93 141.91 620.69 142.39 619.97 142.63 619.01 142.63 618.53 142.63 617.81 142.39 617.09 142.15 616.13 142.15 615.17 142.39 614.45 142.63 613.97 143.11 613.97 143.83 614.21 144.55 614.45 145.03 614.93 145.51 615.17 146.47 615.41 147.67 615.89 148.15 615.89 148.87 616.13 149.35 616.13 150.07 616.13 152.23 616.37 153.19 616.13 153.91 615.89 154.15 615.65 155.11 615.17 155.35 614.93 155.59 614.69 156.07 613.25 156.07 612.05 156.07 611.57 155.83 611.33 155.83 611.09 156.07 610.37 156.07 609.89 156.07 609.65 156.31 609.17 157.27 607.97 159.43 604.13 161.83 601.49 162.31 600.77 163.27 599.57 163.75 598.85 165.43 596.45 165.67 595.73 165.91 595.73 165.91 595.49 166.39 594.77 166.87 594.29 170.23 591.65 170.95 591.17 171.67 590.93 172.39 590.21 172.63 589.97 172.63 589.49 173.11 589.01 173.35 588.29 173.59 587.81 173.59 587.09 173.83 586.61 174.31 585.65 174.31 585.17 174.31 584.45 174.31 583.73 174.31 583.49 174.31 582.29 174.31 581.81 174.31 581.33 174.31 580.61 174.07 579.65 173.83 578.45 173.83 577.73 174.31 575.81 174.55 574.85 175.51 573.65 176.23 572.93 176.23 572.69 177.19 571.25 177.43 570.53 178.15 569.57 178.15 568.85 178.39 568.61 178.63 568.13 178.87 567.41 178.87 567.17 179.11 565.97 179.11 565.25 179.35 564.53 179.35 563.33 179.35 562.85 179.83 562.61 181.51 561.89 183.91 560.93 184.39 560.69 184.87 560.45 185.11 560.21 186.07 559.97 186.55 559.73 186.79 559.49 187.03 559.25 187.27 559 187.51 558.76 188.71 557.57 189.91 556.37 189.91 556.13 190.39 555.88 191.83 554.68 192.55 554.21 192.79 553.97 193.51 553.49 193.75 553.25 194.71 552.52 197.11 551.33 197.59 551.09 198.31 550.85 198.55 550.85 200.71 549.64 201.43 549.16 202.39 548.45 203.11 547.96 203.83 547.24 203.83 547 204.07 546.52 204.31 546.52 204.55 546.28 204.79 546.04 205.03 545.8 205.03 545.56 205.75 545.08 206.47 544.6 207.19 544.12 207.67 543.88 207.91 543.64 208.15 543.88 210.07 543.16 211.75 542.92 212.23 542.68 213.43 542.68 213.91 542.92 215.11 542.92 216.31 543.16 216.79 542.92 217.03 542.92 217.51 542.68 217.99 542.2 218.47 541.48 218.95 540.76 219.43 539.56 219.67 538.6 220.15 537.4 220.39 537.16 220.87 535.96 221.35 535.24 222.07 534.76 223.03 533.8 223.51 533.32 223.75 532.84 223.99 532.36 223.99 531.64 223.75 530.92 223.27 529.24 223.03 529 223.03 528.28 222.79 527.8 222.79 527.32 223.03 526.6 223.03 526.36" style="fill:none;stroke:#222;stroke-linecap:round;stroke-linejoin:round;stroke-width:1.6800800561904907px"/><polyline points="223.03 526.36 223.27 525.88 223.51 525.16 223.99 524.68 224.47 524.44 224.95 524.2 225.67 523.96 225.91 523.72 226.39 523.48 226.87 523 227.35 522.76 227.59 522.52 229.27 520.12 229.75 519.16 230.23 518.92 230.71 518.68 230.95 518.68 231.43 518.44 231.91 518.68 232.15 518.44 232.63 518.44 232.87 517.96 233.11 517.24 232.63 516.04 232.15 515.32 230.71 513.4 230.23 512.92 229.51 512.44 229.27 511.96 228.79 511 228.79 510.52 229.03 509.56 230.71 501.88 230.95 500.92 230.71 500.44 230.23 498.76 229.99 497.8 229.75 497.56 229.03 496.6 228.31 495.64 227.11 495.4 226.39 494.92 225.43 494.2 224.95 493.48 224.71 493 224.71 492.28 224.95 491.8 225.91 490.84 226.15 490.6 226.39 490.36 226.87 490.12 227.35 489.64 228.07 489.16 228.31 489.16 229.03 488.68 229.51 488.44 230.47 487.96 230.71 487.48 231.19 487.24 231.43 486.52 231.43 486.28 231.43 485.32 231.43 484.6 231.19 483.88 231.19 483.64 230.95 482.68 230.47 481.72 229.99 480.76 229.27 480.04 229.03 479.56 228.79 478.6 228.79 477.88 229.03 476.68 229.51 475.72 229.99 474.76 229.99 474.52 230.23 474.04 230.95 473.32 231.91 472.12 232.39 471.64 233.59 471.16 234.07 470.68 234.31 470.68 234.79 470.44 235.75 469.72 235.75 469.48 236.23 469.24 236.47 469 236.95 468.76 237.43 468.28 238.63 467.32 239.59 466.36 240.07 465.64 240.07 465.4 240.31 464.44 240.31 464.2 240.55 463.72 240.31 462.76 240.07 462.28 239.83 462.04 239.11 460.84 237.91 459.4 236.47 457.72 236.23 457.24 235.75 456.04 235.75 455.32 235.27 453.88 235.03 453.4 234.07 451.72 233.83 451.24 233.59 450.52 234.07 449.8 234.31 449.56 235.03 449.32 235.51 448.84 236.23 448.6 237.43 448.12 237.67 448.12 238.87 447.64 239.83 447.16 240.55 446.68 241.51 445.96 242.23 445.48 242.71 445 243.19 443.8 244.87 440.92 245.11 439.96 245.35 438.28 245.35 437.32 245.84 436.83 246.07 435.63 246.07 435.39 246.07 434.19 246.07 433.95 246.56 431.56 247.03 430.6 247.28 429.88 247.51 429.88 247.75 429.63 248.47 429.63 249.19 429.88 249.91 430.12 250.4 430.6 251.35 430.6 251.84 430.36 252.56 429.63 253.03 429.15 253.51 427.71 253.75 427 254.24 426.75 254.47 426.27 255.19 425.56 255.44 425.07 255.91 424.35 256.15 423.87 256.15 421.71 256.15 421.23 256.39 420.51 256.63 420.03 257.36 419.31 257.6 418.83 257.83 418.35 258.31 417.39 258.8 416.91 259.27 416.91 260 417.15 260.48 417.63 260.95 417.63 261.92 417.63 262.15 417.63 262.63 417.15 262.88 416.91 263.12 416.43 263.36 415.95 263.36 415.23 263.36 414.75 263.36 414.03 263.6 412.59 264.07 411.63 264.07 411.15 264.31 409.71 264.31 408.99 264.56 408.75 265.27 408.03 266 407.79 266.24 407.79 267.68 408.03 268.16 408.03 268.64 408.27 270.08 408.75 270.32 408.99 270.8 408.99 271.52 408.75 272.72 407.79 272.96 407.55 273.68 407.07 274.88 405.63 276.08 404.91 276.8 404.43 277.52 403.95 277.76 403.71 278.48 403.23 278.72 402.99 279.2 402.75 279.92 402.27 280.88 401.55 281.6 400.59 282.56 400.11 283.04 399.63 283.28 399.15 283.52 398.67 283.76 397.95 283.76 396.99 283.76 396.51 283.52 396.03 283.52 395.79 283.04 395.07 282.56 394.35 281.36 393.39 280.4 392.43 279.92 392.19 279.92 391.71 279.92 391.23 279.92 390.27 279.92 389.79 280.4 389.07 281.12 388.11 282.32 387.15 283.28 386.67 284 385.95 284.96 385.23 285.2 384.99 286.4 384.03 287.12 383.55 287.84 382.35 287.84 382.11 288.32 381.15 288.32 380.91 288.32 379.95 288.32 378.99 288.08 378.51 288.08 377.55 287.84 376.83 287.84 375.87 287.84 375.15 287.6 373.95 287.6 373.71 287.36 372.99 286.64 371.79 286.4 371.55 286.4 371.31 286.16 370.83 285.68 369.87 285.68 366.51 285.44 365.55 285.2 365.07 284.96 364.83 284.48 364.11 284.24 363.87 284 363.63 283.52 362.67 283.28 362.19 283.04 361.95 282.8 361.71 282.08 361.47 281.6 361.23 281.36 360.99 281.12 360.99 280.64 360.75 280.16 360.51 279.92 360.27 279.68 359.55 279.2 358.83 279.44 357.87 279.2 356.67 278.96 355.23 278.72 354.51 278.48 353.55 278 353.07 277.76 352.59 277.04 352.35 276.8 352.11 275.36 351.63 274.64 351.39 273.92 351.63 272.96 351.87 272.48 352.35 272 352.59 271.28 352.83 270.56 353.31 269.84 353.31 269.12 353.31 268.88 353.31 268.16 353.31 267.19 353.31 266.48 353.31 266 352.83 265.51 352.35 265.04 351.39 264.8 349.71 264.56 348.75 264.56 347.31 264.56 345.87 263.83 344.91 263.12 342.75 262.63 341.79 261.68 341.07 260.48 340.59 259.27 340.59 256.88 340.59 255.68 340.59 255.44 340.59 254.47 340.35 254 340.59 253.75 340.59 253.51 340.83 252.79 341.07 252.56 341.31 251.59 341.31 250.4 341.55 249.68 341.31 249.19 341.07 248.47 340.59 248 340.59 247.03 339.87 246.07 339.39 245.11 338.43 243.91 337.47 243.67 337.23 242.95 336.75 240.55 335.07 240.31 334.83 239.83 334.35 239.35 333.87 239.11 333.63 237.91 332.91 237.43 332.19 236.95 331.95 236.71 331.47 235.51 330.27 234.55 329.79 234.31 329.31 231.19 327.39 230.95 327.15 230.47 326.91 229.75 326.43 228.79 325.71 227.59 324.75 226.63 324.75 225.67 324.75 225.19 324.99 224.23 324.99 222.07 325.23 220.87 325.23 220.15 324.99 219.67 324.27 219.43 324.03 219.43 323.79 219.19 323.31 219.19 323.07 218.95 322.35 218.95 320.43 218.95 319.47 218.95 319.23 219.19 318.51 219.19 318.27 218.71 317.79 217.51 317.55 217.27 317.31 216.79 317.31 212.95 318.03 211.51 318.27 209.35 318.03 208.87 317.79 208.63 317.55 208.39 317.31 207.67 317.07 204.55 315.63 203.59 314.91 202.39 314.43 201.67 313.46 200.23 312.5 199.99 312.02 199.51 311.06 199.27 310.11 199.03 308.19 198.79 307.23 198.55 306.75 197.83 305.06 197.59 305.06 196.63 304.58 195.67 303.87 194.71 303.38 193.51 303.14 191.83 303.14 191.35 303.14 190.63 303.14 189.91 303.14 188.95 303.14 188.23 302.67 187.75 301.7 186.79 298.82 186.79 297.86 187.03 297.14 187.75 295.7 188.23 294.26 188.95 293.06 189.19 291.86 189.43 288.98 189.19 288.5 188.95 288.02 188.23 287.78 187.75 287.3 187.03 287.06 183.91 286.58 181.99 285.62 181.51 284.66 181.27 283.94 180.79 282.26 181.03 281.54 181.03 281.3 181.75 276.98 181.75 276.26 181.99 275.78 181.99 275.06 181.03 271.46 180.55 269.78 180.55 268.1 180.79 267.14 181.03 266.42 181.03 266.18 181.51 265.46 183.43 263.06 184.39 260.66 184.87 259.46 184.87 258.5 184.87 257.3 184.63 256.82 184.15 256.58 184.15 256.34 183.67 256.1 182.23 255.38 180.07 255.14 179.83 255.14 177.43 254.66 176.95 254.42 175.27 252.98 174.31 251.78 173.59 249.62 173.35 246.26 173.35 245.3 173.35 244.34 173.59 243.14 173.83 242.66 174.31 241.46 174.79 239.78 176.23 236.9 176.47 236.18 176.47 235.7 175.99 234.5 175.51 233.78 175.51 233.54 174.79 231.86 174.79 231.62 175.03 230.66 175.03 229.7 175.03 228.98 174.79 227.78 174.07 225.38 174.07 224.66 174.07 224.18 174.31 223.46 174.55 222.74 174.79 221.54 174.55 218.9 174.79 217.7 174.31 216.02 174.31 215.54 174.07 215.3 173.59 214.58 173.35 213.62 173.11 212.66 172.87 212.18 172.15 211.46 171.91 211.46 170.23 210.5 169.27 209.3 169.03 208.82 168.79 207.86 168.79 204.26 168.79 204.02 167.35 202.58 167.35 202.34 165.91 201.38 164.71 200.9 163.75 200.18 163.03 199.94 161.11 198.98 160.63 198.26 160.39 197.06 159.91 194.66 158.95 192.74 157.51 191.54 156.07 190.09 154.87 188.9 154.63 188.41 154.39 188.41 153.67 187.69 153.43 187.46 148.87 183.38 147.91 181.69 147.19 180.5 146.47 179.78 145.51 178.57 144.07 177.61 142.63 176.65 142.15 176.17 141.67 175.93 141.67 175.69 140.23 174.49 139.03 173.53 136.87 172.33 136.63 172.09 135.91 171.61 134.71 171.13 134.47 170.89 133.99 169.69 132.79 165.85 132.55 163.93 132.31 162.97 132.31 162.01 132.31 161.77 132.07 161.77 131.35 160.33 131.11 160.09 130.39 159.85 128.71 160.09 126.79 160.33 126.31 160.33 125.11 160.09 124.63 159.85 124.15 158.89 123.43 155.77 123.43 154.57 123.43 153.61 123.43 150.25 123.43 149.29 124.63 147.37 124.63 145.69 124.63 144.97 124.63 144.73 124.39 144.25 123.91 143.77 123.19 142.09 121.75 139.21 121.51 138.73 121.51 138.49 121.27 138.49 121.27 138.25 120.55 136.57 120.07 135.61 119.83 132.97 119.59 130.57 119.83 128.65 119.83 128.41 121.03 123.85 122.23 119.29 121.99 117.85 121.75 116.41 121.75 115.45 121.75 114.73 122.47 112.33 122.71 112.33 123.67 110.41 124.15 109.45 125.83 107.29 126.31 106.09 125.59 103.45 125.59 103.21 125.35 102.49 125.59 101.53 126.07 100.81 126.31 100.33 127.99 99.85 128.71 99.85 129.67 99.37 129.67 99.13 129.91 99.13 129.91 98.89 130.39 98.65 132.55 98.17 134.71 98.65 135.43 98.65 135.67 98.41 135.91 97.93 135.91 97.69 135.91 96.73 135.91 96.01 135.91 95.53 136.63 94.81 137.59 94.33 139.99 92.41 141.91 91.21 142.63 90.73 143.83 90.49 144.55 90.25 147.91 89.53 148.63 89.29 148.87 89.05 149.59 88.33 149.59 87.61 150.07 85.93 150.55 84.73 151.27 84.01 152.71 83.29 153.43 82.57 154.39 81.61 155.11 80.65 155.11 80.41 155.59 78.01 155.83 77.29 156.31 76.81 158.71 74.89 161.11 73.93 161.59 73.21 162.07 72.49 162.07 71.53 162.07 71.05 162.31 70.81 162.31 70.57 164.47 70.33 165.19 70.33 167.83 70.09 168.55 70.09 169.27 70.33 169.51 70.57 169.75 70.57 170.95 71.29 171.91 72.25 174.31 72.73 175.03 73.21 176.23 74.17 176.95 74.17 177.91 74.89 178.15 74.89 179.83 75.85 181.27 76.09 181.99 76.33 182.71 77.05 184.63 78.01 185.83 78.73 187.51 79.21 187.75 79.21 189.67 80.17 191.35 80.65 192.31 81.37 193.51 81.85 194.47 82.81 195.43 84.01 195.91 84.01 196.63 84.01 197.11 83.77 197.35 83.77 198.07 83.77 198.55 84.01 199.03 84.01 199.99 84.25 201.19 84.97 201.67 85.21 203.83 86.41 204.55 86.41 206.23 87.37 208.87 88.81 209.11 88.81 210.07 88.81 211.99 89.29 212.47 89.29 213.43 89.29 214.87 89.29 215.35 90.97 215.59 91.69 216.07 93.13 216.31 93.37 216.31 93.61 216.55 94.09 217.27 94.81 217.51 95.29 217.51 96.97 217.75 97.45 218.47 98.89 218.47 99.37 218.23 99.61 218.23 100.33 218.23 100.57 218.23 100.81 219.43 102.73 219.43 103.21 220.87 105.85 221.35 106.33 221.59 106.81 223.03 107.77 224.23 108.97 224.47 109.45 225.19 110.65 225.19 111.37 225.43 113.05 225.91 114.49 226.15 115.21 227.35 115.93 227.59 115.93 228.07 115.69 229.51 116.17 230.71 116.89 231.43 117.37 232.15 118.33 232.39 119.53 232.39 120.01 232.63 120.49 233.59 121.69 234.55 122.65 234.79 122.89 235.03 123.13 235.27 123.13 238.63 124.57 239.35 124.57 240.07 124.57 242.47 126.97 243.91 129.37 244.63 130.09 244.87 130.33 245.84 130.81 246.56 131.29 247.03 131.77 248.24 131.53 249.19 132.25 249.44 132.25 249.91 132.01 250.16 132.25 250.4 132.49 249.91 133.45 249.68 134.17 249.44 134.89 249.44 135.13 249.68 136.33 249.68 136.81 249.91 137.29 249.91 138.01 250.16 138.49 250.16 138.97 250.63 139.69 250.88 139.69 254 140.89 254.72 141.37 256.15 142.33 257.83 143.53 259.27 145.21 259.75 145.69 262.39 146.41 263.36 146.89 263.83 146.65 264.8 146.65 265.51 146.41 266.48 145.93 267.19 145.69 269.6 145.69 270.32 145.45 271.52 144.73 272.48 144.49 272.72 144.25 273.44 143.29 275.12 141.37 275.12 141.13 274.88 140.41 275.12 139.69 277.04 138.25 278.96 135.85 279.44 134.89 280.64 133.93 281.12 133.21 281.36 132.49 281.84 130.57 282.08 129.85 282.08 129.61 282.08 129.37 282.56 127.69 282.56 127.21 283.28 126.01 284 125.05 284.48 124.81 285.92 124.57 286.16 124.09 286.4 123.37 287.6 121.93 287.84 121.45 288.32 119.53 288.32 119.29 288.08 117.37 288.08 115.69 288.32 114.73 288.32 114.25 288.8 113.53 289.76 112.57 290.96 111.37 292.4 110.65 293.12 110.17 294.08 109.21 295.04 107.77 296.48 106.57 296.72 106.09 296.72 105.85 296 105.13 295.76 104.89 295.76 104.65 295.76 104.41 295.76 104.17 296 103.69 295.76 102.97 295.76 102.73 295.76 101.29 295.52 100.81 295.28 100.57 295.04 99.61 295.04 99.37 295.04 98.89 294.08 96.73 294.08 95.77 294.08 95.53 294.32 95.29 294.56 94.81 294.56 94.57 294.56 93.37 295.04 92.65 295.28 92.17 295.52 91.21 295.76 90.49 296 90.01 296.24 89.53 296.48 89.05 297.2 87.85 297.68 87.13 297.92 86.41 298.4 85.69 299.12 84.97 300.32 84.25 300.8 83.29 301.04 83.05 301.04 82.33 300.56 80.89 300.56 80.17 300.8 79.93 300.8 79.45 301.04 78.49 301.04 77.77 301.04 77.29 302 76.09 302 75.61 302 74.17 302 73.93 302.24 73.69 302.96 72.97 303.44 72.25 303.68 72.01 304.16 70.57 304.4 69.61 304.64 69.13 304.88 68.89 305.12 68.41 305.36 67.69 305.36 66.97 305.6 66.72 305.84 66.25 306.32 65.77 307.52 64.56 308.24 63.13 308.48 62.88 308.48 62.41 308.96 61.92 310.4 60.97 310.64 60.73 310.64 60.48 310.88 60.48 310.16 59.52 309.92 59.28 309.92 58.8 309.92 58.56 309.92 58.09 311.12 58.56 312.56 59.05 313.52 59.77 314.24 59.77 314.96 60.24 315.2 60.24 315.68 59.77 315.92 59.77 318.32 59.05 319.28 58.56 320.24 58.09 321.44 57.84 323.36 56.88 324.08 56.65 324.32 56.65 325.04 56.88 326 56.65 327.44 56.65 327.92 56.65" style="fill:none;stroke:#222;stroke-linecap:round;stroke-linejoin:round;stroke-width:1.6800800561904907px"/></g></g><g style="clip-path:url(#clip-path)"><g style="clip-path:url(#clip-path-3)"><text transform="translate(307.88 253.7)" style="font-size:16px;fill:red;font-family:TimesNewRomanPS-BoldMT, Times New Roman;font-weight:700">1</text><text transform="translate(312.68 253.7)" style="font-size:16px;fill:red;font-family:TimesNewRomanPS-BoldMT, Times New Roman;font-weight:700">(</text><text transform="translate(316.04 253.7)" style="font-size:16px;fill:red;font-family:TimesNewRomanPS-BoldMT, Times New Roman;font-weight:700">1</text><text transform="translate(321.08 253.7)" style="font-size:16px;fill:red;font-family:TimesNewRomanPS-BoldMT, Times New Roman;font-weight:700">)</text></g><g style="clip-path:url(#clip-path-3)"><text transform="translate(260.12 585.65)" style="font-size:16px;fill:red;font-family:TimesNewRomanPS-BoldMT, Times New Roman;font-weight:700">1</text><text transform="translate(264.92 585.65)" style="font-size:16px;fill:red;font-family:TimesNewRomanPS-BoldMT, Times New Roman;font-weight:700">(</text><text transform="translate(268.28 585.65)" style="font-size:16px;fill:red;font-family:TimesNewRomanPS-BoldMT, Times New Roman;font-weight:700">2</text><text transform="translate(273.32 585.65)" style="font-size:16px;fill:red;font-family:TimesNewRomanPS-BoldMT, Times New Roman;font-weight:700">)</text></g></g></svg>