<svg viewBox="320 12 250 250"  version="1.1" xmlns="http://www.w3.org/2000/svg" xmlns:xlink="http://www.w3.org/1999/xlink">
  <g>
  <path d="M511.94380898597956,171.99995470171507L511.06921131496347,172.705860400667L509.62866101367035,173.5518457103035L509.011395129437,173.67886251641175L508.05126864643535,174.5302873907558L507.37739018301,174.88410494463733L505.7734484898392,176.85228657962216L504.7775615810133,177.88067832474735L504.14072411639427,178.32052484702126L503.2451917618346,179.6378628860066L502.6034600294006,181.2895329857747L502.22670690454834,181.68188309448306L501.4156438651262,183.19198975180097L500.87590277068375,184.92957611748625L500.86123747998863,185.90837101458146L500.5995583481672,187.24771449725813L499.5289335200032,189.35643321343287L499.23292269088415,190.65757380253945L499.5095013532882,191.54877235608637L499.3072216954206,191.93667435873886L499.08468798451577,193.43102987361726L498.0091763808923,194.34689947506922L497.9505037188428,195.0435656884738L497.16288263673414,195.52846905965907L497.245403910998,196.21119265947345L495.997279957548,197.69932211934338L495.4953805975747,199.02662595830498L495.5946004070465,199.84349182917322L494.5229558110732,200.5829367868364L493.3479004182409,201.1387740221826L492.28839675627023,201.26642028849892L491.6743418453334,201.77913668477868L489.9749531152411,203.51564535078523L490.10276366615653,204.12046347862452L489.3840099386143,205.23812975955389L488.48675407230985,205.75410140441L487.9949020762906,206.87281495656862L486.5757796430371,207.09014581900192L486.4844302933052,207.67330127738023L485.4092976687207,208.45039220672606L484.83529690701835,209.1475777814203L484.2765944034618,209.36172235719096L484.2610489096005,210.1754678187981L481.98059631488286,211.67891047955345L481.5492981697571,211.46949990608664L480.0282366043939,211.76347867532604L479.3878297595584,212.17214740998133L478.78820327265566,211.789660972815L478.0395233735253,211.86746793106158L477.7076778087139,211.52302078464163L475.52640684885773,212.1981709829197L474.7899329235879,211.71705563357227L473.82224798906464,211.5795534555018L473.6350299909245,210.89961976149152L472.7896403780687,211.2317099115744L472.0694370057863,210.97739398055546L470.68609573877256,211.2237829958949L469.90732438057603,210.6861278081933L469.3870473357638,210.9209028279256L467.69621629140966,210.72024587689884L466.85895785301545,211.33320681454825L466.73956931937937,211.87310895716928L465.8255641622127,211.43706685755296L465.3269724328202,211.82618507876396L464.3685064026904,211.47040629587173L463.69659363933533,211.40983147311908L462.9661633937976,211.87402281401046L462.76799588675203,212.35362597127005L461.7717491321964,212.301962776859L461.4911825857271,212.55674323055064L460.79707640224296,212.41437689031318L459.8189936721901,212.49116840455372L459.11245095619597,211.89093324320493L458.3048685575086,211.684668056213L457.03800422675704,210.85901359363925L455.96529606583863,211.07566878187936L455.31375450946507,210.83071923092484L453.7507395069879,210.78333605219177L451.59997470943927,211.40089337541758L449.7565669337637,212.23664177448063L449.00573231218004,212.13502902538858L448.1813114534307,212.6351951844672L446.2757318254189,213.03364312347094L445.70785634171625,213.38350754190196L444.42068003714667,213.23576722166854L443.59563149628593,213.45823277831005L442.59804212567906,213.21096355513055L441.36203199323063,213.60829991050377L440.74884266057416,213.66236645765093L438.96733441124525,214.1769361876395L437.6823409159879,214.04093725214898L436.9220645977366,213.47189676393373L435.2818287091068,213.22358781125513L434.72726145102934,212.44749881962252L434.2142931254457,212.52925232666075L433.3775882452828,212.27277177331325L432.66010028975506,212.32639413189645L431.92334534557085,212.08716547487347L431.3249638778798,212.49807961130318L429.6572946437591,212.91766406179067L427.8288921376625,212.29540028957854L426.2446680602734,212.70926381106437L424.2988264916421,210.7998868280365L422.35696668287346,210.93712368765318L421.6376847504398,210.56416635731148L420.3107503534011,210.63221774828617L419.8454663358207,210.1725888561732L419.11596512011965,210.1602712545282L418.52562466155723,209.6983186587604L417.1807453132933,209.46266971576915L416.5834983645909,210.0233869198246L415.2969184552712,210.17346842943334L414.9635154254538,210.68318434263801L414.9050364279574,211.5025383114098L413.5418308987646,212.40695798661L413.31741232343484,213.71096469866825L413.0013037919125,214.64354796998487L412.346452760532,214.5736369002325L410.43593437282107,214.95672675255264L407.51083910777015,214.85254072697444L406.5390187541125,214.99350368032174L405.74084918254084,215.38033306665875L404.2320707824256,214.98969024501457L403.5457624874907,214.4815223135065L402.32883487729123,214.06582998932572L401.4326192712506,214.0922446454797L400.80218301769855,213.71092165752816L399.4935017624557,213.6227809711072L398.36545016544915,212.433998986171L397.5207999595077,212.35258885246913L396.64745280622446,212.02202777870025L394.85130283641774,211.76970673124106L394.36029374959253,211.44202229692928L393.19201015766885,211.35069275648857L391.56253594863665,211.46047387964518L390.1741673471406,211.29353780915972L387.74085691719665,211.29370940344324L386.564541292948,211.0719972544848L385.04394122339727,210.62862158944063L383.8150269539401,210.6126965153362L383.1487002708309,210.99826484312325L381.7958773369646,211.01297812135363L380.00845419984034,210.61419930682223L379.77153686898237,210.12205023105162L378.7878676510081,209.71613551403334L378.14482411157223,209.0636600057078L377.61826539836693,209.0777210501592L376.4266079743211,209.5344485775886L374.60080792339795,209.14497438487342L373.7844236269666,208.5672681553715L372.492220516051,208.0234885229038L371.36862669303446,208.10501397728876L371.30394647016874,206.63801836267157L370.9744976718939,205.89423423842527L370.4382275708231,205.48560308419292L368.8914519437676,204.9772276709482L367.58316277503036,203.90492357210678L366.50818330578113,203.70726598427518L365.6737793954744,201.6358941751232L365.55347961978623,199.93461222080532L365.2476035434702,198.9792903550151L364.8928812424383,198.61394159412976L363.4463800118174,197.67648354843732L362.83597388336784,196.8138721154337L361.80008854275366,195.91473764248258L360.652528066541,193.58357800190606L360.53888561706117,192.5092928192389L360.0166350780528,192.12098993286872L358.90930157366165,190.57287463147895L358.3192441965548,189.9381936337668L356.5745672654557,189.0005976466964L356.3211992874312,188.06047347362255L356.1349055439314,186.67364714148152L356.1370716688325,186.6535257248952L356.24177643585426,185.5978126735372L355.6840796832257,184.4933455452101L355.0199915401208,183.83201265512162L354.5583162564435,183.02984240021578L354.2873928095869,182.09946860535365L354.0051880427054,181.76723998537182L353.7498760480921,181.50872553563386L353.3766927216384,180.55963418712236L352.98955124198255,180.1879612857565L353.2474117857164,179.7286380091964L353.66484271396257,178.22067428255195L354.3909232785518,177.73926159565508L355.21004698958495,176.89121758268175L355.991123989872,175.16301140984433L356.0313606692944,174.2698796673758L356.3574764583209,172.7599261904179L356.7118832369524,171.86207306752567L356.79156318218884,170.91442332485803L357.2335217918262,169.86155596337994L356.9892931631439,168.00978843692974L357.14277866767225,166.2945140703323L357.1016747281501,164.7816359232702L356.7282511702142,163.77958865393612L356.6623878005739,162.8320371772852L358.00617373627756,161.2512820416432L359.4594327840714,160.23980210130048L359.8252694296316,159.67505872458878L359.9226844269251,158.91154398115577L358.6107354068081,157.32076842157676L358.8779436158802,156.7039151926965L359.44584945649694,156.29916733362188L358.94363614554095,155.05278237477887L359.33979386574356,154.00498209440502L359.99848115170244,153.9537187708911L361.12583296349476,153.1172194576875L361.4268959557048,151.89024030875225L360.708790648936,150.70807883020552L360.7749201315273,149.35777890568352L361.6876990940109,147.75442496756932L362.0930703980157,145.5632430223759L362.81042840410737,144.72136635636343L363.8475776166306,144.4644215909493L362.5787388016324,142.25189020164908L362.3934768300096,141.41034860906166L362.7764629009798,140.50116782841178L362.52126943568874,139.16011403782977L362.9932084758002,138.75855421096185L363.6339096060983,138.69406811435056L364.16962030998184,138.33185770934415L364.54060962861695,136.69046947983134L366.10551561220564,135.8781142063508L366.7701408320572,135.6446750433588L370.41357131438053,131.05309613120608L371.9746350879468,131.5011863514601L372.9778845891233,131.9783615860024L373.5238295710478,132.6021619568246L374.64609054648827,132.07841222602656L374.3866069663454,131.2284761686078L374.22120179993726,130.0073205809067L374.4870532906716,128.59227184206065L374.79725959656207,128.0263346501506L374.9463357669192,127.17392177133297L375.87122535978415,125.72631311725127L376.3601278341448,124.51516644545518L375.982447763512,122.70249743195018L377.11516911093713,121.91659613232514L378.35106861430904,121.59300654545586L378.60791032261477,121.17529618206754L378.44243795277725,119.11726365348659L377.52370956087543,118.31938765352788L377.2760538628172,117.78637499175329L376.3491231163316,117.76322770256684L375.3840481156112,117.47767484934775L376.6053629633425,116.80827834061074L378.04464417651616,116.22376038397579L378.74206199333275,115.61280987749342L378.90915695993317,114.8122534480699L378.78642586966816,114.0951191993754L379.4885948269184,113.64810281639075L379.80472978780017,112.50132225428479L379.6107454484045,111.31054850146666L379.73727357021926,110.20097127210465L380.62521117302094,108.39101936709358L381.8448037882699,107.65106264870064L381.9227652307309,106.80819405362308L382.7125062772211,105.71052135271384L383.52371301232415,105.60108952741757L384.3923439764585,106.60253791331434L385.6389433672448,106.72961579202638L386.1742395465044,107.04586037054469L386.25281881619594,108.11426707026385L386.1420129798935,109.16347990713166L386.49337858329454,110.41534772613977L386.8958174772124,110.9513366966039L387.8932039554056,111.405283905131L388.61600571036615,111.06610682752853L389.5833649499473,110.24139959148215L390.3895359780727,110.0619174315907L390.734939009315,110.43322446010279L392.65507414808235,110.5542041371773L392.89590463426066,110.78936325617724L392.86992611216556,111.67038666491953L393.2731072753122,111.92636515303639L394.6411837897431,111.58896050189651L395.1942752148243,110.55783757016616L395.32050445021014,109.61514182604333L396.3521796832101,108.94560530875333L396.892442262415,107.71772969815538L396.4764386868919,106.17043100064166L395.90433337504874,105.46332589888516L396.5141632225241,104.13855419017636L398.2296377035491,102.27465912271964L399.4185438999448,102.05742835724959L400.95946645709773,102.29911128961066L402.030550088748,102.81705353575308L402.6823541869635,102.72228148213617L402.7589532573802,101.52919269674021L402.2914757507315,100.59585966817758L402.9184518360962,99.47833934545906L403.8936899056098,98.36304299069525L403.15162951656384,97.40368312730607L404.60581431675746,96.49999484558339L405.8876400858826,95.41089999325322L406.7478492504961,95.27865339366235L407.4045145829732,93.92154005265911L408.92224731396345,92.34654876182685L408.36553227379045,91.69281367126041L407.8400782194294,90.56588328362432L407.3625445026046,90.14891934111529L407.443389980559,89.33777014183215L409.22603627560966,88.50082836194179L409.81867911346126,87.962463210044L410.3520654325548,86.99304301561733L410.90604712297136,86.5730011536325L410.59600467514974,85.96240377830236L410.7130824623491,84.7200703321123L411.2507883587459,83.85191010098151L412.24176532351703,82.71509012129172L412.3682759862313,82.23373618847381L412.07830250097686,81.46277289652062L411.1417301301917,79.92773530378145L410.0901432866849,79.30548990871466L409.3336584052922,78.0428442207949L411.39469326434846,77.84289869715576L411.8822065130298,77.19479996040081L413.03755371057196,77.28444049669179L413.96071224790285,76.77538300526976L414.8579125175602,76.64296041954731L416.58941761981623,77.0191325607193L417.7946500624421,76.6893140930606L419.3425874428722,77.15843346654583L419.96993221425873,76.82634752962895L420.8890593804972,76.95703173009042L422.93155323291285,77.5335355261368L424.1170440199203,78.4104897578809L424.6003038570343,78.44465364629013L426.4701680698854,77.48943531584428L427.39694697524465,76.47694517060154L426.7705773536254,74.92187607211326L427.303559499087,73.70771755900478L428.78853950111807,72.18464724092428L429.1800887383215,70.98067153588454L429.6075965151067,70.57406216282197L430.9314626885789,70.81472921942168L431.9453020973706,70.43836265986283L432.4428684084123,69.15049017630736L432.738663454209,68.85591291746096L433.20665742866913,67.36196822164493L434.6122156769634,65.54655801459194L435.0056990099438,64.61988437527907L435.46600892085553,64.24575852316957L436.87922940711724,63.761321739742016L437.39739585501593,63.22187457928885L438.1872525606959,62.99569755531775L437.79075254961936,62.33032969598844L438.18406227571904,61.47388170753129L437.8297474681567,60.834067045289885L437.3853368173004,60.550305107219174L437.3615055109003,59.92270366467437L437.8851274996414,59.016372012602915L438.0244357865304,58.08831710411232L438.5673265911464,56.87095622059951L439.16793328773565,56.276799069342815L439.5777142709594,54.7021151359495L440.027650856784,54.22789243972875L442.04488083641627,53.55620247990373L442.9323007913772,52.8032994063351L444.5626202239837,52.1042146434047L445.12360773493856,51.535245775364274L445.03254779934286,50.87157690396634L446.033447960006,49.682326372814714L447.0885684172317,48.82988070799729L447.85066672749963,48.97990841659612L448.4429828897664,48.78269834864568L448.95276527475653,49.39824651459821L449.4781627205557,49.46694882315296L450.0445202962728,48.95788193403769L450.216252125545,47.55274449904937L450.5692767152177,46.85723635134218L450.36446432431694,45.90184962418698L449.87568378049764,45.50210792326652L450.084462812476,44.44397179755015L450.8216883920795,43.05199905085465L451.1247828901287,42.22507367394064L451.6308622264369,41.87211977821153L451.73782809027034,40.82317799863995L452.33476063909984,41.14770547873195L454.10545351989276,41.444888543657726L455.16477216783824,42.28529816183345L455.75172826270136,42.44936469481672L456.43439579517144,41.92619631174966L458.02598920462697,41.966536575543614L458.2325551111353,42.29910081984508L458.39939272431,44.0927829841321L458.7374316895912,44.953550579793045L458.2197888884584,46.070097082345455L457.40128898448893,46.97426764385273L458.2629136090072,47.41614091086012L459.0057189786494,48.19949020700733L459.090170094747,48.96320845242735L459.7326236501285,49.57513769220259L460.05754990543574,51.033381162829755L460.4292583193128,51.55275401681229L462.0211987229013,50.77429956359174L463.2725049595647,50.536085555659156L464.47590780758037,50.98086784630232L466.0273245734752,51.7137631105561L468.98144827675424,51.326303468085825L469.7128222647916,51.06020331642321L470.0473249919851,50.600002352941374L471.1237665442568,49.98941085338447L471.8744106288141,50.135264692349665L473.0777334956765,49.8970833985868L474.19709920420064,50.23581184888644L476.9348962656841,49.717049509729804L477.6653254514167,49.912928338460915L478.3815203758968,51.102529059689004L479.74363103858195,51.78470223362547L482.6883980464954,51.835420079725736L483.41850923542006,52.0561519057037L484.91326566028874,54.33652968441129L485.424896541841,54.967563155097196L485.55582801548735,55.49586215353884L486.07389277506445,56.03721760331882L487.17039735686194,56.35088636181172L488.6087040257444,56.9988533662663L490.35666773999037,57.44835694946141L490.7512985721587,57.88308580894409L491.16217354867695,57.43398753540714L492.32792642426284,56.97020217114914L493.3582758348166,56.1689920983672L494.028699331946,55.92309404661955L494.8587143990553,54.90310170268003L495.5761348468113,54.70991979212067L498.51968851254423,54.64408331667437L500.1747608774094,55.12500532982449L500.3565997231235,54.68352658482945L501.56163838171415,52.91597755977182L502.2811794162226,52.79768914457782L503.94924804816037,53.14376742636432L505.25645756499216,54.32281038730707L506.76301885925204,54.60683888033236L508.4298356534018,55.22974135872391L508.92375297944454,56.57926584118832L509.4773467659361,57.261008197588126L511.0680123618404,57.78910430160704L511.94970756251496,56.803299683799196L512.9716111912348,55.89910902007523L514.2110016577572,55.67125039831899L514.5853351716469,55.37569969523156L515.8308002211525,55.35440761937298L516.4517592398661,55.7900561866245L516.378151017947,56.11211105210805L517.071230910733,56.647233981265344L517.4314297286364,57.504687537514656L517.6635970815696,59.85064712537769L517.6024505758833,60.99692924919145L517.8105363468349,61.592648559883855L519.0385994322351,62.66230800313497L520.9482141866683,62.51189516045724L521.9737892143312,62.57303637482164L523.1566105315142,62.38068990996635L524.0908722268505,61.84993311791004L524.9955826713449,60.66909563786885L526.7836412742181,59.005519594965335L527.1412829776564,58.85950140802743L529.0547592955991,58.971239792283086L530.3555579883323,59.863597127859975L531.3575541080354,59.86556948632733L532.5392735583373,60.223908168114576L533.5535437001417,61.19105300613319L533.8286969677865,61.74546090078093L534.5669114686971,61.73265392306166L536.1323889566884,62.1857612644435L537.1352972044951,63.01605549834858L538.5991569665457,63.65474979238115L539.6766342480987,65.02921186335698L540.1401630244181,65.35233987071388L541.8730930701204,65.32866463512073L542.6391724839741,66.05929647702942L543.3486277617521,65.86989032198562L544.5100433168045,65.88798219732053L544.7680029248768,66.25943409672982L544.8362292360216,67.36937432079685L545.0913788286198,68.14393881640626L545.965374133968,68.91584690448963L545.920991210889,70.24220160830646L545.4487457887517,70.47560581010566L544.3809104524371,70.5836570704123L543.4551173012005,71.50385719331462L543.2829388466635,72.20858653053165L542.3701823677256,73.3503445657152L540.9372111885023,73.99020925936293L540.4275376272053,73.94099089270549L538.7687307399028,74.52094182430028L538.8789278602744,75.35520410946992L540.2298811289365,75.77157775718842L541.8151012143026,77.0647322808536L542.0667300032619,77.8363814364393L542.0402458824319,78.86040540986596L542.5739993835377,79.92778403916873L544.0148758175892,80.75913745325215L544.9091175909089,82.13043282190029L544.4013515962688,83.2354134956031L543.5121887587775,83.72747213098319L542.5799406348196,84.5268963534827L541.8071504914624,85.62331096374965L541.0064910602487,85.79014401814766L541.0853951409808,86.41537086726203L540.853767309025,87.29674889702073L540.9444584009543,87.84961504338662L541.35129050865,88.20793668485385L540.9046180435289,89.27840876496066L539.6548805348357,90.51400927677332L540.1779340311587,92.47496530051376L540.1321049711623,93.29352225647199L539.5452056116083,93.51569697436025L538.9285595482797,94.2356652393064L537.8826687159781,94.6765391914605L536.9440939420529,94.72554609524468L536.0474541435615,94.9934817008143L535.0009925538252,94.88405272418822L534.9931646653167,95.30324025493974L534.450961637187,95.96757459419041L534.0439106278172,97.77747068326244L534.0141970518962,99.66070787141052L534.2699913357719,100.08669313160226L534.2324606312613,100.84208188769753L533.7508498365569,101.82552133340141L532.7003137127322,103.20625325306355L532.6291360065188,103.90959472096802L532.2049467527213,104.52547940207114L533.0198123748014,105.5202852815928L533.0665695902753,106.20676908867063L533.6972690356233,106.91999069455869L534.0722806430385,107.66155913113471L532.6123771352286,109.25740479800243L532.0335024929336,110.63347585081101L531.9621133885703,111.82567284310608L531.4825870759123,114.04625046117053L529.2556177395454,116.3042362078877L528.0790769063569,116.67017119056436L527.5717778214312,117.32626834792791L526.3219661328876,118.13737626568309L525.7596131495338,118.91037919101836L525.1669504167039,119.28573453801437L525.3682535334447,120.71654717080673L524.8160750581119,121.93996291236817L524.5041486590962,123.182587416557L525.0764602803429,123.82961518032425L524.0055216835754,125.42499149737887L523.5911938172976,128.06953483454254L522.2943946048254,129.23009925276256L521.5403021831589,130.13565518928317L520.3178971120578,130.52163270323035L519.3775178922151,131.06744481090118L518.4942262287732,131.2652340368286L517.4674276865917,132.0220753103822L516.3055481495321,133.27594746648901L514.6769812057064,136.04227747265213L514.5946012295099,136.62826840820617L513.7999274354588,137.96733488516838L514.8565707391099,138.82902947969978L515.276654308771,139.74042612293033L514.8016813684408,140.5148931102376L513.2832877999572,141.78279161459704L512.1761422478667,142.1946713946254L511.98163774736895,143.29110706817482L512.0869830451375,144.4393142313893L511.2247733244112,144.874975018246L510.69624161531465,145.66864036764582L510.14100040682024,146.0572021245398L509.6570699479962,147.32111429951328L509.6696536059644,147.92740010516445L510.31900643969493,148.58226480745452L511.25498935062933,148.73147686183347L511.68382832124917,149.36856623667245L510.48015532802674,149.65439843199692L509.90473447343174,150.23952240603558L509.2536632674746,151.70403021910897L509.2247120910324,152.1679536616175L510.13102837273254,152.8414374016138L510.13757400320173,153.4367465910109L509.29435330997876,153.85650745959356L508.5965355745284,155.08026056844665L507.26498510565216,155.31060600141336L506.5679311140739,155.81838521140617L505.97725493287,156.67434358168975L505.76423195184907,157.48025430498365L505.9570181319541,157.8273485176469L505.79913393182505,158.73776832085332L505.81882457583924,160.10329764891048L506.155574239845,161.01281605721124L505.82198572326524,161.75110017630868L506.9695455122783,163.27925230707115L507.4819920468726,163.36649911238146L508.32396653722026,164.14699546445445L508.94651521088963,164.43468932825363L510.0264540565913,166.17868162112973L510.8656670580167,166.7257030852088L511.7076138173579,167.0030374280759L511.4621549075928,167.77127100322286L511.75723989797916,169.11361505018613L512.5412984907562,169.56880885252667L513.0908277521557,170.16025254300803L511.88519532236023,171.81142337246365Z" fill="red"></path> 
  <text x="430" y="135" font-size= "7" font-weight="500">
    ताप्लेजुङ
  </text>
    </g>
</svg>