<svg  viewBox="50 -5 220 220"  version="1.1" xmlns="http://www.w3.org/2000/svg" xmlns:xlink="http://www.w3.org/1999/xlink">
  <g>
  <path id="path-01010" d="M235.42969816994446,41.69307290644974L235.1633993544383,43.05852603585208L234.72143687960124,43.9224778161888L234.38072605128764,45.307511982935466L234.50715320650852,46.04599379147385L234.2905130795407,46.8276717874769L234.45919207363113,48.421987619390165L234.86979354248615,49.24670100432195L232.99894281497473,50.22823624662669L232.4940024541611,50.93117051766876L232.51730730412237,51.552335369826324L231.49681826241067,52.32615768589494L231.29309367182213,53.62205325319246L231.4699494469096,54.00677745501889L232.8570736720867,55.5715028151908L232.96500706861843,57.79448878639414L233.16923994942408,58.53641043155221L232.95910404258393,59.518250464064295L233.05900239995754,60.07670798007621L234.23695742937707,60.99619950384931L234.62972985341912,61.709329743755916L234.72983751730135,62.36501660201884L235.7077453961174,63.767137577925496L235.66775345890346,64.21347241806507L236.1728843269666,64.8823272961954L236.30297644273378,65.66224669442272L237.0881347859795,66.90453140836962L237.33327948728765,68.42409591537762L237.01333524698202,68.80201041538476L237.05840896605514,69.75507382349588L236.20358198845497,70.46430732609952L235.9562117897658,71.26438673044231L234.86651674881796,71.91732286232309L233.88192309586884,72.85098433166058L233.75947141512006,73.19782906310047L234.72928886923182,73.29948591125049L235.69661050448485,73.63525474645849L236.7363052218825,73.25727956284845L237.44617722255134,73.19510252254531L239.23324795098597,73.5930528580293L239.77594779853462,74.45177755083114L240.3921405487854,74.8032132351318L241.9097128494177,75.27778250488791L242.27894071117043,76.03703464171849L241.69808493600794,76.5040263041983L241.46807554707993,77.14187596702413L239.92551454275963,79.06979442089687L238.05365043827987,81.04669189369906L236.66305236472908,81.55465766695215L235.56762945950686,81.82511280929248L235.38277500195545,82.07992296135126L236.15563043341535,83.83468938008355L236.13368379277745,84.80097712316729L234.9722527742597,85.46371236145478L234.51441393965797,85.9250620955263L234.40142127480794,86.80854004105913L234.63880737494037,87.61375668136861L234.55338369839956,88.18260487033695L234.93146946958223,88.96306160414406L234.90949779499715,89.5273044885289L235.3538550484118,90.99739861413946L235.05605976070729,91.61057176880877L234.3257190052209,92.48091735380422L235.72276184635484,93.06280283951492L236.8703060294647,94.02035526710097L237.59477726336263,94.2509493909838L238.20402927948817,94.82609403182778L238.19974795462622,96.4176094461036L238.50764312437605,97.20730768876274L239.45123275403603,97.75139606531866L240.3959388885669,97.64903585534012L241.33794846771707,98.06376125980205L241.79101628810895,98.67002273565231L241.5089827293814,99.56037020772692L241.59325182396424,100.77400712048257L240.99427603035656,102.35916065203946L239.78749841708486,103.39273203305038L239.52018626337303,104.3469482538485L239.54556112945284,104.93018057711197L238.7364426325039,105.79296020806032L237.7896878462525,106.18181487724723L237.05804104233175,107.0687929245305L236.36670841416708,109.0831242210752L236.28337624926644,110.56710417174872L236.62563065258655,113.33538674444117L236.44163802475668,115.08110557133386L236.51163706524676,115.76325522218121L236.29257179447814,116.39540134178242L235.67482935745647,117.26859671798866L235.53249491415772,118.98552678319083L234.52346430904072,119.97324406584175L233.63407336180535,120.24372735229099L232.90989266847828,121.60531778218956L231.50402706290697,122.57709477208209L231.47345443287122,123.21901943222292L230.13972928297153,125.17497363714392L229.4071673742692,125.75382240328236L229.1509682644064,126.41995088121348L229.05649303556856,127.57725765694977L228.80616297615052,128.53615747793083L227.98167117722187,129.4015023439024L227.94646001017827,129.9243557754371L228.60696693768114,130.7575884462285L228.44555380554084,131.33974081392353L228.65755074797198,132.3496926048365L228.70659627856003,133.5426194914089L228.50961707639726,135.16356390841702L228.50864467829524,136.56242105749607L227.82366743879538,137.83841140167988L228.0238126835502,138.17022718852513L229.68331322353697,138.69313026173768L230.28584115657213,139.21061946135615L230.8366536767753,140.25158374199873L231.16134433550178,141.248310521446L231.18933764040776,142.81052785619886L231.3566204877643,143.2637256263779L231.10583784038317,144.6477073346732L231.20254467434643,145.68762822434383L230.81651831838826,146.01328895822098L228.85000678046708,147.19871607210462L227.55584075427032,147.88015713225195L226.43042646972026,149.16267126478215L225.2137471148235,151.97353471849692L225.0781852499531,153.08139126453443L225.24064178888875,154.2840822185799L226.1699425546467,155.58824269512752L226.24106872093762,156.0990023738077L227.48685571174428,156.96478864894743L228.7451276208485,158.33163342357238L229.58787170233336,159.41042976301742L230.23997241961843,160.47896965349992L229.35487022372763,160.91118847759572L229.15391540438577,161.4260473545528L227.68817774402123,162.22200641818472L226.64239308690594,162.42771530468508L226.3466809398924,162.88453773210676L226.0069197133671,164.75060554034735L225.23572893319943,165.48312938845993L225.15339851360113,166.18490939156527L224.43630324228798,166.6798790493758L224.273677925863,167.9212254228023L224.43893293539804,168.88634725332668L224.07375230573962,168.8721269462203L222.6399161255431,170.75828765732876L222.0478596524663,171.18363484878046L219.12582182019833,171.63789079864637L218.24715885792102,171.49806036594418L217.54970509057603,171.94485307604828L216.78382056504051,172.73968454655642L215.7314151495084,173.23792601761943L213.55612959116843,172.9219488613253L213.14389236584975,173.034415926365L212.1392152017579,172.8004967884035L211.65982937224544,172.88830321092246L210.4825045406178,173.813604194047L209.8877252160164,173.57711288487826L208.3586604800439,174.26982146985847L207.89518615898123,174.20811133405186L207.05707772943424,174.55686458983837L205.33392943737272,173.8331628165106L203.79275016455358,172.75503180362102L203.31420598652767,172.72101071504585L201.98661584963702,173.34763223567552L200.83624982563924,173.00893474457553L200.1622112501027,173.32027814883986L199.52321363083684,173.32903569855898L198.78614032127734,173.78545160778413L197.6549013803633,173.90929034421606L196.57050450955285,173.568345351041L195.91292848309968,172.70922382732533L195.1403442407318,172.38175134125868L194.5592690000085,171.58525484814982L193.65886804263937,171.78082865624037L192.580849762875,173.1730773503623L191.50992159876114,173.88429008683033L190.9030527934774,175.18334772421895L190.7949980422527,176.06470697735585L190.20048784058963,177.19866722228835L189.66785804444226,177.85458854917852L188.32796982428408,178.5030043657298L187.37625377173026,178.5998839656213L186.4858294626174,178.97909890786832L185.79925023544274,179.87342050937968L185.42048044446346,179.8469650574043L184.07496794587496,179.00982492051935L181.3633922057743,178.7829452924143L180.4011932951289,179.586367065388L179.93104483322895,179.5612673707792L177.87721494353173,182.13304668807177L177.64338853213485,181.63130699575777L176.84164374853572,182.42417936482525L176.40538116094103,183.18191660697266L175.09809418061923,182.6930522656021L173.70365453011982,182.4045587597684L172.72552742770858,182.59734583513L171.9154457289551,183.15567613817439L169.4553374180541,182.96028838173243L168.57427457731683,183.07419734954874L167.72238988794925,182.86941392257177L167.03354735026005,182.9847055733644L165.69982414034166,182.89600675976726L162.2722908586984,183.46813133217893L160.14306776479862,183.44465356397632L159.209260449461,183.65843740896798L158.34676774268883,184.26837039483416L158.45477427726655,185.55369856410562L158.97803622042557,186.3295968368211L158.71546899501118,187.20680064407406L158.6936279577676,188.67016457212594L157.79874141782057,190.44036664430587L158.094122306371,190.85843353463133L157.87791765158545,191.92651075526283L158.09083367643325,192.7382123168918L157.75299374909082,193.61846035024064L155.72538243894815,193.8532607275838L153.1830793959998,196.21997920721606L152.46328320509565,197.05979993430446L148.38081845457782,197.50373553608733L147.8485218669266,197.37109983463324L146.63197534337814,197.56463968462776L144.3588433884106,197.24221133578249L142.43419163995713,196.70384264732547L141.3459450305345,196.6084801024881L139.49860785057535,196.1937377919112L137.87879137488562,196.4186216419539L137.29362991462767,196.71192895901368L135.5116694817698,196.15743518712043L133.11123485408825,196.55969683258536L131.1210557304803,196.5570865207019L130.26787608601808,196.87432741065004L129.22524384525968,195.51834361463898L128.45476989428425,193.3137368662492L128.67025826912868,192.26734239133657L128.59632500032603,191.5894144941476L128.80672193608189,190.8392805617359L128.54285203964537,190.4173258610963L127.88642018491373,190.14444810332589L126.93206074270347,188.81529133578806L126.19048973028839,188.29652971362884L125.68065603456853,188.1865799290481L124.46145758571947,187.29434656904687L122.99289425530878,185.61438911195182L122.50719120633585,185.29962474958393L121.42672983976809,184.9724759972496L120.38758023799164,182.59004767445822L118.9806970109421,182.2105698784835L118.45076844945652,181.07521142210044L116.25886334761162,179.81502716258728L114.96578459341254,179.21674547835664L114.50262087734882,178.7777794982967L113.56515988898173,177.25626674471096L113.53926869821225,176.34583516326802L112.8883002837465,175.29555253892795L112.1903351157307,174.93164346171488L111.6156067724769,175.15056679222107L110.02050157875055,174.75084341857018L109.33999098941786,174.8689546312362L108.93456896350108,175.56986377423164L108.38439556828234,176.05218059587787L107.68521285491443,176.10999175518282L106.42679314041743,175.95766135973463L105.45520190160096,176.34036633935193L104.5957311502898,175.98412302623456L103.89228582645228,174.88129953220778L103.2072565125527,174.52040125396434L102.14181167004062,173.1636214656928L102.83106394382048,172.1095241625717L103.64411844388087,171.2643332410771L103.92109816638185,170.15948557070624L102.97210712913147,169.5476722250969L102.24528327122243,168.8050582320384L100.63106592120675,167.88184516262027L100.63223901220044,166.87641422219804L100.31842926246827,165.85266758628768L99.54181890439213,164.97224782171907L99.05707040047128,163.85600640546272L98.64789532150098,163.38598923037443L98.05243839309696,162.00273940230636L97.30693488726683,160.85019482046937L97.0169950788586,160.09039930668314L94.7474004173273,159.76483228587222L94.07825505593792,160.18573552769521L93.20470330823082,159.90749264080296L92.33019817608147,159.0052007715385L91.33032169598664,158.26509274403452L90.53387594927335,157.3067369356313L90.27423728183567,156.58711992014196L89.6649420090871,156.1922546289352L89.42282170889666,154.48328127186778L88.97790310026903,154.2447320874826L88.56263319924255,153.34348383690667L87.11586957748659,151.9439508960013L86.2894404957442,151.6432439324053L84.2233412970163,151.8771364508175L83.30299746143646,152.17049715382836L82.42146524490818,151.9276380473866L80.58422802231507,152.21191763466686L79.08521155161361,151.54457689438914L78.68564439693364,151.15009036368247L77.62978135890444,150.86732607349586L76.7470511612155,149.73713568078892L76.21963910447812,150.0443977361565L75.41673640000954,149.5879768279774L75.9392937433804,148.73487316799674L75.8844711993188,147.76884169748155L76.16440276701178,146.14268686660034L77.76717143636415,144.38278117548634L78.82188525875245,143.8269642761079L79.25685686995348,143.0416183748639L78.76744009853792,141.89579258924095L79.50479473015002,140.45913395498246L80.39984355571505,139.57048095533082L80.691170876471,138.92958754354095L82.100510059121,137.97770990492882L83.61011843668894,137.81687239678013L84.12160551513443,137.04159382753278L84.8802657305896,136.62989744501192L86.28632535558427,135.04436428801182L87.00696882583361,135.09013873491858L87.40349456708282,134.81120494045354L88.7263650074965,134.74629357367849L89.51976652630765,134.1683205429581L90.16441914445022,134.15524569276295L91.31303123987527,132.98625935005748L91.80233742836572,131.2345455802997L93.02488867249849,130.28042476570317L94.43971620087541,129.7091959185127L95.6037251904163,128.16931035178368L98.55714437092684,127.68174257280407L98.82128781783831,127.49894111731464L100.69145390506674,127.22466567879655L102.95781159718535,126.69127507118446L103.87559643256827,126.67163171872926L104.50154128200302,126.42479569929128L105.32065244329715,126.46308062190019L106.26761325808184,126.7557081494615L107.22219172781843,126.44440798823325L108.304349668957,126.41678014393437L110.12998076521035,127.20723281104165L110.74063697089878,126.45267921073537L111.07435969967992,125.98844833064686L111.61457064561182,125.98361176032722L112.19235389382811,125.59906552031589L112.35268829109555,124.48493206193416L113.23497003037846,123.30381048717754L113.2693757225461,122.36041604538877L113.75345197028582,121.86460652268488L113.98592564529463,120.9774464974198L114.00157608174777,120.54428736633417L115.129602651592,119.97430600359439L115.3670437802175,119.68188102130534L115.67803429732885,118.53389074364532L115.72117405547033,118.50384337318246L116.71019236932989,118.81270420979672L117.42740139682428,118.43116657369865L117.86918749721372,118.20762541913246L118.91068495062427,117.94005538981037L119.09624687701216,117.24864530195191L119.57627364376822,116.6137387795743L119.15685927295272,115.61033865230274L119.7041938755574,114.99880232856685L120.21023097713987,114.8838006858532L120.87211128138733,114.44384355406328L121.27258618051565,113.36579057562449L121.78621658402335,112.99308246077271L121.92289949454789,112.86781148154205L122.12079670280582,111.6748329061702L121.58099795699309,110.86160802705672L122.1658508714936,109.59141916708813L122.14432856663188,108.87079451250793L122.21940424529384,107.87896795451616L122.56346295606272,107.27906509452168L122.50987711630296,106.78747081361507L122.19836979863976,106.16043225974772L122.4351877283043,105.05819829774009L122.67625658539691,104.56389055525779L123.25617534364574,104.21976222023022L124.44076309747106,103.25361370610517L124.66466022832537,102.83244731899504L125.21870831300475,102.5263795438832L125.35431036281079,101.78800459353533L125.2483075770615,101.0768606180518L125.40684205181606,100.70709006768084L125.87808015584233,100.30812774296828L125.99127132058857,99.73604513901319L126.08716199196715,99.17667609489035L126.73194851792505,98.01219106294775L126.57241805531521,97.28224898250573L127.07886444639371,95.50048836981841L128.35784238361157,93.84398287726617L128.25864880880908,92.71984914893619L129.86343219730406,92.06488130892103L130.77613631714848,91.38104192095489L130.1638916726588,90.16876873435376L129.07040404388317,89.33589429761105L128.52148247812147,87.33090548112978L129.0233317233433,85.8637901388638L129.10227629342626,84.77533967584986L128.95007713763334,84.19086711833006L129.09541982294832,83.05044728211215L129.77409495685788,82.071132357436L129.76980145839843,80.98293827079851L128.9580273888132,79.90417376922233L129.32824867515956,78.7854804498711L128.07689215510618,78.16019496432455L127.71078945167756,78.22059729653665L125.72665092254829,77.5753147845362L124.05030898862606,76.8848295112839L123.042644375917,76.95946978699067L122.51399418469737,76.01452410375714L122.61075498247737,75.1836681667528L123.3247989400661,74.32431610483764L123.40370426228765,72.90342525054257L123.80011456692591,71.73628414971063L124.23659836305524,70.91811960869563L124.29573502599305,70.28006611529872L124.75426102709389,69.19498656380074L125.00951260203146,67.4652306605849L126.01923233967318,65.23897550887887L126.10781713672259,64.25114769786978L125.61429227637927,62.50311570136091L125.29459947567011,59.856151634650814L126.15174285820831,58.0013875216855L125.5502087260902,56.30202789608211L125.4194103305781,54.54594426612948L126.05653921869816,53.62477978090192L126.1755968266807,52.51953710405087L125.84620196851392,51.29954845607608L124.9195180812203,49.43680220918486L124.64664920982614,46.95418578368481L124.41322324348221,46.55004224343793L123.4839232454251,45.963576095444296L122.95036825066563,45.820983537633765L122.12130391283063,45.21353398462543L121.01789207619731,43.6873416285498L119.48096117172463,43.76101942103924L118.29309566724623,44.163100858943835L117.76720306011339,44.00675936784046L117.30734216679775,43.082380108019606L116.87204704723263,40.751688427500085L116.19616672044867,39.880412311496L116.36955162571394,39.651459202272235L115.64591447489147,38.93680546758969L115.40962878904975,36.73429435408889L116.38040988893408,36.49503558308061L116.99325558119745,36.07993235802405L117.33853608653226,35.274673983471985L116.16386689520732,34.497178836250896L115.4995477555749,32.707378040153344L116.24958420322946,31.369828780992066L116.37227947847714,29.08319369381934L116.06105849007145,28.440717918605515L117.20982076429937,27.62975795506918L117.25969529104259,26.7105156767102L117.53335746749508,25.471271504437937L117.89386459257366,24.527361980236492L117.59448305598562,24.016527116710677L117.88958933621325,23.552520103890856L118.68818229804674,22.918245442560874L119.56035100637018,22.62767336088018L120.21791700844915,21.626421532943823L119.97960386329578,20.668471059014337L120.33827601919984,20.307778012218478L120.73384090117179,19.107834466130953L120.7289175121332,16.934410216025753L121.53495617813678,15.860779472300237L123.35392356527518,15.750581862165745L124.69197972347683,15.88189669501935L125.6154123951128,14.83211315970857L126.45106356844553,14.350317183280822L127.07010917499065,12.645902153997667L128.20236977508466,11.955574943024658L128.88407698418814,11.233902695039433L128.83188900140885,10.570934646081696L128.14566441663555,10.181456069738488L127.74592842370839,9.367751322482945L127.19516491740433,9.073906507016545L127.44650582885515,7.7387717410247205L128.62285650346166,6.775698319462208L129.27066452160943,5.407690099795218L129.19587099716227,4.752273949698974L128.04009051610774,3.0380128569113367L127.93028684714591,2.631174841747452L128.1194707026625,1.5038821477037345L129.21612603540052,0.8131094914133428L129.62870461397324,0.3160427792936389L130.7470462010242,0.5362745064612682L131.19557953297044,0L132.1479430779873,0.4042581616304233L134.75575788530477,1.2676616239286886L135.02048287072466,2.1617744563582164L138.35280684176178,2.8392457456684497L138.8319972348363,3.2928040027909447L138.99195516153122,3.891630346481179L139.4624975315528,4.449889870642437L139.76306629277315,5.327831726551267L139.4988492402772,5.768004845843279L138.38427270395914,6.498749746698195L138.78601446834728,7.9515422635431605L139.85006095908466,9.443275334250757L140.92415445258302,9.99121659155935L141.78929019647694,10.076784727732957L143.1170289948859,9.753306159159365L144.22561929005315,9.894056323467339L146.59348651939217,10.79064913016191L147.65428206677097,10.108591466480902L148.27535359101603,9.947083929960172L150.45941921818303,9.74186480786193L152.49215944407842,8.147048506072679L152.50087654732488,7.573613786063106L152.8621048501227,6.830216711802677L153.31600033524592,4.594094265660715L153.66745223463295,4.075600844682413L155.21831767991534,3.089483812639628L156.25960541640598,2.734434225966652L157.66313108019312,2.607452017811738L158.22707415083278,2.4077101221982957L160.43286069860915,1.120079798603001L164.18695943264538,1.4718100274876633L165.24924330465365,1.7956285465406836L166.0125316634294,1.7790622403581438L167.15304925035525,1.3079347041448273L168.55582089876407,1.6501479067319451L170.01451840110167,2.3897209206706975L172.97027239392264,2.364974578767942L174.06678407271102,3.76911619141174L174.903975085821,3.7525963390780817L175.58436746579173,4.768194621737166L175.3125272216712,6.947916840893413L176.17418212107077,8.084542713797418L176.81977029359768,8.592376252381655L178.33526609616456,8.857702528777736L179.05897479250416,9.1998003801491L179.75871308748538,9.777189421179173L179.38008256086687,10.259232372428414L177.53441704002762,11.159691758300141L176.76063893532046,12.261903137506124L176.33872370487006,14.814582062704176L175.78224928223062,15.594338152079217L175.2280070713532,15.754665646371905L175.0840073933141,16.376661720196353L175.2428389041961,17.17754603538924L175.78817038834313,17.480232826394968L176.14932778075308,18.53209673984111L176.70223353118126,19.151674775253923L178.26857479933096,19.879329281742685L181.79963497253266,19.1325140873887L182.44455177210693,19.53809998127599L182.69088332799583,20.009887928181342L183.65759376230562,20.808941688710547L183.53993214566435,21.632740309364635L183.75065862407791,22.108623265927235L185.0754868565491,22.690302692583828L186.18010511393732,23.994761602880317L187.20780113304863,23.50778423641259L188.99516996044258,23.03065484562012L189.98282417598966,22.89867747085009L190.4937349988395,23.447807633631783L191.71893101757087,23.96316642112106L192.93837414638983,23.691769252700396L193.85373962271115,23.775105970361437L194.8179903659875,24.29034195791064L195.31831161110313,24.32824974367759L195.86600766406627,24.92858275859271L197.83592117542867,24.908920081242286L198.58651599023142,24.326550409797164L199.15936921116008,24.336815919798937L199.68576014426435,23.981918727134143L200.80525443271836,23.733352995699533L200.99765271998695,22.458598891136717L201.64238877352545,21.917238517228725L202.48916457819723,21.652347973496944L202.83999541686717,21.845223107530728L203.8242112712287,21.829831693969936L204.41527925320042,22.101276172473263L205.89348180597517,22.38164227947891L207.18844485624868,23.173552868702245L207.26768119049666,23.737698127984913L206.85911102964747,24.66637840731255L206.83223756314328,25.440549171393286L207.32593080992592,26.142350215313854L208.815474863266,27.06988132272727L209.4371933356888,28.030979496395958L210.21843008136057,28.46283381273679L211.40349475017138,28.890905154784377L211.62842073442152,29.5935553922327L212.716494258897,29.806682062384425L214.1037364353433,30.262295165236537L216.62306128623095,30.60221009488032L217.05507724386553,30.887199116574266L218.2621873692333,31.195880159039916L218.79390073145623,31.608509749310542L219.63539338991177,31.597661306048394L220.65974629030097,31.909404448954774L220.80151814997953,32.79851727591267L222.35501299701718,33.933075758164705L222.6514494744697,34.522452502792476L222.47623262974594,37.55246416218506L222.73130180396038,38.35296455078242L224.7186277571127,39.027862592150086L225.64029447863504,39.48241664607485L226.80267182005628,39.81843677576035L227.80715244983367,39.83533789325156L230.67946850225053,40.082382314702954L231.4294613472921,40.345045745419156L231.9302892600972,40.24199246261833L232.83796328695826,40.452876012263914L233.64878476401282,40.93931077378602Z" fill="#FF7B46"></path>
  <text x="168" y="105" font-size= "5.2" font-weight="500">
    सोलुखुम्वु
  </text>
    </g>
</svg>