<svg  viewBox="381 305 180 180"  version="1.1" xmlns="http://www.w3.org/2000/svg" xmlns:xlink="http://www.w3.org/1999/xlink">
  <g>
<path id="path-0104" d="M534.4219052454828,334.5927518086628L534.7143180899911,334.7527299002468L535.1310861449565,334.89763457107074L535.6639643920462,336.0379809174947L535.7304723000852,336.6033544383181L535.429344303182,337.09726629721445L535.7405208710661,337.8366225242098L536.8692392697558,338.8743276494715L538.3985749859239,339.49145147832314L538.9351426197318,339.64545080207427L538.9131239759517,339.54347409272486L538.9777040724257,339.4019221087783L539.0210200425608,339.4114801739097L538.9869821477805,338.9826862337886L540.0819743149768,339.2856979361504L540.5803376466538,339.337593393303L541.7392137015304,339.0084923780496L542.5308005962615,341.93587900106286L542.5320805487863,342.87516452922773L542.3500355903197,344.7918629147962L541.9976843095465,345.7281757724677L542.3136733234751,347.2257249006616L542.0204172511003,349.91282180226426L542.1281997650549,350.3905557872713L541.653359746655,351.456998881451L541.7251152855788,352.30485264969684L541.0910750390212,353.19283472503867L541.1882410101716,354.0788278918353L541.0217430439006,355.2370144839924L540.6403229362768,355.68765807984073L540.1159093266942,356.8860143906386L539.6096930883941,357.57894555587154L538.7280813434954,358.1439541660511L537.8354382742655,359.7937026097943L537.2249353181724,360.3149744563425L537.3247631217018,361.26427912964573L537.4033543249643,364.2812297661303L536.4428243894727,365.6756463430511L536.6628440571294,367.77690325168624L536.5054269045177,368.9518974035873L536.1500503688876,372.77975031444566L536.1851887116136,373.96954127932804L535.5837742262775,374.8446661280459L535.1495823630321,374.8986497704236L534.8904496128343,375.4757548956295L535.5254543703304,376.37190259090585L534.931399491812,376.5252375964801L534.7343857798332,377.32257778454823L533.9463055356864,377.979955154492L532.064073273541,378.1539608091125L531.4123373345537,378.49555865554066L530.8179744795198,379.1200499913539L530.516645652322,379.89873636681386L530.3901123321921,380.815736298855L530.4411553914288,382.2662290563976L529.9894320821077,384.1020965436437L529.1939630696579,384.1929521008369L527.7283428041374,385.36217110835514L528.1856228576871,386.21420794989353L528.2427620520139,387.4295048069971L527.6232952372775,388.89364712675524L527.7793201174209,389.55349259949526L527.0702268517816,390.31345105000673L527.726906378808,390.90134103892706L527.8875223212672,391.6946759593384L527.8078842593823,392.39578815772256L527.3563965996545,392.6740548803664L527.0444225816718,391.88758916065126L526.5448225637883,391.39413787553167L526.0229557750754,391.8058953985037L526.5329245484972,392.20278604779287L525.960512795511,392.76426815042305L525.4017211771388,391.8797807805213L524.5977497728454,392.1777610979743L525.0172424416924,393.757116627974L523.2078244093864,392.9905765004096L523.0016197633304,393.84256171736524L523.4676122395613,394.62043759797143L523.352905678039,395.1055838522325L522.8471271309572,395.43640936826887L523.5387569928134,395.9462665625033L523.1076061004933,396.6302747889167L522.3614397714337,396.5870663535097L522.0744604291322,395.7680363045065L521.4867718069218,395.65418499023144L521.486113369865,398.25642620398594L522.0257374635912,398.3077793619168L522.7714731720152,399.03833381033564L523.0431387622048,399.66685600641995L521.896702784441,400.6392362756851L521.078205318754,401.06372839753294L519.9242651940622,401.2929390244781L519.6137725433,401.9158001996775L519.8655034573712,402.309461491438L521.0769577787614,402.26360475561705L520.8773091955591,403.4976098642155L521.3670813218705,404.0541658073589L520.8984500265869,406.3709401566839L520.7626120180284,406.5343991896625L519.2593104246262,406.7787828712608L518.7626005167513,407.29149746153325L519.1676853170975,407.87730507912784L519.0098266815003,408.5600179198718L517.6768656036402,409.1946231797392L517.8045299439727,409.6897062832668L518.6757273117873,410.0156158883374L519.7776997725414,409.7175027472713L519.9455097556638,410.92846437250137L520.2245987845126,411.54494231001445L520.0202973253399,412.0213597907896L520.241607551663,412.73173868669346L520.904526567716,413.0808323177471L520.9001713592261,413.5196798438701L521.5723620629833,413.867705902132L521.2342940433809,414.5283091934043L520.3789886828963,415.3189542706832L520.1695662135462,416.1847521823247L520.5338013829241,416.63047542083496L521.8157924871994,417.08445045362714L521.8049633412884,417.965602687661L519.958012983272,418.65309372191587L521.0248313930861,419.2957805772021L520.916754366408,419.88857550555076L520.3729629488698,420.1317150652476L518.6148275033956,420.1458143499922L518.0412502825493,420.6010178474089L518.9941895416414,422.4018428574245L519.3497150629955,423.7620787690312L519.0406575142661,426.5903452734565L518.7784791476552,427.05024292305916L517.4026980677045,427.77772925567115L516.2496371485577,428.8636052543379L515.9494311465423,429.999108214678L515.6407458001195,430.23260499254957L514.65354527819,431.55047163892414L512.4734074365915,433.1660069300069L512.3156913228959,433.8153912560556L512.8001154598969,434.58751575574115L512.2499804158688,434.6898055340798L511.8056624214332,434.2947615962494L511.1424879834667,434.6378252848908L510.9873725365069,434.0326882139234L510.1175391030374,434.14932205106925L509.305436306091,434.87096725933316L508.760883763709,435.9926620674396L508.11341864925635,436.40724170394424L507.7285589105304,436.9364911226139L507.3355204042964,436.4659471504965L506.75899990071775,436.3834804651224L506.05813920032233,437.711729221086L504.27796639989174,438.2164852697333L503.9182383136176,439.1440202652393L503.3924213271821,439.59350348655425L502.84260320214526,439.61943383541256L502.2861545653359,440.93268850100867L501.5450943002361,441.2638846368427L501.8318498288754,442.05688291603565L502.6184826329445,442.20060223503697L502.2013234422775,443.09898373436044L501.5466686011241,444.0106244646431L501.68924461716233,444.53164377388566L502.48452285529856,445.16954034009086L502.2270918204995,445.63133374331574L500.81663363148255,445.8352018933747L496.56523745693266,446.59828280215424L495.66288247760167,445.6865266609684L494.5647481742053,445.21980292872286L494.084172572886,445.5799895861928L493.4864121767969,445.3083533037834L492.7805926506808,444.28414952790536L492.55227521408233,443.67109582828834L492.47829142573755,438.57400779731324L485.8883908056778,437.3991823218421L483.01612396671044,435.3821063667765L477.60494533327073,432.22806500432216L477.13961844215737,431.99952090775605L476.05548439611084,432.11671607454446L475.82737184593134,431.40195611667787L475.9725914147748,430.4405229915674L475.75459249706546,429.61711044156255L475.2527647700772,429.2324707585585L474.5765838226289,429.25687390981693L473.298417457685,428.85346496946386L473.1978674266102,428.3581264569357L473.7277409754788,427.6488014877332L475.0490094932138,427.0377752446648L475.7007320276207,426.08192499525376L475.5145462755718,425.23283041573995L474.93965729931733,424.72405428268667L468.788012338704,424.24536105942843L471.5745077720603,421.94710548827516L469.1300434404511,416.9316616244005L466.0864340142434,414.57370402999004L465.441295607794,417.18011479226425L461.3126157338993,418.69235304062477L459.81379999527053,419.35284949194556L459.7385908452161,420.07430601430224L459.36554703666843,420.3901693808757L458.4101024544834,420.53513069376004L458.536249849225,421.6000813568371L458.4594477121682,422.3261420986146L458.84460203700655,422.87379433697424L459.5619065545179,423.1352482785469L459.2282136165013,423.53647159050615L459.2754313510013,424.2103705937461L456.62047776537656,425.1344096112098L456.0319490905713,427.37895270678655L450.8153349635504,426.44751868352887L451.1922480451285,423.8743457073542L450.04135065077935,423.3764132190199L448.00508909275595,421.620008521395L444.88901563000763,420.195267841621L441.67672816446066,419.12345800732874L440.80590257703443,419.02831505528593L440.26949573957245,419.6615833198912L441.0061061208944,419.8249948767243L440.91129508390804,420.2288585058204L440.0725998438502,420.0424597026331L439.9582420431216,420.4594511836194L440.7189162885261,421.0049619114743L439.7892270108059,421.65676544790585L439.20997812656424,422.8236420475823L438.2956954958281,423.548634328703L437.3931401247464,423.64957605424934L436.960371651061,423.95613648004746L437.6804224871303,424.504244775635L437.5344138872788,425.8126963554496L437.1189021679711,426.28962727141607L437.25047157384324,427.6134158968098L437.9574431183646,427.429713838661L437.48936863432755,429.03212213058487L436.90954503266767,428.6947683129483L436.2973522389366,429.90638099435546L437.46553538200897,430.44653156053755L436.75335219933186,431.2532007343216L436.2374946856544,431.10085756284025L435.8161565719274,431.7733629217346L435.2887097332168,431.99832420434086L435.50710592971154,432.7847120455417L434.84723367737024,433.3316978423236L435.2609956443921,433.7003439727705L434.61184057212085,434.0546706953901L431.85173553185086,434.59801362560484L430.230662180511,432.1285739069117L428.10293453079066,432.1974832835631L426.7127271356039,434.697278024194L423.96094722627095,433.47696274127975L424.21826003381284,432.70570134088575L423.41723651265056,431.5821986910014L422.805115390187,430.9751102500486L422.1972477832569,431.0962955425075L421.62356252744576,430.2570216508648L420.9752479540839,429.70672943093814L417.7435438923385,429.48946596914357L416.1099139547332,427.59582056007093L412.84039634728106,427.65377330720275L412.77271451762135,427.29047401707885L411.94331520840205,427.4803914287386L410.9957036753949,425.9394240431093L411.01554604667035,425.6023941473577L411.2202968881393,424.53971590011133L411.2084801464771,423.98856805887044L410.77794261684903,423.59535596468504L409.54568334581563,422.92864716474287L408.74544399657316,422.69308318103776L408.157764423926,422.2548994262006L407.6782070054396,421.8189441596396L407.19098370195934,420.50798675883834L407.85824499293085,419.10513233634083L407.9238750226323,418.88914869518794L407.3839598124323,417.90180750888976L405.679417718482,416.5335185271233L405.0797668927262,415.03455628939537L405.0019567778654,411.926685088476L404.1248390044457,411.1184989110816L403.94567743956577,410.1990033676748L403.5090909075152,409.2910148861247L403.63164734744714,408.6121901966435L403.3163254833853,406.96265500407844L403.51107299290015,405.2303151199876L403.0040350378913,404.0677435894795L403.2920277760786,402.44912065753215L403.467055809695,400.8466860773897L404.1341675427029,399.8959340322872L404.3446423691639,399.0593228856369L404.0083426664751,397.5483438340443L403.30187469931843,396.71563623993916L403.0771265497824,395.4030653096752L403.06726849734696,391.91584986337875L401.853807697913,390.52580603253045L403.0952204351379,390.1672470751191L403.3674664776627,389.68064846484504L402.5986985519812,388.3621766878159L402.3789476708662,387.5489605760649L402.39208240439257,386.4537220996717L402.5283649937228,386.222522719323L403.7262130592462,386.13643983030215L404.4975084548896,385.75453373418986L405.0008145435095,384.5568474313268L404.6574483949189,384.0830208521902L404.82986874135895,383.4366476824889L406.5527839475799,382.13758391513966L406.7768076632492,381.65654624029594L406.5892522997128,380.8198625813002L406.67508863705734,380.15986958270605L406.1902742283273,379.00773292127633L406.3987811748375,377.79493296223063L406.40267042829146,377.1696560242626L405.39465735897465,375.9915445330407L404.9734275307419,375.0623193722822L404.75265003298773,374.65404848549315L403.903928841326,374.206677113154L403.8267783374504,373.58277173641545L403.2875352843839,372.73760292781117L403.2948074513115,370.92159478777285L403.5363879302786,369.76817074293285L403.5121939362107,368.54337862358534L404.0713413805388,368.2559815632376L404.26182964818145,367.00110708299326L404.9541122613191,366.0740925280743L405.48277369355856,364.5923962364086L406.06635329490746,364.05089240211964L405.7946318869581,363.0429793030353L405.68274327473046,362.7318404426924L406.0741130907918,361.95762962091703L405.867942370478,361.471756505588L406.23154335945947,360.62955083378074L406.25487665378387,358.9511263452796L406.40655415191213,357.54421895861014L406.7368141453553,356.0777407719097L407.22051075475974,355.6680872509078L408.71078603178466,354.968065419137L410.0082547074526,354.42135518254054L411.1032706765036,353.66722132703035L411.81590778837926,353.2374582368848L412.6181010208493,352.5095846081158L413.5174249462725,351.10226557793885L413.4958601250182,349.911439310722L413.6760581400995,349.42740735922234L414.0512341929316,348.2919516524689L414.8745494087452,347.466449837505L415.868066271556,348.67524527567L416.56911174663037,349.9487753642734L417.39245069815297,350.9082788388614L417.8283804791645,351.6455617258498L418.5557272799924,352.1852737212903L418.43192901846123,352.8881706779184L419.2178740939489,355.0848460684292L419.47844761758097,356.2527109121984L420.09318421128773,357.70535969511457L419.47234593141184,359.115047601922L419.3217529832182,359.85750280768843L419.97402136797973,361.2620061639245L420.4252525313823,360.91681175632766L421.2849201451354,361.4514870899102L422.836794818184,361.96492936765753L423.8392234943458,362.7471606700283L426.22002071487077,363.85172389637864L427.54570589660943,364.8767285147196L427.95641167750364,365.3603197918392L429.60491377175276,366.2018841211466L430.31895049928426,366.38337814164515L432.9191912465212,367.3606771533732L433.446362481729,368.3649693041998L434.7300629803576,369.06616831979227L436.44879588057665,368.83041602193316L437.1627660646045,368.88377351941926L438.8834397157225,369.23832856482204L440.5045135838045,368.846338426074L441.2793212861761,368.80635255413654L441.25269734986796,366.49435158287906L441.631935194222,366.0495232299081L441.92880209746363,365.2050085636756L442.93205784273596,364.49044984016837L443.273220728046,364.0264407246159L443.924223502745,363.6740257289848L444.4123175324785,363.28736107854L445.1774508932649,363.05181702003756L445.8328428395216,362.35319596989666L446.6299182414841,362.156412508034L447.328727697648,361.73533216612486L448.23499854041074,361.8072622143336L449.1151505392954,362.2201572601107L450.4829853217889,362.378825650826L451.23336947774806,362.97740388394686L452.193158402828,363.34659757329973L452.7310782238019,364.13549653670816L453.4799662098485,364.79278213485213L453.50729007775226,364.90971836448807L453.66014157046084,365.43637694089284L454.1271167196792,366.00171138515816L455.39005813561744,366.63849991302595L456.6344507369431,366.31863804257046L457.3006468770691,366.47392565971313L458.30742265115987,366.4425863253855L458.4754295743551,366.4913653488502L459.1689500143839,366.78257946379654L459.39655479397334,366.87024604324597L460.2953217438808,366.9171319889847L460.5646650567578,366.28832937160587L460.15169211931425,365.58633411576193L460.1721022944621,365.0014589521961L460.14959935401566,364.6119039408459L459.43229048567446,363.43753124154955L459.64182620813517,362.6524742135434L460.73476235659473,362.2133364039064L461.29257934054476,362.27139641873055L461.84107603289885,363.00644694005223L463.8484094916639,364.141063370952L464.7123790792466,363.27093659487036L465.02963709407777,363.13025630931224L465.62627797189634,363.21566988880295L465.83628390562444,363.5109074296179L467.0041826038505,363.44230152456294L467.60534572033066,362.7218712317026L468.08303968799737,362.4574167350602L469.68948326566897,362.5141673485077L470.3657663531594,362.08074047101127L472.0690921905443,361.7511042516926L473.07134918810334,361.96692520060606L473.23428199021873,361.6521808453517L474.00751791483344,361.1389197871795L475.31112591805504,360.8522897118519L476.8790361037427,361.7575650857216L477.3024338560317,362.7278614227853L477.75877833151026,363.0725297458921L478.306949809099,362.0890723920629L477.72469588985405,361.3604747196905L478.41319906193894,360.98021078931924L477.94037462216875,360.29891156961185L478.3559178648102,359.82018038661954L478.02380801217805,359.7662266316902L477.7130448320713,359.68767435600785L477.86780142400676,359.2072113692939L477.53263730756953,358.6413169727284L477.53046881108094,357.8463543942753L476.0654931073623,357.1999948528837L475.98118328359124,357.0119258041932L476.00796234671,356.9873749801354L475.9707729662332,356.67650558803143L476.40855523574646,356.1841207741518L476.3523165900333,355.3387521311133L476.7790902550332,354.82673999135204L477.38087312473,354.0403376018903L478.1759007967448,353.46059426580723L479.15196060798917,353.3646534185982L480.02513191739126,352.9292633782452L480.4861915678557,353.2590356951514L481.5276474658822,353.1762530174192L481.9470025428054,352.89376516476386L481.7689614294177,352.23452567263394L481.90050319281363,351.5905906763546L481.9759262613916,351.1861698699295L481.54773194492736,350.1559555641452L482.2496505005365,349.1448544150817L483.8267429168591,347.4902349300646L483.6415165298822,346.80966339807946L483.2013872816242,346.3637824375264L482.90536645260727,345.1544327287211L482.95975639664175,344.5502480771711L482.17810374504916,344.1176282766992L481.5662132499492,343.8598528701341L481.16273449292567,343.1387238891166L481.43202726037634,343.10083405310615L482.1767832040714,343.48661610805993L482.7008663520355,343.1714669189132L482.8031351909631,342.8759210515391L483.68898051864744,342.84507764015234L483.8164998273496,342.558914927361L483.7918849070011,341.0620616782626L484.0738706215743,339.4401570547034L484.6994899284109,338.13062972318403L485.6257812200347,337.2954075339894L486.0965253442773,337.5614857589035L485.94421357111423,338.3668861688029L485.4686123675383,338.8864984892771L485.19036018257975,340.0557273193235L485.2545080091659,340.5243811088658L485.28444234562994,340.54354607835467L486.0980671590769,340.9367987071364L487.1822491569401,341.55278378014646L487.8012164736938,341.261928288287L488.0233300541586,340.86081856445344L487.9904594178115,340.61842241158683L488.31198036488786,340.19097622208574L489.0477375819464,340.6711680890339L488.9438052804944,341.376789073759L488.48698752903874,341.94483262227186L488.51129603151276,342.5690894501249L489.15992855447985,343.0780232163688L489.31927078515946,343.9051166004547L489.602061864236,344.08652268823425L489.1199930867042,345.32736705914067L489.8568409364452,346.83892806004224L491.1186147412591,346.5543219275951L491.5153930157394,346.8498746669402L492.3681798959806,346.01774445875253L493.25705301978087,346.7332089699157L493.8246458489193,346.53988663110067L494.183428806562,345.40409634692696L494.2981709836895,343.67813055978786L494.1343842813585,342.86134488765765L494.4448692753831,341.908703255378L494.6203549410893,341.5711448545435L495.1731904437256,341.1378953955427L495.5541676466237,340.82768752316406L495.696797583023,342.31732172465126L496.73010049771256,343.0977201018741L497.21395889583437,342.80148221829495L499.0926998957293,342.54229136836966L499.77135930417717,342.2296564844437L499.910674097875,341.5369711530893L500.9969739026237,341.4015660321229L500.8409056878445,340.93973255498804L501.36448635142006,340.24350344101913L501.5995980337684,340.4850515463195L501.4682546066506,341.4418161729209L501.58501507383335,342.31809067892664L501.56417581997084,342.94204565267137L501.81873087167696,343.53002243184073L503.5856343948035,343.8184128965713L503.75240484619644,344.84117603949744L504.2399350480482,344.88615752020814L504.4898595904524,345.00590955148346L505.13009827533824,345.5858020706037L505.4503833167364,346.1581807889852L505.8171812277542,346.5111668836962L506.1469671235827,347.35394966302374L505.96372781546233,347.896752895198L506.62254083329026,348.43482507278804L506.7604190662096,347.6184799409166L506.9556133067854,347.3789154065835L507.19467896693095,347.0551205799693L507.8909248524469,346.6933050126381L507.97734825061343,346.6490937065664L508.1719728220851,346.57921488632473L508.83052708340983,346.24244421785806L509.3949443029305,345.1071758584685L509.5394187626662,344.3311690028213L509.7175413187106,343.65779183270024L510.1005274620038,343.4208047613902L510.39904442784973,342.2927741349031L510.1241500825745,341.89556071521565L510.83193670968467,340.4324049126244L511.2144178376366,339.0013091025685L511.19361725234194,338.51914464518086L511.8500021364598,337.35876668830315L512.4706245505004,336.9930014934862L513.6762478836172,337.6515211886599L514.2691093971007,338.9720668851505L514.6779159862344,338.5892270584327L515.7557316666898,337.35676756887096L516.5250481414041,336.8282919096464L516.7656307859797,335.961601587961L517.0714791422324,335.68039025701637L517.5175167588422,335.3346859168296L517.4206782732872,334.8375632373718L518.0765690187145,334.36749428520307L518.83907402779,334.8438779818971L519.2824196788351,335.91428695828836L518.4297283950473,336.7422910389132L518.4957481225065,336.85841405087376L518.5940248988445,337.5545840440909L518.2185108721606,338.517996581234L518.879671872266,338.62376920353836L518.6964357112411,339.3028021322316L518.9908391663812,340.1327766607201L519.5455391111536,340.4252357770947L519.4305609420044,340.86956557694157L519.2361886177277,341.52433514324366L519.3509222844295,342.239033112136L519.1347880952308,342.8746694276979L519.3618778863311,343.4326318962858L519.267780280592,344.37349633401755L519.8983712458248,345.22909841854016L519.8272513433621,345.7122841952041L520.1737427355365,346.2930423734033L520.7409359240082,346.74033889040584L520.6957970927324,347.1351525287064L521.2813645277238,347.85006495262587L521.99938983233,348.28074222963005L522.7159221201509,348.20640898196507L523.0534859333966,348.50698118873424L523.6488377939968,347.94682104969525L523.7894867625328,347.7811156230546L524.7346612551191,347.87655948733027L524.982560290533,346.49058384809723L526.0220569862722,345.7148313993648L526.4314384643112,345.39194151631364L526.661242149672,344.7961335131977L526.8277773704503,344.576021761889L526.6173710910261,343.4941378213707L527.3166501829,342.71170039804474L527.8832867641722,342.499961251473L528.5563633973725,341.87836806788437L529.023592054069,342.3692866608626L529.2334865782504,343.3637388951038L529.6390044082218,343.3721751240064L531.2940293111351,342.3904179182564L531.4412368900266,342.71140176533845L531.6990034935006,342.3108648393991L532.5184710465728,340.42686207742554L532.4976896111548,339.38848341963785L532.7381977438017,338.74910274786544L532.8453102027379,338.4853877483574L532.7672368968924,337.93430493401047L532.7939192562226,337.86089239480134L533.0843766586186,337.4991638471729L533.8154136453741,336.3656766710492L534.0465894413283,335.86255773256653L533.5666243108062,334.33211332140127L532.9750161398224,333.4898292663711L533.4500973645081,333.2245143712853L534.0844095778484,333.7887463212546Z" fill="#e1b03d"></path>
  <text x="465" y="395" font-size= "4.5" font-weight="500">
    झापा
  </text>
    </g>
</svg>