<svg  viewBox="200 305 150 150"  version="1.1" xmlns="http://www.w3.org/2000/svg" xmlns:xlink="http://www.w3.org/1999/xlink">
  <g>
  <path id="path-01011" d="M322.0972145708329,320.8183410385145L322.6927583398028,321.01873192726816L323.57630302590405,320.7090094410287L324.0287658387424,320.5967327066264L324.304893397868,320.5875991277626L324.8570390082896,320.6608102129712L325.5990576809054,321.20503052540334L326.7943900061982,321.9332667288827L327.2149661819458,322.1275748968628L328.2723527609851,322.06802049316684L328.3776294278905,322.352458299456L328.6784235341038,322.60458372375433L329.042561644088,323.00815215847706L329.15373161764,323.24369631830996L329.2298276347392,323.73283752614043L329.6564033248942,324.3620735022241L329.85949440120385,324.6271847667631L329.78601193492796,324.9054124780823L329.5633804476929,324.94224986428253L329.55767799462046,324.97675743247873L329.62035409194505,325.18227171438775L329.36501230276554,325.74191533643534L329.37458926103136,325.85929791053604L329.08956299627243,326.16921696214376L328.86556457913684,326.3481467557067L328.8905645388804,326.55817029743775L328.8401635766859,326.738100707169L328.85402846744546,326.97224462415943L328.81533426418537,327.04521123618906L328.31615787278497,327.67500522985665L328.160602581509,328.0640852511269L328.07701902558256,328.2974183858223L328.1089136843657,328.3561729210169L328.6706519802974,328.536458955321L328.80618692219286,329.0844338835486L328.51143721777044,329.86257771246983L328.24012133608994,329.8993044345634L328.1579682312622,329.9813686578618L328.00010820397074,330.6091492765863L327.8910479509432,330.6865301352236L327.86873034844757,330.74976235800386L327.9806641229625,330.9456213336616L327.4480229698238,331.11171584065596L327.1788971845199,331.49474392665525L327.06916912425004,331.6308161697116L326.8854189402264,332.13657845599664L326.78074177260714,332.3112046608494L326.7448735059588,332.66719300600926L326.39362646997324,333.13230124672464L325.58042637913604,333.1884579222133L325.5496564921814,333.5691876824503L324.3305645896762,334.7145034430714L324.02577697461675,335.4242219790449L323.2872376091327,335.9016838917096L322.35800252355693,337.6275835060933L322.16764352596147,338.2466980104391L322.1987123329418,338.42221398679067L322.24137704656096,338.5206853818145L322.4195455317167,339.2004602757461L322.19362287433614,339.53531096953884L322.1173114108933,340.1207285056016L322.152095499976,340.45273882010497L322.31363679627975,340.6101384715739L322.2698400037807,341.1956510274804L322.381869665518,341.40586422958313L322.4949963267718,341.51427559717285L322.54819158355895,341.6271488184466L322.69391203214764,341.71089776457393L322.698200181072,341.83803047303445L322.8629958237543,342.200244488974L323.0338599167444,342.50897659984184L323.042928673869,342.6994047828739L323.1020330606116,342.7582066390405L323.1720340977445,342.8176296291949L323.149112288389,342.93434366407473L323.21885917423424,343.0277005975968L323.2834592954241,343.0692645535555L323.7040542276409,343.3923783519522L323.763556343798,343.42645462709515L323.81606795981133,343.60260748884866L323.78283810976063,343.6807676529561L323.9598813151788,343.89689027432996L323.980530124707,344.0137150636965L324.09338553742055,344.10256264585587L324.18004886538984,344.1033417614053L324.41439893322604,344.4996637442473L324.54607517474506,344.89114438031265L325.4535717093495,345.66815190302805L325.95890357748794,346.7778624952489L326.0483472068663,347.8911809127176L325.6590461394335,350.0278789188678L326.126177846294,350.4897546482498L326.07908247811065,351.0344191165532L325.32958634355236,350.94980454930555L324.93306180846776,351.31300026929057L325.12929148984404,351.7972484888651L323.7883764816106,352.9233212756981L324.00554667972756,353.752197772611L323.17594640566676,354.2018450242458L322.676160358802,355.3730527016469L322.56487407333043,356.379490737123L321.6648904421236,356.0391953077906L321.0824839991692,356.31861090802795L321.70237673475276,356.8273861040716L321.6861366879857,357.25590993280275L320.8640363027953,358.2780051082709L319.73667512221436,358.76848982071806L319.5585398484909,359.613718917949L318.936001037815,360.4982427108753L318.5380826685141,362.70118382550936L318.48320942819555,363.81302322537067L317.584447344052,364.7044501735145L317.418332666879,365.2229732780488L317.280648447806,365.4677461533647L317.0077922238488,365.7340766184725L316.98671668055977,365.77315678113337L317.218834422838,366.07795280243954L317.1819723470544,366.15609710388344L317.05275948253984,366.2254488741264L316.81051920259415,366.3549437653937L316.53034790052334,366.4895214461567L316.46533460359933,366.49514637867014L316.1077695968852,366.53349958690706L315.82960094453665,367.18928984105696L315.68937961347547,367.2442238605272L315.286145677539,367.4924585036333L315.1085199001718,367.59217642249587L314.8157286929709,367.60021098646484L314.6889569370869,367.84039541884704L314.65304439043757,368.3620866011506L314.1222723042956,368.03653714923894L313.77140769982,367.7775301261281L313.6898099604696,367.75895550833684L313.3822052695941,367.86476150539784L313.26242910999645,368.19701353852724L313.3747152857868,368.48314002751613L313.4304594252426,368.5948502281344L313.44320466710633,368.6242116276844L313.4535929921549,368.69211119373085L313.4092932703861,368.8634544810093L313.3011341214187,369.35680491665426L313.18466797942165,369.5239754322938L313.12024465583454,369.55432593023033L312.9204496055572,369.9468320272654L313.108741723463,370.24691312135747L312.7348536062527,370.55852246960967L312.368471939797,371.01166649710376L312.7321411869452,371.8361752934834L312.34174026738765,372.4894662807319L312.4515852336699,372.6001240641235L312.6630669285878,372.64139869905557L313.1343958881116,372.7142608144277L313.27044578121786,372.7709105964468L313.5094640600146,373.1924838849527L313.4890745955272,373.2804575910013L313.7504838219793,374.0823296268536L314.11356120341225,374.794681190494L314.9690807762672,375.8094663973425L315.06059398767684,376.1300848069495L315.0562464720024,376.2031304851571L314.8059650528303,376.5132560582106L314.70128955552354,376.7678739873527L314.93296038189146,377.0335583813521L315.2845587663069,377.33687071529585L315.9386656630195,377.6103381950725L316.2707447374123,377.7226330345575L316.4494140328643,377.992811019657L316.26370984597816,378.75924346570173L316.4602103277248,379.2451804886505L316.2668538284488,381.2282804092856L316.38208728907557,381.51902698464164L316.40214758546426,381.6795676496613L316.3188808190789,381.8324152396772L315.7306290491797,382.17460076079624L315.3382669864077,382.7530778225255L315.1929522632927,383.01451512037056L314.94344946999263,383.2337518807235L314.3300490685324,383.8554866333043L314.1118682354463,384.9089243676499L313.2530051026515,385.45655039281974L313.47432732343805,386.75594580751385L312.63604493194725,387.2207917626647L312.407169493672,388.04065900015394L313.29149581698584,389.2389898064512L313.9415306363153,391.27560470355456L313.8901506524817,391.86169105601493L312.92678519413676,392.5713415534947L312.5588622497162,393.9529694015482L312.11425858519215,395.0577421935941L312.0906562863747,396.1259609524641L310.882912275516,396.0643273559772L310.31496972811146,396.29331969868326L310.10163779457434,396.88715155528644L309.2473683324679,397.6989365421987L308.84615206057424,398.43394007711777L308.02377570933095,398.49336269462765L307.3313731495582,399.0483461281492L306.9116803537945,399.93062012723476L306.28368519108335,400.45525306263426L305.94661995400384,401.09203820984476L306.24687264866225,402.0975771052781L305.74444367242904,402.62015270342545L304.96994926867774,402.4047572907457L304.5323849553206,402.6766506942795L304.8017122521087,403.506100028907L304.56405129496125,403.973373027261L303.66667764825615,404.2530808204265L303.57872101183966,404.8592732950892L302.7587880813844,405.1995510392744L302.3998493172694,405.80985853006405L302.62368597470413,406.9947388948158L303.02359491000607,406.95229061838745L303.56416018573873,405.59616595637635L303.925149581999,405.5214412743453L304.453537438294,406.0976560249246L304.36554894856454,406.7044061069146L303.4092286203813,408.33591278699987L303.44739721559745,409.0084734259508L303.8741432051611,409.41594423535935L304.05502607337985,410.3930795066799L303.48529148455054,411.00358184868946L303.11697753164117,411.98953674036784L302.21209377931154,413.44455415180164L302.5131602145957,414.51219382091585L301.841399149449,415.59257958155376L301.8744248853436,417.1401264324886L301.6335461395174,417.62006499399195L300.62861909834464,418.4214493681493L300.51236555344076,418.8486845931993L301.4057900743974,419.38979613091124L302.16815689868963,420.1487404123627L302.368550053885,420.8992348460888L301.995500640769,421.699939162414L302.2896734197748,422.22799731989926L302.1723408573598,422.8554269520664L302.6473026875683,422.9557548845478L302.1034096035546,424.3993432612533L301.9484829352514,425.88904640602505L302.95105902346404,428.385181855002L302.6287568737898,429.55243572671225L302.2916058093615,429.90623089319433L302.34040421176906,430.76866224071546L301.61579938391515,431.7879678638137L301.6980803092556,432.4663587239229L302.17458176997025,433.0476247503839L298.011080462893,433.189741404035L295.95187610942594,435.7039323711415L295.2845654272751,435.56425709007544L294.8967664507909,434.98206549624956L293.4966929450384,434.29941183655865L293.56450557984135,433.3347624027065L287.08630357943184,433.04849076459686L287.8823951134218,435.2758665750498L283.6116409171336,435.8319312557978L281.1100935226823,435.65069056812445L277.48777291165607,434.13374599306917L275.134103919052,432.8761273687205L272.93482734411737,431.21609405189247L269.8267362393053,428.96462197605615L263.01799669949105,423.8499848552792L262.0198363377167,418.46301175277404L261.0816937465279,411.89105802654103L260.55578445442006,407.9967246627566L260.1275636789687,405.6545251348243L259.77248292521836,404.151719521421L259.0495243776095,401.6770712210573L258.21507803280474,400.4944478255029L258.0707231571796,395.71099105412577L258.3068223521186,391.4799979071695L257.9886551289528,389.32545299354933L251.06999949694364,388.94409419001477L250.47948552595335,393.7744654907183L244.814661582579,400.965276729612L243.5861568954897,403.0084875906141L240.78588444729758,403.9477252073639L237.348485996994,405.29564670995205L234.4228078458582,404.78683107212146L233.34089800631773,406.0836519350314L230.94429471182957,405.5037252357142L231.00718214509834,405.1637156176739L229.81570431619548,405.1312199593158L229.3232872662993,406.0080782609284L228.2611321770164,405.827195059268L227.5304233627503,405.9729801220801L226.1180796329354,405.8497906019238L225.56149580828787,406.8365927742525L224.3541069104358,406.98147788098686L222.51300418215396,406.9218939254215L222.22869963510675,407.47373158664595L221.7635848464015,409.71809540482445L221.44305818302018,411.99175467285477L221.80877171973407,413.8410845880717L215.24099026775366,414.17913401253463L215.22414988616583,414.1043681059973L215.25785690724297,413.9875582989016L215.6167414278898,413.8193322325251L215.72005146824085,413.77612443860653L215.81329163673945,413.65525110290764L215.98266406157563,413.4952170190336L215.88661929122463,412.82163786572255L215.92018323718366,412.7192141412188L216.13666620966615,412.716199412087L216.20172731704224,412.711546326248L216.38717429626922,412.57163336238136L216.5723350304579,412.45588837997366L216.65955470449626,412.39831071151457L216.71508644694768,412.26193673879425L216.72228345410622,412.0864678650123L216.9463769063732,411.873476780549L216.99676240839472,411.7083307362773L216.9756847837525,411.6496715767653L216.92798593386397,411.5467075691595L217.00537416329826,411.3861811789766L217.18384675301058,411.4021732902602L217.31409601410633,411.37390871595926L217.7700157049112,411.25051203072417L217.93860917927668,411.169306666181L218.02151156945547,411.1094349451723L218.09283213057643,411.0415021189474L218.33836855883783,410.83712957027456L218.3631200078744,410.60241141610913L218.61940848299855,410.34051029663533L218.75039976144035,409.992963956297L218.52422393249435,409.66576814265227L218.28171363643196,409.08027636454244L218.3003324579222,408.87949225881766L218.2690549902327,408.62350660623997L218.47236671567225,408.03028048350734L218.9424490525089,407.16135644874157L219.81591157892763,406.1759986545112L220.21725282734405,405.31343243430274L220.37540958758836,405.13444014198285L220.94722910402197,404.4265651759515L222.68350029901922,402.63947539824403L224.04823469167968,402.37424159527563L225.83703931686614,401.80284628462414L227.17408952940968,401.7016907114994L227.92264796708332,401.14285121103785L228.6877053936405,400.334923552502L229.94666025918195,400.1021597732197L231.0944382963935,399.3016655301153L231.72356529319222,398.0589237331578L232.58468817143876,397.393740009923L233.0303937260287,396.4007264862548L234.87473605664854,395.2257361484217L235.7415298865635,394.54278877546403L236.90268197244586,393.37775135130323L237.75886720175185,392.7558374523169L237.58013501951427,391.7681079500235L237.14503938522466,391.26018965166986L236.05519945354536,390.4600524237612L235.46640044608648,389.78936537632217L235.16074976273012,388.88736508178226L235.23004900859814,388.1590746357697L235.7173747269917,386.844532365325L236.8524320802826,384.92648059251223L236.9116070936725,383.81331892368416L236.34507876116913,382.36946346002514L234.5119189155812,379.74818584687364L234.29542602419315,379.2839796677963L235.98201050178977,378.3265197530409L235.82869244730318,377.55568033126383L235.98456394886307,377.04252641401945L236.7648901419816,376.57648691626673L236.76387414241253,375.2482042833153L237.4181130018551,374.2500732559665L237.26523176741466,373.79389543579055L237.42442838082934,373.0742223933594L238.39186266227262,371.9271112157667L240.27339995403963,371.3570046036284L240.35794072989302,370.4354338894673L240.82526008144487,369.9994145777091L241.22763122331162,368.88627892858403L241.4800007791855,368.6314195624336L242.96388592353833,367.8468827873821L243.08042274387844,366.51286285367587L242.77975134412554,366.0313407021067L242.72636673496527,365.25530595610417L242.42449613938516,364.568427755893L242.6680900833926,363.67333235197384L243.33507925599042,362.94684785038953L243.25221425739437,361.02948632530024L243.0073532570823,360.03599095204754L242.26842653310086,358.79567854675497L242.2383682537038,357.44956925391944L243.0550191858747,356.36699890818L243.29846722161892,355.3557315888438L243.23466334679324,354.5555290943412L244.1344007710577,353.8296459823432L244.50340269984372,352.98866749783065L245.94089056297526,352.63107775741446L246.15236669387014,351.6732927906378L246.15272831416223,350.707450177777L246.87822521826456,349.708919675194L247.6279802291574,349.24660863223016L248.13384918502925,348.68353554864007L248.04914560569887,347.9523642973172L248.47656881184957,347.262717407144L249.34860025711896,346.4276885735844L250.73105893810862,345.8689336539319L252.81255982994116,347.5700869430075L254.68402893164603,348.4940930653993L256.1624742450658,348.8537034193041L257.24651378082854,347.35394810822163L260.99810887761487,347.2788778763015L262.96518622705116,347.0822021543354L264.96919642846115,347.13415159079614L266.1489677191348,346.5545777230536L267.8476358595435,344.5148638178689L268.4941503353257,343.6248753986574L270.49644496642577,340.2181443908712L270.7527900169116,339.63391866294023L272.0450630282721,338.26191375578037L272.54380289758046,335.85782128240044L273.51208090665386,333.9667125011538L274.1512209942048,333.15217544139796L274.319558615156,332.2946476782736L274.7696496190256,331.53402585551885L275.86396492845233,330.8016551399205L276.446081485803,328.91370753176307L275.9180028746814,325.6975287431378L276.32627368009344,324.8477235554128L277.7808513032687,322.8479540212966L278.1273762516539,321.34575813406536L278.5185947322316,317.2705729332838L278.9761559816543,316.4553699531061L279.98980931785263,315.518265927818L281.4770367077508,315.3410665460797L281.7038483488541,314.86329513619785L283.1904572985113,314.81732288386775L284.19687295999756,315.1090414747032L285.3899416074055,315.05013803676684L285.98015144580495,316.1185367197668L286.79554644858945,316.63847629094926L287.5548055209183,316.61243104198L290.36765759718037,317.6632184209302L291.0134812033684,317.97707207107214L291.1651729658515,317.93759134426364L291.9887588164129,317.8375434952568L292.61713380131914,317.94717253163617L293.0504044694244,318.0387228233931L293.1752246650467,318.1648656454845L293.8524144544717,318.41093053524764L295.25991462079037,318.5143167127153L295.2977335884425,318.4850340924986L295.30270036941147,318.3193790625319L295.6160366905715,318.06042420479207L295.64300628832643,318.0069738053162L295.7183552356437,317.8460173103922L295.9010369852658,317.2906128156201L296.59802839270924,316.7924090353108L296.67345709254005,316.63605672054655L296.9819232834052,316.591682290421L297.45799551994423,316.4831331429059L297.5227201475973,316.39063416128647L297.6843303892492,316.0589709482929L297.77618572946085,315.995849035221L298.5020548859684,315.28257052469326L298.5763702152617,315.2079145688158L298.74032540308326,315.01949074316417L299.11813162620456,314.67614599857916L299.3356660705758,314.67706619911587L300.1414908937695,315.3865261235942L300.22893518765704,315.4045270956958L300.66547106675716,315.46851595324915L300.8176574886784,315.46590052536067L301.16850163454365,315.5199974741199L301.16381999177975,315.61144392793176L301.5708278758575,316.02402878431803L301.917708748173,316.23745597080506L302.3072630052884,316.2174233242313L302.77124877243114,316.3361520693479L302.7876096181935,316.33444711940774L303.4735977535165,316.78838504902524L303.88035849750304,316.82650179505254L304.53778241968394,317.26313870097965L304.7280693244138,317.7202238383461L304.7598049949229,317.79390611601684L304.8728195966032,317.8781017044421L305.1600995670997,317.91026219816104L305.68299020164704,317.70585283398304L306.1126878270261,317.5881439167997L306.38506923495515,317.4689720748411L307.3222460508805,317.58233953398485L307.7145370852486,317.41051222451097L308.5960116331553,317.1418132483177L308.6447122745885,317.1568675869985L309.06729249245836,317.20541913067973L309.196921916664,317.2459304606373L309.6959369481556,317.25149767617677L310.20291201904183,317.0131865108824L310.9527536098176,316.8748726173126L311.11634483358284,316.79812806710834L311.4431771437594,316.6601402481274L311.7472629068834,316.6394559048249L312.02431362706557,316.59342514153286L312.07390436331116,316.51587009563536L312.3351827802726,316.43068016926645L313.0200907209655,316.2968760054937L313.4081322643651,316.3086106292376L313.5952866228399,316.3026649108788L313.75420906419095,316.1770109687932L314.07229215155166,315.8911956154452L314.1376078267349,315.8723475898096L314.3645281955032,315.99648124814485L314.9863799076775,315.75733961309743L315.37879943439475,315.6333224911932L315.57382482192406,315.6837898054273L315.768611891217,315.7635868756943L315.8223949739877,315.8028090940097L315.9615386935584,316.0090389275583L315.9686512107728,316.34672126997066L316.0532164822507,316.56722662239736L316.1755858616016,316.80735882352565L316.47134635072143,317.08352485065006L316.96026125919525,317.08745129435556L317.2061493733854,316.94761684836703L317.3873101900899,316.7783104082482L317.43706023289633,316.7007553575504L317.87462420442534,316.4255800818046L318.13580798674957,316.3836121046279L318.4926760783237,316.53336120025415L318.72464693165966,316.6771063514134L319.1318007348855,317.20318666748335L319.17139637853325,317.5553182435733L319.2786291870689,317.6878658040587L319.457055263043,317.76246951832127L319.6837528242213,317.89643286894443L320.169901035988,318.13968121605194L320.61125485690354,318.5145876459919L320.8477519780572,318.746353839786L320.91260673571014,318.77641529412085L321.16627592468285,318.94956947412356L321.3071316330643,319.4929082279441L321.3872502985905,319.62537661119313L321.41935174074024,319.6697609942348L321.7865398928807,320.4057544783809Z" fill="#FF7B46"></path>
  <text x="276" y="378" font-size= "4" font-weight="500">
    सुनसरी
  </text>
    </g>
</svg>