<svg  viewBox="230 164 150 150"  version="1.1" xmlns="http://www.w3.org/2000/svg" xmlns:xlink="http://www.w3.org/1999/xlink">
  <g>
  <path id="path-0203" d="M320.534142382563,181.94473762617508L320.51129059789673,181.9922207816726L320.10456756110216,182.2553130791266L319.7942413824385,183.1158977691275L319.72547453113293,183.25072463306424L319.8390763797106,183.9462116206987L319.92792743577957,184.15255594320115L320.57825177710765,185.169395287322L321.295901789621,185.85309321826662L322.6945567046823,186.5854462535017L323.0095652752134,187.3241716758048L323.4868941123932,187.96651988011763L323.58409813705293,188.07767307204722L324.15539800888655,188.5127721860472L324.89307444155565,188.7828341912018L325.64568645485997,189.1000969335264L326.132826376539,189.29884026834497L326.4413694715404,189.42519291930876L327.58623764660297,190.2970396260862L327.9444896468776,191.20588516067892L327.98210031215785,192.20364292069644L327.9138323283769,192.61771645323006L327.3816032789691,193.6172448481475L327.21931916945323,194.10172689606406L327.1175310052022,194.426020482073L327.12031155802106,194.66761903526185L327.23086466583845,195.09763933095473L328.06564200781577,195.94388994064957L328.279310163005,196.17067659121312L329.1090292738081,197.00731801478196L329.42067261930424,197.84788496171495L329.45651433308376,198.46769673759172L329.0705101342828,199.1049305194765L328.51328169323097,199.8604513890441L328.4151124063792,200.0850028989271L328.28252142173733,200.228946960965L327.4099070030388,201.0779309807649L326.87934008541197,202.06115743005194L326.24268557415417,202.5762081845296L325.3960516511179,202.7357614585344L323.8696335899076,202.60551184723772L323.24897006085666,202.41850751665152L323.14837300111685,202.42793527899994L322.66407696392343,202.81215928378697L322.4254921727588,203.62535873259003L322.5893305232894,204.04171102208602L323.2563448565452,204.09050728486545L323.9571097805092,203.78550692737736L324.26563879652167,203.91183142256705L324.5702805894798,204.10687216660153L325.32719067233484,205.15052288460447L325.3341758170427,205.68509157925018L324.3582246826627,206.9240701836834L323.23418882026454,207.83715304769976L322.4615551866809,208.85844016220472L322.1202286513835,209.5305033191953L321.86173474596217,210.29653031072576L321.8599922717294,210.52089707348205L321.9253361165247,211.10639962130517L322.17365808487375,211.7413545323143L322.25131943402084,211.80943540151566L322.4420795930928,212.09180690878202L322.42018772051233,212.22983141752957L322.3611924602119,213.4328235976718L322.36332945930917,213.8982675994548L322.3258318162989,214.2866971439662L321.48475648118983,216.190080340647L321.17622661106725,217.40110785117758L321.3215223198931,218.44992559173352L321.1480604209937,219.38318363004146L320.681286860643,220.92812907148527L320.9572344623193,221.3980632648736L323.2777191821988,221.3455687099722L323.10259857781784,222.4665458494792L323.09395963317,223.73732353774085L322.76822412651745,224.12999887371734L322.39346905001366,225.0632743332235L322.66797493699414,225.9976663443167L322.55633490308537,226.84549665630493L322.15931447775074,227.56734021666125L322.31326622335837,228.18371223273607L322.3334776035663,228.54624371966383L322.30475596831093,228.8577989345713L322.2704257522746,229.1174754171434L322.1806712440157,229.51598009199733L322.1433220499639,229.58544366029128L321.5988893038739,229.7900794556599L321.48418952087377,229.83061782988898L321.0594867824075,230.01246837714552L320.9532936374708,230.58405302948177L320.9020672352199,230.68822012358487L320.55384050234716,230.84759610831588L320.5679025177269,231.5855940044985L320.3319426215676,231.9252055042889L320.13430685812637,233.02399155227522L319.6479312975098,233.69415501745516L319.6961326108467,234.48377757449634L319.0445670395129,236.16601763955168L319.1917986065855,236.80328504341742L319.0886490541816,237.39162249431592L319.350523967325,237.9842513852691L318.46544413796437,239.02584390686752L318.1709778824188,239.67723656687122L318.2902719405138,240.38796891796574L318.6958655454582,240.69612140164372L319.551749284994,240.88530592568077L320.850985142275,241.34830534960565L321.1661308354014,241.21361532191804L321.9928073201045,241.3908803043023L323.0125437887218,241.31893494768792L322.6965531890528,242.16886805911145L323.06380969623933,242.46466437181698L323.0269640517872,243.0474211830733L323.3184782404205,243.41752860686483L323.24001977570515,244.33685035909093L323.67140321017723,244.9638275648449L323.38375946441374,245.77893011955712L323.7309814236978,246.78654602253118L323.4900178815442,247.03154428316157L323.5301607842521,247.8543204593425L322.88872457533216,248.80845336122366L323.2644022497152,249.59101163093783L322.8936619266424,249.8039576015226L322.75939619993005,250.73844097577967L322.96851541134674,251.75321680985508L322.78402429562993,252.82647195746904L321.8074968412948,254.85249577226205L322.07353171780414,255.62519296681876L321.40308239269507,255.72191664123966L321.25064247909904,256.00949299243894L321.686760152279,256.6496441868967L321.09486333941095,258.38124022040665L321.5341308866555,258.71920632841466L321.3348211800985,259.26199292913407L321.226725440858,260.50762211427264L321.0851588288024,260.61758162370006L320.4868879473215,260.6750920564591L320.43221028316475,260.8103273436327L320.34218101609076,260.86341937148063L320.4622120543754,261.0944628040306L320.3736353897875,261.2172432147818L320.1537591546039,261.25097790158L319.8111205735695,261.1529181150554L319.80064192365535,261.3386648005726L319.68304114011335,261.4489479852673L319.4258294340543,261.53488617989933L319.36254419127727,261.7174916886579L319.20409129841937,262.1607750941903L319.0916897876523,262.2878110277834L318.848877168497,263.0644476110174L318.7451208280254,263.6100788119402L318.77839470195977,264.0625738629069L318.7818640494952,264.23041212213775L318.2928400247765,264.92503569044584L317.6023252767591,265.6059812905869L317.5697800672824,265.6540563949475L316.78754359755476,266.30216004013073L315.67991620792964,266.2737306402141L315.48724475739436,266.22997069261964L315.3055360391336,266.2502207640355L315.26035442131615,266.3802990116774L315.21910292511166,266.4716864620341L315.0322841688903,266.70817357417945L315.0270565411993,267.38123179892045L314.7594694183572,267.8823840049463L314.72410826480336,268.02510069105574L314.92505359506686,268.24174299100287L314.9652244253921,268.35892763802076L314.62124103012684,269.3444620243363L315.1164015841896,269.7291914830548L315.3714933926967,270.0186633522944L315.7651638075549,270.1437748435992L315.9572722038174,270.2129669863707L316.0303613655851,270.61935940848343L316.28491404174565,270.72316930394936L316.6314480930232,271.15997727535614L316.77568180168964,271.2590406835725L316.67038036135637,271.34127077335415L316.74312895067123,271.6270963371335L316.7480755810684,271.6916700504071L316.7149551499642,271.86081926705083L316.69111691202124,271.8996653775739L316.6242938376672,272.0121034858712L316.6456680938645,272.7536520745116L316.7182606540264,272.9875706266521L316.7568949561719,273.06510645747494L316.96405609091744,273.4027945880389L317.15189945467137,273.6709355208195L317.63739513170003,274.0725729719097L317.66174398660587,274.2026219163099L317.6913938036305,274.50150947935253L317.64900474236856,274.7750082986986L317.6875684343504,274.8444001968046L317.7933096889683,274.91326967903115L317.8223353046087,275.00003452057354L317.75568252868834,275.17350987027567L317.5942874616194,275.7419957814127L317.34041517169317,275.842136488649L317.4368171771166,276.00671849334776L317.4708883946587,276.17534529835666L317.49037593293906,276.2794689941693L317.49097187208463,276.48754793109583L317.45759599629673,276.56562034773924L317.33788063971224,276.6179379155519L317.1942136434227,276.67501824250576L317.2237783066048,276.9433871897427L316.9457835633002,276.9618353212263L316.9074188627055,276.97892693568156L316.87074204796954,277.55556885018996L316.8852547681272,277.594625686821L316.6430763301796,278.38349230448694L316.60948763047054,278.387832524435L316.4854215692649,278.58311990040056L316.4530243817644,278.9857661550941L316.4917582694834,279.1111088588068L316.76197385858904,279.69908813057555L316.3125631381772,280.1156901098766L316.6969663085947,280.41331792908204L317.28810514078214,280.90977840171945L317.34193366449836,281.2857934406329L317.3853019651433,281.3637941642901L317.3854152012427,281.38974767209857L317.5587040975006,281.6447712036452L318.10142927878405,281.99359898331204L318.1788119151388,282.2142730100477L318.65989903601803,282.6841477215603L319.07733699369055,282.75670369110503L319.20199846202013,282.74302041994997L319.35109366568577,282.8766743492406L319.6397461702727,283.1700063223134L319.78385238637566,283.23450733214395L320.0433095206172,283.4069911064398L320.20276502521665,283.77407147120175L320.3374612675798,283.9205474018627L320.4525987594752,283.92475839890903L320.6585683763187,283.8636473601937L320.7371274647121,284.43432742392724L320.4387265135265,285.6076789190429L320.10004619946267,286.17139128203144L318.6776334269998,286.69059728843695L318.8428293445977,287.3608207713951L320.6135194810231,287.7917443153201L320.2739460083285,289.4827718223387L320.50127509139566,290.13014056775137L318.95914414258004,290.5637667422088L318.17194359036876,291.69006607571646L317.23773047536815,291.8530021961151L316.46889718349485,292.7243312273822L315.41542154238414,293.03883383074754L315.20252090407666,293.8478203422919L314.6769166345257,294.3250663006238L313.69764882154413,293.92226730842594L313.44106809925506,294.5627257797223L312.9019357052639,294.9185174090935L312.34323138671243,295.88084939712917L311.48864624353155,295.8189805760594L310.9506953362361,296.0745792280304L311.0498703973717,296.817521548126L310.73122673705075,298.17526732805436L309.1051968052998,298.0341696177102L309.0091584901711,298.4419174624727L308.4649989005702,298.93212637236775L308.1894034142788,299.8612158191463L308.9368955332866,299.89384994259126L308.9483685588857,300.8175665261706L308.59183614973153,301.33526171673475L308.22419998070836,300.37118344823375L307.10980812462367,300.2692895192504L306.6606388802211,300.0831838817894L305.7260129154456,300.03381402363357L303.7621759802969,299.7431438282656L303.7161807482116,301.4654883598487L303.5807077271602,301.93054027782364L300.6753427090662,301.67120697019345L297.4775197568888,298.92651262531126L297.04175336459593,296.8180575530796L295.57928270787306,296.5267170200759L294.2433223859698,296.3803590383486L292.64924113028246,295.94479686990326L289.8039218694357,295.54249278388215L287.63823404519644,294.1237357346954L285.25405337626944,293.5789476095515L284.42292998291305,292.96210719583996L282.6898212556662,291.3720105948405L282.47974100757347,290.8972281993447L281.44627851143014,290.11338402111596L282.0582436721779,289.3219894373233L282.215881042237,288.2467479835268L281.39394110350986,287.49102377055624L280.92765689372027,287.4758564904905L280.5464609095616,286.91411428804076L279.90285323174976,286.3867837225198L280.1637151338873,285.6458223791833L279.7956729506441,285.51228467212786L279.7836219946985,283.8637298906124L279.8740341952398,283.2290933197073L279.469559241581,282.49053795604414L279.8633869168116,281.3180445955413L279.87377945196204,280.34329438581517L279.70214591615513,279.0181888550878L280.1366010036618,278.2527788541711L279.80216401864163,277.5288617457554L280.0869721732488,277.22159977066985L280.4663512586121,275.6951836903427L280.02451323000423,275.0388714298424L280.7839650617243,273.56449715941653L280.6021506218858,273.2288657383533L281.2656482021739,272.8444698230878L280.84218129191504,272.12490793865254L281.05158146867325,271.70387163329815L281.86150878734406,271.3257997017636L280.66020318728624,268.53419686596226L281.52874869922744,264.9798630195992L282.0923585478049,262.0361600843016L281.9444136110433,258.13180860006105L281.2883906489915,257.47130110662965L280.61918933751804,256.56625039290884L280.652965455567,255.36902121201L278.9695839509004,252.68004283748633L277.3827605949482,251.61958183632578L275.14524091918065,249.94100965080634L272.65800156017576,248.8748145250902L269.7294092220254,247.44923673231278L269.80013270530617,246.5182065635281L269.2168199589396,245.6339934203197L268.8881563251525,244.74840946251425L269.3300947829848,244.0901246124704L269.14987417839075,243.1385695994859L268.8147380410592,242.67983771806212L269.8474516047718,241.9570118391057L270.0313913410755,241.48173010625578L270.43807268672026,241.23733512498075L270.4396421197198,240.81053950358546L271.0061124127242,240.7030248193323L271.5800714584075,240.96219831621784L271.927766278186,239.5718346503636L271.4624531547306,238.7953365369849L272.30963762753527,238.68473163860017L273.0181322331846,238.10795225911534L273.3870826466373,236.46611265448155L273.8754488967825,235.29420983101772L274.9828035646533,235.0886914956991L275.2110716871466,234.0936768297306L276.3181235249285,233.5428163173383L275.4096189304728,233.46873250364024L275.811376519483,232.19744130156778L276.44564852706026,232.3015127444678L276.58145683809926,231.70207206090345L275.8372682531917,231.2836297151207L275.83156074003637,229.81666531603696L276.7345722762075,229.97830352084293L276.6880108733676,229.4563176889169L275.76607606482867,229.22466733929105L276.32033687857984,228.71245013821772L276.7808352143875,228.97325985070165L277.2138367958687,228.80602043824183L276.7017072613853,228.13925487561028L276.73752238779343,227.45272647661477L277.69972686792244,227.11434320441458L278.14286984097635,226.80510614266223L277.88966214046013,226.32060266147346L278.57448332164495,225.57528090637425L278.2389698742263,225.27211509841618L278.5334410503274,224.86301160851872L278.5648299485474,224.06817463462903L279.3746654023962,223.34106902745043L279.53029785278704,222.7714703405063L280.17556372520994,222.38923050009635L280.39626134419086,221.17254044025958L281.07411766722726,220.19332733899682L280.86582303814066,219.53850508060168L281.39658530928136,219.1441075583598L281.6204946367652,218.59372632195573L281.5720658618957,217.6984018780986L282.1310743459544,216.47308336133392L281.81922873209624,215.37002250761725L282.35115612758455,214.7650240296207L283.00507413414743,213.75505319745025L283.0082697379876,212.9284300285217L282.77944191001006,212.01996271784628L283.0907238038708,211.02883559158454L283.1131333868834,210.01739560913575L283.43909627295943,209.02664867847034L284.03794279876456,208.1865741257443L284.87857706993236,206.0635306134027L284.78035390773584,205.02468786880945L284.94063318187546,204.32943590222567L285.97932104223946,202.95239016823507L286.4135034819992,201.96581209177748L287.0300997238628,200.9938844837543L288.9552884604782,199.87974081065659L289.4644716057883,199.0731029301296L290.1015040099446,198.43423075483133L291.7305188393584,196.4443657216152L292.15258358408755,196.10599118827304L292.6338276282622,195.29507045087848L292.4466688985449,194.7442873627151L292.740136765613,194.1954267310748L292.6434441006095,193.5955249676017L293.1428311392192,193.2819332083336L293.2630697913264,192.6404769477149L293.97945286129107,192.00456233971545L293.5466101906168,191.66901975500696L294.0790346559661,191.2646043120867L294.50781439373895,190.65407021910596L295.01704022436024,190.56118162907114L295.61171471874695,191.02913792601703L296.1572171821026,190.78030233349637L296.2064331716356,190.20050439981515L295.6522680031012,189.86648551146754L296.50135160307036,189.62216778982656L296.94205396979305,188.47593758919902L296.6595253847263,187.9396545353202L295.80462915288444,187.79896734089834L294.99222392690353,188.24135950057644L294.9031277351896,187.7583751650809L295.8633203120007,186.88235152063226L296.21172212269084,186.3335604488375L294.6765966595085,185.48861759552165L294.82205610107485,184.89934972966603L295.1991001547394,184.98105056473833L296.1286128016436,184.42168259714072L295.5860956383367,183.9013957910738L294.95736515998215,182.63360187802118L295.33923437085105,180.97461507017852L296.4337954253642,180.75616227432783L296.972143138657,179.94787543758048L297.8688258355651,179.2926829725502L298.3242340974539,178.67789332654775L299.13984653413354,177.9878439119093L299.0609836165786,177.03780928049764L299.5353988003153,176.44933915269667L300.15622131395867,176.15108923007483L300.3031640364643,175.75462678346594L301.2424968112864,175.19480776127602L301.8189572239826,174.45137584859003L302.4393710377444,174.14809585115017L303.6458673631423,174.43152141621613L304.68349852535175,175.1314596379534L306.53132216735685,176.04195726273974L305.882108835689,176.97816764696017L305.6902425770277,177.71887392264398L305.21387439670434,177.88455014335523L304.52382269437294,178.44523866353848L304.7465835671246,178.92509283753043L305.3720872475096,179.48453392779265L306.0195607763999,179.5870269074967L306.9942706149923,180.34708755860447L307.7608983296341,180.517815695639L308.82725355955336,181.0253848229404L309.0851888729485,181.87836570076433L309.80767709055,182.15173908274937L310.0818658381904,182.73396923857126L310.8108019600113,183.45089083818402L311.1090829080531,183.32689529607978L311.40966805466815,182.88955565075048L311.5981077907163,182.69625396664833L311.9221810367417,182.32333270640993L311.9658000276286,182.2588850375687L312.1259472269594,182.00122140658186L312.4495568532948,181.69291618291845L312.88875343503605,181.3241354418251L313.3683592099733,181.01508088763785L313.4551169627739,180.8282058454679L313.834052901424,180.41467674707837L314.96571604957717,179.75757819215232L315.387549289062,179.12752973787155L315.88138099220305,179.29858640934253L316.3329839566577,179.31128800865918L316.6292174941409,179.65483581747958L316.7631113046191,179.83333785755258L317.2154413386197,180.25959048587083L317.7067344182324,180.3060788782741L317.9411121737867,180.45630094391072L318.8374985134942,181.14615316762047L319.5963814325951,181.52324127543034L320.25067679330823,181.75161279036274Z" fill="#05a831" stroke = "#222"></path>
      <text x="295" y="245" font-size= "4" font-weight="bold">
    महोत्तरी
  </text>
    </g>
</svg>