<svg  viewBox="172 145 150 150"  version="1.1" xmlns="http://www.w3.org/2000/svg" xmlns:xlink="http://www.w3.org/1999/xlink">
  <g>
  <path id="path-0207" d="M300.3031640364643,175.75462678346594L300.15622131395867,176.15108923007483L299.5353988003153,176.44933915269667L299.0609836165786,177.03780928049764L299.13984653413354,177.9878439119093L298.3242340974539,178.67789332654775L297.8688258355651,179.2926829725502L296.972143138657,179.94787543758048L296.4337954253642,180.75616227432783L295.33923437085105,180.97461507017852L294.95736515998215,182.63360187802118L295.5860956383367,183.9013957910738L296.1286128016436,184.42168259714072L295.1991001547394,184.98105056473833L294.82205610107485,184.89934972966603L294.6765966595085,185.48861759552165L296.21172212269084,186.3335604488375L295.8633203120007,186.88235152063226L294.9031277351896,187.7583751650809L294.99222392690353,188.24135950057644L295.80462915288444,187.79896734089834L296.6595253847263,187.9396545353202L296.94205396979305,188.47593758919902L296.50135160307036,189.62216778982656L295.6522680031012,189.86648551146754L296.2064331716356,190.20050439981515L296.1572171821026,190.78030233349637L295.61171471874695,191.02913792601703L295.01704022436024,190.56118162907114L294.50781439373895,190.65407021910596L294.0790346559661,191.2646043120867L293.5466101906168,191.66901975500696L293.97945286129107,192.00456233971545L293.2630697913264,192.6404769477149L293.1428311392192,193.2819332083336L292.6434441006095,193.5955249676017L292.740136765613,194.1954267310748L292.4466688985449,194.7442873627151L292.6338276282622,195.29507045087848L292.15258358408755,196.10599118827304L291.7305188393584,196.4443657216152L290.1015040099446,198.43423075483133L289.4644716057883,199.0731029301296L288.9552884604782,199.87974081065659L287.0300997238628,200.9938844837543L286.4135034819992,201.96581209177748L285.97932104223946,202.95239016823507L284.94063318187546,204.32943590222567L284.78035390773584,205.02468786880945L284.87857706993236,206.0635306134027L284.03794279876456,208.1865741257443L283.43909627295943,209.02664867847034L283.1131333868834,210.01739560913575L283.0907238038708,211.02883559158454L282.77944191001006,212.01996271784628L283.0082697379876,212.9284300285217L283.00507413414743,213.75505319745025L282.35115612758455,214.7650240296207L281.81922873209624,215.37002250761725L282.1310743459544,216.47308336133392L281.5720658618957,217.6984018780986L281.6204946367652,218.59372632195573L281.39658530928136,219.1441075583598L280.86582303814066,219.53850508060168L281.07411766722726,220.19332733899682L280.39626134419086,221.17254044025958L280.17556372520994,222.38923050009635L279.53029785278704,222.7714703405063L279.3746654023962,223.34106902745043L278.5648299485474,224.06817463462903L278.5334410503274,224.86301160851872L278.2389698742263,225.27211509841618L278.57448332164495,225.57528090637425L277.88966214046013,226.32060266147346L278.14286984097635,226.80510614266223L277.69972686792244,227.11434320441458L276.73752238779343,227.45272647661477L276.7017072613853,228.13925487561028L277.2138367958687,228.80602043824183L276.7808352143875,228.97325985070165L276.32033687857984,228.71245013821772L275.76607606482867,229.22466733929105L276.6880108733676,229.4563176889169L276.7345722762075,229.97830352084293L275.83156074003637,229.81666531603696L275.8372682531917,231.2836297151207L276.58145683809926,231.70207206090345L276.44564852706026,232.3015127444678L275.811376519483,232.19744130156778L275.4096189304728,233.46873250364024L276.3181235249285,233.5428163173383L275.2110716871466,234.0936768297306L274.9828035646533,235.0886914956991L273.8754488967825,235.29420983101772L273.3870826466373,236.46611265448155L273.0181322331846,238.10795225911534L272.30963762753527,238.68473163860017L271.4624531547306,238.7953365369849L271.927766278186,239.5718346503636L271.5800714584075,240.96219831621784L271.0061124127242,240.7030248193323L270.4396421197198,240.81053950358546L270.43807268672026,241.23733512498075L270.0313913410755,241.48173010625578L269.8474516047718,241.9570118391057L268.8147380410592,242.67983771806212L269.14987417839075,243.1385695994859L269.3300947829848,244.0901246124704L268.8881563251525,244.74840946251425L269.2168199589396,245.6339934203197L269.80013270530617,246.5182065635281L269.7294092220254,247.44923673231278L269.5372298325419,247.34980776647444L265.83668277009565,246.3941952140458L262.81167748451844,245.65637263415556L261.1858109705754,245.19887323758485L259.3916000458448,240.91640547745374L256.9261018071302,240.61121676254152L253.30723567870882,244.15084197161013L252.94988054297937,244.3827666077268L248.9251952786435,246.19334847462233L248.42783717289785,246.5218330758189L248.20052166788446,245.83843682304087L248.56159106642735,245.3403971782518L247.68967829388203,243.9528570319926L246.71462830791643,244.49013265083977L246.71275434595736,243.7785390089739L246.07285602824777,243.43654639332L245.33582353535894,244.36416333044053L244.76720706579,245.65425299380604L243.90314527549344,247.96824255294632L242.08454737731154,247.2771646223964L241.12972005535994,249.4639665686691L239.05871148030565,248.68408433401783L238.65499912009545,248.7360541472426L233.5542865648822,253.95135193821443L230.77835530185257,253.4113323325828L229.52566096035298,253.8721748677017L228.59128909899664,254.5371601310353L228.41087194374995,255.03197028733848L228.6228659529952,255.39292063758148L228.42656700528823,256.4380523365853L228.08300902956762,256.86320488556066L228.3931229728878,257.3451291147894L228.09470790888372,257.818580946162L224.66633404469394,256.6874179627066L224.38932651444338,256.74962904865333L224.26589292240897,257.58101658642863L224.3254495496367,258.3634389950421L224.11562756380954,258.8307321463062L223.1534138045463,259.41990035718845L220.94400207971194,259.83750220918046L219.72531037807494,260.5680661034785L218.64090481103995,261.3743326131789L218.1844974770247,261.36711176544486L216.26859518807032,260.46398290458364L213.88944986220304,259.4291213107517L213.49063758621924,260.04565710928364L213.08456229313742,260.30402908871565L212.0305885218222,260.34427231119935L210.55965157118408,259.36813687407994L208.2826840710186,259.17705824875975L207.8702179906686,259.7268929062784L207.64588824261227,260.4078024389164L207.16900812996755,261.060789892259L206.0424088002692,262.0481678939459L204.7622171996336,262.7634592675722L202.98818849263262,263.0263475146794L202.1015786374628,264.38603184117346L201.37479636416901,265.7020069368373L200.02933132572798,266.52419898846347L199.6413855751416,266.61404198245873L198.72108463450058,266.3487869388273L198.26113545248518,266.06255893637353L197.88766109661447,265.5213033239597L196.4017661494472,266.2232688922604L194.7857283890262,267.62503697441025L191.73560073770204,270.3959381554796L189.89716510961807,269.684345229296L190.22320928196496,269.2102589869028L191.20149182072782,268.2559945526318L191.40337340054248,267.3666965409402L191.4891673883576,266.1573494712575L192.7241746908221,266.15730183623054L193.38633065238173,266.334978472315L194.4180291809971,266.2888179611409L195.5567558834773,265.84082738881807L195.3436145571104,265.16429262059046L194.3079331881927,264.7159559076208L194.48525302952476,263.61484561182806L194.32614031234334,262.75112637823804L192.94020429321608,262.5116349148475L191.35872782963634,262.4890879068698L191.0260341346293,262.27230675838473L192.4229154926943,261.6898104524862L193.01055115522468,261.0330734037261L193.28216104858802,260.17750541435L193.10273752282956,259.6147456568051L191.86904535262875,258.4204251336996L191.1564236326667,257.62069665598574L189.8452345808546,257.5575243663261L188.98263956837764,256.3830646905244L189.4985471810287,255.74389883779168L189.6628885796381,255.2489622000603L189.29534219149718,254.52219961430274L189.67231630087554,253.9132868569959L190.03919688597307,253.73665075282952L190.44000264601345,252.7525672749416L190.84085368067463,252.64087073609244L191.33372757810866,252.11546666994946L191.28982073571387,251.1552020555655L192.0251785216169,249.59744520701497L192.92706288430054,249.0510126306881L193.21283914687956,249.25617036857966L195.1013129453495,248.90686732368795L195.57044869079618,248.49628178369312L195.9477980424781,247.6264955122424L195.95889282615826,246.52585290517163L195.6578489301428,245.86424075866762L193.7966391432965,244.84494027626351L193.52427790039656,244.02746580864368L194.6975733372674,243.26899084545857L194.8616623221642,242.83719083180313L195.86508529911953,242.16108778906437L197.92460321926774,241.13251052428222L198.49420405795536,241.16802200408893L199.91877269963152,240.6924671356046L200.41374447589624,240.09858637709294L201.33380515301906,239.61564232484943L201.98908393068632,238.99841214696517L203.5500856775725,238.8738190581862L203.9676255086888,239.1246116901002L204.57254265766824,238.88438430800034L204.94754446319348,238.29039272288446L204.92660836765572,237.60349898043387L205.53273186591468,236.3805611924272L205.16200978222332,235.37483389420686L204.61983152241373,234.87406121142612L204.63455451808477,234.14733492343294L204.4492171730526,233.7741823984552L204.13333980216703,231.81629067753784L204.18491375228768,231.47294850769777L203.615796459384,230.9520982386648L203.44046603264724,230.04596898950604L203.64132386653728,229.41007699745205L204.16612639626328,229.01238277981065L204.56315841115793,228.1490353024128L205.22719923001932,227.46125714002937L205.99695757205336,226.3600107943994L206.30732150788026,225.2394686712023L206.05280022925945,223.15552831889L206.7358027854243,222.34895837945805L206.1187921405217,221.62665231747178L206.44071786319182,220.94164122008897L205.63031957017301,218.8669386209367L205.91491134148237,218.31125880899071L206.04025468917098,217.87351353062786L206.83976325495678,217.17088253163456L206.91851627600408,216.8751213567657L206.85075821590362,216.73050427539874L206.81255911909466,216.57192368763117L206.85109399786597,215.90190871423238L206.84718866000185,215.77012646432468L206.77359356998568,215.41995274148485L206.04539789750197,214.35625157014783L205.88120031570725,213.57129489061936L205.65861294582282,213.29695508733494L205.58037333262473,213.19495995435773L204.96309777554416,212.61255200617597L204.87489780074247,212.54758514188416L204.73966772961285,212.47300975355392L204.3650736819618,212.30958762441878L204.1722169749446,212.1535597675529L203.9405519403772,211.66805562386799L203.96755989703524,210.90177904585016L203.38075654671775,210.17626008027764L203.9524429890771,208.81717284380375L204.63976063887458,208.20595856724958L205.3147987895827,207.91301995784215L205.7472566013712,207.32932720670215L205.75196551333647,206.77697709124368L206.5211725669942,206.30241889455647L206.6651020104182,205.98593053670447L206.70115093155255,205.00358608718216L207.08752211473984,204.38535986828447L208.43774768496587,204.2218256787919L209.2394264203831,203.54573992627502L209.165706150372,202.5709353036318L209.3704507608236,201.84816535000937L210.03089442489727,200.9488987411014L210.876168893883,200.4548812414523L211.5087471618208,200.4195478898191L211.9822046931804,199.8388978863677L211.9296637709267,198.32056316042417L212.22398000569228,197.91409466409914L213.6764993647812,197.34034710559354L214.12908143763707,197.0011128031847L214.3100319205878,196.4109004791626L213.7481395683826,195.0440538315197L213.64598989086153,194.2067806576033L213.76693215408523,192.806206100101L214.37916213868448,191.89689421662297L214.92907600611215,191.7229603886617L215.64781399793355,191.88799728343201L216.19892538170097,191.7105409722235L217.19378836450778,190.665340504087L217.50133434197778,189.5540837895087L217.79614586607568,189.25754423717444L219.04765409676475,188.69470539998474L219.70953779287083,187.94776405237008L220.5916032281748,187.65480797643977L222.03181964353644,186.23242934987502L222.65728048722303,185.3793779789803L222.73808730743986,184.92652915182225L222.53176559465646,184.28451472124743L222.89619436716748,183.4012730205668L223.61531007139638,182.73082450138736L225.6197517534456,181.6777174569288L226.494166955963,180.6971771861463L226.65499196705423,179.8118252886561L227.00778695294866,179.12586974454553L227.00435166565148,178.549552999335L226.6491133685522,177.54378354731216L226.72688036530963,177.2638453194204L227.11096965272372,177.38185564534342L228.12117460488298,179.08280734116852L229.3233389649613,179.75773366813246L230.0490746930227,179.69302141692697L231.2651616169569,179.78638928526016L231.92949020227752,180.11248796825657L232.68851701431413,179.9579806085021L233.87578364755973,180.3635375631784L235.42384159823996,180.46679112717175L236.03132487240146,180.33123703954607L236.38385880505302,179.97557555035382L236.52281912857507,179.18269561570014L236.90867208323834,178.72596715077634L237.5537178286795,178.61752130732202L239.16195251729732,179.49599699040755L239.72374331168612,180.00592748697272L240.21450039680713,180.02933687481618L240.30999603953023,179.26896289908836L241.40581069882683,179.0404643021293L241.58735582460213,179.2974882712724L242.32727391894514,179.65659821083045L242.68701551772756,179.70022863566555L242.8996473927582,179.550520621141L243.88440499945864,179.74085846514117L244.08707967705777,179.7840687335156L244.2385386293754,179.7621706681166L244.6280782294707,179.76836389677283L244.7399031722016,180.3959095844648L244.87772117399072,180.9443403879195L245.08730403416848,181.20771842571503L245.4965502743362,181.0051844065756L245.939735290307,180.69296041246525L246.3460056029944,180.33736847929868L246.80627587849813,179.7782760747359L247.54618572519394,179.72858331088355L247.78274651820539,179.8447079634543L248.2336434404242,179.7841988778564L248.48059950240713,179.77204943418565L249.00996313801807,179.89438296445041L249.9169385505047,180.30746837129482L250.6969316040777,180.22283213881838L251.0018304449004,179.89984573287074L251.23276594765775,179.83395788573944L251.53330202492725,179.75313367697254L252.31950431040968,180.16035965936408L252.6679547277745,180.6177243991142L253.10427070333026,180.62712934094998L253.44101769560075,180.62277011990045L253.6703039346794,180.51621901035014L254.13901976115812,180.2582686560545L254.6291276254342,180.2254454632539L255.4135218960073,180.40540230329043L255.56685733185805,180.51222900500306L256.0724982894026,180.81193994148362L256.3897273932489,180.59620520853332L256.70981712863795,180.40587441556545L256.7768819191624,180.40471796013026L257.62937697155576,180.95179863954854L258.02147030583365,181.1336217004182L258.4751153188008,181.10630822085477L258.7268166188078,180.95379567311738L258.92596150992904,180.62785209990398L259.17888406362545,180.25305816770742L259.83297503659924,180.13937069169697L260.90023238884896,179.98711260118853L261.0456210739867,180.07319918048506L261.74562569441696,179.8014229129667L262.4424129252293,179.281468198923L263.02669944423906,178.162922420016L263.78066066185784,177.63480875378264L264.3361307923551,177.7124065745229L264.27583164645694,177.15856400671692L265.7141696722101,176.91287010231554L266.3325999760891,176.06821621957624L266.4239743675389,175.6522966582279L267.330874634059,175.13859439875705L267.6603264250916,174.59070549208082L268.1887825772901,174.42801555832284L269.1160240800273,174.4279159129046L270.0593033066725,173.9403919760025L270.94849410827374,172.7713009467061L271.02263700606636,172.33927697667332L271.95567725045476,172.04368503696242L272.7693865859983,171.30310962395652L273.0295023278959,170.61604237623396L273.811263310472,170.17286179289658L274.7953040483335,170.4414685805732L275.31057550757396,170.41839509450256L277.46182140572273,169.78159768832847L278.1994337434371,169.68380212541433L278.8822138315809,169.0483531429918L279.2051097524527,168.28904623540257L279.9348601329948,168.18371272754757L280.8577320762852,168.77962753655538L281.6918365638521,169.1210248759944L282.6970772995046,169.1770578246278L283.57928683905266,169.73118282370706L284.2496132586166,169.8442005738716L284.90143434838683,169.65678090121492L285.18229714825065,170.03525766867642L286.35270841925376,170.20235813475847L287.5031576234942,170.48616509478506L288.4172356607123,170.97148886283048L289.6075099748996,171.00119893001465L290.8311233313543,171.90759259341576L292.9920895183277,172.57851551655494L294.1559970154485,173.00944838697433L294.4838223944753,173.53868571943894L295.1949317925828,174.0737781423386L295.8883544981545,174.38013633164792L296.38691667284,174.38248115622628L298.0114506458958,175.13821963685405L298.8126750681258,175.6817785788753L299.57583107312894,175.5740914629887Z" fill="#FF7B46" stroke = "#222" stroke-width=".3"></path>
      <text x="238" y="222" font-size= "4" font-weight="500">
    सर्लाही
  </text>
    </g>
</svg>