<svg xmlns="http://www.w3.org/2000/svg" xmlns:xlink="http://www.w3.org/1999/xlink" id="Layer_1" data-name="Layer 1" viewBox="0 0 627.06 841.75"><defs><clipPath id="clip-path"><rect x="14.56" width="595.71" height="841.75" style="fill:none"/></clipPath><clipPath id="clip-path-3"><rect x="29.2" y="49.68" width="569.07" height="704.46" style="fill:none"/></clipPath><clipPath id="clip-path-78"><rect x="450.18" y="757.02" width="147.61" height="63.37" style="fill:none"/></clipPath><clipPath id="clip-path-90"><rect x="14.56" width="595.5" height="841.49" style="fill:none"/></clipPath></defs><g style="clip-path:url(#clip-path)"><g style="clip-path:url(#clip-path-3)"><polyline points="185.45 272.42 186.89 272.66 189.05 272.66 190.49 272.42 191.93 272.42 192.89 272.42 193.61 272.66 194.09 272.66 194.81 272.66 195.77 272.66 197.69 272.42 199.37 272.18 200.57 272.18 201.53 272.18 202.73 272.66 203.93 272.66 205.13 272.66 205.37 272.66 205.61 272.66 206.57 272.66 208.73 272.9 210.65 273.38 212.33 273.62 213.53 273.86 214.49 274.1 215.21 274.34 215.45 274.34 216.17 274.58 216.89 275.06 217.13 275.06 217.37 275.3 218.57 276.02 218.81 276.02 219.53 276.74 220.01 277.46 220.49 278.42 220.97 279.62 221.21 280.1 222.41 281.06 223.61 282.26 223.61 282.98 223.37 283.7 223.37 283.94 223.37 285.14 223.37 286.58 223.37 287.06 223.37 287.3 224.09 287.78 224.33 288.26 225.05 288.74 226.01 289.7 226.25 289.94 226.49 289.94 227.21 289.7 228.17 289.46 228.89 289.46 229.37 289.46 229.85 289.46 230.33 289.7 231.05 290.18 231.53 290.66 231.77 290.9 232.49 291.62 232.73 291.86 233.45 292.1 234.17 292.1 234.89 292.34 235.37 292.82 236.09 293.06 237.53 294.5 238.01 294.74 239.21 295.46 239.93 295.94 240.41 296.66 240.65 296.9 241.61 297.38 242.09 297.62 242.81 297.86 243.53 298.34 244.73 298.34 246.17 298.34 247.13 298.58 248.33 298.82 249.05 299.06 250.01 299.54 251.21 299.78 251.69 300.02 251.69 300.26 251.93 300.74 251.93 301.7 251.93 302.19 251.93 303.14 251.69 304.11 251.69 305.06 251.93 306.02 251.69 306.5 251.93 306.99 252.89 308.19 253.13 308.67 253.13 308.9 253.13 309.87 252.65 310.82 252.65 311.06 252.65 311.79 252.65 312.02 253.85 312.75 254.09 313.23 254.33 313.94 254.33 314.91 254.33 315.39 254.57 316.11 254.57 316.35 255.29 316.83 256.01 317.07 256.49 317.55 256.73 317.79 256.49 318.51 256.01 319.23 255.77 319.23 255.53 319.47 255.29 319.71 254.81 320.43 254.81 320.67 254.57 321.15 254.57 321.39 254.57 321.87 254.57 322.11 254.57 322.59 254.81 322.83 254.81 323.07 255.29 323.55 255.53 324.27 255.77 324.51 257.45 326.43 257.93 327.15 258.17 327.39 258.41 327.63 258.89 327.63 259.61 327.15 260.33 327.15 261.05 327.39 261.29 327.39 261.29 327.87 261.29 328.11 261.05 328.83 260.57 329.31 260.57 329.79 260.57 330.03 260.81 330.51 261.05 330.75 261.53 331.23 262.01 331.71 262.25 331.71 262.49 331.95 262.49 332.19 262.49 332.43 262.49 332.67 262.01 333.39 261.53 333.63 260.09 334.11 259.37 334.35 258.65 334.59 258.17 334.59 257.69 335.07 257.45 335.31 257.45 335.79 257.93 336.27 258.17 336.27 259.37 336.27 259.61 336.27 260.09 336.51 260.09 336.75 260.33 337.23 260.57 337.71 261.29 339.39 261.53 339.87 261.77 340.59 261.77 341.07 261.29 341.55 261.05 342.03 261.29 342.51 261.77 343.23 262.49 343.23 263.21 343.47 263.21 343.71 263.45 343.95 263.45 344.43 262.97 346.11 262.97 346.83 263.21 346.83 263.21 347.55 263.45 348.03 263.69 348.51 264.17 348.99 264.89 349.23 265.37 349.47 267.77 349.95 268.01 349.95 268.73 350.19 268.97 350.19 269.45 350.43 269.93 350.67 270.41 350.91 270.65 351.87 270.65 352.11 270.65 352.35 269.93 352.83 269.45 353.79 269.45 354.03 269.69 354.51 269.93 354.51 270.65 354.99 271.37 355.71 271.85 356.91 272.09 357.39 272.09 357.63 272.33 358.11 272.09 358.35 272.09 359.31 272.09 360.27 271.85 360.99 271.85 361.23 272.09 361.47 272.33 361.71 273.29 361.95 273.77 362.43 274.25 363.15 274.97 364.11 275.45 365.07 275.69 365.55 275.45 366.03 275.21 366.51 274.97 366.51 274.49 367.23 274.49 367.71 274.73 368.19 274.73 368.43 274.97 368.91 274.97 369.63 274.49 370.11 274.25 370.83 274.25 371.55 274.25 372.03 274.25 372.27 274.49 372.51 274.73 373.23 275.21 373.71 275.69 374.43 276.17 375.63 276.41 375.87 276.89 376.11 277.61 376.35 277.85 376.59 278.09 376.83 278.09 377.07 278.09 377.79 278.09 378.27 278.33 378.99 278.81 379.95 280.01 381.87 280.25 382.35 281.45 383.79 281.69 384.03 282.17 384.51 282.65 385.23 282.65 385.71 282.89 385.95 283.13 386.43 283.61 386.91 284.81 387.87 285.05 387.87 285.53 388.35 285.53 388.59 285.77 389.55 285.77 390.03 286.49 392.67 286.49 393.39 286.73 394.35 286.97 395.07 287.21 395.31 287.45 395.55 288.65 396.03 289.13 396.03 289.61 396.03 289.61 396.27 290.81 396.75 291.05 396.99 291.53 397.71 292.01 398.19 292.49 398.67 294.65 399.39 295.61 399.87 295.85 400.11 296.57 401.31 296.81 401.55 297.53 401.79 298.49 402.03 299.45 402.51 299.69 402.75 299.93 402.99 299.93 403.23 300.17 404.43 300.41 404.67 300.65 405.15 301.13 405.39 301.61 405.63 303.05 405.87 304.49 406.35 304.73 406.35 305.21 406.59 305.69 406.83 306.17 406.83 306.65 407.07 306.89 407.31 307.37 408.03 307.61 408.51 307.85 408.75 308.09 409.47 308.57 410.43 309.05 410.91 309.29 411.15 309.53 411.15 309.77 411.39 310.73 411.63 311.45 411.63 312.17 411.87 312.65 412.11 313.13 412.59 313.37 412.83 313.61 413.55 313.85 413.79 314.33 414.75 314.81 414.99 315.53 415.23 315.77 415.23 317.93 415.47 319.37 415.47 320.57 415.71 321.53 415.47 322.01 415.71 322.49 415.95 322.97 415.95 323.45 416.43 324.41 417.87 324.65 418.11 324.89 418.11 325.37 418.11 325.61 417.87 326.33 417.39 327.05 416.91 327.29 417.15 327.53 417.15 327.53 417.39 327.77 417.87 327.77 418.83 327.77 419.31 327.77 419.79 328.25 420.51 328.25 420.99 328.49 421.23 328.97 421.47 329.69 421.71 330.41 421.95 331.13 422.19 332.09 422.43 332.33 422.19 334.25 421.47 334.73 421.23 335.21 421.23 335.69 420.99 336.17 420.51 336.41 420.27 337.13 420.03 337.61 420.03 338.81 420.27 339.29 420.27 340.01 420.51 340.25 420.51 341.21 420.75 341.69 420.99 342.41 421.71 342.41 421.95 342.65 422.43 343.13 423.15 343.37 423.39 343.61 423.39 343.85 422.91 344.33 422.67 345.05 420.51 345.29 420.03 345.53 420.03 345.77 420.03 346.25 420.51 346.73 420.99 346.97 421.71 347.45 422.19 347.93 422.43 348.17 422.67 348.89 422.67 350.33 422.91 352.01 423.15 352.25 423.39 352.25 423.87 352.25 424.11 352.73 424.83 352.73 425.07 352.97 425.07 353.69 424.59 354.17 424.35 354.65 424.11 355.13 424.11 355.61 424.11 356.09 424.59 356.09 424.83 356.33 425.07 356.33 425.56 356.33 426.51 356.33 427.48 356.57 427.95 357.05 428.44 357.53 428.44 358.97 428.68 359.69 428.44 360.41 427.95 361.13 427.71 361.61 428.19 361.85 428.68 362.33 429.63 362.81 429.88 363.05 430.12 363.77 430.36 364.25 430.6 364.97 430.6 365.69 431.07 366.17 431.56 366.65 432.04 367.13 432.27 368.81 432.27 369.53 432.27 370.97 432.27 371.45 432.51 372.17 432.75 372.89 433.71 373.61 433.95 373.85 434.44 374.33 434.68 374.81 434.92 375.54 434.92 376.01 435.15 376.98 435.15 376.98 435.63 376.74 436.83 376.74 437.08 376.5 437.56 375.77 438.28 374.33 439.48 374.09 439.48 372.89 440.44 372.41 440.68 371.69 440.68 371.21 440.44 370.97 440.2 370.49 439.24 370.01 439 369.29 439 368.09 439.24 366.41 439.72 365.69 439.96 364.01 440.92 363.77 440.92 363.05 441.4 362.33 441.88 359.21 444.04 358.49 444.52 357.05 445 356.09 445.72 354.65 446.68 353.45 448.12 352.25 449.08 351.77 449.32 350.33 450.28 349.13 451 348.17 451.72 347.45 452.2 345.77 453.64 344.57 454.36 343.85 454.84 343.37 455.32 343.37 455.56 342.89 456.52 341.93 458.92 341.69 459.64 341.45 460.12 341.45 460.6 340.97 461.8 340.73 462.52 340.25 463.48 340.01 464.68 339.77 465.16 339.29 465.64 338.81 466.12 338.09 467.32 337.85 467.8 336.41 469.72 336.17 470.2 335.93 470.68 335.69 471.4 335.45 471.64 334.97 472.36 334.73 472.84 334.01 473.8 331.85 475.96 331.37 476.44 330.89 476.68 330.41 477.16 330.17 477.4 327.53 479.56 326.81 480.28 326.33 480.52 325.85 481 325.85 481.24 325.37 481.72 324.89 483.16 324.65 484.36 324.41 484.6 324.41 486.52 323.93 487.24 323.93 487.96 323.93 488.92 323.69 489.64 323.45 490.36 323.21 490.6 323.21 491.08 322.49 492.28 322.25 493.24 321.29 494.2 321.29 494.44 320.81 494.68 319.85 494.92 318.65 495.4 317.69 496.12 317.45 496.36 317.21 496.84 316.73 497.8 316.49 498.28 316.25 498.76 316.01 499.48 315.77 500.68 315.53 501.64 315.77 503.32 316.01 504.04 316.01 505 316.25 505.96 316.25 506.92 316.01 507.64 316.01 507.88 315.77 508.36 314.57 509.56 312.41 511.24 311.69 511.48 310.01 512.44 309.29 512.92 309.05 513.4 308.81 513.64 308.09 514.84 307.85 515.32 307.13 517 306.65 517.72 306.41 518.68 305.93 519.16 305.21 520.6 304.49 521.56 304.25 522.04 304.01 522.52 303.53 523 302.33 523.72 301.85 524.2 301.37 524.44 300.89 524.92 299.93 525.64 298.73 526.12 298.25 526.12 297.29 526.6 296.57 526.6 295.13 526.84 294.17 527.08 293.93 527.32 293.45 527.56 292.49 528.76 291.53 530.2 291.53 530.44 291.05 530.92 290.57 532.12 290.09 533.08 288.65 534.52 287.93 535 286.97 535.72 286.73 535.96 285.29 537.16 284.33 537.64 283.37 538.12 281.93 538.84 281.21 539.32 280.73 539.32 280.25 539.32 278.81 539.08 278.09 539.08 277.61 539.32 276.65 539.8 275.69 540.28 275.21 540.52 274.49 541.24 273.77 541.48 273.29 541.96 272.57 542.68 271.85 543.4 271.37 544.12 270.89 544.84 270.41 545.56 270.17 546.28 269.69 546.76 268.25 548.45 267.77 548.92 267.29 549.4 266.57 549.88 266.33 550.37 265.61 551.09 264.89 552.04 264.65 552.52 264.41 553.49 264.17 556.13 263.93 557.8 263.45 558.76 262.97 559.25 262.49 559.97 262.01 560.45 261.53 560.93 261.29 561.17 260.33 562.37 259.61 563.57 259.13 564.05 258.89 564.77 258.41 566.21 258.41 567.17 258.41 568.13 258.41 569.33 258.65 570.77 259.13 571.25 259.37 571.97 260.09 572.45 261.05 572.93 261.77 572.93 262.25 572.93 262.97 573.17 263.21 573.17 263.69 573.17 264.41 572.93 265.61 572.45 266.33 572.21 267.29 571.97 267.77 571.73 268.25 571.97 268.73 572.45 268.97 572.69 270.17 574.37 270.89 575.81 271.61 576.77 271.85 577.73 272.09 578.45 272.33 579.41 272.33 579.89 272.33 580.61 272.57 581.09 272.57 583.01 272.81 584.21 273.05 585.17 273.05 585.89 273.29 587.09 273.53 587.81 273.77 588.53 273.77 589.01 273.77 589.97 273.77 591.41 273.53 593.09 273.05 593.81 272.81 594.29 272.57 594.29 271.37 594.77 270.89 594.77 270.41 594.77 269.93 595.01 269.45 595.01 269.21 595.25 268.25 596.45 267.53 597.41 267.29 597.65 266.81 598.37 266.57 598.85 266.09 599.81 265.61 600.29 265.61 600.53 265.13 601.01 265.13 601.25 264.65 602.21 264.41 602.69 264.41 603.17 264.41 603.41 264.89 604.85 265.13 605.57 265.13 606.53 265.13 607.25 264.65 608.21 263.21 609.41 262.49 609.89 262.01 610.61 261.29 610.85 260.81 611.33 260.09 611.81 258.41 613.01 257.45 613.73 255.77 614.69 254.81 615.41 253.85 616.13 253.37 616.37 252.65 617.09 251.69 617.81 249.77 619.49 248.81 620.45 248.09 620.93 246.89 621.89 245.93 622.37 245.45 622.61 244.73 623.33 243.29 624.53 241.85 626.21 241.61 626.45 240.17 628.13 239.21 629.33 238.25 631.01 238.01 631.49 237.77 631.97 236.57 634.61 235.37 637.49 234.41 639.17 234.17 639.89 233.45 640.37 232.25 641.33 232.01 641.57 231.53 641.81 230.57 642.77 229.85 644.21 229.13 646.61 228.41 648.05 228.17 648.53 227.21 649.25 226.73 649.49 226.49 649.49 226.25 649.25 225.29 649.25 224.57 649.25 222.89 650.21 221.45 651.41 220.73 651.89 219.05 652.85 217.37 653.57 216.41 654.29 215.93 654.77 214.01 657.17 212.81 658.85 211.85 660.53 211.61 661.01 210.65 661.49 210.17 661.49 208.49 661.49 207.53 661.25 206.57 661.49 205.61 661.25 205.37 661.25 205.13 661.25 204.65 661.25 203.21 661.73 202.49 661.73 201.77 661.01 201.05 660.53 199.85 660.29 198.65 659.57 198.41 659.57 197.93 659.33 197.45 659.33 196.49 659.09 194.09 659.09 192.89 659.33 192.65 659.33 191.69 659.57 191.21 659.57 190.01 660.05 189.05 660.53 188.33 661.01 187.13 661.73 185.93 662.45 184.97 663.41 184.49 664.13 182.81 666.77 182.57 667.73 182.33 667.97 182.57 668.45 182.57 668.69 183.05 668.69 184.01 668.93 184.97 669.65 185.45 669.89 185.93 670.37 186.41 671.34 186.65 672.05 186.65 673.01 186.41 674.7 186.17 675.41 185.93 675.89 185.21 676.62 184.73 676.86 184.25 677.1 183.53 677.1 181.85 677.82 180.41 678.29 179.69 678.29 178.97 678.29 178.25 678.05 177.29 678.05 175.85 677.82 175.37 677.82 175.13 677.58 174.17 677.34 173.69 677.1 172.72 676.62 171.53 676.13 170.81 675.65 170.56 675.65 169.6 675.17 168.65 674.46 168.41 674.22 168.16 673.98 167.21 673.74 166.72 673.5 166 673.5 164.56 673.98 164.09 674.22 163.6 674.7 162.88 674.93 162.41 675.17 161.21 675.65 160.49 676.13 159.04 677.34 158.56 677.82 157.6 679.25 157.37 679.5 157.13 679.98 156.41 681.65 155.93 683.1 155.69 683.58 155.21 684.54 154.97 685.02 154.97 685.98 155.21 686.94 155.21 687.18 155.21 687.9 154.97 688.62 154.72 689.1 154.49 689.82 154.25 690.3 154 690.78 153.76 691.02 153.28 691.02 152.81 691.02 151.6 691.02 148.96 691.02 148 690.78 147.28 690.78 146.56 690.54 145.84 690.54 145.36 690.06 143.92 689.34 142.72 688.62 142 688.14 141.04 687.66 140.8 687.66 139.84 686.94 138.64 686.46 137.92 685.74 137.2 684.54 136.96 684.3 136.48 683.82 134.56 682.62 133.84 681.89 133.36 681.65 132.64 681.41 131.2 681.17 130.72 681.17 129.52 681.17 128.8 681.41 126.88 681.89 126.16 682.38 125.2 682.62 124.24 683.1 123.04 683.58 122.32 683.82 121.84 684.06 119.92 684.78 118.72 685.26 117.76 685.26 115.84 685.98 115.12 686.46 114.64 686.7 114.4 686.7 114.16 686.46 113.92 685.98 113.44 685.02 112.96 684.3 112.96 683.58 113.2 682.86 113.44 682.38 113.44 681.65 113.68 680.7 114.16 679.98 114.4 679.01 114.64 678.29 114.64 677.58 114.64 677.34 114.64 676.86 114.64 675.65 114.64 675.41 114.4 674.93 113.44 674.7 112.96 674.22 112.72 673.98 112.48 673.5 112 672.05 111.52 670.85 111.28 668.93 111.04 667.97 111.04 666.77 110.8 666.29 110.32 665.81 110.08 665.57 110.08 665.33 109.84 664.85 110.08 664.13 110.32 663.41 110.56 663.17 111.04 662.93 111.28 662.69 112 662.45 112.24 661.97 112.96 660.53 113.44 659.09 113.92 657.65 114.16 657.17 114.64 656.69 115.36 655.25 115.6 654.77 115.6 654.53 115.36 653.57 115.36 653.33 115.36 653.09 115.84 652.37 116.32 651.89 117.04 650.45 117.28 649.49 117.04 648.29 116.56 646.13 116.32 645.65 116.32 645.17 116.32 644.45 116.56 644.21 116.8 643.73 117.52 643.25 117.76 642.77 117.76 642.53 118 641.57 118 640.85 118 640.37 117.76 639.41 117.52 638.93 116.56 637.49 116.32 636.77 116.32 636.29 116.32 635.33 116.56 635.09 116.56 634.61 116.56 633.41 116.56 632.69 117.28 631.25 117.28 630.53 117.28 630.05 117.28 629.57 116.56 628.85 116.32 628.37 116.32 627.65 116.56 627.17 116.56 626.69 116.56 626.21 116.32 625.25 116.32 625.01 116.08 624.53 115.6 624.05 114.64 623.57 114.4 623.57 113.68 623.33 113.44 623.33 112.48 623.09 111.28 622.61 110.8 622.61 110.32 622.37 110.08 621.89 110.08 621.41 110.08 621.17 110.08 620.21 110.08 619.73 109.84 619.01 109.36 618.29 109.12 618.05 108.4 617.81 107.68 617.81 105.28 618.05 104.8 617.81" style="fill:none;stroke:#005ce6;stroke-linecap:round;stroke-linejoin:round;stroke-width:1.440060019493103px"/><polyline points="104.8 617.81 104.32 617.81 104.08 617.57 103.84 617.09 103.36 616.37 102.88 615.41 102.88 614.69 102.4 614.45 101.92 613.97 100.72 612.77 99.76 612.05 99.28 611.57 99.28 611.09 99.28 610.85 99.52 610.37 100.48 609.17 100.72 608.93 100.72 608.21 100.48 607.25 99.76 605.81 98.8 604.37 98.8 603.89 98.8 602.69 98.8 601.49 98.8 601.01 98.32 599.81 97.84 598.85 97.6 597.17 97.36 596.69 97.12 595.49 97.12 595.01 97.36 594.05 97.36 593.33 97.36 592.85 97.12 592.37 96.88 591.89 96.64 591.17 96.64 589.97 96.64 588.29 96.64 587.81 96.4 587.09 95.68 585.89 95.44 585.17 95.44 584.21 95.44 583.97 95.44 583.73 95.92 583.25 96.16 582.77 96.4 582.53 96.88 582.29 96.88 581.81 97.12 581.09 97.12 579.41 96.88 577.73 96.4 575.81 96.4 574.85 96.64 573.65 96.88 572.69 97.12 571.73 97.12 571.01 96.88 570.53 96.64 569.81 96.4 569.57 95.68 568.37 95.2 567.41 95.2 566.69 94.72 565.25 94.24 564.53 93.76 563.81 93.52 563.33 93.28 562.61 93.04 562.37 93.04 561.65 92.8 560.69 92.08 559.25 92.08 558.52 92.08 557.33 91.84 556.37 91.6 555.64 91.36 555.4 90.64 554.21 89.2 552.52 88 551.33 87.28 550.61 86.8 550.37 86.32 549.88 85.36 548.68 84.16 546.52 83.92 546.28 83.92 546.04 83.44 546.04 82.48 545.56 82 545.56 81.04 545.08 80.8 545.08 80.08 544.36 79.84 543.64 79.36 543.16 78.4 541.72 78.16 541.24 76.96 539.08 76.72 538.84 76.24 538.36 75.52 538.12 75.04 537.64 73.84 536.2 71.92 533.08 71.44 532.36 70.48 531.64 70 530.92 69.52 529.72 69.28 529.24 69.04 528.52 67.84 527.32 66.88 526.12 66.64 525.88 66.4 525.64 66.16 525.16 65.68 525.16 65.2 525.16 64.96 525.16 64.48 525.64 63.76 525.64 63.04 525.4 62.56 524.92 61.84 524.68 61.36 524.44 60.64 523.72 59.68 522.76 59.2 522.28 58.72 521.32 58.48 520.84 58.24 519.88 57.28 518.68 56.56 517.72 55.84 516.76 55.36 516.04 55.12 514.84 54.88 514.6 54.88 513.16 54.64 512.2 53.44 511.24 52.96 510.52 52.48 510.04 51.76 509.56 51.04 508.6 50.56 507.88 50.32 507.16 49.84 505.96 49.84 505.24 49.84 503.08 49.6 502.36 49.36 501.88 49.6 500.68 49.36 498.76 49.36 498.52 48.4 497.08 48.4 496.12 48.16 494.44 47.92 492.76 47.92 492.04 47.92 491.56 47.2 489.4 46.96 488.2 46.72 487 45.76 485.32 45.28 484.84 45.04 484.6 44.8 484.12 44.32 482.92 43.84 482.2 43.36 480.76 43.12 479.8 43.12 477.4 43.12 475.48 42.88 474.76 42.64 474.28 42.4 473.32 42.16 472.6 41.2 470.92 40.24 469.48 39.76 468.76 38.32 465.88 37.6 465.16 36.88 464.68 36.4 464.44 36.4 464.2 36.16 463.96 36.4 463 36.16 462.76 35.92 462.28 35.68 461.8 35.2 460.84 34.96 459.64 34.96 458.92 34.72 458.68 35.2 456.28 36.4 453.88 36.64 453.4 37.6 452.44 37.84 451.96 37.84 451.48 37.6 450.76 37.36 449.8 37.36 449.56 36.64 448.84 36.4 448.12 36.4 446.92 36.4 445.96 36.16 444.76 35.92 444.28 35.92 444.04 36.16 443.08 36.16 442.12 36.16 441.4 36.4 440.92 36.4 440.68 37.12 438.76 37.36 437.8 37.84 436.36 38.08 435.63 38.08 435.39 38.08 434.19 38.08 433.24 38.32 431.8 38.32 431.31 38.32 430.6 37.84 428.68 38.08 427 37.84 425.8 37.84 425.07 38.32 423.87 38.32 423.39 38.08 422.67 38.08 421.95 38.32 420.99 38.8 420.51 39.52 418.83 39.28 418.59 39.52 418.35 39.76 417.63 40 417.15 40.72 415.95 40.96 415.47 41.68 414.75 42.4 414.03 43.12 413.55 44.8 412.83 46.24 411.87 47.68 411.15 48.16 410.91 48.4 410.43 48.4 410.19 48.4 409.23 48.64 408.99 49.12 408.27 49.84 407.55 50.56 406.83 51.52 406.35 52.96 404.67 53.68 404.19 53.92 403.71 54.4 403.23 54.88 402.27 55.12 401.55 55.6 400.35 56.08 399.39 56.32 398.91 56.56 397.71 56.56 396.99 56.32 396.51 56.08 395.31 56.08 394.83 56.08 394.11 56.32 393.39 56.32 392.91 56.8 391.47 57.04 390.99 57.52 389.07 58.72 386.91 58.96 386.67 59.68 385.23 59.68 384.75 59.92 384.03 59.92 381.87 59.68 379.95 58.96 377.31 58.72 376.11 58 374.91 57.76 374.19 57.28 372.75 56.8 371.79 56.32 371.07 55.84 370.11 55.36 369.39 54.88 368.67 54.4 367.95 53.92 366.75 53.92 366.27 53.92 365.79 54.16 365.07 54.16 364.59 54.64 363.63 54.88 363.15 55.12 362.67 55.84 362.19 57.04 361.23 57.28 360.99 57.76 359.79 58 358.59 58 357.87 58 357.15 58.24 356.91 58.96 355.71 59.68 353.79 60.4 350.91 60.4 350.43 60.64 348.75 60.88 347.79 61.12 346.83 61.36 346.11 61.84 345.63 62.08 344.91 62.56 343.95 62.8 343.71 63.04 343.23 64.24 342.03 65.2 340.83 66.64 339.39 67.6 338.43 68.56 337.47 68.8 336.99 69.76 336.03 70.48 335.07 70.72 334.59 71.2 333.87 71.92 333.15 72.88 331.71 73.6 330.99 75.04 328.83 75.52 328.35 76.24 327.63 77.2 327.15 78.4 326.67 78.88 326.43 79.6 326.43 80.32 326.67 82 326.67 82.72 326.67 83.2 326.43 83.92 326.19 84.64 325.71 84.88 325.71 85.84 324.75 86.32 324.27 86.8 324.03 89.68 323.07 92.56 322.35 94 322.11 95.92 321.87 97.6 321.63 99.52 321.63 100.72 322.11 101.44 322.35 103.36 322.35 104.08 322.35 104.8 322.11 105.52 321.63 106 321.39 107.2 320.91 107.92 320.67 108.88 320.67 110.8 320.91 113.2 320.91 114.16 321.15 116.32 321.39 117.52 321.39 118.96 321.39 119.92 321.39 121.12 321.63 123.04 321.63 123.76 321.63 124.48 321.15 124.72 320.91 124.96 320.19 125.44 318.75 125.92 317.79 126.16 317.55 126.4 316.35 126.88 315.15 127.6 314.19 128.08 313.46 129.52 311.55 130.48 310.58 130.72 309.63 130.96 309.14 131.44 308.67 131.92 308.19 132.64 307.23 133.36 306.75 134.56 304.82 135.52 303.87 136.48 302.67 137.44 301.7 137.68 301.22 138.88 300.02 140.56 298.34 143.92 295.7 144.4 294.98 144.88 294.5 146.32 293.54 148 292.1 149.44 291.14 150.4 290.66 150.88 290.42 151.37 290.18 152.09 288.98 152.32 288.5 152.09 288.02 151.6 287.54 151.37 287.3 150.65 286.34 149.92 285.62 148.72 283.46 148.24 282.5 148 282.02 148.24 281.78 148.72 281.06 149.44 280.1 149.68 279.86 149.92 279.38 150.16 278.18 150.16 276.98 149.92 274.58 149.68 270.74 149.68 270.5 149.44 269.78 149.44 267.86 149.2 266.42 149.2 265.7 148.96 264.74 148.96 263.06 149.2 262.1 149.44 260.9 149.44 260.18 149.2 258.98 148.96 258.5 148.72 258.26 147.28 255.38 147.04 254.66 147.04 254.18 147.28 253.7 147.28 252.98 147.28 252.5 147.52 251.78 148.72 249.14 148.96 248.9 149.68 248.9 150.16 249.14 150.65 249.62 150.88 250.34 151.37 250.82 151.6 250.82 152.32 250.82 152.56 251.06 153.76 251.78 154.25 252.02 154.72 252.5 156.16 253.7 157.37 254.66 158.09 255.38 160 256.34 162.65 257.06 163.84 257.54 164.56 258.02 165.04 258.26 166 258.5 167.44 259.46 168.16 259.94 168.41 260.18 169.37 261.86 169.84 262.58 170.32 263.06 171.04 263.54 171.53 264.02 172.25 264.5 172.72 264.74 173.21 265.22 173.93 265.46 176.09 266.66 176.81 267.14 177.53 267.86 178.25 268.58 180.65 270.02 182.81 271.46 185.45 272.42" style="fill:none;stroke:#005ce6;stroke-linecap:round;stroke-linejoin:round;stroke-width:1.440060019493103px"/><polyline points="250.25 122.17 251.45 122.41 253.13 122.17 255.77 121.21 256.73 120.73 258.65 119.05 260.33 118.57 260.57 118.57 262.01 118.81 263.69 120.73 264.41 121.45 266.09 123.37 268.01 124.09 269.45 124.33 271.37 125.29 272.09 126.01 273.05 127.93 273.77 129.13 276.17 129.85 276.89 130.57 277.61 130.57 277.85 130.57 280.25 130.33 281.69 130.57 282.65 131.29 284.81 131.77 287.21 131.05 289.85 132.01 290.33 132.01 292.97 131.29 295.13 129.61 297.05 128.65 299.45 128.17 301.37 128.41 302.81 128.89 304.49 128.41 306.17 128.65 309.05 129.85 311.45 130.33 314.09 131.29 316.25 131.05 317.69 131.29 321.29 132.49 322.01 132.49 323.69 131.53 327.77 132.25 332.33 132.25 333.77 132.01 336.17 132.01 339.05 132.49 344.81 132.97 346.73 132.73 350.09 132.73 352.01 132.49 354.65 132.01 357.77 132.49 358.25 132.49 361.85 132.49 364.97 134.65 369.05 134.65 375.29 135.85 376.01 135.85 376.5 136.09 379.62 137.05 381.54 138.01 383.94 137.53 385.38 137.77 386.57 138.49 387.3 139.21 388.98 140.89 390.18 142.81 390.89 143.53 392.81 144.97 393.77 146.41 394.5 146.65 396.65 146.65 398.58 147.37 399.06 147.37 400.74 146.89 401.94 146.89 403.86 148.57 405.78 149.29 407.22 149.29 409.14 149.05 411.3 149.05 412.26 149.29 413.94 150.25 418.74 151.69 423.06 155.05 424.98 154.81 429.78 156.73 432.42 157.45 433.14 157.21 437.22 154.57 438.66 154.33 442.26 153.61 442.98 153.61 443.22 153.37 443.7 153.37 444.9 153.37 446.58 153.85 449.94 153.85 452.58 153.37 453.78 153.61 458.1 152.65 459.3 152.65 459.54 152.65 461.22 153.61 466.02 152.65 467.7 151.93 468.9 151.93 470.1 151.69 470.34 151.45 471.54 150.97 472.74 150.73 473.46 150.73 474.66 151.21 476.34 150.97 476.82 150.97 477.78 155.29 478.98 157.21 481.86 160.81 484.74 163.93 486.9 166.57 489.06 168.01 492.18 169.93 502.98 173.77 507.06 175.45 509.7 177.37 515.7 180.5 519.78 186.01 520.26 186.25 520.5 186.97 520.74 186.97 520.98 187.46 521.94 188.9 522.66 189.62 523.14 190.09 524.1 190.58 524.58 191.06 525.3 191.3 526.26 191.54 527.46 191.78 528.42 192.02 529.14 192.5 529.86 192.74 530.34 193.22 530.58 193.46 531.06 193.7 531.3 194.42 532.5 195.86 532.98 196.34 533.22 196.34 533.46 196.82 534.42 197.3 535.14 197.54 536.34 197.78 537.06 198.02 538.5 197.78 540.9 198.02 542.1 198.26 542.1 198.5 544.02 198.98 545.22 199.7 546.18 199.94 546.9 200.42 547.62 201.14 547.86 201.38 548.1 201.86 549.06 203.54 549.54 204.5 550.02 205.46 550.02 205.7 550.5 205.94 550.74 206.66 551.46 207.86 552.42 209.3 553.14 210.5 553.38 210.74 553.62 210.74 554.1 210.98 554.58 210.98 555.54 210.74 556.5 210.98 557.94 211.22 558.18 211.22 558.66 211.22 559.62 211.46 560.58 211.7 561.78 211.94 562.5 212.18 562.98 212.42 563.46 212.9 563.46 213.38 564.18 215.06 564.66 216.02 565.38 216.74 566.1 217.94 568.02 219.86 568.5 220.34 569.22 221.3 569.7 222.02 569.94 222.02 570.66 222.5 570.9 222.98 571.14 223.22 571.38 223.46 571.62 223.7 572.1 223.94 572.82 224.42 573.3 224.9 574.02 225.14 574.5 225.38 574.98 225.62 576.66 226.58 577.62 227.06 578.1 227.3 578.58 227.3 579.3 227.3 580.26 228.02 581.7 228.74 582.18 229.22 582.9 229.7 583.86 230.42 584.58 231.14 585.06 231.62 585.06 232.1 586.02 233.54 586.74 234.02 587.46 235.22 588.42 236.42 590.1 238.34 590.82 239.54 591.3 240.5 591.54 241.22 591.54 242.18 591.54 242.9 591.3 243.38 590.82 244.34 590.58 245.06 590.82 246.26 590.58 247.7 590.82 249.38 591.06 250.82 591.3 251.54 591.54 252.26 592.02 253.94 592.26 254.9 592.5 255.86 592.5 256.58 592.26 257.3 592.02 257.78 589.62 261.38 589.14 261.86 588.9 262.34 588.42 262.82 587.94 263.54 587.46 264.5 586.98 264.74 586.5 265.46 586.02 265.94 585.78 266.18 585.06 267.14 584.58 268.34 583.86 270.02 583.62 270.74 583.38 271.46 582.9 272.18 582.66 272.42 582.42 273.38 581.94 274.1 581.22 274.58 580.74 274.82 579.3 275.3 577.14 275.54 574.98 275.54 574.5 275.54 574.02 276.02 573.78 276.26 573.3 276.5 573.06 277.22 573.06 278.18 573.06 278.66 572.82 279.14 572.58 279.38 571.62 280.1 569.94 280.82 569.46 280.82 568.5 281.06 567.06 281.54 566.1 281.78 565.38 282.02 564.66 282.26 564.42 282.26 563.22 282.74 562.5 282.98 560.58 283.46 559.86 283.46 559.38 283.7 558.42 284.18 556.98 284.42 556.26 284.66 555.3 284.9 554.1 285.62 552.66 286.34 551.7 287.06 548.58 288.74 547.86 289.46 546.42 290.18 545.46 290.66 544.74 291.14 544.26 291.38 544.02 291.62 543.78 291.86 542.82 292.82 541.86 294.02 541.14 294.98 540.9 295.22 540.66 295.94 540.18 297.14 539.94 297.62 539.7 298.82 539.7 299.78 539.46 300.26 539.22 300.98 538.74 301.7 538.02 302.43 536.58 304.11 536.34 304.35 536.1 304.58 534.66 306.99 534.42 307.46 534.18 307.7 534.18 308.19 534.18 308.67 534.42 309.38 534.42 309.63 534.18 310.35 533.94 311.06 533.46 312.5 532.98 313.23 532.5 314.19 532.5 315.15 532.26 316.35 532.26 317.31 532.02 318.03 532.02 318.75 531.54 319.95 531.54 320.67 531.54 321.15 531.3 321.87 531.06 323.07 530.82 323.55 530.82 324.51 531.06 326.19 531.3 327.87 531.54 328.83 531.78 330.27 531.54 331.23 531.54 331.95 531.3 332.67 531.3 333.39 531.3 333.63 531.3 334.11 531.3 334.83 531.78 336.27 531.54 337.47 531.54 338.19 531.54 338.91 531.78 339.63 532.02 340.35 532.26 341.31 532.5 341.79 532.5 342.51 532.26 345.87 532.26 346.35 532.26 347.07 532.02 347.79 531.78 349.23 531.54 349.71 531.06 350.43 530.82 350.91 530.34 351.15 530.1 351.63 529.38 352.11 528.66 352.59 527.7 353.79 527.46 354.03 526.74 355.23 526.26 355.95 526.26 356.67 525.78 357.39 525.3 359.07 524.82 359.79 524.58 360.27 524.1 360.75 523.38 361.23 522.42 361.71 520.74 361.71 518.82 362.19 518.58 362.19 518.34 362.43 518.34 362.67 517.62 363.39 516.9 364.35 516.42 364.83 515.94 365.79 515.46 366.27 514.98 367.23 514.74 367.23 514.26 367.71 514.02 367.71 513.3 367.71 512.82 367.71 511.38 367.47 510.66 367.23 508.5 366.99 507.78 366.99 507.06 367.23 506.82 367.71 506.34 368.67 506.1 368.91 505.62 369.39 505.38 369.87 504.9 370.83 504.66 371.07 504.18 372.27 503.7 373.23 503.46 373.47 502.74 374.19 502.02 374.19 501.54 374.19 501.06 374.19 500.34 374.19 499.62 373.95 499.14 373.47 498.66 373.47 498.18 373.23 497.7 372.99 497.22 372.75 496.5 372.75 495.54 372.75 494.82 372.99 493.62 373.71 493.14 374.19 492.66 374.67 491.46 375.87 491.22 376.11 490.5 376.59 489.54 376.83 488.58 377.07 487.38 377.07 486.9 377.07 485.94 376.83 485.22 376.83 484.74 376.83 484.26 376.59 482.82 376.11 482.34 375.87 481.62 375.39 479.7 375.39 478.98 375.39 477.06 376.35 476.1 376.83 475.86 377.07 475.14 378.03 474.66 378.99 474.18 379.71 473.94 380.43 473.7 380.91 473.46 381.39 471.78 383.07 471.3 383.07 470.58 383.79 467.94 384.99 466.02 385.47 464.58 385.47 463.86 385.47 463.38 385.47 462.42 385.95 461.94 386.43 461.46 386.67 460.98 386.91 460.02 387.87 459.78 388.35 459.54 388.83 459.3 389.55 459.54 391.47 459.3 391.95 459.3 392.19 458.82 392.91 458.34 393.39 457.86 393.63 456.66 393.63 455.22 393.39 454.5 393.39 452.82 393.63 451.86 393.87 451.38 394.11 449.46 395.31 448.74 395.79 448.02 396.27 447.3 396.51 446.34 396.99 445.14 396.99 444.42 397.23 443.7 397.23 443.46 396.99 442.98 396.99 441.3 397.47 440.58 397.71 439.62 397.47 438.9 397.71 438.66 397.71 438.42 397.71 437.7 397.47 437.46 397.23 436.98 397.23 436.5 396.75 436.26 396.51 435.54 396.27 434.58 395.79 434.1 395.55 433.14 395.31 432.9 395.07 431.94 395.07 430.74 394.83 429.78 394.59 429.3 394.83 429.3 395.07 429.54 396.03 429.54 396.75 430.02 397.47 430.26 398.67 430.26 399.39 430.5 399.87 430.5 400.11 430.74 401.07 430.74 401.55 430.74 402.51 430.5 402.99 430.5 403.23 430.26 403.71 430.02 404.19 429.78 404.43 429.3 405.39 429.06 405.63 428.1 406.59 427.62 407.07 427.14 407.79 426.9 407.79 426.42 407.79 422.58 408.03 421.62 408.03 420.66 408.51 419.7 408.99 418.74 409.95 418.26 410.19 418.02 410.43 417.54 410.91 417.3 411.15 416.58 412.11 416.34 413.31 415.86 414.51 415.62 415.23 415.62 415.47 415.14 416.43 414.9 416.91 414.66 418.11 414.42 418.59 414.18 419.07 413.94 419.07 413.22 419.79 412.74 419.79 412.02 420.03 411.06 419.79 409.38 418.83 408.9 418.83 408.42 418.83 406.74 419.79 405.06 420.51 403.86 421.23 403.14 421.71 402.66 422.19 400.74 424.35 400.5 424.59 400.26 424.83 400.02 425.56 399.3 427 397.62 428.44 397.13 428.92 396.65 429.15 395.45 429.63 395.21 429.88 394.74 430.12 394.5 430.12 393.77 430.36 393.06 430.36 392.57 430.6 391.13 430.83 390.65 431.07 389.69 431.07 388.25 431.31 387.06 431.56 386.57 431.56 385.86 431.56 385.13 431.56 384.42 431.07 383.69 431.07 383.21 430.83 382.5 430.83 382.01 430.83 381.06 430.83 380.33 431.07 379.86 431.56 379.38 431.56 377.69 432.75 377.45 433.24 377.21 433.95 376.98 435.15 376.01 435.15 375.54 434.92 374.81 434.92 374.33 434.68 373.85 434.44 373.61 433.95 372.89 433.71 372.17 432.75 371.45 432.51 370.97 432.27 369.53 432.27 368.81 432.27 367.13 432.27 366.65 432.04 366.17 431.56 365.69 431.07 364.97 430.6 364.25 430.6 363.77 430.36 363.05 430.12 362.81 429.88 362.33 429.63 361.85 428.68 361.61 428.19 361.13 427.71 360.41 427.95 359.69 428.44 358.97 428.68 357.53 428.44 357.05 428.44 356.57 427.95 356.33 427.48 356.33 426.51 356.33 425.56 356.33 425.07 356.09 424.83 356.09 424.59 355.61 424.11 355.13 424.11 354.65 424.11 354.17 424.35 353.69 424.59 352.97 425.07 352.73 425.07 352.73 424.83 352.25 424.11 352.25 423.87 352.25 423.39 352.01 423.15 350.33 422.91 348.89 422.67 348.17 422.67 347.93 422.43 347.45 422.19 346.97 421.71 346.73 420.99 346.25 420.51 345.77 420.03 345.53 420.03 345.29 420.03 345.05 420.51 344.33 422.67 343.85 422.91 343.61 423.39 343.37 423.39 343.13 423.15 342.65 422.43 342.41 421.95 342.41 421.71 341.69 420.99 341.21 420.75 340.25 420.51 340.01 420.51 339.29 420.27 338.81 420.27 337.61 420.03 337.13 420.03 336.41 420.27 336.17 420.51 335.69 420.99 335.21 421.23 334.73 421.23 334.25 421.47 332.33 422.19 332.09 422.43 331.13 422.19 330.41 421.95 329.69 421.71 328.97 421.47 328.49 421.23 328.25 420.99 328.25 420.51 327.77 419.79 327.77 419.31 327.77 418.83 327.77 417.87 327.53 417.39 327.53 417.15 327.29 417.15 327.05 416.91 326.33 417.39 325.61 417.87 325.37 418.11 324.89 418.11 324.65 418.11 324.41 417.87 323.45 416.43 322.97 415.95 322.49 415.95 322.01 415.71 321.53 415.47 320.57 415.71 319.37 415.47 317.93 415.47 315.77 415.23 315.53 415.23 314.81 414.99 314.33 414.75 313.85 413.79 313.61 413.55 313.37 412.83 313.13 412.59 312.65 412.11 312.17 411.87 311.45 411.63 310.73 411.63 309.77 411.39 309.53 411.15 309.29 411.15 309.05 410.91 308.57 410.43 308.09 409.47 307.85 408.75 307.61 408.51 307.37 408.03 306.89 407.31 306.65 407.07 306.17 406.83 305.69 406.83 305.21 406.59 304.73 406.35 304.49 406.35 303.05 405.87 301.61 405.63 301.13 405.39 300.65 405.15 300.41 404.67 300.17 404.43 299.93 403.23 299.93 402.99 299.69 402.75 299.45 402.51 298.49 402.03 297.53 401.79 296.81 401.55 296.57 401.31 295.85 400.11 295.61 399.87 294.65 399.39 292.49 398.67 292.01 398.19 291.53 397.71 291.05 396.99 290.81 396.75 289.61 396.27 289.61 396.03 289.13 396.03 288.65 396.03 287.45 395.55 287.21 395.31 286.97 395.07 286.73 394.35 286.49 393.39 286.49 392.67 285.77 390.03 285.77 389.55 285.53 388.59 285.53 388.35 285.05 387.87 284.81 387.87 283.61 386.91 283.13 386.43 282.89 385.95 282.65 385.71 282.65 385.23 282.17 384.51 281.69 384.03 281.45 383.79 280.25 382.35 280.01 381.87 278.81 379.95 278.33 378.99 278.09 378.27 278.09 377.79 278.09 377.07 278.09 376.83 277.85 376.59 277.61 376.35 276.89 376.11 276.41 375.87 276.17 375.63 275.69 374.43 275.21 373.71 274.73 373.23 274.49 372.51 274.25 372.27 274.25 372.03 274.25 371.55 274.25 370.83 274.49 370.11 274.97 369.63 274.97 368.91 274.73 368.43 274.73 368.19 274.49 367.71 274.49 367.23 274.97 366.51 275.21 366.51 275.45 366.03 275.69 365.55 275.45 365.07 274.97 364.11 274.25 363.15 273.77 362.43 273.29 361.95 272.33 361.71 272.09 361.47 271.85 361.23 271.85 360.99 272.09 360.27 272.09 359.31 272.09 358.35 272.33 358.11 272.09 357.63 272.09 357.39 271.85 356.91 271.37 355.71 270.65 354.99 269.93 354.51 269.69 354.51 269.45 354.03 269.45 353.79 269.93 352.83 270.65 352.35 270.65 352.11 270.65 351.87 270.41 350.91 269.93 350.67 269.45 350.43 268.97 350.19 268.73 350.19 268.01 349.95 267.77 349.95 265.37 349.47 264.89 349.23 264.17 348.99 263.69 348.51 263.45 348.03 263.21 347.55 263.21 346.83 262.97 346.83 262.97 346.11 263.45 344.43 263.45 343.95 263.21 343.71 263.21 343.47 262.49 343.23 261.77 343.23 261.29 342.51 261.05 342.03 261.29 341.55 261.77 341.07 261.77 340.59 261.53 339.87 261.29 339.39 260.57 337.71 260.33 337.23 260.09 336.75 260.09 336.51 259.61 336.27 259.37 336.27 258.17 336.27 257.93 336.27 257.45 335.79 257.45 335.31 257.69 335.07 258.17 334.59 258.65 334.59 259.37 334.35 260.09 334.11 261.53 333.63 262.01 333.39 262.49 332.67 262.49 332.43 262.49 332.19 262.49 331.95 262.25 331.71 262.01 331.71 261.53 331.23 261.05 330.75 260.81 330.51 260.57 330.03 260.57 329.79 260.57 329.31 261.05 328.83 261.29 328.11 261.29 327.87 261.29 327.39 261.05 327.39 260.33 327.15 259.61 327.15 258.89 327.63 258.41 327.63 258.17 327.39 257.93 327.15 257.45 326.43 255.77 324.51 255.53 324.27 255.29 323.55 254.81 323.07 254.81 322.83 254.57 322.59 254.57 322.11 254.57 321.87 254.57 321.39 254.57 321.15 254.81 320.67 254.81 320.43 255.29 319.71 255.53 319.47 255.77 319.23 256.01 319.23 256.49 318.51 256.73 317.79 256.49 317.55 256.01 317.07 255.29 316.83 254.57 316.35 254.57 316.11 254.33 315.39 254.33 314.91 254.33 313.94 254.09 313.23 253.85 312.75 252.65 312.02 252.65 311.79 252.65 311.06 252.65 310.82 253.13 309.87 253.13 308.9 253.13 308.67 252.89 308.19 251.93 306.99 251.69 306.5 251.93 306.02 251.69 305.06 251.69 304.11 251.93 303.14 251.93 302.19 251.93 301.7 251.93 300.74 251.69 300.26 251.69 300.02 251.21 299.78 250.01 299.54 249.05 299.06 248.33 298.82 247.13 298.58 246.17 298.34 244.73 298.34 243.53 298.34 242.81 297.86 242.09 297.62 241.61 297.38 240.65 296.9 240.41 296.66 239.93 295.94 239.21 295.46 238.01 294.74 237.53 294.5 236.09 293.06 235.37 292.82 234.89 292.34 234.17 292.1 233.45 292.1 232.73 291.86 232.49 291.62 231.77 290.9 231.53 290.66 231.05 290.18 230.33 289.7 229.85 289.46 229.37 289.46 228.89 289.46 228.17 289.46 227.21 289.7 226.49 289.94 226.25 289.94 226.01 289.7 225.05 288.74 224.33 288.26 224.09 287.78 223.37 287.3 223.37 287.06" style="fill:none;stroke:#005ce6;stroke-linecap:round;stroke-linejoin:round;stroke-width:1.440060019493103px"/><polyline points="223.37 287.06 223.37 286.58 223.37 285.14 223.37 283.94 223.37 283.7 223.61 282.98 223.61 282.26 222.41 281.06 221.21 280.1 220.97 279.62 220.49 278.42 220.01 277.46 219.53 276.74 218.81 276.02 218.57 276.02 217.37 275.3 217.13 275.06 216.89 275.06 216.17 274.58 215.45 274.34 215.21 274.34 214.49 274.1 213.53 273.86 212.33 273.62 210.65 273.38 208.73 272.9 206.57 272.66 205.61 272.66 205.37 272.66 205.13 272.66 203.93 272.66 202.73 272.66 201.53 272.18 200.57 272.18 199.37 272.18 197.69 272.42 195.77 272.66 194.81 272.66 194.09 272.66 193.61 272.66 192.89 272.42 191.93 272.42 190.49 272.42 189.05 272.66 186.89 272.66 185.45 272.42 182.81 271.46 180.65 270.02 178.25 268.58 177.53 267.86 176.81 267.14 176.09 266.66 173.93 265.46 173.21 265.22 172.72 264.74 172.25 264.5 171.53 264.02 171.04 263.54 170.32 263.06 169.84 262.58 169.37 261.86 168.41 260.18 168.16 259.94 167.44 259.46 166 258.5 165.04 258.26 164.56 258.02 163.84 257.54 162.65 257.06 160 256.34 158.09 255.38 157.37 254.66 156.16 253.7 154.72 252.5 154.25 252.02 153.76 251.78 152.56 251.06 152.32 250.82 151.6 250.82 151.37 250.82 150.88 250.34 150.65 249.62 150.16 249.14 149.68 248.9 148.96 248.9 149.44 248.42 149.92 247.94 150.16 247.46 150.65 246.74 151.6 245.3 152.09 244.34 152.56 243.62 153.28 242.42 153.76 240.98 154.25 240.02 154.25 239.54 154.25 238.34 154.49 236.42 154.97 235.7 155.21 234.74 155.69 233.54 155.93 232.34 156.88 230.42 157.13 229.22 157.37 228.5 157.84 227.54 158.09 227.3 158.81 226.82 159.28 226.1 160.97 223.7 161.21 222.98 161.44 222.5 161.93 221.3 162.41 219.62 162.88 217.94 163.13 216.74 163.13 216.26 163.13 213.86 163.37 212.9 163.37 212.18 163.37 210.74 163.37 208.82 163.37 208.34 164.09 207.14 164.09 206.18 164.32 204.02 164.32 201.38 164.32 199.46 164.56 198.5 164.81 196.82 164.81 196.58 166.97 191.78 168.88 189.62 175.37 181.94 177.77 178.57 178.25 175.93 178.73 171.61 179.21 169.69 183.05 163.21 184.01 162.01 186.41 158.89 188.81 155.05 190.25 153.61 191.45 152.17 193.85 150.97 196.01 149.05 198.17 146.41 199.61 144.25 200.81 141.37 202.49 139.21 205.85 135.85 206.57 134.65 207.29 132.49 207.77 130.33 208.49 129.13 209.45 127.93 210.65 125.05 216.41 118.09 218.09 116.65 220.25 113.53 220.49 113.29 224.57 112.81 227.21 112.81 233.69 115.69 235.13 116.17 237.29 117.85 238.97 119.29 240.17 120.01 240.41 120.01 241.85 120.49 245.45 120.73 248.81 121.45 250.25 122.17" style="fill:none;stroke:#005ce6;stroke-linecap:round;stroke-linejoin:round;stroke-width:1.440060019493103px"/></g></g><g style="clip-path:url(#clip-path)"><g style="clip-path:url(#clip-path-3)"><polyline points="250.25 122.17 251.45 122.41 253.13 122.17 255.77 121.21 256.73 120.73 258.65 119.05 260.33 118.57 260.57 118.57 262.01 118.81 263.69 120.73 264.41 121.45 266.09 123.37 268.01 124.09 269.45 124.33 271.37 125.29 272.09 126.01 273.05 127.93 273.77 129.13 276.17 129.85 276.89 130.57 277.61 130.57 277.85 130.57 280.25 130.33 281.69 130.57 282.65 131.29 284.81 131.77 287.21 131.05 289.85 132.01 290.33 132.01 292.97 131.29 295.13 129.61 297.05 128.65 299.45 128.17 301.37 128.41 302.81 128.89 304.49 128.41 306.17 128.65 309.05 129.85 311.45 130.33 314.09 131.29 316.25 131.05 317.69 131.29 321.29 132.49 322.01 132.49 323.69 131.53 327.77 132.25 332.33 132.25 333.77 132.01 336.17 132.01 339.05 132.49 344.81 132.97 346.73 132.73 350.09 132.73 352.01 132.49 354.65 132.01 357.77 132.49 358.25 132.49 361.85 132.49 364.97 134.65 369.05 134.65 375.29 135.85 376.01 135.85 376.5 136.09 379.62 137.05 381.54 138.01 383.94 137.53 385.38 137.77 386.57 138.49 387.3 139.21 388.98 140.89 390.18 142.81 390.89 143.53 392.81 144.97 393.77 146.41 394.5 146.65 396.65 146.65 398.58 147.37 399.06 147.37 400.74 146.89 401.94 146.89 403.86 148.57 405.78 149.29 407.22 149.29 409.14 149.05 411.3 149.05 412.26 149.29 413.94 150.25 418.74 151.69 423.06 155.05 424.98 154.81 429.78 156.73 432.42 157.45 433.14 157.21 437.22 154.57 438.66 154.33 442.26 153.61 442.98 153.61 443.22 153.37 443.7 153.37 444.9 153.37 446.58 153.85 449.94 153.85 452.58 153.37 453.78 153.61 458.1 152.65 459.3 152.65 459.54 152.65 461.22 153.61 466.02 152.65 467.7 151.93 468.9 151.93 470.1 151.69 470.34 151.45 471.54 150.97 472.74 150.73 473.46 150.73 474.66 151.21 476.34 150.97 476.82 150.97 477.78 155.29 478.98 157.21 481.86 160.81 484.74 163.93 486.9 166.57 489.06 168.01 492.18 169.93 502.98 173.77 507.06 175.45 509.7 177.37 515.7 180.5 519.78 186.01 520.26 186.25 520.5 186.97 520.74 186.97 520.98 187.46 521.94 188.9 522.66 189.62 523.14 190.09 524.1 190.58 524.58 191.06 525.3 191.3 526.26 191.54 527.46 191.78 528.42 192.02 529.14 192.5 529.86 192.74 530.34 193.22 530.58 193.46 531.06 193.7 531.3 194.42 532.5 195.86 532.98 196.34 533.22 196.34 533.46 196.82 534.42 197.3 535.14 197.54 536.34 197.78 537.06 198.02 538.5 197.78 540.9 198.02 542.1 198.26 542.1 198.5 544.02 198.98 545.22 199.7 546.18 199.94 546.9 200.42 547.62 201.14 547.86 201.38 548.1 201.86 549.06 203.54 549.54 204.5 550.02 205.46 550.02 205.7 550.5 205.94 550.74 206.66 551.46 207.86 552.42 209.3 553.14 210.5 553.38 210.74 553.62 210.74 554.1 210.98 554.58 210.98 555.54 210.74 556.5 210.98 557.94 211.22 558.18 211.22 558.66 211.22 559.62 211.46 560.58 211.7 561.78 211.94 562.5 212.18 562.98 212.42 563.46 212.9 563.46 213.38 564.18 215.06 564.66 216.02 565.38 216.74 566.1 217.94 568.02 219.86 568.5 220.34 569.22 221.3 569.7 222.02 569.94 222.02 570.66 222.5 570.9 222.98 571.14 223.22 571.38 223.46 571.62 223.7 572.1 223.94 572.82 224.42 573.3 224.9 574.02 225.14 574.5 225.38 574.98 225.62 576.66 226.58 577.62 227.06 578.1 227.3 578.58 227.3 579.3 227.3 580.26 228.02 581.7 228.74 582.18 229.22 582.9 229.7 583.86 230.42 584.58 231.14 585.06 231.62 585.06 232.1 586.02 233.54 586.74 234.02 587.46 235.22 588.42 236.42 590.1 238.34 590.82 239.54 591.3 240.5 591.54 241.22 591.54 242.18 591.54 242.9 591.3 243.38 590.82 244.34 590.58 245.06 590.82 246.26 590.58 247.7 590.82 249.38 591.06 250.82 591.3 251.54 591.54 252.26 592.02 253.94 592.26 254.9 592.5 255.86 592.5 256.58 592.26 257.3 592.02 257.78 589.62 261.38 589.14 261.86 588.9 262.34 588.42 262.82 587.94 263.54 587.46 264.5 586.98 264.74 586.5 265.46 586.02 265.94 585.78 266.18 585.06 267.14 584.58 268.34 583.86 270.02 583.62 270.74 583.38 271.46 582.9 272.18 582.66 272.42 582.42 273.38 581.94 274.1 581.22 274.58 580.74 274.82 579.3 275.3 577.14 275.54 574.98 275.54 574.5 275.54 574.02 276.02 573.78 276.26 573.3 276.5 573.06 277.22 573.06 278.18 573.06 278.66 572.82 279.14 572.58 279.38 571.62 280.1 569.94 280.82 569.46 280.82 568.5 281.06 567.06 281.54 566.1 281.78 565.38 282.02 564.66 282.26 564.42 282.26 563.22 282.74 562.5 282.98 560.58 283.46 559.86 283.46 559.38 283.7 558.42 284.18 556.98 284.42 556.26 284.66 555.3 284.9 554.1 285.62 552.66 286.34 551.7 287.06 548.58 288.74 547.86 289.46 546.42 290.18 545.46 290.66 544.74 291.14 544.26 291.38 544.02 291.62 543.78 291.86 542.82 292.82 541.86 294.02 541.14 294.98 540.9 295.22 540.66 295.94 540.18 297.14 539.94 297.62 539.7 298.82 539.7 299.78 539.46 300.26 539.22 300.98 538.74 301.7 538.02 302.43 536.58 304.11 536.34 304.35 536.1 304.58 534.66 306.99 534.42 307.46 534.18 307.7 534.18 308.19 534.18 308.67 534.42 309.38 534.42 309.63 534.18 310.35 533.94 311.06 533.46 312.5 532.98 313.23 532.5 314.19 532.5 315.15 532.26 316.35 532.26 317.31 532.02 318.03 532.02 318.75 531.54 319.95 531.54 320.67 531.54 321.15 531.3 321.87 531.06 323.07 530.82 323.55 530.82 324.51 531.06 326.19 531.3 327.87 531.54 328.83 531.78 330.27 531.54 331.23 531.54 331.95 531.3 332.67 531.3 333.39 531.3 333.63 531.3 334.11 531.3 334.83 531.78 336.27 531.54 337.47 531.54 338.19 531.54 338.91 531.78 339.63 532.02 340.35 532.26 341.31 532.5 341.79 532.5 342.51 532.26 345.87 532.26 346.35 532.26 347.07 532.02 347.79 531.78 349.23 531.54 349.71 531.06 350.43 530.82 350.91 530.34 351.15 530.1 351.63 529.38 352.11 528.66 352.59 527.7 353.79 527.46 354.03 526.74 355.23 526.26 355.95 526.26 356.67 525.78 357.39 525.3 359.07 524.82 359.79 524.58 360.27 524.1 360.75 523.38 361.23 522.42 361.71 520.74 361.71 518.82 362.19 518.58 362.19 518.34 362.43 518.34 362.67 517.62 363.39 516.9 364.35 516.42 364.83 515.94 365.79 515.46 366.27 514.98 367.23 514.74 367.23 514.26 367.71 514.02 367.71 513.3 367.71 512.82 367.71 511.38 367.47 510.66 367.23 508.5 366.99 507.78 366.99 507.06 367.23 506.82 367.71 506.34 368.67 506.1 368.91 505.62 369.39 505.38 369.87 504.9 370.83 504.66 371.07 504.18 372.27 503.7 373.23 503.46 373.47 502.74 374.19 502.02 374.19 501.54 374.19 501.06 374.19 500.34 374.19 499.62 373.95 499.14 373.47 498.66 373.47 498.18 373.23 497.7 372.99 497.22 372.75 496.5 372.75 495.54 372.75 494.82 372.99 493.62 373.71 493.14 374.19 492.66 374.67 491.46 375.87 491.22 376.11 490.5 376.59 489.54 376.83 488.58 377.07 487.38 377.07 486.9 377.07 485.94 376.83 485.22 376.83 484.74 376.83 484.26 376.59 482.82 376.11 482.34 375.87 481.62 375.39 479.7 375.39 478.98 375.39 477.06 376.35 476.1 376.83 475.86 377.07 475.14 378.03 474.66 378.99 474.18 379.71 473.94 380.43 473.7 380.91 473.46 381.39 471.78 383.07 471.3 383.07 470.58 383.79 467.94 384.99 466.02 385.47 464.58 385.47 463.86 385.47 463.38 385.47 462.42 385.95 461.94 386.43 461.46 386.67 460.98 386.91 460.02 387.87 459.78 388.35 459.54 388.83 459.3 389.55 459.54 391.47 459.3 391.95 459.3 392.19 458.82 392.91 458.34 393.39 457.86 393.63 456.66 393.63 455.22 393.39 454.5 393.39 452.82 393.63 451.86 393.87 451.38 394.11 449.46 395.31 448.74 395.79 448.02 396.27 447.3 396.51 446.34 396.99 445.14 396.99 444.42 397.23 443.7 397.23 443.46 396.99 442.98 396.99 441.3 397.47 440.58 397.71 439.62 397.47 438.9 397.71 438.66 397.71 438.42 397.71 437.7 397.47 437.46 397.23 436.98 397.23 436.5 396.75 436.26 396.51 435.54 396.27 434.58 395.79 434.1 395.55 433.14 395.31 432.9 395.07 431.94 395.07 430.74 394.83 429.78 394.59 429.3 394.83 429.3 395.07 429.54 396.03 429.54 396.75 430.02 397.47 430.26 398.67 430.26 399.39 430.5 399.87 430.5 400.11 430.74 401.07 430.74 401.55 430.74 402.51 430.5 402.99 430.5 403.23 430.26 403.71 430.02 404.19 429.78 404.43 429.3 405.39 429.06 405.63 428.1 406.59 427.62 407.07 427.14 407.79 426.9 407.79 426.42 407.79 422.58 408.03 421.62 408.03 420.66 408.51 419.7 408.99 418.74 409.95 418.26 410.19 418.02 410.43 417.54 410.91 417.3 411.15 416.58 412.11 416.34 413.31 415.86 414.51 415.62 415.23 415.62 415.47 415.14 416.43 414.9 416.91 414.66 418.11 414.42 418.59 414.18 419.07 413.94 419.07 413.22 419.79 412.74 419.79 412.02 420.03 411.06 419.79 409.38 418.83 408.9 418.83 408.42 418.83 406.74 419.79 405.06 420.51 403.86 421.23 403.14 421.71 402.66 422.19 400.74 424.35 400.5 424.59 400.26 424.83 400.02 425.56 399.3 427 397.62 428.44 397.13 428.92 396.65 429.15 395.45 429.63 395.21 429.88 394.74 430.12 394.5 430.12 393.77 430.36 393.06 430.36 392.57 430.6 391.13 430.83 390.65 431.07 389.69 431.07 388.25 431.31 387.06 431.56 386.57 431.56 385.86 431.56 385.13 431.56 384.42 431.07 383.69 431.07 383.21 430.83 382.5 430.83 382.01 430.83 381.06 430.83 380.33 431.07 379.86 431.56 379.38 431.56 377.69 432.75 377.45 433.24 377.21 433.95 376.98 435.15 376.98 435.63 376.74 436.83 376.74 437.08 376.5 437.56 375.77 438.28 374.33 439.48 374.09 439.48 372.89 440.44 372.41 440.68 371.69 440.68 371.21 440.44 370.97 440.2 370.49 439.24 370.01 439 369.29 439 368.09 439.24 366.41 439.72 365.69 439.96 364.01 440.92 363.77 440.92 363.05 441.4 362.33 441.88 359.21 444.04 358.49 444.52 357.05 445 356.09 445.72 354.65 446.68 353.45 448.12 352.25 449.08 351.77 449.32 350.33 450.28 349.13 451 348.17 451.72 347.45 452.2 345.77 453.64 344.57 454.36 343.85 454.84 343.37 455.32 343.37 455.56 342.89 456.52 341.93 458.92 341.69 459.64 341.45 460.12 341.45 460.6 340.97 461.8 340.73 462.52 340.25 463.48 340.01 464.68 339.77 465.16 339.29 465.64 338.81 466.12 338.09 467.32 337.85 467.8 336.41 469.72 336.17 470.2 335.93 470.68 335.69 471.4 335.45 471.64 334.97 472.36 334.73 472.84 334.01 473.8 331.85 475.96 331.37 476.44 330.89 476.68 330.41 477.16 330.17 477.4 327.53 479.56 326.81 480.28 326.33 480.52 325.85 481 325.85 481.24 325.37 481.72 324.89 483.16 324.65 484.36 324.41 484.6 324.41 486.52 323.93 487.24 323.93 487.96 323.93 488.92 323.69 489.64 323.45 490.36 323.21 490.6 323.21 491.08 322.49 492.28 322.25 493.24 321.29 494.2 321.29 494.44 320.81 494.68 319.85 494.92 318.65 495.4 317.69 496.12 317.45 496.36 317.21 496.84 316.73 497.8 316.49 498.28 316.25 498.76 316.01 499.48 315.77 500.68 315.53 501.64 315.77 503.32 316.01 504.04 316.01 505 316.25 505.96 316.25 506.92 316.01 507.64 316.01 507.88 315.77 508.36 314.57 509.56 312.41 511.24 311.69 511.48 310.01 512.44 309.29 512.92 309.05 513.4 308.81 513.64 308.09 514.84 307.85 515.32 307.13 517 306.65 517.72 306.41 518.68 305.93 519.16 305.21 520.6 304.49 521.56 304.25 522.04 304.01 522.52 303.53 523 302.33 523.72 301.85 524.2 301.37 524.44 300.89 524.92 299.93 525.64 298.73 526.12 298.25 526.12 297.29 526.6 296.57 526.6 295.13 526.84 294.17 527.08 293.93 527.32 293.45 527.56 292.49 528.76 291.53 530.2 291.53 530.44 291.05 530.92 290.57 532.12 290.09 533.08 288.65 534.52 287.93 535 286.97 535.72 286.73 535.96 285.29 537.16 284.33 537.64 283.37 538.12 281.93 538.84 281.21 539.32 280.73 539.32 280.25 539.32 278.81 539.08 278.09 539.08 277.61 539.32 276.65 539.8 275.69 540.28 275.21 540.52 274.49 541.24 273.77 541.48 273.29 541.96 272.57 542.68 271.85 543.4 271.37 544.12 270.89 544.84 270.41 545.56 270.17 546.28 269.69 546.76 268.25 548.45 267.77 548.92 267.29 549.4 266.57 549.88 266.33 550.37 265.61 551.09 264.89 552.04 264.65 552.52 264.41 553.49 264.17 556.13 263.93 557.8 263.45 558.76 262.97 559.25 262.49 559.97 262.01 560.45 261.53 560.93 261.29 561.17 260.33 562.37 259.61 563.57 259.13 564.05 258.89 564.77 258.41 566.21 258.41 567.17 258.41 568.13 258.41 569.33 258.65 570.77 259.13 571.25 259.37 571.97 260.09 572.45 261.05 572.93 261.77 572.93 262.25 572.93 262.97 573.17 263.21 573.17 263.69 573.17 264.41 572.93 265.61 572.45 266.33 572.21 267.29 571.97 267.77 571.73 268.25 571.97 268.73 572.45 268.97 572.69 270.17 574.37 270.89 575.81 271.61 576.77 271.85 577.73 272.09 578.45 272.33 579.41 272.33 579.89 272.33 580.61 272.57 581.09 272.57 583.01 272.81 584.21 273.05 585.17 273.05 585.89 273.29 587.09 273.53 587.81 273.77 588.53 273.77 589.01 273.77 589.97 273.77 591.41 273.53 593.09 273.05 593.81 272.81 594.29 272.57 594.29 271.37 594.77 270.89 594.77 270.41 594.77 269.93 595.01 269.45 595.01 269.21 595.25 268.25 596.45 267.53 597.41 267.29 597.65 266.81 598.37 266.57 598.85 266.09 599.81 265.61 600.29 265.61 600.53 265.13 601.01 265.13 601.25 264.65 602.21 264.41 602.69 264.41 603.17 264.41 603.41 264.89 604.85 265.13 605.57 265.13 606.53 265.13 607.25 264.65 608.21 263.21 609.41 262.49 609.89 262.01 610.61 261.29 610.85 260.81 611.33 260.09 611.81 258.41 613.01 257.45 613.73 255.77 614.69 254.81 615.41 253.85 616.13 253.37 616.37 252.65 617.09 251.69 617.81 249.77 619.49 248.81 620.45 248.09 620.93 246.89 621.89 245.93 622.37 245.45 622.61 244.73 623.33 243.29 624.53 241.85 626.21 241.61 626.45 240.17 628.13 239.21 629.33 238.25 631.01 238.01 631.49 237.77 631.97 236.57 634.61 235.37 637.49 234.41 639.17 234.17 639.89 233.45 640.37 232.25 641.33 232.01 641.57 231.53 641.81 230.57 642.77 229.85 644.21 229.13 646.61 228.41 648.05 228.17 648.53 227.21 649.25 226.73 649.49 226.49 649.49 226.25 649.25 225.29 649.25 224.57 649.25 222.89 650.21 221.45 651.41 220.73 651.89 219.05 652.85 217.37 653.57 216.41 654.29 215.93 654.77 214.01 657.17 212.81 658.85 211.85 660.53 211.61 661.01 210.65 661.49 210.17 661.49 208.49 661.49 207.53 661.25 206.57 661.49 205.61 661.25 205.37 661.25 205.13 661.25 204.65 661.25 203.21 661.73 202.49 661.73 201.77 661.01 201.05 660.53 199.85 660.29 198.65 659.57 198.41 659.57 197.93 659.33 197.45 659.33 196.49 659.09 194.09 659.09 192.89 659.33 192.65 659.33 191.69 659.57 191.21 659.57 190.01 660.05 189.05 660.53 188.33 661.01 187.13 661.73 185.93 662.45 184.97 663.41 184.49 664.13 182.81 666.77 182.57 667.73 182.33 667.97 182.57 668.45 182.57 668.69 183.05 668.69 184.01 668.93 184.97 669.65 185.45 669.89 185.93 670.37 186.41 671.34 186.65 672.05 186.65 673.01 186.41 674.7 186.17 675.41 185.93 675.89 185.21 676.62 184.73 676.86 184.25 677.1 183.53 677.1 181.85 677.82 180.41 678.29 179.69 678.29 178.97 678.29 178.25 678.05 177.29 678.05 175.85 677.82 175.37 677.82 175.13 677.58 174.17 677.34 173.69 677.1 172.72 676.62 171.53 676.13 170.81 675.65 170.56 675.65 169.6 675.17 168.65 674.46 168.41 674.22 168.16 673.98 167.21 673.74 166.72 673.5 166 673.5 164.56 673.98 164.09 674.22 163.6 674.7 162.88 674.93 162.41 675.17 161.21 675.65 160.49 676.13 159.04 677.34 158.56 677.82 157.6 679.25" style="fill:none;stroke:#222;stroke-linecap:round;stroke-linejoin:round;stroke-width:1.6800800561904907px"/><polyline points="157.6 679.25 157.37 679.5 157.13 679.98 156.41 681.65 155.93 683.1 155.69 683.58 155.21 684.54 154.97 685.02 154.97 685.98 155.21 686.94 155.21 687.18 155.21 687.9 154.97 688.62 154.72 689.1 154.49 689.82 154.25 690.3 154 690.78 153.76 691.02 153.28 691.02 152.81 691.02 151.6 691.02 148.96 691.02 148 690.78 147.28 690.78 146.56 690.54 145.84 690.54 145.36 690.06 143.92 689.34 142.72 688.62 142 688.14 141.04 687.66 140.8 687.66 139.84 686.94 138.64 686.46 137.92 685.74 137.2 684.54 136.96 684.3 136.48 683.82 134.56 682.62 133.84 681.89 133.36 681.65 132.64 681.41 131.2 681.17 130.72 681.17 129.52 681.17 128.8 681.41 126.88 681.89 126.16 682.38 125.2 682.62 124.24 683.1 123.04 683.58 122.32 683.82 121.84 684.06 119.92 684.78 118.72 685.26 117.76 685.26 115.84 685.98 115.12 686.46 114.64 686.7 114.4 686.7 114.16 686.46 113.92 685.98 113.44 685.02 112.96 684.3 112.96 683.58 113.2 682.86 113.44 682.38 113.44 681.65 113.68 680.7 114.16 679.98 114.4 679.01 114.64 678.29 114.64 677.58 114.64 677.34 114.64 676.86 114.64 675.65 114.64 675.41 114.4 674.93 113.44 674.7 112.96 674.22 112.72 673.98 112.48 673.5 112 672.05 111.52 670.85 111.28 668.93 111.04 667.97 111.04 666.77 110.8 666.29 110.32 665.81 110.08 665.57 110.08 665.33 109.84 664.85 110.08 664.13 110.32 663.41 110.56 663.17 111.04 662.93 111.28 662.69 112 662.45 112.24 661.97 112.96 660.53 113.44 659.09 113.92 657.65 114.16 657.17 114.64 656.69 115.36 655.25 115.6 654.77 115.6 654.53 115.36 653.57 115.36 653.33 115.36 653.09 115.84 652.37 116.32 651.89 117.04 650.45 117.28 649.49 117.04 648.29 116.56 646.13 116.32 645.65 116.32 645.17 116.32 644.45 116.56 644.21 116.8 643.73 117.52 643.25 117.76 642.77 117.76 642.53 118 641.57 118 640.85 118 640.37 117.76 639.41 117.52 638.93 116.56 637.49 116.32 636.77 116.32 636.29 116.32 635.33 116.56 635.09 116.56 634.61 116.56 633.41 116.56 632.69 117.28 631.25 117.28 630.53 117.28 630.05 117.28 629.57 116.56 628.85 116.32 628.37 116.32 627.65 116.56 627.17 116.56 626.69 116.56 626.21 116.32 625.25 116.32 625.01 116.08 624.53 115.6 624.05 114.64 623.57 114.4 623.57 113.68 623.33 113.44 623.33 112.48 623.09 111.28 622.61 110.8 622.61 110.32 622.37 110.08 621.89 110.08 621.41 110.08 621.17 110.08 620.21 110.08 619.73 109.84 619.01 109.36 618.29 109.12 618.05 108.4 617.81 107.68 617.81 105.28 618.05 104.8 617.81 104.32 617.81 104.08 617.57 103.84 617.09 103.36 616.37 102.88 615.41 102.88 614.69 102.4 614.45 101.92 613.97 100.72 612.77 99.76 612.05 99.28 611.57 99.28 611.09 99.28 610.85 99.52 610.37 100.48 609.17 100.72 608.93 100.72 608.21 100.48 607.25 99.76 605.81 98.8 604.37 98.8 603.89 98.8 602.69 98.8 601.49 98.8 601.01 98.32 599.81 97.84 598.85 97.6 597.17 97.36 596.69 97.12 595.49 97.12 595.01 97.36 594.05 97.36 593.33 97.36 592.85 97.12 592.37 96.88 591.89 96.64 591.17 96.64 589.97 96.64 588.29 96.64 587.81 96.4 587.09 95.68 585.89 95.44 585.17 95.44 584.21 95.44 583.97 95.44 583.73 95.92 583.25 96.16 582.77 96.4 582.53 96.88 582.29 96.88 581.81 97.12 581.09 97.12 579.41 96.88 577.73 96.4 575.81 96.4 574.85 96.64 573.65 96.88 572.69 97.12 571.73 97.12 571.01 96.88 570.53 96.64 569.81 96.4 569.57 95.68 568.37 95.2 567.41 95.2 566.69 94.72 565.25 94.24 564.53 93.76 563.81 93.52 563.33 93.28 562.61 93.04 562.37 93.04 561.65 92.8 560.69 92.08 559.25 92.08 558.52 92.08 557.33 91.84 556.37 91.6 555.64 91.36 555.4 90.64 554.21 89.2 552.52 88 551.33 87.28 550.61 86.8 550.37 86.32 549.88 85.36 548.68 84.16 546.52 83.92 546.28 83.92 546.04 83.44 546.04 82.48 545.56 82 545.56 81.04 545.08 80.8 545.08 80.08 544.36 79.84 543.64 79.36 543.16 78.4 541.72 78.16 541.24 76.96 539.08 76.72 538.84 76.24 538.36 75.52 538.12 75.04 537.64 73.84 536.2 71.92 533.08 71.44 532.36 70.48 531.64 70 530.92 69.52 529.72 69.28 529.24 69.04 528.52 67.84 527.32 66.88 526.12 66.64 525.88 66.4 525.64 66.16 525.16 65.68 525.16 65.2 525.16 64.96 525.16 64.48 525.64 63.76 525.64 63.04 525.4 62.56 524.92 61.84 524.68 61.36 524.44 60.64 523.72 59.68 522.76 59.2 522.28 58.72 521.32 58.48 520.84 58.24 519.88 57.28 518.68 56.56 517.72 55.84 516.76 55.36 516.04 55.12 514.84 54.88 514.6 54.88 513.16 54.64 512.2 53.44 511.24 52.96 510.52 52.48 510.04 51.76 509.56 51.04 508.6 50.56 507.88 50.32 507.16 49.84 505.96 49.84 505.24 49.84 503.08 49.6 502.36 49.36 501.88 49.6 500.68 49.36 498.76 49.36 498.52 48.4 497.08 48.4 496.12 48.16 494.44 47.92 492.76 47.92 492.04 47.92 491.56 47.2 489.4 46.96 488.2 46.72 487 45.76 485.32 45.28 484.84 45.04 484.6 44.8 484.12 44.32 482.92 43.84 482.2 43.36 480.76 43.12 479.8 43.12 477.4 43.12 475.48 42.88 474.76 42.64 474.28 42.4 473.32 42.16 472.6 41.2 470.92 40.24 469.48 39.76 468.76 38.32 465.88 37.6 465.16 36.88 464.68 36.4 464.44 36.4 464.2 36.16 463.96 36.4 463 36.16 462.76 35.92 462.28 35.68 461.8 35.2 460.84 34.96 459.64 34.96 458.92 34.72 458.68 35.2 456.28 36.4 453.88 36.64 453.4 37.6 452.44 37.84 451.96 37.84 451.48 37.6 450.76 37.36 449.8 37.36 449.56 36.64 448.84 36.4 448.12 36.4 446.92 36.4 445.96 36.16 444.76 35.92 444.28 35.92 444.04 36.16 443.08 36.16 442.12 36.16 441.4 36.4 440.92 36.4 440.68 37.12 438.76 37.36 437.8 37.84 436.36 38.08 435.63 38.08 435.39 38.08 434.19 38.08 433.24 38.32 431.8 38.32 431.31 38.32 430.6 37.84 428.68 38.08 427 37.84 425.8 37.84 425.07 38.32 423.87 38.32 423.39 38.08 422.67 38.08 421.95 38.32 420.99 38.8 420.51 39.52 418.83 39.28 418.59 39.52 418.35 39.76 417.63 40 417.15 40.72 415.95 40.96 415.47 41.68 414.75 42.4 414.03 43.12 413.55 44.8 412.83 46.24 411.87 47.68 411.15 48.16 410.91 48.4 410.43 48.4 410.19 48.4 409.23 48.64 408.99 49.12 408.27 49.84 407.55 50.56 406.83 51.52 406.35 52.96 404.67 53.68 404.19 53.92 403.71 54.4 403.23 54.88 402.27 55.12 401.55 55.6 400.35 56.08 399.39 56.32 398.91 56.56 397.71 56.56 396.99 56.32 396.51 56.08 395.31 56.08 394.83 56.08 394.11 56.32 393.39 56.32 392.91 56.8 391.47 57.04 390.99 57.52 389.07 58.72 386.91 58.96 386.67 59.68 385.23 59.68 384.75 59.92 384.03 59.92 381.87 59.68 379.95 58.96 377.31 58.72 376.11 58 374.91 57.76 374.19 57.28 372.75 56.8 371.79 56.32 371.07 55.84 370.11 55.36 369.39 54.88 368.67 54.4 367.95 53.92 366.75 53.92 366.27 53.92 365.79 54.16 365.07 54.16 364.59 54.64 363.63 54.88 363.15 55.12 362.67 55.84 362.19 57.04 361.23 57.28 360.99 57.76 359.79 58 358.59 58 357.87 58 357.15 58.24 356.91 58.96 355.71 59.68 353.79 60.4 350.91 60.4 350.43 60.64 348.75 60.88 347.79 61.12 346.83 61.36 346.11 61.84 345.63 62.08 344.91 62.56 343.95 62.8 343.71 63.04 343.23 64.24 342.03 65.2 340.83 66.64 339.39 67.6 338.43 68.56 337.47 68.8 336.99 69.76 336.03 70.48 335.07 70.72 334.59 71.2 333.87 71.92 333.15 72.88 331.71 73.6 330.99 75.04 328.83 75.52 328.35 76.24 327.63 77.2 327.15 78.4 326.67 78.88 326.43 79.6 326.43 80.32 326.67 82 326.67 82.72 326.67 83.2 326.43 83.92 326.19 84.64 325.71 84.88 325.71 85.84 324.75 86.32 324.27 86.8 324.03 89.68 323.07 92.56 322.35 94 322.11 95.92 321.87 97.6 321.63 99.52 321.63 100.72 322.11 101.44 322.35 103.36 322.35 104.08 322.35 104.8 322.11 105.52 321.63 106 321.39 107.2 320.91 107.92 320.67 108.88 320.67 110.8 320.91 113.2 320.91 114.16 321.15 116.32 321.39 117.52 321.39 118.96 321.39 119.92 321.39 121.12 321.63 123.04 321.63 123.76 321.63 124.48 321.15 124.72 320.91 124.96 320.19 125.44 318.75 125.92 317.79 126.16 317.55 126.4 316.35 126.88 315.15 127.6 314.19 128.08 313.46 129.52 311.55 130.48 310.58 130.72 309.63 130.96 309.14 131.44 308.67 131.92 308.19 132.64 307.23 133.36 306.75 134.56 304.82 135.52 303.87 136.48 302.67 137.44 301.7 137.68 301.22 138.88 300.02 140.56 298.34 143.92 295.7 144.4 294.98 144.88 294.5 146.32 293.54 148 292.1 149.44 291.14 150.4 290.66 150.88 290.42 151.37 290.18 152.09 288.98 152.32 288.5 152.09 288.02 151.6 287.54 151.37 287.3 150.65 286.34 149.92 285.62 148.72 283.46 148.24 282.5 148 282.02 148.24 281.78 148.72 281.06 149.44 280.1 149.68 279.86 149.92 279.38 150.16 278.18 150.16 276.98 149.92 274.58 149.68 270.74 149.68 270.5 149.44 269.78 149.44 267.86 149.2 266.42 149.2 265.7 148.96 264.74 148.96 263.06 149.2 262.1 149.44 260.9 149.44 260.18 149.2 258.98 148.96 258.5 148.72 258.26 147.28 255.38 147.04 254.66 147.04 254.18 147.28 253.7 147.28 252.98 147.28 252.5 147.52 251.78 148.72 249.14 148.96 248.9 149.44 248.42 149.92 247.94 150.16 247.46 150.65 246.74 151.6 245.3 152.09 244.34 152.56 243.62 153.28 242.42 153.76 240.98 154.25 240.02 154.25 239.54 154.25 238.34 154.49 236.42 154.97 235.7 155.21 234.74 155.69 233.54 155.93 232.34 156.88 230.42 157.13 229.22 157.37 228.5 157.84 227.54 158.09 227.3 158.81 226.82 159.28 226.1 160.97 223.7 161.21 222.98 161.44 222.5 161.93 221.3 162.41 219.62 162.88 217.94 163.13 216.74 163.13 216.26 163.13 213.86 163.37 212.9 163.37 212.18 163.37 210.74 163.37 208.82 163.37 208.34 164.09 207.14 164.09 206.18 164.32 204.02 164.32 201.38 164.32 199.46 164.56 198.5 164.81 196.82 164.81 196.58 166.97 191.78 168.88 189.62 175.37 181.94 177.77 178.57 178.25 175.93 178.73 171.61 179.21 169.69 183.05 163.21 184.01 162.01 186.41 158.89 188.81 155.05 190.25 153.61 191.45 152.17 193.85 150.97 196.01 149.05 198.17 146.41 199.61 144.25 200.81 141.37 202.49 139.21 205.85 135.85 206.57 134.65 207.29 132.49 207.77 130.33 208.49 129.13 209.45 127.93 210.65 125.05 216.41 118.09 218.09 116.65 220.25 113.53 220.49 113.29 224.57 112.81 227.21 112.81 233.69 115.69 235.13 116.17 237.29 117.85 238.97 119.29 240.17 120.01 240.41 120.01 241.85 120.49 245.45 120.73 248.81 121.45 250.25 122.17" style="fill:none;stroke:#222;stroke-linecap:round;stroke-linejoin:round;stroke-width:1.6800800561904907px"/></g></g><g style="clip-path:url(#clip-path)"><g style="clip-path:url(#clip-path-3)"><text transform="translate(175.25 473.32)" style="font-size:16px;fill:#222;font-family:TimesNewRomanPS-BoldMT, Times New Roman;font-weight:700">1</text><text transform="translate(180.05 473.32)" style="font-size:16px;fill:#222;font-family:TimesNewRomanPS-BoldMT, Times New Roman;font-weight:700">(</text><text transform="translate(183.41 473.32)" style="font-size:16px;fill:#222;font-family:TimesNewRomanPS-BoldMT, Times New Roman;font-weight:700">1</text><text transform="translate(188.45 473.32)" style="font-size:16px;fill:#222;font-family:TimesNewRomanPS-BoldMT, Times New Roman;font-weight:700">)</text></g><g style="clip-path:url(#clip-path-3)"><text transform="translate(360.53 265.7)" style="font-size:16px;fill:#222;font-family:TimesNewRomanPS-BoldMT, Times New Roman;font-weight:700">1</text><text transform="translate(365.33 265.7)" style="font-size:16px;fill:#222;font-family:TimesNewRomanPS-BoldMT, Times New Roman;font-weight:700">(</text><text transform="translate(368.69 265.7)" style="font-size:16px;fill:#222;font-family:TimesNewRomanPS-BoldMT, Times New Roman;font-weight:700">2</text><text transform="translate(373.74 265.7)" style="font-size:16px;fill:#222;font-family:TimesNewRomanPS-BoldMT, Times New Roman;font-weight:700">)</text></g></g></svg>