<svg xmlns="http://www.w3.org/2000/svg" xmlns:xlink="http://www.w3.org/1999/xlink" id="Layer_1" data-name="Layer 1" viewBox="0 0 626.97 841.75"><defs><clipPath id="clip-path"><rect x="14.3" width="595.71" height="841.75" style="fill:none"/></clipPath><clipPath id="clip-path-3"><rect x="28.94" y="49.68" width="569.07" height="704.46" style="fill:none"/></clipPath><clipPath id="clip-path-115"><rect x="449.92" y="757.02" width="147.61" height="63.37" style="fill:none"/></clipPath><clipPath id="clip-path-127"><rect x="14.3" width="595.5" height="841.49" style="fill:none"/></clipPath></defs><g style="clip-path:url(#clip-path)"><g style="clip-path:url(#clip-path-3)"><polyline points="205.82 158.89 206.54 159.13 207.03 159.13 207.75 158.89 208.47 157.93 209.19 157.69 209.43 157.21 209.91 157.21 210.38 157.69 210.63 157.93 211.1 158.89 211.1 159.13 211.34 159.37 212.06 160.09 213.26 161.53 213.5 162.01 213.99 162.97 214.71 163.21 215.66 163.21 216.38 163.45 216.87 163.69 217.34 163.93 219.03 164.41 219.26 164.41 219.5 164.89 220.23 165.61 220.71 166.33 221.43 166.81 222.15 167.05 223.83 167.53 225.27 168.49 225.75 168.97 226.23 169.21 226.95 169.45 227.67 169.45 228.63 169.45 230.07 169.21 231.27 168.97 234.39 168.01 235.83 168.01 236.55 168.25 237.03 168.73 237.75 168.97 239.19 169.21 239.43 169.21 239.67 169.21 239.91 168.97 240.39 168.73 240.63 168.49 241.11 168.49 241.83 168.49 243.03 168.01 243.99 167.53 245.67 167.53 246.87 167.77 247.11 167.77 248.07 167.05 249.51 166.81 250.23 166.57 250.47 166.57 251.67 166.33 253.35 166.09 254.07 166.33 255.03 167.05 255.27 167.05 255.99 167.29 257.19 167.53 258.39 168.49 258.63 168.73 259.83 170.17 260.07 170.65 262.95 173.53 263.91 174.49 265.11 176.65 265.35 177.37 265.35 177.61 265.83 179.06 266.55 179.78 267.99 180.25 268.23 180.74 268.23 180.97 268.23 181.69 268.23 182.41 268.47 183.13 268.47 183.38 268.47 184.34 268.47 185.06 268.23 185.53 268.23 186.25 268.71 187.46 269.19 188.9 269.43 189.13 269.91 189.62 270.39 189.85 271.59 190.58 271.83 190.81 272.07 191.06 272.55 192.26 272.79 193.22 273.03 193.7 273.27 194.66 273.75 195.38 274.23 196.1 274.95 196.34 275.67 197.06 276.15 197.54 276.63 198.74 276.87 199.46 277.35 199.7 278.31 200.42 278.79 200.9 279.51 201.62 279.99 202.1 280.71 202.34 281.43 202.82 281.67 203.06 282.15 204.74 283.11 205.46 284.31 206.42 284.55 206.66 285.75 207.62 286.47 207.86 286.71 208.1 287.19 208.1 287.91 208.1 288.87 208.58 289.35 208.82 289.59 208.82 290.55 208.58 291.03 208.58 291.99 207.86 292.71 206.66 292.95 206.42 293.19 206.42 293.43 206.42 294.15 206.42 294.39 206.66 295.35 207.14 296.55 207.14 297.99 207.38 299.19 207.38 299.91 206.9 301.11 206.9 302.07 207.14 302.31 207.38 302.79 207.86 303.03 208.1 304.47 211.94 304.95 212.9 305.19 213.38 305.67 213.86 306.63 215.54 307.83 217.7 307.83 218.18 309.27 221.06 309.51 221.78 310.23 223.22 310.47 224.42 310.71 224.9 312.63 227.06 313.11 228.26 313.35 228.98 313.59 229.7 313.83 230.18 314.31 231.14 314.79 232.82 315.27 233.54 315.51 233.78 315.99 234.74 316.47 235.46 317.91 236.66 318.63 237.14 319.11 238.34 319.35 239.78 319.83 241.7 320.07 242.42 319.83 243.14 319.59 243.86 319.59 244.1 319.59 246.26 320.07 247.46 320.79 247.7 321.99 248.66 322.95 249.14 324.63 250.1 325.83 250.82 326.55 251.54 327.51 252.02 329.19 253.7 330.87 255.86 334.23 258.02 335.19 258.74 335.43 259.94 335.43 260.42 335.19 261.38 334.95 262.1 334.47 263.06 334.23 264.5 333.75 264.98 333.03 266.42 331.59 267.86 330.87 268.34 330.63 268.82 329.91 270.5 328.95 271.22 328.47 272.18 328.47 272.42 327.75 272.66 327.75 272.9 327.27 273.38 327.51 274.34 327.99 275.06 329.19 276.02 330.15 277.7 331.11 278.66 331.59 279.38 331.83 280.1 332.55 281.06 332.79 281.3 333.27 281.54 333.99 281.78 334.47 282.26 335.67 282.74 336.87 284.42 337.11 284.66 337.59 285.14 337.59 285.86 337.83 286.58 338.55 288.02 339.03 288.26 340.71 288.98 341.19 289.22 341.67 289.7 342.87 290.18 343.35 289.94 344.31 289.22 344.79 288.74 345.99 288.5 347.19 288.02 347.91 288.02 349.11 288.02 350.55 288.26 351.51 288.26 351.75 288.26 352.95 288.74 354.87 288.74 356.07 288.26 357.03 288.02 357.27 287.78 357.51 287.3 358.71 285.86 358.71 284.66 358.95 283.94 359.43 283.22 359.91 282.5 360.39 282.26 361.35 282.02 362.07 282.26 362.55 282.02 363.51 281.54 364.23 281.54 364.95 281.54 365.67 282.02 367.11 282.74 368.07 282.74 368.79 282.74 369.27 282.98 370.23 283.22 370.71 283.46 371.19 282.74 371.43 282.74 373.35 282.26 374.55 282.74 376.47 284.18 378.87 287.06 379.59 289.46 379.59 290.42 379.35 292.1 379.35 292.82 379.83 294.02 380.79 295.46 381.27 296.18 381.51 296.18 381.51 296.42 381.99 297.14 384.15 301.7 385.11 302.9 386.31 303.87 388.23 304.82 392.31 306.75 394.95 308.43 397.59 310.35 399.03 311.06 400.23 312.02 402.39 312.99 403.59 317.31 404.79 318.75 405.51 318.99 406.71 319.47 410.07 319.95 411.27 320.43 411.51 320.91 412.23 322.11 412.95 324.27 413.19 325.23 414.63 327.87 415.35 329.79 415.59 330.99 416.31 332.67 418.71 333.15 421.35 334.11 422.31 335.31 423.51 335.79 424.24 337.23 426.39 339.39 429.27 342.51 430.24 344.19 431.19 344.91 432.88 345.63 434.07 346.59 436 348.51 436.24 348.75 438.39 348.99 440.31 350.19 441.75 351.63 442.71 353.31 444.15 354.75 445.12 355.71 445.84 358.11 446.08 358.35 449.2 359.55 449.68 360.27 450.4 361.71 450.4 362.91 449.44 365.55 449.92 367.95 449.92 368.91 449.2 374.43 449.44 376.11 449.92 377.07 450.4 377.79 450.64 378.99 450.88 379.23 451.6 381.63 452.08 383.55 452.8 385.47 454.24 387.63 456.88 390.99 457.6 392.19 460 391.47 461.44 390.51 464.08 390.27 465.76 390.51 468.16 390.27 468.4 390.27 468.64 390.27 470.56 390.51 473.2 389.79 476.56 389.07 478.24 388.35 479.44 388.11 481.36 388.11 484.96 389.31 484.96 389.55 485.2 389.55 485.92 389.55 487.84 390.27 488.56 390.75 489.52 390.75 490 390.75 490.96 389.79 492.16 389.31 495.28 389.07 497.68 388.11 498.64 387.87 499.6 387.87 503.68 388.83 504.88 389.31 506.32 389.31 508 389.79 510.4 389.79 513.04 390.27 514.72 390.99 517.36 391.47 518.08 391.71 518.08 391.95 520 392.43 521.68 392.91 523.36 392.67 524.08 392.67 526 393.63 527.44 393.87 528.88 393.63 529.84 393.63 530.56 393.87 532.24 394.35 532.96 393.87 537.52 393.15 539.2 393.63 540.16 393.87 540.88 393.39 542.56 392.91 542.8 392.67 543.52 392.67 544.72 392.91 545.2 392.91 545.44 392.91 545.92 392.67 547.36 392.67 550 392.43 550.48 392.19 550.72 392.19 550.96 392.19 554.32 391.47 557.92 391.47 558.64 391.23 561.76 386.67 562 386.67 565.36 382.83 567.52 380.67 569.2 378.99 570.16 377.55 572.32 375.15 573.04 374.43 575.92 373.95 576.4 373.95 580.72 372.99 582.16 372.99 582.4 373.23 582.88 375.63 583.12 378.99 583.36 379.95 583.84 380.43 584.56 382.59 584.8 383.79 584.32 384.51 582.4 385.95 582.16 386.43 582.16 387.63 583.36 389.55 583.84 390.99 583.6 391.95 583.12 392.91 582.88 393.87 582.88 394.59 583.6 396.03 585.04 396.51 586.24 397.71 586.72 399.87 587.68 402.99 587.92 403.95 587.92 404.67 587.44 405.87 585.76 408.27 584.8 408.99 584.56 410.67 584.8 411.63 585.52 412.59 588.88 415.23 589.36 416.43 588.88 420.75 587.92 422.91 587.92 423.87 588.64 424.11 589.6 424.59 591.28 425.31 591.76 425.8 592.24 427.71 592.24 429.15 591.76 430.12 591.52 430.36 589.84 431.31 588.88 431.8 588.64 432.04 587.92 432.75 586.24 435.63 584.32 437.56 581.92 439 581.68 439.72 581.68 440.68 581.92 442.12 581.92 442.6 581.68 443.8 580.96 444.52 580.72 444.76 580 444.52 578.08 443.8 575.68 443.56 574.72 443.56 572.32 445 572.08 445 570.64 445.96 570.4 446.92 570.64 447.64 571.36 450.04 571.84 451.96 572.8 452.68 575.2 453.4 575.44 453.64 576.4 454.84 577.12 455.8 577.36 457.24 577.36 457.72 577.36 458.2 576.4 459.64 573.28 462.28 572.8 463.24 572.56 463.72 572.8 464.92 573.04 465.64 574 466.6 574.24 468.04 573.52 469.24 571.6 470.44 570.88 471.4 570.64 472.6 571.36 473.8 573.28 474.76 574.24 475.48 574.72 476.68 575.44 478.84 574.48 480.04 573.52 482.44 572.32 483.64 571.12 483.88 569.2 483.4 567.04 483.16 565.36 483.4 563.68 483.4 562.72 484.12 561.52 485.8 561.28 487 561.04 488.68 560.56 491.08 559.36 492.04 558.64 491.8 557.44 491.32 556.72 491.08 555.76 490.36 553.84 489.88 551.68 490.12 550.72 490.6 548.8 492.28 547.6 494.2 546.16 495.88 544.72 497.32 543.28 497.8 542.8 497.8 542.32 497.8 537.04 498.52 535.36 499 533.92 500.2 533.2 501.16 533.2 501.4 532.24 504.04 531.52 505.96 531.28 508.12 531.28 508.6 531.04 509.32 530.8 509.8 530.56 510.28 530.08 510.76 529.6 511 528.64 511 527.68 510.76 526.96 510.76 526 511 525.04 512.2 524.32 512.44 523.36 512.68 522.64 512.44 521.92 512.44 521.68 512.44 520.96 512.44 520.24 512.68 519.52 513.16 518.56 513.88 518.08 514.84 517.36 517.48 516.88 519.4 517.12 521.32 517.36 522.76 518.32 525.64 518.32 526.36 518.08 526.6 517.84 527.08 517.6 527.32 517.12 527.56 516.16 528.28 514.24 528.76 513.76 528.76 513.28 528.76 512.32 528.52 512.08 528.28 511.12 527.56 509.68 527.08 508.72 526.6 508 526.6 507.76 526.36 506.56 526.12 506.08 526.36 505.36 527.08 505.12 527.32 504.88 529 504.4 529.96 503.68 530.44 503.44 530.68 502.96 530.92 501.04 530.68 500.32 530.92 499.12 531.16 498.88 531.16 498.4 531.4 496.48 531.4 495.52 531.4 495.04 531.16 494.08 530.2 493.84 529.72 493.36 529.24 492.64 529.24 491.92 529.24 491.44 529.48 489.28 530.68 488.56 531.4 488.32 531.64 487.36 532.84 487.12 533.32 486.88 533.56 486.64 534.28 486.16 535.72 485.92 536.44 485.2 537.88 484.72 538.84 484.48 539.56 484 540.52 482.32 541.96 481.6 542.44 481.12 542.68 480.4 542.92 479.2 543.4 478.48 543.4 478 543.16 477.52 542.68 476.56 541.72 476.08 541.72 475.6 541.48 474.64 541.72 473.92 541.72 472.96 542.2 471.52 541.96 470.8 541.96 470.32 542.2 469.36 542.44 468.4 542.44 468.16 542.68 467.44 542.92 466 542.92 465.52 542.92 465.28 542.44 464.8 541.96 464.56 541.24 464.32 540.76 463.84 539.8 463.6 539.8 463.12 539.56 462.4 539.56 461.44 539.8 459.04 540.76 457.84 541.48 457.12 542.2 456.88 542.44 455.92 543.64 455.2 544.36 454.48 544.6 454 544.84 452.56 544.36 449.92 544.6 449.44 544.36 448.72 543.64 450.16 542.92 451.12 541.48 451.12 541 450.88 539.8 450.64 538.84 450.88 537.88 450.88 537.16 450.88 535.96 450.64 535.24 450.64 534.76 449.92 533.56 449.92 532.12 449.68 531.64 449.44 530.92 449.2 530.44 448.72 529.96 448.48 529.48 447.76 528.28 447.28 527.8 446.56 527.08 443.68 525.64 443.44 525.4 443.19 524.92 442.48 524.44 442.24 524.2 442 523.72 442 523.48 442 523 442.48 522.28 442.48 522.04 442.24 521.08 442.24 520.84 442.24 520.6 442.48 520.12 443.44 519.16 443.68 518.92 443.92 518.44 443.92 517.72 443.92 517.24 444.15 517 444.4 516.52 444.88 516.04 445.6 514.84 446.08 514.36 446.32 513.88 447.52 511.48 447.76 511 447.76 510.28 447.28 510.04 446.32 510.04 445.12 509.8 444.4 510.04 443.44 508.6 443.68 506.2 442.95 504.28 442.95 503.56 444.4 501.64 445.12 500.68 441.75 499.72 439.83 499.72 437.44 499.96 435.75 499.96 435.27 499.96 434.8 500.2 433.36 499.96 431.44 499.96 429.04 500.92 427.12 501.16 425.92 501.64 425.19 501.4 422.8 499.48 421.11 498.28 418.23 497.8 416.79 498.04 412.95 497.8 411.75 497.08 410.79 495.4 409.11 493.96 407.91 493.96 405.03 493.96 401.67 492.52 398.31 490.12 395.91 488.44 394.71 487 393.99 485.8 389.67 482.68 387.99 481.48 384.87 478.36 383.43 475.96 382.23 475.96 380.79 475.96 379.83 475.96 378.87 476.44 377.91 477.16 376.23 479.8 375.51 480.52 374.79 481.24 374.55 481.24 373.11 481.48 372.39 482.2 371.67 482.92 371.19 482.92 370.23 482.68 369.99 482.44 368.79 482.2 368.31 482.44 367.83 482.68 367.59 482.92 367.83 484.12 368.07 484.6 368.07 485.32 367.59 486.52 366.87 487.24 366.15 487.48 365.67 487.48 364.95 487 364.71 486.76 363.75 486.76 362.07 487 361.11 487 359.43 488.2 358.47 489.16 357.99 489.4 357.27 489.4 356.07 488.92 355.59 488.92 355.35 489.16 354.87 489.4 354.63 488.92 354.63 486.04 355.35 484.12 355.35 483.16 355.11 482.44 354.87 481.96 355.11 479.56 354.87 478.84 354.63 477.88 354.15 477.64 353.91 476.92 353.91 476.2 353.67 475.72 352.47 474.28 352.23 473.56 352.23 469.24 351.99 468.52 351.51 468.04 350.79 465.16 350.55 464.44 350.79 463.72 350.79 463.24 350.31 462.04 350.31 461.32 350.31 460.6 350.79 458.68 350.55 458.44 350.31 458.2 349.59 458.2 349.11 457.72 348.87 457.48 348.39 457 348.15 456.76 347.91 456.52 347.67 456.04 347.91 454.36 348.63 453.16 348.87 452.68 348.87 451.96 348.87 451.72 348.39 451.24 347.43 450.76 347.19 450.76 345.27 450.76 344.31 451 343.59 451.24 342.87 451.72 342.15 452.44 341.67 452.68 340.47 452.92 339.75 452.92 339.03 452.68 338.31 452.44 337.83 452.2 336.39 452.2 335.67 452.44 335.19 452.68 334.47 452.92 333.75 452.68 332.79 452.2 332.55 452.2 331.59 452.2 330.87 452.44 330.63 452.68 330.15 452.92 329.91 453.4 329.91 453.88 329.67 454.36 329.19 454.84 328.95 454.84 328.23 455.08 326.79 454.84 325.59 454.36 324.39 452.92 323.91 452.44 322.95 451.72 322.47 451 321.99 450.52 320.79 450.28 319.83 450.28 318.39 451 317.91 451.24 317.67 451.96 317.43 452.92 317.43 453.88 317.67 455.08 318.39 456.04 318.63 456.52 318.87 457 317.67 457 317.19 457 315.75 456.76 315.03 456.28 314.31 455.8 313.59 454.84 312.63 453.64 312.39 453.16 311.91 452.2 311.43 451.24 309.27 448.84 308.31 447.64 308.07 446.68 309.51 444.52 309.75 444.04 309.27 443.56 308.79 443.32 306.87 442.84 306.63 442.84 306.39 442.6 306.39 442.36 306.15 441.4 306.39 440.44 306.63 439.24 306.63 438.76 306.63 438.52 306.15 437.8 305.43 436.83 305.43 436.36 305.19 435.63 305.19 434.92 304.71 434.44 304.47 433.95 304.23 433.95 303.51 433.48 303.27 433 303.03 432.75 303.03 430.83 302.31 429.63 301.59 428.92 301.11 428.19 301.11 427.71 301.59 427 301.59 426.04 301.11 425.31 301.11 424.59 301.35 424.11 300.15 422.91 298.95 422.19 297.75 421.47 296.07 420.51 294.63 419.31 294.15 418.83 293.43 418.59 292.71 418.35 291.03 418.35 290.31 418.59 289.83 418.59 288.87 418.59 288.39 418.35 287.91 417.63 287.43 416.67 287.19 415.95 284.79 413.31 284.31 412.83 284.07 412.59 283.59 412.11 283.11 411.63 282.39 411.15 281.91 410.43 281.43 410.43 279.27 410.19 278.79 410.43 278.07 411.15 277.83 411.39 277.11 412.35 276.63 412.59 276.15 413.55 275.43 414.03 275.19 414.03 274.71 413.79 274.23 413.55 273.03 413.79 272.55 414.03 271.83 414.51 271.11 415.23 270.39 415.95 269.43 416.67 268.95 416.67 268.47 416.43 267.75 416.43 267.27 416.43 266.79 416.91 266.55 416.91 265.83 416.43 265.35 416.19 264.87 416.19 264.39 416.67 263.67 417.15 262.95 417.15 262.47 417.15 260.55 418.59 259.83 418.83 259.11 418.59 257.67 417.87 256.71 417.63 255.75 417.39 255.27 417.15 254.55 416.67 253.59 416.19 253.35 415.95 252.15 415.47 252.15 415.23 251.19 414.75 250.23 414.03 249.27 413.07 247.59 411.87 247.35 411.63 246.87 410.91 247.11 409.71 247.35 408.75 247.35 406.83 247.35 406.11 247.35 405.15 247.35 404.67 247.59 404.19 247.83 403.95 248.31 403.71" style="fill:none;stroke:#005ce6;stroke-linecap:round;stroke-linejoin:round;stroke-width:1.440060019493103px"/><polyline points="248.31 403.71 248.79 403.71 249.75 403.47 250.23 403.23 250.47 402.99 250.47 402.75 250.47 402.27 249.51 401.31 248.55 401.07 248.07 400.83 247.59 399.39 247.35 398.91 247.11 398.67 245.91 398.43 245.19 398.43 244.95 398.19 244.23 397.95 243.99 397.95 243.03 397.47 242.55 396.75 242.31 396.27 242.07 396.27 241.83 396.03 240.63 396.03 239.91 395.55 239.43 394.83 238.95 394.59 238.23 394.35 237.27 394.83 236.55 394.83 236.07 394.59 235.59 394.35 234.15 392.43 233.67 392.19 233.67 391.23 233.43 390.99 232.47 390.75 230.79 390.99 230.55 390.99 230.07 390.51 230.07 390.03 229.83 389.31 229.59 389.07 228.63 388.59 227.67 387.39 227.19 386.67 226.95 386.19 226.71 385.95 226.23 385.71 225.75 385.47 225.51 385.47 225.27 384.51 225.27 384.03 225.27 383.31 225.27 383.07 225.03 382.83 223.11 381.87 220.95 381.15 220.47 380.91 220.47 380.19 220.47 378.99 220.71 377.79 220.47 377.31 220.23 376.83 219.5 377.07 218.31 378.51 217.82 378.75 217.1 378.99 216.63 379.47 216.38 379.71 215.91 379.71 215.19 379.71 213.75 379.95 213.03 379.95 211.82 379.47 211.34 379.47 210.87 379.71 209.66 379.47 208.71 378.99 208.22 378.99 207.03 379.23 206.31 379.23 206.06 379.23 204.87 378.27 204.38 378.03 203.19 377.79 202.22 378.03 201.5 378.03 199.82 377.79 198.87 377.31 198.63 377.07 198.15 375.39 198.15 375.15 197.18 375.15 196.46 374.43 196.22 372.75 195.98 372.27 194.78 371.07 193.1 370.59 192.38 369.39 191.42 368.43 190.94 367.71 190.7 366.03 189.74 365.07 189.26 364.11 188.3 363.39 188.06 362.91 188.06 362.43 188.3 361.71 188.54 360.75 188.3 360.27 188.06 360.03 188.06 359.55 188.54 358.11 188.54 357.63 187.58 355.71 187.82 353.79 187.82 353.07 187.1 350.91 186.86 350.43 187.58 348.75 188.54 347.31 189.02 345.87 189.5 345.15 189.74 343.71 190.22 342.51 190.7 342.03 190.94 341.31 191.66 340.59 192.14 339.87 192.38 339.39 192.62 339.39 192.86 338.67 193.1 337.95 193.34 337.47 192.86 336.99 192.38 336.27 192.14 335.79 191.66 335.07 191.42 333.39 191.42 331.95 191.18 330.51 190.94 330.03 190.7 329.55 190.22 329.07 188.78 328.11 188.3 327.87 187.58 327.63 186.38 327.39 184.46 326.43 183.26 325.23 182.54 324.03 182.06 323.55 182.06 323.07 181.34 323.07 179.9 323.07 177.5 322.11 176.78 321.87 175.58 321.39 174.86 321.39 173.66 321.15 172.46 321.39 172.22 321.39 170.06 320.67 168.62 320.19 168.38 319.71 168.14 319.47 167.42 318.51 166.46 317.55 165.98 317.07 165.5 316.59 163.58 313.71 162.86 312.5 162.86 311.79 162.62 311.31 162.14 311.06 161.66 310.58 161.42 310.35 161.18 309.87 160.7 308.9 159.98 308.43 159.26 307.94 158.54 306.99 157.34 306.26 155.9 304.58 154.94 303.87 153.98 302.19 153.02 301.22 152.78 300.98 152.54 300.26 152.3 299.54 152.3 299.06 151.82 298.34 151.58 298.1 150.86 297.62 150.14 297.62 149.9 297.62 148.94 297.62 148.22 298.1 147.74 298.34 147.02 298.34 145.82 298.1 145.34 298.1 144.86 298.34 142.94 298.34 142.22 298.58 141.5 298.58 141.26 298.1 141.74 297.38 142.22 296.66 142.46 295.94 142.22 294.74 142.46 294.26 142.94 293.78 143.18 292.82 142.94 292.1 142.7 291.86 141.98 291.62 141.74 291.38 140.78 290.9 140.06 290.66 139.82 289.94 139.58 289.46 139.1 288.98 138.14 288.26 137.42 287.3 137.18 286.82 136.22 286.58 135.26 285.62 135.02 285.14 135.02 284.66 134.54 284.18 134.3 282.98 133.82 281.3 133.58 279.86 133.1 278.18 132.86 276.74 132.86 276.26 132.62 275.78 132.14 274.58 131.42 273.62 130.94 273.14 130.46 272.9 129.5 271.94 128.78 271.46 128.3 271.22 127.82 271.46 127.34 271.7 127.1 271.7 125.9 271.22 125.18 270.5 124.94 270.5 123.98 270.5 123.5 270.74 123.26 271.22 122.78 271.94 122.3 272.18 120.86 272.42 119.66 273.14 118.94 274.1 118.22 274.82 117.98 276.02 117.5 276.5 117.02 276.74 116.3 276.74 115.58 276.74 114.38 276.98 113.18 276.98 111.74 276.98 111.26 276.98 110.78 276.74 109.34 275.78 108.86 275.3 107.42 274.34 105.98 273.62 104.3 272.42 103.58 272.18 102.38 271.46 102.14 271.22 100.94 270.26 100.22 269.54 99.26 269.3 97.82 269.54 97.34 269.3 96.38 268.82 95.18 267.62 93.5 267.14 93.02 267.14 92.06 267.14 91.34 266.66 91.82 265.22 91.82 264.5 91.82 263.54 92.3 262.58 93.02 261.38 94.94 258.98 95.18 258.26 95.42 257.78 96.14 255.86 96.62 254.9 97.1 253.22 97.82 252.5 98.06 251.78 98.54 250.82 99.02 250.1 99.5 249.62 99.74 249.14 101.66 248.18 102.86 246.74 103.82 245.54 104.54 245.06 106.7 244.34 107.18 244.1 107.9 243.62 108.14 243.14 108.38 242.66 108.86 242.18 109.34 241.7 109.58 241.7 110.06 241.94 110.78 241.94 111.26 241.7 111.98 241.22 112.94 240.02 114.38 238.82 114.86 238.82 115.34 238.82 115.82 238.58 116.3 238.1 117.02 237.86 117.98 237.86 117.98 238.1 118.46 238.58 118.7 238.58 119.18 238.58 119.66 238.34 119.9 237.86 120.14 237.14 120.38 236.66 120.86 236.18 121.82 235.94 123.02 235.94 123.98 235.7 125.9 234.5 126.62 234.02 127.58 233.54 127.82 233.3 128.54 233.06 129.74 231.86 130.22 231.38 130.46 231.14 131.18 230.9 131.42 230.66 131.9 230.42 131.9 230.18 131.9 229.22 131.66 228.02 131.66 227.06 132.38 225.62 132.62 224.42 132.62 223.94 132.62 222.5 132.86 222.26 133.34 222.02 133.82 221.78 134.3 221.54 134.78 221.3 134.78 220.82 134.78 219.86 135.02 219.38 135.5 218.9 136.22 218.66 136.94 218.66 137.66 218.42 138.38 217.94 138.86 217.94 140.3 216.98 141.5 216.02 142.94 215.06 144.14 214.58 144.86 214.58 145.1 214.82 146.06 214.58 146.78 214.1 147.02 214.1 147.26 213.38 147.74 212.42 147.74 211.94 148.22 210.98 148.46 210.5 149.42 209.78 150.38 208.82 151.34 208.1 152.3 207.38 152.3 207.14 152.54 206.66 152.54 205.94 153.02 205.22 154.7 204.74 155.18 204.26 155.42 203.78 155.18 203.06 155.18 202.82 155.42 202.34 155.9 202.1 156.38 201.86 157.34 201.86 157.82 201.62 158.54 201.38 158.78 200.9 159.26 199.7 159.5 199.46 159.98 198.74 160.22 197.78 160.46 196.58 160.94 195.86 161.18 195.38 161.9 193.94 162.62 192.98 163.1 192.98 163.58 192.5 165.26 192.02 166.46 192.26 166.94 192.26 168.14 192.26 168.38 192.02 168.86 191.78 169.1 191.3 169.1 191.06 169.58 189.38 169.82 188.9 170.06 186.5 170.3 185.29 170.54 184.81 171.02 184.09 171.74 183.13 172.94 182.41 173.42 182.18 173.66 181.94 173.66 180.97 173.9 180.25 174.14 179.78 174.62 179.53 175.58 178.33 176.3 177.85 176.54 177.85 177.02 177.61 177.5 177.61 177.98 177.37 178.46 177.13 178.46 175.93 178.46 174.73 178.94 173.29 179.42 172.09 179.66 171.13 179.66 170.89 180.38 169.69 181.34 168.73 181.82 168.01 182.54 167.29 183.02 166.57 183.26 166.33 183.98 165.13 184.94 164.65 185.9 164.17 186.62 163.45 187.58 162.73 190.7 161.29 192.86 160.81 193.58 160.33 194.54 160.57 195.02 160.57 195.26 160.57 196.7 160.09 197.42 159.85 197.66 159.37 198.38 159.37 198.87 159.37 200.54 158.89 201.99 158.89 202.47 158.65 203.19 158.41 203.43 157.93 203.43 157.69 203.91 156.73 204.38 157.21 205.59 158.65 205.82 158.89" style="fill:none;stroke:#005ce6;stroke-linecap:round;stroke-linejoin:round;stroke-width:1.440060019493103px"/><polyline points="92.06 267.14 93.02 267.14 93.5 267.14 95.18 267.62 96.38 268.82 97.34 269.3 97.82 269.54 99.26 269.3 100.22 269.54 100.94 270.26 102.14 271.22 102.38 271.46 103.58 272.18 104.3 272.42 105.98 273.62 107.42 274.34 108.86 275.3 109.34 275.78 110.78 276.74 111.26 276.98 111.74 276.98 113.18 276.98 114.38 276.98 115.58 276.74 116.3 276.74 117.02 276.74 117.5 276.5 117.98 276.02 118.22 274.82 118.94 274.1 119.66 273.14 120.86 272.42 122.3 272.18 122.78 271.94 123.26 271.22 123.5 270.74 123.98 270.5 124.94 270.5 125.18 270.5 125.9 271.22 127.1 271.7 127.34 271.7 127.82 271.46 128.3 271.22 128.78 271.46 129.5 271.94 130.46 272.9 130.94 273.14 131.42 273.62 132.14 274.58 132.62 275.78 132.86 276.26 132.86 276.74 133.1 278.18 133.58 279.86 133.82 281.3 134.3 282.98 134.54 284.18 135.02 284.66 135.02 285.14 135.26 285.62 136.22 286.58 137.18 286.82 137.42 287.3 138.14 288.26 139.1 288.98 139.58 289.46 139.82 289.94 140.06 290.66 140.78 290.9 141.74 291.38 141.98 291.62 142.7 291.86 142.94 292.1 143.18 292.82 142.94 293.78 142.46 294.26 142.22 294.74 142.46 295.94 142.22 296.66 141.74 297.38 141.26 298.1 141.5 298.58 142.22 298.58 142.94 298.34 144.86 298.34 145.34 298.1 145.82 298.1 147.02 298.34 147.74 298.34 148.22 298.1 148.94 297.62 149.9 297.62 150.14 297.62 150.86 297.62 151.58 298.1 151.82 298.34 152.3 299.06 152.3 299.54 152.54 300.26 152.78 300.98 153.02 301.22 153.98 302.19 154.94 303.87 155.9 304.58 157.34 306.26 158.54 306.99 159.26 307.94 159.98 308.43 160.7 308.9 161.18 309.87 161.42 310.35 161.66 310.58 162.14 311.06 162.62 311.31 162.86 311.79 162.86 312.5 163.58 313.71 165.5 316.59 165.98 317.07 166.46 317.55 167.42 318.51 168.14 319.47 168.38 319.71 168.62 320.19 170.06 320.67 172.22 321.39 172.46 321.39 173.66 321.15 174.86 321.39 175.58 321.39 176.78 321.87 177.5 322.11 179.9 323.07 181.34 323.07 182.06 323.07 182.06 323.55 182.54 324.03 183.26 325.23 184.46 326.43 186.38 327.39 187.58 327.63 188.3 327.87 188.78 328.11 190.22 329.07 190.7 329.55 190.94 330.03 191.18 330.51 191.42 331.95 191.42 333.39 191.66 335.07 192.14 335.79 192.38 336.27 192.86 336.99 193.34 337.47 193.1 337.95 192.86 338.67 192.62 339.39 192.38 339.39 192.14 339.87 191.66 340.59 190.94 341.31 190.7 342.03 190.22 342.51 189.74 343.71 189.5 345.15 189.02 345.87 188.54 347.31 187.58 348.75 186.86 350.43 187.1 350.91 187.82 353.07 187.82 353.79 187.58 355.71 188.54 357.63 188.54 358.11 188.06 359.55 188.06 360.03 188.3 360.27 188.54 360.75 188.3 361.71 188.06 362.43 188.06 362.91 188.3 363.39 189.26 364.11 189.74 365.07 190.7 366.03 190.94 367.71 191.42 368.43 192.38 369.39 193.1 370.59 194.78 371.07 195.98 372.27 196.22 372.75 196.46 374.43 197.18 375.15 198.15 375.15 198.15 375.39 198.63 377.07 198.87 377.31 199.82 377.79 201.5 378.03 202.22 378.03 203.19 377.79 204.38 378.03 204.87 378.27 206.06 379.23 206.31 379.23 207.03 379.23 208.22 378.99 208.71 378.99 209.66 379.47 210.87 379.71 211.34 379.47 211.82 379.47 213.03 379.95 213.75 379.95 215.19 379.71 215.91 379.71 216.38 379.71 216.63 379.47 217.1 378.99 217.82 378.75 218.31 378.51 219.5 377.07 220.23 376.83 220.47 377.31 220.71 377.79 220.47 378.99 220.47 380.19 220.47 380.91 220.95 381.15 223.11 381.87 225.03 382.83 225.27 383.07 225.27 383.31 225.27 384.03 225.27 384.51 225.51 385.47 225.75 385.47 226.23 385.71 226.71 385.95 226.95 386.19 227.19 386.67 227.67 387.39 228.63 388.59 229.59 389.07 229.83 389.31 230.07 390.03 230.07 390.51 230.55 390.99 230.79 390.99 232.47 390.75 233.43 390.99 233.67 391.23 233.67 392.19 234.15 392.43 235.59 394.35 236.07 394.59 236.55 394.83 237.27 394.83 238.23 394.35 238.95 394.59 239.43 394.83 239.91 395.55 240.63 396.03 241.83 396.03 242.07 396.27 242.31 396.27 242.55 396.75 243.03 397.47 243.99 397.95 244.23 397.95 244.95 398.19 245.19 398.43 245.91 398.43 247.11 398.67 247.35 398.91 247.59 399.39 248.07 400.83 248.55 401.07 249.51 401.31 250.47 402.27 250.47 402.75 250.47 402.99 250.23 403.23 249.75 403.47 248.79 403.71 248.31 403.71 247.83 403.95 247.59 404.19 247.35 404.67 247.35 405.15 247.35 406.11 247.35 406.83 247.35 408.75 247.11 409.71 246.87 410.91 247.35 411.63 247.59 411.87 249.27 413.07 250.23 414.03 251.19 414.75 252.15 415.23 252.15 415.47 253.35 415.95 253.59 416.19 254.55 416.67 255.27 417.15 255.75 417.39 256.71 417.63 257.67 417.87 259.11 418.59 259.83 418.83 260.55 418.59 262.47 417.15 262.95 417.15 263.67 417.15 264.39 416.67 264.87 416.19 265.35 416.19 265.83 416.43 266.55 416.91 266.79 416.91 267.27 416.43 267.75 416.43 268.47 416.43 268.95 416.67 269.43 416.67 270.39 415.95 271.11 415.23 271.83 414.51 272.55 414.03 273.03 413.79 274.23 413.55 274.71 413.79 275.19 414.03 275.43 414.03 276.15 413.55 276.63 412.59 277.11 412.35 277.83 411.39 278.07 411.15 278.79 410.43 279.27 410.19 281.43 410.43 281.91 410.43 282.39 411.15 283.11 411.63 283.59 412.11 284.07 412.59 284.31 412.83 284.79 413.31 287.19 415.95 287.43 416.67 287.91 417.63 288.39 418.35 288.87 418.59 289.83 418.59 290.31 418.59 291.03 418.35 292.71 418.35 293.43 418.59 294.15 418.83 294.63 419.31 296.07 420.51 297.75 421.47 298.95 422.19 300.15 422.91 301.35 424.11 301.11 424.59 301.11 425.31 301.59 426.04 301.59 427 301.11 427.71 301.11 428.19 301.59 428.92 302.31 429.63 303.03 430.83 303.03 432.75 303.27 433 303.51 433.48 304.23 433.95 304.47 433.95 304.71 434.44 305.19 434.92 305.19 435.63 305.43 436.36 305.43 436.83 306.15 437.8 306.63 438.52 306.63 438.76 306.63 439.24 306.39 440.44 306.15 441.4 306.39 442.36 306.39 442.6 306.63 442.84 306.87 442.84 308.79 443.32 309.27 443.56 309.75 444.04 309.51 444.52 308.07 446.68 308.31 447.64 309.27 448.84 311.43 451.24 311.91 452.2 312.39 453.16 312.63 453.64 313.59 454.84 314.31 455.8 315.03 456.28 315.75 456.76 317.19 457 317.67 457 318.87 457 318.63 456.52 318.39 456.04 317.67 455.08 317.43 453.88 317.43 452.92 317.67 451.96 317.91 451.24 318.39 451 319.83 450.28 320.79 450.28 321.99 450.52 322.47 451 322.95 451.72 323.91 452.44 324.39 452.92 325.59 454.36 326.79 454.84 328.23 455.08 328.95 454.84 329.19 454.84 329.67 454.36 329.91 453.88 329.91 453.4 330.15 452.92 330.63 452.68 330.87 452.44 331.59 452.2 332.55 452.2 332.79 452.2 333.75 452.68 334.47 452.92 335.19 452.68 335.67 452.44 336.39 452.2 337.83 452.2 338.31 452.44 339.03 452.68 339.75 452.92 340.47 452.92 341.67 452.68 342.15 452.44 342.87 451.72 343.59 451.24 344.31 451 345.27 450.76 347.19 450.76 347.43 450.76 348.39 451.24 348.87 451.72 348.87 451.96 348.87 452.68 348.63 453.16 347.91 454.36 347.67 456.04 347.91 456.52 348.15 456.76 348.39 457 348.87 457.48 349.11 457.72 349.59 458.2 350.31 458.2 350.55 458.44 350.79 458.68 350.31 460.6 350.31 461.32 350.31 462.04 350.79 463.24 350.79 463.72 350.55 464.44 350.79 465.16 351.51 468.04 351.99 468.52 352.23 469.24 352.23 473.56 352.47 474.28 353.67 475.72 353.91 476.2 353.91 476.92 354.15 477.64 354.63 477.88 354.87 478.84 355.11 479.56 354.87 481.96 355.11 482.44 355.35 483.16 355.35 484.12 354.63 486.04 354.63 488.92 354.87 489.4 355.35 489.16 355.59 488.92 356.07 488.92 357.27 489.4 357.99 489.4 358.47 489.16 359.43 488.2 361.11 487 362.07 487 363.75 486.76 364.71 486.76 364.95 487 365.67 487.48 366.15 487.48 366.87 487.24 367.59 486.52 368.07 485.32 368.07 484.6 367.83 484.12 367.59 482.92 367.83 482.68 368.31 482.44 368.79 482.2 369.99 482.44 370.23 482.68 371.19 482.92 371.67 482.92 372.39 482.2 373.11 481.48 374.55 481.24 374.79 481.24 375.51 480.52 376.23 479.8 377.91 477.16 378.87 476.44 379.83 475.96 380.79 475.96 382.23 475.96 383.43 475.96 384.87 478.36 387.99 481.48 389.67 482.68 393.99 485.8 394.71 487 395.91 488.44 398.31 490.12 401.67 492.52 405.03 493.96 407.91 493.96 409.11 493.96 410.79 495.4 411.75 497.08 412.95 497.8 416.79 498.04 418.23 497.8 421.11 498.28 422.8 499.48 425.19 501.4 425.92 501.64 427.12 501.16 429.04 500.92 431.44 499.96 433.36 499.96 434.8 500.2 435.27 499.96 435.75 499.96 437.44 499.96 439.83 499.72 441.75 499.72 445.12 500.68 444.4 501.64 442.95 503.56 442.95 504.28 443.68 506.2 443.44 508.6 444.4 510.04 445.12 509.8 446.32 510.04 447.28 510.04 447.76 510.28 447.76 511 447.52 511.48 446.32 513.88 446.08 514.36 445.6 514.84 444.88 516.04 444.4 516.52 444.15 517 443.92 517.24 443.92 517.72 443.92 518.44 443.68 518.92 443.44 519.16 442.48 520.12 442.24 520.6 442.24 520.84 442.24 521.08 442.48 522.04 442.48 522.28 442 523 442 523.48 442 523.72 442.24 524.2 442.48 524.44 443.19 524.92 443.44 525.4 443.68 525.64 446.56 527.08 447.28 527.8 447.76 528.28 448.48 529.48 448.72 529.96 449.2 530.44 449.44 530.92 449.68 531.64 449.92 532.12 449.92 533.56 450.64 534.76 450.64 535.24 450.88 535.96 450.88 537.16 450.88 537.88 450.64 538.84 450.88 539.8 451.12 541 451.12 541.48 450.16 542.92 448.72 543.64 447.52 542.2 446.8 541 445.6 540.52 445.12 540.28 444.64 540.28 444.15 541 443.68 541.72 443.44 542.2 442.71 543.16 441.04 544.6 440.31 545.8 439.83 546.28 439.6 546.76 439.6 547 439.6 547.48 439.6 547.72 439.83 547.96 440.31 547.96 440.8 547.96 441.75 547.72 442.48 547.24 442.95 547.24 443.44 547.48 443.92 547.48 444.15 547.96 444.4 548.45 444.4 548.92 444.15 549.4 443.44 550.61 442.95 551.09 442.48 551.33 441.51 551.33 441.04 551.33 440.8 551.33 439.83 550.61 439.36 550.37 438.63 550.13 438.15 549.64 437.68 549.64 436.48 549.64 435.51 550.37 435.27 550.37 435.27 550.61 434.56 551.09 434.07 551.57 433.36 552.76 433.12 553.97 432.88 554.68 432.88 555.88 432.88 556.61 432.39 557.09 430.71 557.8 430 558.52 429.75 559 429.27 561.17 428.56 562.61 428.56 563.33 428.31 564.29 427.6 565.01 427.36 565.01 427.12 565.25 426.15 564.77 424.71 564.53 424.48 565.01 423.75 565.49 423.27 565.97 423.27 566.21 423.27 568.13 423.04 569.09 422.31 569.81 421.59 570.53 420.39 571.49 419.67 571.73 417.51 572.45 417.03 572.93 416.31 572.93 415.59 573.41 414.87 574.13 413.91 576.29 413.19 578.69 412.47 579.41 411.51 580.13 410.79 580.85 410.55 582.53 410.55 583.01 410.55 583.73 410.31 584.21 409.59 584.93 408.87 585.41 408.39 585.41 404.55 585.89 404.07 586.13 403.11 586.61 402.15 587.33 401.67 588.29 401.19 588.53 400.47 589.01 399.99 589.49 398.79 590.21 397.59 590.69 396.87 591.17 396.15 591.41 395.91 591.65 393.75 593.09 392.79 593.33 391.59 593.57 391.11 593.33 390.39 593.33 387.75 594.53 387.03 594.53 386.55 594.53 385.35 594.53 383.19 594.29 382.23 594.29 380.79 594.77 380.31 594.77 377.19 593.81 376.95 593.57 375.51 593.57 373.59 593.57 372.63 593.57 372.15 593.81 371.43 593.81 371.19 593.57 370.47 593.57 369.51 593.81 369.03 594.29 368.55 594.53 368.07 595.25 368.07 595.73 367.83 595.97 367.11 596.93 366.87 597.17 366.39 597.65 365.67 598.85 365.19 599.33 364.23 600.29 363.03 601.25 362.31 601.73 362.07 601.97 361.59 602.45 361.11 602.45 360.63 602.69 360.15 602.69 359.67 602.93 358.95 602.93 358.47 603.17 358.23 603.17 357.75 603.65 357.03 604.37 356.79 604.37 355.83 604.85 355.35 605.09 354.63 605.33 353.67 605.33 352.71 605.57 352.23 605.81 350.55 606.77 350.31 607.01 349.35 607.49 349.11 607.49 348.87 607.97 348.63 608.21 348.63 608.45 348.15 609.17 347.91 610.13 347.67 610.85 347.67 611.33 347.43 611.81 347.43 612.05 346.95 613.01 346.71 613.25 346.71 613.97 346.47 614.45 345.99 615.17 345.51 615.65 345.03 616.13 344.55 617.09 344.31 617.57 343.59 618.05 343.35 618.05 342.87 618.53 342.39 618.77 342.15 618.77 341.67 619.01 340.23 619.73 339.75 620.21 339.03 620.45 338.07 620.93 337.35 620.93 336.63 621.17 336.15 620.93 334.47 620.93 333.51 620.93 333.27 620.93 332.79 621.17 331.59 621.65 330.87 621.89 330.39 622.37 328.95 622.85 328.47 623.09 327.03 622.85 326.07 622.61 325.83 622.61 324.87 622.61 324.15 622.61 323.43 622.85 323.19 623.09 321.51 623.57 321.03 623.81 319.83 623.81 319.35 624.05 319.11 624.29 318.87 624.77 318.87 625.25 318.87 625.49 318.87 625.73 318.39 626.21 317.91 626.45 316.95 626.93 316.47 627.17 315.03 627.89 314.07 628.37 313.83 628.61 313.59 628.85 313.59 629.33 313.35 630.29 313.11 630.53 312.63 631.25 312.39 631.73 311.67 632.21 311.43 632.69 310.95 632.93 310.47 633.41 310.47 633.65 309.27 634.85 309.03 635.09 308.79 635.33 308.55 635.57 307.83 636.05 306.63 637.01 305.43 638.45 304.95 638.93 304.47 639.65 303.99 640.37 303.75 641.09 303.51 642.53 303.51 643.25 303.51 643.97 302.79 643.97 302.31 644.21 301.83 644.21 301.35 644.45 300.87 644.45 300.63 644.69 300.39 644.93 300.15 645.17 299.43 646.13 298.71 646.61 298.23 647.09 297.75 647.09 297.27 647.09 296.55 647.09 295.59 646.85 294.63 646.61 294.63 646.37 293.67 645.89 293.19 645.41 292.95 645.17 292.71 645.17 291.75 644.69 291.51 644.45 290.55 643.97 289.11 643.49 288.87 643.49 288.15 643.01 287.91 642.77 287.43 642.05 287.19 641.57 287.19 640.85 287.19 640.13 287.19 639.65 287.19 638.93 287.19 638.45 286.95 637.49 287.19 636.29 287.19 634.37 287.19 633.41 287.19 632.45 286.95 631.49 286.71 630.53 286.47 629.57 286.23 628.13 285.99 627.65 285.99 627.17 285.75 626.69 285.75 626.45 285.27 625.25 285.03 624.77 285.03 624.53 284.55 623.81 284.31 623.09 283.83 622.61 282.87 621.65 282.39 621.41 281.43 620.69 281.19 620.45 280.23 619.97 279.27 619.49 279.03 619.25 278.79 619.01 278.07 618.53 277.59 618.29 277.11 618.29 275.91 618.53 275.43 618.53 274.95 618.53 274.23 618.53 273.27 618.77 272.55 618.77 271.83 618.77 271.11 618.53 270.63 618.53 270.15 618.29 268.95 618.05 268.47 617.81 267.51 617.33 267.03 617.09 266.79 617.09 266.31 616.61 266.07 616.61 265.83 616.37 265.11 615.65 264.87 614.93 264.39 614.21 264.15 613.49 263.91 613.01 263.67 612.77 263.67 612.29 263.67 611.81 263.67 611.57 264.15 610.61 264.39 610.13 264.15 609.65 264.15 609.41 263.91 608.93 263.67 608.93 263.43 608.69 263.19 608.69 262.23 608.45 261.27 608.21 260.31 607.97 259.83 607.97 258.87 607.73 258.15 607.49 257.67 607.01 256.95 606.77 255.75 606.53 252.63 605.09 252.15 605.09 251.67 604.85 249.99 604.85 248.31 604.37 247.35 603.65 246.87 603.41 246.39 602.93 245.91 602.21 245.43 601.97 244.95 601.01 244.71 600.53 244.47 600.29 243.99 599.09 243.99 598.85 243.75 598.37 243.75 598.13 243.51 597.41 243.27 596.69 243.03 596.21 242.55 594.77 242.55 594.53 242.31 594.29 242.31 594.05 241.83 593.33 241.59 593.09 241.35 592.61 241.11 592.13 241.11 591.65 240.87 591.17 240.87 590.69 240.63 590.21" style="fill:none;stroke:#005ce6;stroke-linecap:round;stroke-linejoin:round;stroke-width:1.440060019493103px"/><polyline points="240.63 590.21 240.63 589.97 240.39 589.49 240.39 589.01 240.15 588.77 239.67 588.29 239.19 588.05 238.95 587.81 238.47 587.57 237.75 587.33 237.27 587.09 236.55 587.09 235.59 587.09 235.11 587.09 234.87 587.09 234.15 587.33 233.91 587.33 233.19 587.81 232.95 587.81 232.47 588.05 232.23 588.29 231.75 588.53 230.79 588.77 230.31 589.01 229.83 589.01 228.15 589.25 227.43 589.25 226.95 588.77 226.47 588.29 225.99 588.05 225.27 587.33 225.03 586.85 224.07 585.65 223.59 584.93 223.11 584.45 222.39 583.73 221.67 583.49 221.19 583.01 220.71 582.77 219.99 582.05 219.75 582.05 219.5 581.81 219.03 581.33 218.78 580.85 217.1 579.41 216.87 579.17 216.15 578.69 215.91 578.45 215.66 578.21 214.71 577.73 213.99 577.73 213.03 577.73 212.06 577.73 211.59 577.73 210.87 577.97 209.43 578.45 208.22 578.45 207.5 578.69 207.03 578.93 206.06 578.93 205.1 578.69 204.63 578.69 204.15 578.45 203.19 578.21 202.71 578.21 202.47 578.21 201.03 577.49 200.31 577.49 200.06 577.25 199.59 577.25 199.1 577.25 198.63 577.01 197.91 576.29 197.18 575.33 196.7 574.37 196.46 573.65 196.46 572.93 195.98 571.97 195.74 571.01 195.74 569.81 195.26 569.09 195.02 568.61 195.02 568.37 194.06 567.41 193.58 566.93 193.58 566.69 193.58 566.21 193.58 565.49 193.58 565.01 193.58 564.05 193.58 563.81 193.58 563.09 193.58 562.61 193.58 561.65 194.06 560.21 194.3 559.73 195.26 558.52 195.5 558.28 195.98 557.8 196.7 556.13 196.94 555.16 196.94 554.45 196.94 553.97 196.94 553 196.94 552.52 196.94 552.28 196.7 551.57 196.46 550.61 196.22 550.13 195.98 549.88 195.98 549.4 195.74 548.92 195.5 548.45 195.26 548.2 195.02 547.72 194.78 547.24 194.78 546.28 195.02 545.56 195.26 544.84 195.26 544.36 195.02 543.4 194.54 542.92 194.3 542.44 193.58 542.2 192.86 541.96 191.9 541.72 191.66 541.48 191.42 541.48 191.18 541.48 190.94 541.24 190.22 541.24 188.54 540.76 187.1 540.52 185.9 540.28 185.66 540.04 185.18 540.04 184.22 540.04 183.98 539.8 183.5 540.04 182.3 540.28 181.82 540.52 181.34 540.76 181.1 540.76 180.14 541 179.9 541 179.42 541.24 178.94 541.24 177.5 541.24 176.54 541.24 174.14 540.28 173.18 540.04 172.7 539.8 172.46 539.8 171.98 539.8 170.78 539.8 170.3 539.8 169.82 539.56 169.1 539.56 168.86 539.32 167.9 539.56 167.42 539.56 166.94 539.56 166.7 539.56 165.5 539.8 165.02 539.8 164.78 539.8 164.54 539.56 164.3 539.56 163.82 539.08 163.58 539.08 163.1 538.84 162.14 538.84 161.9 538.6 161.18 538.6 160.22 538.6 159.5 538.36 158.54 538.12 158.06 537.88 157.58 537.88 157.1 537.64 156.38 536.68 156.14 536.2 155.9 535.48 155.9 535 155.66 534.76 155.42 534.28 155.18 533.56 154.94 533.32 154.7 533.08 154.46 532.84 153.74 532.6 152.78 532.36 151.82 532.36 151.34 532.36 150.38 532.12 149.66 532.12 148.94 531.88 148.22 531.88 147.02 531.88 145.34 531.64 143.9 531.88 143.42 531.64 142.7 531.64 142.46 531.64 141.98 531.64 141.5 531.4 140.78 531.16 140.3 530.92 139.82 530.68 139.58 530.2 139.34 529.72 138.86 529.24 137.66 527.56 137.66 527.32 136.94 526.12 136.7 525.64 136.22 525.16 135.98 524.68 135.26 523.96 134.3 523.48 133.34 522.52 132.38 522.04 132.14 521.8 130.94 521.32 129.98 521.08 129.26 521.08 128.3 521.08 127.82 521.08 127.34 521.32 126.14 521.8 125.18 522.04 124.7 521.8 123.98 521.56 123.02 520.84 122.3 520.36 122.06 519.88 121.58 519.16 120.86 517.96 120.62 517.48 120.14 516.76 119.66 516.28 119.42 516.28 118.7 515.8 117.98 515.32 117.02 515.08 115.82 514.6 115.1 514.12 114.14 513.88 112.94 513.64 111.5 513.4 110.54 513.64 109.82 513.4 108.38 512.68 107.66 512.2 107.18 511.72 107.18 511 107.66 507.4 107.9 504.04 107.42 502.84 106.94 502.36 106.46 502.36 105.74 502.6 105.02 503.08 104.78 503.56 104.54 504.04 103.82 505.24 103.34 505.48 102.38 506.68 101.66 507.16 100.7 507.16 99.26 506.2 98.54 505.96 97.34 506.2 96.86 506.44 96.38 506.92 95.66 507.88 95.42 508.36 95.42 508.6 95.66 509.08 95.9 509.56 95.9 510.04 95.9 510.76 95.42 511.48 94.94 512.44 94.7 512.68 93.02 514.12 92.3 514.6 91.82 514.84 91.58 515.56 91.58 516.28 91.58 516.76 90.62 517 89.66 517.24 88.22 518.44 87.74 518.68 87.26 518.92 86.54 519.64 85.1 519.64 84.86 519.88 83.66 520.12 82.22 520.36 81.98 520.36 81.5 520.6 81.02 520.84 80.54 521.08 79.58 521.8 79.1 522.28 78.62 522.76 78.14 523.72 77.66 524.92 77.42 525.4 77.42 525.64 77.42 526.12 77.42 526.6 76.94 527.56 76.94 528.04 76.94 528.28 76.46 528.52 75.98 529 75.74 529.24 75.02 529.48 74.3 529.72 73.34 529.96 72.62 530.2 70.94 530.92 70.22 531.16 69.5 531.64 68.78 531.88 68.54 532.12 68.06 532.12 67.82 532.36 67.58 532.6 66.86 533.08 66.62 533.56 65.9 533.8 65.66 533.8 64.46 534.04 63.98 533.8 63.5 533.8 62.78 533.56 62.06 533.32 61.58 533.32 61.1 533.08 60.38 532.84 59.9 532.6 59.66 532.36 59.18 532.36 58.94 532.12 58.46 532.12 58.22 532.12 57.98 531.88 56.3 531.16 55.82 530.92 55.58 530.92 55.34 530.68 54.62 530.44 54.14 530.2 53.9 529.96 53.42 529.72 53.18 529.48 52.94 529.24 51.98 528.52 51.26 527.8 51.02 527.8 50.54 527.32 49.58 526.6 49.34 526.36 49.1 525.88 48.14 525.4 47.9 525.16 47.66 524.92 46.94 524.44 46.7 524.2 45.98 523.96 45.74 523.96 45.26 523.72 45.02 523.72 44.3 523.72 43.34 523.48 42.14 523 41.18 522.52 40.22 521.8 39.74 521.56 39.5 521.56 38.78 521.08 38.3 520.6 37.82 519.88 36.38 519.16 35.9 518.92 35.42 518.44 34.7 517.96 34.46 517.72 34.7 517.72 35.42 517.72 35.9 517.72 36.38 517.48 36.14 517 36.38 515.8 36.38 515.08 36.38 514.12 36.38 513.88 36.14 513.64 35.9 513.64 35.42 513.4 35.18 513.16 35.18 512.92 35.42 512.44 35.66 511.72 36.14 511.24 36.62 510.76 37.1 510.04 37.34 509.56 37.34 509.08 37.58 508.84 37.82 508.6 38.06 508.12 39.02 506.44 39.98 505.72 40.22 505.48 40.94 505.24 41.18 505 41.42 505 41.9 504.76 42.14 504.76 42.62 504.28 42.86 504.04 43.1 503.8 43.1 503.32 43.1 502.84 43.1 501.4 43.1 500.92 43.34 499.96 43.34 499.72 44.3 498.52 44.54 498.04 45.02 497.32 45.26 497.08 45.5 496.84 45.98 496.6 45.98 496.36 46.22 496.12 46.46 495.64 46.46 495.4 46.22 495.16 45.98 494.44 45.74 494.2 45.74 493.72 45.98 493.48 45.98 493.24 46.22 493.24 46.46 493.24 46.7 493.48 47.42 494.44 47.66 494.44 48.14 494.68 48.38 494.68 48.86 494.44 49.34 493.72 49.58 493.48 50.06 492.76 50.3 492.52 51.26 491.32 51.74 491.08 51.74 490.84 51.74 490.36 51.5 489.4 51.5 488.68 51.74 488.44 52.46 487.96 52.94 487.72 53.42 487.48 54.38 487.24 55.1 487.24 55.58 487 55.82 486.76 56.54 486.28 56.78 486.04 56.78 485.56 57.02 485.08 57.02 483.64 57.02 482.68 57.02 482.44 57.02 482.2 57.26 481.96 57.5 481.96 57.74 481.96 58.7 482.2 59.66 482.2 60.14 481.96 60.38 481.96 60.62 481.96 60.86 481.72 61.34 481 61.58 480.52 61.82 480.28 62.06 480.04 62.3 479.32 62.54 478.84 62.78 478.36 63.26 477.64 63.5 477.4 63.74 477.4 63.98 477.16 64.22 477.16 64.7 477.16 65.9 476.44 66.14 476.2 66.38 475.96 67.1 475 67.34 474.04 67.82 473.08 68.06 472.6 68.3 472.12 69.02 471.4 69.26 471.16 69.98 470.68 70.7 470.2 71.42 469.96 71.9 469.48 72.62 469.24 72.86 469 73.58 468.76 74.06 468.52 74.54 468.28 75.26 468.04 75.98 467.8 76.22 467.56 76.46 467.32 76.46 467.08 76.46 466.84 76.46 466.6 76.46 466.12 76.22 465.88 76.22 465.64 75.98 465.4 74.54 464.68 74.06 464.44 73.34 463.96 73.1 463.24 72.86 462.76 72.86 462.52 72.62 462.28 72.38 461.8 72.14 461.32 71.66 460.12 71.18 458.92 70.7 458.68 70.46 457.48 70.22 456.76 70.22 456.04 70.22 455.32 70.46 454.6 70.7 454.12 70.94 453.88 71.18 453.4 71.18 452.92 71.42 452.2 72.14 451.24 72.38 450.76 72.62 450.52 72.62 450.04 73.1 449.32 73.1 448.84 73.1 448.6 73.1 448.36 73.1 447.88 72.86 447.64 72.62 447.16 72.38 446.68 72.62 446.2 72.62 445.48 72.14 444.76 71.9 444.28 71.42 443.8 70.94 443.56 70.22 443.56 69.74 443.32 69.02 443.32 68.78 443.32 68.3 443.08 68.3 442.84 68.06 442.6 68.06 442.36 67.82 442.12 67.82 441.88 67.58 441.16 67.58 440.2 67.34 439.24 67.1 438.52 66.62 438.04 65.9 437.32 65.42 436.6 65.18 436.12 65.18 435.39 65.18 434.68 65.42 434.19 65.18 433.71 64.94 433.48 64.7 433.24 63.98 433.48 63.74 433.48 63.5 433.48 63.02 433.24 62.78 433 62.54 432.51 62.3 431.8 62.3 431.31 62.3 430.36 62.3 429.88 62.54 429.15 62.54 428.19 62.54 427.71 62.54 427.48 62.54 427.24 62.3 427.24 62.3 427 61.58 426.51 61.34 426.51 60.62 426.51 59.9 426.51 59.42 426.51 58.94 426.51 58.22 426.27 57.74 426.27 57.26 426.04 57.02 425.8 55.82 425.8 54.86 425.8 54.62 425.8 53.66 425.56 53.18 425.56 51.98 424.59 51.5 424.11 51.02 423.63 50.78 422.91 50.78 422.43 50.78 421.95 51.02 421.71 51.02 421.47 51.26 420.99 51.98 420.75 52.22 420.27 52.46 420.03 52.94 419.55 54.14 418.35 54.38 417.87 54.38 417.63 54.38 417.39 54.14 417.15 54.14 416.91 53.18 416.67 52.46 416.43 51.74 416.19 51.5 416.19 51.02 416.43 50.54 416.43 49.58 416.67 49.1 416.43 48.86 416.43 48.62 416.19 48.38 415.95 48.14 415.47 47.9 414.27 47.9 412.11 47.66 411.63 47.66 411.39 47.66 411.15 47.42 410.91 46.7 409.95 46.7 409.47 46.7 409.23 46.94 408.51 47.42 408.03 49.1 405.87 49.34 405.63 49.34 404.91 49.34 404.43 49.1 403.95 49.1 403.71 48.38 402.99 48.14 402.75 47.9 402.27 47.9 402.03 48.14 401.55 49.1 400.59 49.1 400.35 48.86 400.11 48.14 399.63 47.9 399.15 47.66 398.67 47.42 398.43 47.42 397.95 47.66 397.47 47.66 396.75 48.14 396.03 48.38 395.07 48.38 394.59 48.62 393.87 48.62 392.91 48.62 392.43 48.86 391.71 48.86 390.99 49.1 390.27 49.34 389.55 49.34 389.07 49.34 387.87 49.34 387.15 49.34 386.91 49.34 386.67 49.1 386.43 48.14 385.23 48.14 384.99 47.9 384.51 47.9 384.27 47.9 384.03 48.14 383.31 48.86 382.59 49.58 382.11 49.82 381.63 50.06 381.39 50.54 380.67 51.02 379.71 51.26 379.23 51.5 378.75 51.74 377.79 52.22 376.83 52.7 376.35 52.94 375.39 53.18 375.15 53.18 374.67 52.94 374.43 52.7 374.19 51.98 373.95 51.02 373.95 50.3 373.95 50.3 373.71 50.06 373.71 49.82 373.47 49.82 373.23 49.82 372.99 49.82 372.27 50.06 371.79 50.3 371.31 50.54 371.07 51.26 369.63 51.74 369.15 52.22 368.19 52.46 367.23 52.7 366.27 52.94 365.79 53.18 365.31 54.38 364.35 55.1 363.63 55.34 363.15 55.82 362.19 56.06 361.95 56.3 361.23 56.3 360.51 56.3 360.03 56.3 359.79 56.3 359.55 55.82 358.11 55.82 357.87 55.58 356.67 55.1 355.95 55.1 355.47 55.1 354.75 55.1 354.51 55.1 353.79 55.1 352.11 55.1 351.15 54.86 350.67 54.38 350.19 54.14 349.23 53.66 348.75 53.18 347.79 52.94 347.31 52.94 346.83 52.94 346.35 52.94 345.87 53.18 345.63 53.42 345.39 53.9 345.39 54.14 345.39 54.38 345.39 54.86 345.39 55.1 345.39 55.58 345.15 56.06 344.91 56.54 344.19 56.54 343.95 57.02 343.95 57.26 343.71 57.26 343.23 57.26 342.99 57.26 342.51 56.78 341.31 56.54 340.59 56.3 340.35 56.06 339.87 56.06 339.39 56.3 338.91 56.78 338.91 56.78 338.67 57.26 338.43 57.74 338.43 58.46 337.71 58.7 337.47 58.94 336.75 58.94 336.27 58.94 335.31 58.94 334.83 58.94 334.35 58.7 333.87 57.98 332.43 57.98 332.19 57.98 331.71 57.98 330.99 57.98 330.75 58.22 330.27 58.7 329.55 58.94 329.07 59.18 328.35 59.18 328.11 59.18 327.87 59.18 327.15 58.94 326.67 59.18 325.95 59.18 325.47 59.9 324.75 60.38 324.51 60.86 324.51 61.82 324.27 62.06 324.03 62.3 323.79 62.78 323.55 62.78 323.31 63.26 322.35 63.26 322.11 63.5 320.91 63.98 320.19 64.46 319.95 64.94 319.47 65.66 319.23 66.62 318.75 67.82 318.27 68.3 318.03 68.54 317.79 68.54 317.55 68.78 317.07 69.02 316.59 69.02 315.63 68.78 315.15 68.78 314.91 68.54 314.43 68.06 313.94 67.82 313.71 67.1 313.23 66.86 312.99 66.62 312.75 66.62 312.26 66.86 312.02 66.86 311.79 67.34 311.79 67.82 311.55 68.78 311.31 69.26 311.06 69.74 310.58 69.98 310.35 70.22 309.87 70.22 309.38 70.22 308.67 69.98 307.46 69.98 307.23 70.22 306.5 70.22 306.26 70.46 305.79 71.18 304.58 71.66 304.11 71.9 303.87 72.38 303.38 72.86 303.14 73.34 302.67 73.34 302.19 73.58 302.19 73.58 301.94 73.58 301.7 73.58 300.5 73.82 300.26 73.82 300.02 74.3 299.3 75.02 298.1 75.74 297.62 76.46 297.14 77.18 296.9 77.42 296.9 77.9 296.9 78.14 296.9 79.34 297.38 79.82 297.62 80.06 297.86 80.78 297.86 81.02 297.86 81.26 297.62 81.5 297.14 82.22 295.94 82.46 294.74 82.46 293.78 82.46 292.82 81.98 291.86 81.74 291.38 81.98 290.9 82.22 290.66 82.46 290.18 83.42 289.46 84.62 287.78 84.86 287.54 85.58 287.06 86.3 286.34 86.54 285.62 86.54 285.14 86.54 284.42 86.3 283.94 85.34 282.02 85.34 281.06 85.58 280.34 86.06 279.86 86.3 279.38 86.78 279.14 87.98 278.18 89.9 277.22 90.38 276.98 90.86 276.26 91.1 275.78 91.34 275.3 91.58 274.34 91.58 273.86 91.34 272.66 90.86 271.46 90.62 271.22 90.14 270.74 89.42 270.5 88.7 269.78 88.7 269.54 89.18 269.3 89.9 269.06 90.14 268.58 90.86 267.86 91.1 267.14 91.34 266.66 92.06 267.14" style="fill:none;stroke:#005ce6;stroke-linecap:round;stroke-linejoin:round;stroke-width:1.440060019493103px"/></g></g><g style="clip-path:url(#clip-path)"><g style="clip-path:url(#clip-path-3)"><polyline points="205.82 158.89 206.54 159.13 207.03 159.13 207.75 158.89 208.47 157.93 209.19 157.69 209.43 157.21 209.91 157.21 210.38 157.69 210.63 157.93 211.1 158.89 211.1 159.13 211.34 159.37 212.06 160.09 213.26 161.53 213.5 162.01 213.99 162.97 214.71 163.21 215.66 163.21 216.38 163.45 216.87 163.69 217.34 163.93 219.03 164.41 219.26 164.41 219.5 164.89 220.23 165.61 220.71 166.33 221.43 166.81 222.15 167.05 223.83 167.53 225.27 168.49 225.75 168.97 226.23 169.21 226.95 169.45 227.67 169.45 228.63 169.45 230.07 169.21 231.27 168.97 234.39 168.01 235.83 168.01 236.55 168.25 237.03 168.73 237.75 168.97 239.19 169.21 239.43 169.21 239.67 169.21 239.91 168.97 240.39 168.73 240.63 168.49 241.11 168.49 241.83 168.49 243.03 168.01 243.99 167.53 245.67 167.53 246.87 167.77 247.11 167.77 248.07 167.05 249.51 166.81 250.23 166.57 250.47 166.57 251.67 166.33 253.35 166.09 254.07 166.33 255.03 167.05 255.27 167.05 255.99 167.29 257.19 167.53 258.39 168.49 258.63 168.73 259.83 170.17 260.07 170.65 262.95 173.53 263.91 174.49 265.11 176.65 265.35 177.37 265.35 177.61 265.83 179.06 266.55 179.78 267.99 180.25 268.23 180.74 268.23 180.97 268.23 181.69 268.23 182.41 268.47 183.13 268.47 183.38 268.47 184.34 268.47 185.06 268.23 185.53 268.23 186.25 268.71 187.46 269.19 188.9 269.43 189.13 269.91 189.62 270.39 189.85 271.59 190.58 271.83 190.81 272.07 191.06 272.55 192.26 272.79 193.22 273.03 193.7 273.27 194.66 273.75 195.38 274.23 196.1 274.95 196.34 275.67 197.06 276.15 197.54 276.63 198.74 276.87 199.46 277.35 199.7 278.31 200.42 278.79 200.9 279.51 201.62 279.99 202.1 280.71 202.34 281.43 202.82 281.67 203.06 282.15 204.74 283.11 205.46 284.31 206.42 284.55 206.66 285.75 207.62 286.47 207.86 286.71 208.1 287.19 208.1 287.91 208.1 288.87 208.58 289.35 208.82 289.59 208.82 290.55 208.58 291.03 208.58 291.99 207.86 292.71 206.66 292.95 206.42 293.19 206.42 293.43 206.42 294.15 206.42 294.39 206.66 295.35 207.14 296.55 207.14 297.99 207.38 299.19 207.38 299.91 206.9 301.11 206.9 302.07 207.14 302.31 207.38 302.79 207.86 303.03 208.1 304.47 211.94 304.95 212.9 305.19 213.38 305.67 213.86 306.63 215.54 307.83 217.7 307.83 218.18 309.27 221.06 309.51 221.78 310.23 223.22 310.47 224.42 310.71 224.9 312.63 227.06 313.11 228.26 313.35 228.98 313.59 229.7 313.83 230.18 314.31 231.14 314.79 232.82 315.27 233.54 315.51 233.78 315.99 234.74 316.47 235.46 317.91 236.66 318.63 237.14 319.11 238.34 319.35 239.78 319.83 241.7 320.07 242.42 319.83 243.14 319.59 243.86 319.59 244.1 319.59 246.26 320.07 247.46 320.79 247.7 321.99 248.66 322.95 249.14 324.63 250.1 325.83 250.82 326.55 251.54 327.51 252.02 329.19 253.7 330.87 255.86 334.23 258.02 335.19 258.74 335.43 259.94 335.43 260.42 335.19 261.38 334.95 262.1 334.47 263.06 334.23 264.5 333.75 264.98 333.03 266.42 331.59 267.86 330.87 268.34 330.63 268.82 329.91 270.5 328.95 271.22 328.47 272.18 328.47 272.42 327.75 272.66 327.75 272.9 327.27 273.38 327.51 274.34 327.99 275.06 329.19 276.02 330.15 277.7 331.11 278.66 331.59 279.38 331.83 280.1 332.55 281.06 332.79 281.3 333.27 281.54 333.99 281.78 334.47 282.26 335.67 282.74 336.87 284.42 337.11 284.66 337.59 285.14 337.59 285.86 337.83 286.58 338.55 288.02 339.03 288.26 340.71 288.98 341.19 289.22 341.67 289.7 342.87 290.18 343.35 289.94 344.31 289.22 344.79 288.74 345.99 288.5 347.19 288.02 347.91 288.02 349.11 288.02 350.55 288.26 351.51 288.26 351.75 288.26 352.95 288.74 354.87 288.74 356.07 288.26 357.03 288.02 357.27 287.78 357.51 287.3 358.71 285.86 358.71 284.66 358.95 283.94 359.43 283.22 359.91 282.5 360.39 282.26 361.35 282.02 362.07 282.26 362.55 282.02 363.51 281.54 364.23 281.54 364.95 281.54 365.67 282.02 367.11 282.74 368.07 282.74 368.79 282.74 369.27 282.98 370.23 283.22 370.71 283.46 371.19 282.74 371.43 282.74 373.35 282.26 374.55 282.74 376.47 284.18 378.87 287.06 379.59 289.46 379.59 290.42 379.35 292.1 379.35 292.82 379.83 294.02 380.79 295.46 381.27 296.18 381.51 296.18 381.51 296.42 381.99 297.14 384.15 301.7 385.11 302.9 386.31 303.87 388.23 304.82 392.31 306.75 394.95 308.43 397.59 310.35 399.03 311.06 400.23 312.02 402.39 312.99 403.59 317.31 404.79 318.75 405.51 318.99 406.71 319.47 410.07 319.95 411.27 320.43 411.51 320.91 412.23 322.11 412.95 324.27 413.19 325.23 414.63 327.87 415.35 329.79 415.59 330.99 416.31 332.67 418.71 333.15 421.35 334.11 422.31 335.31 423.51 335.79 424.24 337.23 426.39 339.39 429.27 342.51 430.24 344.19 431.19 344.91 432.88 345.63 434.07 346.59 436 348.51 436.24 348.75 438.39 348.99 440.31 350.19 441.75 351.63 442.71 353.31 444.15 354.75 445.12 355.71 445.84 358.11 446.08 358.35 449.2 359.55 449.68 360.27 450.4 361.71 450.4 362.91 449.44 365.55 449.92 367.95 449.92 368.91 449.2 374.43 449.44 376.11 449.92 377.07 450.4 377.79 450.64 378.99 450.88 379.23 451.6 381.63 452.08 383.55 452.8 385.47 454.24 387.63 456.88 390.99 457.6 392.19 460 391.47 461.44 390.51 464.08 390.27 465.76 390.51 468.16 390.27 468.4 390.27 468.64 390.27 470.56 390.51 473.2 389.79 476.56 389.07 478.24 388.35 479.44 388.11 481.36 388.11 484.96 389.31 484.96 389.55 485.2 389.55 485.92 389.55 487.84 390.27 488.56 390.75 489.52 390.75 490 390.75 490.96 389.79 492.16 389.31 495.28 389.07 497.68 388.11 498.64 387.87 499.6 387.87 503.68 388.83 504.88 389.31 506.32 389.31 508 389.79 510.4 389.79 513.04 390.27 514.72 390.99 517.36 391.47 518.08 391.71 518.08 391.95 520 392.43 521.68 392.91 523.36 392.67 524.08 392.67 526 393.63 527.44 393.87 528.88 393.63 529.84 393.63 530.56 393.87 532.24 394.35 532.96 393.87 537.52 393.15 539.2 393.63 540.16 393.87 540.88 393.39 542.56 392.91 542.8 392.67 543.52 392.67 544.72 392.91 545.2 392.91 545.44 392.91 545.92 392.67 547.36 392.67 550 392.43 550.48 392.19 550.72 392.19 550.96 392.19 554.32 391.47 557.92 391.47 558.64 391.23 561.76 386.67 562 386.67 565.36 382.83 567.52 380.67 569.2 378.99 570.16 377.55 572.32 375.15 573.04 374.43 575.92 373.95 576.4 373.95 580.72 372.99 582.16 372.99 582.4 373.23 582.88 375.63 583.12 378.99 583.36 379.95 583.84 380.43 584.56 382.59 584.8 383.79 584.32 384.51 582.4 385.95 582.16 386.43 582.16 387.63 583.36 389.55 583.84 390.99 583.6 391.95 583.12 392.91 582.88 393.87 582.88 394.59 583.6 396.03 585.04 396.51 586.24 397.71 586.72 399.87 587.68 402.99 587.92 403.95 587.92 404.67 587.44 405.87 585.76 408.27 584.8 408.99 584.56 410.67 584.8 411.63 585.52 412.59 588.88 415.23 589.36 416.43 588.88 420.75 587.92 422.91 587.92 423.87 588.64 424.11 589.6 424.59 591.28 425.31 591.76 425.8 592.24 427.71 592.24 429.15 591.76 430.12 591.52 430.36 589.84 431.31 588.88 431.8 588.64 432.04 587.92 432.75 586.24 435.63 584.32 437.56 581.92 439 581.68 439.72 581.68 440.68 581.92 442.12 581.92 442.6 581.68 443.8 580.96 444.52 580.72 444.76 580 444.52 578.08 443.8 575.68 443.56 574.72 443.56 572.32 445 572.08 445 570.64 445.96 570.4 446.92 570.64 447.64 571.36 450.04 571.84 451.96 572.8 452.68 575.2 453.4 575.44 453.64 576.4 454.84 577.12 455.8 577.36 457.24 577.36 457.72 577.36 458.2 576.4 459.64 573.28 462.28 572.8 463.24 572.56 463.72 572.8 464.92 573.04 465.64 574 466.6 574.24 468.04 573.52 469.24 571.6 470.44 570.88 471.4 570.64 472.6 571.36 473.8 573.28 474.76 574.24 475.48 574.72 476.68 575.44 478.84 574.48 480.04 573.52 482.44 572.32 483.64 571.12 483.88 569.2 483.4 567.04 483.16 565.36 483.4 563.68 483.4 562.72 484.12 561.52 485.8 561.28 487 561.04 488.68 560.56 491.08 559.36 492.04 558.64 491.8 557.44 491.32 556.72 491.08 555.76 490.36 553.84 489.88 551.68 490.12 550.72 490.6 548.8 492.28 547.6 494.2 546.16 495.88 544.72 497.32 543.28 497.8 542.8 497.8 542.32 497.8 537.04 498.52 535.36 499 533.92 500.2 533.2 501.16 533.2 501.4 532.24 504.04 531.52 505.96 531.28 508.12 531.28 508.6 531.04 509.32 530.8 509.8 530.56 510.28 530.08 510.76 529.6 511 528.64 511 527.68 510.76 526.96 510.76 526 511 525.04 512.2 524.32 512.44 523.36 512.68 522.64 512.44 521.92 512.44 521.68 512.44 520.96 512.44 520.24 512.68 519.52 513.16 518.56 513.88 518.08 514.84 517.36 517.48 516.88 519.4 517.12 521.32 517.36 522.76 518.32 525.64 518.32 526.36 518.08 526.6 517.84 527.08 517.6 527.32 517.12 527.56 516.16 528.28 514.24 528.76 513.76 528.76 513.28 528.76 512.32 528.52 512.08 528.28 511.12 527.56 509.68 527.08 508.72 526.6 508 526.6 507.76 526.36 506.56 526.12 506.08 526.36 505.36 527.08 505.12 527.32 504.88 529 504.4 529.96 503.68 530.44 503.44 530.68 502.96 530.92 501.04 530.68 500.32 530.92 499.12 531.16 498.88 531.16 498.4 531.4 496.48 531.4 495.52 531.4 495.04 531.16 494.08 530.2 493.84 529.72 493.36 529.24 492.64 529.24 491.92 529.24 491.44 529.48 489.28 530.68 488.56 531.4 488.32 531.64 487.36 532.84 487.12 533.32 486.88 533.56 486.64 534.28 486.16 535.72 485.92 536.44 485.2 537.88 484.72 538.84 484.48 539.56 484 540.52 482.32 541.96 481.6 542.44 481.12 542.68 480.4 542.92 479.2 543.4 478.48 543.4 478 543.16 477.52 542.68 476.56 541.72 476.08 541.72 475.6 541.48 474.64 541.72 473.92 541.72 472.96 542.2 471.52 541.96 470.8 541.96 470.32 542.2 469.36 542.44 468.4 542.44 468.16 542.68 467.44 542.92 466 542.92 465.52 542.92 465.28 542.44 464.8 541.96 464.56 541.24 464.32 540.76 463.84 539.8 463.6 539.8 463.12 539.56 462.4 539.56 461.44 539.8 459.04 540.76 457.84 541.48 457.12 542.2 456.88 542.44 455.92 543.64 455.2 544.36 454.48 544.6 454 544.84 452.56 544.36 449.92 544.6 449.44 544.36 448.72 543.64 447.52 542.2 446.8 541 445.6 540.52 445.12 540.28 444.64 540.28 444.15 541 443.68 541.72 443.44 542.2 442.71 543.16 441.04 544.6 440.31 545.8 439.83 546.28 439.6 546.76 439.6 547 439.6 547.48 439.6 547.72 439.83 547.96 440.31 547.96 440.8 547.96 441.75 547.72 442.48 547.24 442.95 547.24 443.44 547.48 443.92 547.48 444.15 547.96 444.4 548.45 444.4 548.92 444.15 549.4 443.44 550.61 442.95 551.09 442.48 551.33 441.51 551.33 441.04 551.33 440.8 551.33 439.83 550.61 439.36 550.37 438.63 550.13 438.15 549.64 437.68 549.64 436.48 549.64 435.51 550.37 435.27 550.37 435.27 550.61 434.56 551.09 434.07 551.57 433.36 552.76 433.12 553.97 432.88 554.68 432.88 555.88 432.88 556.61 432.39 557.09 430.71 557.8 430 558.52 429.75 559 429.27 561.17 428.56 562.61 428.56 563.33 428.31 564.29 427.6 565.01 427.36 565.01 427.12 565.25 426.15 564.77 424.71 564.53 424.48 565.01 423.75 565.49 423.27 565.97 423.27 566.21 423.27 568.13 423.04 569.09 422.31 569.81 421.59 570.53 420.39 571.49 419.67 571.73 417.51 572.45 417.03 572.93 416.31 572.93 415.59 573.41 414.87 574.13 413.91 576.29 413.19 578.69 412.47 579.41 411.51 580.13 410.79 580.85 410.55 582.53 410.55 583.01 410.55 583.73 410.31 584.21 409.59 584.93 408.87 585.41 408.39 585.41 404.55 585.89 404.07 586.13 403.11 586.61 402.15 587.33 401.67 588.29 401.19 588.53 400.47 589.01 399.99 589.49 398.79 590.21 397.59 590.69 396.87 591.17 396.15 591.41 395.91 591.65 393.75 593.09 392.79 593.33 391.59 593.57 391.11 593.33 390.39 593.33 387.75 594.53 387.03 594.53 386.55 594.53 385.35 594.53 383.19 594.29 382.23 594.29 380.79 594.77 380.31 594.77 377.19 593.81 376.95 593.57 375.51 593.57 373.59 593.57 372.63 593.57 372.15 593.81 371.43 593.81 371.19 593.57 370.47 593.57 369.51 593.81 369.03 594.29 368.55 594.53 368.07 595.25 368.07 595.73 367.83 595.97 367.11 596.93 366.87 597.17 366.39 597.65 365.67 598.85 365.19 599.33 364.23 600.29 363.03 601.25 362.31 601.73 362.07 601.97 361.59 602.45 361.11 602.45 360.63 602.69 360.15 602.69 359.67 602.93 358.95 602.93 358.47 603.17 358.23 603.17 357.75 603.65 357.03 604.37 356.79 604.37 355.83 604.85 355.35 605.09 354.63 605.33 353.67 605.33 352.71 605.57 352.23 605.81 350.55 606.77 350.31 607.01 349.35 607.49 349.11 607.49 348.87 607.97 348.63 608.21 348.63 608.45 348.15 609.17 347.91 610.13 347.67 610.85 347.67 611.33 347.43 611.81 347.43 612.05 346.95 613.01 346.71 613.25 346.71 613.97 346.47 614.45 345.99 615.17 345.51 615.65 345.03 616.13 344.55 617.09 344.31 617.57 343.59 618.05 343.35 618.05 342.87 618.53 342.39 618.77 342.15 618.77 341.67 619.01 340.23 619.73 339.75 620.21 339.03 620.45 338.07 620.93 337.35 620.93 336.63 621.17 336.15 620.93 334.47 620.93 333.51 620.93 333.27 620.93 332.79 621.17 331.59 621.65 330.87 621.89 330.39 622.37 328.95 622.85 328.47 623.09 327.03 622.85 326.07 622.61 325.83 622.61 324.87 622.61 324.15 622.61 323.43 622.85 323.19 623.09 321.51 623.57 321.03 623.81 319.83 623.81 319.35 624.05 319.11 624.29 318.87 624.77 318.87 625.25 318.87 625.49 318.87 625.73 318.39 626.21 317.91 626.45 316.95 626.93 316.47 627.17 315.03 627.89 314.07 628.37 313.83 628.61 313.59 628.85 313.59 629.33 313.35 630.29 313.11 630.53 312.63 631.25 312.39 631.73 311.67 632.21 311.43 632.69 310.95 632.93 310.47 633.41 310.47 633.65 309.27 634.85 309.03 635.09 308.79 635.33 308.55 635.57 307.83 636.05 306.63 637.01 305.43 638.45 304.95 638.93 304.47 639.65 303.99 640.37 303.75 641.09 303.51 642.53 303.51 643.25 303.51 643.97 302.79 643.97 302.31 644.21 301.83 644.21 301.35 644.45 300.87 644.45 300.63 644.69 300.39 644.93 300.15 645.17 299.43 646.13 298.71 646.61 298.23 647.09 297.75 647.09 297.27 647.09 296.55 647.09 295.59 646.85 294.63 646.61 294.63 646.37 293.67 645.89 293.19 645.41 292.95 645.17 292.71 645.17 291.75 644.69 291.51 644.45 290.55 643.97 289.11 643.49 288.87 643.49 288.15 643.01 287.91 642.77 287.43 642.05 287.19 641.57 287.19 640.85 287.19 640.13 287.19 639.65 287.19 638.93 287.19 638.45 286.95 637.49 287.19 636.29 287.19 634.37 287.19 633.41 287.19 632.45 286.95 631.49 286.71 630.53 286.47 629.57 286.23 628.13 285.99 627.65 285.99 627.17 285.75 626.69 285.75 626.45 285.27 625.25 285.03 624.77 285.03 624.53 284.55 623.81 284.31 623.09 283.83 622.61 282.87 621.65 282.39 621.41 281.43 620.69 281.19 620.45 280.23 619.97 279.27 619.49 279.03 619.25 278.79 619.01 278.07 618.53 277.59 618.29 277.11 618.29 275.91 618.53 275.43 618.53 274.95 618.53 274.23 618.53 273.27 618.77 272.55 618.77 271.83 618.77 271.11 618.53 270.63 618.53 270.15 618.29 268.95 618.05 268.47 617.81 267.51 617.33 267.03 617.09 266.79 617.09 266.31 616.61 266.07 616.61 265.83 616.37 265.11 615.65 264.87 614.93 264.39 614.21 264.15 613.49 263.91 613.01 263.67 612.77 263.67 612.29 263.67 611.81 263.67 611.57 264.15 610.61 264.39 610.13 264.15 609.65 264.15 609.41" style="fill:none;stroke:#222;stroke-linecap:round;stroke-linejoin:round;stroke-width:1.6800800561904907px"/><polyline points="264.15 609.41 263.91 608.93 263.67 608.93 263.43 608.69 263.19 608.69 262.23 608.45 261.27 608.21 260.31 607.97 259.83 607.97 258.87 607.73 258.15 607.49 257.67 607.01 256.95 606.77 255.75 606.53 252.63 605.09 252.15 605.09 251.67 604.85 249.99 604.85 248.31 604.37 247.35 603.65 246.87 603.41 246.39 602.93 245.91 602.21 245.43 601.97 244.95 601.01 244.71 600.53 244.47 600.29 243.99 599.09 243.99 598.85 243.75 598.37 243.75 598.13 243.51 597.41 243.27 596.69 243.03 596.21 242.55 594.77 242.55 594.53 242.31 594.29 242.31 594.05 241.83 593.33 241.59 593.09 241.35 592.61 241.11 592.13 241.11 591.65 240.87 591.17 240.87 590.69 240.63 590.21 240.63 589.97 240.39 589.49 240.39 589.01 240.15 588.77 239.67 588.29 239.19 588.05 238.95 587.81 238.47 587.57 237.75 587.33 237.27 587.09 236.55 587.09 235.59 587.09 235.11 587.09 234.87 587.09 234.15 587.33 233.91 587.33 233.19 587.81 232.95 587.81 232.47 588.05 232.23 588.29 231.75 588.53 230.79 588.77 230.31 589.01 229.83 589.01 228.15 589.25 227.43 589.25 226.95 588.77 226.47 588.29 225.99 588.05 225.27 587.33 225.03 586.85 224.07 585.65 223.59 584.93 223.11 584.45 222.39 583.73 221.67 583.49 221.19 583.01 220.71 582.77 219.99 582.05 219.75 582.05 219.5 581.81 219.03 581.33 218.78 580.85 217.1 579.41 216.87 579.17 216.15 578.69 215.91 578.45 215.66 578.21 214.71 577.73 213.99 577.73 213.03 577.73 212.06 577.73 211.59 577.73 210.87 577.97 209.43 578.45 208.22 578.45 207.5 578.69 207.03 578.93 206.06 578.93 205.1 578.69 204.63 578.69 204.15 578.45 203.19 578.21 202.71 578.21 202.47 578.21 201.03 577.49 200.31 577.49 200.06 577.25 199.59 577.25 199.1 577.25 198.63 577.01 197.91 576.29 197.18 575.33 196.7 574.37 196.46 573.65 196.46 572.93 195.98 571.97 195.74 571.01 195.74 569.81 195.26 569.09 195.02 568.61 195.02 568.37 194.06 567.41 193.58 566.93 193.58 566.69 193.58 566.21 193.58 565.49 193.58 565.01 193.58 564.05 193.58 563.81 193.58 563.09 193.58 562.61 193.58 561.65 194.06 560.21 194.3 559.73 195.26 558.52 195.5 558.28 195.98 557.8 196.7 556.13 196.94 555.16 196.94 554.45 196.94 553.97 196.94 553 196.94 552.52 196.94 552.28 196.7 551.57 196.46 550.61 196.22 550.13 195.98 549.88 195.98 549.4 195.74 548.92 195.5 548.45 195.26 548.2 195.02 547.72 194.78 547.24 194.78 546.28 195.02 545.56 195.26 544.84 195.26 544.36 195.02 543.4 194.54 542.92 194.3 542.44 193.58 542.2 192.86 541.96 191.9 541.72 191.66 541.48 191.42 541.48 191.18 541.48 190.94 541.24 190.22 541.24 188.54 540.76 187.1 540.52 185.9 540.28 185.66 540.04 185.18 540.04 184.22 540.04 183.98 539.8 183.5 540.04 182.3 540.28 181.82 540.52 181.34 540.76 181.1 540.76 180.14 541 179.9 541 179.42 541.24 178.94 541.24 177.5 541.24 176.54 541.24 174.14 540.28 173.18 540.04 172.7 539.8 172.46 539.8 171.98 539.8 170.78 539.8 170.3 539.8 169.82 539.56 169.1 539.56 168.86 539.32 167.9 539.56 167.42 539.56 166.94 539.56 166.7 539.56 165.5 539.8 165.02 539.8 164.78 539.8 164.54 539.56 164.3 539.56 163.82 539.08 163.58 539.08 163.1 538.84 162.14 538.84 161.9 538.6 161.18 538.6 160.22 538.6 159.5 538.36 158.54 538.12 158.06 537.88 157.58 537.88 157.1 537.64 156.38 536.68 156.14 536.2 155.9 535.48 155.9 535 155.66 534.76 155.42 534.28 155.18 533.56 154.94 533.32 154.7 533.08 154.46 532.84 153.74 532.6 152.78 532.36 151.82 532.36 151.34 532.36 150.38 532.12 149.66 532.12 148.94 531.88 148.22 531.88 147.02 531.88 145.34 531.64 143.9 531.88 143.42 531.64 142.7 531.64 142.46 531.64 141.98 531.64 141.5 531.4 140.78 531.16 140.3 530.92 139.82 530.68 139.58 530.2 139.34 529.72 138.86 529.24 137.66 527.56 137.66 527.32 136.94 526.12 136.7 525.64 136.22 525.16 135.98 524.68 135.26 523.96 134.3 523.48 133.34 522.52 132.38 522.04 132.14 521.8 130.94 521.32 129.98 521.08 129.26 521.08 128.3 521.08 127.82 521.08 127.34 521.32 126.14 521.8 125.18 522.04 124.7 521.8 123.98 521.56 123.02 520.84 122.3 520.36 122.06 519.88 121.58 519.16 120.86 517.96 120.62 517.48 120.14 516.76 119.66 516.28 119.42 516.28 118.7 515.8 117.98 515.32 117.02 515.08 115.82 514.6 115.1 514.12 114.14 513.88 112.94 513.64 111.5 513.4 110.54 513.64 109.82 513.4 108.38 512.68 107.66 512.2 107.18 511.72 107.18 511 107.66 507.4 107.9 504.04 107.42 502.84 106.94 502.36 106.46 502.36 105.74 502.6 105.02 503.08 104.78 503.56 104.54 504.04 103.82 505.24 103.34 505.48 102.38 506.68 101.66 507.16 100.7 507.16 99.26 506.2 98.54 505.96 97.34 506.2 96.86 506.44 96.38 506.92 95.66 507.88 95.42 508.36 95.42 508.6 95.66 509.08 95.9 509.56 95.9 510.04 95.9 510.76 95.42 511.48 94.94 512.44 94.7 512.68 93.02 514.12 92.3 514.6 91.82 514.84 91.58 515.56 91.58 516.28 91.58 516.76 90.62 517 89.66 517.24 88.22 518.44 87.74 518.68 87.26 518.92 86.54 519.64 85.1 519.64 84.86 519.88 83.66 520.12 82.22 520.36 81.98 520.36 81.5 520.6 81.02 520.84 80.54 521.08 79.58 521.8 79.1 522.28 78.62 522.76 78.14 523.72 77.66 524.92 77.42 525.4 77.42 525.64 77.42 526.12 77.42 526.6 76.94 527.56 76.94 528.04 76.94 528.28 76.46 528.52 75.98 529 75.74 529.24 75.02 529.48 74.3 529.72 73.34 529.96 72.62 530.2 70.94 530.92 70.22 531.16 69.5 531.64 68.78 531.88 68.54 532.12 68.06 532.12 67.82 532.36 67.58 532.6 66.86 533.08 66.62 533.56 65.9 533.8 65.66 533.8 64.46 534.04 63.98 533.8 63.5 533.8 62.78 533.56 62.06 533.32 61.58 533.32 61.1 533.08 60.38 532.84 59.9 532.6 59.66 532.36 59.18 532.36 58.94 532.12 58.46 532.12 58.22 532.12 57.98 531.88 56.3 531.16 55.82 530.92 55.58 530.92 55.34 530.68 54.62 530.44 54.14 530.2 53.9 529.96 53.42 529.72 53.18 529.48 52.94 529.24 51.98 528.52 51.26 527.8 51.02 527.8 50.54 527.32 49.58 526.6 49.34 526.36 49.1 525.88 48.14 525.4 47.9 525.16 47.66 524.92 46.94 524.44 46.7 524.2 45.98 523.96 45.74 523.96 45.26 523.72 45.02 523.72 44.3 523.72 43.34 523.48 42.14 523 41.18 522.52 40.22 521.8 39.74 521.56 39.5 521.56 38.78 521.08 38.3 520.6 37.82 519.88 36.38 519.16 35.9 518.92 35.42 518.44 34.7 517.96 34.46 517.72 34.7 517.72 35.42 517.72 35.9 517.72 36.38 517.48 36.14 517 36.38 515.8 36.38 515.08 36.38 514.12 36.38 513.88 36.14 513.64 35.9 513.64 35.42 513.4 35.18 513.16 35.18 512.92 35.42 512.44 35.66 511.72 36.14 511.24 36.62 510.76 37.1 510.04 37.34 509.56 37.34 509.08 37.58 508.84 37.82 508.6 38.06 508.12 39.02 506.44 39.98 505.72 40.22 505.48 40.94 505.24 41.18 505 41.42 505 41.9 504.76 42.14 504.76 42.62 504.28 42.86 504.04 43.1 503.8 43.1 503.32 43.1 502.84 43.1 501.4 43.1 500.92 43.34 499.96 43.34 499.72 44.3 498.52 44.54 498.04 45.02 497.32 45.26 497.08 45.5 496.84 45.98 496.6 45.98 496.36 46.22 496.12 46.46 495.64 46.46 495.4 46.22 495.16 45.98 494.44 45.74 494.2 45.74 493.72 45.98 493.48 45.98 493.24 46.22 493.24 46.46 493.24 46.7 493.48 47.42 494.44 47.66 494.44 48.14 494.68 48.38 494.68 48.86 494.44 49.34 493.72 49.58 493.48 50.06 492.76 50.3 492.52 51.26 491.32 51.74 491.08 51.74 490.84 51.74 490.36 51.5 489.4 51.5 488.68 51.74 488.44 52.46 487.96 52.94 487.72 53.42 487.48 54.38 487.24 55.1 487.24 55.58 487 55.82 486.76 56.54 486.28 56.78 486.04 56.78 485.56 57.02 485.08 57.02 483.64 57.02 482.68 57.02 482.44 57.02 482.2 57.26 481.96 57.5 481.96 57.74 481.96 58.7 482.2 59.66 482.2 60.14 481.96 60.38 481.96 60.62 481.96 60.86 481.72 61.34 481 61.58 480.52 61.82 480.28 62.06 480.04 62.3 479.32 62.54 478.84 62.78 478.36 63.26 477.64 63.5 477.4 63.74 477.4 63.98 477.16 64.22 477.16 64.7 477.16 65.9 476.44 66.14 476.2 66.38 475.96 67.1 475 67.34 474.04 67.82 473.08 68.06 472.6 68.3 472.12 69.02 471.4 69.26 471.16 69.98 470.68 70.7 470.2 71.42 469.96 71.9 469.48 72.62 469.24 72.86 469 73.58 468.76 74.06 468.52 74.54 468.28 75.26 468.04 75.98 467.8 76.22 467.56 76.46 467.32 76.46 467.08 76.46 466.84 76.46 466.6 76.46 466.12 76.22 465.88 76.22 465.64 75.98 465.4 74.54 464.68 74.06 464.44 73.34 463.96 73.1 463.24 72.86 462.76 72.86 462.52 72.62 462.28 72.38 461.8 72.14 461.32 71.66 460.12 71.18 458.92 70.7 458.68 70.46 457.48 70.22 456.76 70.22 456.04 70.22 455.32 70.46 454.6 70.7 454.12 70.94 453.88 71.18 453.4 71.18 452.92 71.42 452.2 72.14 451.24 72.38 450.76 72.62 450.52 72.62 450.04 73.1 449.32 73.1 448.84 73.1 448.6 73.1 448.36 73.1 447.88 72.86 447.64 72.62 447.16 72.38 446.68 72.62 446.2 72.62 445.48 72.14 444.76 71.9 444.28 71.42 443.8 70.94 443.56 70.22 443.56 69.74 443.32 69.02 443.32 68.78 443.32 68.3 443.08 68.3 442.84 68.06 442.6 68.06 442.36 67.82 442.12 67.82 441.88 67.58 441.16 67.58 440.2 67.34 439.24 67.1 438.52 66.62 438.04 65.9 437.32 65.42 436.6 65.18 436.12 65.18 435.39 65.18 434.68 65.42 434.19 65.18 433.71 64.94 433.48 64.7 433.24 63.98 433.48 63.74 433.48 63.5 433.48 63.02 433.24 62.78 433 62.54 432.51 62.3 431.8 62.3 431.31 62.3 430.36 62.3 429.88 62.54 429.15 62.54 428.19 62.54 427.71 62.54 427.48 62.54 427.24 62.3 427.24 62.3 427 61.58 426.51 61.34 426.51 60.62 426.51 59.9 426.51 59.42 426.51 58.94 426.51 58.22 426.27 57.74 426.27 57.26 426.04 57.02 425.8 55.82 425.8 54.86 425.8 54.62 425.8 53.66 425.56 53.18 425.56 51.98 424.59 51.5 424.11 51.02 423.63 50.78 422.91 50.78 422.43 50.78 421.95 51.02 421.71 51.02 421.47 51.26 420.99 51.98 420.75 52.22 420.27 52.46 420.03 52.94 419.55 54.14 418.35 54.38 417.87 54.38 417.63 54.38 417.39 54.14 417.15 54.14 416.91 53.18 416.67 52.46 416.43 51.74 416.19 51.5 416.19 51.02 416.43 50.54 416.43 49.58 416.67 49.1 416.43 48.86 416.43 48.62 416.19 48.38 415.95 48.14 415.47 47.9 414.27 47.9 412.11 47.66 411.63 47.66 411.39 47.66 411.15 47.42 410.91 46.7 409.95 46.7 409.47 46.7 409.23 46.94 408.51 47.42 408.03 49.1 405.87 49.34 405.63 49.34 404.91 49.34 404.43 49.1 403.95 49.1 403.71 48.38 402.99 48.14 402.75 47.9 402.27 47.9 402.03 48.14 401.55 49.1 400.59 49.1 400.35 48.86 400.11 48.14 399.63 47.9 399.15 47.66 398.67 47.42 398.43 47.42 397.95 47.66 397.47 47.66 396.75 48.14 396.03 48.38 395.07 48.38 394.59 48.62 393.87 48.62 392.91 48.62 392.43 48.86 391.71 48.86 390.99 49.1 390.27 49.34 389.55 49.34 389.07 49.34 387.87 49.34 387.15 49.34 386.91 49.34 386.67 49.1 386.43 48.14 385.23 48.14 384.99 47.9 384.51 47.9 384.27 47.9 384.03 48.14 383.31 48.86 382.59 49.58 382.11 49.82 381.63 50.06 381.39 50.54 380.67 51.02 379.71 51.26 379.23 51.5 378.75 51.74 377.79 52.22 376.83 52.7 376.35 52.94 375.39 53.18 375.15 53.18 374.67 52.94 374.43 52.7 374.19 51.98 373.95 51.02 373.95 50.3 373.95 50.3 373.71 50.06 373.71 49.82 373.47 49.82 373.23 49.82 372.99 49.82 372.27 50.06 371.79 50.3 371.31 50.54 371.07 51.26 369.63 51.74 369.15 52.22 368.19 52.46 367.23 52.7 366.27 52.94 365.79 53.18 365.31 54.38 364.35 55.1 363.63 55.34 363.15 55.82 362.19 56.06 361.95 56.3 361.23 56.3 360.51 56.3 360.03 56.3 359.79 56.3 359.55 55.82 358.11 55.82 357.87 55.58 356.67 55.1 355.95 55.1 355.47 55.1 354.75 55.1 354.51 55.1 353.79 55.1 352.11 55.1 351.15 54.86 350.67 54.38 350.19 54.14 349.23 53.66 348.75 53.18 347.79 52.94 347.31 52.94 346.83 52.94 346.35 52.94 345.87 53.18 345.63 53.42 345.39 53.9 345.39 54.14 345.39 54.38 345.39 54.86 345.39 55.1 345.39 55.58 345.15 56.06 344.91 56.54 344.19 56.54 343.95 57.02 343.95 57.26 343.71 57.26 343.23 57.26 342.99 57.26 342.51 56.78 341.31 56.54 340.59 56.3 340.35 56.06 339.87 56.06 339.39 56.3 338.91 56.78 338.91 56.78 338.67 57.26 338.43 57.74 338.43 58.46 337.71 58.7 337.47 58.94 336.75 58.94 336.27 58.94 335.31 58.94 334.83 58.94 334.35 58.7 333.87 57.98 332.43 57.98 332.19 57.98 331.71 57.98 330.99 57.98 330.75 58.22 330.27 58.7 329.55 58.94 329.07 59.18 328.35 59.18 328.11 59.18 327.87 59.18 327.15 58.94 326.67 59.18 325.95 59.18 325.47 59.9 324.75 60.38 324.51 60.86 324.51 61.82 324.27 62.06 324.03 62.3 323.79 62.78 323.55 62.78 323.31 63.26 322.35 63.26 322.11 63.5 320.91 63.98 320.19 64.46 319.95 64.94 319.47 65.66 319.23 66.62 318.75 67.82 318.27 68.3 318.03 68.54 317.79 68.54 317.55 68.78 317.07 69.02 316.59 69.02 315.63 68.78 315.15 68.78 314.91 68.54 314.43 68.06 313.94 67.82 313.71 67.1 313.23 66.86 312.99 66.62 312.75 66.62 312.26 66.86 312.02 66.86 311.79 67.34 311.79 67.82 311.55 68.78 311.31 69.26 311.06 69.74 310.58 69.98 310.35 70.22 309.87 70.22 309.38 70.22 308.67 69.98 307.46 69.98 307.23 70.22 306.5 70.22 306.26 70.46 305.79 71.18 304.58 71.66 304.11 71.9 303.87 72.38 303.38 72.86 303.14 73.34 302.67 73.34 302.19 73.58 302.19 73.58 301.94 73.58 301.7 73.58 300.5 73.82 300.26 73.82 300.02 74.3 299.3 75.02 298.1 75.74 297.62 76.46 297.14 77.18 296.9 77.42 296.9 77.9 296.9 78.14 296.9 79.34 297.38 79.82 297.62 80.06 297.86 80.78 297.86 81.02 297.86 81.26 297.62 81.5 297.14 82.22 295.94 82.46 294.74 82.46 293.78 82.46 292.82 81.98 291.86 81.74 291.38 81.98 290.9 82.22 290.66 82.46 290.18 83.42 289.46 84.62 287.78 84.86 287.54 85.58 287.06 86.3 286.34 86.54 285.62 86.54 285.14 86.54 284.42 86.3 283.94 85.34 282.02 85.34 281.06 85.58 280.34 86.06 279.86 86.3 279.38 86.78 279.14 87.98 278.18 89.9 277.22 90.38 276.98 90.86 276.26 91.1 275.78 91.34 275.3 91.58 274.34 91.58 273.86 91.34 272.66 90.86 271.46 90.62 271.22 90.14 270.74 89.42 270.5 88.7 269.78 88.7 269.54 89.18 269.3 89.9 269.06 90.14 268.58 90.86 267.86 91.1 267.14 91.34 266.66 91.82 265.22 91.82 264.5 91.82 263.54 92.3 262.58 93.02 261.38 94.94 258.98 95.18 258.26 95.42 257.78 96.14 255.86 96.62 254.9 97.1 253.22 97.82 252.5 98.06 251.78 98.54 250.82 99.02 250.1 99.5 249.62 99.74 249.14 101.66 248.18 102.86 246.74 103.82 245.54 104.54 245.06 106.7 244.34 107.18 244.1 107.9 243.62 108.14 243.14 108.38 242.66 108.86 242.18 109.34 241.7 109.58 241.7" style="fill:none;stroke:#222;stroke-linecap:round;stroke-linejoin:round;stroke-width:1.6800800561904907px"/><polyline points="109.58 241.7 110.06 241.94 110.78 241.94 111.26 241.7 111.98 241.22 112.94 240.02 114.38 238.82 114.86 238.82 115.34 238.82 115.82 238.58 116.3 238.1 117.02 237.86 117.98 237.86 117.98 238.1 118.46 238.58 118.7 238.58 119.18 238.58 119.66 238.34 119.9 237.86 120.14 237.14 120.38 236.66 120.86 236.18 121.82 235.94 123.02 235.94 123.98 235.7 125.9 234.5 126.62 234.02 127.58 233.54 127.82 233.3 128.54 233.06 129.74 231.86 130.22 231.38 130.46 231.14 131.18 230.9 131.42 230.66 131.9 230.42 131.9 230.18 131.9 229.22 131.66 228.02 131.66 227.06 132.38 225.62 132.62 224.42 132.62 223.94 132.62 222.5 132.86 222.26 133.34 222.02 133.82 221.78 134.3 221.54 134.78 221.3 134.78 220.82 134.78 219.86 135.02 219.38 135.5 218.9 136.22 218.66 136.94 218.66 137.66 218.42 138.38 217.94 138.86 217.94 140.3 216.98 141.5 216.02 142.94 215.06 144.14 214.58 144.86 214.58 145.1 214.82 146.06 214.58 146.78 214.1 147.02 214.1 147.26 213.38 147.74 212.42 147.74 211.94 148.22 210.98 148.46 210.5 149.42 209.78 150.38 208.82 151.34 208.1 152.3 207.38 152.3 207.14 152.54 206.66 152.54 205.94 153.02 205.22 154.7 204.74 155.18 204.26 155.42 203.78 155.18 203.06 155.18 202.82 155.42 202.34 155.9 202.1 156.38 201.86 157.34 201.86 157.82 201.62 158.54 201.38 158.78 200.9 159.26 199.7 159.5 199.46 159.98 198.74 160.22 197.78 160.46 196.58 160.94 195.86 161.18 195.38 161.9 193.94 162.62 192.98 163.1 192.98 163.58 192.5 165.26 192.02 166.46 192.26 166.94 192.26 168.14 192.26 168.38 192.02 168.86 191.78 169.1 191.3 169.1 191.06 169.58 189.38 169.82 188.9 170.06 186.5 170.3 185.29 170.54 184.81 171.02 184.09 171.74 183.13 172.94 182.41 173.42 182.18 173.66 181.94 173.66 180.97 173.9 180.25 174.14 179.78 174.62 179.53 175.58 178.33 176.3 177.85 176.54 177.85 177.02 177.61 177.5 177.61 177.98 177.37 178.46 177.13 178.46 175.93 178.46 174.73 178.94 173.29 179.42 172.09 179.66 171.13 179.66 170.89 180.38 169.69 181.34 168.73 181.82 168.01 182.54 167.29 183.02 166.57 183.26 166.33 183.98 165.13 184.94 164.65 185.9 164.17 186.62 163.45 187.58 162.73 190.7 161.29 192.86 160.81 193.58 160.33 194.54 160.57 195.02 160.57 195.26 160.57 196.7 160.09 197.42 159.85 197.66 159.37 198.38 159.37 198.87 159.37 200.54 158.89 201.99 158.89 202.47 158.65 203.19 158.41 203.43 157.93 203.43 157.69 203.91 156.73 204.38 157.21 205.59 158.65 205.82 158.89" style="fill:none;stroke:#222;stroke-linecap:round;stroke-linejoin:round;stroke-width:1.6800800561904907px"/></g></g><g style="clip-path:url(#clip-path)"><g style="clip-path:url(#clip-path-3)"><text transform="translate(332.43 358.59)" style="font-size:16px;fill:#222;font-family:TimesNewRomanPS-BoldMT, Times New Roman;font-weight:700">1</text><text transform="translate(337.23 358.59)" style="font-size:16px;fill:#222;font-family:TimesNewRomanPS-BoldMT, Times New Roman;font-weight:700">(</text><text transform="translate(340.59 358.59)" style="font-size:16px;fill:#222;font-family:TimesNewRomanPS-BoldMT, Times New Roman;font-weight:700">1</text><text transform="translate(345.63 358.59)" style="font-size:16px;fill:#222;font-family:TimesNewRomanPS-BoldMT, Times New Roman;font-weight:700">)</text></g><g style="clip-path:url(#clip-path-3)"><text transform="translate(211.23 470.92)" style="font-size:16px;fill:#222;font-family:TimesNewRomanPS-BoldMT, Times New Roman;font-weight:700">1</text><text transform="translate(216.03 470.92)" style="font-size:16px;fill:#222;font-family:TimesNewRomanPS-BoldMT, Times New Roman;font-weight:700">(</text><text transform="translate(219.39 470.92)" style="font-size:16px;fill:#222;font-family:TimesNewRomanPS-BoldMT, Times New Roman;font-weight:700">2</text><text transform="translate(224.43 470.92)" style="font-size:16px;fill:#222;font-family:TimesNewRomanPS-BoldMT, Times New Roman;font-weight:700">)</text></g></g></svg>