<svg  viewBox="0 232 250 250"  version="1.1" xmlns="http://www.w3.org/2000/svg" xmlns:xlink="http://www.w3.org/1999/xlink">
  <g>
    <path id="path-06010" d="M131.62680649741014,332.8072925667311L132.03309205144978,334.4500128436348L132.61051109379332,334.9890807149968L133.6996049877307,335.2057499523353L134.0545473468228,335.16918641610755L134.35678898516744,335.75313286154415L134.0480804319359,336.5975924322802L134.96187688096143,337.91840406969186L136.04533173693562,338.5401117366664L136.83345708685374,338.8644040255267L137.25289930338658,339.9767445300058L138.05534300901127,340.3952936937585L138.59696980100307,340.5470458733298L139.29381935006495,340.9417627042785L139.55623341860155,340.7797610740936L140.9856374963656,341.1334880578588L142.2302131135475,340.9665623120836L142.97617708029793,341.591042328796L143.40586174545933,342.2074676062193L143.7480946754622,343.07332741864866L144.00086612411724,343.3879144081502L144.9172955635513,343.96767643552903L145.30166330805514,344.4075417857366L146.66303435479313,343.9796316650081L148.10498720620126,344.0672194186345L149.29801411348308,346.0158240884548L149.74329391801803,346.9083209737937L150.34236107461766,347.17375405791245L151.3253876154613,346.8954893045775L152.7524942765649,346.8139264557112L153.3639348650322,346.5808232479776L154.16051767070712,346.58291935694706L154.66653631606277,346.37186310114794L155.42260142486703,346.8344917431541L155.97934044641806,346.9477619245099L156.86179186480695,346.5140281885642L157.2754521492625,346.8136343216738L158.57224455380492,347.1000014953379L159.70437663521443,347.433781057749L160.46112899224863,347.97832123027365L161.67589512804625,349.2374871046459L162.02807197224865,350.05763901152295L163.32675324067532,350.50781700116477L164.07583723542484,350.9485348792632L164.76359676997345,351.1736478601888L165.6275105749628,350.9960838764291L166.17100002674124,351.2076529752085L166.96514467157613,351.1535451149339L167.40462020385894,351.3645766913778L167.86364162820973,352.2773431048063L168.72882620820565,352.6493997317866L169.36730755190365,353.09762680623044L169.97944135632133,353.29770680212187L170.679485742814,352.86386516514904L171.70978088217998,353.0154516187431L172.92605368363547,353.56157789580084L173.2037715413535,353.8261823495759L175.3072878090643,354.85928362348113L175.98103587177866,355.02934406944405L176.5642465373512,355.4818462605517L177.7497033957752,355.16106746734476L178.15187537960992,354.70095876084997L177.82590321216048,353.65485159248874L177.69604939794772,352.292449087543L178.14261227229326,351.566017020099L179.39404817704053,351.5034399997012L180.0955688471313,350.7418296109545L180.5808926269583,349.2451001882364L180.8623681386871,348.6627503817581L181.3442074397699,348.2323654040092L182.78604692129193,347.4066783013386L183.41311159712677,346.2742501073708L183.29264971982957,344.8278906415726L182.74544564464486,343.6804993238884L182.78187616368814,343.4256275224134L183.3647664657583,343.0475871922108L183.72135462542246,341.85033638629193L183.82586854671536,341.010557898162L184.0107943110961,340.76586183123163L184.19126747314658,338.68514931902973L184.53957739445104,338.2487035922122L185.2387869783306,337.7043033761438L185.8274456041836,338.04165403116804L186.74658909960272,338.3279892798764L188.04032527965683,338.9309919354055L188.69114601944057,339.763485319786L190.19498086650128,340.42889863970777L190.94039315633017,341.717378951339L192.26468603875583,343.05420484614206L192.99933812509153,343.9147195072883L193.20964377798555,344.62120384631817L193.2936107556743,345.418382914434L194.17585228291682,346.3152585711314L194.55111520095488,347.86319578628627L194.63722708070418,349.47250930415976L195.68533510641464,349.9536032427459L196.44521056827216,350.49255841079594L196.87266592004016,351.0718124267014L196.5632258288988,351.381483393493L196.54749591321706,352.5334628631572L197.07510103239474,352.7424601223174L197.91770828747394,353.4663398286357L198.2092995081075,353.58098517540293L200.1465932506635,353.53271624709487L200.69679315615213,353.6848968526647L201.38705513891182,353.42511727082456L202.43176188304096,353.38700120737576L203.55021445392413,353.7287416618383L204.74025551239902,353.628920527226L205.3650166413936,353.86040295777275L205.66883406519446,354.18829008473585L206.22214904156317,353.8790812362813L207.11390951933026,354.2322271709645L208.04450656549125,353.9473123878588L208.99869286207831,354.46055734911806L210.34797943889134,354.9275258002417L212.1416625487309,354.0427025646295L213.6500305602076,354.08302572884895L214.1399378007809,354.1988196638167L214.8670174659037,354.12089103866856L215.72938519626405,354.47722169748704L216.5765752997395,353.91703223010063L217.22449071006486,353.8664656685478L219.00041092204447,353.4183164676988L221.27131432245915,353.4138278039454L221.95600429136175,353.17578760068955L222.96045862105893,353.3388745929533L224.2815174593161,353.1882977542373L225.48638093567024,353.2889073195074L225.92572896198362,353.2002781780129L226.8176201225633,353.31536855123795L228.2643739348896,354.09034902239546L227.5557943330441,354.576953449191L226.74758139417463,354.1357833753991L226.12777077029568,354.064755988461L225.79943529735465,354.4751633169253L225.65659416786548,355.6500107608008L224.95127579666223,356.3409531349316L224.76428338799997,356.7643899459563L225.1185282340084,357.4611233813821L225.30783037031142,358.1663465898009L225.67585904538646,358.4980418328423L225.76136290494105,358.9266189471018L225.07281047444485,359.60576672183197L224.55440552092114,359.5558649658924L223.4719687700508,359.0685253147112L221.94869629893583,359.04300968712323L221.32580639982734,359.376138981469L221.57330052289035,360.4531233301259L222.12234257081218,361.6349058570604L222.46739658963634,362.01059459752014L222.7774312437723,362.7980462075957L222.53068674552196,363.28780427911533L221.0997341930488,364.0835463914964L220.64264742934756,364.591213196617L221.14563033434933,365.88404485420324L220.74787051104067,366.530083611171L219.77835145246536,366.763889984466L219.63873395972223,367.3897413232353L219.34527981409155,367.9092493093958L219.71103477215183,368.48708349915523L220.14560213811455,368.8558879428401L220.94277751315894,369.1221510846044L221.54094283318045,369.6217081071709L221.88300151294425,370.2979761299348L222.17979035601456,371.4036313996339L223.4430619336472,372.32727519748005L224.13252602060675,373.3757659224266L224.1160742756456,374.5657375188148L224.20436482093464,375.37983058839745L224.10117298591103,376.1818868977334L224.4851740130398,376.6427813250639L225.09375673923023,376.8613183318139L225.5688635241404,377.3317523741407L225.90393114945618,378.12296373344907L225.72849924767797,378.510674355045L224.75385128987728,378.90121264286245L224.52873418602212,379.345140159995L224.51086667408163,380.10893401577596L225.4466293033529,381.7932527782441L224.11084328011384,383.73282862381166L223.42952648595565,384.2860838523857L222.25033695119964,385.8692662927406L222.28762250347245,386.1967039065712L222.74322425177706,386.9277660097323L222.63450965076845,387.770472049413L222.24411659724865,388.07703333095105L221.3582294119351,388.1429859748141L220.83433512416923,388.65680199794133L220.27272262846054,388.6089093644241L219.90389520744975,388.8356531008858L218.71150479402422,389.07583115986563L218.15969050020067,389.77740241458287L217.45465013731337,390.2701060820227L217.3074280398414,390.94808315834143L217.8112142449554,391.2382085252866L217.97915416431715,391.7500434441272L217.71981649728514,392.05806042492986L216.59619442023723,392.37621766860866L214.70448859795215,392.00544848915706L214.09498567521769,391.6898741256573L213.54735099435493,391.1567947830372L213.0372042270701,391.3278140600223L212.99016301521078,392.0215891280868L213.84607893336943,392.50819717718787L213.62952516893893,393.11277564058673L213.77284067502296,393.88037638219794L213.57652867685283,394.33522833837924L212.78961877565962,394.93578496783175L213.08752253073544,395.35743948986965L212.92865948838516,395.66975401552463L213.0631803473716,396.3625836219944L213.64773621898348,396.685482368528L213.73043622039768,397.1608819944295L214.09564916890122,397.556497344317L214.90912859479067,398.0088128555635L215.34828873835795,399.10303947789816L215.15656736261008,399.44075586121653L215.42514735233271,400.32245310536655L216.18264118422667,400.5126718893616L216.58918081353113,401.214107919689L217.11551675603914,401.67724185300267L218.51450180351821,402.12549562569166L218.3517804120911,402.40679943552004L216.84969301459932,402.9896801869272L215.96107636492889,403.8741240803265L216.16393605357734,404.5931135768815L215.72517503215386,406.0793959060975L216.0595980180933,406.41867298088073L216.4524156619682,407.5271809277983L216.83373584304354,408.0626508291034L216.70117012557785,408.55066833432556L215.86328284048795,408.8474865350545L214.78838722378168,410.35312848815374L213.9692770893762,410.7955942548633L212.8031336200911,410.41818936429536L212.20277287831777,411.1735035449865L211.281865123854,411.59501509940947L209.95172038190685,412.57915988210516L209.31438738415636,412.7025133847683L208.6411066414512,412.66471414291664L208.1616010096659,413.50937256248926L206.94054623974262,413.38783185458124L206.1632969897637,413.1415929853165L205.64437910538254,412.46164057072656L203.73846957420392,411.5424874587543L202.3572687273827,411.1822319250896L201.38946557840245,410.06436219428906L201.00118464686784,409.98619124613924L199.97604931228125,410.0868673947107L199.24591596828031,409.9335377749503L198.7335658207885,409.4482967720023L198.38464827251664,409.4557478944498L197.95433869400404,408.8379873587537L196.82539390534112,408.7192745723496L196.5792552593157,408.8383852108336L195.48810102988864,408.4971462544445L194.80683054092333,408.1788905245321L194.22594117697008,408.12878123850896L193.63411927663583,407.59316712873624L193.6049420310901,407.30650145567506L192.10960381578843,406.50393952067316L191.09798946150295,406.6178672927681L190.22063378492203,406.4099155401864L189.57596963356627,406.0893812769591L189.56718486575664,405.8726978154791L189.57919540898,405.6481756508829L189.5153479196706,405.4249527268548L189.35488370158237,405.20336000091356L189.1978759170379,405.146239518911L188.79362293277518,404.95143539001674L188.2663388664423,404.90486492609125L188.09935184583628,404.9714937749295L187.60062143964024,405.2721653431763L187.38487714974144,405.2275258828431L187.1687285146254,405.1713859824267L186.89266677250816,405.0750994171085L186.51953503634286,404.9729108134552L185.9333801082921,404.9600831067746L184.96651324087543,404.88661056622277L184.91498927824068,404.842532328611L184.60672805528156,404.62361151284586L184.14389487949666,404.26847553240987L183.94164762454056,404.27212796303957L183.91640651776834,404.2724222363586L183.72835377775118,403.5612587452715L183.4872795033225,403.3295016191678L183.0971610374836,403.2201851646214L182.7714506476077,403.1696193364969L182.1105720465057,403.610919333767L181.4396754170466,403.3262339692519L181.04836351484482,402.8911083301391L180.13205084166293,402.72614594509014L179.79379751414308,403.28566724356824L178.6615600989553,403.26893972746984L178.12665510656007,403.0257839936239L177.39053581316875,403.0361673321677L176.61482756729492,403.38408128221454L176.56604920535392,403.4748852217863L176.55369221178626,403.4898396365461L176.52577026959443,403.56529712837164L175.73596484471636,403.86232270977143L175.59756167339583,403.88719928987666L175.40982857763083,403.97631489109426L175.3770931170693,404.0256484322272L175.12238855918986,404.56181255615957L175.0806410622081,405.44712690646156L175.07798471861315,405.5222778787038L175.0759782156274,405.64207114478813L175.17974099600906,406.0007758889378L175.1984437561914,406.0937222646271L175.2621193625855,406.2930257337666L175.20914076580993,406.4134320461835L175.03708751620434,406.72105589746843L174.94627780618976,406.83770270965397L174.9053740098916,406.9126337281841L174.3089559455584,406.89115935231075L174.0317444008997,406.8785480140896L173.81825503421896,406.9211232794769L173.76815273101056,406.9367640514056L173.50495352872167,407.0285873474604L172.93865176186227,407.0590299171472L172.73569239917015,406.9562144333768L172.3717317005703,406.73446514657826L172.17866460944788,406.4332025579988L172.11868945177412,406.3440044718245L171.77251280925702,406.2045951988548L171.5706691122141,406.1725337689222L171.22527734667165,406.09682396750577L170.6865782743589,406.00188805051766L170.45356599507068,405.97497099663724L169.9472498060386,405.9850328583252L169.33806787348294,405.8150449042796L169.16801730882798,405.7747772010907L169.0481304002078,405.72593555992444L168.9630377630765,405.70602216495354L168.38675306689402,405.63969699981953L168.0310744886101,405.60462468297555L167.5043752757465,405.37632508431125L167.31867153281928,405.24711591293635L167.20491912737816,405.12314775005416L167.00421154884862,404.9200493362541L166.76280794315426,404.766223328028L166.70587050198628,404.7040187917337L166.64976624277733,404.66481513392864L166.56260279625894,404.5812390269575L166.55369896725097,404.5666033271882L166.4635233811223,404.5205659847752L165.8775427997698,404.67842000315613L165.1590910834384,404.39607449241066L164.58134192980106,403.9062782281899L164.14133863321877,403.6325146077379L164.11051219933142,403.5916816961608L163.74668334363923,403.1963112091562L163.59135275359222,403.0991044756074L163.19256230007704,402.92194894999284L163.00525562289113,402.877652027003L162.544875739708,402.75058976272976L162.09991191323388,402.44721164393195L161.97965528319583,402.25958083039586L161.96027925443013,402.1852017449719L161.77289478627063,401.8827265826412L161.67265134030094,401.78802987671224L161.45174904773012,401.62155188734414L161.3144221368384,401.55760924992774L161.11768470271818,401.48013385125796L160.82458606309228,401.3039934916151L160.4466232947907,400.85686507056926L160.12413987549917,400.4303485440787L160.1121073074355,400.07128744194415L160.02715957439796,399.9276126074483L159.85197507802332,399.7410358028301L159.67460949030465,399.48724450359805L159.5983450731328,399.3542249199463L159.41860450122113,399.15657639543497L159.40118900055677,399.1423449762169L158.62056211778327,399.0345155337345L158.45485943793028,399.0049398759029L158.35987052898417,398.94389935440086L157.58196561925797,398.2896579361277L156.6737790945608,397.76609951405317L155.78898260105598,398.60440645304334L155.1845754834012,398.3392672457594L153.6446334072316,398.2340564053802L153.1432664668573,397.5932224395028L151.59434745085673,396.75905013639385L150.7179163805722,395.43338739729006L149.91652376987804,394.9008501276494L148.8738422259721,394.4790582863079L148.30481480154413,394.094860242737L147.6303192218893,393.16551316050027L147.26370590972874,392.5028523396941L146.34341168650462,392.2510548102118L145.37413288270727,391.4729442344842L144.83682063617562,390.81086127373237L144.42730031796236,390.5411022069957L143.70534168444647,390.7306423159762L142.6705023519553,389.81659711259726L142.16118284178447,388.9159683981179L141.33668089610546,388.4268979669814L140.62369626303916,387.6942836978833L140.21607641832816,387.55502217753747L139.643677574084,387.6949087913199L139.42945917048928,387.3460280647423L138.7206156025677,386.70721767476243L137.89750891220683,386.16211471772476L137.21740282630162,385.8824631464622L136.7816871414543,384.9340558377726L135.81741004579635,384.44678760966053L134.93046561104347,383.521717726695L134.17572525706237,383.18436895031937L133.7521524790227,382.60300809780347L133.38019825461743,382.6010533089493L132.9087301156469,382.92185929029347L132.0264536951454,382.8480057853467L131.65078570724836,382.67009060137207L130.8354144048244,382.5752929286764L130.16464697832998,382.68138981737775L130.23569848737134,381.59936753681995L129.38446547668536,380.6180442395189L128.49816013581767,379.8249538740529L127.20098503602276,379.3596742819527L126.44372643921088,379.2997323525233L125.69181520116763,378.9626284798942L124.81322733655543,377.54011235288544L124.9976733159674,377.1566149453374L124.76914977134584,376.7675747381527L124.21552109936056,376.63197711005796L123.64543704018251,376.0347576050799L122.72970912677192,375.66175830733664L121.99594335200891,375.0440752763616L120.87893399976201,375.307044407381L120.2808404317675,374.6735480476027L120.29113560199585,374.39726787770906L119.79691206170355,373.9493939169688L118.35415260297668,373.9730012893515L117.83213326869918,373.82306137249634L117.46497273189016,373.3867352035886L117.09194407319956,372.10065021659193L116.45916568076973,372.1294033516888L115.9283154297791,371.1885173520568L115.37038649537135,370.9562621755049L114.62176368320252,370.9912997869624L113.33809900465894,371.37737105354336L112.47396915156787,371.08360041368724L111.80616212808127,370.9805826937609L111.20540914308549,370.23367414854056L110.5481704850663,370.08118847345304L109.708357661837,369.45025496846483L109.27903776481617,368.66324577731484L109.44746476662476,368.2866562344261L109.16057931444811,366.85727396948005L108.8255789061659,366.38623787434426L107.68489175730429,366.3822108532413L107.56373739646187,365.9653551281308L107.18097613926147,365.6462748812628L107.80359627592406,364.5460335939315L106.91038646567904,363.9132391736357L106.6896840205336,363.233466792959L106.21238770686432,362.8933342467817L105.63655913883849,362.99149343399677L104.85543038631658,362.8799161345396L102.9896339491188,361.3738111276698L103.07985829107201,360.6662450995673L101.81247211593836,360.43704866740063L100.54930665342545,359.93382572203154L100.23513530864511,360.0151534165998L99.52526844840213,359.6899536038536L98.86847196073359,359.6107449418796L98.32375618854712,359.2904542723536L97.80468227073652,358.7637922334661L97.1395312449713,358.558152324993L97.03191214001527,358.27976713292173L96.32570175755063,357.6266149083285L95.57168456982072,357.3097929752057L94.44558599658012,357.4438689651097L93.77405693168112,357.3987821242026L93.17383952077762,357.1885485490875L92.4508617733427,357.2057043570958L91.3012014550477,356.6859579979646L91.1407358661254,356.3694346490229L90.57331786258874,356.2742907751226L88.73947707528532,355.6928378087923L88.08949439555909,355.13730999473864L86.63897846322652,354.8920348158845L86.41643474072953,354.6956606196027L86.48928164691279,354.05079002615366L86.2103823567777,353.4245401871758L85.45338388807068,352.78394234165717L85.32460602651008,352.0068499054423L85.75608748418199,351.6811211045988L86.51419121803701,351.76069592523527L86.56652628188203,351.2324956582761L87.40937043413578,350.02397126425785L87.58542610341101,349.5734310613543L87.45703974874596,348.77335000551193L86.92001379671092,348.36976373972084L86.18164991759295,348.1474191207426L85.68683407125172,348.1630777995624L84.99950392776009,347.9665258406767L84.80255584830229,347.73220845459036L84.1645367345518,347.8125482091709L83.62989766727333,348.07574238763846L83.47233142953155,347.56385853849224L82.17885216911054,347.6459090638491L81.56297003984946,347.3837338741696L80.4440261474665,347.6589993226935L80.26085434112429,345.8322446107786L79.72499794041323,344.3045180589661L79.73647676606925,343.7638381062543L79.46776698065696,343.13548160762184L79.07469340893658,342.7893834531933L78.27579153474653,342.5025808059654L77.76281750733324,342.0223001584918L77.00326751586726,341.8709180310125L76.75497941663889,341.6025041623552L76.85679448026713,341.1999385517456L77.50916317789961,340.1370766781911L78.07855633646795,338.9515935211539L78.06583439259157,337.62480571389733L77.88497353943967,337.0638463198011L77.53452119076974,336.8155564701892L76.93633906528157,336.73743706376627L75.62780741015195,336.7627449200936L74.71872046250064,336.55277248715447L74.76983591658063,335.5886212199712L75.21004364739201,334.9103959950053L75.59254038340987,334.0454700535638L75.69449902575252,333.4377704649569L75.39233917995625,332.5976177859566L74.50527847201556,332.012796973695L73.72431783857974,331.683727870216L72.93517182652249,330.34224074865233L73.36264164433851,329.60339040527015L73.6636935075112,328.60346094090073L73.32694243608603,327.41843035583497L72.98229861990512,326.6335023971251L72.6761433119409,326.35927171852563L71.65991738232333,326.0161454594163L70.92388260211555,325.9171335157607L70.1859337835649,325.6046225437376L69.16264191775736,324.5506493731518L68.79825616713242,323.7794511698621L68.83807736372364,323.4090361848339L69.4476149929942,322.89943293964734L71.37905565767869,322.23032541625344L72.00400925392933,320.79373047248737L71.72677935770298,320.3957748312396L70.6895267570635,320.1384061070894L69.79957947155526,319.77521679141046L69.48727220142246,319.25920760354074L69.52722126500703,317.7287060588869L69.75756985032967,317.397970670625L70.33468007741976,317.0536728341558L69.68628616047317,316.2841929547358L68.889012161153,315.92915932728647L68.48744532321143,315.20918084050754L67.39285941888375,314.64237887443505L66.41466232388484,314.40738564502954L65.82954272726602,314.0169661802529L64.86885592885665,312.8584963330695L64.75283337290784,312.4555539109015L64.8943522362315,311.99422420773135L65.34487668773727,311.6102949860433L65.25742276746678,310.98635768372606L64.62910492244555,310.41021716206615L64.18495380083914,310.3463274357455L63.76741978983409,310.54730255651157L63.47799398595089,311.02080818840204L63.45938739144913,311.5596999587069L63.72275406976951,312.7285645927914L63.40169173863251,314.541154877561L63.033498125878396,315.3178370063388L62.78089601976717,316.3519853511634L62.99803887639246,316.55656541577173L64.10526315025163,317.09137668962376L64.72912040458868,317.50390247764426L65.20926775983207,318.450300166176L64.71330381468579,319.39432202265834L63.93228775078387,319.4134871109818L62.86262148784408,318.6616612649277L61.173863045749385,318.3029279406046L60.152345811362466,317.91733952666345L59.4291133028546,317.3199751875027L58.95565100488966,316.2605204221918L58.64992413745131,315.970992577606L57.11134397966998,315.94118937658095L56.516412998993474,316.20307372609113L55.179619503504,317.2218774043249L54.443848215620164,316.7546065328024L54.53270424231596,316.2485127628888L55.43107508693538,314.227351907085L55.33580062603323,313.92395718298303L54.276226660222164,313.21317270254076L53.762979525579794,312.4994786246252L52.95751140654829,310.59004920997813L52.941685477801,308.92418876369356L52.829534828008036,308.63228245283426L52.07853343235547,308.47852419050105L51.03055106456668,308.8749044398628L49.81961039885027,310.0452819310276L49.410424281213636,310.71601109210224L49.52281584128468,311.5110093786807L49.365996848580835,312.5029391887556L49.122702010183275,312.76355755919394L46.5422743548952,313.0738447708072L45.424568815340535,313.41468330024145L44.85247078998691,313.9536065500415L44.472727867667345,313.96039648435453L43.683109264260565,312.9089311294547L42.68400538784954,311.84628642989173L42.21452293497714,310.75220787317267L41.99891033799577,310.5071374367244L40.059422061362056,310.3304177642585L39.16377380874292,310.3325601399556L38.63191422674936,309.79776602584025L38.65887270955318,309.21862878896627L39.01180108517474,308.1025065592021L38.40250436655151,307.61056755354366L37.60261669468673,307.6861939217697L36.53494529224372,308.33734752998043L35.81999049202932,308.4046689907318L34.62096105177989,307.7582715121098L33.82352345474101,306.36889683332447L33.2782527340878,305.791334509795L32.46969955385248,305.4431350662071L31.188043360503798,303.52229704039655L30.69877108192486,302.50535376240623L30.479523341942695,301.64188093091434L29.60683943586264,300.96041467534997L29.08309093398566,299.8877945646482L28.756259660274736,299.41955099495044L28.314370888818303,299.14450146046147L27.135331521856642,298.673525169158L26.270449230509257,298.0067681103146L25.74419127762667,297.7591541098773L24.81502246362288,297.7237581753143L23.97836464269494,297.5093633823835L22.64374739285813,296.7808356671003L21.838476627950513,296.4409277600189L20.810229252960198,295.6328974612479L21.063807210077357,295.10411930824193L21.987652475199866,294.62698058142087L23.059534405607337,293.8324574329263L23.52166512264739,293.21039945084794L24.255763158447735,292.46722220056563L25.36810204196263,291.98711718366667L26.01322490755956,291.9566372028594L27.141682891253367,292.35416564842126L27.616126446149792,292.7675873786311L28.231824030119242,292.99932743269983L28.607584563880664,292.8671840700681L29.318610864202128,292.22493899998426L29.965152446950015,291.3240758463771L30.259830086464717,290.7197911286148L31.902116889481476,289.9597987743473L32.85588017806913,289.39905795800496L33.615280418696784,288.65261026019016L33.963206288834044,287.9422857340451L34.77272311913839,288.0579779390555L35.692413180237054,288.87047985305617L37.14093715211129,289.43038197093574L38.12107717738763,289.4158439946914L38.84846530564391,289.51392527483495L40.37140039073529,289.9679465151894L41.96937722931398,289.93844645582703L43.456371086309446,290.61897400251473L44.335560872035785,290.71555914149485L44.87223122377691,290.3631785682528L45.371062759117194,290.2813342239615L46.57607132178964,290.33978864722303L47.43223908709115,290.57925378197706L48.184970942693326,290.95967708389344L48.878993209740656,291.4961224527333L49.47866615736166,292.1315535831318L50.276421367991134,293.46036403511425L50.92456623570433,293.989314503945L52.292218716866046,294.2665812631949L53.300771822712704,295.73851372603986L54.05855159423845,296.24688694762244L54.983011083779274,296.6290227204163L55.96957424848188,297.7000569675665L56.69645404424955,298.16027328223754L57.60240408281061,299.0287955946751L58.38757874579278,299.4338482758367L59.13337522566326,299.5926647906181L60.52299331068207,300.2722504826352L62.58309563244802,300.0390801489066L63.427131859274596,300.59026964249733L63.939999642025214,301.3191628359409L64.54486030972475,301.64457209439206L65.65167195086906,301.6692612356592L67.26144892106458,302.0051660337713L70.13701133058385,302.0833665076734L70.89949751187669,302.0594985525204L71.37587338215599,301.5567801617872L71.61522675079323,300.6840667970864L72.33076351055024,300.2596070866448L73.21515781563903,300.3200250883501L73.85625571664241,300.5427137864099L74.66069395088016,301.6233891585616L75.564918051512,302.5362842844406L76.04500472127802,302.7706469473569L76.94286692570313,302.5995496206342L77.79622724055298,301.9155628589997L78.06147664576565,301.3979664008057L78.2291258176374,300.6507176794894L78.57176259961489,300.0444113386866L79.73392221924769,299.55476448075206L80.08667576357766,298.9931615090518L80.68558715368272,298.74465133907233L81.69061413188138,298.7817239483584L82.97394534404702,298.27347150549576L83.94296524201309,298.2579414056645L85.13439521568762,299.2412316085956L85.6486122444112,299.35073019070387L86.39706173330705,299.2286983620197L87.47048359068685,300.4549566755313L87.53773913152145,300.8879184046418L88.05956010852424,301.6456054108885L88.86896570304816,301.6869059110668L89.35941862820437,301.5011044849671L90.02620877218396,301.60132970895756L90.45139213599396,301.8358155244123L90.59632911889457,302.18764858647774L90.57090725790658,303.0987552789211L90.94729861558335,304.0731887972206L91.61527265559016,304.6637440701661L92.38205235362511,305.06050532202335L92.93483552803445,305.1865988091722L94.59308132902879,305.2196824863031L95.30039212169868,305.0358868370149L96.94077895090777,304.8988647081733L98.23374985917872,304.4643421815181L98.90583242562388,303.9321535877543L99.68924199152934,303.5002463685487L100.3650288398403,303.30851470370817L100.76786993398309,302.5864315583258L101.31298984920795,302.1812760357061L101.66246202494222,301.67211697958646L102.10452711722428,301.4925991289083L103.10170164996089,301.3987333396417L103.55938588028584,301.4699468205772L104.14927205841377,301.27056154537786L105.57438239420117,300.491073176654L105.93008471786925,300.4996785757194L106.35538245850148,300.9793477651474L106.76461947467942,301.1671706494826L108.05303397588614,301.43339083256797L108.95771537440123,301.11795605443604L109.71942825089718,301.71546665342794L109.87430175671216,302.3141119170268L110.79918481677305,303.1049354968618L111.13591885585265,303.2519260378076L113.2589354519805,303.81468491976466L113.86231031974785,303.89585373156206L114.19136731840808,304.1516147327102L115.33204387539445,304.28062766659514L115.96615689937244,304.979990434701L116.03703020891226,305.6995322342218L115.66855593076616,306.520550592837L115.24043126672586,306.89927446903675L115.09671991772484,307.33557030853353L115.11153941346493,308.1008941371838L115.82949011109667,309.2094827568726L115.85722967534457,309.9434527355097L116.10148201250377,310.5495188801542L115.97088987847928,311.1450202821288L115.38889809807188,311.7836021436515L115.22472260802533,312.2574124654302L115.79469380523551,312.704562599999L117.11797688717161,313.0424916506763L118.1463451727086,313.70750724238223L119.03806269344386,314.45517099029075L120.1611147714957,314.5175575610883L120.74012324500654,314.9025145865189L120.71480749244438,315.56115069281714L121.32931403384646,316.3162768075863L121.67669888721866,317.6752344666302L122.16864119609636,318.66027295297135L123.36292523744851,319.6474823552544L124.09546052936093,320.6564494069835L124.98225180671761,321.22523796703535L126.03082038531647,321.4520609295332L126.86202434812367,322.1316659303593L127.06520264235041,322.88048996094585L126.89453383657565,323.21183706401916L126.16737393807307,323.5994198690005L125.62916853588649,325.16723415743945L125.54603640833375,326.661655282197L125.84735828849443,327.1742965401718L126.3732252900827,327.4561790153148L127.42594363076387,327.5628168516587L128.10407983459845,327.96821375781747L128.6497536923107,329.1830154283489L129.24119843672634,329.89449169040836L129.38322419136057,330.45297757195203L128.7159950797759,331.2094309657941L128.13791821105224,331.60770394478186L126.63524547910492,332.2866902925307L126.37857783624167,332.6013573847167L126.89336271914908,332.9676255570639L128.41555369455818,332.8095389984246L130.5648701045484,332.93874700096694Z" fill="#FF7B46"></path>
    <text x="128" y="358" font-size= "6.2" font-weight="500">
      सुर्खेत
    </text>
  </g>
</svg>