<svg  viewBox="80 235 150 150"  version="1.1" xmlns="http://www.w3.org/2000/svg" xmlns:xlink="http://www.w3.org/1999/xlink">
  <g>
    <path id="path-0601" d="M204.77432786175814,288.00257531162424L204.71656480849379,288.3518635903729L204.93314408559309,289.22950689524714L204.66060616156756,289.6361043043198L205.0242666260765,290.903352024352L204.9105130287462,292.11426753728665L205.1292050319662,292.64846540350663L204.987837224533,294.72211006726684L205.11239818872673,295.2282501073578L206.0082266024947,295.7065288315489L206.1704591099351,296.19700376644596L205.71357301070202,298.3595576175712L205.52383603116868,298.70394868629865L204.93873082482787,299.1703060706932L204.1941040779093,299.3968710683175L203.44423008510603,300.0093437939995L202.8945992442077,300.1758197365871L202.1896844298226,300.8111824991256L201.89241460944504,300.9232392271797L201.55126521125203,301.82365829532046L201.03125493836342,302.40946502747374L199.718117354676,303.0859142164627L199.46567529423737,304.1151516961554L199.16959649171622,304.4036341855108L198.80119628898865,305.2371453286396L198.92433506907219,306.3626066726192L198.53033606584177,307.0505316839299L198.53009828467657,307.46297977708764L198.89008884816394,308.27348026303116L198.30798423409942,308.7479454675731L197.8640185707245,309.50362453795697L197.15534073196432,309.9596344009051L196.93732825021107,310.47146195084224L196.98083164084164,312.0000031345162L196.66643560442026,313.2454840295122L196.8912300491047,313.9807987265249L197.1920452282502,315.6263862186579L198.20150852130064,317.2187364156871L198.18144433867928,317.7199304682672L198.81820407847772,320.5896550227553L199.8931534997737,322.2580861140468L200.66668463865972,322.8145059357894L201.9943893152922,324.5589663844339L202.5454030901874,325.0374581066226L202.89715095591964,325.82141839085944L203.27231017170925,326.31952078953327L203.31322265297604,326.74994777426946L202.63024092412343,327.320484085968L201.8166658330938,327.69300392574405L201.5236619733896,328.0402745987494L199.69756054377467,328.8747239718332L198.78556321245742,329.65516167690384L197.6543191824603,330.4005988459421L197.37143303184166,331.5561212778066L197.32405655866023,332.686202423798L197.03491342746747,333.20422824619527L196.50299302776875,333.451868375716L196.05280208216573,333.28538133931943L195.72156021979754,333.47067880299164L194.7198067147383,333.67112319112766L193.6151950107742,334.13264975842594L193.12616799786156,334.63262537152605L192.47540645550362,334.3955216894228L190.73533603225405,334.9866601928161L189.61070305053363,334.8867965107793L189.20529611542224,334.52574444116544L188.4006659438819,334.45577272982155L187.42683919746923,334.8635553071799L186.0884807481143,336.028657120306L185.2387869783306,337.7043033761438L184.53957739445104,338.2487035922122L184.19126747314658,338.68514931902973L184.0107943110961,340.76586183123163L183.82586854671536,341.010557898162L183.72135462542246,341.85033638629193L183.3647664657583,343.0475871922108L182.78187616368814,343.4256275224134L182.74544564464486,343.6804993238884L183.29264971982957,344.8278906415726L183.41311159712677,346.2742501073708L182.78604692129193,347.4066783013386L181.3442074397699,348.2323654040092L180.8623681386871,348.6627503817581L180.5808926269583,349.2451001882364L180.0955688471313,350.7418296109545L179.39404817704053,351.5034399997012L178.14261227229326,351.566017020099L177.69604939794772,352.292449087543L177.82590321216048,353.65485159248874L178.15187537960992,354.70095876084997L177.7497033957752,355.16106746734476L176.5642465373512,355.4818462605517L175.98103587177866,355.02934406944405L175.3072878090643,354.85928362348113L173.2037715413535,353.8261823495759L172.92605368363547,353.56157789580084L171.70978088217998,353.0154516187431L170.679485742814,352.86386516514904L169.97944135632133,353.29770680212187L169.36730755190365,353.09762680623044L168.72882620820565,352.6493997317866L167.86364162820973,352.2773431048063L167.40462020385894,351.3645766913778L166.96514467157613,351.1535451149339L166.17100002674124,351.2076529752085L165.6275105749628,350.9960838764291L164.76359676997345,351.1736478601888L164.07583723542484,350.9485348792632L163.32675324067532,350.50781700116477L162.02807197224865,350.05763901152295L161.67589512804625,349.2374871046459L160.46112899224863,347.97832123027365L159.70437663521443,347.433781057749L158.57224455380492,347.1000014953379L157.2754521492625,346.8136343216738L156.86179186480695,346.5140281885642L155.97934044641806,346.9477619245099L155.42260142486703,346.8344917431541L154.66653631606277,346.37186310114794L154.16051767070712,346.58291935694706L153.36393496928213,346.5808232410918L152.75249438102037,346.81392644878997L151.32538772036787,346.89548929759985L150.3423611798462,347.17375405089115L149.74329391801803,346.9083209737937L149.29801411348308,346.0158240884548L148.10498720620126,344.0672194186345L146.66303435479313,343.9796316650081L145.30166330805514,344.4075417857366L144.9172955635513,343.96767643552903L144.00086612411724,343.3879144081502L143.7480946754622,343.07332741864866L143.40586174545933,342.2074676062193L142.97617708029793,341.591042328796L142.2302131135475,340.9665623120836L140.9856374963656,341.1334880578588L139.55623341860155,340.7797610740936L139.29381935006495,340.9417627042785L138.59696980100307,340.5470458733298L138.05534300901127,340.3952936937585L137.25289930338658,339.9767445300058L136.83345708685374,338.8644040255267L136.04533173693562,338.5401117366664L134.96187688096143,337.91840406969186L134.0480804319359,336.5975924322802L134.35678898516744,335.75313286154415L134.0545473468228,335.16918641610755L133.6996049877307,335.2057499523353L132.61051109379332,334.9890807149968L132.03309205144978,334.4500128436348L131.62680649741014,332.8072925667311L133.08832503444683,332.6050176431454L134.69337377211923,332.1169322780788L135.2314789788561,331.87294203588135L136.6947834909006,331.5466239905645L137.85106082299353,331.54491870632864L138.4478211085625,330.8193422318318L138.5892914520373,329.66785132741734L138.31771589578966,328.33287322264187L138.51463877633796,327.79303590792006L138.25524657681126,327.0407955181872L138.05758449115638,326.60095228200043L137.16293143330404,326.0856243417602L135.48573780589868,324.52456287556925L134.66861065469857,324.14493664043675L133.66319017473688,323.3056505327395L133.65937276780278,322.7963367328857L133.08529539249503,321.42525691517767L132.74747803226273,320.9512571411324L132.8849819457737,320.62201704312247L132.64133582323484,319.6625604118435L132.13796328579156,319.185255974593L131.61433602935358,318.0907126738648L131.13406811138157,317.2872560275L131.07915851122925,316.9108164402205L129.97246212395112,315.75074421269073L129.85657156105117,315.19765921060207L129.92952681366296,314.4596584305409L129.6525533843651,314.0306063447224L129.46243041217167,313.28403573558353L129.16335069295928,312.82926411564677L128.72982543990838,311.7771329066836L128.011234520789,311.2013611167904L127.53728284725912,310.2061447505939L127.16614390406903,309.88107549259803L126.96145052431166,309.3373855286518L126.44767938853875,308.8053225266676L125.75999263355516,308.5219602694933L125.42019251402598,308.1205639592208L124.99390614162076,307.120252017191L124.49982484403881,306.3884804427198L124.33536719282529,305.37944484630225L124.15560181326327,305.15770555785184L123.10247205098494,305.33680278699194L122.07233551573518,305.1207697077307L120.87919442448583,304.36571245482355L119.81502319101673,303.40692801105706L119.15392745713689,302.55794971664545L118.73973951309927,301.4591919671411L117.3301681821722,299.9117587551291L116.81680359780694,298.79189981758645L115.95474034543622,297.5665084272159L115.02129671315743,297.50936135254324L114.53471773455567,297.19823131549674L113.87252081398219,297.1358632504471L113.69937235076941,296.39520807736153L112.76048853895372,295.4610150935214L111.68981586020709,295.32570602898704L111.51722634262842,295.0497100804423L111.72988834714306,293.8868406304264L111.70028486788215,292.2868108456496L111.35248124118334,291.5133345825534L111.06774984554977,291.47437888539116L110.1962879850962,292.1209620781874L109.64879751576154,292.1134492214078L108.98735514457076,291.76604427012535L108.49432575238461,290.94880945967725L108.48665401172366,290.64507070749187L107.75759667106286,290.34303150545566L107.33837047338056,289.6865323817874L107.34626260047662,289.25905659211185L107.87782677883115,288.2324246158396L107.97041883844577,287.7822285510574L107.76232348203666,287.4013819406782L107.13652895677296,286.8627190461639L106.94131139713681,286.12205197035564L106.57078227201782,285.64121861235435L106.08292908510703,285.2962119335152L105.76947992811802,284.6166371039717L105.0374973197213,284.41766094903414L105.02875850958662,284.0201796025676L105.53730268247273,283.98196067864683L106.30744790782228,283.50953878124074L106.64615128212972,282.78778720954324L106.34584281109892,282.08746489973055L106.07765312470656,281.8098902912261L105.83867449154786,280.92056325052727L105.93092025967417,280.27096512078697L106.64080045342234,279.22233430768483L107.92026835497018,279.1260030267604L108.57375238560417,278.1563695338846L108.79947191340034,277.8547098430763L109.27834119950421,276.34519511740746L110.50406360791385,275.9177034631939L111.33694527475018,274.43060935285666L111.33267034204255,273.6640240645693L111.5660641332197,273.0909711905724L112.17088677002357,272.6106640294129L113.36521559430912,271.91971608357926L114.53745838931718,270.9537745618918L115.58556634183333,270.75977216486535L116.20747145153473,270.1567199927222L116.12123990637156,269.4141654512723L116.36770292092478,268.9411135136943L116.40130018601121,268.4390254662312L116.99229727455713,268.0388050916772L118.26284505270633,267.69361621567623L119.20535655277672,267.33934396561654L119.92656279703988,266.8786558033162L121.20237325381459,266.32629981990067L121.9868162038565,266.1832995704008L122.41638649410925,265.844061764069L123.10988407187688,265.75469465031983L123.62416297805976,265.90295652088025L124.45487669113209,265.8517264150696L124.75394564333328,265.67603162369323L125.41009083480094,264.92655971927616L125.90631318807755,264.8130920455578L126.26302335507535,264.3180175824218L126.65921003703261,264.0812675591169L126.86564741831535,263.4697945242551L127.35342710062287,263.09416852088L128.66188043869624,262.81373177259684L129.53343815663357,262.77653677411854L130.5690087828607,262.08000593472934L131.8798734587417,261.0071047793408L132.18071256545045,260.5017063760779L133.01277607612428,259.88975967180977L134.46727924034167,259.14428213855354L135.36134356553885,258.9097668135382L135.83073258632248,258.7892938763134L136.41701090410788,258.1795182205942L136.86327716740198,258.0355303239903L138.0407845518621,256.9893427627103L138.3441128728864,257.3774630494354L138.10883725795247,258.1872117755074L138.59552022526805,258.8480087036587L138.6217493398708,259.3295445959857L138.41433826551474,260.2910398934164L138.12274653885106,260.8472287083496L137.9122465229011,262.36617051065787L137.53537537813645,262.71910040273906L137.4746515848965,263.25109729201176L136.89372727785303,263.983335977302L136.1704743822047,264.35999391848145L135.7925775224303,264.8906477736382L135.48511294774107,266.12141867847004L135.35068041697377,267.0054473946584L135.43019507354438,268.1344117075523L135.31481481144692,268.7806788190219L134.62766641456983,270.6102121739077L134.97441977977178,271.5484298996598L135.0058968851099,273.1157218601329L135.6635551081199,273.4703895109051L136.32322539406596,273.3162455945767L137.045819019173,273.77333851001094L138.32682955088967,274.3619503172931L139.9192046676999,274.0359979111945L141.15812333896793,274.68822395232655L141.8102280362673,274.7123429722951L142.6135057753654,275.2150446282176L143.06014183000298,275.92128052291264L144.0479696980965,276.41954613188136L144.58361287208027,276.88307146929037L145.24694488357818,276.719888792265L145.7324585924598,276.32557300209464L146.21447575195452,275.57272294306404L146.84216712116358,275.3024360457557L147.286736132246,275.45083352661914L148.22203661662024,274.5233153725403L149.53737772087152,275.23507562535906L150.29278854670883,275.40932352216896L150.82645780885287,275.7465278021018L152.12551102539146,275.781085351583L152.94154878127665,275.48841968549186L153.66839781874296,275.5596171966299L154.47451083960914,274.99640362238824L155.23987161633158,274.77076937384845L155.66229661189755,274.8356266999226L157.8302298022736,274.36643156790615L158.3831393015298,274.0023172617766L159.22600062073616,273.8616186142781L160.01790580185116,273.93375829314573L160.92435611471592,275.35837942227135L161.3009920555687,275.56855434438694L161.72997773578572,276.1273546398661L161.7387405495101,276.4868074154574L162.16443719309063,277.35903441797836L163.48125014660945,277.481320751398L164.48776605370404,277.9198915522875L164.71805087876237,278.1678030809135L164.74711871553518,279.20638140073333L164.8704794029145,279.7158649607736L166.15708901451217,279.70816859919614L166.54374631699284,279.3994765701964L167.0022033997593,279.54253390925896L167.47806999215572,279.35324190599476L169.0190589289541,279.860318274109L169.33138985608093,280.3027808030365L170.1441244233356,280.91909041169583L170.47818060000282,281.3064264974728L171.3539400330319,281.31482885430887L171.75868461028222,281.62388999777613L172.7575783298289,281.0879489983836L173.45432077491932,280.95616845007225L173.86789515843157,280.5407510181212L174.8009616042018,280.0292814631912L175.68037976685264,279.8570448519804L176.12513546228547,280.1730253067908L176.63644627954818,280.062802890272L177.95830496448434,280.17789976793574L178.41196595694237,280.59255849301553L179.39950908112405,280.9007177430858L180.01173168903733,281.2893728252411L180.2367802317749,281.8485922780146L179.97454834784548,282.6197863630159L180.65620076740197,283.09462642772996L181.72163465241283,283.3878793826634L181.80823726366725,283.6178134560014L182.52188999044665,284.02657763612115L182.89965970299818,284.63890036683733L183.49455014180785,284.8736898950383L184.40902317762811,285.6303058952535L184.58097929747964,286.09507308124194L185.04017812473649,286.63366456092535L185.65150478305077,286.9097035699915L186.1735941908446,286.8678099875824L186.8603524905502,286.5705408177764L188.17914530505732,287.14763925008356L189.46498629613416,287.30065493344046L189.8568743083306,287.7668521308624L190.29852861183463,288.61707016100627L190.88088220561076,289.0853591304858L191.44118139034435,288.99075162496956L192.40507253059513,289.1202196139011L193.45770048447594,288.95983620728566L194.00759756804473,289.3165750467315L195.397020774888,289.29372692983816L196.01420533728378,289.0842000091452L196.52151353683803,288.39214612495743L197.4151253997661,288.1813784725264L197.9444486851644,287.20080907362444L198.413343221373,286.80869787171287L198.90188678794948,286.6930010520764L199.66226159398866,287.0808825170534L200.9464967523727,287.1464752341444L201.78931924182507,286.8780468429086L202.6769474438188,286.26028135963315L202.9993627750082,286.28720933526347L203.43034748251375,286.9921349683473L203.89810649901847,287.49838056949375Z" fill="#FF7B46"></path>
    <text x="158" y="312" font-size= "4" font-weight="500">
      दैलेख
    </text>
  </g>
</svg>