<svg  viewBox="58 -50 280 280"  version="1.1" xmlns="http://www.w3.org/2000/svg" xmlns:xlink="http://www.w3.org/1999/xlink">
  <g>
  <path id="path-0603" d="M318.02846351910375,97.97156039871152L317.903918045924,98.95173160150807L317.705956166481,99.52070548233678L317.3119650235585,99.8934523705575L317.1585796402196,100.32748237840406L316.19023247173936,101.54163030677319L315.59231828222255,102.00777977655707L314.9841970544039,102.19761298514095L314.5405214935872,102.65843254110769L312.86494742222203,103.26992675504971L312.65639904655654,103.57431751192507L312.9126711828594,104.40584725399003L313.36294434211595,105.04200167155432L313.4570430658259,105.94597788315878L313.1449948274094,106.22709984677567L312.5565660884622,106.38185584890834L312.3351443675929,107.23723845636505L312.07899183974223,107.53933962027804L310.6635827691334,107.61378831613365L309.8728697421029,107.73941037315126L308.228252816205,109.46927460560528L308.4448741553733,109.92201349241441L309.5818067917917,110.27438285513927L310.5217021788303,110.876555590723L310.43539076572415,111.80637672085868L311.06551455738736,112.62213854001675L311.1640687591407,114.04414832140628L310.9695802644401,114.36727760258873L309.69359981704474,114.90519512316496L308.3255144200357,115.04925803349488L307.4839361650247,114.99671605195726L306.7896944825952,114.5697160931868L305.75963066091754,114.9403533286868L305.9047893423467,115.96507720785576L305.8445287282666,118.26353449193721L304.81375126998864,119.10712219087691L304.75037680297646,119.9519206990908L305.8476096477316,120.5653344712764L306.7066314171898,122.10743259389346L306.51451604048634,122.930493618931L306.5271310434691,123.60773264907493L306.03029481437443,124.26395002028494L305.02238508718074,124.60040408711848L304.0942207128246,124.560306803417L303.3378137641357,125.4555383799343L301.78827927944076,125.08932289427867L300.9107075935808,125.0657712743814L300.14086625074924,124.69604177355995L299.90839549278826,124.79390284965939L299.0790474761998,125.80030624590927L299.60921867077195,126.36591388710895L299.5833575707311,127.2562114442153L299.3445902242165,127.91663824086936L299.51995980347783,128.16777125151384L299.51268474332755,128.7983964945788L299.68798690685435,129.3708433668171L300.6108162822402,129.65865923246838L301.3643379084733,130.96919499719024L301.1811385027122,132.45315696471334L300.41968911974254,132.8803983794087L299.8925511274374,133.39896623526602L298.90940408456663,133.69924071463083L298.4343016477942,134.11409576204733L298.5874813198225,135.10352227626208L299.0310294954943,135.67085810739445L299.1321107846761,136.68007738412052L299.9760896060161,137.38558407934306L300.3929522875151,137.99110809253216L300.47755834780764,138.8406076196552L300.66173928004537,139.39724284830845L301.6523782395834,140.2219281420803L301.1037613517783,140.86755217741302L300.912489027236,142.24226640470715L301.03011671843706,142.6386559497123L301.42969333790825,142.94963944185656L300.82483156635135,143.89433667048343L299.4657847780709,144.72097853966716L298.46909798774686,145.967435968656L297.9613893285841,146.13577326081213L297.4284796433494,147.13258268790378L296.96098937113493,147.259816697715L296.22371910860966,147.22866953482207L295.4268267944899,147.00376733119538L294.7564262981141,147.03214219208894L294.3950809727685,146.51478728885832L293.27123423858757,145.84192418013845L291.8582942809335,145.6783786376809L291.35319575608446,145.9277700103994L290.1168139986912,145.39751871000044L289.667440798572,145.0707243475781L288.9690207940639,143.87775165581934L287.85963147190887,143.51951506502883L286.9923074729468,143.3365861233524L286.2019649875183,143.63931952867006L285.89210998309863,143.983589692828L284.8227403382298,144.09040337499755L284.4262717337642,144.2857693333881L283.12979389776774,144.40585031322644L282.60080835774534,144.36831917537074L281.8481996397477,144.05588322298627L281.09447864170943,145.17239078494185L280.4973559596201,145.41268351923372L280.23096692749095,145.83038922815376L279.4236420050238,146.3568116823826L278.7922599339745,147.01183066992235L278.1500386330172,146.97637095795926L277.8323185649442,147.18852714184686L276.7757854874817,147.38729502455317L275.73434759552947,147.9553133891941L273.918830421484,147.46797329831315L273.0615089124349,147.10527493944937L272.16256771749977,146.5075103798381L272.06367680711264,146.04511864187498L271.70374655255364,145.8803700107146L270.91210622429026,146.20212377077587L270.29776127715195,146.2824885029113L269.51622706799753,146.73035489982794L268.7102303787633,146.897790011104L267.82127984421277,146.80192895541768L266.78944619869435,146.8501743213401L266.1544840071183,146.6320915917504L265.85213734767603,147.6887512660669L265.7784656466156,148.68697475991394L265.84804598654046,149.62288081570205L266.6608385165837,150.04769930032853L266.5920745954736,150.87004824861287L266.069297198952,151.43402978140875L266.3637855539928,151.92739276549037L266.93030531920704,152.47235073853972L266.70573814670024,153.46430566442814L266.3516576756265,153.72929817618297L265.3178317985694,153.33648558634104L263.93625223900744,153.60438302330567L263.4556915181165,153.57564486170122L263.4313480443143,154.43024093438544L262.74562587056244,155.08297034805037L261.77672680804244,154.98393826281517L261.0060315309056,154.79127102995335L260.16112546386466,154.26335327136803L259.661915400844,154.38833407971288L259.40830198806907,154.9182146836547L258.242571604329,155.6184345050233L256.6161020679119,154.61996548743537L255.7318942676029,154.6947245950032L255.36443925681124,154.91644675503358L254.58105065985183,155.09247924168267L253.73366304076262,155.47571629309823L252.79273405709864,155.2623653492592L252.50358734776455,154.87173452997467L251.114221519485,154.62752611570158L250.4788916128109,155.05648018905868L249.81808397731402,155.27042927664843L249.27366280086608,156.32297716995527L248.45313941822496,157.06332721998297L247.3390933289138,157.20491201786353L245.74827621085933,157.60901699329952L244.99971621353325,157.68310052949437L243.9795986946392,158.16774947765953L241.46347427039836,158.72520641248866L240.7276058114403,158.9979813880118L240.6566402861481,158.6495402286273L241.12021468451167,158.0261835950505L241.37921330855897,157.30345338879033L242.17393710204124,156.82609489236984L242.1429724227528,156.59422514124162L242.7854700996213,155.67536991555244L242.62185780404616,155.42603705017336L242.03848452360398,155.45208346201798L241.8859357743877,154.780725155234L240.74060600641315,153.9896979180803L240.63741428086723,153.40538210157501L240.33095498435614,153.2671363081963L240.38196668093406,152.09226708940423L240.5416972322837,151.7050715421401L240.08007086343787,151.03336240339104L240.07771146013147,150.59884468564633L239.7317268236693,150.22822712691686L240.3328582950926,149.53881768516294L240.34992317348588,149.1336447729018L239.79632635696726,148.70914101021117L238.81391687329415,148.49592533066698L238.85647687510027,147.9198990723262L238.64233909419454,147.3108203368056L238.7879815845954,146.70602320025773L237.89680501674047,146.09711316804623L237.382871429405,146.0765322711186L236.51022265954452,145.36262393705965L236.27160133959842,144.65611648607137L236.43712842094283,144.47094382288196L236.27391410396558,143.88484074911958L235.70998577322825,143.728631447525L235.18317343105628,143.98469784460394L234.4103284076864,143.42901390872976L233.61338034133587,142.15446178234106L233.8355798164721,141.60286685583833L233.36885212193374,141.23798285012708L232.50729367027998,140.89115721920734L232.15705275362416,140.16080542064265L232.4672318165267,139.45299208482993L232.5617672778517,138.83272707970627L232.1550384945931,137.8468804547265L232.3293784622474,137.39258055622668L231.42226080724504,137.02508175165894L230.58376931110615,136.99542997071057L229.58442857837326,136.45532807670497L228.87545381281598,136.68090065724482L227.46123381107645,136.8156431906309L227.14911370376285,137.1955535339839L226.3477643456772,137.66888258161634L226.12963592354026,138.49638967124974L225.41791477617335,138.5558490897056L224.85133600393056,138.78793534990655L224.51827439953195,139.21632168759425L223.6032428814724,139.39050650276295L222.82867464738592,140.36671855233544L221.69813096662438,141.11924675506543L221.40174280983956,142.54292773531233L220.1725033442999,143.45035176120655L220.31583949063133,143.96991429657282L219.99678423216574,144.16863483780526L219.38102521594556,145.27698323353252L218.08766433478013,146.39974413936488L216.73047420877083,146.96825639415783L216.06299660403238,147.43407580850453L214.19630087580845,148.35566678807572L211.50921904519964,150.1617119443381L210.5428855263999,151.05161830952147L209.70850503534348,151.47839489985017L208.36153660603668,151.7994579335882L208.12183686770368,151.72128529137353L207.2487563460145,150.82490095031244L206.90629350500967,150.82869017132907L206.54980205744323,151.18863763549598L205.28650539810405,151.5232697473848L204.76492166157914,152.41031625798678L204.96151271341114,153.20686813108387L204.37576925265603,153.5462551633991L202.8196918006488,153.66283634703632L201.84271130700108,152.96260978366263L200.2621304379336,152.55759365804715L199.27081051044115,152.6335542310735L198.82062763548493,152.89132186170082L198.54591355357297,153.48135019994606L197.73316986239843,154.38560847188637L197.53161889666444,154.95005072315234L197.6885097817285,155.32637829061332L197.30252855741674,155.74373029734488L196.44565258111106,156.29808960916762L196.31879975147058,157.06681956949615L195.59747966687428,157.9589270393053L195.61981232957805,158.99253220160335L195.20633639522384,159.4004539920261L194.40418479551408,159.54150752854912L193.55879120361715,160.4836968368918L192.8961384650629,160.93114481252633L191.6909957590815,162.2401769613025L191.0690061558289,162.17871516117066L190.46758672347096,161.85042847048408L189.82051423760458,161.73182005390845L188.70829483395391,161.9731850541857L187.13625619946288,161.90584520235643L186.4973463897295,162.13082876140652L185.7480857200444,162.05632507241717L184.50418384539807,161.4634026201329L183.58462262571265,161.73756382584907L182.22842293468784,161.54496553374793L181.34049002764732,161.50114377800492L179.5667053837551,160.68291081262942L178.3323758041024,161.18436587475117L178.03089421700497,162.02862869258115L177.04510314549952,162.41093642065425L176.71447797114342,162.8099163363222L176.3097574236308,163.8379301972618L176.16691522053043,164.90592866453335L175.48011326008054,164.77463230092053L173.95817955375423,164.84229612777017L173.55998378577715,165.02436102663978L172.59295781903347,164.87251712127636L171.60148105365442,165.08305334311808L170.22730216918717,164.85518232649702L169.26376881832402,164.82725882535942L168.56599055201877,164.52677526573916L168.23523820493938,163.97505321849985L167.382016251624,163.40764919511366L167.18636509693533,163.1095348305389L166.22817083963855,163.04681602503206L165.692457405401,162.76012097466992L165.71289672368584,162.01981901077215L165.44015329718604,161.86761046823813L164.80535608100035,161.95744244345042L164.21559799700844,161.0587025351806L163.75513220931316,160.8878190652158L163.5731697707015,159.70793168137425L162.9938884126077,159.12003383688443L162.26830838307615,158.7568065833657L162.39486900671545,158.07497288872037L161.72000141225544,157.5767649744712L162.41474414503318,157.2887059984887L161.7744979375766,156.74072367602184L162.04390080502708,156.36686431567432L162.08932409906265,154.94419119567738L161.65643804581487,154.05562689641738L161.52347987313078,153.10190169743873L161.53438912187266,152.25548736185738L161.18717827174623,151.0968517511028L161.1876905187346,150.29013179542198L161.40898577239932,149.83910145012032L162.20212195142813,148.92563355066704L162.54790171974673,148.12519188965325L162.5098681413856,147.75279418024365L163.4128274950599,146.39704219082523L163.39100639989738,145.88240151790342L163.83029910330333,144.79470516112724L164.17328082018867,143.67512981525397L164.18375062497398,142.91268455707632L164.6489811745305,141.753976717584L165.25164704119925,141.2520037370814L165.61091561736248,140.7266168071701L166.23614782551158,140.63676044832027L166.9013925236104,139.94906515773528L167.0772879372107,139.48900901997968L166.82492251423537,139.2794205871851L167.25607278946336,138.29783691183184L166.89886827546434,137.8215723305484L166.9602731612904,137.05057763011428L167.19827147953583,136.50024415574717L167.8497596545585,135.63923435495872L168.12374850411652,134.89990885604493L167.85196280928722,134.200897413215L167.62416949832004,132.88416928543666L168.1693596798741,132.35675898923182L168.6637218781052,131.66596742631282L168.97468280015528,130.83801835842223L169.00505000115663,129.85822833795828L169.59489800127994,128.94342827733362L169.5078841341201,128.32102259413114L170.86544418031372,127.90430654492775L171.76551311553703,127.2388618044115L172.23444881138676,127.13456772492827L172.5581553429165,127.47411361959621L173.11928621639527,127.35710534620284L174.35381710818183,126.49388300758528L176.14430453854038,127.21373112002584L176.87749370967504,126.42947541712692L177.10234914424836,125.78058631396198L177.45791060408737,125.46751025112553L177.52212157710346,124.7867430531569L177.22968637502163,124.03226291397459L177.93307715110132,122.49156387490257L177.82827280415222,122.11611750438897L178.05115791182834,120.87050464259573L178.00912973074446,119.70995447388395L177.5403045827461,119.15333551211643L179.18705839349968,118.36350689544906L180.1721627888728,117.27896298672476L179.65682999663477,116.40288030595457L179.93872743030988,115.5077295178171L180.37861840020378,115.01398909961881L180.2479850852178,114.63660799538229L180.66350963885452,113.74931828397439L180.63245125013054,111.7225130278448L180.7606103855469,111.40857053206764L180.5265577568025,110.71894029083433L180.66612301816713,109.95995943797698L180.59031125027286,109.1276311477186L180.09245045012904,108.00545882868118L180.47072062883126,107.84993458669396L181.02007348682127,107.93547595528526L181.1538413037888,106.92319195180426L180.11882160995992,106.16727693832763L179.56279129018185,105.92437950607837L179.08786712160145,105.36680538719338L178.47991134031872,105.22306460319942L177.9035863090976,105.5754582267009L177.3817941069592,105.0848174568082L176.47393600732357,105.058693744013L175.9757209354848,105.33467399914389L175.30320253975333,105.3864412773919L174.1532653569193,105.08713992046341L173.81938299751346,104.82577016014966L173.14516596642898,105.08133620801709L172.2930294376947,105.60597049282205L171.70191356290525,105.47706120533803L171.15289645356825,105.67065306758195L170.48843430319903,105.59616052066394L170.0593158546526,105.82094516951838L169.20719066523088,105.61857882525692L168.36148861219954,105.73186775328304L167.8491124761149,105.1349550961786L166.98513064066537,104.8459621909551L165.9402315884181,104.98078498204177L164.88583431818006,105.41749704365338L163.8221774497415,104.44903889074067L163.58199429384695,102.68718731006629L163.64623125818252,102.09037698886823L161.21561297564585,101.08109209875602L161.21952319135562,100.59224450739293L161.51294461033285,99.67264765532855L161.09042140021666,98.89158007001515L159.23174497311447,97.59644248541736L158.83375649905247,97.71502842422433L157.712801124002,98.38728565631209L156.8912290410335,98.68494837857452L155.96959212344154,99.28050890181112L155.32620738801415,99.22110497278663L154.92043010768975,99.35563728012858L153.34857851926427,98.74748363320123L152.75402600524285,98.87934855333879L152.23749352210325,98.70130115478696L151.1831221529792,97.85142337645175L150.4295783835405,97.94055886061778L149.3543019039589,98.48034623074636L148.86126399551176,99.25238763157995L148.0738710810383,99.42806454326274L147.32780186596028,99.73391978025211L146.31513070225083,99.51872014655146L145.89629940425766,99.72449643421169L145.53025898194574,99.60034830520817L144.63836909565725,98.78065842016986L144.34245172276496,99.15809427161093L143.28639537983327,99.95548342991606L143.1233065771794,100.88606447355141L142.62690730569193,101.34305069385573L141.41732865771337,101.11080515856975L140.40086740356674,101.25651546461813L139.52998925798966,100.20546961376749L139.15216632826377,100.03051892033454L138.33212223632654,100.16745732485197L137.73048420839586,100.60637986240909L137.01416767466435,100.49230393108701L136.27461201078222,100.69508390122519L135.70709311328028,101.0785124556196L134.9223355774957,101.38147774590198L134.1900277105142,102.13464890992327L133.43325781556268,101.93431422704907L132.36396077040808,102.63971237049827L131.879812313,102.62575674984964L130.79237722425933,101.94408674913575L129.6963700743945,101.99573711632547L129.3566480585505,101.84848977811635L128.06332856880726,102.53106154222678L125.74806450450342,102.8582730572216L124.88370392540855,103.98693042359719L125.46447647140485,105.80325430096855L125.82573128177683,106.09552424678077L125.79154441822539,106.47508760468554L124.82630813236938,107.07380840011956L124.04607661827868,107.76653866187826L123.61090224978034,108.35010212357338L123.26205226182174,108.66968137036747L121.50283157621016,109.30086877372287L121.08989568456127,109.76875410230787L120.32138129952364,109.58906882749125L119.1691350973415,108.90323544482726L118.36960105643811,108.8349050356137L117.80341519843932,109.11574828553148L116.76934248709767,109.24685964016317L115.55587342138824,108.55166996025036L114.04458165218239,107.14737736874395L113.94851980993917,106.65772281353111L114.28067892587933,105.74652737178258L114.82998180978029,105.09291885146376L115.00127257521672,104.64397146580723L114.68610581070789,103.80524105715995L115.19827646381054,103.189514618467L114.77373666773383,102.62622015619945L114.7179183379103,101.43963222523416L114.44609998329724,100.95643449442832L113.65206925371422,100.44269847105988L114.30397999736124,99.24353509022149L114.40072513681844,98.89864364653931L114.00994984128374,98.30895534494357L113.27787398973305,97.64428007459446L113.25567503011735,97.22649300085504L114.86340093460785,95.94577280287376L115.47578657741906,95.90107336490837L116.0319250269622,95.34962133410045L116.37716975356852,94.77092141259527L116.30006098911872,93.29693354820756L116.67144432598798,92.91724321358924L116.64418795191341,92.53390848889012L115.70121048483998,91.39765763861578L115.37320860870386,91.23472106769441L114.81496465752207,90.46143250613932L114.80843284631192,90.22713756337271L115.29222010305602,88.5275061585171L114.01040498249313,87.38481771128045L113.59884113884618,87.18006924272686L112.29225849745853,87.18355288142448L111.64325151452795,87.06642635123444L110.80767447593462,86.29538283745751L109.50966017555766,86.04132553260752L108.84467523342755,86.16954149331559L107.77499990513206,85.56492039887598L106.58256307890952,85.0925618991023L105.46175095658327,84.17093898256826L105.39272397898094,84.00585561631488L103.86112375493212,83.80351044221061L103.32114848561105,83.50040387154604L102.82751973435552,84.10843851509344L101.00146065860827,84.3478407388402L99.7652361662931,84.99309328544769L99.37799611228911,86.2424432720054L98.33261991991094,86.3892805139094L98.13643810805115,85.8525479183254L97.77677747536836,85.6711792416927L97.14681811582341,85.75249894358967L96.66406192069917,85.51201314445734L95.57582341179477,85.78038306309554L94.49814592883558,85.58825841461112L93.06365886547428,84.37812486465282L92.42292586647454,83.97507987099016L91.30677854180249,83.66584496351425L90.01397786266716,83.20061578039986L89.54490101886586,82.92801679978402L88.20854418527233,82.82480030823808L87.82742673509892,82.63687948649022L86.93470641817294,82.61746682974808L86.27426454440683,81.32030434445096L85.26100781861169,81.21402165046584L84.53972726192114,81.55578598008015L83.37200576260693,81.12433375495584L82.15542126352375,80.83426751270872L81.5631684041,80.80023954619901L81.03509712847153,80.48746948506869L80.3128519822385,80.2984631656218L79.89029683235822,79.76049660680565L79.72443769948768,79.1700460257016L78.24878220050596,78.98348697928304L77.82394284500151,78.78546252864908L77.72108347367248,77.56792601351117L78.26327140722788,76.9502153025851L78.3418818565824,76.08357998378688L79.10777859400514,75.76605292798013L79.07054221286307,75.45168416922206L79.34778885049127,74.71322872034852L80.46416742511246,74.25150698237667L80.86441871665738,73.97522217580354L80.91578672233118,72.81857829045293L80.56868531712644,72.28253361977022L81.15592400859532,71.33124895928995L80.80018063794341,70.35052159300176L81.07131993514486,69.83573038109898L81.20339043895365,69.08194299522165L81.08125032844328,68.33773655932964L80.4766988659012,67.45725844891876L80.41991467702792,67.0522461026012L81.02099125867608,66.72911187707359L81.07211222156911,66.14974245804842L81.44773100626117,65.65949388513673L80.85271805832781,65.36600235332207L80.31052196989367,64.82246483579274L79.89468970292,63.54945135701473L79.14297579326194,63.21412440382301L78.2515376039064,62.27649099565042L77.90615927156796,61.526996645763575L76.35816676121613,60.97352755981956L75.69355766775334,60.181869273948905L74.92275656835227,59.4828526106503L74.7461576132846,58.9374853615509L75.10599445819935,58.00511398943581L76.42577611125489,57.840661266797724L77.47632937313028,57.51614934997178L77.96742858881225,57.22985713627986L78.2693192288807,57.363093825745636L80.16672026646302,57.33308658925216L80.87191271346819,57.251092307768886L81.51615679757742,56.7539080752731L82.62299978793453,56.57472438831883L83.11874603662727,56.59529358783402L84.18617747978533,56.374517856276725L84.00890210851503,55.67175781054175L84.5929210499271,55.48879661905539L85.16310366000471,56.153155448098005L85.18611725824121,56.92939040409965L86.60438435780998,57.87293225042049L87.38894804276424,57.705547204674986L88.30278249560433,57.75200204178873L89.61568207974415,57.627549698409894L90.00176793214268,56.21938645078444L91.4090596647693,54.975644655450196L92.59476574779546,53.68454468591608L93.24233341706167,52.76291048032908L94.53425974152924,52.28018181475181L94.88771199082657,51.824545010047586L95.85103096842613,51.559789775591526L97.08506593346465,51.086761900666716L97.22830316738691,50.20048079798471L97.70968518035625,49.61751710323006L97.85404499407377,49.186084199614925L98.54483150660963,48.91048131923344L99.44163140529054,48.32874902639742L101.26452944378434,47.35905196512431L101.94799365324434,47.162200690039754L102.21981950282134,46.69670572742962L101.98378909871644,45.65241231697473L102.32197553548394,44.86047120616877L101.81063082112269,43.70483936900382L101.70963230603229,43.15468237849018L101.12836580433213,42.474904177454846L101.01208186061922,41.85840261269095L102.21593251196282,40.27565233099813L102.09630134563122,39.44785670426245L101.34904763233135,38.5571785719203L101.98662281376528,38.38759088160896L102.92184855405321,37.521005385846365L103.31220639796447,37.37236427967582L104.63115268334332,36.3898998593113L105.00807909760078,35.07301755948993L105.43349521267191,34.65445301433829L105.88344530905306,33.736067094306236L105.90785670270816,33.22960757071178L106.17021003386981,32.45649195691931L105.9038416064086,31.973416878093303L104.83998612232062,32.17516007758422L104.3654271915675,32.15334142989013L103.79402494194073,32.45788358904883L103.27612358590159,32.41738806619651L103.60893272294925,31.581698963558665L103.26975932220012,30.603837570321048L103.31619225579925,30.178333826397647L103.89686748882559,29.986517659849596L104.93897325440958,29.83772075973684L105.16912245280946,29.36814797477473L105.95241655368409,28.757133412601434L106.23555964181651,28.35316983978464L107.32649114250671,28.03796529657211L107.4782771502305,27.862554351230756L106.81869170678692,27.214216674125055L106.71110488945669,26.698940750110523L105.80251863853118,25.64452790275209L104.62019392387447,25.614280316610348L103.97114195644826,25.70463901209041L103.43982009766296,25.104089398736505L102.2510643914793,24.318562250022296L102.58016761581348,23.75910364752872L102.73745722347121,23.164643980169785L104.03747350121921,21.72596001789225L104.05967988012708,21.189886079053394L103.41623187002915,20.312311516358022L103.57191494759354,19.59805895941554L104.05605229189132,18.333668180283894L102.83830937192033,17.624504718882235L102.8474681390835,16.15577065200705L102.07243306900091,15.655274315791758L102.40923829918574,15.023359352086118L102.98450196914564,14.924783574096182L103.3792005413361,15.07406314988657L104.38645056480709,14.886687044271639L104.89353809074419,14.944843600460445L105.30029404604466,14.767114428766945L105.73131815325542,14.97002536373384L106.85669485208746,15.031088429532247L107.29698778382226,14.437127088287525L107.34907694798858,13.910446606462756L107.78152428284193,13.578141226549633L107.95161542526694,13.176910411826611L108.64276358929419,12.595303402021273L106.97042917983345,12.12974919892622L106.96877783237687,11.562664912754371L106.17377446634964,11.424413548468692L105.70391304532677,11.10380455844006L105.25426661764504,10.518502063896449L104.69630691929524,10.559624537972923L104.23497976301951,10.134311452091424L103.20036648231326,10.126254384013919L103.05832819214083,9.572876980477304L103.5732789883823,8.993244244407833L103.87159094052004,8.308187867525703L103.79958130502564,7.776683575977586L103.49803839245578,7.230326171243178L104.20874280607131,6.529746603155218L104.10269329954463,5.694504491822045L104.54516609159691,5.09743229036394L105.62877052530894,5.284706511502918L107.99560943834695,5.2127569359599875L108.34180283223395,4.969908564012258L108.78379615758968,5.624189118814684L109.23652458276774,5.974412803051564L109.42963604392389,6.704790540619797L109.95516638591107,6.700790698361743L110.34998103036924,5.8216589251724145L110.60733582604735,5.63600763701379L111.80305577705803,6.185916877164345L112.15722225379068,6.634428183848286L113.11011767781201,6.988649985496522L113.77526826624307,7.912948401336507L115.74830328382632,8.39726160932787L116.33072733618792,8.748083649094951L116.91466359885453,9.419802735659687L117.15076545864758,10.33955094304656L117.76129696069074,11.39813184805007L118.9352791394449,11.977913064542008L120.13073449220792,12.788547349781766L121.07272688267767,12.96181229238573L121.859946468423,12.715063147717956L122.68283849329237,12.975005357030568L123.29729425347432,12.971175733120617L124.93121937889555,13.278970123914405L126.31241865326774,13.74940268483897L127.58283329799997,14.30785963168455L129.03997657064247,14.80039790205592L129.91429158399296,14.942322350487302L131.6337522413578,14.716087213690116L132.53811458691598,15.157450685283038L132.85899664030512,15.088088616702407L133.4198953101495,14.35631650983396L133.33170024448918,14.109309877441774L132.49255024708873,13.511275333494268L132.2778020193091,12.987942052636754L132.25669963467408,12.271830264444361L132.45012581066294,10.780484720118693L132.4384956462727,9.014234336272239L132.70471735709907,8.164081843774511L133.10307062107677,7.91913836968979L134.18681544240826,7.739011561260668L133.8358855105016,6.139270800466875L133.99337868302064,4.632775627632327L134.45768255317307,3.751670964647019L135.19288761133612,3.4220190613150407L135.46893753605218,3.5774729364802624L137.07143974295286,4.041484629342449L137.71784302001288,4.440793623063655L138.47906982844142,4.6099212872950375L139.2236482922035,5.1909207744593004L139.65856190839077,5.7833759528211885L140.8895032744822,6.271593833204861L141.8880776245751,6.4905166048720275L142.58190645961804,6.505644964172461L143.447554859069,6.879157667171057L144.42927787663393,6.458980952135789L145.4097357413084,5.170786284633323L146.27939766520103,4.688283514961768L146.4267450680709,4.234621365813837L145.83742779108434,2.6579214907187634L145.51390499631998,0.9794901244094945L145.62653969905114,0.26886341162935423L146.06235601459957,0L147.0696756055131,0.2682310877062264L148.87165196884962,0.47051057197768387L149.86608650807102,1.335906035888911L151.23862108829417,1.4721773541414223L151.83990797813385,1.9502874205400076L152.97942858375427,2.5977486359042814L154.0574503198859,2.8789855784461906L154.73710416482027,3.2740319271679255L155.38843702818667,3.3467486278841534L156.28708137181457,3.856110221930976L157.13253083051677,4.028420999822629L158.10114551367224,4.052914832703209L159.0951640826279,4.2738094246115L159.6040508320657,4.2698709072501515L160.7724324943083,4.638039413785009L161.58548720494946,5.3919850188431155L162.1040912957942,5.683823801477956L163.0038204909415,5.913207216850424L163.78035285285296,6.567140139044568L164.52627505422424,6.953967471905344L165.45009097695038,7.015167693492003L166.46668760427565,6.942550289175415L166.97024894288916,7.047014568784107L167.44330880718735,7.4628967939615904L167.55059712318507,8.377515106201827L167.46421535172703,8.835377351641L167.92211994120407,9.60168565073036L169.04990499718406,10.081833719343194L169.39448270647154,10.550945435836184L170.4705165869018,10.617618160322309L171.15121644377905,11.277847646530972L171.72996361051264,11.465471492804681L172.77977615295822,11.502468846131706L173.89934503620316,11.404228172851617L174.34112382988133,11.696312968550046L175.10499562345103,11.837369176226275L176.22330184621387,12.33234909247858L177.15371418713767,12.13633913643389L177.95485067656773,12.121239010332829L179.49279006552024,11.423770588217849L180.5858396786807,11.738920584716652L182.1483145138045,11.95357315646379L183.03440507904452,11.761470745383122L183.58253036046335,12.367727270460819L184.23124227496191,12.429666115312102L184.7089002337525,13.134957028825738L185.26554701188616,13.611365291975744L186.3572411789064,14.13712354404015L187.0892658934281,14.012262125640518L187.50035146563823,14.180169786953229L188.52875316127393,14.046632968234917L189.1842452625042,13.858575439537162L190.22014183235297,14.366024423014096L191.08489258298505,14.530741359267267L191.06802927089302,13.917165613928773L191.86759940426055,13.311563788934109L192.50952644703648,13.370146883944471L193.47886987481252,13.715954087846512L194.58861854315,13.714015634360294L195.26058113456384,14.089306778740138L195.6197594612986,14.670250338830556L196.46809241962183,15.123653652872235L196.7408633522282,15.443273209309154L196.69995683373782,16.014032468205187L197.41010377122075,16.94872832020701L198.63597820600444,16.93449171204611L199.35695876299542,17.6028162111661L200.0568642935632,17.725599946404145L201.0597548482001,18.208064436200402L201.74730490248476,18.423194604860328L202.77810809958646,18.344600027985507L203.21060716975626,18.817433752420584L204.07190601292314,19.071398337897335L204.63830054627942,18.843341620407045L205.4949120219626,19.269249133262747L206.2493876162771,19.256023423576153L207.38880299718767,19.48954297072123L208.56936521911302,19.56031694691319L209.65151378589144,19.146911279369306L209.94139659084613,17.658674853885714L210.5740328400425,17.311007945761048L210.92769791839964,17.775881885099807L211.78268351936822,18.358447361961225L212.65867534458084,18.429397080161834L213.0968204848068,18.910828467948704L213.15839974382652,19.6361254642743L212.89288111003953,20.08143663608371L212.18889620855043,20.553171897459833L212.07253031885193,20.820157134173314L213.3489318356642,21.240118648479438L214.4714459645329,21.449510796689538L215.29855267225867,22.429324851039382L215.4090159695461,22.83808412856615L215.9295408387734,23.011244390594584L217.0522855504878,23.107163292987934L217.30201018223124,23.558088799049074L217.89677867540922,23.856478857755064L218.02847484019003,24.73435444608458L218.2874385803425,24.793322569582415L219.28201128050205,24.502956621873636L219.65504834903732,24.81959861863197L220.1393676976404,24.810479605359433L221.29772187924573,23.350669500380718L222.1159368472545,23.00471456041214L222.84147285252766,22.991305486414603L222.98587986147504,22.486816005241963L222.76496414566463,21.599400875562424L222.73668974998327,20.507951651425174L223.64094093169842,20.221493915944848L224.66502074635537,20.150798960383327L224.96146701297948,20.566365211372613L225.83010500888668,20.984642283856374L226.48380992710918,21.488324338361053L226.85595890668083,21.47004575607116L228.0767635139091,20.82295538829203L228.61494579854116,20.849328884401984L231.48134445045434,22.279540784646088L231.5939191387497,21.00317653285856L232.10633999752463,20.712082520904005L232.19175122837805,20.102853112167395L233.3082141486957,19.59836202029055L233.1365588313729,18.87347073613273L233.42372225893996,18.01485453749956L233.77805864706716,17.708379895544567L234.14758970143885,17.844873191836086L234.89222207582134,17.360387585501485L236.51235992673537,17.129780487043718L237.22879928329166,17.26743233954221L238.06937277076577,17.977592553515933L238.44148775446774,18.748825574879447L239.0423191740556,19.078691594101656L239.9504383341482,19.328062546747788L240.29017892491902,19.159446137233317L241.068426092359,19.150984229387177L241.85818447865677,19.736636919868033L242.3168456065032,20.330561418731122L242.12681452813194,21.26414331858723L242.16249920688279,21.747944202562394L242.45225402001415,22.562742837922997L242.8375681654652,23.169748745896868L243.7629713514325,23.602366793472356L244.21958241141147,24.58655845825433L243.61880121826835,24.968579341507393L244.02468222800417,25.149714312377L244.5735763281573,26.881615575458454L245.0799828472136,27.822927995265673L245.64655231672623,28.420488499343264L245.09041795423764,28.503203932419638L244.26303883312357,29.317283722150933L243.26782593975804,30.07999981956891L243.6175851515527,30.585939758689165L243.3135113375829,31.588819801387217L242.85765962976984,31.897843417479635L242.78732604165634,32.59113963329855L242.5381948547256,33.08667774058358L242.03337773715975,33.2940966503038L242.10600850221635,33.616021608344454L242.7793502407585,33.72516187574365L243.2644025735135,34.26231882117372L243.474058321779,34.88107266069164L243.12676466368248,35.8747554588972L243.6883955024332,36.30914240024231L243.7137561141899,36.8021536145543L243.45614760659373,37.17164040395346L242.6016279697269,37.281047421062794L241.4903570774859,37.758238802945016L241.56315147773057,38.31440979283616L241.01317583269338,38.966536714565336L241.13079700486196,39.669812006671236L240.6002435387236,40.2403456898619L239.78718759812546,40.75416513972141L240.17403386781552,41.42832425566394L241.27974438407364,42.23273773858091L241.76068387897794,42.88384569187747L241.94094419543762,43.363578409611364L242.59846514443598,43.59367541378924L245.29561509157793,43.302476713697615L245.63251580385804,43.8525324489965L246.12085745286095,44.11751278921838L246.64770155449878,44.91893388527478L246.20051536557912,45.595701390304384L246.42792395817742,45.934452260059516L246.49660248786859,47.09168256409521L247.8863471657005,47.990740836082296L247.5660826489493,48.34155108287541L247.76856848255557,48.673455951903634L248.3040733666803,48.94065242920897L250.32932232063104,49.599221602996295L250.50276037699405,50.041391301796466L251.20016959322675,50.25835838973853L251.61522593327754,50.55901680587249L252.36498678400858,50.550187883252875L253.64850464151095,50.34237813563141L255.5628247422228,49.938329606640764L256.6503638851773,50.25485117862536L257.1486514455246,51.234327144887175L256.605808905073,52.17125788418889L256.61347270921215,52.668984710270706L257.02569023172873,53.09965058314992L257.02721213035693,53.91862993412451L256.84033213627663,54.40178500039747L256.1369996835747,55.06103003875705L256.0535798234814,55.413416861780206L256.2546652428773,56.16614653765828L258.1711997837101,56.283817797003394L258.76690185980624,56.717506193802365L259.4720491441385,56.824257733881495L260.77601177870747,57.497840409680066L260.74157993933113,57.85197793759744L259.76444340450143,59.26438815774054L259.3201281294678,59.56705522523771L259.0860059379629,60.4055482837839L259.16800813937334,60.8579949947698L258.6331744245599,61.113877829598096L257.14490115725494,61.4398178539177L256.77556339630974,61.81746316221597L256.1483730606633,61.966499943566305L255.67275472845176,62.28397470143318L255.40832593219056,62.72534235631247L255.16177551222063,63.696794674255216L254.85437885718602,63.8527099922303L253.9817784364186,63.749010441478276L254.16380950585335,64.60806115497962L255.0926445427085,64.52133546064579L255.636340774583,64.68488108665224L256.0509479778284,65.19554777345456L257.0418041953126,65.88335436998113L256.7369300481987,66.01982059408692L256.0128673206109,66.89017646874254L255.59667436548625,68.01435781312921L256.09766319463233,68.71363509815092L255.21186643871806,70.2247590703746L254.46649811468887,70.66934244798449L253.5273152889422,70.80727516137995L253.02240016607175,71.67259418492904L253.08031193497118,72.74622327670022L253.49103497458964,73.1582607702976L253.5420755911273,73.55030318593981L254.19458374633905,74.87319761908384L255.50377999022385,74.46282577754118L256.23334605168566,74.47378915878835L257.3668822958625,73.99341297613228L259.27220290145124,74.3271674869693L259.5971446187941,74.55995148333204L260.3644404941788,74.40166581587528L261.02320706658975,74.43334074748054L261.8919036861662,74.69104068169418L262.47076438019576,74.37993312706658L263.4108047860809,74.25515419587828L264.3078674970275,74.62060740608194L265.2379672976731,74.70485705313149L265.8597147813016,74.92547500915134L266.2252836571606,74.06661234960757L267.30375690186884,73.56008842677602L267.90871200446236,73.04117678642524L268.3362270815578,72.87727433541204L269.3681747854116,73.06031100602831L269.9913155585218,73.77560631148935L270.7867683989789,74.32239775139624L271.21215425777154,74.89749851821216L271.8463308699829,75.03395131208981L272.6247709603449,75.49180149554923L273.73182636922866,75.50779312926988L274.1466540941292,75.37170496610634L275.1167384066375,75.35194804095772L275.96434064787354,75.98559814867622L275.95067431444113,76.7005596712379L276.4452616219969,77.585791197469L276.4055844672839,78.39597758403124L276.77663576644954,78.60688683261014L277.2371824371712,79.16341986543648L278.74506878559987,79.7665029401578L279.02157804607486,80.22932058016431L279.4477693551016,80.00636056651183L280.2997621917384,80.31755786260146L281.47220235835994,80.22667664542041L282.37227418317525,79.7490593304301L282.9412580090939,79.1324741404078L282.97133252437925,78.27181583683159L283.3612831103528,77.95177022770531L284.3778876840461,78.25370600451879L285.9851509539694,78.461327351004L286.69918493800833,79.60311681716757L287.36179100465597,79.95546848735285L287.84624246785097,80.4381731043677L287.9757680033126,81.79235529449761L289.0585075425988,82.79696722278732L289.4085461503764,82.52831277106816L290.0290664604927,82.6133628710877L290.99824921059917,83.47944470784205L291.42772949481514,84.25512311810598L291.64599680060564,85.60934081432879L292.67988862799757,84.97436533033488L293.613335400265,84.59339266560255L294.0722179992099,85.22489281723665L294.41533365408213,84.77766956732103L294.13741687628135,84.36462587081405L294.51330044821043,83.65258621180692L294.19234469838193,83.08130514673121L294.1739016100164,82.4857818692999L295.22426161966723,82.28332739881444L295.5210960144632,82.48665648306542L295.69824827137563,83.09797677408187L296.41074005626433,83.64114411752689L297.10502181308766,82.96652828143306L297.499617581836,82.83324503509175L298.4858390749105,83.22025249851959L298.9096942403776,83.79710469733527L299.0929716920764,84.49647234950407L300.19017156764676,84.67699721795725L300.5948159320851,85.50160484422213L301.7490678212689,85.96875766674475L302.18226765372856,86.5554812437731L302.9616107390557,86.83083102920682L303.1543942364042,87.65362910122712L303.5384636040908,88.47540786508489L304.7475407337497,89.34192714146684L305.19602252894583,89.80776745278581L305.75183767327144,89.66620252631219L306.07506664045104,89.9874993782596L306.50410216704586,89.91528176428346L306.7675784416151,90.25846580658344L307.4860776178193,90.48952942497453L308.0844910308024,91.15550434970464L309.49500052430267,91.68989235632125L309.92775763268764,92.17862352084649L310.1332878202429,91.59220909828127L310.9952039954733,91.42409933166527L311.284240588584,91.17008149382309L311.6366236198628,91.8143941162325L312.6631895504379,92.34203929212981L313.8212873067987,92.81903904511728L314.00987177840943,93.72761888033165L313.37241719070516,94.46119359115892L314.30536926076456,95.10320751499967L314.79441519736974,95.67484136253915L315.7363148822569,96.0580159793708L316.21924072898037,96.8072880125228L317.4636062971895,97.27834647016334Z" fill="#FF7B46"></path>
    <text x="200" y="88" font-size= "8" font-weight="500">
    हुम्ला
  </text>
    </g>
</svg>