<svg  viewBox="182 160 160 160"  version="1.1" xmlns="http://www.w3.org/2000/svg" xmlns:xlink="http://www.w3.org/1999/xlink">
  <g>
    <path id="path-0605" d="M329.95275390305505,202.99083766188505L329.73712438420625,204.49109010273332L329.0637082980793,205.69531399292646L328.9041877236723,206.17572578137242L328.82467803695545,207.37351120566746L328.4319326500354,208.24276103964803L327.92520356314526,209.071264965316L328.29065675741185,209.85448950892624L329.69389297996895,210.4129691815142L329.7062912650181,210.6435655710684L330.63751248141125,211.69871400728243L331.814994565686,211.98925761482133L331.8746042027906,212.8279678920835L332.57633856005486,213.7557085366625L332.3816671847799,214.1365973953143L332.34359968530043,215.90013265005746L333.0662254639701,216.72160116137638L333.23131844269847,217.55167544259984L334.52859879677453,217.7323447113513L334.70189159600704,218.25825136005278L335.16185135411797,218.84564876943932L336.2310921922872,219.67237876174568L336.1544829284376,220.1028072233412L336.3681198739141,222.07277115230227L336.14011324912826,222.51453076208236L335.9240367361617,223.69388575173252L336.2737112278428,224.2316332605551L335.6568765725042,224.80082180605496L334.9278428887428,225.14800088814445L334.2750878350198,225.722468632046L332.60159666651816,226.4793412857125L331.26033181030107,226.66520458315517L330.09441092099587,227.03842815543794L329.5517047403064,227.46463789377776L329.3543874765983,227.81948855269093L328.7280110081738,228.31600033765972L328.39051669000946,228.79216483671917L328.3681603879995,229.15485141857243L328.7170737806646,230.25740630754444L328.5762679746349,230.814083299093L328.6807854140825,231.55020767769747L327.7317986000762,232.732696291514L326.3864170957968,233.49212393852213L326.05227885660133,233.99126477202026L325.1491286220844,234.30039320583182L324.5578243649652,234.62512054935178L324.7812067661034,235.1177132484754L325.2537325735866,235.08025354682923L326.19595226261663,235.51107167296414L326.40135664820446,236.03569193782914L326.0177428503157,236.66354283728379L325.1841241253878,237.25523317916577L325.52220724345716,238.1492372428047L325.9266427866387,238.280059656503L326.8353470615475,238.9614383657954L327.249327798525,240.01022572045804L327.3500360324233,240.72739101212028L327.08201934997305,241.2244733377638L327.3908903475003,241.95660215720727L328.2533188633806,242.94485581716708L329.10081073184665,243.52575663310927L330.296304904552,243.62912103647614L330.91340050288636,243.91553312103406L332.11273429425273,245.01876185536912L333.57356566701856,245.42485706982097L334.0862435161762,245.72617589542915L334.5903803821584,246.42803828755495L333.9452075066092,247.7401506226006L333.875362029652,248.36014643564795L333.05614917926323,249.13927294591758L332.42070395537667,249.9823289762253L331.7026920792032,249.64965936746557L331.1361043427514,250.08934177810534L330.4212345615015,250.12706213472757L329.6973293655101,250.98263639854304L328.84037512764553,251.31279321473903L326.51147635166853,251.62314221388078L325.3630958293161,251.48892554519443L324.4822916586072,251.54852233854217L324.0570190587696,251.81796195082188L323.06811376948826,252.05514955982198L321.3282711024258,252.986685194659L320.7433650148905,252.93616016130272L319.3934512892938,252.33504571291087L318.4568209456884,252.1616461274425L317.3205542644391,252.10964695439088L316.2247495185384,251.9378785391873L315.64763671599576,252.11401854524502L314.97301007871647,252.12113167598181L313.29802748219663,251.71413301306984L313.1213125120248,251.56145772320906L312.0154355625,251.77431107088523L310.81657123901095,252.8830240443367L309.6932651819898,253.00869965654238L308.5515435270536,252.6798449419266L308.0292455759445,252.70424941616238L307.314860989085,253.15270306290313L306.9458951665674,253.81881505035562L305.90919861711154,254.53788256688495L305.3820229521425,255.0454156814194L305.6576958174046,255.97791474588394L305.62034935268275,256.3563151706621L304.6613846303753,256.4092748012172L304.2410480417948,256.7058058436278L302.95115598144,256.71641814920076L302.3626891985077,256.8388038307039L302.01953899200635,257.44736427496264L301.9977338262579,257.81755863080616L302.2422969358049,258.6237125588068L301.56973054742775,259.45201070854455L302.00750365715794,259.64846728410976L302.44047026428416,260.2046830802201L302.18757687900506,261.28362117511006L302.45705674515557,261.76604786922144L302.12340369665435,262.68943114049125L301.8373656562526,262.8663141000816L301.81513896440083,263.6272294094515L301.962087867385,264.13267095969786L301.21249891064326,264.90360274773593L298.7150063812205,263.8011268080063L298.4332225818598,263.55463683485596L298.02591395100717,263.6958199214205L297.4140138494986,263.5573088747806L296.55095433378665,262.8755985881153L294.7762442321109,262.4625630781211L293.54700278062955,261.9875963544009L292.3894514107251,261.9687024004861L292.09170926069055,261.6942637703878L291.0722960506391,261.22640991328353L290.13982118724016,261.255425155412L290.07140372965114,260.94531848296083L289.31102013266354,260.76658859041345L288.1262939387834,260.8178856282884L287.6928416129358,261.16096969900264L286.7037706189767,261.0419007509345L285.10042867847005,261.73628503890177L283.8365795817954,262.0659084261315L282.7504133358834,261.89519295196624L282.13784349657,261.2906753547204L281.3839368061472,261.013217950499L279.9097870173191,260.26730233628496L279.37252100147816,260.16881515243676L276.48361099853355,260.91405682857294L276.22849784038954,259.80211880882325L275.9509210066153,259.2204136977725L275.02131328919677,258.64395962969775L273.96935888128974,259.4751410945337L273.2454670420502,259.73038983874267L272.3384673464352,259.83279187868084L272.47166358996583,261.0628713275928L273.0594054424291,261.48835480049L271.8517467949805,262.55905124954734L270.30088676763444,262.0887674383366L268.7756632598721,263.1712259170308L267.79622530123197,263.4308995517131L267.08226705519155,263.7575880112172L266.53222794222347,263.68798065633473L266.0772772237651,263.0817461755214L265.44268298749193,262.9150170307257L264.6996969964457,263.1124453847897L264.7139482447765,264.23578921714034L264.3685147791748,265.2382548649184L263.6630864392464,265.8984191142399L262.6162902656306,266.1788899697285L261.95696690853947,266.560152673007L261.1067615488082,266.2567562366794L260.6270769080347,265.9297659095582L259.90487524899254,266.1920446591548L260.10104670467445,267.4894112287893L260.38460802337977,267.8358533664132L259.6302944956624,268.7702038804773L259.348671867383,269.31050785605476L258.65643506888773,269.37418013225124L257.97468933146774,269.86275604801267L257.35446449111805,270.58309124668267L256.54146237354144,270.7854317936035L255.87843439349126,271.5160310157462L255.26792127422414,270.8599879035419L254.43068937230055,270.77220912816665L254.0385508770487,270.0111158805321L253.24515546466318,270.1704182982521L253.2208579741382,270.8876221262599L252.4086617185858,271.6382603607235L251.66814153071573,272.07035142351924L251.20647145368457,273.068483039483L250.83438700772786,273.31016881247706L250.06997679325468,273.2753106149621L249.9793957865004,273.8438915073448L249.47655178472814,274.1870254266769L249.77232945464493,275.56210129682313L249.49908812209105,275.66232665570715L249.2924167307374,276.1786366672195L249.25140832329635,277.2489127418057L248.8023501550815,277.42190313819447L247.66207931840472,277.4007183500098L247.48238667305668,277.83770069425464L246.50928286474846,278.2397027421666L245.9782064453393,279.10076088824917L245.65864851353217,279.29169213726436L245.24812371286498,280.39292282967926L245.0189983538021,280.61907675180737L244.15228687300805,280.47525358587154L243.77032037727258,280.79123304298537L243.79392891913085,281.2719363033766L243.5389513181599,282.25513534760375L244.00506171790948,283.0171339720064L244.35970463584817,284.05139688724375L244.73308754886602,284.5124748002909L244.35194200370825,284.85188379171905L243.54395748103343,284.8513437451302L242.77278380531425,285.33340515465625L241.83454450992758,285.58468850439294L241.11584905623204,286.05397500526215L240.87904792134395,286.45606490698447L240.15505747925454,286.6844179196987L239.61412623172146,287.0862425421701L239.43003199733903,287.9401066381588L239.07310165777562,288.4420278644784L237.10882264958673,288.85799337965454L236.472938458488,289.1565725512746L235.86147796640398,289.6335000289391L234.58213512207294,289.20993643565544L234.2765657450691,288.8494465937956L233.74425731381598,288.6113739889015L232.84571806944768,288.59363958623L231.83486077744783,287.8439081470933L231.35918582930026,287.7915441744717L230.26112394056872,287.40278559195303L229.53859190761796,286.301300948694L228.9262188035318,285.72540561671303L229.21987463646474,284.8586066668231L228.67073594057183,283.7633536735757L229.21150075688456,282.95328195060483L228.53489209653344,282.3786612559725L228.10059182735495,281.1804294262456L227.55455407927911,280.9167229215818L227.05918955317065,280.3744944940672L226.01813754022078,279.98368981078875L225.6513692780063,279.58966707008403L224.53331007118504,279.312814513999L223.72958220376313,279.0074576497009L223.42977606136265,278.35536615776255L222.78884385734455,277.82979637063363L222.7608131281504,277.288063727784L223.2461285470672,276.07341995134084L223.29609215764503,275.14237381949897L223.58217539686484,274.74758283745723L223.57867428650388,274.1415013157284L223.89859173871628,273.50471080925035L223.2172926479143,272.9372672720483L223.13917485404454,272.578170585155L223.77765850951982,271.76741173695245L223.32219416485168,271.19062025565654L222.91003058850038,270.3498203053541L222.9806881167442,269.22047407624905L223.55240184622744,269.14743421380354L224.00438399573432,268.8038479229717L224.31096123866337,267.29568220438887L224.0509817749953,266.61030142421714L223.85387262159202,265.5947384821193L223.2920790267326,264.97868288507016L222.45548987804614,264.5259029371846L220.97289479292158,264.04089629873033L220.14366421498744,263.4808278396249L219.8319443599994,263.6690277194102L219.00577491041804,263.073208662272L217.6221844218744,262.57232785442466L216.75439700103198,262.5195528148006L215.66541713657352,261.8206743322562L215.1366595653144,260.8390293789771L213.64129365219014,259.8150333846097L212.84115674871464,258.95612468647505L212.22712104995662,258.5423868406815L211.58899031038527,258.5289844821609L210.51686963270913,258.2402267134903L210.2462917363282,257.97485082147705L210.53688541264455,257.08926439785137L210.3859961149028,256.74251426089904L210.71504153630485,256.3315192718719L210.73721118095818,255.78309888106833L210.4193416186663,255.1805490227489L209.36185822385596,254.31637741585928L209.12288360685488,254.3898413791194L208.1905015919856,254.11452950611056L207.72261789395816,253.48267334752836L206.80113672264088,253.26362649458406L206.0912918662998,252.80250425260238L205.0912273122958,252.90479700896958L204.3509275339984,252.6353735771727L203.78970048693373,252.8870435305107L202.91188107155722,252.73296923616726L201.62441561914966,252.8170905383895L201.4413372086965,252.24383496077098L201.11616243629032,251.99364675822108L201.00629775982088,251.48322003747853L200.08837114674498,250.73309556351523L199.86069437530023,249.76259185193157L200.07650050610755,249.15709536319173L200.58891558459072,248.4735658120553L201.09485626289643,248.03226806368002L201.2344773849636,247.63358446098755L202.19801424808975,247.131287775459L202.56081136775902,246.66163893062821L202.59283737700753,245.97270250150723L202.90110633786207,245.25026531467938L203.0041732119571,244.33326661040064L202.66626404124145,243.53086183040887L202.11690671131873,243.22079851031958L201.48459163169355,242.41507866005577L201.3705516688642,241.9589943333558L200.215338390135,241.8517706452567L199.7919322582784,241.70837003954784L198.89625529858495,240.77716555491133L198.30288516230212,240.6326649804205L197.9073369975522,240.26357871037817L197.07925005756442,239.95576047523718L196.1066145849054,239.11876506269164L195.39942307495585,239.1053023797176L194.9545073870613,239.43924964100006L194.5609075327484,239.12814316291679L194.01876402729795,238.14061973334992L193.5889753084466,237.8885346072184L193.24872083150876,237.43013858423092L193.31852237008025,237.0667778488505L192.89224133378048,236.4058210605308L192.09672209489509,236.2605883695942L191.09043696939443,235.711336944305L191.09726686430076,234.7936782630286L190.87969353133303,234.497009245767L190.37861616821283,232.92277952366476L190.49314631826564,232.00934479777152L190.6879981937309,231.42751090904312L191.82929518912533,231.3326627807901L192.0146167530056,230.63010510033473L192.77632864312363,230.4594988868912L193.12514115054728,230.07626888099003L193.554119645416,230.22048998679384L194.19210156299596,230.13752878522791L194.6536335965011,230.3376839242692L195.78838196489232,230.44188274573298L196.66701673940952,230.31061399768078L197.10329678785274,229.89442468363904L197.07294055255807,228.74223854582397L197.1730642269231,228.29820292137356L197.6963632362349,227.41535697381823L198.26640883299842,227.21048475065254L199.41017870894575,226.36847586780914L200.35582471318958,225.30020878184405L200.65942644874667,224.52071049986807L200.3622122880679,223.61782653502178L200.65936021713242,222.85950433017024L201.10938541163705,222.6711311594563L201.78227342937316,222.02011669815693L202.1621757035191,221.33665027708503L202.357403281605,220.5369940500077L203.79818835619517,220.43189055534003L204.63266634576394,219.94828538288857L205.0309938680184,219.58899861062673L205.92378287501197,219.27513117008493L206.35460235347637,218.952341593661L206.81582324529518,218.1859582695697L206.9320059431393,217.23726292083484L206.6104732205058,216.56177924161693L206.7900419765574,216.05072405887768L206.37988603710073,215.15803163812325L205.83670515801896,214.38024737771502L205.8976847486374,213.10450699681314L206.32891010811363,212.1937992073572L206.03313048026394,210.01381630377182L206.05924992171276,209.13610892524048L205.75693931968271,208.82856533047106L205.7002116324893,208.16776285566084L206.53808883806232,207.38454630955857L206.85630729019795,206.26487273471776L206.6926126755352,205.51668560884082L206.280400877562,204.7163886533417L206.50577329943007,202.83046190722234L206.8532603871099,202.3015475633456L206.61826488000588,201.61962057240544L206.80508295870095,199.69276314582203L206.54424070547066,198.70033715223872L206.96440923222144,197.91911046577115L207.8365621310877,196.936381219728L208.39364887499505,196.65475387589595L209.21048819638054,196.69852757186618L209.47220939723593,196.84847047925632L210.69878201373467,196.75111025580463L212.1099798489704,196.74309321268174L212.7478264705078,196.63540415771513L213.6237239972561,196.17184760462624L213.7269965609703,195.81367942885117L214.69927382305104,194.4358557149053L215.14389464080523,194.06205499135467L215.0909914829972,193.59841324658373L215.42675718968712,193.0178389847788L216.08607133788792,192.82905872758238L216.40506267307137,192.47247976041308L216.5048398978779,191.8406650896468L216.09262358137676,191.47384502404202L216.41147694589563,190.93690894553038L217.45871641154736,190.82749956957196L218.26684847514298,190.89183693752148L218.77298473926385,191.12855019818198L219.3055086202603,191.10556648235524L220.29682225625402,191.34195460597675L220.85956426646771,190.90415889697033L221.70965404640083,190.93886889787336L222.1854807742966,191.2748732910204L222.84027463579332,192.3800445568877L223.4053998635718,193.02484468113562L224.3529913840739,191.88635022354265L224.84219466535978,191.70003403831106L225.4813562725485,191.84507268801372L225.9440590111335,191.7682007901185L226.3787712167923,191.35251362140752L227.08641820685625,190.1499556469971L228.56902007693498,189.00915122834886L229.92534680073004,188.75149339843665L231.32537212387615,189.24038310938158L231.6814132206673,189.70335928056738L232.39761619316596,189.59678358877954L233.86765873823606,188.79390087895717L234.86361222324194,188.9301040697619L235.56914800560662,188.8208830464755L236.53152059625063,188.97853212010068L237.13220466162966,189.2627766848209L238.218299938364,190.28300530216075L238.77949075285505,192.09945314267225L238.7954090069543,192.61675184300748L239.65908120717904,193.34965652313622L240.2195545476552,193.42323188847786L240.88927519557365,193.7174327394432L241.31614213519788,193.58129550314516L242.22044075475424,192.46210361949397L242.57910736466147,192.50489149572422L243.64889002039308,192.19648379028513L244.2320618889189,191.86192213486993L245.0563009870457,192.0439211924995L245.4885739788224,191.51670798793384L246.16729134098568,191.54457390296648L246.74581487697833,192.85875031282194L247.93435681835763,193.2256085030458L248.2452888830394,193.50321893367436L248.44815823910176,194.04863537019992L248.45936660926782,194.8505545114076L249.02700080152317,196.06744897046065L248.41313317424465,196.81448340893076L247.8264208821547,197.76643090288144L248.38915124092637,198.70744982807992L248.6542280161175,199.5208291435456L249.1978401160559,199.75094042064575L249.59663813517363,199.68054830039455L250.43920062117832,199.96188682749926L251.4112725725554,201.44356731067273L252.23114560697104,201.9576949765933L253.6008434944688,202.22119373862643L253.99107816825745,202.00271683045503L254.8816845131496,202.21919175349922L255.5081164316125,202.75250174861867L255.9432853635808,203.87730894043034L256.8554447406095,203.9994530740496L258.3902963498276,203.0720975375698L259.146416530064,203.19028788791002L259.8047600371192,203.49676090349203L260.4192645208386,203.4205359178568L260.68669754940856,203.15288687201064L261.6826358560029,203.11815117960032L262.33149586960826,203.85867683570632L262.73631729525187,203.67097774694776L263.10122197680175,202.6081686002981L264.0625062252093,201.50574258414417L264.3319984304453,200.66087960174627L264.2894912628326,200.11150493572495L263.9986789039467,199.72031061852795L264.7529377366991,199.18002469885687L265.4266576593109,199.16766973723497L266.4271916738526,198.63324692235983L266.7555614958892,198.13108128824206L267.51124149363204,197.61962602566655L268.94024213598095,198.69776837224435L270.69921430637623,197.7931532429402L271.1375845469065,197.8388303708025L272.1368571385992,196.63941558504666L272.95960719676987,196.4253416577858L273.46837081526246,197.0056837631446L274.615450400961,197.02329181157165L274.9319590766827,196.8601257428827L275.8812098258022,196.718971821384L276.71896301242305,197.20000630429422L277.6002071447583,197.1139427284943L278.06338590266023,196.9460592862688L278.35419611211546,196.55241952831693L278.3811405281049,195.94137756396503L278.9100483426846,195.73922459991354L279.09195813092265,195.34452084348504L278.58219772692246,194.50636823665172L278.5862582224836,194.2071732406339L279.3363757829975,193.5735856226338L279.5608083150837,193.24074354944605L279.6486076608435,192.60600176456683L279.12316464075775,191.41850082462224L279.6944659995861,190.9140169592356L280.4794457280168,190.00763959573123L280.3012074410872,189.59660273104328L279.6126730233209,189.18188656936945L279.4600609684494,188.4046849191427L279.7204496441882,187.35128337490733L279.41466838908855,186.797552341548L280.18561700399914,186.77063362247281L281.2356042272113,184.9064221542967L282.17391712587596,184.70042991373157L282.6142149329535,184.34367761580506L284.9161083579547,184.06954529414816L285.1592082680363,184.5590633988768L285.9487045299593,184.8387980609932L287.1046133667114,184.81373548090505L287.6463489569178,185.55379709038425L288.26938994548436,186.82067284099594L289.6312377926588,187.09526766871386L290.90163510488856,187.25452878757824L291.96633367533286,187.52133838823738L293.11191577801947,187.35896885444527L293.40456159150926,186.89082732187035L294.11460687633553,186.25858744062862L295.0846866262382,185.94951946006495L295.75752568115786,185.3275557800307L296.1391661989983,185.28778262067044L297.0420165074029,185.9946727725528L297.5435843638952,186.86312581695347L297.6381783009165,187.41705580823782L298.1256125032287,188.25267343172436L298.1938273563628,188.85892525744293L299.09834718599996,189.77584831778586L299.2743736657121,190.44731672189755L299.7371172967687,191.25000110308702L300.268291060298,191.72147451968522L300.9632783227189,192.7180095344529L300.75874198911697,193.42877344955832L300.7701934633369,194.11620274695179L301.0439095083311,194.52794862387418L301.09408555392656,195.19015970776582L301.9387930540797,195.55667957756032L302.30967501145096,195.8682637600141L304.0789585397288,195.5932324948135L304.6028991457515,196.32283501019265L305.2329420053011,196.73844603815087L307.0309775538699,196.2495601783503L307.73438468821223,195.60039420900375L308.3021283918988,195.43152938903313L308.813927301082,194.5805268211634L309.0342643928252,193.98491394986922L309.22383516774244,192.63405746511944L310.4097131420167,191.9827167921494L311.062003841309,191.47407972697056L311.79477453927575,191.22844500783685L312.4957098905488,190.69517745603207L312.9169921198445,190.554422798612L313.51436098254635,189.71198003202335L314.01657329314,189.67025775616275L314.62592633076565,189.18156027486475L314.7788655901113,188.45222982092764L315.67591016369624,188.46134139302558L316.4042556580516,187.34640141408L317.64544498151554,186.90465191064595L318.11844425323216,187.3077603897591L318.8205578307352,188.8728624107007L318.5649265687607,189.55684173714963L318.64483448547435,190.6617884267207L319.5219881906014,191.23180049377606L319.61160756060417,191.65951977140048L319.03419711196693,192.2763872443511L318.8375452522323,192.84390395679202L318.87379945168504,193.66205083431214L318.5556025730093,193.92508339230426L318.94065997280813,195.19144822144426L319.01235258491397,196.42820301489155L319.52133898217835,197.11994860993582L319.4937879978479,197.37616738443649L319.985920071842,197.9372687955265L320.43400493229456,198.12539672840012L320.71045567768124,198.72694258295996L320.91871789804827,200.79091831481583L321.062077135819,201.218489882036L321.715642455556,201.41275089234114L321.92901709685975,201.14429416368512L323.4878846588945,200.8573733772546L324.83516821285593,200.97598367305272L325.5961393731577,201.14617672920212L326.6769752544642,201.17232195950055L328.05712782899354,201.83969473088837L328.9819617055273,202.54124465260793L329.6951696572396,202.7173784376373Z" fill="#FF7B46"></path>
    <text x="260" y="235" font-size= "4.2" font-weight="500">
      जुम्ला
    </text>
  </g>
</svg>