<svg  viewBox="262 202 80 80"  version="1.1" xmlns="http://www.w3.org/2000/svg" xmlns:xlink="http://www.w3.org/1999/xlink">
  <g>
    <path id="path-0307" d="M308.0928782356823,221.71901905074355L308.1710225665811,221.70911321382118L308.249467909809,221.7079392404503L308.40147644714307,221.69293607987947L308.4704046969928,221.67954651366654L308.525698902944,221.67863201673663L308.7199679015175,221.70380763467983L308.8313746283493,221.73496280920244L308.90056177329825,221.73369998535054L308.97008398692196,221.74941309582027L309.01149091816114,221.7483635868075L309.0942241340308,221.73074624559376L309.2449233506886,221.64541998865843L309.3133066544833,221.59905193629857L309.3818126454498,221.56480845495844L309.4642942098544,221.53458157199748L309.51912569377964,221.50505363980028L309.5924316272685,221.47910150303505L309.60632485821407,221.47875284509973L309.68897726134674,221.45677205220727L309.88238945641933,221.44121292505952L309.9378203067572,221.44030240913798L309.97948001736586,221.4518648664498L310.0260750663401,221.47171963092205L310.07316637045005,221.52843385006508L310.078904337679,221.58183227424888L310.1498609427654,221.6795150097405L310.19813622670335,221.79443238007298L310.2449404433173,221.83029214029648L310.28761369960193,221.8918125292721L310.3656689496529,221.9439823327657L310.37174742018397,221.94792152835453L310.487309393975,221.96215121284968L310.53433095810396,222.00237789874882L310.53492288900816,222.03147938172242L310.5260929424039,222.05175946520285L310.50816306382694,222.08116364909984L310.4900353954654,222.0935934303252L310.45329792949633,222.10244567053724L310.4301471767758,222.10270288785432L310.4115914902359,222.09476154362164L310.33624004818193,222.02225124961478L310.32248328813876,222.02260091682365L310.30421952010875,222.03502947398738L310.30010075386963,222.0597202977906L310.30163134120085,222.13392929839665L310.3206151917366,222.16224175185107L310.39519809936246,222.19788993278507L310.4186406851695,222.21800252229605L310.43418555260723,222.30398762779623L310.4534211258615,222.34491075962706L310.4717246011169,222.34024152241818L310.4990820337989,222.31917382106167L310.5312722520539,222.31464123781097L310.55926152708344,222.33043431793158L310.56902925140093,222.35526174499228L310.56503210943265,222.39207692176024L310.5567942028756,222.44145849486176L310.5347998500147,222.49118965201524L310.5177263038495,222.56133620862875L310.4646843114351,222.67719711593963L310.414483341734,222.7067689064088L310.37757682076335,222.7073758315555L310.2474455225274,222.6605132809591L310.1923238041345,222.66967010977987L310.17920580231294,222.70639573366407L310.1939828139257,222.75551867667855L310.1901164819901,222.79282014370983L310.1359677963228,222.85532874027012L310.10072086600485,222.94178460309195L310.06003670224527,222.9835737183721L310.00104982222547,223.03003243517833L309.9652870898499,223.09223700807706L309.96579766329523,223.11697336398447L309.98949803068535,223.14921135124405L310.0315491307847,223.17290086470166L310.04543535425546,223.1730372449656L310.1374616592839,223.16327280246878L310.1740272371062,223.14617465214997L310.23315028125944,223.09971761419092L310.25084879154747,223.06691644563307L310.2673228163767,222.9681530332482L310.3212194755288,222.8930340669267L310.34848808292736,222.86808590222063L310.40309927430644,222.8341930038314L310.47674190765974,222.82473380122065L310.5047306322449,222.84052681490994L310.5377700817662,222.87722144460622L310.5475436462766,222.90156399744592L310.5486854097253,222.96316107688835L310.53144223491836,223.02506221023577L310.5461844883539,223.06594119630336L310.5649973583386,223.08600833758283L310.5929797002391,223.10228629237008L310.66250263904294,223.11751831400852L310.7239574831001,223.19037748956725L310.7473168811739,223.20612514747245L310.80732409386474,223.20914062007068L310.826014916267,223.21708352098722L310.8497079606277,223.24980701756704L310.8557355009143,223.3235754154366L310.8934084661523,223.3598311248088L310.9072463626435,223.3638468509589L310.9623329586502,223.34644718769232L311.0313454461211,223.33694370173544L311.1146233512154,223.35182737849118L311.212744557055,223.39934780009207L311.27382388423575,223.44747304502107L311.2834267358958,223.46357036782592L311.3256938898485,223.49162814539795L311.33958592402996,223.49128025390655L311.394278803833,223.46175431443226L311.5030071503861,223.35711307126985L311.5528687037622,223.31105221806138L311.6118182528335,223.25683742160527L311.70818856995174,223.22626885795944L311.74500643246574,223.2217832671895L311.79653689107727,223.24944828744083L311.8307391969247,223.33464851808094L311.8639997870014,223.37522616302977L311.9441948137064,223.4516674473034L311.9542179228665,223.48862100400765L311.91537494737713,223.6118935376935L311.93028396291265,223.66101856602563L311.94013751393504,223.68972667927392L311.93751565806815,223.77989726369105L311.90753704401504,223.89113427674056L311.91832590092963,223.96494988596532L311.9422466441647,224.0010709511298L311.9473837256446,224.02585303043998L311.94468020616114,224.11165847869052L311.93180562042835,224.16147876332616L311.93886775782084,224.2721120499691L311.8681234688811,224.42077062182398L311.8607858417745,224.5070152452863L311.8758640282249,224.56438570494356L311.9092106870121,224.60884365656784L312.0216431495501,224.67639007062007L312.06407674554794,224.7126942535442L312.1351793923277,224.7972898509979L312.2054283687212,224.84114324452548L312.2471837496596,224.8444658912622L312.28854586984016,224.83566151567902L312.3434605094808,224.81001885869227L312.40771977622353,224.78834822781573L312.4627223413154,224.76658608786693L312.53307422671423,224.75855402483194L312.5449596307735,224.777098973198L312.57606607806156,224.82638472465715L312.61612342876106,224.8893371398217L312.6512977610437,224.97260818043014L312.7006659124818,225.03128859966364L312.74609587065424,225.05647007826337L312.8237273829909,225.08682008376036L312.85077381922383,225.11230442043143L312.8595521209172,225.12887897567634L312.8627569211276,225.19922521473836L312.9032643028768,225.2369662328747L312.9492205817005,225.24178627884885L313.00463966625466,225.2302127228786L313.0415239632857,225.23106351304523L313.13232158146275,225.2862761987917L313.1780869586946,225.29545904516272L313.2101096080187,225.30402062851772L313.24675445587854,225.3131130553984L313.37522979702044,225.32748169101615L313.52181464782916,225.36336759499045L313.6505775743535,225.3656170899685L313.70599664941255,225.35404483977163L313.8530818223844,225.3608417184896L313.8894867620111,225.37817629821802L313.97989004268675,225.45375451065956L314.03451340377796,225.48387865793666L314.0894857916719,225.49703393881282L314.25475580190323,225.50837814633996L314.43785193085205,225.55287593363573L314.48322408316017,225.58242375880855L314.50617424428856,225.58701687039502L314.58691997852293,225.6833524354097L314.63691989289146,225.71294663018034L314.67819168365895,225.72208693381708L314.8622672655001,225.72101395463687L314.9170963492761,225.73465423471498L314.95345104956505,225.75586899310656L315.04516936885557,225.76987780897434L315.0815788570726,225.7867289298074L315.0997966764626,225.79951897410683L315.1355673492362,225.84545935806182L315.17093908898823,225.91224762925685L315.2058140652225,226.00764163052463L315.19015554362704,226.09428700017997L315.1604601312065,226.19291531601357L315.1597725396896,226.22588344437008L315.17676747567384,226.2924881475583L315.23411119794764,226.40895850271954L315.4134636672825,226.6309077335245L315.50813512056993,226.72350548528266L315.58430004140973,226.8154334629644L315.62956433931686,226.85322562518922L315.6518737372862,226.88690875588327L315.6789211510513,226.9119106382168L315.72122286240483,226.87160014768142L315.8101334996645,226.79490189084936L315.8660304407131,226.7668508817278L315.96385360186105,226.70672984332487L316.0198550533278,226.67043643797297L316.0755612714747,226.64674826270402L316.11300196297816,226.6141484749478L316.15831477308893,226.64806250177207L316.1895412131198,226.69783794983232L316.202249455735,226.74791271816775L316.22560488001545,226.94648159952067L316.24723042115147,227.01264834489757L316.28722528200524,227.0794842098976L316.31333620477017,227.14618090071963L316.34594618678966,227.34484269060977L316.3809677997888,227.42811628874097L316.41218667301655,227.47837680498924L316.4205679523293,227.51531526061262L316.4184941586682,227.6147043214687L316.4265798372544,227.66424789612938L316.47928649136156,227.78067398465282L316.52345830105696,227.8722832874946L316.5992157205146,227.9850614604884L316.71583915174415,228.12783057580145L316.7232344923068,228.21034227528617L316.7494791735917,228.27704067278682L316.7939621681726,228.34392224133262L316.8344895959599,228.38991231807722L316.8521743745514,228.42306492245734L316.8907857082304,228.55583761387788L316.9261486883697,228.62262775556064L316.9618564111479,228.67293390964187L316.99347273951935,228.7023471647708L317.04327184185604,228.73630752301597L317.1246376715717,228.80356026032314L317.2149622305333,228.883511375715L317.36457384702953,228.9897602479623L317.3916170734883,229.0147635639496L317.4139220014804,229.04844789383787L317.4815946397284,229.11119944693655L317.5133143326675,229.13237052658405L317.6304321433563,229.2460524421531L317.68499275014983,229.2800617751327L317.794482985566,229.3189888916313L317.8760793148649,229.37848710273101L317.9491669750314,229.40056046821792L318.1148394166521,229.39932133213915L318.2615575505406,229.42213814147L318.4093562923408,229.39210968144653L318.46447735215406,229.39266619782757L318.51908574393747,229.42279809824686L318.5923642671587,229.44051062032213L318.7394215369095,229.4473306501768L318.831574098931,229.43662390861664L318.9425333016261,229.41349958485353L318.97972583182855,229.38962947808068L319.0726580678238,229.34983586291037L319.146734351998,229.32633917220664L319.23902361541695,229.31563509307307L319.2987165134218,229.32060376564004L319.3350554751232,229.3423084332362L319.3620961479792,229.3673134509163L319.40681101301016,229.4259573354284L319.43339344209744,229.47617387712216L319.45521844259565,229.52585732154694L319.4895327519698,229.64210204974097L319.56914860536926,229.79226569264665L319.6004134082614,229.83816549897256L319.64039416909145,229.9050054596537L319.7084546791157,229.9473989585913L319.8181238856632,229.98245577053967L319.87318761321876,229.98737859919402L320.0191439857772,230.04802034627392L320.0357820459467,230.13062644302317L320.0484867607556,230.18021773151304L320.070786788292,230.2139038941441L320.1071795042626,230.23124568071853L320.1524858136145,230.2646805299828L320.22014135481004,230.32792281393176L320.2835164699827,230.37463432110053L320.41096666388694,230.43460502241578L320.5205827789032,230.4735432004827L320.5935089718587,230.50774438832286L320.7933436394378,230.62276429421308L320.8972820548988,230.71159329622878L320.9653379227093,230.7539895169548L321.08695215888656,230.87597396201818L321.1144099513549,230.90001489529914L321.1367522223918,230.91963942895745L321.23539994730163,231.14467947542744L321.3979704288977,231.37328089620405L321.5004073415839,231.45142824793038L321.5419175443749,231.4833716379053L321.7299942936297,231.5803354386835L321.9668788562012,231.75538667792352L322.08011177504886,231.78757838451838L322.2477602106519,231.96968333483437L322.3128785990375,232.00720323594487L322.40798548299426,232.0411505425127L322.49378013121895,232.0478471332599L322.63489032185316,231.94454733417388L322.67205571342856,231.9332895388443L322.75190198018754,231.92634812566666L322.8060545344415,231.99091255973508L322.7283422211367,232.1278353211228L322.7082864264121,232.22655452691106L322.7254316165745,232.3217751599759L322.8257387920239,232.47991755763815L322.8901942512166,232.63187396871945L322.95802812680995,232.6907596899L323.0132487061819,232.71460178646248L323.1179200513943,232.71373473803033L323.25195994699607,232.78881732540776L323.47422207401905,232.82989112284395L323.65532921964405,232.9170966579386L323.9973705266275,232.98849977013379L324.23511861673614,233.08404977123246L324.3287658058871,233.08307353337568L324.4141064851283,233.05097699613088L324.5088414923448,232.997640804997L324.62436709817484,232.96779537588372L324.69327348949446,232.96462578965838L324.7897689250749,233.00635359508942L324.81072013147786,233.02790612920762L324.83333976434005,233.10960634537605L324.84102621714555,233.2512831389222L324.87295416771303,233.30786331943636L324.96709931068835,233.34180866418683L324.99621964143444,233.3944806344034L325.01901461578746,233.5149766459026L325.0996565189307,233.62443115259703L325.16496692626606,233.69881321704088L325.21742609611465,233.71487202773824L325.31157368126514,233.7798535148586L325.4033506187916,233.92239850480382L325.5662740654225,233.99391001499953L325.6968446859937,234.12521847505923L325.8199065235531,234.20601786095722L325.8688825739555,234.33260420135593L325.95097373667886,234.45565371011344L326.0226767590975,234.4777319959603L326.0713465231893,234.5441850348061L326.0765198915942,234.9302372416796L326.05329097767026,234.9687907631669L325.90542083732726,235.11079861106646L325.8524465486553,235.22857215724798L325.811438498542,235.28439933007394L325.773011811234,235.30921815406145L325.60937438863766,235.35601965620754L325.47911306926835,235.44196056709188L325.4395723517555,235.52107977550804L325.48090310134285,235.94242019904414L325.47565075105376,236.02189345310035L325.5651549914437,236.21290778003186L325.5418228806302,236.22818438441664L325.37766928911515,236.1896354516739L325.3046001105795,236.15784624641128L325.22660283716687,236.0445391672456L325.1212814599239,235.98138255683625L324.9368674928555,235.983360667763L324.8737299932691,236.0040466489254L324.7906562750468,235.95663801087812L324.7461429113282,235.8844107088471L324.68512558973816,235.82559137257067L324.60091767561244,235.81308609722782L324.4524183757421,235.83677362341405L324.1911115221228,235.67115116377227L324.0799768914876,235.77281264375233L323.98146786461075,235.8978806702562L323.94071887494283,235.98668812491815L323.9275404740365,236.0796582598732L323.96032814114005,236.22741217532075L324.11250882712557,236.3395388232757L324.31302460136067,236.45992210964323L324.4101782546386,236.54432852572518L324.4946881351534,236.63830361053715L324.56569795204996,236.755416329509L324.6008384295201,236.86828053421323L324.6109282985708,236.94015322510495L324.5988307174084,237.00209902009556L324.55947178853603,237.06764361095975L324.2950035436079,237.31514380778117L324.27342923556716,237.39444961643585L324.2930375457363,237.43538493514006L324.27371368144304,237.45652291633814L324.20518459105006,237.49461231168243L324.14763626918284,237.54639263283752L323.976007326899,237.63385524510159L323.8719829869224,237.73365124575776L323.60540314034006,237.82983968024928L323.3641194903139,237.84288270519028L323.1676296157639,237.88548211458874L323.0520219864011,237.89205672126445L322.97733291244367,237.86995516801653L322.7475568078662,237.6658742851023L322.7139464243337,237.61315844189176L322.5712320567618,237.47397984033432L322.47376108562094,237.32944524977484L322.3972552754749,237.17348700065122L322.2972281977527,237.07935911077675L322.1727326866858,237.00437867043274L321.92856739196213,236.9339963982893L321.82878251448346,236.86314893544932L321.7727639521363,236.7326173408128L321.6867370620348,236.6075989456358L321.6264399077518,236.44986812386833L321.6261716254012,236.407191901847L321.6737277584434,236.3068121912429L321.845534569522,236.0680414009512L321.8922125591889,235.98317076693183L321.91603671405755,235.85539351714488L321.97161621760824,235.70272430318255L322.03961232777147,235.5792775287855L322.08705198761163,235.44592250448932L322.11895810465285,235.2930119182056L322.13704060497184,235.09340736788454L322.1340906464393,235.03712590428222L322.1015301305961,234.955325906084L322.0724637912317,234.92981295516256L321.7985897740364,234.9774496811051L321.66277604788047,235.03037598696483L321.58134600700214,235.02372656302305L321.5003944813252,234.99041132845377L321.4611401328293,234.97400870221009L321.229936256128,234.79320064612693L321.1970174620801,234.82390067233973L321.31853185594446,235.07923933175607L321.32591089970083,235.15108351044L321.31667981776263,235.19172324349347L321.26750153081593,235.30178542934846L321.14550505055377,235.39170928089243L321.0473415418892,235.54394673015486L320.8950531124574,235.6510207612655L320.8138839789426,235.6560143663055L320.724108376995,235.61048837018188L320.6386584825523,235.63095657325266L320.5259699752751,235.67442475563075L320.40248229505596,235.74299988455732L320.23038430461384,235.7819865613601L320.06109567528983,235.78220861111822L319.68240388674894,235.8016462515252L319.5708063963757,235.8237923861052L319.2523296741274,235.81668945769525L319.1547594015392,235.82734081731542L318.94722560095033,235.88149430924022L318.96135340008914,235.9689240052021L319.00576074941637,236.0295038231916L319.06142345646003,236.06110185024954L319.1290717230622,236.08118291736628L319.20784029918286,236.13629137067346L319.3453756584531,236.3103168655698L319.3707453909701,236.40173990711173L319.35046153338044,236.64787770893508L319.35379259637557,237.18715068571782L319.3270646000019,237.28774518240607L319.2940034924577,237.33008434121166L319.1736823114479,237.41809410106725L319.11896501689625,237.50482784314772L319.11117423790347,237.58233751636453L319.14616594765175,237.64476203778395L319.46057480411764,237.91562262129992L319.58080771474124,237.9730913310632L319.6309859025714,238.03954957240967L319.6647879757729,238.1737319033782L319.62546916214706,238.28001781250168L319.5858415137118,238.33586818106505L319.5022949215563,238.41067115037004L319.3809776830276,238.58789691034326L319.3103957108724,238.77727464441068L319.34113062287724,238.83189747518827L319.39942095580045,238.8809799863402L319.5652123276086,238.9292109628641L319.62181992201295,238.98215628106664L319.65006788901155,239.07166903839516L319.6057172435867,239.26325144689326L319.51976255771297,239.3884626361414L319.46713947672833,239.53534822005167L319.43787932547275,239.69604829809214L319.4490968293976,239.7233177796652L319.42599506511397,239.78515484732543L319.3676836405757,239.85536446009428L319.35745599125585,239.86786913890137L319.0535229263369,240.1441151548588L319.0032027890411,240.2173158719288L318.9707786936451,240.30621517918462L318.971474743983,240.4226050907373L319.0178052670308,240.54527516917824L319.0353461673949,240.70644872384855L318.9690531305132,240.90169024324587L318.9294810036554,240.95366286700119L318.78175304357137,241.1015293554292L318.74763578318743,241.16325589237385L318.7265678230033,241.27942622973842L318.7384217077124,241.43860261229202L318.80304025018995,241.8349570442033L318.79697338846745,241.95903768697372L318.77691857705577,242.03836366009364L318.74424888776775,242.082647429389L318.6977566281821,242.18692299991199L318.47354520017325,242.40190987013284L318.1718149093831,242.6044793498222L317.96969728478143,242.6548166574139L317.73573738330015,242.69513648196516L317.667271441318,242.74100124280176L317.61951194279027,242.84914539917372L317.5746214529936,243.08534007699473L317.3662384998206,243.24424307015124L317.236166274859,243.37483792429794L317.16095843873336,243.4807676531227L317.10895192412136,243.50546207572097L316.87156280963245,243.63498182032436L316.7943170602666,243.6439059439781L316.7145467652408,243.63728717780305L316.5370954691389,243.6743037002725L316.42407364784594,243.6615334958915L316.3154978013663,243.69536160595908L316.1561063975969,243.76747624011114L316.002808815585,243.89590472225336L315.929191505762,244.00573313762015L315.8322182952252,244.12308727723666L315.7062116270863,244.23433258841123L315.5921255348039,244.2739275864369L315.68698740964464,244.46496807297353L315.6873119843294,244.48242885703166L315.7331744346593,244.55659654387182L315.82859470266703,244.62737996351007L316.245853982673,244.81776566213648L316.4273389460832,244.94566421365835L316.6291640225536,245.08928538994314L316.7733043857297,245.22263104689773L316.855332711144,245.3301381887777L316.9703480979406,245.43215717404564L317.1322856108018,245.53464737350805L317.26454017225115,245.5747692364048L317.4701518883485,245.61174904228483L317.61379430866145,245.66556489495633L317.74458019253507,245.886068421054L317.8169812691558,245.9799032085266L317.939926782401,246.07812607833148L318.1081674450397,246.10115612678692L318.1840486087094,246.13489536342968L318.23719675209577,246.23435644233632L318.2829349899257,246.2852498908569L318.44337716111477,246.57976449672697L318.56464464548117,246.83121106071394L318.67884480929206,247.21060857597058L318.7286835125087,247.46327528310576L318.80410877061513,247.62891260607375L319.1306407338525,248.0705859026839L319.1873143804478,248.1060732887645L319.2686146610831,248.13017122612837L319.31968624713045,248.12486806787365L319.408996154074,248.096674791208L319.55573160221684,248.01281049041063L319.7619226584866,247.94894577264677L320.05140531998404,247.99842993312268L320.3232562052217,248.1078694625412L320.4503723432972,248.144073435682L320.5510689684925,248.15091407307682L320.66934606550785,248.14435543746913L320.70361750854863,248.102029456767L320.74914350700783,247.92403737759832L320.7592853566748,247.79029967692895L320.78354409599706,247.72265580116436L320.85992847114903,247.59928946880245L320.8719104460688,247.54509903023427L320.9525836787725,247.47996810811946L321.2637962276567,247.43657840581L321.47846221367945,247.42324468614243L321.5007408758611,247.42541115673794L321.8037155983475,247.45177309605515L321.8647101319548,247.53192299611055L321.892708717216,247.58652040231482L321.91331506872666,247.78264183764713L321.97854738650494,247.8822323153936L322.0270573129128,247.91764176611468L322.12350009399233,247.93802236936153L322.3397552404422,247.93828895054958L322.4432080680199,247.95292297332708L322.4943508555989,247.98448060962164L322.5966699749697,248.0766922179564L322.82740129654485,248.1779753731089L322.9282473200219,248.26823329741183L322.9989327782314,248.31356960970152L323.18913173429246,248.53082385897505L323.2394060187835,248.66129930865827L323.3238412586106,248.81103677827832L323.3383328738164,248.83688637172418L323.48941954012116,248.9858519664076L323.532202495564,249.01150652655906L323.75309364651184,249.10493687096186L323.91313236280257,249.13955314241957L324.00826206168495,249.1347099170016L324.10987264242067,249.11247608897884L324.3955640984932,249.00096666909576L324.5277079783591,248.9945656939426L324.6433326616934,249.00351315338776L324.8029267217862,249.1564520512993L324.8455216569964,249.18598593889874L325.0024704201751,249.38545172669183L325.1588199205944,249.48404709698934L325.2966529187761,249.51068314224085L325.4591789390943,249.5104183959338L325.5634632606634,249.47075966677858L325.840896630365,249.3669378058812L325.998403968395,249.21920627964755L326.11449778724636,249.07686690851187L326.1950740535831,248.9884728356992L326.2308188641691,248.9694451480791L326.34599699060345,248.88722827068432L326.3919982752632,248.97887020888993L326.42497634208485,249.18288063125692L326.4899240264458,249.42795563637992L326.5179039746872,249.5038936939427L326.59559729441753,249.60556230950442L326.6537959997586,249.65853665331906L326.7165302057292,249.76005076610818L326.76273800809577,249.89824838612367L326.80942070322635,250.10434080194773L326.9003403247516,250.32834875455592L326.96683373157066,250.6316320307351L327.10512683401976,250.91432256522694L327.1178139533258,250.98428356481782L327.11150890684803,251.0715051511943L327.098326027608,251.1334392556455L327.05468846823715,251.2260931995079L326.91265231794387,251.4185930641097L326.77734344066994,251.56461026085435L326.73698866667837,251.72906803642854L326.7380257366094,251.8687379711664L326.8146558467597,252.03052711032433L326.9309456038136,252.3420848384594L326.9679189074923,252.55195653402006L327.13254141113066,252.87953324533464L327.2964071767965,253.32736508276776L327.3053934440395,253.4515997862418L327.26933661950534,253.83916848736317L327.2698554783565,253.92452121326096L327.31969848314475,253.98128948860085L327.3531156852987,254.03594784480174L327.41437540840343,254.1452068600047L327.4806083139265,254.19632619538606L327.58496798516353,254.3370679436839L327.6045419599286,254.38964324345943L327.5982713489684,254.484624095644L327.56735186401784,254.59292724700845L327.46526861622624,254.77808094112243L327.3817522946156,254.87420069947166L327.2523078518316,255.10368502443998L327.1655412482942,255.29287807346464L327.1531125654001,255.537153367447L327.07587083329054,255.70510858828402L327.05747605006036,255.85427618295398L327.0893228475579,256.0815526653232L327.0615518747036,256.2616586601325L326.9389663368456,256.4873364260702L326.8569020268005,256.77550497492757L326.8577279443416,256.92099229661653L326.94830575931337,257.315692194079L326.9413964465457,257.50183356894377L326.91747573790417,257.6684017558946L326.8021253238512,257.7671038396147L326.77546277470174,257.862359188146L326.75402275321176,257.9533042163148L326.7500091694892,257.9901173619073L326.76498303705375,258.0513733606249L326.82178743022087,258.1368235905047L326.84611871384914,258.210299664157L326.8628022322591,258.3700141242043L326.84340813609015,258.57542371153613L326.80879728824584,258.7069666199177L326.7744307034045,258.851120293647L326.762155793127,258.9377958107907L326.7657190466489,259.1342292974505L326.7592824500862,259.2946745767367L326.76476241427736,259.34370917934575L326.81755061646254,259.4659725392239L326.8377532143022,259.5641373641938L326.8384972990789,259.600999747503L326.8268308583756,259.7245362670719L326.76129746441075,259.9343182806215L326.7530427427373,259.9836958148071L326.7549972976558,260.0947650588578L326.7854151602842,260.2541367216227L326.7870114939942,260.3404708293165L326.82069783366387,260.42616691762396L326.8492903760125,260.4749556522793L326.99074181927426,260.6572979183802L327.0845509296778,260.75040544309104L327.16019716250594,260.8602977758228L327.16154852701584,260.9340211726503L327.1823564373408,261.06904721850606L327.1546511754168,261.32819817442305L327.15652492190566,261.4349022718343L327.2052649177167,261.5857352851217L327.2618099172978,261.6590603117729L327.3457645738563,261.7152118222184L327.41524198617117,261.7348437945557L327.46141468466885,261.73823174789595L327.5169148585883,261.74559587513977L327.5679014958878,261.7655215111372L327.6193022098014,261.8058185979471L327.7140401119941,261.9522799305314L327.7429862709869,262.02580457656586L327.73484425698916,262.08730629485217L327.68600813004014,262.1944544514945L327.6545560438062,262.24019675682666L327.586095329978,262.2782815339742L327.46329984376644,262.3657513327844L327.4224357694329,262.4036375041669L327.4000681438047,262.44074546188403L327.3781940684348,262.50259001534505L327.37759750301484,262.73632043865564L327.3570747325575,262.87188850373786L327.3216900670377,262.9588096159614L327.2854543996509,262.9962590206742L327.26284393255264,263.02075639876057L327.1626924589509,263.09197440259686L327.0578920881926,263.1549008357433L326.9478065866206,263.18528260731455L326.85664725182505,263.22361936876223L326.78356266171977,263.2412912032278L326.7289963733383,263.26691350030706L326.6020401798851,263.3509496026527L326.54306873118185,263.3808911285396L326.484541511476,263.43944831932004L326.44445343703046,263.5015905371765L326.3661416725081,263.7126971616617L326.32619029637135,263.7748409813139L326.31320296846025,263.8120466822984L326.2995788526641,263.8249992344836L326.2070488433674,264.011228137475L326.0869201033747,264.1981426309858L325.99689182159636,264.2859569131979L325.9657176524088,264.33170408881324L325.9252168358289,264.3734757157745L325.8666644990226,264.42379015834376L325.7440873213345,264.4957520417229L325.6581866283159,264.558878396816L325.5354456024834,264.6225956410144L325.40418143444185,264.71483672973045L325.309451383604,264.79872539909866L325.2196792653667,264.8986681485876L325.13078450681496,265.0359600332831L325.0457998046659,265.1441964351616L324.9291783800145,265.28168901107256L324.7759842722917,265.42026137051107L324.7396973083778,265.4412258836919L324.6267066133878,265.5292938434977L324.590334072127,265.54637820391235L324.42561499006115,265.57766397065643L324.3889115385282,265.5782574562909L324.3334689769981,265.5670204641492L324.14981572581746,265.5699875132623L324.00349891172664,265.59709977965304L323.9125190351988,265.64369167365294L323.76819844052807,265.7692670929591L323.7138866345922,265.8075060668116L323.5550936761865,265.8960795442963L323.3791356362053,266.0513993685836L323.25184392137817,266.11071551552413L323.18422070954693,266.1696716955621L323.1487662042673,266.2318661293557L323.10794571683437,266.47925072083854L323.0507389418781,266.59505093169446L322.99793085895,266.7070166939948L322.99446436611106,266.7229841512153L322.9853625149044,266.76508055657814L322.9629199290721,266.79831200131866L322.93133665904315,266.82369124129036L322.89458534621735,266.82816560346873L322.87606846379276,266.82021773527686L322.84810879404904,266.79617070939094L322.75998425620855,266.7477482788472L322.7312152778213,266.723208169562L322.68981579906176,266.6873858079134L322.56484655230815,266.64004309280153L322.4676405349928,266.60025776492967L322.434924132569,266.5761626455778L322.39796966302674,266.5646326929609L322.36126766575035,266.565228725578L322.32921623346556,266.57411605579637L322.2611839129204,266.6122180752791L322.1758050924109,266.69960704422556L322.1632714028601,266.72324128031596L322.1092452856392,266.8245277770311L322.0192162151143,266.92496316578126L321.9705154952644,267.024364391611L321.9712612463554,267.0617119818962L321.9463942770999,267.2103341546572L321.9287094791034,267.24361482574295L321.88816492030674,267.28975630303466L321.75241385857225,267.3950620046817L321.69789290562767,267.4289383262685L321.6612228574377,267.43777948227944L321.5145065350007,267.4440480662024L321.50120860512106,267.44245821134064L321.40407130045423,267.42934851458085L321.3127330734533,267.45169828532835L321.2581018217643,267.47296598384946L321.14507775248785,267.5654119155415L321.03346877747754,267.72818835087674L321.0256739776596,267.8066689298521L321.0269276601066,267.86826850048146L321.01818187072786,267.8933964957332L321.02391961185276,267.9550415325848L320.9723533530523,268.1412191138661L320.89644700923964,268.2539247993027L320.86943830372184,268.2832322025215L320.78780080336946,268.33380829230373L320.6934660431616,268.4424483760813L320.60271953900883,268.4934176905808L320.47477357821117,268.52024893363523L320.3649238314647,268.53465544174014L320.1598762438516,268.60823196421825L320.1010434381933,268.6503116951317L320.0336396718485,268.72528063590653L320.0164046300488,268.7876633237238L319.976336535241,268.8503002767393L319.958860291008,268.89958727812245L319.882707400433,269.00016987468734L319.8435133148596,269.1117944919479L319.8676834951002,269.17750506183165L319.90496963817714,269.2055230358246L319.9598807765469,269.20462287826194L320.03302305905163,269.19129867003267L320.0608159057738,269.2070974896624L320.08453954655124,269.24370749539867L320.12297061671416,269.34205314701285L320.13831512493925,269.428527002985L320.176881578951,269.52687408930706L320.19573147939445,269.55131148791224L320.21494660116514,269.60048437145997L320.22892933152616,269.6122642241353L320.2434069907249,269.6492658054167L320.2998202248018,269.7225767724558L320.324019727359,269.79653190810495L320.3614713676325,269.8327960210627L320.43102525476206,269.8771439236052L320.5277521322896,269.90042974014887L320.596279136098,269.8865752096126L320.637595613709,269.88602358313346L320.9255507454509,269.8317176227947L320.9802626978817,269.8143294381189L321.06259324949133,269.8049803240983L321.14481272840203,269.78302196492496L321.22714961091697,269.7731884364284L321.28186189365806,269.7558008169699L321.33682114589465,269.751024149984L321.4052317955138,269.72504691083486L321.4739201477205,269.71992490926095L321.50116809147585,269.72505090018694L321.5567570822568,269.7348291193439L321.62566766341115,269.7335892119554L321.74887154486714,269.694591139174L321.89974991044437,269.65926946706986L322.14712736787624,269.6225055573659L322.2071622739022,269.64590842033886L322.2632061624681,269.6944874388182L322.29628171798686,269.7433176834029L322.31136551755117,269.8176664019793L322.31297910552166,269.9040013989088L322.33244211502097,269.9653014430669L322.3329410559054,269.9900382490532L322.32915312600744,270.03121923282015L322.32057320239255,270.0645924634109L322.1985959614467,270.17779589946167L322.16239865194075,270.20312920217384L322.0894492962252,270.23342299043634L321.8874834924827,270.236703613994L321.83255592546993,270.249723536137L321.74621763497635,270.29636993886106L321.69195023967404,270.3428574366535L321.6516339192094,270.3928812920567L321.6292769916945,270.4304792563307L321.6207907706739,270.4672482332944L321.57172955731585,270.5424000935118L321.535397585536,270.5677328268539L321.50119040632853,270.57562946415874L321.45771971785143,270.58537185847035L321.40807293596663,270.6319068139319L321.34637687074064,270.7602738836358L321.3011031076494,270.79424505522184L321.2283788962268,270.8284228117418L321.1367266932466,270.83379756134036L321.0273074141296,270.868573653187L320.99069231293106,270.87353686543247L320.94971116542365,270.89057930333L320.87311602085174,270.9620588674643L320.8239285064192,271.0367258538472L320.82055746186234,271.0987636461414L320.840270704015,271.17267374201856L320.9010507951134,271.2334216319414L320.9567047327655,271.26987084720895L321.0257282996208,271.2807540021031L321.08051723255994,271.26773110742306L321.1216954330703,271.2671786812789L321.2448967193486,271.2276932908135L321.2860749821484,271.2271410935018L321.41055424891965,271.2579851866767L321.4983691813686,271.2976713903272L321.5011851576055,271.3006095950659L321.5497854192654,271.34668701833834L321.59221593190523,271.4077349060217L321.70017857606945,271.5295805552005L321.70978696426755,271.55392498418496L321.71089709459557,271.61600815251313L321.7161329696719,271.65291652347514L321.7137897270695,271.77267208504963L321.7010117067366,271.8263702721906L321.66972027439624,271.8721214543166L321.59711605370103,271.9184230534911L321.50565922165333,271.940771565105L321.50118830629435,271.93975631043486L321.43207430950133,271.9254766372642L321.33950651467967,271.88574245606105L321.3115509260824,271.86169695269837L321.2746595195131,271.84580476801693L321.21029391532284,271.84272730992416L321.20135817985283,271.8508806271875L321.0916903279176,271.8735306843937L321.03714988203865,271.8991644856251L320.9646272193386,271.9498329173466L320.9098399249888,271.96285609143524L320.823725878352,272.01387213443286L320.79630766078844,272.0223233414399L320.7061560003531,272.10239509321855L320.67032808386284,272.15246590341667L320.65747226180974,272.20179939505033L320.6540215820678,272.259472024828L320.6781312328494,272.3295470540388L320.739663023076,272.4271574456088L320.7923148557675,272.5498947856149L320.83474536388894,272.6109416399795L320.8720499567826,272.64768976067717L320.8865249827395,272.6846916184504L320.8963809754714,272.7216466959453L320.89362819487724,272.8205460584213L320.90897441631387,272.9065354392269L320.93263778732944,272.94750989179556L321.0629569815137,273.05260692667434L321.072701340785,273.0769525533997L321.07854955930816,273.151207257195L321.0532143475757,273.2629710713709L321.05383212838933,273.29983258504126L321.0737902307774,273.3863537244024L321.1022446719435,273.43513585731216L321.1445061400191,273.4879374674483L321.2887952758829,273.60530045871474L321.3591762686119,273.6903934081347L321.3887409184099,273.8012590581093L321.3903520893291,273.8880792192449L321.3142164397759,273.9881739989887L321.2779457255165,274.0091434350825L321.2048980841937,274.02683042890476L321.0400377749902,274.0421323724131L320.99020767309776,274.0716936624485L320.9590010503016,274.1218110711552L320.9599526745478,274.17516387524756L320.96139861809934,274.2537384583693L320.9134663786135,274.39049040475584L320.8682868536562,274.4283429745119L320.74566525715636,274.4877187979064L320.7095876220701,274.5256637522798L320.6876256439973,274.5753901164071L320.689839593113,274.9463902429243L320.68160406374227,274.9957706068699L320.65988995269436,275.05810792369994L320.65190186995824,275.12009920231776L320.61282716676214,275.2443330251863L320.45720311858895,275.5065655803028L320.42650068805597,275.58142063816285L320.43287022203003,275.67895769535426L320.49064246077614,275.81532465005785L320.5096543648324,275.8480077915774L320.5611560781035,275.900417081004L320.78860205434466,276.03704634916085L320.81693659539087,276.07370354390605L320.8788668151683,276.19265549614374L320.92574250580583,276.2455034839695L320.96755464860325,276.26920395026355L321.0368603370189,276.28881851395545L321.0921132473959,276.2918029495895L321.5013514165985,276.2232112062402L321.53130253184645,276.2181807622792L321.59108740310694,276.2173325988415L321.6422218900334,276.24500810115296L321.7313390450581,276.3302919895941L321.78363907477615,276.4156871886644L321.8072362648272,276.44017371772225L321.9698674655192,276.5237802315769L322.02108099107863,276.5558216006839L322.0726273101209,276.60435432786744L322.11044840569593,276.6532325564831L322.1201903838555,276.67757848442943L322.14116609657503,276.8009659647296L322.1655146048579,276.86231568700987L322.1989634970014,276.92375795659154L322.2980705155387,277.04551536521194L322.4034277036735,277.2415321831595L322.4143925844983,277.54230531930443L322.3259973719578,277.48612315627815L322.27050096815583,277.47052565539616L322.1050595762972,277.46932860094785L321.8491511328357,277.531710398629L321.7944873386914,277.55734199474045L321.704027241587,277.62043552762225L321.6634709068094,277.6583340364232L321.60108990753724,277.7459598192254L321.5705229829364,277.82081516472226L321.5577985763739,277.87063475020386L321.56719407707715,278.09283198792855L321.550351899652,278.167341689963L321.515001142634,278.2339046425104L321.50141284243,278.2449204069635L321.48343506516903,278.25928623007894L321.44700418385037,278.2720101087907L321.4103140138832,278.2730928711626L321.3544852753439,278.24100580218237L321.3360629683011,278.2369395314936L321.2287696497333,278.1606865143558L321.21471194134574,278.1445410735514L321.11220874649007,278.0760960208099L321.0050808251217,278.00808941137257L320.9123995530281,277.9683558840461L320.847129299651,277.92017115857925L320.699587426192,277.88958183790055L320.57096888784145,277.887795999779L320.51605974098493,277.900819093933L320.44277098670864,277.9063824154364L320.3701505296485,277.9449285459159L320.3472768900683,277.94906185969467L320.3019381363738,277.97867000099086L320.2526125215627,278.0334547917282L320.19401991002087,278.07990210763637L320.1310080561052,278.1427928674184L320.03707540980395,278.25532041979113L319.97494962572455,278.3555608388988L319.9668528977563,278.4049429791967L319.9727279447725,278.4665896120623L319.9606447140832,278.54114839607246L319.9340329514562,278.5830696259027L319.87954075312155,278.61695056590634L319.6787852778616,278.669724163492L319.62345695942713,278.6623772581561L319.5771969634625,278.6468778650151L319.52111846481785,278.60218320382046L319.51167767818697,278.58608505539996L319.50109681671165,278.5205115409226L319.5265679071199,278.4291145373827L319.578191521774,278.2676648500819L319.5765495981759,278.1934525002762L319.5530875063523,278.1689690479707L319.4831969390398,278.12074066469995L319.4093577232743,278.10544857730474L319.28112391550894,278.1162806228467L319.13508834189633,278.1599099842033L318.9884637934738,278.17492267737816L318.71531197281,278.27013421124866L318.4963495639058,278.32321768232305L318.349949039286,278.34211531583696L318.277052468231,278.3598114419292L318.14949778313166,278.4031462292169L318.0943040680213,278.39580346980347L318.0018906432597,278.3560815327073L317.8719852947215,278.2839780213626L317.84403325091625,278.25993580471913L317.7922874040087,278.19443523662176L317.73885539299226,278.04696285596856L317.74393024249366,277.84867289984686L317.75182252419836,277.78280002029805L317.77310336385926,277.70008835915087L317.7717596563343,277.6341229591062L317.73171503961566,277.4698118165079L317.6592725475675,277.2891731811387L317.6309021893976,277.2442745020926L317.556099447469,277.1756337588022L317.43391617421,277.0289284352357L317.31722249044105,276.93174245949467L317.2848182550042,276.91590017645376L317.2296694944016,276.90467983905637L317.11986609417727,276.9186149686102L317.0519528961522,276.96109577709467L316.86978108647963,277.0261972264134L316.8019558090891,277.07255903208807L316.765661142952,277.08528997470694L316.65266241233985,277.1699963516976L316.3624307589271,277.3271312314582L316.2768511609538,277.4028986669664L316.1586992724333,277.4545796139537L316.014148976501,277.56419108527007L315.84542616305043,277.6080955161133L315.6437933811867,277.6114233300277L315.54263649308996,277.59683880561806L315.26309639747706,277.60569875976125L315.15279044769704,277.59490418367295L315.0235144450198,277.5475510152255L314.9864037898442,277.5277849336517L314.9443431154141,277.4909967896683L314.92532462684903,277.45831690906834L314.9105863220029,277.40919147974637L314.916443654889,277.2443692612933L314.93344106681616,277.1776159360388L314.95525277111665,277.1278833845663L315.0004180202959,277.0900212902243L315.0717089682621,276.99422563463395L315.0871479606758,276.84550175656295L315.0748714938891,276.69698761549535L314.97428055143246,276.4840692719954L314.94128581048426,276.4391270932092L314.8712598976381,276.3787842390484L314.7830650461292,276.3265052977331L314.70842607589293,276.2656321013819L314.61569356851396,276.2176731075433L314.40790239186026,276.14723665894235L314.2824772647691,276.0625840896064L314.22685672566877,276.0343915466083L314.15280457883273,276.0026220266436L314.11594764165056,275.9949830257283L314.00046794485024,275.9516501411963L313.9540836651504,275.9235494866416L313.86528948829437,275.8426556363502L313.83229177094836,275.79771458747564L313.7667870035111,275.67922584655753L313.6991563434094,275.55683668591155L313.64755662245807,275.5000733275019L313.5825421359332,275.45142150886204L313.53161955046016,275.42764111307406L313.4579034224589,275.41236460958953L313.2559943963133,275.40358170943637L313.07285642959687,275.4148679812997L312.9807137745811,275.39553133389836L312.9253895218244,275.37607302686865L312.77778626385043,275.33727744294174L312.68550119210704,275.318425229646L312.6286822550501,275.2989527348691L312.57498754896733,275.2795111139003L312.54585982114077,275.2729200116373L312.5159170333791,275.2663209119246L312.3701941174877,275.2071782143121L312.2839209625781,275.1525006045604L312.2296520868367,275.10250253025333L312.17606789019555,275.0190502166388L312.12184639048064,274.96517324955585L312.0770516664925,274.90702457231873L312.04992275059703,274.88154081269204L311.9998782233379,274.85243721535153L311.9415722733829,274.7771829166577L311.87796275236906,274.7353376851124L311.8373986067345,274.6975985253912L311.8149836025623,274.66440219093147L311.7836165042645,274.61899436062504L311.72501798719895,274.55634610782636L311.72094175779057,274.5233299457768L311.73072171563035,274.4904498632659L311.7921888590645,274.37563715555007L311.8065535930946,274.3345581119638L311.7900797496659,274.22722388310376L311.7455879238405,274.14434655394143L311.6913694985851,274.08998540378525L311.4356066036198,274.0292816930878L311.2890462625073,274.01523552633626L311.0330441090664,273.9627768980854L310.8690234766582,273.8990974699291L310.8323980032328,273.89437433208514L310.6092319144773,273.80102061432626L310.5182294031365,273.7545456621665L310.318019370643,273.66141860798416L310.20911524521944,273.5900374649491L310.027343564645,273.488848424965L309.95442297204136,273.4634042948919L309.8633643424728,273.42129522071355L309.77215683587565,273.3913085586055L309.5899964450073,273.310485947085L309.55341724804384,273.30188524477217L309.51717572578855,273.2767997852634L309.4988831219089,273.2727419148023L309.4626474320976,273.24717163197874L309.22609831898444,273.12508582185365L309.11650112718416,273.09880157348834L308.9378717118525,273.0844545509635L308.6633119866383,273.04832337042717L308.57205405617424,273.0222193580812L308.4987460012999,273.01714260069L308.4255857801727,272.99994384737147L308.37090166222697,272.982924676875L308.3527150508744,272.97013952552516L308.1154718001126,272.89315539081963L308.0426475871136,272.8594727014779L307.9518724585578,272.8047634963186L307.88402108379523,272.74203272427894L307.8477237577317,272.72131318620177L307.81173331389436,272.6753795432478L307.75724863277355,272.64187528009734L307.68442902321476,272.60770853371014L307.61126688159857,272.5905117074608L307.57458550033334,272.5901564496653L307.51931574932314,272.60998892984117L307.46337345894426,272.66279125226265L307.4171002405492,272.69144002908433L307.3562386902304,272.7689271434738L307.29591406412146,272.81344333238394L307.26297945585975,272.86258910393826L307.2390000139603,272.9239451626572L307.18698866171326,273.0223709086931L307.1669391950818,273.1293498890136L307.11113477939944,273.18215427301857L307.0745072579739,273.17743566562694L306.9650547020101,273.1390370030631L306.92857418658605,273.1221963609096L306.88332727770467,273.0887829319099L306.8472825009849,273.04721438594606L306.8154737565201,273.0260544967796L306.7749455550729,272.98444273080986L306.6852502899601,272.8516715300957L306.63120587233425,272.7929563752614L306.57291891043496,272.71431761074655L306.4467596363902,272.59671345338484L306.2653602147293,272.5076739213682L306.1379397210694,272.46037594578775L305.9922139525479,272.4211462583535L305.8466870256343,272.365431032209L305.7832848031903,272.327479918933L305.64747677164996,272.2432473863937L305.6110829018435,272.23028869776226L305.5381954667064,272.2126145689681L305.42847354730475,272.207195088411L305.25853439585626,272.2375683557293L304.8903342013691,272.34848045219405L304.7426820381115,272.4125318337974L304.59575186386064,272.43925002208107L304.50437153513485,272.4340097601762L304.4316296354373,272.4042160533727L304.3507566535227,272.3161510795835L304.28368830312684,272.2325830052305L304.25711110348493,272.18286401117894L304.21681772191005,272.13252878866933L304.1594299747667,272.0121977222425L304.1070008309871,271.8749410864066L304.09862842995426,271.82539643858763L304.06876712964004,271.70969347143637L304.03362404752625,271.6264314074924L303.9935273939627,271.5596101726478L303.9665158997086,271.5346195317088L303.8806170674179,271.4799689821393L303.8536577778905,271.45061442056885L303.8219276232885,271.4338228770848L303.79496820948043,271.4044683647908L303.7452358242808,271.3705316897167L303.7002158429823,271.3288809843316L303.66853779657686,271.3077255776843L303.5904033178995,271.27400272009254L303.55931133766717,271.26061216762173L303.4731853592857,271.202081004908L303.3638686548984,271.1510878543322L303.1810534542856,271.0989089348577L303.10770064939425,271.08560068015504L302.9426376584961,271.0714183435648L302.8136816034639,271.09443684085454L302.6251938196074,271.09603634138057L302.36405000035666,271.0600898627672L302.12391393722646,271.1310336751003L301.97666313779337,271.150002364343L301.8844384918302,271.16949425507755L301.7549172057152,271.2172443066611L301.68102913138864,271.23739583057613L301.4960062180144,271.31323233118746L301.3846262024781,271.3781292316853L301.2923566762074,271.4015021412242L301.20008154939933,271.42536023493085L301.08875473588705,271.4858942485671L301.0145937455054,271.51768362254734L300.8626286196486,271.54485736981405L300.7333911263886,271.58049094170747L300.5680497692847,271.57844281881626L300.4530162790943,271.58511497594736L300.3155867948881,271.5668437196964L300.21988907908235,271.5242346378536L300.1744417783193,271.49519370209237L300.1159920297323,271.4282041609258L300.07607925487173,271.3449013800591L300.05892650679016,271.2787865689943L300.03854445969773,271.12971514075525L300.05936264581396,270.9897615031314L300.1018041324751,270.92857355017804L300.1298144610446,270.9041055278931L300.21356040987666,270.8433075896655L300.3111194148514,270.78651992724735L300.35356191692335,270.72533237469906L300.3822034629993,270.6591650401733L300.3923012942578,270.6097957363827L300.3931599854586,270.56033915761145L300.38458383192483,270.5272816825054L300.30026767010713,270.3611180595526L300.25091906606394,270.2942141922249L300.1879390943759,270.2194225486073L300.15244891398834,270.1526496649294L299.9586931205886,269.8986484467205L299.90492599618665,269.8030915106092L299.8689156659966,269.7571668011615L299.76917596386556,269.6650561897495L299.6960633828312,269.6309056447908L299.64109294741866,269.61389939648143L299.50847954316487,269.5665800550578L299.45383973013304,269.53308902203844L299.3766323162272,269.46592420616616L299.2900357443905,269.41127986938227L299.23525195412003,269.3899115713248L299.1618069996912,269.3722474081278L299.1066407429753,269.3717285174289L298.82968050122145,269.4302284792766L298.79252730634835,269.44636766838994L298.7001165303009,269.4697470868268L298.5664450858494,269.48885987102494L298.37252194959,269.52389627003413L298.0959977339844,269.55718986944066L298.02235256370477,269.5564998263608L297.7469674988315,269.51609509634454L297.58239154253533,269.4476322362143L297.5459439406404,269.4269234653384L297.43600433946995,269.3924339311088L297.3076753274436,269.36165253317176L297.2209766272972,269.31525723825507L297.16652632543264,269.2652837865662L296.98602274184304,269.048280886931L296.85463854147383,268.9185432021113L296.6819056601562,268.7801763396328L296.6409385011357,268.7506974027183L296.53636875539087,268.67504044439556L296.41902740992373,268.529432141866L296.38325239655023,268.46266081180784L296.3247451797215,268.38743366610834L296.29301134027264,268.3585261267717L296.24751934877713,268.32076143025733L296.2110291311219,268.3034484758791L296.17924967036015,268.2784202231087L295.9055568645599,268.12650937397575L295.8140891514995,268.0921973980976L295.6854167721576,268.07839279594737L295.61629059811094,268.08599469234923L295.48352416435955,268.0386913913626L295.42850150984304,268.0255718412682L295.354987130213,268.02488945515506L295.1335726551588,268.0509623931266L295.0597303686336,268.0667659911451L294.8373170639934,268.16702924100537L294.7819157595186,268.1747602244677L294.6347180082448,268.17630696877313L294.5978874167995,268.17645100461596L294.3964412468413,268.14500519465037L294.17566789987177,268.1628470497226L294.08399575794465,268.15763544078436L294.02910837896343,268.1445197001467L293.93697306434115,268.15579257932313L293.8815165993692,268.18001304676363L293.7894217708272,268.1995309202175L293.6609302667566,268.1934958879783L293.51371668741194,268.2081416763094L293.4033226061838,268.2236124395604L293.27426303123866,268.25491505307673L293.1453496229442,268.27361085245684L292.96209645253475,268.26707468353925L292.8521750209511,268.2534547773139L292.77016456376805,268.22360354781085L292.58318387215695,268.1632058263367L292.49216910155155,268.1245434873781L292.38248325636596,268.10219832470375L292.20030130139276,268.03796740218877L291.8895801537401,267.97158927497094L291.78021305080256,267.93324580975695L291.5975219669526,267.8893817960343L291.48829896221287,267.8384319538545L291.3613367456346,267.758223113502L291.27036289051466,267.7156851728023L291.2156587610516,267.6982116419895L291.1793441397058,267.6770267057136L291.05158484276035,267.64239732732676L291.0150839916241,267.6255754504982L290.94632948334765,267.6244623990224L290.8224006302553,267.63496950596345L290.5645529606809,267.6976000249788L290.52771840327114,267.70987281992984L290.47198929193837,267.7462209779669L290.3750860658547,267.78219391456605L290.2504589651944,267.83003838152763L290.08391487242625,267.9187226466511L290.0655256104583,267.92243483521725L289.97422545206064,267.89638620209826L289.88357383239054,267.8373669730345L289.75679431953904,267.74067808234486L289.6841125334431,267.70267582658016L289.6018658307985,267.68107519102796L289.48722239939525,267.6877926280067L289.3595101916544,267.6488062678345L289.2320353670548,267.5889696294098L289.1413309149757,267.53431668157737L289.06846735711224,267.50019385943233L289.00507400144124,267.45791290114994L288.7206899224475,267.1895808064528L288.6441749774094,267.10596070446536L288.49932013138823,266.9965044693681L288.4447003711757,266.971277437724L288.3587554775695,266.90406108447405L288.32239288336496,266.8867587233117L288.1763726299614,266.8437320212188L288.0807247613011,266.80504093603395L288.0490262920721,266.783901435776L287.9862406029679,266.723684790717L287.9360966643326,266.6752213581449L287.91826099050377,266.64208341161157L287.90107688839635,266.575489596069L287.9036280339642,266.41062859302565L287.9185100634386,266.3448094247278L287.96098121508476,266.26711572335626L288.00941715633235,266.10703400222974L287.98826047839975,265.99530363378653L287.94861393475367,265.8960149802515L287.77746166672296,265.69563825774367L287.6560678615933,265.54178209902784L287.57594304718805,265.39217841293976L287.5490004605854,265.35895849862027L287.5133316492356,265.2921981278114L287.4783027948033,265.1929517259632L287.47553411370245,265.07750796457276L287.4991987611211,265.02825626023605L287.5786390073845,264.93877183722L287.66779463778585,264.8076694181709L287.7142355853648,264.77559687652683L287.73757802074397,264.7428308696781L287.7427089978046,264.7099004246011L287.7303256943451,264.6273466598441L287.69927175200064,264.5611127089369L287.6544028885437,264.5025133133422L287.57302554004855,264.42709608866517L287.4867903241502,264.3724882115712L287.4279643874979,264.3220074179753L287.2689402417345,264.22552269717016L287.1649145425363,264.13341398515786L287.11999414389356,264.07917946532234L287.0669928972784,263.94630987164965L287.0589053660151,263.880283448274L287.045687527283,263.84718759850966L286.9105088414217,263.69708975099184L286.89230327433324,263.6843170732054L286.76465839635785,263.63709766630654L286.7011093512083,263.5953048928304L286.5071900465846,263.3864860510921L286.2983809357029,263.2560970109025L286.16236957631554,263.15497516822506L285.9444563339748,263.0118979993358L285.8718469011619,262.96566106424507L285.78084458348167,262.9231389995839L285.6792416836033,262.8562745353556L285.67640926019885,262.8543093358385L285.6276516476537,262.87472534276276L285.6197417395633,262.864955398014L285.57190356382125,262.76753612989614L285.5399523629894,262.5388369766806L285.5387867328027,262.47335787467637L285.5074205172714,262.2771558717968L285.5153615684758,262.2117583585059L285.5241594636718,262.1909841973411L285.53748648997134,262.1663709925051L285.5688596705986,262.12058155799605L285.54399632364584,262.02288325615336L285.5506361068001,261.892005474283L285.563789814536,261.85866158690715L285.6447948145833,261.76336687650473L285.6622067906683,261.714057767701L285.6630661616837,261.5171746763999L285.6476731092698,261.4355646509357L285.5104310115603,261.2253201877975L285.4776251848198,261.1930194181168L285.4063126029687,261.067262890022L285.2838314841829,260.91001145593964L285.12495681162545,260.7732878405768L285.0187689642662,260.75051512336086L285.00485539162764,260.74263145092755L284.98147611804234,260.7181747476525L284.95718994351773,260.65345887450894L284.9917905484035,260.5383495205215L285.12553312518867,260.3232569541142L285.23307269057113,260.1777636728257L285.37310128572426,260.0446855788505L285.4314479578061,259.9700405651729L285.44922445598786,259.9367381004304L285.4985938155369,259.8746215716292L285.5382696412671,259.7920502705647L285.563761269892,259.6773450625342L285.5753876120689,259.5625156128144L285.59648528533216,259.46377449460306L285.6016035022767,259.25092643332937L285.6318095367096,259.1522670204349L285.66547283289765,258.722901486979L285.6791643813631,258.557655707441L285.615436128297,258.5304119453731L285.46305722777834,258.4917049061869L285.27794936902137,258.42554824711897L285.0934319180924,258.3914048256029L285.05626565023704,258.37167420241985L284.9680607797418,258.3446977671092L284.884173923303,258.2964223048102L284.80409413913003,258.21180969501347L284.7707889148696,258.1630168045185L284.730835458402,258.0162042224965L284.6722949850373,257.86583095972946L284.65321962443704,257.8331687505706L284.62507364755584,257.8091546603182L284.5873300535641,257.76808154898845L284.50597402621133,257.74844187492454L284.47389076284526,257.7239078140683L284.3411572232726,257.6907162188245L284.1394813350016,257.7068604526212L284.10268300884854,257.7147765382133L283.99278288666756,257.7186464356373L283.93771872643265,257.73076451882025L283.84865715529304,257.76779739211725L283.8734431953417,257.7762623640292L283.83812497738836,257.8462658751023L283.8063463079998,257.8673207587035L283.7326413522096,257.8686042760273L283.672541702188,257.85691535605747L283.6030070916531,257.8378683063165L283.5330259147195,257.79796448251L283.4109986211188,257.767781960506L283.364748130567,257.73342403253173L283.3327557815064,257.7006477813784L283.18703735823146,257.46657543514266L283.1417764020989,257.31923266682134L283.06905821967666,257.1711611382452L283.0097855546701,257.0974069158656L282.9093190834028,257.0232871245835L282.86363730316225,256.9865102209851L282.8226779518809,256.89206592449864L282.7405677232564,256.7933769838364L282.72244053270333,256.76072435582137L282.71361410558166,256.6622006786556L282.71375263688606,256.61322169387677L282.7230935091611,256.5803277751065L282.7784432655353,256.4818884935521L282.842989761637,256.38789552194885L282.9672739572816,256.25321211158007L282.9949261433212,256.22436051033037L283.0409320150211,256.1835481341441L283.1329486857212,256.0771910886442L283.1791438654727,255.99515968751257L283.21160217014403,255.9134912304944L283.2395348531063,255.79880584874445L283.2536875302685,255.70048638043772L283.27218724678096,255.6511857268688L283.29526126838755,255.61841412498052L283.30460338589546,255.58552044866155L283.3321642076153,255.55278877218734L283.3368353029873,255.53634194120332L283.38288617598664,255.4795271421308L283.4288073726311,255.4464739103114L283.4518329797975,255.4180665797403L283.534604773773,255.3606088272236L283.58972292825274,255.33200226714234L283.75497539701973,255.29176776825716L283.8925410899392,255.246922901576L283.92014135183854,255.2471688624646L284.0027734773721,255.21444373807753L284.16794031928293,255.181970022325L284.2229180207614,255.17809593099446L284.2734580907563,255.15769399276178L284.31480193831885,255.1207217156243L284.338019931849,255.0389721782849L284.3204174336279,254.87490152061673L284.2706347441017,254.6945402914107L284.2569513946037,254.67792983796699L284.2479345038373,254.64535764057837L284.1661497180212,254.48119936678086L284.1250990963199,254.41924437462512L284.09781900809685,254.35401759168508L284.08423335324915,254.30443140168154L284.0889052455568,254.28798472691687L284.0799860006882,254.2224367686922L284.0803125431703,254.15697127146905L284.0941869234048,254.10811494599693L284.1724835501591,254.02588673650916L284.2829131725848,253.92794215087633L284.3655941842226,253.87921523520072L284.50354600511855,253.76454397184443L284.6001463944267,253.69945375462248L284.69661642318533,253.64600151683408L284.8479637563323,253.62213745193458L285.21938413945827,253.58181646009052L285.27445789352714,253.58182486480837L285.3157992498818,253.56958656076858L285.4532777428103,253.5577250805527L285.56342694482737,253.53349535923917L285.67146476164635,253.52767521283022L285.67896507735713,253.52580270842282L285.807938918515,253.49640835925038L285.9217181086751,253.45184466007595L286.0489237458569,253.3744254433359L286.21666327063576,253.2721538056212L286.26368824173915,253.21438265971392L286.29116621386856,253.15352609540878L286.3007232476666,253.09008362997338L286.2536023778557,252.67551282274144L286.2719675690714,252.31439054797374L286.34793950491803,252.0662948471063L286.404092353805,251.92325506821544L286.41019168913044,251.85299230253077L286.40695357661025,251.76664218909627L286.38669745899824,251.71796498784624L286.34399204286456,251.6821794516527L286.23552492634553,251.65307673822372L286.1250155202324,251.64820352271636L285.8062733749357,251.7175973958474L285.75485947044217,251.74235318939463L285.7344074792345,251.74701909608757L285.6789653665983,251.74312683748212L285.5478307648809,251.73419107511927L285.4607540990619,251.72565092637615L285.42412579844677,251.7296870463333L285.3141126156079,251.70493834236277L285.2317527272644,251.6760732367793L285.1997545617123,251.655418672598L285.1631827782403,251.6182348791899L285.1635126403635,251.55276960525407L285.27038894753787,251.19243958065636L285.28002989323795,251.06110462451488L285.26662557536474,250.9955163030254L285.20739518986375,250.90526989662885L285.14339739054776,250.85183706892167L285.07023837389715,250.81481062121293L285.0427702144043,250.79031717437556L284.91458565842913,250.73631015686988L284.8046541646436,250.71592849988065L284.5662947587807,250.72349604192095L284.45622594733504,250.73948567577918L284.3828365388508,250.72282672005986L284.32803399227487,250.69808977197317L284.29140445661324,250.6900034838436L284.12668053773086,250.60754645348698L284.09449472318374,250.61550340880967L284.0807543398405,250.62798951527202L283.93377251549464,250.69748122316105L283.7867968954306,250.74224127009256L283.75021620593543,250.74191528240772L283.69513583151274,250.7540332277631L283.64028910608977,250.7331767346668L283.5853009974271,250.72492779028562L283.4574279474218,250.66705011167596L283.4208521094879,250.64199209675826L283.1832390127929,250.52203532833664L283.04630555463154,250.42285800755053L282.9641759241713,250.3484157000903L282.8914286460604,250.26193318394144L282.8457396858357,250.22467113952735L282.79093375953744,250.18781315933666L282.71791024022605,250.15030860470415L282.6263428966013,250.11700421849582L282.5669572525003,250.10047392562683L282.51201594751547,250.08786277574927L282.42067061833586,250.04680176668353L282.3520410799647,250.00545744193732L282.3064434851949,249.9720766125056L282.22439646280327,249.8898777880877L282.2153327773194,249.8733091535696L282.19720454083654,249.8280481158463L282.25238217262086,249.78295166120915L282.27092900791104,249.74189521380777L282.33086991010714,249.65998488034165L282.4458010948256,249.56207398555944L282.54255316781564,249.4601226727391L282.6117482579175,249.3656863492988L282.63959618208173,249.28349192346195L282.72738257142555,249.11987301727186L282.82872270216103,248.9971106090279L282.9026843516549,248.86586117466413L282.93620336906315,248.8118445791788L282.95351777900214,248.78387132842818L282.967253275081,248.7718696360189L283.1057478790899,248.52577623517936L283.1334530319873,248.49304599632342L283.20690313882005,248.44423435595036L283.2344676349567,248.436235407391L283.30796722816376,248.39518366306947L283.4044560293587,248.3053568210571L283.46440986937887,248.21084044338113L283.49664757867504,248.1863950697507L283.50132044743805,248.16994839517793L283.55188024915697,248.11268968003333L283.607434000387,247.9982515063757L283.64883862826537,247.93266727476475L283.69958426334415,247.87104595021447L283.70893042876924,247.8381526858202L283.7365501905115,247.78893402050744L283.80560810095267,247.7197169364972L283.84257464702387,247.63760516598268L283.90248290760064,247.55957765748735L283.95308845289765,247.51056424251328L284.0081332586087,247.4780788007929L284.04948479579616,247.46583912299047L284.1320027372494,247.4578465582681L284.3243699892482,247.4668386646208L284.39310226131784,247.46308821465755L284.4892583305882,247.47607131225413L284.5992928133637,247.47657015239474L284.65428251206686,247.48530608253532L284.9476640472385,247.48647680148224L285.03952481869055,247.44607885196L285.20049737836234,247.3442271368158L285.3525036450046,247.1933161301722L285.50942280488744,246.99298532192006L285.5927046395482,246.8453386263218L285.5881251137107,246.8292942292901L285.54271356267054,246.76729821620393L285.419557527337,246.63962167754107L285.38312105148725,246.58983011628152L285.3557917132057,246.54060522478449L285.31529224402766,246.39281777096767L285.3479137895447,246.31066914512576L285.3985751557411,246.24517062171344L285.4954458251741,246.14711037159213L285.58321277745927,246.01211269460237L285.6485135252551,245.78283369430028L285.6728789625813,245.56482599973333L285.67884829985996,245.55421075786307L285.71411488654485,245.49099934858805L285.7932178104129,245.30452016981508L285.8717754036479,245.20241721726234L285.93518807113287,245.1404289811244L285.95183300586723,245.12409040491912L286.22888024180793,244.90059698180903L286.34268163095476,244.74983292066008L286.3723181189962,244.65553508694848L286.36040908906216,244.50606414952017L286.1997219691548,244.01627597240167L286.3549815159786,243.83290890037006L286.4884891075599,243.74439629059634L286.54955090667863,243.68626794405918L286.69818780755304,243.46356245948573L286.8412537002732,243.21656023140076L286.8682783863187,243.11302553203495L286.92277266556266,243.034471030458L287.0326320010172,242.92053044026943L287.1441799082022,242.83764209404853L287.342124241939,242.73031782729595L287.38596188023075,242.71568079333792L287.54275104515546,242.6981858049494L287.6328463635582,242.64759668326406L287.79730234629096,242.4827489217323L287.8910365159645,242.44722688450474L287.9186404020584,242.4484468228975L288.06115708876314,242.525389714222L288.1232786910623,242.56571835899558L288.14782405086225,242.59649245874698L288.4587270208067,242.74819109832697L288.55054926738376,242.77278700423994L288.68658673253594,242.7497752259451L288.8911623761742,242.65803991850225L288.96744349942674,242.59035623509953L288.97765430030995,242.60160283124242L289.2015811228521,242.6259475766583L289.3747252966641,242.6653496879917L289.5842983319126,242.68374722097087L289.73706434154883,242.63761539598454L289.824031729906,242.53996484787058L289.9333848124297,242.3649277282302L289.99450743065245,242.26704187581618L290.0989056382132,242.07353233449794L290.1336510385554,241.95067378089334L290.19640247356074,241.85328823588407L290.33388659017146,241.7051817548736L290.5329871422073,241.59401033402537L290.7968759435098,241.3980833198848L290.9370092212521,241.22139239346598L291.06931336711204,240.9452169922224L291.11828913673526,240.79242377896935L291.19656562226373,240.71797526319187L291.35670265457884,240.61227174019677L291.73916647426813,240.31802858525316L291.920586504948,240.09031820466316L292.0117393207802,239.99707761639638L292.09163605073627,239.9711408032981L292.3299035089585,239.94569238067925L292.4174326799948,239.94213410446628L292.4884888633169,239.93939417464935L292.51316314407086,239.92361844342122L292.56960598108344,239.85527680332234L292.5802280461503,239.84276620778655L292.64516664386247,239.6755747808893L292.7079402324416,239.57771032467735L292.7749400337161,239.51431590772518L292.84507174043756,239.48586639299901L292.96947217777415,239.48265001594427L293.01058675479,239.46896625724548L293.38315380174026,239.4670739723124L293.4262867817197,239.45534922153274L293.606836033563,239.444410731051L293.6591466846512,239.42743687949132L293.7164268754568,239.34601186359396L293.71316437880523,239.25238790511958L293.6287185778456,239.15461801040965L293.39519978094177,238.95848129213482L293.2062260756102,238.92133388184266L292.9487055533391,238.91653087129907L292.8271061530395,238.88922175376774L292.7687851217124,238.89644275513365L292.6632067844039,238.8838303634284L292.50864426965563,238.8125737788323L292.4796787739833,238.77593616726608L292.45903405062927,238.72579687370217L292.4628245721542,238.63369278444588L292.50021148828455,238.56614542882016L292.55064308464716,238.50017319964536L292.92057063261745,238.2000119327722L292.98218138323136,238.09728811891637L292.91922125591736,237.83629315107737L292.8535533315044,237.71445159789891L292.6183892271438,237.4707811543767L292.5895388786739,237.40068351224636L292.5956096061127,237.3115102108768L292.7384865565655,237.2299029884325L292.7786235730782,237.20699611405234L293.06789547094013,237.13935016193318L293.3865460662382,237.17818086453917L293.4145811891103,237.18959378298678L293.4447489990962,237.22818316354733L293.5346599055629,237.2779939889324L293.58778840293235,237.33134419491398L293.58928098154865,237.3783973061236L293.5651261349012,237.43103237983178L293.47997858135204,237.54469075874113L293.47412069459097,237.65035378778975L293.5110004400085,237.6967643775124L293.60758808477476,237.75730586766258L293.67535184231383,237.76908670498415L293.7965961999289,237.6989229028768L293.87787295286034,237.60220252324416L293.98124556722905,237.30298179064266L294.01899931689695,237.0647407437982L294.05303681004807,236.98164642028405L294.1362558466717,236.85875807864068L294.275308017779,236.75578558485086L294.3852715279136,236.71995051829163L294.482461999145,236.71745816747716L294.5324600818167,236.75914237743382L294.6117349160995,236.77588169857245L294.6342138999389,236.78530438522557L294.72683959340793,236.8239903596459L294.89538306101895,236.87550594789718L295.0561651053031,236.9041580645562L295.1273896375533,236.88784789911097L295.14970497314425,236.86477844542515L295.1576778947492,236.81150922125562L295.09359969862635,236.36913235240536L295.0270091764469,236.07124445344925L295.03386589488946,235.99711241490604L295.1460148016304,235.8565535840862L295.53420432521307,235.67637718644983L295.6126237928511,235.62715946196113L295.6603661028821,235.55971309308552L295.72249096702944,235.42644918320275L295.75371938913304,235.24731287512805L295.7526272651412,235.2128719847915L295.6977251772696,235.05572441038748L295.6870378121166,234.95766696370447L295.62625535517145,234.89551279880652L295.621738662132,234.75871776798795L295.6336882708274,234.70306117309156L295.6316055795178,234.6370899989497L295.5831686257334,234.5202528961172L295.4248093698516,234.37668953588673L295.2638315549957,234.1661809572397L295.2126218804442,234.1230293848057L295.04325023490674,234.03610333460983L294.9394116601252,233.95463719705822L294.85287717391475,233.8830311237325L294.7862507555219,233.77330016881024L294.7923306925659,233.70740492962523L294.8745831002416,233.64512772520902L295.01144852129437,233.64931067912858L295.1130902557925,233.67450366730463L295.21509399433853,233.715218424868L295.3862055502359,233.73524007816195L295.4230104431772,233.73024872535098L295.53489116537094,233.66000555283154L295.5501179712228,233.61504818615776L295.5537063249649,233.52973236995058L295.52293886896587,233.4494305666749L295.3227603654195,233.06494802717498L295.2589437934075,232.88977548328785L295.2403454045452,232.75818378403437L295.2123199399248,232.5600676685308L295.12930695785326,232.24602409884847L295.13437415181033,232.16217686029267L295.2165186823877,231.9936982248728L295.35814743768424,231.84808132895068L295.41070598159786,231.7768002701896L295.4314352876281,231.7154063005164L295.44159557134117,231.6383957890066L295.41358669902183,231.46210202034945L295.4148908387324,231.15417827636793L295.3805853576414,230.89975080622116L295.3766967226402,230.87158813831684L295.3529407124952,230.7850477018519L295.38428599395047,230.7353912196486L295.43886461083093,230.68934594181428L295.50746105875805,230.65507000683556L295.5905562330008,230.6495408302062L295.6181510942697,230.6410693695907L295.68744888094807,230.6397761920707L295.7901106731915,230.68340890913169L295.85888279165374,230.6573793822363L295.8764317973473,230.61195907702404L295.8757311083573,230.5789767520564L295.8516676367508,230.53025826180965L295.82746796846914,230.4815385184511L295.6712585549976,230.30356305621171L295.5441407432627,230.1864769562917L295.51566319410995,230.1542054442234L295.4677540751145,230.07277401735791L295.4432025371716,230.0075633954093L295.4469722061367,229.74476216581297L295.432031838478,229.69564412878844L295.4259959717201,229.6301212330609L295.40109325006415,229.54841948718695L295.3713481582163,229.45018473250184L295.3657532917823,229.40503335472476L295.37395656179433,229.35564616626198L295.36364349825453,229.30657130386953L295.38965619240116,229.22437438019097L295.406770028083,229.15809746265404L295.428862311157,229.10835486424276L295.42780470923753,229.0593662917281L295.41784229593395,229.0267825714336L295.3138546831142,228.92155153521708L295.2950721164525,228.90973796648905L295.1461071298145,228.86713024244727L294.8673093817124,228.81022143008613L294.7740688657432,228.77492328911103L294.6991238338487,228.734946203027L294.63397320411605,228.68390679485947L294.59094005163206,228.6505309073018L294.5395357523121,228.6228965239361L294.4501341884061,228.55029482312057L294.3658019605464,228.49810787102888L294.3515613997806,228.48197263048314L294.145640320432,228.36222056859424L294.08449144173574,228.3180085992244L294.02330264538614,228.26555243128496L293.9854345335989,228.22107173132463L293.9566065635954,228.1718255505657L293.79551330128015,227.98993464830164L293.70086056973014,227.88867507066516L293.61026736408894,227.75447758978498L293.50538053077616,227.6085094689497L293.3398336764949,227.43433868096145L293.296449016274,227.34907293838387L293.2914688476594,227.33253894715926L293.2001160369,227.16972426315078L293.16572535326486,227.07193351785827L293.1500743583638,226.9898341752887L293.11554711282224,226.89204222436547L293.12767056225493,226.809714862683L293.14914136779043,226.731353483332L293.20817751230425,226.67710164395703L293.2628017020397,226.63929699448818L293.38696276822884,226.60407593220043L293.45626683854425,226.6032628542016L293.6374311701329,226.64131148687557L293.7072684810955,226.6647508246906L293.7773666260873,226.70080112518463L293.8569024393073,226.74469811631934L293.90870861073563,226.78494351967947L293.964569957614,226.80437430796974L294.0477635854768,226.80320652130104L294.10296711873525,226.78577619534553L294.1989909479598,226.73526429147205L294.23038486576115,226.69336624963398L294.25212014061253,226.62761659697298L294.2514173045347,226.59463431482163L294.2316235129292,226.52946885181336L294.16897360875373,226.4154116989166L294.15844165030285,226.34984734328282L294.13388302756357,226.28463770396502L294.1324770457213,226.21867314880456L294.11753200368184,226.1695557150906L294.1152019180481,226.05460390072676L294.0835482266484,225.87439826383252L294.0821364527146,225.80891860786596L294.0939124559336,225.710100697318L294.1683888031075,225.51196787726167L294.19511068847714,225.46226748996742L294.25331351476416,225.3750344360169L294.30292302698217,225.3124534663275L294.3700322726472,225.2088155557267L294.4377201768184,225.12555055100893L294.4920836683377,225.07562248323757L294.5468042647626,225.0417007613887L294.63378966212986,224.973163801802L294.7379572648497,224.89072383189432L294.77918386513556,224.86977028458023L294.8474457031771,224.81900238983962L294.9665035069411,224.75561441560512L295.0483915099685,224.69236556363012L295.06219237616097,224.68812971098032L295.1576614677542,224.60464037786187L295.2672429979357,224.536800915791L295.3219267443019,224.49463642663613L295.4401501677057,224.39826698294382L295.4900249379061,224.34829897555028L295.56164699731016,224.23209778290402L295.6015641670092,224.14906138296283L295.61369805513823,224.06673552384837L295.5784764766722,223.93595891114728L295.5642341530729,223.9198230735892L295.5542700680562,223.88723934963582L295.54268402233356,223.77268629836908L295.55552459173487,223.72285774349348L295.62246882175896,223.61097755732135L295.6810834327189,223.53587488264202L295.74921592814644,223.47346957413447L295.77664989323966,223.45626816120966L295.8455280846392,223.4346046590572L295.8871141421987,223.42965899123737L295.93734215146105,223.3961829537957L295.982280093609,223.33792582817932L296.0369679284122,223.29576282333255L296.0645716345716,223.2872921163098L296.12048494855117,223.3028480678513L296.18072158850555,223.30971573027637L296.2174137237271,223.29260135681398L296.24466751629006,223.26763973664129L296.2660619393173,223.18540091864543L296.2568721284115,222.97194331528863L296.23638137234593,222.87379460179272L296.2109503821921,222.76735577489853L296.1964481945797,222.73860888860963L296.1704861561411,222.60791836055614L296.1357520483143,222.49363359494328L296.1300729252762,222.4441170629898L296.1685895793853,222.29560227980255L296.30324442359415,222.10046373427576L296.37592728893287,222.03373824267965L296.4162011603039,221.96719434578972L296.4189210951481,221.9444278722558L296.42406003973156,221.9013167840376L296.41760424156746,221.80232958509805L296.3878550562149,221.7040941243058L296.34037334001187,221.6430326516229L296.2699993742972,221.5948502019237L296.2328253761516,221.58334875014316L296.1399147653319,221.56405178172008L295.9175161949861,221.55566764178548L295.8432123365601,221.54042502873563L295.8061674197197,221.54104868948343L295.76885693442455,221.5295465343279L295.7319481510749,221.530171559064L295.5645060337192,221.4917526058398L295.50391979000415,221.46791007814772L295.471029606957,221.43947681687587L295.43301775460714,221.39499292457276L295.31992140296643,221.28579705565335L295.20634364110083,221.1479859204792L295.1396064061082,221.03340382868464L295.110688636807,220.96815289388178L295.1006444223094,220.91908078688994L295.10400695029966,220.85316092323865L295.1067193664894,220.74989498260584L295.11904128139213,220.66320643613562L295.17307831384096,220.5841808859177L295.24546367959556,220.4965977483962L295.382022222846,220.38294217029033L295.4323076115288,220.3451016089566L295.5379359008148,220.31408199545876L295.6065185238913,220.27204817920483L295.7442603212039,220.21999212837545L295.909785147418,220.1677115544926L295.99204211317556,220.12095716913882L296.0196552892412,220.1120016833247L296.06063179932244,220.07843956991837L296.19789652887266,219.99777007726516L296.23887348723656,219.96420822712753L296.3212679543103,219.91745607876874L296.43070008691575,219.84137644203838L296.6078189740001,219.6611858419128L296.6574472187567,219.59860965191274L296.7106309009978,219.4657514479968L296.7236070766521,219.41640985903177L296.77686879254543,219.30004029679094L296.7897220977429,219.2380893111631L296.83294336795007,219.07264737000241L296.82963780861974,218.8917360145051L296.81925273158413,218.82568757629178L296.78998771089755,218.74394414115886L296.77959673553414,218.6783805971254L296.78611900734904,218.53005203893917L296.8111663282216,218.3814123629263L296.8005676973662,218.29887419644092L296.8039356553636,218.23295481302102L296.8437910484099,218.13343243432428L296.8708769440782,218.1002261876174L296.9573850232009,218.02878304296792L297.02507072959634,217.93679621692445L297.0385725422457,217.91219139241457L297.12078264532465,217.60600065780636L297.2316595609045,217.34032909582766L297.2480133915051,217.22458375881797L297.28288757592236,217.10901251594623L297.3095551507977,217.04234242227085L297.3946799081823,216.8928135149008L297.4301230329693,216.8097383541417L297.4473892330752,216.74346493343455L297.4648242920084,216.68592190767595L297.55965653021485,216.5563671166483L297.6006415351876,216.52280748809972L297.6965982496258,216.45921460595127L297.83410241988895,216.39504347235925L298.0685596420117,216.3211182538571L298.09621613800846,216.32040910665L298.1512729248607,216.29474185416075L298.22034849283955,216.281330233036L298.3720098365302,216.22941849088966L298.5105536539231,216.22684676950485L298.66386430255807,216.26514948435852L298.72921820520423,216.3011669701691L298.8223124980723,216.34084130464726L298.90654620496935,216.39255544940806L298.9622474891912,216.40423557176746L299.1575783963308,216.4705792988807L299.2643037598755,216.4977757500883L299.27382776010927,216.50998920764232L299.301657887856,216.51752666177526L299.3716402058708,216.55358934367905L299.4274306542684,216.5691506218318L299.4694522794307,216.59718978992896L299.5813338923617,216.6486827921417L299.8605004383353,216.74249691472232L299.9586205868218,216.7943456919893L300.1136175418105,216.90735120183763L300.2398754121823,216.97498585856192L300.3526674915702,217.06383005914995L300.3858670961563,217.1005154177119L300.4845945681154,217.18098260241823L300.65360900758606,217.30576244288932L300.75168781886896,217.349369524969L300.8642132543682,217.42608977173404L300.9484850715053,217.47393043612192L301.0463056284534,217.50492779064007L301.22734588145977,217.53526375024558L301.26946274669535,217.55506245877677L301.33923452919043,217.5741550428529L301.4234153236466,217.6181167025352L301.53538101779486,217.6618587621906L301.6046330376121,217.65621551482946L301.6603823762307,217.66353666916166L301.8128229088361,217.64850457565353L301.882461869227,217.65595880699038L301.93824787869016,217.67152465463005L302.0355474276075,217.6777887624039L302.09146944552776,217.69335619370304L302.1605060206093,217.67170946697024L302.2067698004139,217.675061489168L302.3509875544987,217.70941644252252L302.57461086910916,217.7881761509443L302.61672607723085,217.80797671388154L302.71071777971156,217.88501118359727L302.74365642332486,217.90908837694406L302.8618804017169,218.043092374337L302.90935748905395,218.10367889496138L302.9429332443942,218.1651020541958L302.9666058320072,218.18957556857458L303.096288787081,218.43425448219296L303.1342374570813,218.48311160373396L303.1544347234412,218.5696230181411L303.22686216293005,218.7288903178187L303.27086194199,218.8515151160591L303.3042632748693,218.9046931681496L303.35164838716446,218.96140002765515L303.3938804219215,218.99381095022L303.4595807521182,219.03372128651426L303.4738565768639,219.0581049299908L303.48328821249015,219.06643934269687L303.54040194919435,219.15185083683537L303.5892828605247,219.19741902654823L303.5922431961553,219.20035705523242L303.7463702260284,219.29252045462636L303.7881732653732,219.30407578333416L303.83953289774945,219.3360901519709L303.91477119579577,219.40906845229074L303.9427626498764,219.42534043552496L304.0788633959637,219.47659793641833L304.11004527501063,219.48805147830444L304.16603356604173,219.52011094919726L304.2078359754378,219.53166684750704L304.2493771563459,219.53109703222526L304.3049377431671,219.54230064033436L304.34668699105896,219.5582205906112L304.53351782849495,219.67058517145415L304.61338824243285,219.74312489587282L304.6553978928714,219.77117102982538L304.79493479909434,219.83070867570586L304.8371632574126,219.86312153963172L304.9350756615095,219.9188636587778L304.9769599494357,219.93478577275891L305.04696472824435,219.97862050044114L305.11727135294495,220.03118704148437L305.1451782382974,220.04309493604433L305.23408514292896,220.11135919025674L305.2898985708998,220.13517521401354L305.3460554451194,220.17548227448788L305.4158455338038,220.2033130814416L305.50475103644567,220.2715781020861L305.5705981141691,220.33234634857035L305.63185105455705,220.40131408569778L305.7820014103163,220.53903260822517L306.2592717483858,220.8850473583925L306.29193023750486,220.9091256089623L306.6279963450179,221.10926798812943L306.7676913934629,221.17705993812342L306.80039648798993,221.19725974492758L306.84257215706384,221.23355427104707L306.8520427758631,221.24964895887751L306.8758319228655,221.2862498147424L306.9554297950417,221.34666969144655L307.0533249389264,221.40290330663993L307.16503026265127,221.45442226443538L307.2067390855882,221.4621019191727L307.2485713950373,221.48190606402204L307.3600698665541,221.51693613069074L307.44407011007206,221.57352068647833L307.47197393496754,221.5854306675028L307.54613866799264,221.60021583187063L307.63393103477574,221.60301071221147L307.7452036986906,221.63416056269944L307.8192796323892,221.64506610242552Z" fill="#FF7B46" style="stroke: rgb(0, 0, 0);  stroke-width=".2"></path>
  <text x="297" y="244" font-size= "2" font-weight="bold">
    
  </text>
    </g>
</svg>