<svg  viewBox="290 230 150 150"  version="1.1" xmlns="http://www.w3.org/2000/svg" xmlns:xlink="http://www.w3.org/1999/xlink">
  <g>
  <path id="path-0701" d="M401.0259293661329,260.0514702349983L402.2620822756071,261.08622874267166L402.6497002212127,261.17745287840626L403.1575714095561,261.7594165347491L403.5361079661343,261.6464945450289L404.52691558740844,261.9630982405042L405.13848808912735,261.89207395567155L406.03669132905634,262.26111911279077L406.8045541493011,263.24062942807177L406.8325278374359,263.79157633894647L406.47759247633803,264.3010739953643L406.69273719757985,264.77996045431337L406.9040778760609,265.9058670550685L407.5569950583049,266.6437424844289L407.55704529177456,267.20582453396855L406.8195945648513,267.75343978039655L405.9955830143117,268.9185143631539L405.25174840926775,269.5696842947009L405.0311417989251,270.10069205544823L404.8764103943249,271.597378794776L404.95970660467356,272.3170105044037L404.8417780842392,273.2747095233144L404.43406794011025,274.6615808661363L404.10151221547494,275.34016963587146L404.45128912035943,276.1784513557568L404.6278719279653,277.182647325355L405.7806784387976,278.51220081661813L405.9404200240497,278.8570921190012L405.8184842865812,279.6604604927952L405.08063825820864,280.8312434371883L405.4586795091418,281.81468256788776L406.26667355750396,282.26643467825033L406.9123823002483,282.35623484051666L406.80163367489877,283.0849203742446L406.9369295851029,284.2823584476955L407.2791620525968,285.3946122203379L407.7436746324347,286.06244813686044L410.5916036911476,286.144493957896L410.93122647794735,285.7551111372668L411.90848472880316,285.6573071942712L412.47583574684177,285.84213942551196L413.2808187539995,285.84578176603554L413.7779156021679,286.11192707799364L415.15552748124173,287.1819687650268L415.09138080408957,288.40159785655396L415.39592832712515,289.10407135311743L416.0942949878554,289.39255117987614L416.5654465511361,289.8412771344856L417.6287842061429,290.2406532673076L419.2875091518654,291.07910719418305L421.35774584298997,291.31625157620965L422.1321990228789,291.602755083557L421.1445532862708,291.8618170485561L419.53780776635904,292.68532346381926L418.6186524486184,293.36132242325675L418.2863246140623,293.9196207069526L416.8382521746207,295.1048220644616L415.69428872017306,295.8742585519176L414.73150534981323,295.91534673834394L413.2860966420958,296.22513670649823L412.747261224933,296.64007935697373L412.5192161125706,297.31555506818677L412.0815607042168,297.5770856365925L411.6875138043324,298.12397937683L411.139352024682,298.24932367369183L410.41452833729636,299.07724254959976L410.0841559387227,299.2713272555393L409.1664917014459,299.32791959924907L408.59838339557973,299.1641392086958L407.8322976602176,299.26286034810346L407.35776439254914,299.63760606122287L406.49121406346603,299.79557409861354L405.08186495642076,300.4057449965421L404.2851702977823,300.91465323343255L403.24400643684567,301.30600704043445L401.8404708512244,301.6873267196779L401.18761429672304,302.1294380258696L401.1505004172286,302.68407945994204L400.8782402020588,303.2066455842978L400.9734975739739,304.02692305918936L400.28649786616734,304.69309649882325L399.1286848077143,304.9074050613235L397.83374375466883,305.97445135634007L396.51440493510745,306.73772059065595L395.8462757168745,307.2683013403994L395.58845267628203,307.9013354654662L395.5931750647542,308.74815897736335L394.67311595472347,310.3909067267359L393.3190975951766,310.8631437882332L392.79010522238605,312.5306589111824L392.54075970773556,312.86389322009927L391.8188754842449,313.9350179401008L390.4054861084951,314.0414321838243L389.6213029937644,315.19982283060835L389.5194018920047,315.9174141775675L389.7833944584454,316.89982677138414L390.0796555893867,317.20645501220315L390.411397246804,317.98007982201307L390.0372419045307,318.77737688732486L389.18648583815957,319.29924702541666L388.6247125181944,319.3414663112162L388.6343660166385,319.7805518961741L389.4429649978083,320.0003548181485L389.7892227723569,320.75106051592684L390.32813938782056,321.13217892749344L390.73745167151355,321.66334095092407L390.9531025872857,322.48153339978217L391.64439881447106,323.0765779578114L391.87427544165985,323.49728765446616L391.7719918023904,323.9946055895289L391.1847889807468,325.12869478854645L391.1760707873691,325.6009143249694L391.63917724978455,326.3261289905204L392.44454477643376,326.6597825339768L392.4530195156003,326.99531351892347L392.99765412800116,327.89808802138396L393.72832944912807,328.28185573176233L394.3331255612575,328.29015495672684L395.2958030407608,327.5758941191889L395.6103371755562,327.6189272960355L395.9945452905704,328.4733630587507L396.0272473560217,330.2408674215212L395.79232609121027,331.52545402471515L395.98298049539517,331.83033837611947L397.16572012236065,331.97981019480903L398.202876586136,333.0117848432292L398.39414844060593,333.82996414350964L399.1256572895436,333.89886025289616L399.6631663257467,334.2425561659975L400.694313188229,334.305684805704L401.6466083105115,335.6593374996655L402.2137065928,336.8964116945499L403.77081727958284,338.60581421902134L404.22835813604615,339.8195785716316L404.95865053745,340.75741913781803L406.13420821505497,341.816559225982L407.45223498196356,342.65064806692317L408.59019556096246,342.88929325573736L409.7535560603101,342.6914499800205L409.9521374215292,342.9363986450153L410.13380879963734,344.0510496570323L410.67960542001674,344.8594155154278L411.1505110432663,345.96442977109473L411.5258779267133,346.40784009779964L412.2855446224312,346.7208617868737L412.85309200972915,347.3086156438476L413.07921069613803,347.9092134448865L413.48919662728804,348.26830759250333L414.01275666263973,349.3676929201383L414.8065622508111,350.00373054912507L415.2854644459039,351.16598797691404L415.6158487384273,351.66836038895417L415.82587181804774,352.4930742919796L416.13183596275485,352.9670351149334L416.0512445085442,353.7822821877462L416.1792652976146,354.39325841048503L417.40179922235984,355.6747550068794L417.4624563112302,356.0905963907535L417.99299371012967,356.97815057334446L418.57142885484427,358.187259352243L419.1274892258589,358.7145230840215L419.3966375866985,359.77440572536216L419.244741185008,360.13810727339023L419.61791777436156,360.66172044394443L420.25208363492857,362.17631072379663L420.2563006086093,362.7389342273236L421.36695811094614,363.6660681289068L422.269613685301,364.0854297140759L424.1223586037595,365.8098869575415L425.11065469525056,366.3791540995235L425.3290058864295,366.86503558685763L425.61554858000454,367.69601272450564L425.3980138479601,368.2923546289094L425.6980151260941,369.7670644417167L425.54173712947886,371.0390815107785L424.88251414606566,371.8406038301737L423.60520965555406,371.8424876059362L421.98874155370504,372.2029612510114L421.3943130564403,372.47248986957857L419.62126440866996,373.0116629652093L418.00676921922786,373.2351099368343L416.833680302243,373.38032366237076L414.4593956684366,373.23759150177466L412.7778774769613,373.412224927195L412.2092102339593,373.007619588765L412.4927431924443,372.6600163981557L414.1527001725008,371.9099607783628L414.79128415212836,371.4700007009742L415.52835190981205,370.63436958549846L415.3714603673361,370.01742717507113L414.7181093009749,369.2314809325935L414.1153199445944,367.8895263808754L413.3662034529916,367.44169671726195L412.2032974385984,367.32389713454904L411.62238811529096,367.0125101157928L411.28952697554996,366.4462108702237L411.3813605148607,364.79536919030306L411.97589969499313,363.0634523090075L412.7791711748541,362.63530134253324L412.96770382697287,362.2692722499214L412.7432589292075,361.44206906058025L411.82505312792273,360.6913300335009L410.66673122980865,360.44076558801044L409.6871198085064,359.81244212119054L408.87791029462096,358.69786682841186L407.55862094541226,357.6073265509085L407.0151872009592,356.51918441838734L406.6314416921341,355.01798511945344L405.95261495827435,354.18382020890294L405.98058050211694,353.4562448834704L405.3409674069444,353.0309945360068L404.10036584661066,352.9620779838833L403.1153125536948,352.1361565236157L401.97930530650774,351.40153397419L400.51751463063556,351.02823400373836L399.88788474042667,350.5342808153764L400.069244423652,350.010876927L400.71215308745013,349.3054549173821L400.85641425610083,348.64762258448354L400.58659610918403,347.9781197008633L400.5559530540995,347.1673253320787L399.76285469906,345.94270111541755L399.74648405169864,345.097271099713L399.90523761913573,344.6153083218278L400.3781739473852,344.1969435452238L400.78521630396426,343.28998947188575L400.70692470901486,342.49513347486027L400.00643928865975,341.7225686416623L398.7463685011244,341.5800519674958L398.3828692173811,341.2975205486073L397.7163393056835,341.20785582465214L395.37110727838444,340.58619316029944L394.9991274009917,340.4238171690031L393.9774371429339,339.5502183517565L393.8063530794934,338.88891309029896L392.9649119730857,338.22886125840887L391.96553787767334,338.57731248839355L390.54226546511927,338.2832271285224L390.0901937484632,338.0757448862232L389.6203802367454,337.5458688844965L389.22744667081133,337.53636276121324L387.653170516769,338.39743991462365L387.001541151305,338.6176947793401L386.49595126693384,338.53902740737067L385.39440281213683,338.6427180971441L384.9060669157225,338.8410260207147L384.5200156052051,339.4034785835347L383.917838172285,339.85104159807634L383.4728318366688,340.648704942776L382.72631060684216,340.86050509631787L381.8609018258612,341.3376198985061L381.11847260383365,341.92551249290864L379.69016686662144,342.4055163458952L377.87808130119083,342.5568805347539L377.096736526375,342.7599140126713L375.26492269660594,342.7233674782119L374.6542798937444,342.5840758282866L373.80724162329716,342.14578570999674L373.0693509657867,341.4934172157864L372.6535628516285,340.4169900697343L372.68164561023514,339.4105181470468L372.5215381222115,339.0218588370235L372.0518509590984,338.7628294703409L371.3152681156098,338.6521137059535L370.7734796481709,338.85736290466593L369.87935384302546,338.8117394950614L369.30291404033414,337.97474564538607L369.2286188847211,337.49646595809827L368.04284232352074,336.1418556004419L367.2160528790191,336.2766604594826L366.64801292731136,336.1557006977109L365.33187638007803,335.06948984083465L364.26142949617497,335.0866454709776L362.84377243880954,335.6480965256369L361.7335496257292,335.6071435388385L361.07195038239297,335.88166518450544L360.6822742435397,336.5020509498627L359.3984717684325,337.0429489792941L359.0199713100337,337.7127172003238L358.83477435588065,338.53818019330447L358.5417613848731,339.1099532982289L357.5990801336484,339.86553272354195L356.6072389950714,340.0545387497532L356.0769018154788,339.7956454259438L355.0780328831679,338.78719787509544L354.18939437023437,337.59340857617735L353.4811929681309,337.34741112718893L352.5042294093728,337.28066919362027L351.7137976582744,337.7495569588136L351.4493912532562,338.7136169370915L350.9231532812846,339.2689546922502L350.08085792852944,339.2953208982208L346.9043113713342,339.20893520708705L345.1260395885329,338.8378713670336L343.90337834616,338.810598021676L343.2352071163514,338.45112828588026L342.66865763573514,337.6459420876845L341.7362764216814,337.03705977567733L339.46054388462653,337.2946359696052L337.9254749432657,336.54391827238123L337.10161619735663,336.36847848655543L336.2342575671828,335.92102907785284L335.2334820436008,334.9615988278656L334.4305199847331,334.45321182673706L333.34069358628403,333.2700727861229L332.3194712337281,332.847938990858L331.4823749090647,332.2863545156115L330.36825688974204,330.66035537826156L328.8574526845914,330.3540672008239L328.14146671214985,329.7697516647986L327.2602107326493,328.3018550709221L326.5977702198288,327.59991357839226L325.8311048761352,327.007318653702L324.99958483105365,326.5870765730633L324.05380227448404,326.3225467034099L322.7226658719228,326.2579738753784L322.1716218079964,326.3483848395863L321.7767794493702,325.43433832999835L322.58299409830215,324.6442877746931L322.4486399284724,323.90039820895163L323.158390251916,323.7349236854243L325.06923827140054,324.5227885468248L325.53215546627325,324.45532468808506L326.6496559067491,323.62855115574075L327.69309115634314,323.1382296120464L328.23473267050576,323.05036229256984L329.2347857520799,321.2214483023017L330.3593881574052,321.17523081468426L330.70692885918834,320.98367604330906L331.1477707627746,320.3307107783903L331.56213067260614,319.31780763137976L331.5173395648744,318.6838574756839L332.20123442228214,317.5940899376301L331.59297657271236,316.8584188333889L331.2037330244093,315.81826405450283L330.8891343487994,314.3186472879879L331.0378483286586,313.7620697632756L331.1073510752103,311.5952690213526L330.53218399277466,310.80350431509487L329.81278001560713,310.508259719777L329.20894473310545,309.68767759838556L329.0274184794398,308.321067478827L328.2135347751755,307.57450781402986L328.0782059600315,305.98134604265033L326.28957979740517,305.2949643982429L325.97087082812504,304.7648024048631L325.79779130062525,303.68194592674354L325.5750176418296,303.26712149971627L326.24421620398425,302.76520999333843L326.6939990667488,302.836436948769L327.41181410010176,301.9487859267674L327.5325355540699,301.3189061013809L327.21289596848146,300.9630714327277L325.14610963735686,300.72531725604586L324.28520753734483,300.4633028726812L323.83248010452735,300.67780495300667L323.31129720918034,300.11867894800525L323.3405610572627,298.53202283938117L323.4168435537031,298.1116069409063L323.4398403606683,297.9714683392731L322.6952419209665,297.4507689033653L321.76915612417724,297.0979319829339L320.64397516267127,295.6872143847677L319.7233668765657,295.2309174959337L318.2193685890197,293.31847767856925L317.3517509527155,292.7377765940055L316.85541838048084,292.0396078827189L315.95594340019306,291.65231104979193L315.15757223366745,290.5892021308118L315.3595241063158,290.1366115700266L315.00581836415586,289.75402958278937L314.2345225836434,289.75656940646877L313.7727478804227,289.36468051510656L314.2218951807299,288.63724906697644L314.273594716582,288.1586838327148L313.8672416329391,287.3873601275591L313.07901794667487,287.19165277569846L311.7829949893021,286.64754085213826L311.68063995806733,286.1054161140628L312.45119813470956,285.67746904088017L312.3692212509741,284.53613715932715L312.13529769285014,283.9924988005632L311.41822268297983,283.80906177997804L310.7590427311952,283.9235701018324L310.18731515507534,283.31534633010506L310.41079511743374,282.2630209945237L310.19983200965726,281.8351540608619L309.3312005155676,281.2986267547467L309.06662342763957,280.93276608406813L309.23588987168114,280.50404196364434L309.24073172489807,279.5942389041611L309.59753701423324,279.2456745337231L309.2537334817789,278.80457747255423L308.62795373327026,278.757989921588L307.85927025060664,278.0110645099903L307.3804135595419,277.9200984154895L306.8231153543311,278.5890026740981L306.2630466807932,278.61719168266154L305.50272611698165,277.99438555095276L305.45689426562967,277.4191129171586L305.80801831018834,277.1246935837289L305.5502837757049,276.5723019841762L306.2273108374502,276.6115153266819L307.36916355922585,275.8275219445268L308.8859802542538,275.6912067404073L309.95977585740184,276.13449980868154L311.06021107576817,275.83311677994425L311.98715803794767,275.9111429814511L312.987076235946,275.7704507793942L313.5027471778776,275.9899463894599L315.32406178857855,275.223194375204L315.85253219462174,274.69410404125847L315.8697091637623,274.4089160488147L316.9287581873905,274.0291031556508L318.40898909340103,273.6715679220142L319.3035119234082,272.39756715247404L321.2669334636703,272.41411566538136L321.8288253327373,272.193293943561L322.27317204429346,271.60371439357095L323.48830802979865,270.65923336257856L324.2990093693479,269.60116404569L324.2833879640639,269.0566435312621L324.61139495825773,268.18228358849956L324.5519686345433,267.7363799698851L324.1339681351601,267.0269403369948L323.4008117337253,266.2972105336903L322.0325059546958,265.8732143660218L320.8862487900951,265.3820550478058L320.74896656135024,265.10847733181436L320.9353751645467,263.93413022846744L321.37079541769344,263.5037385946489L321.369259878742,262.2843272326563L322.22968174895504,260.52936772436897L322.76326220189367,259.77334748888916L323.9198240562582,258.3839640706683L323.847388209153,257.44384254761553L325.4824949023823,255.29799313774038L325.4689830819916,254.70024769748034L325.8217795923156,254.10527109823306L326.55107552359186,253.74260423093165L327.54421647048366,253.65271518920872L329.06728675721024,252.91144289121803L328.9368069185002,251.67287551349455L329.11990978217364,251.03430913683405L329.19053973908376,249.15668811011528L330.01500255675273,247.45958114336645L330.1327666849029,246.36190652722507L330.33139027664583,245.9089372584349L330.30716315788595,245.2887195319645L330.65893639980277,244.1844530618946L331.036244678995,242.63340253294518L331.7174324466687,241.50362877611497L331.7809837309069,241.06029424057397L332.30538453015834,240.6980494148138L333.07989562860894,240.4362035681488L332.7870417962986,239.9929412784686L333.0925666278854,238.4955631130788L332.81855338346213,237.74564159490728L333.16859013454086,237.16443806066582L332.873469927883,236.30216809456306L333.3176309818664,235.9476631640382L334.35355683933085,235.44980584704717L334.93447566826217,235.55550410062006L335.9192966444243,235.48933226458212L336.49812546132307,235.2053682477108L337.85150605440504,235.4693648483044L338.1593596086095,235.68512887126872L338.4713356539178,236.47665301250072L339.85888745825287,237.37757607960157L339.99554929837177,237.76355659641013L340.63273564885094,237.91925903721767L341.1769978435732,238.41862478013627L342.29548069702287,238.94082083907142L343.2889773474453,239.89067157843056L344.5114609540178,239.8568861847989L345.1584625245341,240.4126549648572L345.66215819848003,240.50183471505716L346.6486943337841,240.25436789278592L347.9355801617821,240.49773287177504L348.7915317533734,240.8327114882586L349.2641318032256,241.35311648748666L350.6604673588954,241.6539261726184L350.97689473142964,242.46072506080782L351.4901816563579,242.50559565604453L352.03210365413906,242.21991382044416L352.9722722644001,242.53369065252627L353.8121579694962,243.24725115359342L354.15226575639826,244.33981925257194L355.2019728341511,245.1578245597966L355.68363801136366,245.72180788023525L355.6016533024922,247.34295090933847L354.9926194664331,247.9253620202644L354.50970493292334,247.8833863393229L355.52629142097067,249.3904210766159L355.9160055878965,250.24235337477512L356.02081313018425,250.995578345377L356.9303173646549,251.63855472311388L356.9285835096016,252.31101013224907L357.6521541725997,252.59909732692267L357.97766922357187,253.18332279608603L359.25398129504174,252.9637363923648L360.1553029836141,252.15056276216092L362.88122145997113,251.8736330993479L363.5767392646849,251.72036217374352L363.5568797178821,250.97364376309633L364.38496599730206,250.75280492004276L364.45327440134497,250.01555599481617L365.5187618650634,249.5691912705297L366.4754874475111,248.93996360420533L366.5485645595654,248.58852106603263L368.3220058280094,248.95990901706682L368.5463059217873,249.22902083457484L368.44083196575593,249.86605744243752L368.98980983477304,250.00947622084732L369.48227719915303,250.93021807781406L370.3925518478318,250.7292664614115L371.14321914872926,250.91277043168884L371.1024217414306,251.25010131695672L371.6170106720929,252.27740102243388L371.61951029058037,252.88342668368296L371.98740858419114,253.30042730434707L372.63030687883656,253.61017619913673L373.40498419088544,253.57063295802527L373.27697039482155,254.16609381219223L374.08308948187914,255.75428111148267L375.13505890145825,255.94307116900745L375.6136321641061,256.8658156034735L376.153558168935,256.94634950291584L376.62471001964514,257.42323023282734L378.6717800523693,257.39506215527217L379.57364870579477,256.9238593706059L380.1809310116114,255.97132235207846L380.5184584486342,255.68120542799534L381.37483485219127,255.52881174961385L381.96545630446053,254.9727967611234L382.55790861870264,254.67856353326624L382.40413051028736,253.37571782880514L383.3177556582632,253.69233612121388L383.65464320952015,253.95945763087002L384.0504975874319,254.68970578107565L384.7679483378197,255.479993521697L385.14487538035246,256.1857806385269L385.332373468671,257.04531918472185L385.59715214267635,257.31958520760145L386.57921340130633,257.24976023894396L387.41365095986475,257.3904693478853L388.5837772574523,258.10506727776556L390.0468955771066,258.62871989030464L390.7475837771235,257.81879577477594L392.0157978823954,257.14402364441594L393.36589376186384,256.7562241037813L394.14606670761714,256.8832826611797L395.5996889929156,256.6883443964207L396.73348653597714,257.1853482319384L397.5224487195519,257.8360243762372L398.3333646079627,258.2709592346919L398.8073500992796,258.3092008137537L400.2234524580017,259.43971856392636L400.64051812627076,260.04720000181624Z" fill="#FF7B46"></path>
    <text x="360" y="298" font-size= "4" font-weight="500">
    अछाम
  </text>
    </g>
</svg>