<svg  viewBox="178 198 180 180"  version="1.1" xmlns="http://www.w3.org/2000/svg" xmlns:xlink="http://www.w3.org/1999/xlink">
  <g>
  <path id="path-0707" d="M340.1315523696867,232.78269359785008L339.2367851722847,233.17309806143112L336.75358233025327,234.6607090340749L336.49812546132307,235.2053682477108L335.9192966444243,235.48933226458212L334.93447566826217,235.55550410062006L334.35355683933085,235.44980584704717L333.3176309818664,235.9476631640382L332.873469927883,236.30216809456306L333.16859013454086,237.16443806066582L332.81855338346213,237.74564159490728L333.0925666278854,238.4955631130788L332.7870417962986,239.9929412784686L333.07989562860894,240.4362035681488L332.30538453015834,240.6980494148138L331.7809837309069,241.06029424057397L331.7174324466687,241.50362877611497L331.036244678995,242.63340253294518L330.65893639980277,244.1844530618946L330.30716315788595,245.2887195319645L330.33139027664583,245.9089372584349L330.1327666849029,246.36190652722507L330.01500255675273,247.45958114336645L329.19053973908376,249.15668811011528L329.11990978217364,251.03430913683405L328.9368069185002,251.67287551349455L329.06728675721024,252.91144289121803L327.54421647048366,253.65271518920872L326.55107552359186,253.74260423093165L325.8217795923156,254.10527109823306L325.4689830819916,254.70024769748034L325.4824949023823,255.29799313774038L323.847388209153,257.44384254761553L323.9198240562582,258.3839640706683L322.76326220189367,259.77334748888916L322.22968174895504,260.52936772436897L321.369259878742,262.2843272326563L321.37079541769344,263.5037385946489L320.9353751645467,263.93413022846744L320.74896656135024,265.10847733181436L320.8862487900951,265.3820550478058L322.0325059546958,265.8732143660218L323.4008117337253,266.2972105336903L324.1339681351601,267.0269403369948L324.5519686345433,267.7363799698851L324.61139495825773,268.18228358849956L324.2833879640639,269.0566435312621L324.2990093693479,269.60116404569L323.48830802979865,270.65923336257856L322.27317204429346,271.60371439357095L321.8288253327373,272.193293943561L321.2669334636703,272.41411566538136L319.3035119234082,272.39756715247404L318.40898909340103,273.6715679220142L316.9287581873905,274.0291031556508L315.8697091637623,274.4089160488147L315.85253219462174,274.69410404125847L315.32406178857855,275.223194375204L313.5027471778776,275.9899463894599L312.987076235946,275.7704507793942L311.98715803794767,275.9111429814511L311.06021107576817,275.83311677994425L309.95977585740184,276.13449980868154L308.8859802542538,275.6912067404073L307.36916355922585,275.8275219445268L306.2273108374502,276.6115153266819L305.5502837757049,276.5723019841762L305.80801831018834,277.1246935837289L305.45689426562967,277.4191129171586L305.50272611698165,277.99438555095276L306.2630466807932,278.61719168266154L306.8231153543311,278.5890026740981L307.3804135595419,277.9200984154895L307.85927025060664,278.0110645099903L308.62795373327026,278.757989921588L309.2537334817789,278.80457747255423L309.59753701423324,279.2456745337231L309.24073172489807,279.5942389041611L309.23588987168114,280.50404196364434L309.06662342763957,280.93276608406813L309.3312005155676,281.2986267547467L310.19983200965726,281.8351540608619L310.41079511743374,282.2630209945237L310.18731515507534,283.31534633010506L310.7590427311952,283.9235701018324L311.41822268297983,283.80906177997804L312.13529769285014,283.9924988005632L312.3692212509741,284.53613715932715L312.45119813470956,285.67746904088017L311.68063995806733,286.1054161140628L311.7829949893021,286.64754085213826L313.07901794667487,287.19165277569846L313.8672416329391,287.3873601275591L314.273594716582,288.1586838327148L314.2218951807299,288.63724906697644L313.7727478804227,289.36468051510656L314.2345225836434,289.75656940646877L315.00581836415586,289.75402958278937L315.3595241063158,290.1366115700266L315.15757223366745,290.5892021308118L315.95594340019306,291.65231104979193L316.85541838048084,292.0396078827189L317.3517509527155,292.7377765940055L318.2193685890197,293.31847767856925L319.7233668765657,295.2309174959337L320.64397516267127,295.6872143847677L321.76915612417724,297.0979319829339L322.6952419209665,297.4507689033653L323.4398403606683,297.9714683392731L323.4168435537031,298.1116069409063L323.3405610572627,298.53202283938117L323.31129720918034,300.11867894800525L323.83248010452735,300.67780495300667L324.28520753734483,300.4633028726812L325.14610963735686,300.72531725604586L327.21289596848146,300.9630714327277L327.5325355540699,301.3189061013809L327.41181410010176,301.9487859267674L326.6939990667488,302.836436948769L326.24421620398425,302.76520999333843L325.5750176418296,303.26712149971627L325.79779130062525,303.68194592674354L325.97087082812504,304.7648024048631L326.28957979740517,305.2949643982429L328.0782059600315,305.98134604265033L328.2135347751755,307.57450781402986L329.0274184794398,308.321067478827L329.20894473310545,309.68767759838556L329.81278001560713,310.508259719777L330.53218399277466,310.80350431509487L331.1073510752103,311.5952690213526L331.0378483286586,313.7620697632756L330.8891343487994,314.3186472879879L331.2037330244093,315.81826405450283L331.59297657271236,316.8584188333889L332.20123442228214,317.5940899376301L331.5173395648744,318.6838574756839L331.56213067260614,319.31780763137976L331.1477707627746,320.3307107783903L330.70692885918834,320.98367604330906L330.3593881574052,321.17523081468426L329.2347857520799,321.2214483023017L328.23473267050576,323.05036229256984L327.69309115634314,323.1382296120464L326.6496559067491,323.62855115574075L325.53215546627325,324.45532468808506L325.06923827140054,324.5227885468248L323.158390251916,323.7349236854243L322.4486399284724,323.90039820895163L322.58299409830215,324.6442877746931L321.7767794493702,325.43433832999835L322.1716218079964,326.3483848395863L321.5787783515225,326.73764896859575L320.6075640674135,326.63095429568966L318.96492706486606,325.8791961601846L317.19969052948,325.9117839808132L315.5173503426122,325.4102404903406L314.71382674426786,325.3018930756798L313.63109579308,325.3179527369957L312.03095530555584,324.69944585325356L311.01500159590796,323.8018996379151L310.12075291197107,323.6740979688211L309.7364097583377,324.4587719235751L308.8975233506171,325.2833500501947L307.84392998025214,325.9027834186845L306.0297455713917,326.74232391638L305.70422412272455,327.4098589117684L304.99000925054133,328.40501510786453L304.2045600671481,329.1144837528491L303.7894688050328,329.2604585166846L303.1093263625844,329.0044623093063L302.5852229607917,328.5477678660136L301.3386496604944,328.1086302521144L300.6260020021109,328.1423005622337L299.39723498277453,328.67265800934547L298.58629915312486,329.49362337179264L298.0757973697764,330.18079195307746L296.89172191918624,331.0584775715879L295.87117808171024,331.5855582480399L295.59105820534023,332.16968343200097L294.13032686724546,332.0014356529564L292.98317816448616,331.60560459023327L292.324133620823,331.73958174228846L290.28717105577743,332.72081910357065L289.5842920841751,332.805563026448L288.0248211350845,332.2825870719498L286.20573894117115,331.4350692558655L284.5090342195472,331.1179730598951L283.27242819605453,331.29299230799734L282.6856300258951,331.55413208199116L282.0753768545983,332.0697210266326L281.70565885227916,332.8894360873237L280.9894531399841,333.7640716246551L280.38480714573234,333.82697771223684L280.2714398995777,333.2927677129119L279.7181427394571,332.09126232787366L279.44508445047177,331.8086890742161L278.8313202649879,331.8887235905777L278.702995896394,332.5554443000501L277.9498813541941,332.4671062073721L277.8653949565196,331.7248530828683L277.33744166215547,331.62464682980317L277.7452585114261,332.5742351599365L277.5523170630986,333.05101634416405L276.8591379194695,333.11064939224707L276.54487149771376,332.88281691270913L276.1692571766034,332.16570518497883L275.4918465037954,331.83855734035933L274.4353065289142,331.7911090977768L273.952387611982,330.64385604849394L274.6209100805827,329.309043053614L274.68120541733515,328.28586208517936L274.8971827354071,327.5711918403513L274.6977947624291,326.78801350622325L274.1418938019415,326.035443296566L273.5725123120101,325.76537498135804L272.27952418040877,325.48966036001184L270.9079407200734,325.6829054257487L270.57507313366295,325.52013643809914L269.91083773505306,324.23395149991757L269.1360049091527,323.86847587011925L268.4431341789568,323.75395747531275L267.34761500568493,324.3910064956235L266.482842882142,325.75794083412075L265.8512724426473,326.5390865349855L265.72749321191804,327.17215933678654L265.3437281392835,327.7405915310401L264.42439643164107,328.42051326280125L264.38290625451555,328.60418995205237L264.9856458333925,329.4586095066061L264.89250740854914,329.9587954163853L264.26001278777403,330.4792010603205L263.2718702328202,331.82489566973436L263.38912172444907,332.4532842970966L262.8112935618665,332.7367745922338L262.6953456778865,333.25411616771635L262.0051219429042,333.6940356665973L260.97092254925883,333.91809662050036L260.0084329655765,333.7128122605309L260.0955428766647,332.70176690576136L259.6677214471456,332.0357160632175L258.6927642145165,332.2040889459822L258.6373894265598,331.29531468144523L257.6780243607318,331.0476153716172L258.5025751046669,328.83070572265115L258.4080272968822,328.33857218804405L257.2694662980175,327.7336428116996L257.78952982380724,325.9962486725499L257.0698156085855,324.9013982584929L256.1487392916424,323.9299256376389L254.77443805524308,323.3708776477306L253.60392831098943,323.169546474197L253.1294323611728,322.511979229821L252.62578624884554,322.14213018071314L251.664464016907,322.17300280576274L251.13500862945511,322.04396521307353L249.9166245466331,322.1178106235293L248.24555238121684,321.4877906468255L247.88931825862892,321.1885771640309L248.05687620934623,320.50360480471227L247.9113196674225,319.70976462660565L248.50845933343953,318.94440835088335L248.4347886761825,318.5802228417788L247.7388696168964,318.1907584332166L246.20200305316757,318.33957458633995L245.265805111394,317.59215028244216L244.32878507524583,317.04255397646375L243.0811429434325,316.57564012474813L241.12918153835562,316.64152568118334L240.2810534927048,316.53873918322006L239.65771308041803,316.7524584519206L239.2366222799319,317.3530370377248L238.8601879134003,316.9514056771941L238.27861705950636,316.68402982419866L235.53602845515707,316.8364595845014L234.91462821430832,316.5482352932959L233.85819463471125,316.3723515800475L233.0223689101731,315.70422226845494L231.1390681945777,315.864380271194L230.80307268402612,315.5233333979195L230.0423573408625,315.57690592927975L229.65665654633267,315.2276743336861L229.73583442504605,314.80359197791313L229.0626306255217,314.4242878911782L228.38753422009177,314.9870682030278L228.002998428743,314.7330840940276L226.95765988324638,314.63947295277467L225.86151249582326,314.0513060177964L225.23765475750406,314.0607166503505L224.75484404840972,313.7411022629276L223.68071220170168,313.4059497546805L223.1541472227873,312.97074007341325L222.48455769140492,312.7190324045732L220.51611893326117,311.12202383726617L219.87337977263087,309.73293354123143L219.06164923767938,309.0729622050885L218.8067849519066,308.6317015316372L218.20861072849948,308.1435519036195L218.02735415515053,307.5130941703228L217.725156929042,307.36549130848107L216.48567395820282,306.10953836576664L215.7119878052472,306.373521387095L215.2251188791488,306.93409402154066L215.26125162191238,307.6035319393759L214.46995999264982,308.4458189977895L213.71293522816268,308.3181506008532L213.3108062666688,308.5620648648237L212.4077108018173,308.4822114071303L211.67455835042347,307.1072605345162L211.37980306881582,307.0256137588549L210.81032480030262,307.46540977751647L210.3768282134406,307.2250098497707L209.6871486042255,306.13419092911136L209.10588399623884,306.40458454646614L208.5752810470367,306.4189593174069L208.22334280013092,305.71242744547817L207.45361631716878,305.704116202578L207.33476929911922,305.1199285200355L206.43558247173132,304.96115757935695L205.8989662260865,305.42242445158263L204.6905726865516,304.16053166730126L204.87832358245942,303.1084910756663L204.4030493316277,302.8385297578807L204.22528692705964,302.4401159993704L202.58883759987657,301.93031832155793L201.01070893831638,301.2680562958885L200.31261175211694,300.86510296790493L198.75819055258762,299.650066979043L198.2675901011462,299.50770230208855L198.29964713246954,299.09885477743774L197.64715326313308,297.6727074733544L197.45499143401685,296.9760231521459L197.17132726027558,296.7284372543909L197.23920339634788,295.9771312962039L197.7324411848531,296.06963983138394L198.51369007244284,295.8149244823944L199.95838318756432,295.6179989626007L201.14082288282953,294.8267404319822L201.90489123896623,294.64590972711903L202.26727064800798,294.2989284633677L203.83795063024445,293.6153868455085L204.27342024665995,293.7199237685263L205.12751776770529,293.18482271875746L205.94656905468946,293.1001182279897L206.56834586042896,291.54760368990355L207.08149721418158,290.725046100134L206.4289437053485,289.8105023393946L205.48116009796286,289.58352995806126L205.82685466582552,289.00324668073335L205.6371283877088,288.33188953705394L205.7325531495626,287.82466846775696L206.06051617892444,287.5501379472116L206.64408478512632,287.54289255124786L207.677512396589,287.3032188573243L207.87911464838544,286.97002608766616L210.65616366020913,287.00580463653023L211.30450447381008,286.7386572773348L211.47797411138527,286.0251378612047L211.78029679491738,285.5563920753966L211.19949117341093,284.9066733584905L211.40819443571672,283.618759794138L211.91169352677025,283.26365911216635L212.16838133384226,282.67442041563754L212.84492367774146,282.01848980934756L214.276470073346,282.0391452926988L214.9503039862284,281.21723515395115L215.40443916196818,281.0518182622109L216.57519979780045,280.04439943685156L217.38466856299783,279.70806036326667L218.1884725716991,280.46126323474437L219.45817679550964,280.72923940983947L220.5349771033907,280.43375604110133L221.47965845443468,280.4009219259424L222.35083437294452,280.1822478869435L223.0167155114541,280.34797572212665L224.24967619737072,279.8266023500564L226.58598475158578,279.25266690555964L227.76949139801582,279.2057591658295L228.36334389045442,279.3190476390955L228.99443193845218,278.8403806713477L229.25314513936246,278.00955967720347L229.67925870379622,277.64030807607105L230.6617362182842,277.38548187673223L232.16711323781783,277.62074079699596L233.34811381632244,278.21575237363504L234.2829441151698,278.05637716879664L234.70334810356871,276.8213611946803L235.72208074738592,277.26545350469496L236.0532971628527,275.7127531078977L236.21399285993175,273.15979394306123L235.9505080319177,272.5582363146823L235.16498425183818,271.97884642568533L235.6760893994142,270.962912093215L236.43933575075062,270.150579653422L236.23171070078388,269.4863934228033L236.22599077512496,268.8198099772635L237.00987166335835,268.193507514301L238.14587365904663,267.857529603677L238.93355137557955,267.77382652627057L239.3498655876101,267.97171693667406L239.841813949708,267.8051359839219L241.05788383867548,266.8738197431039L241.46680734612528,266.8280579942302L242.1079853213596,266.1924219481716L242.4315408135626,266.1024063574696L243.18084138750783,265.44899124053427L243.07519953561132,264.93692913324867L243.60195986154577,264.9026930239088L243.67851391371732,264.5352992865546L244.35035496053752,264.3093758259256L245.38920748450255,263.23109112533984L246.37477905771084,261.8955847854904L246.60558336345275,261.1489580635125L247.06323326218262,260.8155591445893L245.71851003242045,259.63086778535853L245.32832088918076,259.4811961092546L244.23395437788713,259.41538885571936L244.16548810831955,258.7923981753902L244.68356269814103,257.91238084534325L244.6380951956089,257.26833802797773L244.20142578048763,256.5913558230932L243.49201129793073,256.5858852178344L243.13823394737483,255.94294213092962L242.59296851180625,256.1242167592827L241.81207396426908,255.68967341786083L241.8240663887591,255.21400415380594L242.83842977298264,254.02678052220926L242.9007081224663,253.49240626501978L243.74940447457266,253.6191938926877L244.74318110572494,253.52791171004628L245.22868889800884,253.31408591504805L246.04486923075092,252.23087930628208L246.94369858436403,252.04559553647505L247.31259253267854,252.15140492179216L248.8044648407522,253.05020313300884L248.97691159032183,253.5133418067635L249.5278323797429,253.34976363663736L250.35104303893604,253.64380286885898L250.47091890649972,252.58828621991142L250.27663966725595,252.31856512740887L250.26029676387043,251.48596173736496L250.63171054286795,250.97208076510378L251.22543228033464,250.53499028802798L250.2126374716172,250.0053918338208L250.19474477534095,249.54392889462451L249.7620275772024,248.97819951297242L248.69378059988958,248.6167460045317L247.80853090786695,247.76273633142682L247.5804332340631,246.89341662968764L248.3427478256599,246.2015370916297L248.03467734240257,245.11455629021202L247.2292890574754,244.28289632492124L247.157756160821,243.934838086313L247.4116422678453,243.2863539164964L248.07596415244916,243.24510779670072L248.27443547394796,242.56890243658472L247.98584301217488,241.26260871998784L248.18038823694587,240.41988270919774L248.86264897890578,240.35176683412374L248.89398014338076,241.07541716410196L249.55352147427402,241.56701571649774L250.1227050295456,241.33064877106244L250.16355082110385,240.62785997759056L250.67066329177396,240.35841425467333L250.90843938890612,239.88919575729415L251.71947053666008,239.9708630152445L253.32128470540556,239.58783721796408L254.4956640515229,239.84282594602064L255.46054231471862,239.71533919620197L256.6876293524874,239.91712937937427L258.1866110573428,239.57163557908098L258.902294323605,239.8802202670131L259.5721239566519,239.9300679555572L260.107213868454,239.6426682487654L260.8929181027779,238.84561028063672L262.0172866487119,238.6087492644865L262.86215081092087,237.69641946733736L263.59286988074746,236.6714447431832L264.14934898185675,236.38603358940145L265.3133630808261,237.33494886390326L266.2474295449938,237.6346689734646L267.37563978234175,237.3667442155256L267.90427410813936,236.93984220895072L269.04771752587476,235.0043019161085L269.4190268090788,233.0788778829292L269.3290934777033,232.66486373247426L268.80176748440135,232.02618473563962L268.0295024348634,231.47666802970434L267.6543661242031,231.03317676640745L267.75034629468064,230.58966603587214L268.7629395557742,230.38002767623675L269.7170705935532,229.93366493141275L269.77837160186755,229.20989169130553L270.1342092690502,229.26128565280123L271.08950666110104,229.8111653279775L272.27753218627913,229.79390025373232L272.96760711946627,229.3928239594661L273.1989162022837,228.91647549527715L273.8053789849873,228.29622285936512L275.0520776446392,227.3589937306915L275.7413185028963,227.24462041231072L276.53691590080416,226.67116380949574L277.38374849769025,225.35784755671102L277.8869398868337,225.23194947808497L278.53328029260956,224.27873610349434L279.6460937850061,223.96393185391844L279.83459504960774,223.34361685660042L279.846152899092,222.77861257195855L280.48958325444255,222.56332350911543L280.81376437574,222.6783334100537L280.74974437994024,223.41723262119376L281.4060269959882,224.8251684597517L281.5021866243442,225.41843444717597L281.8048600607435,225.7293107436726L283.17690227113053,226.33257235713245L283.80102475433887,226.80345760495402L284.11121739670125,227.7584853581975L284.5860840859168,227.92133355114493L285.01688107331574,228.53202126088763L284.7636767996373,229.4946597369426L284.9395900250274,230.13576493482196L285.2748565885486,230.56875781596045L285.78551681977115,232.13020092789247L286.5637364615104,232.78762856270805L287.00470671216317,232.55253490264113L288.2084746811015,232.21850407341844L288.79360100324266,232.33106182741994L289.74456857963014,232.02307842870778L290.2218445517574,232.25341158198626L291.3333680169235,232.46158892923813L293.5080653197256,232.21980317188627L295.3267137554576,231.43080899531378L296.26084237602845,231.39453811708245L296.85232218811143,231.20012563059208L297.59079987086443,230.58230651581198L298.590078919864,230.26337711553697L299.7727351855283,229.53133654486646L300.3858661799786,228.82276333865684L301.5285705044698,228.02390121888584L302.7385752244991,227.6875296189437L303.21039655808636,227.766698045034L304.5119674168491,227.58717240402348L304.88037406972217,227.67513630405028L305.26961604167445,228.62356067598012L306.18272111872284,229.4187706380526L307.24649087115904,229.81994639570894L309.3180614209814,229.81471103193508L309.9305075932607,229.4159491231303L311.2743755803931,230.39215080617123L312.47452922433877,230.74084398359355L312.9920018773446,231.1083112850647L313.5526258769278,231.128111240816L314.4851788586748,230.71397573074591L315.4978432376811,230.70864565543798L316.2938060202832,230.95180060524126L317.2928195666427,230.12758598903565L317.8221863896033,230.62992841491723L318.2950912899214,230.78210182032308L320.4073542095466,230.62189927660074L321.5770163364723,231.122826400323L322.6257125342381,231.3775728355822L323.14656393530095,232.34197383988067L323.8970408454006,232.4793288955325L324.91421682917644,232.85818156347705L325.50768155807236,233.24057087685014L326.2070410889901,233.06589640584298L326.673659281405,232.6629557040378L326.7257054143374,231.88703990135764L327.556342414744,231.3032866653075L328.19571904140685,231.37862404394127L329.0440834503934,231.87074759372263L329.6592644956254,232.3978072436703L329.6340833930044,232.9740277207593L329.85700851165893,233.54414320894466L330.865017965858,234.28114812405965L331.3918617030031,233.57654002108757L332.26206776754407,233.62147369224022L333.4041156492058,233.20818773479732L334.25222981154366,233.2990407062207L334.61823168920455,233.5836960430397L335.1353713704848,233.45491585854597L335.6306254928604,232.77186059718406L336.46074305212096,231.0695853925654L336.64145411789286,229.80208813338322L337.4343841587106,229.90664715291314L339.54165971572365,230.8275574139625L339.9691257824634,231.25592198074446L339.8712839303262,232.00295297555112L339.5550662569294,232.39513583924963Z" fill="#FF7B46"></path>
     <text x="272" y="285" font-size= "5" font-weight="500">
    डोटी  </text>
    </g>
</svg>