<svg  viewBox="160 268 220 220"  version="1.1" xmlns="http://www.w3.org/2000/svg" xmlns:xlink="http://www.w3.org/1999/xlink">
  <g>
  <path id="path-0708" d="M295.59105820534023,332.16968343200097L296.7269318863109,333.0622899896516L297.6164900706208,333.4377759427398L299.0908012579239,334.2425584083003L300.0150317708212,334.47939383190624L301.04145637124384,334.51849464700354L301.62279756658245,334.79202632136366L302.5782067957007,335.5285726167049L303.8806558155957,336.0488458375921L304.36879693574156,336.3526847141011L304.7298375286555,336.86993918033295L305.308406609598,338.0548300763012L306.2724340458335,338.80762517502444L306.51463037282156,339.7614774165995L307.0551146158032,340.8848638045529L308.470921330696,343.00675529875934L309.36410549963693,343.39140066068376L309.96644952274073,344.0294162378459L310.84735464413825,345.56421629572014L312.1718860915498,346.2782719804445L312.96167496959606,346.2039040050995L314.14109917768656,345.4845943683058L315.02471082241755,345.40105221362137L315.6977824231035,345.9444823091053L315.30791315342503,347.1774286762684L315.27813293531653,347.81718401242233L315.8656620803995,348.40795484611317L316.8550575335794,348.4055882286748L318.9975513940735,348.6008050896626L319.23573208886955,348.8715269660488L319.75435511175965,350.08012235634305L320.8580348539872,351.2539937182528L321.7303025703295,352.41551559726395L322.1497930562655,352.4080149628153L322.78177238900753,351.8126827982005L324.0164677904613,351.43616881483194L326.8669879382287,351.09340394541687L327.1357483653155,350.8055067380337L327.3089815491003,349.709751969247L327.18482600233983,348.8315414801109L327.6368414929202,348.0906073239357L328.97453090974886,346.7977268154582L330.13220523856216,346.35985757906656L330.96181369703845,346.52970966686644L331.08570311752555,346.85216971284444L331.10318554089827,348.69239521026157L331.99296173631956,350.8016839578222L332.55993027546356,351.59008015419386L333.7304094909523,352.3752622065058L333.83565629754594,352.71041315406546L332.8432532795814,354.9431282350488L332.7450967225341,355.5021946691895L333.55788094299714,356.0183746252569L335.0345961628518,354.8929331095933L335.69179836864714,354.6036374135356L337.39142119268945,354.63656010556133L337.72914838824,354.9563927320023L338.25216782526695,356.1267402703179L339.0511008365429,356.78663053340915L340.17953993536867,357.21257835660526L342.04506015409424,357.6088601770098L343.22668802405315,358.43937938083127L344.08945277598104,358.4182082891766L344.6373291000127,357.3753759833289L344.1069248830172,356.3299191678925L343.4177687002484,355.87421444475603L342.1946516350363,355.28342465522474L341.9547805088332,355.05743126424477L342.2338223922088,353.915038960914L342.64055470624226,353.0570617756375L342.99522252330644,351.05474827702164L342.7042893435828,349.7635389758643L342.7248434840585,349.16824158569216L343.04456338923046,348.6451742789923L343.5058005443607,348.42316316011056L343.9964408140877,348.4937402025398L344.69052447605645,349.13018515831027L344.7871321686689,349.81942976765004L344.2894514747568,350.24354473150015L344.1331198797343,350.7531616591259L344.26128647748556,351.198279928738L345.3225280391125,352.47800642415496L345.9688919065884,352.9092909626479L347.0494765616422,353.1688808541285L348.25863240344916,353.79500979084696L348.70223110689767,354.59034818303826L349.5829555068631,354.98254306054514L350.29921659643514,355.8325641394513L349.6617004364962,356.21289951435574L349.4072413424292,356.5782528641739L349.36311082382963,358.26895148937456L349.7081071906068,358.83897118492405L350.6912049583734,359.24017540379646L351.83702643892684,359.52448282551086L352.14327389490063,359.96409234952534L351.45290661648687,361.55105520159213L349.3193027087691,362.29019798381614L348.6459649813987,362.8531412288221L348.6019757135873,363.26232742541833L349.0045015978503,364.11424668457494L350.1349010781669,365.27853887149286L350.9500907506954,365.62376026157017L351.7631660431325,365.7331357519779L352.885759998102,366.1121769209158L353.2239604789065,366.41511123216515L353.60467804710424,367.2821973356122L353.9766767396104,368.5912646723882L353.64411387944347,369.69585641658705L353.17190093995305,370.51204197624793L354.043646598966,371.99394210243463L354.906350118541,372.35745475800286L355.8862591716388,373.00348856746405L356.22004598659623,373.9315797440504L356.1074153675436,374.6028870436621L355.68488282715407,375.5583444917147L355.19859870161235,376.3075593222593L355.1421330101912,377.37262797743733L356.14637378208135,377.60457815412246L357.5918690042781,377.576621333008L358.2526626511135,377.662917471358L358.63979672893765,377.9371957357971L358.8395882265977,378.556870560501L358.8536417720461,380.02253280010973L358.2246504235882,381.33210007941216L357.50399851437396,382.506211346843L357.39152650237156,382.9509133641577L357.66580283321673,383.2474220219292L358.50485466614555,383.41464926564186L359.07152151201444,383.94520072652176L359.95404417596365,384.2620229101158L360.3882606258776,384.6443470416534L360.685096173911,385.33847340309694L360.6724158634461,385.9357461441259L361.26436017291417,387.62337931891943L361.4667045104543,389.64133983049305L361.48849753219474,390.34173387408555L361.9208504529852,391.7594559263989L362.048326897926,393.8436848586216L361.976017382327,394.82079866176264L361.678395137209,395.66314815978967L360.67408629679994,397.06515377482174L359.6893833963186,397.7976526022121L358.29932321506203,399.0998290581083L358.27612143716397,399.9456791983721L358.0588003369594,401.21653351370605L357.8851503223159,401.6459750959202L356.02326644056666,402.7519664797537L355.35262712086114,403.70696721199147L354.597763701182,405.0837777647739L353.52444856391594,406.78044291749575L352.5998820812565,407.5455199638218L351.74457476542375,408.5999241680438L349.8603130996089,410.49406243255726L349.2917395369259,410.84865037988857L348.5146107391629,411.5960560399344L347.112749357093,412.6662831191943L345.3847043105343,413.6300778510067L343.98765584817374,414.4943590237772L342.55447659146375,415.66293230021074L340.67256464344246,417.3022426163916L339.6369703168275,418.31522178187515L337.8259962012089,420.3162284571845L335.94512841437245,422.1131166541845L335.9025105151486,422.83786468642757L335.1684999249446,423.6911785886696L334.93504067119284,424.25499578954987L334.7453239093702,425.8787123764241L334.36961467790024,426.84531770056856L333.76299332046983,426.92517634623255L332.76730362341914,426.7535943753619L331.5844163903421,427.54398826857505L331.69915957979174,427.82592779031165L331.40853681635053,428.1499085115447L330.5334787892316,428.4723000827762L329.72087359903526,429.0067520334442L327.827115873406,431.0102626704629L326.28730063874536,432.12484102879716L325.90512853401015,432.4981243390994L324.5547503246635,433.09867454024334L323.9328926682756,433.8527347093841L323.61371377248724,435.235641628542L323.0329508730647,435.61174155100525L322.10227346768806,435.80931073725696L320.8549104461672,435.9466100095242L320.26178809563135,435.8499762896836L319.44402788902516,436.35686870408335L319.04677492181145,436.9739535393828L319.0001363270894,437.54242255815643L319.032382777008,437.9849446040598L318.6585144557175,439.0220791243719L318.6682566639247,439.1095065460049L318.5248462802447,439.70868871232324L318.0936556618144,440.72674737791385L316.2071206084074,441.78939029966205L315.4383370653122,442.42585399011386L315.2530067180305,442.5610429293847L314.5444947069518,443.21367360430577L314.49420947651015,443.3215989470582L313.89639034215725,443.9342486101259L313.42178647521723,445.01927878024435L313.36333053594717,445.17455742974107L312.9801194392785,445.72384583816074L312.5098608339722,446.9661562486681L312.5578784430181,447.1874304151079L312.66095718478755,447.3129963053334L313.66907639220517,448.1095594011749L314.0552392723803,448.56690539195915L314.32383038043554,449.52529035216685L314.28183066562633,450.0000000000009L309.65211734986224,446.6319457519621L307.2457867062949,445.9044815564839L306.7038688378234,449.06779058960365L304.2555297834151,446.55931872387737L303.33140563221605,445.38407776114855L307.0167734571769,442.7522357299722L306.11008370015406,440.4511248371582L303.864498178722,441.9384220748334L302.7186622506524,440.7592468173516L302.5440388590796,440.39391225884265L303.486053182296,437.6188811765933L299.64263156710877,437.10629656636866L297.36390554165337,439.78140182394236L294.9113554402793,439.5985405447509L295.1804597323535,441.36117221546374L292.17512318756417,440.61795346645613L292.79689427913036,439.51398031193366L292.09575240282356,439.1146391267239L295.3406109698699,436.83507006649415L292.5719549865644,436.45952574803687L291.92941140662515,438.0626424663442L289.25897470709606,438.5069431433494L289.25322481954936,436.7867773230637L287.73755700064066,436.94950160818644L285.05401734335464,436.0911158649842L287.85233786796016,434.4820331848732L287.267245374318,433.9811653153083L285.06709843377394,435.14702819901777L284.6777956799706,436.3242741241829L281.8639789732297,435.86381918505595L282.29210104953745,434.9961544825419L281.1666591297908,434.1802185926681L281.44312894239556,436.3187803722831L280.3771882657602,435.57365706558176L279.2933851548041,434.556063673308L278.7177045185963,432.0636419163011L278.37846512114993,430.2123389965536L279.5385558023336,429.3919914649805L279.9210043873136,427.67401276603687L278.0038403639701,427.0414111755963L277.21338298669434,425.9255225302668L274.9794309022327,425.5932387932371L272.82582345963965,425.03590460538817L269.73544846002915,426.2515937675262L270.59754633413104,429.40825548633256L268.37616923839596,427.77488156325853L266.03651332144364,428.1427904352822L265.83232046356716,427.2101649806118L264.2776949310901,425.99050099355827L262.8996596387806,424.6070739739471L259.75529562522934,422.67663093513966L256.3539923488788,422.5764325394248L254.02461531235167,421.8742266389563L253.06029901049624,420.8100498026979L254.08145667394638,417.96254106180004L254.08210227660675,417.7207827146103L252.66457341609203,417.02021630612853L249.80961322523217,416.388532490384L249.48555587641022,412.9580954215662L245.52671065188042,411.8242241773005L243.07090563138263,411.08259488918793L243.11410459138278,412.8910397266973L240.12597342517256,410.99757084492376L239.9392071022885,411.00869434946344L237.9229361295329,412.45313993033324L235.6042755746821,410.09672458074056L232.6509153307561,408.29820515060965L233.8060118797148,404.75376449841224L229.86181996056985,404.55970485365924L230.3310426421085,401.07049996593105L229.19845641728898,400.1545407437816L228.42583563756853,399.36472604544815L227.7442580476236,396.4316510164308L224.19890118512922,398.1582316343829L222.09425979578373,396.1330020259329L220.31062956726964,397.42173371324407L215.6126986830168,396.9928382527605L214.46034427088307,394.16402715162167L210.88189806573064,395.1660500955886L212.5862683849009,393.3861452133251L208.81801898223057,392.233763010634L211.03124451203985,388.240293795875L206.32688052574667,386.4698827437778L203.19468735938426,385.85731912480696L202.33949975136056,385.05773716399926L201.98962624545675,384.8865122775742L200.73602170922823,384.6777810072308L200.9512231946901,383.6275255179062L200.24951328737006,383.20646949420006L200.55063805331156,382.23698397330645L199.88435628718435,381.5540509275652L199.7113262233106,380.9734759952844L199.83257669282102,380.38847338804317L200.1193468368656,380.264418146161L200.70239307164957,380.5759815112033L201.521634247576,381.36733795741475L202.1738742565758,381.2557524959848L202.35837671796253,380.95478700998683L202.1884107991973,379.9282939381201L202.46344669828977,379.5015032084275L202.9710194109939,379.2107080039377L204.1462859777057,379.0569177927273L204.30984723447182,378.8551642298362L203.49683331112828,378.3201237114281L202.5579289322377,376.6500290714439L202.0836829048967,376.39033643382663L201.0692460884784,376.42938120961935L200.0574401525737,375.9971806530866L199.7221454167484,375.4772197582024L200.08284743408876,375.12435308352815L200.90524134813677,375.0761511836681L202.29102185021475,374.3281843262057L202.61403183771836,373.9422791143006L202.80535869365121,373.1460805189927L203.75622448975264,372.32100086528317L203.409107749565,371.9470637907216L202.39913568071643,372.86758109536004L201.76396770012798,372.8838647088305L201.18847146124608,372.627447431727L200.3425080851921,371.6652681643327L200.17567344495183,370.16065687953505L199.45213786330714,369.5072459064377L199.2021445068931,369.09542512739154L199.2883564644908,368.59844576609794L199.787623458069,368.37647513512275L200.60213290775573,368.5163195412606L201.97581241377338,368.2474857863135L202.32426925787877,367.7984787922642L202.33424125060264,367.0043524209841L202.13118013623534,366.6250694793698L201.28451383558786,365.69997456457895L201.10871113765097,365.1716776270341L200.3445398361073,364.84558583036505L199.79910051544357,364.3112050850759L199.71725817391052,363.05295112253316L199.19512729798953,363.2705925937016L198.20173583072028,362.93949765172783L198.25984742508808,362.38888779762055L197.7793310250927,361.70830674185436L195.77698473658165,359.84196648867146L195.23462598484548,359.9186175068453L194.40439188581513,359.5128243534591L193.84934641928703,358.9356229403129L194.0384722313902,358.40944576357106L194.59800926382377,358.11294053551956L195.34922581348656,357.95251248038676L195.00416175879218,357.33741248191745L194.56260007281526,356.97907606503304L195.46684122513398,355.89850640904206L195.38780866650268,355.23702416784727L194.6315607589895,354.61511027655433L193.9871650774221,355.43350256980466L193.41650139910053,355.34962668125627L193.00766637599736,355.0077823064303L193.140187787787,354.51453657019556L192.6759126344332,354.2554526746644L192.6691022708801,353.91214228051194L193.18667412184732,353.7105062571545L192.763334586798,353.26959923168033L192.21230384648152,353.3468321169448L191.95077898971795,352.61913882538283L192.12872734805933,351.92646804619926L191.51923221379548,351.6147021203251L191.31267262798428,350.71736206853984L190.83235284553666,350.4988938604183L190.84746673891277,349.7638372185056L191.2448346530182,349.58264568710183L191.11577551537266,349.13187214304344L191.39781813470836,348.6297492888898L192.00336612352476,348.28321151876116L191.94643628741687,347.39703150150854L191.65611262833772,346.94099693932185L192.63599404902925,345.0107753496386L192.34791544741165,344.50736054298795L192.25445126137492,343.2149990560247L192.96992162503375,342.00756587737396L193.1495058366636,341.24505597905045L192.9559124302432,340.7027157442826L192.360701613321,340.24826782888795L192.08062150861952,339.0635491336752L192.20713810150482,337.8333800355849L193.8058116063221,336.3917274791247L193.71969161317247,335.8416741630781L192.66491307627803,335.0856327478032L190.50539832652794,335.5990888571032L190.18675149868068,335.5494936419582L189.42754149182292,334.9697377165303L188.82779638355714,335.2469638929588L188.78080280334325,334.75048683413297L187.8480491731607,333.62446690988963L187.48226587340832,332.5895611772148L186.33866470064459,332.3493185343177L185.96365129254264,331.9644906634521L184.56252144767495,332.1965921440751L185.3306472192853,331.053734621265L185.527264053213,330.2754898006997L187.08308477995524,328.404385283131L187.48651806589623,327.6434151155472L187.60539142372,326.4528334446377L187.91164176201346,325.3782512356729L188.94071922009607,323.7827484851905L189.265894709657,322.59626377660607L189.1917335437356,322.0007513317114L188.75211380726614,321.2405896005557L187.9488321188037,320.1409506989776L188.35841971528498,319.297450693698L188.91922902561055,319.91357617025824L190.17456512893477,320.14518560356737L190.629647650454,319.9920805753309L191.76392927105917,320.35461618477257L192.4782578797167,319.68389739471695L193.98060078332128,319.6759644781969L195.57049329115762,319.0680794867667L195.47500502740513,318.1195562697967L197.10206539395222,316.90458978529387L197.90669165189684,316.6067963075575L198.31758535211702,316.23420313971656L199.13956832475378,315.88218331455846L199.27820171742133,315.20044496770515L198.75793712860468,314.49997629670906L198.64157497849737,313.62964018450293L198.89231535761428,313.3670165257463L198.8650270545004,312.4724345214736L199.314719720227,311.98007798489925L200.63186307522847,310.9539190588348L200.86931072906373,311.0844891247607L201.6063833910339,310.54529005515906L201.54127600710854,309.2821250732504L201.19169397072255,308.71191613104475L201.127072210631,308.21841584198137L202.0683527261026,307.85484038830964L202.69591864375616,307.07039388690737L203.8482029282859,306.3032722554408L204.2930746969687,305.5209250443204L204.6905726865516,304.16053166730126L205.8989662260865,305.42242445158263L206.43558247173132,304.96115757935695L207.33476929911922,305.1199285200355L207.45361631716878,305.704116202578L208.22334280013092,305.71242744547817L208.5752810470367,306.4189593174069L209.10588399623884,306.40458454646614L209.6871486042255,306.13419092911136L210.3768282134406,307.2250098497707L210.81032480030262,307.46540977751647L211.37980306881582,307.0256137588549L211.67455835042347,307.1072605345162L212.4077108018173,308.4822114071303L213.3108062666688,308.5620648648237L213.71293522816268,308.3181506008532L214.46995999264982,308.4458189977895L215.26125162191238,307.6035319393759L215.2251188791488,306.93409402154066L215.7119878052472,306.373521387095L216.48567395820282,306.10953836576664L217.725156929042,307.36549130848107L218.02735415515053,307.5130941703228L218.20861072849948,308.1435519036195L218.8067849519066,308.6317015316372L219.06164923767938,309.0729622050885L219.87337977263087,309.73293354123143L220.51611893326117,311.12202383726617L222.48455769140492,312.7190324045732L223.1541472227873,312.97074007341325L223.68071220170168,313.4059497546805L224.75484404840972,313.7411022629276L225.23765475750406,314.0607166503505L225.86151249582326,314.0513060177964L226.95765988324638,314.63947295277467L228.002998428743,314.7330840940276L228.38753422009177,314.9870682030278L229.0626306255217,314.4242878911782L229.73583442504605,314.80359197791313L229.65665654633267,315.2276743336861L230.0423573408625,315.57690592927975L230.80307268402612,315.5233333979195L231.1390681945777,315.864380271194L233.0223689101731,315.70422226845494L233.85819463471125,316.3723515800475L234.91462821430832,316.5482352932959L235.53602845515707,316.8364595845014L238.27861705950636,316.68402982419866L238.8601879134003,316.9514056771941L239.2366222799319,317.3530370377248L239.65771308041803,316.7524584519206L240.2810534927048,316.53873918322006L241.12918153835562,316.64152568118334L243.0811429434325,316.57564012474813L244.32878507524583,317.04255397646375L245.265805111394,317.59215028244216L246.20200305316757,318.33957458633995L247.7388696168964,318.1907584332166L248.4347886761825,318.5802228417788L248.50845933343953,318.94440835088335L247.9113196674225,319.70976462660565L248.05687620934623,320.50360480471227L247.88931825862892,321.1885771640309L248.24555238121684,321.4877906468255L249.9166245466331,322.1178106235293L251.13500862945511,322.04396521307353L251.664464016907,322.17300280576274L252.62578624884554,322.14213018071314L253.1294323611728,322.511979229821L253.60392831098943,323.169546474197L254.77443805524308,323.3708776477306L256.1487392916424,323.9299256376389L257.0698156085855,324.9013982584929L257.78952982380724,325.9962486725499L257.2694662980175,327.7336428116996L258.4080272968822,328.33857218804405L258.5025751046669,328.83070572265115L257.6780243607318,331.0476153716172L258.6373894265598,331.29531468144523L258.6927642145165,332.2040889459822L259.6677214471456,332.0357160632175L260.0955428766647,332.70176690576136L260.0084329655765,333.7128122605309L260.97092254925883,333.91809662050036L262.0051219429042,333.6940356665973L262.6953456778865,333.25411616771635L262.8112935618665,332.7367745922338L263.38912172444907,332.4532842970966L263.2718702328202,331.82489566973436L264.26001278777403,330.4792010603205L264.89250740854914,329.9587954163853L264.9856458333925,329.4586095066061L264.38290625451555,328.60418995205237L264.42439643164107,328.42051326280125L265.3437281392835,327.7405915310401L265.72749321191804,327.17215933678654L265.8512724426473,326.5390865349855L266.482842882142,325.75794083412075L267.34761500568493,324.3910064956235L268.4431341789568,323.75395747531275L269.1360049091527,323.86847587011925L269.91083773505306,324.23395149991757L270.57507313366295,325.52013643809914L270.9079407200734,325.6829054257487L272.27952418040877,325.48966036001184L273.5725123120101,325.76537498135804L274.1418938019415,326.035443296566L274.6977947624291,326.78801350622325L274.8971827354071,327.5711918403513L274.68120541733515,328.28586208517936L274.6209100805827,329.309043053614L273.952387611982,330.64385604849394L274.4353065289142,331.7911090977768L275.4918465037954,331.83855734035933L276.1692571766034,332.16570518497883L276.54487149771376,332.88281691270913L276.8591379194695,333.11064939224707L277.5523170630986,333.05101634416405L277.7452585114261,332.5742351599365L277.33744166215547,331.62464682980317L277.8653949565196,331.7248530828683L277.9498813541941,332.4671062073721L278.702995896394,332.5554443000501L278.8313202649879,331.8887235905777L279.44508445047177,331.8086890742161L279.7181427394571,332.09126232787366L280.2714398995777,333.2927677129119L280.38480714573234,333.82697771223684L280.9894531399841,333.7640716246551L281.70565885227916,332.8894360873237L282.0753768545983,332.0697210266326L282.6856300258951,331.55413208199116L283.27242819605453,331.29299230799734L284.5090342195472,331.1179730598951L286.20573894117115,331.4350692558655L288.0248211350845,332.2825870719498L289.5842920841751,332.805563026448L290.28717105577743,332.72081910357065L292.324133620823,331.73958174228846L292.98317816448616,331.60560459023327L294.13032686724546,332.0014356529564Z" fill="red" ></path>
  <text x="268" y="378" font-size= "5" font-weight="bold">
    कैलाली
  </text>
    </g>
</svg>