<svg  viewBox="80 284 140 140"  version="1.1" xmlns="http://www.w3.org/2000/svg" xmlns:xlink="http://www.w3.org/1999/xlink">
  <g>
  <path id="path-0709" d="M131.20928909163558,306.608665247094L131.63005562398394,306.891899773128L131.6856111691959,307.27834141719813L131.36286139041476,307.8633054762995L132.50639548069012,309.04775662244447L133.25282468128717,309.02930712056695L134.00039861349433,308.6700096160803L135.19909373022892,308.3321239202287L135.55825510690556,308.09665273675637L136.28570302250955,308.0617921984149L137.6010684151952,307.5367789789343L138.7939910654095,307.48376988991185L139.78887074387603,307.85088030791667L140.31717028031198,307.61358062898944L140.8362755170383,307.72402907631476L141.95344892493085,308.48610391282364L142.16093543675743,308.9699289009004L142.72320510316786,308.67288266215655L143.3484612060456,308.110847432883L144.34316193830819,308.2852304927583L144.50722791474254,307.4790749474614L145.0282475545937,307.15399612694L145.94243418724363,307.081751401789L146.76572692640548,306.56806813972344L147.76197947362016,306.47395880226304L148.42712386992935,306.24535692169866L149.36512600852438,306.4749003010884L149.8604976781462,306.3321990564082L150.386249636711,306.70306268057993L150.96990689933227,306.3045180627587L151.50022410920792,307.0645974860654L152.5136624875995,307.237694997616L153.55581518499093,307.79306741573873L154.42525611236852,307.35359272092865L155.89146708442786,307.60315339100725L156.89162277944706,307.0747343722387L158.08508935065402,307.2031824352289L158.40607588494822,307.20699390922255L159.36372473290976,307.61208192099184L159.6066539668609,307.9000132481224L159.9578962018022,308.23283406992414L159.8393790857881,308.84628882987363L159.93657467400772,309.1065947192337L160.20990156459447,309.28059399700305L160.2708219848755,309.26907968722116L160.43979409819804,309.0275089334418L160.48662991425226,308.9496327291654L160.74688337309635,308.83167967410736L161.25192573113964,308.5289381536704L161.67580217806608,308.70614211255634L162.30670900556288,308.73832117619986L162.8716242231094,308.9202452309755L163.037949540103,308.99270709478424L163.12134225068075,309.03286157097045L163.37078807995567,309.0409627380095L164.03769769900464,309.2282973582887L164.67522188821022,309.3718374260807L165.3420198176609,309.33603045139716L165.92582501973084,308.8811219937661L165.97846481916713,308.80910397968L166.34780022952327,308.5944815267385L167.10021116364078,308.69896062142834L167.81780920534948,309.47754611079563L168.05370793606198,310.05517059252725L168.8392823358081,310.42619343111346L169.42353461831954,310.88212965674575L170.0741416901983,311.05308026809234L170.91140395937327,311.03568484366406L172.00559431119473,311.9455422929732L173.098916607094,311.8430975175879L173.15815430579096,312.3707462567536L173.6867230542448,312.91442178382295L174.20217797913938,313.17980973519934L174.8564064904931,313.07297315035976L175.51637448355905,313.1736921431875L177.00240730378937,312.67462611738756L178.25632089504143,311.9177993511739L178.5914065568977,312.0497212097216L179.24527604377,311.4766048494621L180.08173902645285,311.3886667255356L180.54901552748925,311.52250817299955L181.2268360705275,311.2648176556713L181.77708371005065,311.29871588138303L182.26318355468175,310.86407569174025L182.90107210928545,310.9459889576083L182.99163869970653,312.0800689043217L183.6580640027314,312.4377936697583L184.56083358527394,312.4449669264086L184.8394583030422,313.1300013917198L184.64212329135626,313.8306004986089L184.9027650368953,314.31890311208554L184.7298199053912,314.84602701882704L185.1532889266091,314.91956812745957L185.98428471737134,314.73268900808944L186.7482667657605,315.0827819735696L186.62968080950304,315.6150734883022L186.21488048360334,316.1948976212607L186.06394776535308,316.7800491828566L186.41147205356538,317.2675389885517L186.06362617665218,317.84515701313285L185.62053064348584,318.02269611535394L185.6782044966967,318.90102886519435L185.34981504030657,319.599194270867L186.03754982757528,320.0497039307493L187.06787252384675,320.227347023676L187.46753334195455,319.6031599147891L188.35841971528498,319.297450693698L187.9488321188037,320.1409506989776L188.75211380726614,321.2405896005557L189.1917335437356,322.0007513317114L189.265894709657,322.59626377660607L188.94071922009607,323.7827484851905L187.91164176201346,325.3782512356729L187.60539142372,326.4528334446377L187.48651806589623,327.6434151155472L187.08308477995524,328.404385283131L185.527264053213,330.2754898006997L185.3306472192853,331.053734621265L184.56252144767495,332.1965921440751L185.96365129254264,331.9644906634521L186.33866470064459,332.3493185343177L187.48226587340832,332.5895611772148L187.8480491731607,333.62446690988963L188.78080280334325,334.75048683413297L188.82779638355714,335.2469638929588L189.42754149182292,334.9697377165303L190.18675149868068,335.5494936419582L190.50539832652794,335.5990888571032L192.66491307627803,335.0856327478032L193.71969161317247,335.8416741630781L193.8058116063221,336.3917274791247L192.20713810150482,337.8333800355849L192.08062150861952,339.0635491336752L192.360701613321,340.24826782888795L192.9559124302432,340.7027157442826L193.1495058366636,341.24505597905045L192.96992162503375,342.00756587737396L192.25445126137492,343.2149990560247L192.34791544741165,344.50736054298795L192.63599404902925,345.0107753496386L191.65611262833772,346.94099693932185L191.94643628741687,347.39703150150854L192.00336612352476,348.28321151876116L191.39781813470836,348.6297492888898L191.11577551537266,349.13187214304344L191.2448346530182,349.58264568710183L190.84746673891277,349.7638372185056L190.83235284553666,350.4988938604183L191.31267262798428,350.71736206853984L191.51923221379548,351.6147021203251L192.12872734805933,351.92646804619926L191.95077900308024,352.61913880794054L192.21230386064417,353.3468320994607L192.76333460193928,353.2695992142153L193.186674137949,353.710506239664L192.66910228613415,353.91214226299144L192.67591264985094,354.25545265711753L193.14018780416882,354.51453655264504L193.00766639235007,355.0077822888288L193.41650141634454,355.34962666364845L193.98716509572114,355.4335025522023L194.63156077808162,354.6151102590384L195.38780868720642,355.23702415030766L195.46684124626336,355.898506391457L194.5626001128294,356.9790760296373L195.0041618006835,357.33741244648354L195.3492258571314,357.9525124448819L194.59800930495476,358.11294049994467L194.03847227080405,358.4094457279243L193.84934645848625,358.9356229045752L194.40439192749545,359.5128243176623L195.2346260297927,359.91861747104394L195.77698478335515,359.84196645292013L197.77933108037178,361.70830670594205L198.25984748256815,362.3888877616373L198.2017358884732,362.9394976156591L199.19512735935132,363.2705925576429L199.71725823681845,363.05295108654536L199.79910054755965,364.31120506699517L200.3445398693475,364.845585812267L201.10871117227725,365.17167760893426L201.28451387070527,365.69997454645454L202.1311801731099,366.6250694611981L202.3342412879574,367.0043524027933L202.32426929555368,367.7984787740188L201.97581245107358,368.2474857680245L200.60213294295318,368.51631952290063L199.7876234918731,368.37647511673276L199.28835649757093,368.5984457476861L199.20214454003144,369.0954251089297L199.45213789704212,369.5072458879604L200.17567348013836,370.16065686103775L200.34250812128084,371.6652681457326L201.18847149908834,372.62744741309234L201.76396773899614,372.8838646901904L202.39913572058504,372.86758107674905L203.40910779065598,371.947063772217L203.7562245315239,372.3210008467722L202.80535873426925,373.14608050037805L202.61403187837277,373.9422790956269L202.29102189051628,374.3281843074874L200.90524138653927,375.07615116483885L200.08284747118523,375.1243530646634L199.7221454534083,375.4772197392949L200.05744018999394,375.99718063415185L201.06924612769944,376.4293811906946L202.0836829048967,376.39033643382663L202.5579289322377,376.6500290714439L203.49683331112828,378.3201237114281L204.30984723447182,378.8551642298362L204.1462859777057,379.0569177927273L202.9710194109939,379.2107080039377L202.46344669828977,379.5015032084275L202.1884107991973,379.9282939381201L202.35837671796253,380.95478700998683L202.1738742565758,381.2557524959848L201.521634247576,381.36733795741475L200.70239307164957,380.5759815112033L200.1193468368656,380.264418146161L199.83257669282102,380.38847338804317L199.7113262233106,380.9734759952844L199.88435628718435,381.5540509275652L200.55063805331156,382.23698397330645L200.24951328737006,383.20646949420006L200.9512231946901,383.6275255179062L200.73602170922823,384.6777810072308L201.98962624545675,384.8865122775742L202.33949975136056,385.05773716399926L203.19468735938426,385.85731912480696L202.3028189339857,385.6756695268323L200.08566550435353,385.87847601350677L195.0601976973412,388.7745079005781L192.7920039560231,390.13159600329436L192.22366062003857,391.38247086020783L193.71487992264156,399.06469479654606L193.91252998029813,400.3591796008568L194.66805037503946,402.0536027240096L195.37832370505566,405.9728142594022L195.86289438733002,409.0118005327522L196.1624070228754,410.5345130239257L197.00461976813676,411.29100391476186L197.95001420819972,410.9546361710436L198.07378707341923,411.63746762490337L196.91368513899215,414.37111326449576L196.39139546453225,415.71650470506484L195.7700216822268,415.39831224203135L195.2212968659005,415.88279600853275L194.80250685558713,414.8117801693352L193.79565496888245,413.6666974447626L193.0642664369443,412.61246190870406L192.5497020778639,412.2114136280816L191.41563963880253,412.05977519858516L190.50104215105603,410.9662387122553L189.0234533260009,409.89389611142633L187.938820011208,409.3822646469662L187.44738619698546,408.72628008015636L186.93716948898145,408.64228161028586L186.21144639114573,409.14665577906726L185.3147119985333,409.2590423250849L185.18049885984146,408.8371135259649L185.34474810059692,407.61550767153676L184.72064517329636,406.64995663748414L184.14072232135732,405.33652154437095L183.35070374839415,402.7824626532829L182.94994387643237,402.3376722231669L183.3387423539134,401.7769247467286L182.92026530439034,400.8189207514424L181.9910263145939,400.3928478899834L181.47674139069568,399.68236688431807L180.98884288487534,399.3029113593211L180.4864998548619,399.2072639120588L179.4170969728293,399.3713351101105L178.92101755730982,399.258112790154L178.4580921325578,398.79508536686717L178.05002005297138,397.9167293143464L176.8278254092038,397.43146845450883L175.50607777076584,397.3501043372271L175.00801313803458,397.46747849115127L174.20367723772506,397.3195025910354L173.80195955699674,397.0521242496243L172.99819367098098,397.02189540239124L170.81188365845446,397.9534801405316L167.00585301547835,398.8700392507726L166.22768419100976,398.86477196303895L165.32056102901333,399.065248997249L164.69666692100873,399.36799201613485L164.13556377946952,399.0003620960406L163.48759703074757,398.9916432415048L163.5194365217758,398.49531390083484L162.79642916484954,397.8715999035321L161.61634468704506,397.92303939942576L160.99312948644,397.4962052087367L160.57103034032116,396.76905478611843L160.63209295095294,396.3184818091713L161.3133052989906,395.77266750104354L159.95218060405386,395.1623011159927L159.71959694307589,394.6110587562298L156.23633146163775,392.3608498337735L153.77723274050368,391.13692098814136L153.78694861854092,390.38477655419774L152.76718388868176,387.9055115975725L153.07619398830866,386.7855918342766L152.91259976638685,385.7095537496971L152.6494647309446,384.95097252716823L151.91131195520575,383.8875912934991L149.98069606755962,382.88645972288487L149.35822818608722,382.6674653950877L147.93478216078438,382.4623482153238L147.49467628065395,381.745751063414L146.79583588328387,381.401177016538L146.09900230033963,381.35599676271613L143.4140902591207,381.73891257116975L142.8025661103784,381.44281360640343L141.0029474261828,379.33398152385416L138.68822007631024,377.49178092689L139.46926446000361,377.10366516364047L140.0059352447024,376.64019307937997L140.49255481830915,375.6598414280352L140.6087358754703,374.4285358603747L140.30149669422826,373.67030697899463L139.41027910889534,372.66718792053507L138.63758044982023,372.0531616841554L137.47559979782454,371.33680305812686L136.4512787700878,371.7200104638332L135.4990064851081,371.6960338799672L134.57339703512844,371.49858202613996L134.0518916506444,371.0327006079915L133.54789985109164,371.04288068644473L132.0302210422742,371.45638635260275L131.09548368825563,371.53844003398535L129.99733459030176,371.8631874002813L127.33853022507901,370.23003479956515L120.31537468643728,366.07972000486734L117.61410274479567,363.5076357887274L113.2000333165197,359.2042722304959L108.79461157170226,355.96957482790276L105.17846517542785,356.3128055487259L104.02400659602426,356.48020562690454L99.45702411115053,356.9301542569883L97.24089520936832,354.11791625155365L96.79057041695341,348.55245039346937L96.05269350168237,338.7775764701164L95.88447572285804,337.00414858494787L99.68891424312824,331.09526934017686L104.02041043501231,324.2564627731881L104.926214362662,321.8394660763579L108.75639433542892,322.87427712637054L110.67629412660244,317.602847551022L112.5774238575359,317.3317352419799L112.72646408285073,316.8331589187537L110.19203146623477,316.0804358545756L111.66048148559639,312.3282902238416L110.59714696020455,312.042668484708L112.77028435273314,306.15932527619407L111.04175859623501,305.68899350048196L111.38259269890114,304.85075758747735L114.47889172456053,296.60879758754254L115.69228756436496,295.9388986332806L116.16086696353523,295.4671340099467L118.70985678025318,293.58570934658474L119.13718344058361,292.9086625519558L119.27721965483215,291.93844905621154L120.25246877757309,291.4230729680812L120.83676898751219,291.49028047932006L121.77963158753482,291.0820987584475L122.67209290498795,289.3889697277209L123.1367665860962,289.1893504337031L123.36342307763698,289.64699561173074L123.44285665034477,290.00348268259495L123.5035102324473,290.2365270899536L123.56363599348697,290.4568943903005L123.60094062487406,290.81461314274475L123.65471275001983,291.35733367822286L123.61937986158227,291.6554153858542L123.61184884475006,291.95383500217395L123.54380262595441,292.2208669628353L123.59477206825977,292.6200127959828L123.71276540920007,293.1354706955917L123.81078832293497,293.53433185618724L123.74599413069154,294.13390463667565L123.96566759229972,294.4529269567629L124.01376444987909,294.5610403877854L123.34052734164652,295.5100595260328L123.42895801651684,295.89237426315594L123.2302862090146,296.77160279167583L123.26089492974643,298.07185221939653L123.5803407557978,299.066115733237L123.43221138304216,299.84835090339584L123.58536284472939,300.13797448114383L124.66855612241852,300.3160230613612L125.10783671673198,301.0395333986953L125.70737321814158,301.284504451708L126.02824734788373,301.90179631320643L126.49974479218145,302.039128405725L127.49427843137528,302.7842928728078L127.40066693247354,303.33421287028705L127.9342093332416,303.5669270022772L128.91244068423475,304.3127140221295L128.87318657773358,305.6358562109881L128.99815194280018,306.4545501190514L129.85265123250065,306.522796203285L130.34736568362496,306.7523584295295Z" fill="#FF7B46"></path>
  <text x="145" y="352" font-size= "4" font-weight="500">
    कञ्चनपुर
  </text>
    </g>
</svg>