<svg  viewBox="114 208 150 150"  version="1.1" xmlns="http://www.w3.org/2000/svg" xmlns:xlink="http://www.w3.org/1999/xlink">
  <g>
  <path id="path-0705" d="M253.32128470540556,239.58783721796408L251.71947053666008,239.9708630152445L250.90843938890612,239.88919575729415L250.67066329177396,240.35841425467333L250.16355082110385,240.62785997759056L250.1227050295456,241.33064877106244L249.55352147427402,241.56701571649774L248.89398014338076,241.07541716410196L248.86264897890578,240.35176683412374L248.18038823694587,240.41988270919774L247.98584301217488,241.26260871998784L248.27443547394796,242.56890243658472L248.07596415244916,243.24510779670072L247.4116422678453,243.2863539164964L247.157756160821,243.934838086313L247.2292890574754,244.28289632492124L248.03467734240257,245.11455629021202L248.3427478256599,246.2015370916297L247.5804332340631,246.89341662968764L247.80853090786695,247.76273633142682L248.69378059988958,248.6167460045317L249.7620275772024,248.97819951297242L250.19474477534095,249.54392889462451L250.2126374716172,250.0053918338208L251.22543228033464,250.53499028802798L250.63171054286795,250.97208076510378L250.26029676387043,251.48596173736496L250.27663966725595,252.31856512740887L250.47091890649972,252.58828621991142L250.35104303893604,253.64380286885898L249.5278323797429,253.34976363663736L248.97691159032183,253.5133418067635L248.8044648407522,253.05020313300884L247.31259253267854,252.15140492179216L246.94369858436403,252.04559553647505L246.04486923075092,252.23087930628208L245.22868889800884,253.31408591504805L244.74318110572494,253.52791171004628L243.74940447457266,253.6191938926877L242.9007081224663,253.49240626501978L242.83842977298264,254.02678052220926L241.8240663887591,255.21400415380594L241.81207396426908,255.68967341786083L242.59296851180625,256.1242167592827L243.13823394737483,255.94294213092962L243.49201129793073,256.5858852178344L244.20142578048763,256.5913558230932L244.6380951956089,257.26833802797773L244.68356269814103,257.91238084534325L244.16548810831955,258.7923981753902L244.23395437788713,259.41538885571936L245.32832088918076,259.4811961092546L245.71851003242045,259.63086778535853L247.06323326218262,260.8155591445893L246.60558336345275,261.1489580635125L246.37477905771084,261.8955847854904L245.38920748450255,263.23109112533984L244.35035496053752,264.3093758259256L243.67851391371732,264.5352992865546L243.60195986154577,264.9026930239088L243.07519953561132,264.93692913324867L243.18084138750783,265.44899124053427L242.4315408135626,266.1024063574696L242.1079853213596,266.1924219481716L241.46680734612528,266.8280579942302L241.05788383867548,266.8738197431039L239.841813949708,267.8051359839219L239.3498655876101,267.97171693667406L238.93355137557955,267.77382652627057L238.14587365904663,267.857529603677L237.00987166335835,268.193507514301L236.22599077512496,268.8198099772635L236.23171070078388,269.4863934228033L236.43933575075062,270.150579653422L235.6760893994142,270.962912093215L235.16498425183818,271.97884642568533L235.9505080319177,272.5582363146823L236.21399285993175,273.15979394306123L236.0532971628527,275.7127531078977L235.72208074738592,277.26545350469496L234.70334810356871,276.8213611946803L234.2829441151698,278.05637716879664L233.34811381632244,278.21575237363504L232.16711323781783,277.62074079699596L230.6617362182842,277.38548187673223L229.67925870379622,277.64030807607105L229.25314513936246,278.00955967720347L228.99443193845218,278.8403806713477L228.36334389045442,279.3190476390955L227.76949139801582,279.2057591658295L226.58598475158578,279.25266690555964L224.24967619737072,279.8266023500564L223.0167155114541,280.34797572212665L222.35083437294452,280.1822478869435L221.47965845443468,280.4009219259424L220.5349771033907,280.43375604110133L219.45817679550964,280.72923940983947L218.1884725716991,280.46126323474437L217.38466856299783,279.70806036326667L216.57519979780045,280.04439943685156L215.40443916196818,281.0518182622109L214.9503039862284,281.21723515395115L214.276470073346,282.0391452926988L212.84492367774146,282.01848980934756L212.16838133384226,282.67442041563754L211.91169352677025,283.26365911216635L211.40819443571672,283.618759794138L211.19949117341093,284.9066733584905L211.78029679491738,285.5563920753966L211.47797411138527,286.0251378612047L211.30450447381008,286.7386572773348L210.65616366020913,287.00580463653023L207.87911464838544,286.97002608766616L207.677512396589,287.3032188573243L206.64408478512632,287.54289255124786L206.06051617892444,287.5501379472116L205.7325531495626,287.82466846775696L205.6371283877088,288.33188953705394L205.82685466582552,289.00324668073335L205.48116009796286,289.58352995806126L206.4289437053485,289.8105023393946L207.08149721418158,290.725046100134L206.56834586042896,291.54760368990355L205.94656905468946,293.1001182279897L205.12751776770529,293.18482271875746L204.27342024665995,293.7199237685263L203.83795063024445,293.6153868455085L202.26727064800798,294.2989284633677L201.90489123896623,294.64590972711903L201.14082288282953,294.8267404319822L199.95838318756432,295.6179989626007L198.51369007244284,295.8149244823944L197.7324411848531,296.06963983138394L197.23920339634788,295.9771312962039L197.17132726027558,296.7284372543909L197.45499143401685,296.9760231521459L197.64715326313308,297.6727074733544L198.29964713246954,299.09885477743774L198.2675901011462,299.50770230208855L198.75819055258762,299.650066979043L200.31261175211694,300.86510296790493L201.01070893831638,301.2680562958885L202.58883759987657,301.93031832155793L204.22528692705964,302.4401159993704L204.4030493316277,302.8385297578807L204.87832358245942,303.1084910756663L204.6905726865516,304.16053166730126L204.2930746969687,305.5209250443204L203.8482029282859,306.3032722554408L202.69591864375616,307.07039388690737L202.0683527261026,307.85484038830964L201.127072210631,308.21841584198137L201.19169397072255,308.71191613104475L201.54127600710854,309.2821250732504L201.6063833910339,310.54529005515906L200.86931072906373,311.0844891247607L200.63186307522847,310.9539190588348L199.314719720227,311.98007798489925L198.8650270545004,312.4724345214736L198.89231535761428,313.3670165257463L198.64157497849737,313.62964018450293L198.75793712860468,314.49997629670906L199.27820171742133,315.20044496770515L199.13956832475378,315.88218331455846L198.31758535211702,316.23420313971656L197.90669165189684,316.6067963075575L197.10206539395222,316.90458978529387L195.47500502740513,318.1195562697967L195.57049329115762,319.0680794867667L193.98060078332128,319.6759644781969L192.4782578797167,319.68389739471695L191.76392927105917,320.35461618477257L190.629647650454,319.9920805753309L190.17456512893477,320.14518560356737L188.91922902561055,319.91357617025824L188.35841971528498,319.297450693698L187.46753334195455,319.6031599147891L187.06787252384675,320.227347023676L186.03754982757528,320.0497039307493L185.34981504030657,319.599194270867L185.6782044966967,318.90102886519435L185.62053064348584,318.02269611535394L186.06362617665218,317.84515701313285L186.41147205356538,317.2675389885517L186.06394776535308,316.7800491828566L186.21488048360334,316.1948976212607L186.62968080950304,315.6150734883022L186.7482667657605,315.0827819735696L185.98428471737134,314.73268900808944L185.1532889266091,314.91956812745957L184.7298199053912,314.84602701882704L184.9027650368953,314.31890311208554L184.64212329135626,313.8306004986089L184.8394583030422,313.1300013917198L184.56083358527394,312.4449669264086L183.6580640027314,312.4377936697583L182.99163869970653,312.0800689043217L182.90107210928545,310.9459889576083L182.26318355468175,310.86407569174025L181.77708371005065,311.29871588138303L181.2268360705275,311.2648176556713L180.54901552748925,311.52250817299955L180.08173902645285,311.3886667255356L179.24527604377,311.4766048494621L178.5914065568977,312.0497212097216L178.25632089504143,311.9177993511739L177.00240730378937,312.67462611738756L175.51637448355905,313.1736921431875L174.8564064904931,313.07297315035976L174.20217797913938,313.17980973519934L173.6867230542448,312.91442178382295L173.15815430579096,312.3707462567536L173.098916607094,311.8430975175879L172.00559431119473,311.9455422929732L170.91140395937327,311.03568484366406L170.0741416901983,311.05308026809234L169.42353461831954,310.88212965674575L168.8392823358081,310.42619343111346L168.05370793606198,310.05517059252725L167.81780920534948,309.47754611079563L167.10021116364078,308.69896062142834L166.34780022952327,308.5944815267385L165.97846481916713,308.80910397968L165.92582501973084,308.8811219937661L165.3420198176609,309.33603045139716L164.67522188821022,309.3718374260807L164.03769769900464,309.2282973582887L163.37078807995567,309.0409627380095L163.12134225068075,309.03286157097045L163.037949540103,308.99270709478424L162.8716242231094,308.9202452309755L162.30670900556288,308.73832117619986L161.67580217806608,308.70614211255634L161.25192573113964,308.5289381536704L160.74688337309635,308.83167967410736L160.48662991425226,308.9496327291654L160.43979409819804,309.0275089334418L160.2708219848755,309.26907968722116L160.20990156459447,309.28059399700305L159.93657467400772,309.1065947192337L159.8393790857881,308.84628882987363L159.95789620179494,308.2328340699278L159.6066539668609,307.9000132481224L159.36372473290976,307.61208192099184L158.40607588494822,307.20699390922255L158.08508935065402,307.2031824352289L156.8916226887959,307.0747343584644L155.89146699127377,307.6031533771975L154.42525601489615,307.3535927071707L153.5558150852812,307.79306740195534L152.5136624875995,307.237694997616L151.50022410920792,307.0645974860654L150.96990689933227,306.3045180627587L150.386249636711,306.70306268057993L149.8604976781462,306.3321990564082L149.36512600852438,306.4749003010884L148.42712386992935,306.24535692169866L147.76197947362016,306.47395880226304L146.76572692640548,306.56806813972344L145.94243418724363,307.081751401789L145.0282475545937,307.15399612694L144.50722791474254,307.4790749474614L144.34316193830819,308.2852304927583L143.3484610756168,308.11084741927607L142.7232049711165,308.6728826485123L142.16093530309809,308.9699288872416L141.9534487902929,308.4861038992185L140.83627537830398,307.7240290628215L140.31717013980597,307.61358061553074L139.7888706017984,307.8508802944425L138.79399091982123,307.4837698765041L137.60106826567062,307.53677896555746L136.2857028689068,308.061792185018L135.5582549508581,308.09665272338407L135.19909357311553,308.33212390684275L134.00039845249194,308.6700096026925L133.25282451793828,309.02930710716373L132.50639531475463,309.0477566090758L131.36286121964804,307.86330546309546L131.6856109991677,307.278341404045L131.63005545349006,306.89189976001853L131.20928909163558,306.608665247094L130.34736568362496,306.7523584295295L129.85265123250065,306.522796203285L128.99815194280018,306.4545501190514L128.87318657773358,305.6358562109881L128.91244068423475,304.3127140221295L127.9342093332416,303.5669270022772L127.40066693247354,303.33421287028705L127.49427843137528,302.7842928728078L126.49974479218145,302.039128405725L126.02824734788373,301.90179631320643L125.70737321814158,301.284504451708L125.10783671673198,301.0395333986953L124.66855612241852,300.3160230613612L123.58536284472939,300.13797448114383L123.43221138304216,299.84835090339584L123.5803407557978,299.066115733237L123.26089492974643,298.07185221939653L123.2302862090146,296.77160279167583L123.42895801651684,295.89237426315594L123.34052734164652,295.5100595260328L124.01376444987909,294.5610403877854L123.96566759229972,294.4529269567629L123.74599413069154,294.13390463667565L123.81078832293497,293.53433185618724L123.71276540920007,293.1354706955917L123.59477206825977,292.6200127959828L123.54380262595441,292.2208669628353L123.61184884475006,291.95383500217395L123.61937986158227,291.6554153858542L123.65471275001983,291.35733367822286L123.60094062487406,290.81461314274475L123.56363599348697,290.4568943903005L123.5035102324473,290.2365270899536L123.44285665034477,290.00348268259495L123.36342307763698,289.64699561173074L123.60274425997704,289.33007847380395L124.25097524277953,289.8389006535708L125.78689465941716,290.60267520171965L126.70349182345672,290.6943941652289L127.26384815437996,290.9078690457645L127.77748678435455,291.8429117240339L128.62287703695256,292.5303746991476L130.15905710215884,292.6444234713963L131.65269077461562,292.8857444675423L133.384759656994,293.26059850223646L134.13636862434942,293.12980019267707L134.79498789079298,292.6323543284607L135.2853733533775,292.0010904658584L136.1157942845348,291.39378325735834L136.54816423964076,291.4055217020141L137.42079105698213,290.52307867342734L137.6379183333811,289.78400170586974L137.96790703982333,289.26794318995326L138.67114485306956,288.78985745898535L139.5334732976662,288.59855401795267L141.47605759690123,288.47897096492306L142.27971785498812,287.83976156068456L142.07272874558475,287.15184457301984L140.86568838042876,285.86190513045767L140.19410908731152,284.64719670388695L139.40200315907714,283.5767274018881L139.15187245117704,283.01946503892214L139.1609887721388,282.00513350817437L139.63187789285075,281.2998231046595L139.60429603597368,280.65440007382585L139.19395720184548,279.2854255633638L139.05916794486257,278.3500402244472L138.14042164175044,277.5078958046106L137.5172684978752,276.6963515274574L136.41018767174683,275.92611848589604L135.588680345154,275.5259265612649L135.40403890508605,274.70414879397686L136.07023749361542,273.5425412239056L136.14505613216897,272.91949474868125L136.64733516217893,272.4034342255236L136.6948877666764,271.4367530940772L137.146353357075,270.98984229395865L137.9276192074467,270.9669140615697L138.38449266385942,271.15530647115065L138.8566598927282,271.73916507934337L138.98280929036264,273.0027483470958L139.15412108632154,273.5848652478862L139.8732591716398,274.23329707759694L140.39588097970045,274.2890322586536L141.66059924203728,274.1097111133149L142.75501821010766,274.0817867553242L143.3512019901791,274.48583724098626L144.07511750430422,275.24422300718015L144.61583996178524,276.10665258532117L145.57239550512895,276.68804305675803L146.07733296778315,276.6081996231005L146.6722329823424,276.23490091608437L147.08967019634656,275.58027253813907L147.60397979304616,274.4119290439621L147.56457968208633,274.15526194917857L146.89437223463028,273.2939568804213L147.01323245693857,272.128161671636L147.31306885815502,270.97851849118706L146.26938383984452,269.3051385847093L146.16498565594884,268.70797612834576L147.19310810586103,267.49294986128007L147.97924961678655,266.93896281325124L148.2436918581261,266.49416482593824L148.24290935036697,265.76461528499294L147.8782939888879,265.0042364461542L147.90097154878094,264.3375445426909L148.21135495053386,263.7045105127627L147.98604472606166,262.82766834938593L148.0290152438829,262.1374349357229L148.52156724210363,261.64164165753755L149.03394582120382,259.8448544548919L149.1509681671232,258.81581521740827L149.09678600085317,257.14797066843585L149.49201992424423,256.3470078814953L150.54303141381024,255.88986159657452L151.25157713208682,254.85341465530837L151.68428416158713,253.93166033004218L152.05421296881468,253.60748983195572L152.11662497961152,252.95084988439703L151.60968331548065,252.03783336649303L151.84853420202126,251.07070354851567L152.7494070204375,251.79422159732803L153.88912608954706,252.11853629454345L155.55037962876304,251.31667886018568L155.86675734311575,250.7535244811761L155.3655680079355,250.00497212089886L156.86061452657304,248.90858016684888L157.3479502658447,248.79337087702606L157.63715987872274,248.0975468679644L158.37633860752248,248.15886703403157L159.12145196334313,247.93011533857953L159.17732457710736,246.9614859575522L159.7566927059088,246.55238845579788L159.97535766270812,247.2584346149115L160.58111756539438,247.51383659581552L161.32138644785664,248.07381232998614L161.86707227032093,247.95839938230347L161.57935598137556,247.2595111418177L162.0980039370952,246.6896031119668L163.37981758847673,246.1971420631944L163.6289418891538,245.55285227449986L162.94003663487456,245.49994685194997L162.39780773744133,245.2036580634558L162.7710939727258,244.16661986815416L162.77875218011104,243.36183293408158L163.3397939780334,243.29129703887793L163.63209154914148,243.67130918667863L164.05718093546966,243.56040300230234L164.30284389098233,243.04699733054167L165.03099959001338,243.29997603496122L165.35205116678117,242.2881303409422L165.94579383456949,242.31612915327696L166.4224866167351,243.3311175614008L166.83921659272892,243.3116165544634L166.97882712511637,242.8314405337287L166.5400742007405,242.12489646753966L166.86143513294883,241.8567926508722L167.93431193660945,241.57450084980246L168.2778876117809,241.32633919669934L169.30335274332174,241.4921168636556L169.79139929391022,240.98449886010985L170.22409115255869,240.82579296142103L170.54715446351838,241.27116558151283L170.54288837120475,241.84301563404642L172.46157069699984,241.12300821822646L172.62858006123497,241.67897259886377L172.93639176335637,241.83582950958953L173.6799067549582,240.6303178711123L173.54622307622776,239.47502474328576L173.95039407737204,239.19247043842552L173.40303488846257,238.71776866649907L173.22403640606717,238.00267084815368L173.79825522176907,237.92543767449934L173.70573743693967,237.46681691852427L174.01826052289834,236.98006348060972L174.62546507838124,237.049205208712L175.1371353449722,236.68758339062424L175.31797112813,235.52898527436537L176.10630589184075,235.0909862493636L176.4615648907129,234.48931299841388L176.5524296249605,233.93515845358252L177.65145690088684,233.60184665838733L178.01822755189642,233.7629104978305L178.49791296016338,234.9445953697459L178.96035384270363,234.72438413208965L179.63689272696138,234.71716468622526L179.52984056173955,233.98560064560388L180.30850118296075,233.4862320588445L181.10719979562418,233.94587243858314L182.47977641021498,233.31471959223745L183.1545879174264,233.57910420662301L183.6928685451967,234.00910469331757L184.42592197173872,234.27718213999378L184.7739911638273,234.15224679148105L186.50494371142486,234.95261540983938L187.090575851209,235.40740130098675L187.65180425921426,235.16202402466388L188.6902892579892,233.9469569320463L189.2583740945156,233.53163592930923L190.50587767941397,232.99657082811973L191.3337217301996,232.8699113541934L192.01093225582372,232.56120120971718L193.10639520860423,233.53231942830644L193.66975067851672,233.47701759494157L194.98844615158305,233.9693252262923L196.3215811568516,233.8780932144382L197.7245706769354,234.09138159096437L198.40047311120725,234.04553546186344L199.50542679839782,233.75894071841776L200.72510532959132,232.6208269345516L201.83728755060656,232.59114314627823L201.71459571730884,231.8492968951441L201.87046785610073,230.5258830696912L201.8175301453266,229.7335034101261L201.97045270068702,229.2363612562749L202.04779440874336,229.05345543798012L202.07999235710668,229.00354483751016L202.2826232785119,228.708397018685L202.3401852851821,228.49626779487699L202.40395858593547,228.37983241605525L202.51681673592248,228.39116872130944L202.6847497009221,228.3227210811383L202.75478840368305,228.30149248554153L202.83993979623847,228.33783158677943L202.9166501597756,228.4362169283013L203.21457183062375,228.56510849673214L203.35538038400773,228.55926203435956L203.8444639220179,228.60746150747673L204.68166553417905,229.04807889182484L204.86027412426483,229.06263439985196L205.05650945599336,228.99019521615537L205.40763697507646,228.9158058817202L205.4498741558018,228.91567006694822L205.6327709320758,228.90090716588566L205.74572391935362,228.92056409081215L205.94380143150556,228.98829016457512L206.13174488261575,228.9984214207525L206.6547332654627,229.13687554692478L206.99363294144496,229.20366635185474L207.06453841969778,229.2400597453643L207.24853236349372,229.30784010968L207.9774759309039,229.75380295982723L208.00139559740637,229.79083281730163L208.00482656211898,230.29820133285466L208.033887401456,230.34742117728274L208.14548929992452,230.47892622556992L208.28879039832827,230.6738029089438L208.49638276429687,230.99300107706495L208.51194237248637,231.07938653537167L208.89521803772368,232.06461116883474L209.0072950888789,232.29816898693934L209.12309158693097,232.46969415040348L209.09469903112404,232.75447626496225L209.1061464624181,232.87848722453055L209.12814760971742,233.07619306462038L209.21342082205229,233.1159686487008L209.80465939217538,233.06381879262608L210.10155168460915,233.1180953569865L210.76418309869769,233.12237602784535L211.33343875496212,233.16506800732623L211.96476114722464,232.9717105956479L214.43157830621203,233.00386675002483L215.56196162048218,233.26620269839623L216.4882812092219,233.06135510868444L217.69744741226896,233.58235997030533L218.02045384351368,233.84612648361326L218.05681499994898,234.4066248337149L218.84193072120615,234.86198996035728L219.8863088247781,234.9938622967602L220.78357874409994,235.43138066401207L221.36481561424443,235.1392316642923L222.86849919007727,235.25483588048155L224.04230607333375,236.09412190189778L224.81456663087374,235.5417447309228L225.58073693871847,234.01373062242965L226.4440006799923,233.94999612052834L227.31116035442756,233.02631504126475L228.463231225036,232.49604029594502L229.6645696212654,232.51215250147925L230.14303682695027,231.95968425568753L230.18426108052518,231.23194718515606L229.95120414338817,230.71829029848323L229.99601704086308,230.20592878915704L229.5520812404502,229.43934112431816L228.84195868772804,229.14318989678486L228.02567823160643,228.21395560093606L229.09648404693144,227.86948204675446L229.85268359129986,227.18397510498198L230.87634183346745,226.8767893399954L233.02298126517417,227.55053012441658L233.95449330522752,228.0171904624067L235.316190208403,228.07175137701597L235.9459811430861,228.54599197063453L236.12259685079698,229.13745752250634L237.3565543565055,229.21289598789826L238.77839815323387,228.27860084313397L238.98777950217482,228.7879827031329L239.07362186557657,229.7161166736314L239.5279460100901,230.36613430513717L240.62835165905562,230.76721519204966L241.76097249099257,231.34604582844713L244.81837991463544,232.21124420866545L246.2045507044204,232.2692141856187L247.20811264257281,232.42656288561466L248.69697707771775,232.23002872924008L249.37238271127353,232.41147750915843L248.9124181698062,233.49297487039257L248.29147997533073,234.14941893007926L248.42783506454361,234.8211282885777L248.28263966535087,235.44401331821064L249.53871261424865,236.08055911645351L251.75609508631896,236.76730073836734L252.1842425921168,237.52107621579944L252.79718557484375,237.71474289051457L253.3238943323886,238.6702279937981Z" fill="#FF7B46"></path>
     <text x="180" y="272" font-size= "4" font-weight="500">
    डडेल्धुरा
  </text>
    </g>
</svg>