<svg  viewBox="118 120 180 180"  version="1.1" xmlns="http://www.w3.org/2000/svg" xmlns:xlink="http://www.w3.org/1999/xlink">
  <g>
  <path id="path-0702" d="M255.53332798622432,169.90000316837995L255.30920007213354,170.20651600752262L255.31493481779762,170.9311675477975L253.7010268727281,172.14571440763484L252.69108746390702,171.64536701253382L252.13999706864706,172.16730010567062L251.98377245124357,172.58507839575395L251.94846408381636,174.34014796965857L251.01740310736568,174.14442897280333L249.9376102955648,174.23270882886118L248.92450317551265,175.24920377582293L248.40528413773427,175.6100276027364L248.70106305306763,176.24332455728654L248.5217739732434,176.80033485770764L248.6522518709935,177.94227411024804L248.1646840825415,178.73909805703352L249.18712473996493,179.272971358615L249.59272135673018,179.31474522961798L250.2381392306852,179.8566327275612L251.16807437224998,179.87311341230725L251.79293987913115,179.47604280290489L253.00751748900439,179.1756733571292L253.3614646339047,179.44709700351086L254.15274584691724,179.68071380168385L254.42093519075206,180.06019836479118L252.8539491041447,181.5061932137496L252.25802161798492,181.88804281658486L252.52553674911542,182.40279498345535L252.53638208858683,182.92918573097995L252.90424141782933,183.47207792180325L252.82173625689757,183.92587074266157L253.12407525201343,185.2902458151666L253.7480007803715,186.1359783282369L253.34822793862986,187.2988273665942L253.50094730427736,188.43977876706413L253.175867139842,189.58590445745722L252.3181886549064,191.1450643869248L251.79841239636153,191.35638765759086L251.48985402204562,192.6875827101294L251.7658691428187,193.4362186790322L251.41235136371324,193.77033328445305L251.43431952891478,194.42464502374696L252.05703757582523,195.06379619795007L251.9377880165266,195.52254129413268L251.38757305316176,195.81301232296028L251.11272844046835,196.31159012619173L251.33738786042886,197.0573720419834L251.23397191425465,197.8090704677361L250.18380552181043,199.43991197872765L249.83049213888808,199.04205541665215L249.34707743404942,199.0067495903977L248.14617926038773,198.60015012092845L246.9188765668987,198.42804368098678L245.7498420773154,199.03615373881894L245.20885064130198,199.13465504370106L244.99472194747068,199.530326961627L244.86005745194052,201.30179574763588L245.0354977326606,203.63461174191343L245.50504040475062,204.19380574898514L246.35387020885173,204.22258580015296L247.1334106119284,204.58934631631746L247.8706398775248,204.57141051590224L248.55059404443455,204.93106930977046L249.57980512784707,204.99859547519827L250.07922976938426,205.35323710295597L251.18514878982023,205.36893091138154L252.20750393628987,205.6309297034286L252.43594514116194,205.9938683001301L252.4587955013776,206.82105960147146L253.12552742075786,207.7267948926483L253.43043518951163,208.9915662012745L253.87286021571708,209.19791206474383L254.80420303821302,209.24477994982226L255.38769979551944,208.99531629580542L256.11328278902874,208.28076189800413L257.41282553783094,207.37005005834453L257.8869364763159,207.652579940137L258.57378641176183,207.76878940426013L259.4731158001741,207.567310775612L259.9223907672167,207.21460543839112L260.35747542632816,207.77313693243832L261.31332669948824,208.28264459992442L261.58241000119233,208.72421594883872L261.2822507131641,209.9156516637213L261.2935838404119,210.48893563137972L261.999754019791,210.66429567724663L263.89952865673695,211.9574046552916L266.1187291401584,212.96363077218302L266.70966133776164,214.0226288480044L267.8019472371816,215.093770058892L267.7321463770095,215.5904782881762L268.26470475012684,216.0303686733714L268.28078581166847,216.56019595791895L268.6065881713366,217.36169104560122L270.09545489207085,218.12923953332756L271.2062939849602,217.867349106431L271.7914734082078,217.9234213500913L272.87935791347627,218.71837207046792L273.038160518463,219.5689000745815L273.62538889702046,220.81215606721435L274.5754913879682,222.19329981999272L274.39063148594505,222.9411029380699L274.8744426631092,223.22049386972412L277.5094429668461,222.75541208763389L278.4177733876968,222.80843609608928L278.6438578405978,223.00214816187872L279.83459504960774,223.34361685660042L279.6460937850061,223.96393185391844L278.53328029260956,224.27873610349434L277.8869398868337,225.23194947808497L277.38374849769025,225.35784755671102L276.53691590080416,226.67116380949574L275.7413185028963,227.24462041231072L275.0520776446392,227.3589937306915L273.8053789849873,228.29622285936512L273.1989162022837,228.91647549527715L272.96760711946627,229.3928239594661L272.27753218627913,229.79390025373232L271.08950666110104,229.8111653279775L270.1342092690502,229.26128565280123L269.77837160186755,229.20989169130553L269.7170705935532,229.93366493141275L268.7629395557742,230.38002767623675L267.75034629468064,230.58966603587214L267.6543661242031,231.03317676640745L268.0295024348634,231.47666802970434L268.80176748440135,232.02618473563962L269.3290934777033,232.66486373247426L269.4190268090788,233.0788778829292L269.04771752587476,235.0043019161085L267.90427410813936,236.93984220895072L267.37563978234175,237.3667442155256L266.2474295449938,237.6346689734646L265.3133630808261,237.33494886390326L264.14934898185675,236.38603358940145L263.59286988074746,236.6714447431832L262.86215081092087,237.69641946733736L262.0172866487119,238.6087492644865L260.8929181027779,238.84561028063672L260.107213868454,239.6426682487654L259.5721239566519,239.9300679555572L258.902294323605,239.8802202670131L258.1866110573428,239.57163557908098L256.6876293524874,239.91712937937427L255.46054231471862,239.71533919620197L254.4956640515229,239.84282594602064L253.32128470540556,239.58783721796408L253.3238943323886,238.6702279937981L252.79718557484375,237.71474289051457L252.1842425921168,237.52107621579944L251.75609508631896,236.76730073836734L249.53871261424865,236.08055911645351L248.28263966535087,235.44401331821064L248.42783506454361,234.8211282885777L248.29147997533073,234.14941893007926L248.9124181698062,233.49297487039257L249.37238271127353,232.41147750915843L248.69697707771775,232.23002872924008L247.20811264257281,232.42656288561466L246.2045507044204,232.2692141856187L244.81837991463544,232.21124420866545L241.76097249099257,231.34604582844713L240.62835165905562,230.76721519204966L239.5279460100901,230.36613430513717L239.07362186557657,229.7161166736314L238.98777950217482,228.7879827031329L238.77839815323387,228.27860084313397L237.3565543565055,229.21289598789826L236.12259685079698,229.13745752250634L235.9459811430861,228.54599197063453L235.316190208403,228.07175137701597L233.95449330522752,228.0171904624067L233.02298126517417,227.55053012441658L230.87634183346745,226.8767893399954L229.85268359129986,227.18397510498198L229.09648404693144,227.86948204675446L228.02567823160643,228.21395560093606L228.84195868772804,229.14318989678486L229.5520812404502,229.43934112431816L229.99601704086308,230.20592878915704L229.95120414338817,230.71829029848323L230.18426108052518,231.23194718515606L230.14303682695027,231.95968425568753L229.6645696212654,232.51215250147925L228.463231225036,232.49604029594502L227.31116035442756,233.02631504126475L226.4440006799923,233.94999612052834L225.58073693871847,234.01373062242965L224.81456663087374,235.5417447309228L224.04230607333375,236.09412190189778L222.86849919007727,235.25483588048155L221.36481561424443,235.1392316642923L220.78357874409994,235.43138066401207L219.8863088247781,234.9938622967602L218.84193072120615,234.86198996035728L218.05681499994898,234.4066248337149L218.02045384351368,233.84612648361326L217.69744741226896,233.58235997030533L216.4882812057549,233.0613551174156L215.56196161849584,233.26620270712465L214.43157830629207,233.0038667587296L211.96476115166297,232.97171060431538L211.33343876043728,233.16506801599098L210.76418309869769,233.12237602784535L210.10155168460915,233.1180953569865L209.80465939217538,233.06381879262608L209.21342082205229,233.1159686487008L209.12814760971742,233.07619306462038L209.1061464624181,232.87848722453055L209.09469903112404,232.75447626496225L209.12309158693097,232.46969415040348L209.0072950888789,232.29816898693934L208.89521803772368,232.06461116883474L208.51194237248637,231.07938653537167L208.49638276429687,230.99300107706495L208.28879039832827,230.6738029089438L208.14548929992452,230.47892622556992L208.033887401456,230.34742117728274L208.00482656211898,230.29820133285466L208.00139559740637,229.79083281730163L207.9774759309039,229.75380295982723L207.24853236349372,229.30784010968L207.06453841969778,229.2400597453643L206.99363294144496,229.20366635185474L206.6547332654627,229.13687554692478L206.13174488261575,228.9984214207525L205.94380143150556,228.98829016457512L205.74572391935362,228.92056409081215L205.6327709320758,228.90090716588566L205.4498741558018,228.91567006694822L205.40763697507646,228.9158058817202L205.05650945599336,228.99019521615537L204.86027412426483,229.06263439985196L204.68166553417905,229.04807889182484L203.8444639220179,228.60746150747673L203.35538038400773,228.55926203435956L203.21457183062375,228.56510849673214L202.9166501597756,228.4362169283013L202.83993979623847,228.33783158677943L202.75478840368305,228.30149248554153L202.6847497009221,228.3227210811383L202.51681673592248,228.39116872130944L202.40395858593547,228.37983241605525L202.3401852851821,228.49626779487699L202.2826232785119,228.708397018685L202.07999235710668,229.00354483751016L202.04779440874336,229.05345543798012L201.97045270068702,229.2363612562749L201.8175301453266,229.7335034101261L201.87046785610073,230.5258830696912L201.71459571730884,231.8492968951441L201.83728755060656,232.59114314627823L200.72510532959132,232.6208269345516L199.50542679839782,233.75894071841776L198.40047311120725,234.04553546186344L197.7245706769354,234.09138159096437L196.3215811568516,233.8780932144382L194.98844615158305,233.9693252262923L193.66975067851672,233.47701759494157L193.10639520860423,233.53231942830644L192.01093225582372,232.56120120971718L191.3337217301996,232.8699113541934L190.50587767941397,232.99657082811973L189.2583740945156,233.53163592930923L188.6902892579892,233.9469569320463L187.65180425921426,235.16202402466388L187.090575851209,235.40740130098675L186.50494371142486,234.95261540983938L184.7739911638273,234.15224679148105L184.42592197173872,234.27718213999378L183.6928685451967,234.00910469331757L183.1545879174264,233.57910420662301L182.47977641021498,233.31471959223745L181.10719979562418,233.94587243858314L180.30850118296075,233.4862320588445L179.52984056173955,233.98560064560388L179.63689272696138,234.71716468622526L178.96035384270363,234.72438413208965L178.49791296016338,234.9445953697459L178.01822755189642,233.7629104978305L177.65145690088684,233.60184665838733L176.5524296249605,233.93515845358252L176.4615648907129,234.48931299841388L176.10630589184075,235.0909862493636L175.31797112813,235.52898527436537L175.1371353449722,236.68758339062424L174.62546507838124,237.049205208712L174.01826052289834,236.98006348060972L173.70573743693967,237.46681691852427L173.79825522176907,237.92543767449934L173.22403640606717,238.00267084815368L173.40303488846257,238.71776866649907L173.95039407737204,239.19247043842552L173.54622307622776,239.47502474328576L173.6799067549582,240.6303178711123L172.93639176335637,241.83582950958953L172.62858006123497,241.67897259886377L172.46157069699984,241.12300821822646L170.54288837120475,241.84301563404642L170.54715446351838,241.27116558151283L170.22409115255869,240.82579296142103L169.79139929391022,240.98449886010985L169.30335274332174,241.4921168636556L168.2778876117809,241.32633919669934L167.93431193660945,241.57450084980246L166.86143513294883,241.8567926508722L166.5400742007405,242.12489646753966L166.97882712511637,242.8314405337287L166.83921659272892,243.3116165544634L166.4224866167351,243.3311175614008L165.94579383456949,242.31612915327696L165.35205116678117,242.2881303409422L165.03099959001338,243.29997603496122L164.30284389098233,243.04699733054167L164.05718093546966,243.56040300230234L163.63209154914148,243.67130918667863L163.3397939780334,243.29129703887793L162.77875218011104,243.36183293408158L162.7710939727258,244.16661986815416L162.39780773744133,245.2036580634558L162.94003663487456,245.49994685194997L163.6289418891538,245.55285227449986L163.37981758847673,246.1971420631944L162.0980039370952,246.6896031119668L161.57935598137556,247.2595111418177L161.86707227032093,247.95839938230347L161.32138644785664,248.07381232998614L160.58111756539438,247.51383659581552L159.97535766270812,247.2584346149115L159.7566927059088,246.55238845579788L159.17732457710736,246.9614859575522L159.12145196334313,247.93011533857953L158.37633860752248,248.15886703403157L157.63715987872274,248.0975468679644L157.3479502658447,248.79337087702606L156.86061452657304,248.90858016684888L155.3655680079355,250.00497212089886L155.86675734311575,250.7535244811761L155.55037962876304,251.31667886018568L153.88912608954706,252.11853629454345L152.7494070204375,251.79422159732803L151.84853420202126,251.07070354851567L151.719190338943,250.5781513005095L151.05743052621256,250.07563423606825L150.2498637716526,249.18079142281658L149.61370473794886,248.9413951378392L148.88374034363733,248.95349925030223L147.34575937589398,248.71934969325866L146.1957957885934,247.32443481674636L146.28028334945702,246.43768545650073L145.94703070712785,245.8539335329524L145.1135224609825,245.3983928454354L144.56608196616799,244.90813211280965L143.86735416236115,243.94988893085429L143.6558159437409,243.04812543504522L143.78842678916044,242.22800814825496L143.73897773255885,241.29996849279087L143.55993111868884,240.9581351332008L142.11407593074182,240.33850290114697L141.91598065235303,239.99679153698708L142.0833804622198,238.70816195210136L141.91691191977952,238.12358275879433L142.6042083980792,237.39027742856524L143.50756744197133,237.05819936065018L143.427089639139,236.54736826224416L142.77489449948916,236.0245028038271L142.30733849703392,235.3043349229847L142.3043429280915,234.94104173023698L142.87788769642793,234.15513520935656L142.0539119731875,233.35487717739215L140.39868672895682,232.920574121139L139.66136748879944,232.37334312397252L138.99006024284245,232.11777956285187L137.99660853804744,231.33811541234445L136.9005056479291,230.94093049220555L136.27228573364846,230.54601291336076L135.5341923465785,229.80503997637697L136.4684818508431,228.8304337206755L136.06454920680335,227.91713198595062L136.04143120679146,227.2350848460419L136.77382765790753,225.30061956535974L136.76128481673732,224.33628001460966L136.31271186953745,223.74355952124824L135.83194425886177,223.4113086799989L135.9960213277045,222.46842475475296L136.48014818506272,222.19758611420912L137.64992218175394,222.13874596242476L138.56282064207335,221.91241410977L138.96209995824756,221.13718449238695L139.35497852630215,221.12377207328518L139.92498322792017,221.49221314926217L141.06138706211277,221.7896718435959L141.74053004306188,221.3449907466529L142.49656873924323,221.60551856641086L142.7514611859042,221.27110770902527L142.34160969754885,220.79430722704092L141.6576143428174,220.66326905345522L141.49427599060436,220.39950056563248L141.94839378313554,220.0019588318164L142.85395788502865,219.66789191612042L143.64327322539248,219.64798057450207L143.96557773908353,220.0246911217264L143.6179356985631,220.6408677369809L143.8243009112848,221.22328167132673L145.14630138708526,221.1307106865961L145.4553601478401,221.44499644326515L145.94154579922906,221.3276495360069L146.82575652669766,220.68812812036595L147.37241990822076,220.80097080262203L147.5794876398213,221.3199315368056L148.0423367762305,221.254010403165L148.70839747990613,220.8198147724379L148.7782830372489,220.52403275954748L148.42201789070168,219.94917007690674L147.41411833026723,219.2342311700395L147.0281558870338,218.5702096745781L146.439855565568,217.9126441753633L146.08672612616647,217.14689424254811L145.57252714248898,216.7204111161418L145.2684281748334,216.06868692794978L145.34613004995845,215.55846281407685L146.6588731349475,215.23796102755114L147.40605534675706,214.0947663605284L147.2983934113072,213.29449982193364L147.79052543881335,212.77722186175652L148.3490236750804,212.7064019034733L148.85159340817336,213.4870188907389L149.47557722239435,213.78261663297963L150.99538862485497,214.01790272985L151.23773830012942,213.59084224544858L151.2909265022281,212.26724053811904L150.98251858802178,211.18917593444894L151.44319583969263,210.66528243901394L152.9443774140709,210.01057349634902L154.38288211978215,209.51106178839837L154.83840356986912,208.90618097415336L155.1048932018639,207.90575502686534L155.83433028887157,207.92505273750794L156.54676878081227,208.39956301361417L157.1035787699475,208.5100784619026L157.984228699308,207.70782465980392L158.91606663560015,206.57281305690321L158.66073581592354,205.7063216085353L158.824455411308,205.26847909792195L160.0965675171792,204.71732740150765L160.64148574013234,203.98368558526454L160.72249099222972,203.62486968059875L160.40665222388998,203.18398886640352L159.34423477136806,202.69106926941276L158.77668654020817,201.95991686115758L158.22599073807214,201.79365996153956L157.744311767201,202.00551015412748L157.12242394148052,201.6472439627014L158.03910448874376,200.19828137006334L157.41468066513335,199.4557243252566L157.40983344166307,199.21109814906322L158.84227667676168,198.68546109053204L160.55845695924654,198.74693165495682L162.02885171781236,198.41073366336332L162.02615261104438,197.97957674316058L161.69414825603963,197.6285994308555L161.66740652457156,197.0842688411467L162.0053397154079,196.7852635832387L162.63002644909648,197.0445075685575L163.73951661036335,197.04802525857394L164.60446430148295,197.40333903788087L165.26070910272756,197.3597391152971L165.21802193534677,195.43940813846802L165.39762651257115,195.13435713342733L166.2131357242397,195.24239349453637L167.20496338911107,195.13280627988297L167.69939360946228,194.51623553297122L167.9644948996065,192.99929531110593L169.05742862820262,192.33949062830106L169.39828090647643,191.84474104667697L170.5111170666023,191.27620587450383L171.58842699535307,189.90070628461308L171.7761553053424,188.30650026757485L171.73537331842454,187.93559053111403L172.94421773171052,187.82571650858517L173.67044343948874,187.53441828135055L173.50312440863127,186.23135713985903L173.7577061352058,185.9338276008957L174.34199095785152,185.90149856245807L175.4395430890254,186.40506527415982L175.99783237143856,185.9636597005474L176.13341804537413,185.07191759441048L176.94734147026975,185.0000526432941L177.78466520273287,184.6380751241586L178.37002932477844,185.26063972380598L178.96187998816458,185.4270989816232L179.53589161760465,185.0975142178795L180.59539445538758,183.53832529624742L181.94243907036798,183.59576838766134L182.46743683537352,183.34603510914167L182.84109743900262,183.74493321029877L183.83531541492994,184.21163335688107L184.32774581875856,184.59444346760574L185.4226200602825,184.30636067611886L186.31061595557549,184.3482505030952L187.02701888462616,184.00801627637793L190.40740944388017,183.7893655866028L190.89349738243982,183.49257728907378L190.90679758858096,182.73613130247395L191.16893559751406,182.04662603575343L191.7701925256988,181.6029198765118L192.56358027264287,180.76590985138319L192.68322456859823,179.61158811206587L192.84075032483452,179.33071451517117L193.7369218881795,178.7980620234448L194.0917901466455,178.31382463128193L194.98613693102743,177.8818043027959L195.49350353418777,177.4468257998442L196.35498086004736,177.3685066216549L197.50838899455994,176.73935880372937L198.56993175135358,175.84733465143472L199.60492119559058,175.19522878891803L200.15786054998534,175.222118515062L200.77567491050286,174.66333051729816L201.46482242603815,174.65216017316834L201.97960414920453,174.29833128126666L202.54603122744084,174.2900577590135L203.0379167071187,173.6057314296204L204.20199726724968,173.6965673358809L204.41193105249113,173.2417447787684L206.46768979578337,171.8628370005281L206.6250169660234,171.02047716647667L207.23527726408065,170.16053693666072L207.7573177817867,170.25700904784844L208.22618313599378,169.9449461636941L210.06671912096863,169.90299547195264L211.0269237562643,169.4297770375979L212.57470846556316,169.39915412532628L213.39459528719453,169.1554512314442L213.91808739545013,169.4961842293078L214.10038331683245,169.97174257518327L214.5280225098395,170.26394658519985L215.6252642241525,169.97651300163034L217.3004911536118,169.9540737917432L218.29319081233916,170.22517831392815L219.09888562362175,169.96800022721345L220.20537668886755,169.4116548966931L221.52256530813975,169.6048256438553L222.98451282308088,170.61413237307534L223.44493906525895,171.30533335804284L224.24735295170103,171.44969622691406L225.32090664314455,171.22520194662593L226.07024387244746,171.19544128140205L227.24509366628263,170.47364324452337L227.7300634801868,170.47243304957465L228.41112871928271,170.12305319188454L229.1974680982712,170.13331220255805L229.64437673133216,169.039368329667L230.2826743726655,168.52020776972313L231.2176346660017,167.26006185577808L231.6400209943713,166.50559958260055L232.38928674045746,166.24355154029035L233.8132930791835,166.05077940111642L234.9650250601262,166.3382119032458L235.58384149942867,166.66449418718457L235.66951122401224,166.9582583422307L236.3265359507932,167.4495048900535L237.1616726015236,167.37441940001827L238.17024206112546,166.84731236101288L239.12310554004944,166.68119915320221L241.3503631052772,166.54230470254333L242.42066642578357,166.1109178145016L243.97880635859474,166.41597404066215L244.82745808065374,166.32350298715846L246.06485375753982,165.71907213541L246.63164542722006,165.66770713962524L247.44080715062591,166.44070281007407L248.1457301983719,166.47898229075145L248.9705001127877,167.0014797499398L250.27972790987405,166.83609257748049L251.02898833574,167.06870870192597L252.22093554024832,166.98076564824441L252.84676324224347,167.5022373745951L253.34147240073435,168.22755918860912L253.7755611880275,168.29131805909947L254.18582287397658,169.00507325317813L255.06238662942997,169.8431042040138Z" fill="#FF7B46"></path>
    <text x="200" y="210" font-size= "4.5" font-weight="500">
    बैतडी
  </text>
    </g>
</svg>