<svg  viewBox="289 165 180 180"  version="1.1" xmlns="http://www.w3.org/2000/svg" xmlns:xlink="http://www.w3.org/1999/xlink">
  <g>
  <path id="path-0404" d="M411.2963397244239,201.6168708689247L411.92959965157206,201.78949337137146L413.3578065420661,202.55853380517965L414.84351837911527,202.97881745926225L416.33144881465705,205.12039152309808L417.0235189430823,205.58131338077055L417.2698049908431,206.46336665685703L418.0367052397123,207.6072273464606L418.6400308253469,208.99328429624438L419.93049862196494,209.54967781003415L421.931220202634,209.99401665022197L423.41973651863736,209.54552245287778L424.177526839394,209.7232378630615L424.6124423211004,210.2255172257237L426.087414567206,210.60872557590847L426.2016132188255,210.91810181696474L427.0475929225431,211.35047192959792L427.9435920111937,212.18630422935712L428.5330799042058,213.11615207889463L429.1895772639946,215.0726444803031L429.6655968746054,215.81808236764846L430.0461160785271,216.87888600343285L430.58901437399254,217.33939435471257L431.7931399301415,217.8958338089842L433.10386468197976,219.02711944586463L433.5333205799543,219.8426241813695L434.7277325215291,221.14658886794405L434.9292587247546,221.6939685900461L435.71628783086635,222.95900759741835L437.0117683533026,224.58365264562326L436.5380059008421,225.26657062424238L436.62577349142884,225.95978827254203L437.00741898379783,226.89414027394014L437.4621467831312,227.29533823433394L438.58345141084646,227.9063078984591L440.09059114517004,229.49837489917627L440.7323506874127,229.83568302802087L441.4104051555114,230.57695864918878L439.7692202422404,232.19064394162342L439.72021360137296,232.64725520609318L439.00940395413636,233.18417750863227L438.0470312894795,234.82712909187285L437.12749507197805,234.98823488183643L436.13276559984297,234.86802287102273L435.3976921415888,234.99686292622937L435.2818883257496,235.36680244793024L435.38609479712613,236.60649676919184L434.83745617626846,237.2649515093981L434.75623427972823,237.80129930898875L434.9707435222117,238.41041190614396L434.5904297868001,238.6852457945979L433.93221414292566,239.87456768444645L433.0561398805148,239.36252135024097L432.7800777930461,240.179448562375L433.1034334951655,240.85342664329255L433.1199934195465,241.50821830874702L431.94209233190486,242.09773102746203L431.926503341685,242.44191220773428L431.2935770787335,243.34667653137967L431.35145519009166,243.8172191180838L430.95417665003333,244.71025992483465L430.74378625110694,245.7822136197492L429.9087248969008,246.87480939778197L430.1099818159928,247.3299313091411L429.90486147915,248.9933693357616L429.9680881883469,249.5336363066217L430.3778045031504,249.6438906839985L430.90082869802427,250.81747834201087L430.8161625887187,251.44284596863963L431.15168151485705,252.76888274394696L431.10652779007796,253.51989934016638L430.71425005172205,254.91326581748126L429.8956941236829,256.91000666726904L428.5167053812693,258.07408834773196L428.41326240160924,258.5888983146788L427.4676960763536,259.87355750700135L427.2431760792242,260.7486966085007L426.8779850392966,261.1266464024884L426.6902964888468,261.76495348326625L426.9561434730058,263.34212723876954L426.8846603126294,263.6335035338352L427.7442410902695,265.30245047433164L427.8302255405324,266.70078550685867L428.43612503768964,267.5679943145533L428.38328672956413,268.05410566346745L427.5882411634884,269.20326474379635L427.38128919506926,269.90957355979026L426.6985871735742,271.4485877555544L424.453843271418,272.65176391879413L424.2533408877134,273.5200698668996L423.2699081906103,273.8159019369259L422.57990225619506,274.8155245899097L421.71992063676225,275.36452550439844L422.001516664237,275.6966257729355L421.7787485260669,276.5353578552995L420.92225727026016,277.81471282209895L421.16093083958185,278.3284182289117L420.3819198468409,279.1346735084717L419.3359420688721,279.54508995445303L419.14543239652994,280.2381339442718L418.07405014353935,280.38573975776853L417.69454607677835,281.0452613539064L416.22118830609907,281.1944034590997L415.84868743702464,282.2170001665718L414.78862031482277,282.9503269422221L414.1992864605745,283.0271757438204L413.1942017865367,283.53342923195214L413.35572581004817,283.9802485121545L412.91350471212354,284.32748153766715L412.72916567910215,285.3471490542279L411.86257847164234,285.365522193566L411.921480166151,285.77758483931757L410.50987093651565,286.0908027144724L409.53042728507353,286.06532874495406L409.053915214914,286.6805870711278L408.46165531651786,286.7607631867986L408.3339187471938,287.60426190199814L407.62936811464533,287.7049085315957L408.0320186314493,288.033100341685L407.9366297583365,288.734654154674L407.0392884847388,289.1117804851574L406.83453307811214,289.73887314071817L407.2440366084229,290.34859186786707L406.8705137728284,290.7787682915523L406.2202245734006,290.9917248185775L406.034822025169,291.5679869378264L405.1246130780528,292.45451501550906L404.40488624067075,292.75090729583917L403.85169904042414,292.51117313917894L402.96617678838084,292.6777147380635L402.5064816550039,292.7000623032054L402.46088232652255,292.7191800597402L402.1714519826892,292.79743524033165L402.12649179695654,292.83908643733866L401.3691921099271,293.43943578925155L401.3093344115259,293.49980320389295L401.2488227171634,293.53763717815855L400.1505880886107,293.80961547865627L399.7693347872555,293.9030825464488L399.5232337676025,294.09036507757355L399.3570206003351,294.6120237501809L398.81681496761666,295.10494588264464L398.4797976716545,295.33907921415266L398.3501010180116,295.46890481930313L397.7963382796661,295.416419618854L395.3101074520455,295.81586657969365L394.5911531501806,296.1210523547343L393.6500539523877,295.75248103483864L392.95306755163983,296.04919970546325L391.174731296509,295.69754528104113L390.38538497076297,295.1494169663292L389.84454031557834,295.6263859322298L390.24697409243527,297.0086144633142L390.8453190294895,297.4321805025729L391.9150116681376,297.4665358250304L391.2913938796628,298.16787509344795L391.6110233085019,298.95083695236826L392.2752129455621,299.36930705984105L392.08854373075155,299.74079255926426L392.2756219324365,300.5163295211278L391.6506063785346,301.14044310369536L392.0551448272745,301.54886115070985L391.52822203456526,302.24357405394494L391.3943233278842,302.44634749990837L390.9578704831147,303.0577282960785L390.70016688681426,303.13887948476986L390.42396231619205,302.7877362808158L390.23664264315084,302.5672322313785L390.0524155393032,302.5016994562284L389.7620918768407,302.473882532744L389.6569267441919,302.29333434150794L389.5431334577661,302.1948098297662L389.18320799110734,301.4631987105304L389.39783432721015,301.25051641769005L389.4206852806783,300.8317979003896L389.2962564694353,300.70588286145266L389.04601614644343,300.3864970147224L388.9418620309225,300.2558283934968L388.9004502423777,300.2197636360406L388.125813048493,299.8899882140886L387.55583105195547,299.8660525412897L387.25198753627046,299.670356421605L387.2708943630496,299.5969775855028L387.86740929638836,299.1195918417843L387.8450528781723,299.01066813464604L387.65561617740605,298.39439533175664L387.58356181700583,298.3501910858131L387.31679399480345,298.244717315305L386.93584615992586,298.0133729095105L386.9369409721003,297.79513857855L386.943531951114,297.59888801604484L386.9717358835951,297.471366367914L386.6451289378638,296.8659093937731L386.56315300344795,296.8441941916735L386.31813180615427,296.80688488347096L386.02560779743726,296.6750605991683L385.65589995290065,296.2432321848655L385.2993000136448,295.42962720935066L385.1641264799,295.0130501470385L384.82639938304055,294.65853607441477L384.11655736072134,294.5773702963306L383.58306693236955,294.3986409857225L383.552196215649,294.12130327254727L383.7760746278982,293.8314099894278L383.7565827293911,293.61308686266784L382.680329146202,293.04115213277146L382.618345524952,293.0060977669391L382.1879681061364,292.88886222042765L382.02435824227723,292.86420720963997L381.819648959201,292.8259911795694L381.5894511994338,292.77914539946414L381.5371363591221,292.707119388866L381.51649958522466,292.4298112274555L381.53540642122243,292.35695228369514L381.61106308750095,292.04617665922433L381.648995574782,291.8999091737787L381.49782448232145,291.4564764211973L381.3344376755449,291.4446997859941L380.8242701340132,291.42481830504494L380.6810390244791,291.3997025034232L380.3462565091286,291.2270156513605L380.2396047869406,290.9826994688656L380.1963046490164,290.84689043691014L379.88317954052764,290.7375702178806L379.45372421938373,290.6799138685037L378.8143352678526,290.03815873727217L378.326013357786,289.8360783053422L378.16865782358946,289.8656104222582L377.869409599356,289.95154521829045L377.8076638145285,289.9256111769728L377.73117864619053,289.65350277716334L377.57150810786334,289.0411658482817L377.5642278177802,288.93228647565957L377.3631412105897,288.8163693525321L376.82534443337136,288.69243634692157L376.66230915204505,288.43078648347273L376.4807188218874,288.00553545664934L376.08655036416894,288.4622709938776L375.21760346200244,287.828466314857L374.2261820477979,287.49676326801364L373.26719748289906,287.0230707655537L373.1849093710334,286.98797215463856L372.6551618343801,286.7997956671861L372.1977208912285,286.64239544517113L371.5834702407483,286.32528795229064L370.8631955292549,285.9558664852484L370.30627670900503,285.53758781836314L370.1723440459791,285.525409662765L369.71615612616006,285.6372373347949L369.5268848325868,285.86995717958416L369.47482577881965,285.9631219896846L369.3491395060955,286.0919968519074L368.8174680198281,286.2556362889027L368.5360282324,286.30578762001096L367.5015649817942,286.1285960553578L366.85458513094636,286.19060652980534L366.70918555387107,286.17089759602914L366.40561032125333,286.0193622832303L366.29114959314757,285.9681030697848L365.93989555101507,285.83469032254925L365.565369588312,285.8647605530259L364.8387771964044,285.99094134138613L364.6653791252829,285.9722429109779L364.24439226176764,286.01721237766833L363.3053205080396,286.0136174716372L362.80323209734706,285.93721654069304L362.3236005030958,285.78954598980636L362.0073272776972,285.71845988419955L361.61458973339904,285.67721655987043L361.06601433499236,285.79858188797516L360.85101314445274,285.8323482660744L360.5834466118031,285.894932130941L359.83415857152795,286.03241711447845L359.4064435287546,286.09620663613623L359.12342978291053,286.1710898127285L359.02770103043076,286.2175099048227L358.60324216147274,286.4480795658883L358.3770131617275,286.5477976700622L358.21968899746935,286.6610763637145L357.8521301510955,286.7368372346127L357.67332726413224,286.8087777082892L357.2997721442807,287.1108089474328L356.99816393205765,287.2816786583071L356.10133220085845,287.13414825568543L355.97897069626924,287.14295854902684L355.4746687504776,287.0462819902241L355.1841666329201,287.0048291130415L354.21427434004363,287.00570568837065L354.00433976474596,287.122104524713L353.8442432866359,287.50190774678595L353.69027711505623,287.6731465115672L353.53182264714997,287.7129872723035L353.2304487864276,287.7165717482785L352.55238212568656,288.5917326457384L352.4589320526575,288.94864489260635L351.7901749836383,288.8961465311677L350.1894659020909,290.600409997458L349.77449950980736,290.8927867948696L349.004824405878,290.6089990724213L347.7141381613401,291.02280563889053L347.62630416303364,291.4575079531496L346.61656433960525,291.6585569857589L345.63142751765554,292.15943268841056L345.48275179794655,292.4669266835235L344.5904408345923,292.59106011758104L343.9983784318647,292.89226288934515L343.0242420149443,293.09295485886196L342.34882465283954,294.24664217280406L341.2074826891694,294.36179279617045L340.2590922697418,294.82698870879176L339.79650451803536,294.2817963323014L338.96636513116755,294.1799110233669L338.31793111100706,295.0725842303036L336.4517515805892,296.1801980740056L335.28126616397276,295.47448992575573L334.9506500556272,295.6792864811541L334.45768864459023,296.71979868062226L333.69648138792763,296.5082306930635L333.0731744576515,297.1608190430388L331.3676951959533,297.6217486356127L330.9785684639137,296.89502494327826L331.08018035367786,295.39316984120705L330.86840674452833,294.8935603766995L329.92219805338027,293.7540836191238L330.56576088798465,292.8966143991702L330.7542354215293,292.1751401318743L330.145135127852,290.90216572693316L329.3801515437117,289.7479807959053L329.52373681453173,288.89827305813014L329.1329871288617,287.97047147221747L327.93277407255664,286.94752794051874L328.20585841073625,284.98102379461307L328.8487135932519,284.39701588835396L329.96751818939083,284.0379489000761L330.1207887208948,283.992092385306L330.50839277761406,283.5723137092209L330.5887363170623,282.9134059903654L330.2039648391583,282.35185825169174L329.5949687755274,281.84947726527935L329.4467747775052,281.72696415143764L328.8436703711159,280.9639704826177L328.7003890667329,280.65006411874856L328.7562007041197,280.28603745057444L328.9602659195116,280.05310947879025L329.1030017875928,279.8211479597394L328.9955329152872,279.5619630055835L328.84222830186263,279.38475772073434L328.2646613085599,278.85348532271564L328.2236933507811,278.72633612464415L328.24887725627923,278.3531450444634L328.24322190492603,277.7884721452165L328.253273317554,277.5702377273901L328.4776709454127,277.2467151917708L328.4263626524771,276.996233791353L328.2014791753936,276.7829790725118L327.99207312349245,276.58315208768545L327.9103635772408,276.51062150098096L327.7112073085518,276.3612383789059L327.3231415837399,275.96165820583246L327.0831938074589,275.59396718361677L326.970839710415,275.4120080071816L327.50726624621893,274.5966811744711L327.8494762949704,274.06367154511554L327.83398141381986,273.91779112464883L327.83398069711984,273.8813246732807L327.8645921389689,273.81755618635816L328.2683461157394,273.6214035237108L328.25792927789735,273.3843643238015L328.15035855957103,273.2334943971082L328.0225299878912,273.18826608718064L327.66456494583326,273.1882419034964L327.521423663904,273.1971267754134L326.523972053521,272.8647107287934L326.3398347092152,272.82796489337215L326.2170570685921,272.8234808940497L326.1557422936603,272.8099795979515L325.99196795804164,272.7276912328016L325.950971715949,272.6729401998555L325.7922132403619,272.3584399334595L325.76642393345173,272.1578525703935L325.2750466435209,271.4160389612898L325.2644857317755,271.40583445958146L324.86571699968044,271.3231932249273L324.1092823547151,271.34512932320376L323.5982413184829,271.463419217961L323.010736900771,271.65883200563076L322.6631539705231,271.64010653096557L322.3818594445074,271.52119013243555L322.3408766253742,271.39352105255966L322.3660023586963,271.0836078253842L322.37596428266625,270.8465980252422L322.3399703888608,270.6277701701447L321.98697682955753,270.40419393742013L321.7209499932869,270.20756143180733L321.6390017142039,270.07981871467655L321.57729493181614,269.7698028509367L321.6129704605264,269.6604475126478L322.06745908083394,269.2460301236433L322.28222584191826,269.37824183162775L322.4049447922989,269.4197121711959L322.74224787166895,269.3697828405966L322.84960696060807,269.3334781285248L323.40141919643065,269.15623227363267L324.21390471056293,268.8517731583561L324.2034295354242,268.6694410694963L324.2645772431606,268.4957825833317L324.3872048290177,268.4230408927451L324.96962742770484,268.12736400886024L325.33182590098295,267.3846905717646L325.49026321856945,267.22941977571463L325.6894111577676,266.9557029453845L326.2838326129058,265.7720566810167L325.9682410664718,264.86265811586054L326.1124098608525,264.233338552669L326.4553384565479,263.98611895216436L326.3797656233437,263.27549225858L326.85212277260507,262.10777133102783L326.4795772545476,261.6310098323238L326.6239359919091,260.8424410708094L326.9983598480394,260.15771272450274L326.99929887733015,259.5700013033065L326.6931634429857,259.1384096500551L327.16497790137873,258.321360812507L326.82377875414386,257.38884993761076L326.892432821056,255.98510601357611L326.45084524108825,255.3141302048516L326.55520384474585,254.5195907991383L326.4059178497482,253.25332357569005L325.74899172596633,252.82975849976992L325.7749786980203,252.50861570069083L325.11760821290954,251.3949212706957L324.3398550715574,251.21092256929478L324.07528013138653,250.82496163082396L323.00960464985474,250.35688559227037L322.3311516956128,248.95796596444507L321.50952012036214,247.93261053600145L320.6604728579696,247.08633475054285L320.9103838840492,245.78041623013996L321.67170062866353,245.5288973896686L322.1186420432896,245.03245664082715L322.5130123182971,243.51869943765814L322.9615731978156,242.29405866796242L323.04105582803095,240.91874515933068L323.338463843691,240.16846759801138L323.95762875408764,239.63635985548717L324.09232461423744,239.18718921175787L324.95353772784074,238.5809268058647L325.0145154527927,237.32517303728582L324.8631661480031,236.12809566444503L325.17310649170395,235.18372137515598L325.5970407027344,234.71945464335022L325.9420574338619,233.41481214981377L326.37079310039917,232.39503738477015L327.45899180172637,231.64923346545675L327.99250519469206,230.75244776748968L328.0030517757441,230.04034932731065L327.72097587504686,228.71756506545717L327.9571036730049,227.45300024359858L327.8971072901877,226.51182532731582L327.6492091282598,225.95054304983387L327.0792929609852,225.48581643593025L326.746324621261,224.66111557470322L327.13052104291273,223.19140061177495L327.68052062531206,222.2474385531341L329.63417728441345,220.74542157529595L329.6700884309248,219.7888713639859L330.23426324196043,218.35970489832835L330.8372166303561,217.50491026680447L331.28621041121005,217.14640326241442L331.98088404283044,217.08859574047892L332.35121233418977,216.61362015810755L333.7054837345131,216.137678598624L334.35059951648145,215.71951508059192L335.08777911179277,213.21563314103878L335.0533669960532,212.62251557328636L334.5810467363626,211.89615007654902L334.82611548106433,211.34589664705254L335.36361819477315,210.8894858943886L336.1743352100457,210.55315018533656L336.7760916664847,210.01162531160026L338.7159182676878,209.18310129839938L339.50372102473193,209.06773324683127L340.2029910104393,207.859413168846L342.03861974444226,209.16662093666855L342.53046172482937,210.1140574051342L345.44215122777314,210.5453705150794L346.5947097658245,209.83093704767725L347.105706177721,209.71838069611658L348.33672770588964,210.13344013330698L349.2033269405729,209.99865670659347L350.3827461959336,209.5798757610455L352.63902184574545,209.4478482432387L353.5796766845997,209.16159793787392L354.22367810724245,208.72773375078214L357.7842890394204,208.89738425395808L358.39720470611064,208.5750439769654L359.56902978137805,208.68959407943112L360.71408312352287,208.50274314908074L361.9651242014079,208.77896236102697L363.2513412237131,208.47997675020815L363.91013372527595,208.64422134870165L365.22093567090633,208.47835641795973L365.07513835685313,207.88222523232525L364.54288712371635,207.27109763834142L365.2583465214666,206.77169667382623L370.06949072266434,207.81000102738926L370.88676566778304,207.85151979632155L371.86642939006197,207.03024445092797L372.37639925461554,206.83443167794303L373.788517775276,205.3002640002942L374.9207954874437,204.28973209108608L375.39868606277014,202.81607927311325L375.4739050986864,201.43718614784302L375.31578381707004,200.3208402329492L375.4590743087065,199.6129434078266L376.7917897556981,196.75318104928283L377.50683644148376,196.41438092958833L378.5285817449003,195.70391535223644L379.0552982944173,195.1221967548572L380.0886759985515,195.25632641179072L381.2726306698023,195.09607816078915L383.32218154664224,195.87923494900224L385.0213801506761,197.04472302568138L385.92415905557937,197.4939069556949L386.8932455993163,199.5267434482612L387.55755435454194,199.96871214126168L388.50442754350297,201.6240507889661L390.2549531245895,203.94980967101856L391.8610244813244,204.52871685908667L391.90733414699935,205.11388741290466L392.9188616911706,206.6618013368943L395.20859768761875,206.31409353754952L395.64847368254414,206.0658473791027L397.2453675309516,206.0015341680937L398.03000166839774,205.64308109255126L399.9012852843007,205.0646386454937L400.9819861099386,204.48433713884606L402.7061634433521,203.95482590761367L402.9953524209559,204.432108384638L404.35011052316986,204.51733366732878L406.94841313692086,204.353483012962L408.4224716666504,203.6388063891045L409.7445848782736,203.12733418986863L410.42071193831,202.59391813241655Z" fill="#FF7B46"></path>
  <text x="372" y="253" font-size= "4.5" font-weight="500">
    लमजुङ
  </text>
    </g>
</svg>