<svg  viewBox="44 80 220 220"  version="1.1" xmlns="http://www.w3.org/2000/svg" xmlns:xlink="http://www.w3.org/1999/xlink">
  <g>
    <path id="path-0407" d="M226.17069676045867,151.60231162526452L227.88250490630526,152.81686236235328L229.5897884885744,153.56394485784313L231.53942952964644,154.10810398400827L232.37459858791044,154.72411378520974L233.25396151278255,155.60820680800316L234.44660873998146,156.4066323772904L235.65208434657688,156.95631368149043L237.50715657240653,158.36369608076438L237.95741965786146,159.11330811211792L238.8284799988105,160.01631034573256L239.99887200906232,160.5597535345605L240.63262816663337,161.06950134559247L241.19524112482395,161.79008707101457L242.04079333839036,163.19295450043137L242.31372826284132,164.2211103556001L243.02526479850712,165.1597942218823L244.010433254276,167.06983248887718L244.02493692652206,167.41781553183955L245.31795164512005,169.15278056897023L245.73773478234943,170.60764337453475L243.56202259548445,171.39639121626988L242.3880355994661,171.58795073701822L241.72037253580493,171.9988655099869L240.95143138104686,172.7477089835047L240.25705975656092,173.04123346544566L239.22215500527454,173.02149353346704L238.51706348635344,173.52903375308415L237.35901892472612,173.96742093623106L235.81714383454528,174.85030329603978L233.59792448816006,174.78989645721686L233.24012544873403,174.9094018661972L231.8753615347705,175.80887334686395L230.9310700895585,176.2037500432598L230.14577849686248,177.11159030846466L229.17609307345992,178.5323399612471L229.02112796021538,179.26556255631203L229.42996441208743,179.97973382137297L229.88779566086305,180.37264330432845L230.22186545609293,181.33787702714017L230.41258739276964,182.37678848640553L231.25794370482254,183.64265821518984L231.69306035716727,183.836153888411L233.13293099461953,185.64283174023603L234.20605191259892,186.3486895673941L235.29785356781213,187.57251891838587L235.3442394989761,188.2840220305361L235.5978091479301,188.7335727235868L235.26896248545017,189.7833652300842L234.0361057736627,190.43215962267186L233.08339325561974,191.6323874946047L232.12521882183864,193.0439276311481L231.35906190930473,193.38171792462435L230.1555082961786,193.14212727357062L229.2881450813402,193.6935187857316L228.51718748940402,194.6373202767063L227.7278659165204,195.30982964359737L227.3311002244227,195.86541767035942L226.32757925566693,196.5489964712542L225.85884912974507,197.0977527749901L225.72719970187973,197.62881292051406L224.72673615638996,198.19180736431917L224.23030679291332,198.853751127921L224.06520159386127,199.83530215136489L222.9319450385592,200.93745215413128L222.50194413707868,201.82988354057306L221.79844377399422,202.4423519582342L220.70047165428332,202.41741395698045L219.6108576385741,202.9362192484723L218.06587048092842,203.43869208471642L217.3758743383696,204.18422190128604L217.88459985649024,206.46490343996356L217.52848471229663,207.6382514825691L216.8133528166436,208.18114419711583L216.4697097911485,209.11425923558L216.09080478646865,209.26831520231826L215.52837140857446,210.14660764281052L214.47839858899533,211.3186293154431L213.77751193712538,211.91034671934085L213.5838175046665,212.30430592370976L213.93263198180284,213.0371793675913L213.5827189774791,213.87488763392867L213.38942243086422,214.87531849054267L212.52570255307728,216.42667737015472L213.07625849581018,217.35594663436405L213.63096293298804,217.74416094279968L213.8307411442438,218.5743745522177L214.1997249341439,219.23054195550048L214.88827260354083,219.62012081310058L215.54596471348486,220.50848071893688L215.99791126164564,220.7575151282972L217.20462080161815,220.5869142350657L217.91177209320085,219.81348841070667L218.40087811435296,219.88016038415572L218.89588988780815,220.4122806034402L218.89696721361906,221.59036174642733L219.13342317555362,222.67471095732708L218.50372239489297,222.95574222879168L217.22050977436083,222.6856574629046L216.42309590213335,222.741817396407L215.82873736315378,222.57454123855223L213.73440666109673,222.6396479317873L212.03370851384534,222.18826219212588L211.24421300944232,222.32442533148696L210.0787734791047,222.11336833388214L208.8340559547978,222.36903829524545L207.90652560518356,222.34846468393425L206.46563641674948,221.62548549550684L205.47496076238895,221.402958607272L205.10125611093463,221.64670258801198L204.7731409706721,221.36215052098032L204.1617197442356,221.389238450618L202.92082364301677,221.85853773955841L202.2302788173256,221.88531491954836L201.4897224574015,222.66292999271536L200.88307461395016,223.74856928582085L200.74237760874166,224.96129193181605L200.3510888882265,225.32308046063827L199.7653088125262,226.35078906628405L199.68006002695984,226.8319690054741L200.05988426062322,228.13731305552756L198.7959485001411,229.27120783249393L198.70467878419004,230.24948996415878L197.94510881485985,230.9591336794847L197.75260886740944,231.68188493038724L196.3806244602565,233.29926235584844L194.99940641420835,233.63247185937416L194.44408228977045,233.45906036997985L193.6509785556991,232.87874348780133L193.04460251631463,232.64863525595592L193.01162482903965,231.69746343264524L192.10688837131238,231.36627857623625L191.4003318878822,230.62813724917214L190.6786799850015,230.43376933158197L190.09132034257345,229.64332548850416L189.28400732927912,229.34091126314615L189.0332387712333,228.55924107296596L188.46783837972544,228.08514134982943L188.06467639643597,227.3848582018527L187.914301289813,226.59864121377814L187.53214098819808,225.85112221806048L186.61389282845266,225.7694689645059L185.12078127375207,225.137144053866L184.55473612611968,225.1221054671587L183.90960393220666,224.68745901517832L183.08268515279633,224.4147529685124L180.30372715178964,223.25069093557522L179.48098866032524,223.3180212853822L179.37440847653124,223.69422869265145L178.53244286536574,224.1766676194502L178.36581268659575,224.6549522202149L177.27560361643918,225.91354308470545L176.34592408259414,226.1282112770159L175.44373062029263,226.7337011556374L175.24574381241473,227.1450692097842L174.20359396496133,227.30544790507338L173.91079327496846,227.44417324171445L173.829015172676,227.66643401243618L173.8718793249609,228.31511993143067L173.39811616047155,228.99386307182976L173.27043042032165,229.42378265553725L173.3359880280659,229.94638797055904L172.98979640791367,231.2199256745189L173.0862744579499,232.30546528858758L173.74211402139554,233.42462591556523L173.5317901660128,234.15562132442665L173.71670873633047,235.44678278664833L173.98368351963654,235.51779552090193L174.89386808622658,235.6913503138221L175.28664379949623,236.9765225578085L175.46029518940486,237.0456947915127L176.4399868737164,237.66413902955446L176.94167810743602,237.96663213575903L177.189480799414,238.223260041329L177.45172345955143,238.61390001725977L178.32375961087018,239.29869843001325L178.58842037670547,239.53222820295377L179.02031728380098,239.90735813817992L179.34184782634475,240.73486659566515L179.75183192167606,240.8902327508913L180.3119713713313,241.2145751428625L180.51007402230607,241.4257952844082L180.5427611077248,241.94101871951534L180.76452795039222,242.30284265436785L181.2848348808766,242.84075565869261L181.43134412133077,243.4199979054638L181.45392813938088,243.7872464995571L181.46979303476473,244.65051297417358L181.56654755886484,245.43419081175762L181.47739910874225,245.49397926723577L180.42365116044311,245.00213627583344L179.4659663037819,244.86341468333194L179.27324240678354,244.74977001936168L179.22740461658032,244.7252468385568L179.0937806335969,244.5368859530381L178.6575136407082,243.99286671803202L178.59490515731522,243.89974827017522L178.1342032454122,243.29144152836307L177.6753149780161,242.76411846768588L176.81101161108745,242.55656230316526L176.2166531850744,242.39270242686143L175.99961635621003,242.3810304540757L175.430312537992,242.06267432747063L174.14533274773567,241.80716102477618L174.00545559889724,241.6226028448409L172.6406948253316,241.1641709892665L172.12471788943367,241.02909688646469L171.31929889545063,241.12819951378697L170.4231604209308,241.46732837057607L170.18660895911307,241.59357555543193L169.73214481654213,241.73395207629892L169.15953508539314,241.75084951129975L168.96464437745817,241.73004202825723L168.37901099656665,241.8896414969222L167.65076282244263,242.4036136277291L166.8391824416176,243.43159288058177L165.8701085400171,244.2569072510596L165.321478402082,243.82444279515585L165.04013492727972,243.46079270175778L165.01243143517058,242.56698672650236L164.84357095143423,242.142879415911L163.84976794218164,241.48566653672333L162.913945229222,241.24119934122064L162.45086611133956,241.37848635371938L161.35477778968925,241.21987732400794L160.34368372986864,241.25190254803147L159.73304609279148,241.086780295238L159.12329231695185,240.53345020540291L158.23045223098597,240.13667002106376L158.0706391131789,239.80158226892945L157.46422161046212,239.7308716181351L156.9368312694496,239.27325912505694L156.19107705115312,239.31891632864335L154.1124182186577,240.2505864188579L153.49110427987398,240.25558652901236L153.1807209863473,239.80582855761713L151.92782851853917,239.76502843724666L150.49679661036862,239.52924322529452L149.52429751736054,239.0933240553395L148.9129827720244,239.25229998511531L147.6652687332171,238.92532369465061L146.9928436204682,238.88025190102417L146.69640701006574,238.39883997231664L145.75524468836375,238.55275556625202L143.78639913024017,238.05186507843337L143.5155934450704,237.25722767463412L143.38758416840938,236.28613817941095L142.90650016402287,235.4918306722975L142.0726326216718,235.35049284759862L141.26964931479597,235.43211224829247L139.4741489721091,235.3039788904125L139.4892879007857,234.69584339418816L139.06950721112662,234.09705743871746L138.06647549171612,233.17526624162292L138.17866612546277,232.57639818433654L136.68051722189557,231.8171015659982L136.3433987025237,231.40352821140368L134.5213690853925,231.2050023930251L132.10287642839467,231.86716731832348L131.2668271127477,231.811922949968L130.3439409116836,231.52060615099072L130.0018486802437,231.22024961448642L129.4363988586665,231.26516139492833L129.11138623738225,231.66504915142195L128.4853388327101,231.91883795565536L126.8531842543016,230.41154330212885L126.27934183101388,229.63936955535883L125.41046337724401,229.40584864253378L125.30328302446287,228.674962004201L124.99036063229505,228.26407686029142L123.03360054335644,228.26844294431066L122.46316372272486,228.51030319784059L121.50058072462343,228.54168884884166L119.8497899071117,228.07024895548784L119.09464384060993,228.659441627241L118.6128099188827,228.26391793265884L117.78576977399644,229.42937032195005L117.35258999225334,229.54355892025524L116.40521365837049,229.40773350425388L115.31953664322282,229.98417146821248L114.77528635878116,231.02818873266006L113.6128116001164,231.27744003738917L112.8425257661911,231.64109065728917L112.71588004891237,232.09323164411762L112.1189242998662,232.02708091989734L111.13158722410662,231.6052731226082L110.42059214902838,231.77351926283973L109.50082681547065,230.77231762639894L108.8704477287938,230.52408776947232L108.54029546130914,230.10862785025893L107.34314121676289,229.72180414750528L107.21760663931127,229.225936855064L106.53516287510865,228.7721292095339L105.96170558260201,228.7327746428391L104.84643551315821,229.0271366334373L104.97107483110449,228.51011367824321L105.92407707050734,227.66540067939604L106.66840322390271,225.92204214081994L106.12367990525308,225.49808891553766L105.71133487790576,222.98975449262798L106.54479806501695,222.1676806582891L107.41606166054044,222.07249871665772L107.64493997802128,221.4755897565865L107.49118244974306,220.89140136926926L107.68303408709107,219.64105324954744L108.05089691648027,219.1570916259716L108.21727013662166,218.43396965443844L109.08503525500782,217.9152573455185L109.01888387604049,217.40299046686687L108.22700811162213,217.33148033781345L107.3402280056107,216.90981965750143L107.49162797147073,216.12725244531794L106.94714754508095,215.189605433241L106.25049359182958,214.97072796713292L105.81629075883029,214.38695961807753L104.56219498594874,213.52547915133982L104.4039587539628,214.1080975589448L104.01759743929142,214.26457461650443L103.91450796855133,213.06993314074316L103.4936543522017,212.27700627402373L103.4636602956889,211.2047602072662L104.12240391072919,211.1739137881059L105.20557087277484,210.61374100624926L106.55720235814442,210.36533363047056L107.06399937803872,210.48063734230527L107.60789211392694,210.17751987648353L108.67941603057989,208.9301148652812L108.90513192224898,208.4067032792691L109.47008615463346,208.07776935316997L109.9704053732894,207.30843191380336L109.9916193975696,206.70402479576205L109.15096223269211,205.67243101876738L109.05135101402993,204.618783132737L106.07900482529658,203.4911304926627L105.43949498198344,202.6623197630979L105.54646952776966,201.92609755235299L104.8527818293187,200.67937204958616L104.540802057174,200.63061114084212L103.83476443130712,199.8107880342386L103.7994461017006,199.1707620313091L102.31821615625813,199.23499731585343L101.87495186064189,199.39128210061153L99.95491406652945,198.84406140727515L99.0372543388221,198.4388891017552L99.90429967346427,197.56337040658946L99.8565713156786,197.3137655204946L98.02824661045815,197.2326452227635L97.5844027127714,197.3713132356852L97.00564407688944,196.60292746519553L95.89349145113738,195.99893803952455L93.858223852214,195.5621134823641L93.4088241633799,194.8729567331311L91.6536964138104,194.78161581791574L91.35481128456013,194.41281175526638L90.73506877556429,194.24317398473977L90.06462575434125,194.53657876671878L89.76655955507886,195.0675074322171L88.11235221257812,196.14573439927153L87.09776037148185,196.5613029832739L86.05064296987257,197.14706846082572L83.9097596437532,197.82997978232106L83.19973272370044,198.13287678567303L82.93364763922,197.97413662586496L80.97128032901674,198.34304791594695L80.54167629483345,198.2427009662788L79.35137000941904,198.66761519766806L78.72351390516633,199.09556629452072L77.92100391349959,199.05597737340486L76.91334651868237,198.56567839052514L75.96324152198213,198.64877028527644L73.37186636020851,198.21559285679905L72.59554639526687,198.3711694295871L71.54759643200669,198.11828150687325L70.77108134138689,198.16448853163L69.77034517096763,198.44807958973342L69.3825374431799,197.5002108863664L69.41112609463016,196.489028660646L69.73389746613975,195.37921202232155L69.68197183568918,194.6631935695441L68.5627905941983,193.0907720038349L68.59460392708206,191.36409045190612L68.44346338107425,190.92539646524165L67.58867064919468,190.13307016521867L67.05207598933703,189.90866467675187L66.07771509078157,189.16595226573736L63.91196655455133,188.20267618713115L63.09893770634153,188.01286952650935L62.70903276133686,187.70606711910568L62.97931921801501,186.95524125564498L63.05953037694053,185.53759522866585L62.32948177966682,184.2722286768785L62.684752904711786,183.20342337538204L62.47162297724208,181.6156149424587L62.99835337268087,180.95478537644613L63.704009775741724,180.46113426324246L64.35354643561732,178.95878286550123L64.39788688221961,177.54513312425024L63.84903211270648,175.39815320340404L64.206411404346,175.07464413910475L63.49173260771204,174.42574549112214L63.67117764349314,173.7522060206411L63.3075443756461,173.24041895418577L63.46186141154976,171.97456431835235L63.202748571122356,171.34144879280848L63.53979652515045,170.37519538888955L63.59374433274934,169.6129352013486L63.85529821774253,168.92920475209576L63.637582534516696,167.55536744777237L63.73549830830598,166.91079435963002L64.10440961287168,166.10730993102788L65.85814520276836,166.43626935160773L66.16547578710743,165.6905973306457L66.1783243351274,164.92056914803925L65.94240001513754,163.62940913820876L66.30421125749126,162.8174283672779L66.88102312533738,161.95633735570937L67.85506835746128,160.91681508767124L68.15585442084557,159.68919240946798L68.28767100951154,158.5521960578535L67.47972278789894,157.60786895431647L66.90791047529638,157.35475139733444L66.73051008186667,156.95968388990968L67.13705366341674,155.84019633885146L67.74502318629311,155.5295768463302L68.88333260384024,156.15703498414405L70.62388875012402,156.2455984373728L71.4597224519166,155.917492524326L72.063482558744,155.2911675562109L73.34423624136252,154.3951595120925L72.89068552615572,153.33157987869618L72.83984876309842,152.86543445520874L72.4219280778234,152.43004204336467L72.79122224826278,151.45561855971755L73.90594303740363,151.2083882308225L74.2100596125747,150.9544854851447L74.4871015260942,150.06591909103372L74.82982033026201,149.73241354745187L74.22327029729786,148.91105928546494L74.38276736620173,148.24521450614338L74.34494025386084,146.8932397026074L73.92758533412416,146.52911647717065L73.12691970570813,145.0355800112411L73.25258395832861,144.52972746117848L72.86292108426278,143.66842782498588L73.2996203116345,142.73808986720724L72.48218251023718,141.88432744763577L72.59431276260875,141.2386104679499L72.44886904338273,140.44012455767825L72.72695990358989,139.25502912914726L73.14143250459165,138.79077823050466L74.22145717374224,138.61132689466103L75.19899783513756,138.63145450222692L77.3875635021941,138.9524010589921L78.2724697484955,139.2696978039512L79.86526712189516,139.46262702949298L82.841901405096,139.62362967601257L85.56262226595936,141.04162047788486L85.85485309347496,141.41037994223097L87.6332101271837,142.24596184861184L88.47701422457976,142.39866273588723L89.83398908737945,141.9805936605071L90.43999718521809,141.6317846678412L91.46311457156844,140.43987510101852L92.49138322164072,139.88279287967634L93.07492341224133,139.805469559421L94.95777239725794,140.5840553265898L95.4827092306914,141.69898387775993L96.76010320299247,142.22691843089615L97.52180570560813,142.77119991217114L99.34691968180414,143.53479890623476L100.23417113375035,143.7615459806293L101.31902580029055,143.71863181184835L102.88254929482355,144.00774056845694L103.78015516428059,144.32139785060735L104.39982869237792,144.77435943394266L105.60646441961217,143.88806675200976L108.46842446444862,142.89930200424078L109.5326838703404,142.40478392831392L111.84158205146014,142.2411485245084L112.83828562602866,141.5888974998834L113.43021616721308,141.41753374396376L114.65173665733164,141.404399623485L115.76085518362379,141.02297870785787L117.31539977380089,140.91551715128662L119.0440191878115,141.2775116075063L120.79744150042825,141.5279823438259L121.93521806006174,141.46081081420834L123.25268642108131,141.98962103892336L124.62123783595962,141.8742896123922L125.10666164199574,141.25539320109692L127.55153939357842,139.41079521980555L128.1081460568239,138.32191924970266L128.33950851067857,137.15842195527875L129.6946234336683,136.56938385769172L130.60093240760762,135.28165306038863L130.91920357778145,135.00032965225273L131.79100501509674,135.08860844978608L133.71640297464546,135.55184426530013L136.13094153894417,135.5787532932609L140.06712992917892,134.22726869347025L140.63109429053657,134.19110579108292L142.3086454567092,133.64199016766543L143.53960901770915,133.43848771036392L144.6071934724132,133.60996042111856L145.42225959626376,133.14926829198066L146.45295368461302,132.82176816607807L147.61782046194276,131.8696432123961L148.19164534706215,130.9563998544254L148.89722142132814,130.93696033822562L150.3382072415261,130.55540057652615L152.1674350906178,130.50485492010284L153.4859588088766,130.2981723480152L153.7075807075962,129.3107537058322L154.3103411566808,128.46825918859304L155.66013758151894,128.59828512447257L156.93481646532018,128.5012994958497L157.52727301731647,127.88142104296458L158.13751772105388,127.71348814114754L158.63408178318787,127.88323144588867L158.93560528585294,128.72501425655446L159.3665057486869,129.04193133595436L160.25627837787397,129.06015859383842L161.952596991443,129.67765572829012L162.79559257772416,130.25587703493147L164.12731041562802,130.2742610262967L165.40874112242454,130.6097475763545L166.33951716035517,131.05426728615566L167.328002654358,131.7238083930215L168.38411916396217,131.82962677832347L169.50998121785233,132.41351802216195L170.1509455571395,133.1641965599947L170.75889054550862,134.656547461419L170.48556771919175,135.81775800680407L170.19198878831958,136.40960264730074L171.04946563845806,136.94832713302276L171.28046135070326,137.56580177065734L171.37026237624377,138.99176342261399L170.91485982080485,139.74551841380708L169.64091019935222,140.69020336727772L168.93548986178575,141.85231168014798L168.3009188863034,143.73593403337145L167.3524733653394,145.13697157468778L166.26865565167827,147.35029867246885L166.0774226951653,148.29196685782608L166.12927410128395,148.9840109899069L166.8542813434251,150.65445898130383L165.87568035109507,151.1216002820056L164.8080381444015,151.81429994620794L163.96689857106685,152.7448225920698L164.5652684042725,152.97438121135565L165.65602814192607,154.1201975503709L165.93825959222522,155.08653105187204L166.25114919143743,155.33103701762957L166.55518215896882,156.13482356336226L167.04188991165938,156.62646673204108L167.023639400486,157.61419442764236L167.42023404570864,158.97424470321857L167.65935567574343,160.42437163075374L168.68550598329603,161.6954671060039L169.35586485890235,161.66750193678763L171.67950802272026,162.7890879126071L172.0855798847224,163.41995827212304L172.022664405893,164.3520586862096L172.69272245491084,165.66840463065364L172.78716591073317,166.7565878792484L172.05614259838694,168.91446019192335L172.48465498884616,170.94097660529405L172.9903581808212,171.33024619084244L172.64427554569193,172.07129953219282L173.60955098459817,173.02747765741424L174.1829736784057,174.3575798719903L173.8989212895467,175.24642899014816L175.3391361385111,176.45637956209157L176.44237276368222,177.60148289712015L178.60100624149345,176.17716567393745L180.390876814683,176.30315961359338L181.42347199085634,176.72156471811468L181.79533076901862,177.0438004923799L182.5922116354268,177.09026649323005L182.94256203206533,177.37129776246184L183.70496642145372,177.31654953459747L184.4133717315708,177.65286178281258L185.63311059432817,179.19475664666243L186.61432771246473,179.5871829777161L189.09896619201754,179.93749061801282L191.0333592612078,180.04868779766366L191.06237955215693,180.65826334980102L190.43993005267112,181.07762915612057L190.16781493524832,181.71696168590643L191.17034235747633,181.89072283900623L193.87534287693052,182.1523342542905L194.68002035429163,182.12509485672035L196.24823768932765,181.6151205953356L196.74837977024436,180.1558025528975L198.00787067403144,179.6256315749979L198.47550273310117,179.13441957227406L198.46714130794498,178.4185934719535L198.7004338225961,177.98478063171478L199.42977731399878,177.29455159014014L200.18559992120936,174.8492697332067L200.99456639552955,173.87148206865368L201.3619085768405,171.06896886634695L201.68642592395554,170.4210202628601L202.10372505689156,170.18627714559807L203.6552258874217,170.11035004283258L204.3130102004725,169.6321917745554L205.38794178164972,167.98473992744675L206.14228313976855,166.52247700162025L206.35066181861112,165.84265360429526L206.42179608799415,164.4081630534365L207.06983453090288,163.82391809632918L208.02630569680696,163.4341956478056L208.6969656459296,162.8461774426014L209.47859736345345,161.63542101078383L210.43476835443653,161.08704363285779L211.17455164901185,161.0587505030826L212.13111082130126,160.6128504365879L211.46048288522434,159.79595339162915L211.61671488399952,157.76506108028207L212.0102017064637,157.40661470589112L213.20710060037527,156.87770717448439L213.7241039458131,156.33621383252012L213.52968172852707,155.20413870449192L214.8741704693457,153.53504059310308L215.5289269456589,152.41743515093913L216.34837765238262,152.8566387880437L218.25899970969112,152.6815560348614L219.94898111190923,152.77292657815087L220.97340730062933,153.2027988085938L223.646811245766,152.53075101162813L225.6189276747864,151.68306605739417Z" fill="#e1b03d"></path>
    <text x="142" y="192" font-size= "5.8" font-weight="500">
      म्याग्दी
    </text>
    </g>
</svg>