<svg  viewBox="320 142 200 200"  version="1.1" xmlns="http://www.w3.org/2000/svg" xmlns:xlink="http://www.w3.org/1999/xlink">
  <g>
  <path id="path-0602" d="M333.8622344822488,285.6081444581814L334.2069739000199,285.5059338450883L333.73303922916057,284.86116883156046L332.5601900561378,284.1226098299094L331.2709267037917,283.7084653117154L330.1632971930485,283.2027066170458L329.3360559367684,282.9715582795734L328.7495408453542,282.67463724127083L328.08626997085776,282.84225421782776L327.6811863070452,282.76973002672275L325.46007907092644,281.4058999778663L324.0664877654908,281.22752204276094L323.24878341738804,280.80243376970975L322.45368823112585,281.10998072664006L321.8108314226138,281.18336482419363L320.50825431569865,280.69609039289116L319.7728914186264,280.530109885548L318.4000749134593,280.5608706002622L317.6751100749625,280.41317551516386L316.5715932682815,280.44644316042377L315.5517890277606,280.71007358026964L314.875284167274,281.1525744609344L314.6681817043518,281.5268989184333L314.51968890245735,282.3226481242418L313.96047170000384,282.6550909624566L312.68527073331825,283.05969413943694L312.1916674391923,283.084796299775L312.1944428697443,283.50209441530205L311.7457280487033,284.37282728667833L310.88915237917536,285.32888225898296L310.40756726756445,285.5663075846178L309.5291876729698,285.61734318948584L308.61729035514327,285.12480897492696L308.28023253209176,285.3757780401702L306.6857102529866,285.514687545151L305.6745884436914,285.06716442099423L304.7275242926844,284.26231844344056L304.35810823391876,283.75007031166024L303.63637744766675,283.6469316718858L302.7043129570011,283.3537386728358L302.0682575034025,282.9863336797016L301.14530597753765,282.7578320490211L300.4664810839804,282.9071880586298L299.84342598427065,282.88474705682984L298.6601837428443,283.06159360824677L298.37411248761964,282.76070008493025L298.20454118535054,282.13391017219965L298.11233965581414,281.1282293231052L297.3635884084051,280.1528703410413L297.49578788679355,279.76393565570106L298.46424774921616,278.5579926997543L298.6928368285062,277.80274503908913L298.7021891888089,276.21421469556935L299.6197011826516,275.6690638936798L299.65032244102076,275.199958255791L299.965536462425,274.54507796526923L300.16165734528295,272.37019414639326L299.8367572786792,271.751942994787L299.5944480737253,270.968348925031L299.82118894475025,270.2754290403309L299.598255331106,269.53669743738556L299.68232240482394,269.05975264275094L300.31468199482333,268.2349455791227L300.6027691412619,267.5965998684651L300.53926171579224,266.55939354826205L301.00308098587993,265.90566246417256L301.21249891064326,264.90360274773593L301.962087867385,264.13267095969786L301.81513896440083,263.6272294094515L301.8373656562526,262.8663141000816L302.12340369665435,262.68943114049125L302.45705674515557,261.76604786922144L302.18757687900506,261.28362117511006L302.44047026428416,260.2046830802201L302.00750365715794,259.64846728410976L301.56973054742775,259.45201070854455L302.2422969358049,258.6237125588068L301.9977338262579,257.81755863080616L302.01953899200635,257.44736427496264L302.3626891985077,256.8388038307039L302.95115598144,256.71641814920076L304.2410480417948,256.7058058436278L304.6613846303753,256.4092748012172L305.62034935268275,256.3563151706621L305.6576958174046,255.97791474588394L305.3820229521425,255.0454156814194L305.90919861711154,254.53788256688495L306.9458951665674,253.81881505035562L307.314860989085,253.15270306290313L308.0292455759445,252.70424941616238L308.5515435270536,252.6798449419266L309.6932651819898,253.00869965654238L310.81657123901095,252.8830240443367L312.0154355625,251.77431107088523L313.1213125120248,251.56145772320906L313.29802748219663,251.71413301306984L314.97301007871647,252.12113167598181L315.64763671599576,252.11401854524502L316.2247495185384,251.9378785391873L317.3205542644391,252.10964695439088L318.4568209456884,252.1616461274425L319.3934512892938,252.33504571291087L320.7433650148905,252.93616016130272L321.3282711024258,252.986685194659L323.06811376948826,252.05514955982198L324.0570190587696,251.81796195082188L324.4822916586072,251.54852233854217L325.3630958293161,251.48892554519443L326.51147635166853,251.62314221388078L328.84037512764553,251.31279321473903L329.6973293655101,250.98263639854304L330.4212345615015,250.12706213472757L331.1361043427514,250.08934177810534L331.7026920792032,249.64965936746557L332.42070395537667,249.9823289762253L333.05614917926323,249.13927294591758L333.875362029652,248.36014643564795L333.9452075066092,247.7401506226006L334.5903803821584,246.42803828755495L334.0862435161762,245.72617589542915L333.57356566701856,245.42485706982097L332.11273429425273,245.01876185536912L330.91340050288636,243.91553312103406L330.296304904552,243.62912103647614L329.10081073184665,243.52575663310927L328.2533188633806,242.94485581716708L327.3908903475003,241.95660215720727L327.08201934997305,241.2244733377638L327.3500360324233,240.72739101212028L327.249327798525,240.01022572045804L326.8353470615475,238.9614383657954L325.9266427866387,238.280059656503L325.52220724345716,238.1492372428047L325.1841241253878,237.25523317916577L326.0177428503157,236.66354283728379L326.40135664820446,236.03569193782914L326.19595226261663,235.51107167296414L325.2537325735866,235.08025354682923L324.7812067661034,235.1177132484754L324.5578243649652,234.62512054935178L325.1491286220844,234.30039320583182L326.05227885660133,233.99126477202026L326.3864170957968,233.49212393852213L327.7317986000762,232.732696291514L328.6807854140825,231.55020767769747L328.5762679746349,230.814083299093L328.7170737806646,230.25740630754444L328.3681603879995,229.15485141857243L328.39051669000946,228.79216483671917L328.7280110081738,228.31600033765972L329.3543874765983,227.81948855269093L329.5517047403064,227.46463789377776L330.09441092099587,227.03842815543794L331.26033181030107,226.66520458315517L332.60159666651816,226.4793412857125L334.2750878350198,225.722468632046L334.9278428887428,225.14800088814445L335.6568765725042,224.80082180605496L336.2737112278428,224.2316332605551L335.9240367361617,223.69388575173252L336.14011324912826,222.51453076208236L336.3681198739141,222.07277115230227L336.1544829284376,220.1028072233412L336.2310921922872,219.67237876174568L335.16185135411797,218.84564876943932L334.70189159600704,218.25825136005278L334.52859879677453,217.7323447113513L333.23131844269847,217.55167544259984L333.0662254639701,216.72160116137638L332.34359968530043,215.90013265005746L332.3816671847799,214.1365973953143L332.57633856005486,213.7557085366625L331.8746042027906,212.8279678920835L331.814994565686,211.98925761482133L330.63751248141125,211.69871400728243L329.7062912650181,210.6435655710684L329.69389297996895,210.4129691815142L328.29065675741185,209.85448950892624L327.92520356314526,209.071264965316L328.4319326500354,208.24276103964803L328.82467803695545,207.37351120566746L328.9041877236723,206.17572578137242L329.0637082980793,205.69531399292646L329.73712438420625,204.49109010273332L329.95275390305505,202.99083766188505L332.9878237861012,202.52324447979572L334.31939603953106,202.07189148531143L334.71980764098225,201.83689230484288L335.1626425883205,200.93361810818715L335.68187699856935,200.82203560861763L336.2609939878439,201.08021752223158L336.7531767762739,201.07634021666217L337.1989498301755,200.76310313466547L338.4507996320099,200.6098317203141L339.76707323849405,200.6972601411444L340.21075579256467,200.58302100224864L340.824761365835,200.67298253014087L342.0280522656594,200.54556633418542L342.55382589407236,200.39736359491326L343.25010449086767,201.01029360622124L343.24005781914457,202.09241232688328L343.3603530850196,203.01539697030876L343.10160692157297,204.1279299186126L342.7872633301904,204.80257759994765L342.78093409117537,205.58498689213684L343.3993691228661,206.11431638805243L343.9919819114002,206.34866440310998L344.97019095739415,206.53531495757306L345.5515764394222,206.93954867590037L346.0824464224643,207.52553652899587L346.3979890194478,208.08852662265872L347.49158605531375,207.44534383112477L348.36093240318405,207.03299354685623L349.69481109905064,206.14082715071982L349.66709340176203,205.3472730793801L350.0305635096938,204.87288409169923L350.61229306493806,204.68802365051215L351.4603876409474,204.75600969351945L351.9377672712617,204.93468206149646L352.9206423829528,204.46873490282724L353.0712597538168,204.0119731899813L353.5260067327308,203.53274509778566L354.48801604412984,203.231931732892L355.1884629145752,202.77152453737108L355.2193554933201,202.42070572799366L354.88856187165766,201.6752031339156L355.03819708607625,201.09250004893966L355.77913850405275,200.29887361547844L356.56321186156674,200.04542403057349L357.3638034797623,199.63580589943558L358.18617125446144,199.92435811097494L359.11842977105516,199.4768196957375L360.00869946373496,199.35548270006984L360.59777449227295,199.0275709223306L360.76781357098844,198.46458606739452L361.22507250244234,198.05706723360254L361.23897531307557,197.54066202016747L361.48294127079134,197.18470840323153L361.04244115265465,196.55908629203805L362.645692427257,195.65305168555733L362.63369031028014,195.00562274140793L362.8570756156114,194.3515154700508L363.27741005288954,193.95809408426885L363.38755067993225,193.48497026456153L364.51109230939255,192.24106992275847L364.5179125985778,191.52893699789456L363.7438917887648,191.01738105156255L363.04474453902185,190.26027322311893L362.3840599107116,189.87144815861575L362.3103654260012,189.64938920862915L362.8001814891395,188.8411183807857L362.8430249767698,188.37838146429203L363.22696868779894,187.73115499232063L363.2982576888571,187.0431365436516L362.9556833491715,186.34893912274129L362.87348352278605,185.81622163245356L363.2524543949057,185.14075243085153L364.0933377036945,184.04318977782805L365.50711233532274,184.2671030515421L366.57510941059445,184.08593421492242L367.1064722639476,184.18127350398117L368.4742557488771,183.57260014854273L370.66285350825456,183.3515247061332L370.50887328899626,182.78586240658842L372.19033271810986,182.46664262602917L372.83788126601394,182.47305086257893L373.6747017678026,182.82737199343865L374.63683504690925,181.97255360612235L374.70464778787573,181.38716953566473L374.3812359671774,181.12491785093334L374.35193141239324,180.61777244468703L375.77774499442967,178.92912299826185L375.8199049646446,178.59060057950774L376.54256947655995,178.2220372392194L377.0973903764334,176.66291821560662L377.8455217235114,175.93304004260972L377.95941070364097,175.5050361041458L379.0458859398641,174.55423197543678L379.36534037222555,174.73258810026437L380.3823163051766,174.54890917358807L381.05301307519403,173.99043634156897L380.7741352420144,173.29233109502638L380.2179802048213,172.97638967379407L379.95655168880876,171.50197434983056L379.9173812987592,170.63333095840972L379.5539919510138,170.20032480141708L379.3482925143726,169.632862923213L378.76864649065647,168.61570166458932L379.07371450394385,168.35615973504082L379.1477544125846,167.43302543082063L378.4591345926874,167.0573180168367L378.452147916807,166.11501752529603L377.58296272579537,165.33787542424125L377.60627318628394,164.9301180134371L377.2169769916909,164.26665045569462L377.1491059082764,163.7258127110781L376.51157733025684,163.17863911663244L376.6476027659228,162.43352180597867L376.1849748855857,160.6741217502822L376.18582679848987,159.75872901347157L376.6025109561451,158.70430844476869L377.22191956191637,158.27127563089107L378.0764238084612,158.5809173904463L379.208394389776,158.15701368641749L379.80360323814966,157.74149518785907L380.0143876864113,157.16809942526288L380.594656007941,156.7956067211071L381.2642821212303,156.6106346456254L381.7903118199629,157.04752082274535L382.58378349468694,156.42566523837013L382.54468272651866,155.36122065091968L382.6773213379529,154.27537710275828L382.84436394180193,153.93444012420696L382.78584362065703,153.08807537240318L382.9660942444589,152.41110270090576L382.4357607929105,151.079632477029L382.3770834668503,150.34774541204388L382.6713540613964,149.05536940793718L382.60316308022266,148.44115676470392L383.40633661982974,148.57107896123944L384.15087913231037,148.46330195007522L384.86089148751125,148.05395450421383L386.02410715647784,148.42037118479766L386.4231633835825,148.40583971749766L387.0033371271347,148.84325169595377L388.341021264363,149.08448377974673L388.63289918293776,149.45679214710435L389.1813571848106,149.46886010229628L390.6756571792321,149.13560718378176L392.4234300495136,147.99406246655508L393.34369649632026,148.0843988698707L394.1804323333181,147.8651924169044L394.4301163821965,147.45599871807917L394.5127407265227,146.5063239715064L395.229955106317,146.13831178808505L396.5209938082753,145.92467121224672L397.45483427136605,146.23736130773614L398.53305105784057,146.36193943408762L399.1930583786725,145.92818333720788L399.8184987006898,145.18977042746792L400.719365533012,145.2615275732869L401.3575931291489,145.85127343342083L402.13089064617816,146.3210404765805L402.6272793472817,145.95989015851137L403.637821371487,145.56894619802642L404.77082675450765,146.7157146434447L405.3172781661906,147.452591457768L406.0809595946339,147.80895875058923L406.3797554285502,148.09389311281757L406.2103957162435,148.93505606521376L405.6507792928478,149.48053268275453L405.57720016903113,150.15473587085944L404.9110139086388,151.51526278025176L406.06407319395475,151.68906259922733L406.225567859663,152.60451417455624L406.96831127266523,153.18384810665611L408.08934178230083,153.83847423618317L409.63136189279066,153.7958788689184L410.6559525125085,153.4665519854152L410.7363226664529,153.10966996661318L411.688901819296,152.82912606719856L412.76083398518495,152.85091070005183L413.1608300428379,152.67103748921727L413.80901544100925,152.68022572201698L414.849845972969,153.62306193001132L415.72060263629646,153.33090856822582L416.5893208373782,153.38577679582977L417.13624724937654,152.7323383210769L417.62842333308436,152.3882855607808L418.0937253341199,151.83274282392995L418.7623854140693,152.97387210872876L419.1847056940005,153.3132938965482L419.23781355904794,154.18543984502867L420.1775564713371,154.45914589812764L420.6249949910325,154.77894676720007L420.5063220216434,155.4326973020834L420.60979802309157,156.1099842776439L421.17093295021186,156.18276297784632L423.044759464492,155.4171539883573L423.8209316864468,156.33356397313582L424.0864205872349,156.8673809411821L424.6396889164607,158.60932693880568L424.7643589232739,159.62685006786614L424.9836489048321,159.99745712189633L426.3306646823912,160.193311764986L427.1845626823797,160.80206259803435L428.6577650473555,160.6598834398028L429.35526288286565,160.97012749542864L429.4774426724289,162.40318497901808L429.3242660262622,162.86043666258138L429.7777196868683,163.27274306919116L430.0764036804212,164.0959075339988L431.92275932528173,164.52990796327958L432.55681648339305,164.77968690295165L432.9641876818132,165.34620269239167L433.3893090855727,165.50682272071754L434.4139186750763,164.88978889244754L434.0280054614268,164.38586992634282L434.05950517203564,163.78228652893358L435.15259546631205,163.55645012515834L436.32621988974097,163.21783722145665L436.5973476065774,162.766903480986L437.14369253367477,162.43700797907422L437.76329915689166,162.7338543845126L438.8300535164417,162.88362569729816L439.316613804358,162.82159688205047L439.3832298556463,161.18609705831295L440.0565559378301,160.445196927687L440.5027927794072,160.68624616465513L440.9719029635635,161.34220473450478L441.92347392952433,162.1006556588527L442.23423807633844,162.53135998526432L443.08078281075177,161.63426443950812L444.3207101294174,161.17313840790302L445.01470811681065,161.6217428547725L445.8177763374151,161.36551237000822L446.635037958913,161.68517292739216L447.37563557193425,162.1202798869681L448.21206375795555,162.43898484549572L448.8570507722925,162.9658027750711L448.58777234324043,163.41482590326723L448.52983622888314,164.263446123231L448.1920349872962,164.67313120798826L447.8137768390461,165.44907939325185L447.87943872616415,165.73597687901383L447.63300537584655,166.4089825625506L447.9408042536288,166.7628704140061L448.613062577273,167.14805747465016L449.51778110531995,166.89527924709637L450.8525101979776,167.55353958374417L451.34717934950095,167.5579779836089L452.2703152866343,167.1986581669953L453.41174824902373,166.53744559073857L453.4834782269063,165.87838021938842L452.9971675025172,164.93584185489726L453.36934236658453,164.33727477369757L453.98625018148596,164.40467588893807L454.32829092364045,164.0984701367588L455.0582938155112,163.85844419814202L455.54526629908105,164.82133794521997L456.2863038669202,164.58701918543466L457.1606068239889,164.63835988658593L458.2271190593365,164.92552394287304L459.2119510523462,164.96390507430715L459.2250584296944,165.7378265436264L458.8754090106286,166.49709320162492L458.8926087273376,167.3642673405775L458.52171110858944,168.14266497338394L458.72546789999615,168.3067910996824L460.4075988941804,169.11952429524445L461.760407125812,169.90112923433935L461.95600139654925,170.38005386061195L463.569962659496,170.42734167530216L463.9272056008231,170.3050691339422L464.80358325032284,170.60332007847956L465.65453923937275,170.44157850430383L467.2465417935382,170.4971826970759L467.605573817551,170.4262272904598L467.8169741967995,171.28039164527945L468.66053289588854,171.7310269025038L469.3584889557824,172.28723811533837L469.99300703303015,172.30364019493663L470.9518466829668,172.12689373138528L472.1448518536108,173.3166011747935L471.89904908331846,173.67112204857585L471.7522824819225,174.36945422260033L471.23375445733836,174.28252908074228L470.2012098747455,174.95651433264993L469.3415476218688,174.57090147155031L468.83581856263845,174.52594843159932L468.19295503972353,174.86412485422898L467.7895331507152,174.59804101932968L466.70839914649696,174.37510326134452L466.583219109938,174.82624310250594L467.2054687291002,175.6148892006713L466.30677139973886,176.89078975761458L466.70134656006485,177.55428175303496L466.67488886536376,177.96376624225468L467.3444754389111,178.2469068774226L468.19382427470555,179.17887021836395L468.4724716972396,180.58700188161401L469.16096399813614,181.30328857336917L469.00932044258843,181.87037625612356L469.2017895114386,182.23664814147287L468.74421957012237,183.0074414671426L469.0473893070157,183.36913110292244L469.0959817538387,183.80117443540894L469.9900981138708,184.34971578594013L470.3383678162754,185.03783831392684L471.7695707312723,185.8885182494787L473.71783447165217,185.08991266692829L473.981029096929,184.78881525757424L475.7516834893304,185.6869737236393L476.1905367276413,185.36995184967145L477.18307751158864,185.05402385692742L477.5451474900092,184.3979178629661L478.38186571389815,183.89099190324578L479.2648923006109,184.74005118287732L480.33253068912563,184.9865901253279L481.0264577949856,184.93665863185106L481.5683653924534,185.63899760984714L482.47181168627685,186.06768439764983L483.4070855450682,186.37379735743616L484.1620726752535,186.75906888202007L484.5411633403619,187.20279136307727L484.18319387859265,187.74604852781795L484.671720265962,188.62509578649133L484.62322167229104,189.8383252467611L484.2642692523186,190.221127456437L483.53199042639244,190.57173656131L483.81568745766526,190.93325503995038L483.9165972256542,191.8840542770531L483.58180948680456,192.3339358801586L484.15287072303,192.70730561682922L484.85967331814027,193.46814861673738L485.4062629152413,193.73512437332192L485.782384126378,195.12752889484454L486.62139354131796,195.28437035930256L487.4226014747037,195.0785015835545L488.2569363348721,195.42683335564197L488.1261706841942,195.8292771667302L487.63441278975006,196.27191063298142L487.92938247105667,197.52239195326092L489.14055824642674,198.49932286460535L489.2778821898428,199.64137915231822L490.2856561239969,199.8284939645073L490.9831760536417,200.61562035729548L491.9664043091998,200.66809835627555L492.45887248744657,200.8395563955428L493.1215323952056,200.7560548526153L494.25108007991366,201.0258754201477L495.7924369512548,200.8425675574108L496.82381108349546,201.0377898534225L497.4776533521126,200.9646131035488L497.75762605852105,201.2617708503094L498.04727079326585,203.25107279523945L498.8275939426021,204.09243003551092L499.7294469116732,204.45145287831292L499.9944041611434,204.71731840109078L498.8872572496002,205.73264394068246L499.0534227153057,206.86225636624567L499.5026373459714,207.79570791495007L499.0094762979752,208.50558275433832L497.899194579757,208.92773556209158L497.20759636015646,209.08371848699244L497.9108368398738,209.92805309653068L497.81936081208914,211.00927944658997L497.46215304274665,211.67703293684735L498.18070648218236,212.1146143208207L498.18746783628376,212.7829746581674L497.8440219557051,213.26146672853702L498.2672651384328,213.80378131481757L499.2875505191223,213.73215443728532L500.19423702438144,214.50317221309524L500.4992112951222,215.0721269999167L500.94608116551535,215.10646230004477L502.1107814862389,214.93840833654394L502.79996820129963,215.45624829440385L503.67759389708954,216.91183047666982L503.24704113586813,217.70137465588323L503.26634799196836,217.98156132053373L503.86219324860576,218.766839983894L504.0001630945135,219.1291935870513L503.59564521776156,219.80457806429422L503.3697909955499,220.68964994943872L502.5964816458709,221.51688503619152L502.7189302247698,222.28115414577042L502.3622876663885,223.044756930125L502.70372704001784,223.2842401313419L503.45292995012096,223.47560879468256L503.598167243661,224.0890491151631L503.439767565922,224.87260013834293L504.35402174261435,224.97224446654036L504.9832210138866,225.4104028867905L504.7642423515881,225.92982439184107L504.8985600099204,226.1622561645845L505.7998026049245,226.6147768146575L505.67142231738217,227.49677312744643L506.63260606826225,227.5445973961505L506.71458357105075,227.95891818890323L507.06209877083893,228.26343574335624L507.13296983431064,229.37759341320452L507.97566233159523,229.97543203072019L508.73239315477986,229.96225440758008L509.05934739506483,229.7381561816992L509.4788440862176,229.09639092047655L510.31862359663137,228.54848440787373L511.6702436640644,228.662598643642L512.0818809829634,228.80114879581106L512.0470894982973,229.53467902482134L512.9022161135781,229.68435543244868L513.2178308329221,230.1393834986693L513.0648190775555,230.8835219083785L512.7492649980613,231.63403151916282L513.2600731672264,232.11172681620155L513.8306621898519,232.13035887689966L515.1550220497065,232.94323247114426L515.2127029221247,233.43016932541923L515.6066540830161,233.49414447277832L516.1278703666649,233.26013500577756L516.9049126290265,233.54153490329554L517.2474438397367,233.87184586027251L517.3513942722093,234.37454459903256L517.7917046298116,235.26858389206427L518.3013953774134,235.59652852753607L517.9594759990905,236.4752703355216L518.8623682958441,236.73815003623622L518.6819847778916,237.4991660198175L517.7041980350641,238.2745360377021L517.4436680801318,238.93857721329277L518.0365148437722,239.20300484352265L517.9153263845346,240.22772175178488L518.4426507447406,241.0675276440661L519.0076076467485,241.16012269345174L520.4444654448562,241.8070894219627L520.3706794801055,242.54295960376294L520.5364481269662,242.80630372111318L521.1822894166253,243.15371989188316L521.5395086716471,243.67810519967588L522.3933522923053,243.97090640771057L523.8445174679964,244.1419089378869L524.7418618882839,244.40281687528204L525.3518831817364,243.64262711451647L526.254168419202,243.55167533038548L526.8610755860682,243.23845966155295L527.2843029039977,243.59119465417916L528.5972883835839,243.93442419961048L528.6360141669447,244.58636028152432L528.0838055038766,245.06646013323916L528.1840962767474,246.29598937697392L529.0892676556323,246.61138650212706L529.3809361449948,246.89694574367877L529.5429459461357,247.82610308073436L529.3633146535449,248.23028697894915L529.867433569183,248.5832412042064L531.8376531925769,249.42546234409838L532.1463651119229,249.48774862506252L533.3168590486493,249.33962118361887L534.9367970993753,248.72118120978757L535.5400861254147,248.14160599930528L536.1909685613373,248.25243629167562L536.8957946160135,249.36752752813572L536.9574473368357,250.04417883569204L538.5420156605123,250.63956886058804L538.7539197414972,250.94620734898672L539.3010480786706,251.19047621058508L539.3538032316847,251.553725283944L539.8740076021077,252.16146489838502L540.6145074556789,252.57010507464474L541.6501682388061,252.13406440544077L542.0267764533619,252.13525888806817L542.6601467851851,251.68663390858728L542.6869886442746,250.89037172099688L543.1112797398655,250.53911791798237L543.7054458551338,250.6303897367552L544.3267125666407,250.00367341246238L544.8311258869235,249.76320965043305L544.994149239652,249.31141977424159L545.3186913145346,249.10988146601994L546.312425076454,249.6290150565619L546.9361287895754,250.22249692152855L546.9563549825343,250.54117768700053L546.2484913333919,251.25602867739508L546.4195027711085,251.56991833863503L546.3179516605323,252.2443431231377L546.4790539920414,253.10909070166872L548.3328618219548,253.7468408023051L548.9263049412602,254.42974246737867L549.0570975775463,254.7645270638459L548.8067025993714,255.14840567455394L548.9229144078217,255.7528936581357L548.7575998200464,256.7674337375538L549.4897554104373,257.5848480637005L549.6897707470434,258.0463446945896L549.5230978397503,259.1165866421097L549.0741145263182,259.35815184993135L548.2472100019459,259.47112364662917L547.3161051775005,259.45219098958205L546.3330433392894,259.1748114522579L545.8759611636033,259.2365215918808L545.5085569487146,259.56239763056146L544.8534184462496,259.75152200521734L544.1976605492655,260.20236415413547L543.9827071482669,261.1379328422836L544.039897732715,261.6024078273913L544.369893808007,262.2200341724747L544.2227561159398,262.7380952986423L543.8526469704175,263.14841819601133L543.1250527017164,263.2188527220087L541.1889081736026,262.5847780212962L539.7112223580134,262.7501914735558L539.1469185077021,263.4807538640498L538.4686988602352,263.89732770755745L538.1121746032095,264.4566662521993L537.2898456789535,264.3286062544612L537.0605488080091,264.5379325357417L537.0086701020064,265.14019406460466L537.2279352501555,265.47775752670714L538.0529188044366,266.0735512026604L538.6610129864948,266.32426138642586L539.3928236378579,267.04326678459165L539.5295941508248,267.44694375734343L540.1582556240373,267.9261928071928L539.8575507951409,269.59633381741605L540.2051289530009,270.59935342200515L540.1504493200428,271.38597731349455L539.2821598126775,271.3861620471962L538.0704713406867,271.7697614092667L537.6339223875675,272.8169698954425L537.7676759681872,273.6300333653817L537.7945171998126,274.65427064197956L537.231750553392,275.70980939993933L536.5428965078918,276.54909518021304L536.548379526701,276.9845320671775L537.0023210834934,277.88818576802714L537.0749443799195,278.42952615905233L536.8379192644152,279.2423258674871L537.3053295621157,279.9947466884596L537.0832979186434,280.34507886174197L536.4594654220364,280.67180389205896L536.8675809624165,281.69494537103856L537.3976586096596,282.41314560937826L536.9006450287434,284.0321684869796L537.1213446641214,285.0717735486769L536.9022309929369,286.2059241237812L536.0736244815325,286.965615269055L535.8893906387693,287.4940016993505L534.9077912958401,287.48007893139857L534.63380448934,287.04278447499655L533.783297474356,286.4148657414289L532.5181144446851,286.82849685327983L531.8743649479802,287.61030423149623L531.4484035821988,288.3560882671618L531.545589050389,289.25014539374115L531.2207382817742,289.95362487451166L530.4694815272251,290.5907903712123L530.6645643218762,291.2108806648321L530.460895912267,291.81541038510386L529.9468634881614,292.42534598620387L529.1505419900714,292.6590535000578L528.6156363823211,293.6771143964952L528.0517122759338,294.42560724240684L527.5994967807801,294.72767533284514L526.5430119178964,294.3469151363979L525.9693996805509,294.43323228797453L525.6884253470398,294.9014479894204L525.8138158242182,295.80422497181553L525.5472629220876,296.61413475297013L524.1713480234466,297.9520530585869L523.5298069565797,298.94271780947565L522.6260896184922,299.71944638420064L522.288634049537,300.29398389526887L521.8028365713762,300.56488247500965L520.9983436782659,301.29357466598776L520.081964560788,301.5284229703175L519.8679660767775,302.4659758963944L519.4413604347592,302.8379403310764L519.1685807259782,303.37869813111683L518.4731934560532,303.94837876862766L517.456334880495,305.1920834954226L515.816928931652,306.10034954541334L515.2335652190195,306.6719023584883L514.7612240427643,307.4106080176798L514.3641931686925,307.69148699170455L514.713946723401,308.47490831126197L515.0776772110039,308.78656616077296L515.6155396206414,309.91856209151774L515.5788954285163,310.4925316928875L515.7150042924022,311.51681651122726L515.6479334416817,311.831383525262L514.8762159592225,312.68792736486284L514.7580039984769,313.1300166129722L514.8310700733509,313.7769554610286L514.0731763047861,314.4707659320693L513.0152150550675,313.74349798754065L512.5693488570705,313.69434303840626L511.410673100012,313.85746104789723L510.8759352212819,314.06551817184936L510.6815708173908,315.7497670654475L511.16804342966134,316.1868869727741L511.08702130892016,317.0360351551408L510.4946651390801,318.08210709251034L510.57253390867845,319.45937940254134L511.55705439666417,320.42731281566194L511.62929075483953,321.2352089790729L512.0404012030904,321.9838831641955L512.1337855799102,322.6577296059795L511.87519550945035,323.5959569084398L511.90947133503687,324.6758717045841L511.4124759070546,325.3705356026612L511.229741504736,326.18469411524256L510.1425761795126,326.3551105609913L508.6343188293213,326.3967870846991L507.4461795519128,326.7113954126926L506.8644093253897,326.72742392068176L506.3912722030036,327.4804225194375L505.43080198067764,328.26548024770545L504.5809614671962,328.535514662678L503.9089131639703,328.9153701794703L503.02865535379533,328.77398539983096L502.0136862018571,328.9417797383876L500.6304911679763,329.3945432776791L500.16548436541234,329.4243607568724L496.9199701041598,330.53870339183504L494.9291051942819,330.51651603052414L493.34155248674506,330.1345631622862L492.622724087978,330.06177444692094L492.36029924461764,330.29373466899597L491.6130182691122,331.35551023788685L490.4956823156044,331.8411911445437L490.3049165114644,332.8005321840501L489.845976368264,333.69834553527926L487.83009582010163,335.21927605512246L487.4298482381655,335.72957610429694L486.30143346379555,335.82467058465954L485.21513831464654,335.38864950140396L484.2770048504135,335.44403459370915L482.83125160960844,335.237513394477L481.4059491585467,334.93903729179146L480.1241770132656,335.02764281058626L479.2096730216799,335.3421366555149L478.2024899862008,335.35296616139567L477.7144241665246,335.49426110425975L476.89260992777054,336.0320631077384L474.98884892050046,336.1669857750612L474.1113327202929,336.574731875794L471.7515543713471,337.39000029583985L470.75664430286633,338.1207771931022L470.2457034958279,337.7472957606178L469.5055985106246,337.48867521672037L468.21642296915707,337.25029572376843L467.3219253123916,337.285679839817L466.59035787833636,337.0987195648795L465.0854925490112,336.46910756986927L464.45744427235695,336.0203299366658L463.40419174902127,335.5850308728641L462.97136440178474,334.66573632840664L461.4188946958584,334.02376725568047L460.9377469908086,334.0875228267387L460.0899063293982,334.5468550829246L459.2463130510441,335.52962295725865L458.74663983193386,335.8172272200418L457.62777029806966,336.16193865450987L456.9320266089235,336.03603184868007L455.4657138864859,335.34706762117185L455.2247601453928,335.04301355112875L452.9814380582884,333.87383440787016L450.5271071018142,333.7410825338293L449.2137943032012,333.58200616582326L448.48416056682436,333.32038476747493L446.67961759785794,333.05575398159453L445.873603798982,333.0391581200847L444.98308863082093,333.1871215334022L444.2191465394553,333.33873285770005L443.48211519049255,333.0543066207847L442.4235060103001,333.01156593081487L441.50566044026345,333.42242331966827L440.27902448893656,333.5077209296842L439.02632150064346,333.9584244710077L438.7146083310581,333.8583420743835L438.54048104853973,333.25648792398897L437.66411143768164,332.76579052474153L436.577698620531,331.91711265445065L436.5385089259689,330.65699990851954L435.8438516429178,329.68551018088783L435.72867464661795,329.36798197684675L435.128860370809,329.15581424688025L434.3858907318936,328.29830090016003L433.11967359481605,327.1415386578401L432.5059206429578,326.84552443068424L432.2555847022777,326.4860503619884L432.0165049794814,325.5394287770878L431.30984308847474,325.73390562716395L430.346661833275,326.2904604173882L430.02169462171696,326.6936543708325L429.2733515840573,325.99592259507517L427.84231630860995,325.6106479173977L426.4565150042217,325.528842262338L425.4223138401503,325.46406781283076L423.5545095635516,324.2439455260137L422.7360391194252,324.1459158390953L421.4769994019607,324.32296018462057L420.9526243729615,324.63178967351723L420.43474131781295,324.34333076650546L418.89859702625836,323.03051421539203L418.1688425908469,322.85505424220355L417.6018678972414,322.922436229499L415.96851527057515,322.063196682172L415.53555944443724,322.1137118472916L414.66498689042237,322.49331265702585L413.9143514175903,322.32431967828506L412.8408947027747,322.70550335653115L412.1565629166653,322.4454366636919L411.72372256428025,322.12158110740984L411.6024265976721,321.389118435809L411.3375407681524,321.003434838879L410.61328023291935,320.55803887664206L410.2426209975856,319.7381813507236L409.7947809311536,319.56831439846064L409.77059147442924,318.8284773117057L408.6223858399062,318.92218767713166L407.98726368877215,318.7193163050615L407.20738863009683,318.23024640616404L406.85640031319235,318.18255955315726L406.6150579802488,317.39314756411113L406.13667230637293,317.1404876516526L405.403865494578,317.4636129860728L404.1865459290693,317.342759596565L403.8992696913556,317.4590786851495L402.8045462597329,317.5221081449781L401.98445928617,317.42297613769097L400.3275332944031,316.66835540759894L398.9041979837002,316.7425838533709L397.8395963488256,316.48905057507454L397.62189115500223,317.03235478250735L396.9653674421734,317.161918787584L396.5129382431078,317.8357729584486L396.03068952242756,317.9581818776196L395.3865383150769,317.59169566006494L394.55725889802306,317.7638468603318L393.7481795830445,317.53358020531687L392.8805145952065,316.8639949850567L391.62473898081043,316.71838979113363L390.6583770425641,316.1447287568308L390.13508748553795,316.2092441113664L389.8241546197296,316.5739069657384L388.5682446774117,316.44836323327945L387.98498146523525,316.5134183370237L387.2761351646259,317.12374815063686L386.51810116794695,317.5373463705837L385.67460144515644,317.6272309814358L385.29617810206037,317.4863651730493L385.079337047262,317.08021523961906L384.48500609123766,316.67687542295243L383.71119450282094,316.9054624581977L382.94832585171207,316.81571117322073L381.75698493567506,316.8358020134301L381.2580436191711,316.96260800031087L380.64132752051955,316.6886393020768L380.3542254177937,316.94930789790124L380.023095041086,317.19755811600317L378.5715295550108,317.8871524029055L377.15918267899724,318.7745072051721L376.6630404288735,318.6038815369966L375.87208292178366,318.8279861812589L375.33563438609417,318.5847943909266L374.80505615173934,318.5568408494555L373.9881715143965,318.10756365626L373.65627709809087,318.1003913485174L373.0291847115477,318.9861794289427L372.4821647535391,319.2846598987044L371.609858964428,319.9795367736515L370.9109263856317,320.91201351574273L370.5089168350605,320.8542475995746L370.15092344167533,320.15156214194576L369.47497695627135,319.6701820999133L369.3351270044386,318.9398753192918L368.8221558733094,318.6882078786666L368.41819610848324,317.80605983448004L368.0926135440077,317.3855818255706L367.37217271091504,316.8533996175529L366.8337508711429,315.86070718121846L366.7941870596169,315.53879331901317L366.2548027849025,314.8215114098648L366.14863331317065,314.15457296388377L365.8772213351149,313.84280338462486L365.1986866426687,313.80228595934295L364.765869904566,313.4213200678705L363.4058759448908,313.47344053838424L362.8650035301198,313.74553967542397L362.3393612998025,313.0750676855059L361.4470677283298,313.0676094181981L360.0626460098192,312.7276006345646L359.28561242349133,312.23199040042437L358.60612115518234,312.1191512294081L357.7342383529849,311.1722938835437L357.66613915883136,310.8591006936058L356.8407258299776,310.14432137731364L357.05992826276633,309.0989904990365L357.3635127192247,308.72253345813624L357.3523637051803,307.82750771204246L357.6454368837385,306.60508857877994L357.19708040789556,305.6510726704373L356.6958760090856,305.9167290093437L356.070554488997,305.8662045668025L355.913982129583,305.5154249436782L356.38418534857556,304.3690727910289L357.63844144522045,303.15148999823487L357.7469691944134,302.8617973381042L357.5119211147503,301.35537753012886L356.52662436516766,300.71644958393335L355.76315379015614,300.5196547299147L355.0417675085737,299.8499082031358L354.72039266210413,299.1413557607939L354.6974502596313,298.27430362927953L353.4156604842501,296.70127218498146L352.7607618856782,295.29098939149753L352.0574007735122,294.48724228456103L351.5261475421121,293.04747791967384L351.37746307622365,292.07645824737574L351.16178249579025,291.50263953624744L351.23509563092193,290.973250782994L348.99822255778236,290.7488464983853L348.46448128178054,290.53361582526304L347.4123957702377,290.9053191849616L346.0300014290715,290.91085026899236L345.46521268323886,290.62571106860105L343.92004326602364,289.3020556191277L342.6608933513635,288.7862438745915L341.0134202202298,287.88816741971186L340.583270576828,288.0168094526771L339.3590119157834,287.4720807599833L338.7440260442054,287.370165470521L337.9796226308699,287.05454497349183L336.8180723262594,287.37255660592655L336.3702170803517,287.0293746428297L336.0307423113318,286.3796107178259L335.50863440727335,286.09115181985453L335.011810846725,286.156499498803L334.5025122291445,285.8082479274153Z" fill="#e1b03d" stroke = "#222" stroke-width=".5"></path>
        <text x="420" y="252" font-size= "4.2" font-weight="500">
    धनकुटा
  </text>
    </g>
</svg>