<svg  viewBox="192 245 130 130"  version="1.1" xmlns="http://www.w3.org/2000/svg" xmlns:xlink="http://www.w3.org/1999/xlink">
  <g>
    <path id="path-0604" d="M301.21249891064326,264.90360274773593L301.00308098587993,265.90566246417256L300.53926171579224,266.55939354826205L300.6027691412619,267.5965998684651L300.31468199482333,268.2349455791227L299.68232240482394,269.05975264275094L299.598255331106,269.53669743738556L299.82118894475025,270.2754290403309L299.5944480737253,270.968348925031L299.8367572786792,271.751942994787L300.16165734528295,272.37019414639326L299.965536462425,274.54507796526923L299.65032244102076,275.199958255791L299.6197011826516,275.6690638936798L298.7021891888089,276.21421469556935L298.6928368285062,277.80274503908913L298.46424774921616,278.5579926997543L297.49578788679355,279.76393565570106L297.3635884084051,280.1528703410413L298.11233965581414,281.1282293231052L298.20454118535054,282.13391017219965L298.37411248761964,282.76070008493025L298.6601837428443,283.06159360824677L299.84342598427065,282.88474705682984L300.4664810839804,282.9071880586298L301.14530597753765,282.7578320490211L302.0682575034025,282.9863336797016L302.7043129570011,283.3537386728358L303.63637744766675,283.6469316718858L304.35810823391876,283.75007031166024L304.7275242926844,284.26231844344056L305.6745884436914,285.06716442099423L306.6857102529866,285.514687545151L308.28023253209176,285.3757780401702L308.61729035514327,285.12480897492696L309.5291876729698,285.61734318948584L310.40756726756445,285.5663075846178L310.88915237917536,285.32888225898296L311.7457280487033,284.37282728667833L312.1944428697443,283.50209441530205L312.1916674391923,283.084796299775L312.68527073331825,283.05969413943694L313.96047170000384,282.6550909624566L314.51968890245735,282.3226481242418L314.6681817043518,281.5268989184333L314.875284167274,281.1525744609344L315.5517890277606,280.71007358026964L316.5715932682815,280.44644316042377L317.6751100749625,280.41317551516386L318.4000749134593,280.5608706002622L319.7728914186264,280.530109885548L320.50825431569865,280.69609039289116L321.8108314226138,281.18336482419363L322.45368823112585,281.10998072664006L323.24878341738804,280.80243376970975L324.0664877654908,281.22752204276094L325.46007907092644,281.4058999778663L327.6811863070452,282.76973002672275L328.08626997085776,282.84225421782776L328.7495408453542,282.67463724127083L329.3360559367684,282.9715582795734L330.1632971930485,283.2027066170458L331.2709267037917,283.7084653117154L332.5601900561378,284.1226098299094L333.73303922916057,284.86116883156046L334.2069739000199,285.5059338450883L333.8622344822488,285.6081444581814L333.3145410401921,285.2364516399175L332.8699579319491,285.678765603634L331.66562990587227,286.05625186302404L330.70151579647427,285.8159075590156L329.4198285955008,285.8106347831281L328.6856361960872,286.03114988995367L327.5753996003241,286.9461793125647L326.93873028920825,287.17187374061723L325.47412402830196,288.6362838167197L325.39708333512317,288.92575551332084L324.8819053248153,289.20056085122997L324.56327697401684,289.99656972319553L324.0900087692844,290.2996785319765L323.96706746952805,290.65596120959435L322.4833981906286,291.7596080017611L322.33043021182675,292.2810981731409L321.7547742413699,293.10826841941525L321.0927922322044,293.4391328105985L321.09244816690807,294.047798823266L321.31617629682296,294.69818904786644L321.35619937409865,295.36032725783025L321.5439512034245,295.63718026057904L321.60229008765236,297.32903018499746L320.9819158424598,297.9162472634771L320.01455757905387,298.42112901429846L319.355263112624,299.0530134171104L320.0109606300648,301.3150637164663L320.0958364832295,302.209218736868L319.85259214791586,303.20955231507287L319.9589269827793,304.22547209768254L318.8256199570078,305.3161315791958L318.6060547180896,305.9524311722562L318.2352196785105,306.210296119355L318.18389272890636,306.9017317791522L317.9776603003338,307.3075079673945L316.343706322461,308.3414193740982L315.0935383328633,308.7647854444267L313.904366107834,308.8220226508138L313.4498253431557,309.22679802074344L312.2550478256362,309.4962116991337L311.3535210760747,308.862708024124L311.06490692471016,308.1355388100619L309.7817553688001,308.4288609122259L309.1122360013069,309.1412607708726L307.8382503962948,309.7216405989784L307.3880919625226,310.0107746055792L306.87540767109385,310.7107655031059L306.23497260773183,311.29358596101156L305.8701726551353,311.4037454500849L305.66197123995516,311.9659962386777L304.92829124758464,312.7640195460026L303.67920352035435,313.32940800616507L303.01372120096494,313.1172898879586L302.22966766512036,313.1501487448404L301.4249794663665,313.94974071383876L300.85761505663504,314.12856273620946L300.0280274637935,314.18136121522275L298.7999067358687,314.7533875140625L298.58886457385415,315.34882917354753L297.67223313320756,315.8445856819244L296.75525317281244,316.0287402429076L296.59273606210627,316.75643017799575L296.36047624088496,317.0285247929214L295.72853461424893,317.281090144239L295.4087147252976,317.89401056076167L294.8509879627036,318.0315214713255L294.0983070040402,318.50874515013857L293.8840053043805,319.0038549962592L293.85409600273124,319.5706838821443L292.8309031104436,320.7440615833875L292.6711481461698,321.84046373372985L292.7251274272876,322.212751509378L292.16112208335835,322.5823534131896L291.8892699728185,322.98538704648763L291.8770594021771,323.65317218542987L291.4128901296335,323.93228786234886L290.8734105293843,324.0210165456847L290.59146648648857,324.4027518437242L290.0819545318245,324.4462499364099L289.3275694239692,324.13987589817316L288.5473306068325,324.5042755855393L288.2361744790651,325.4069237341937L287.85182888169766,325.55250334584525L287.219501240761,325.4516168615801L286.2075264592986,325.9358007097726L285.13749736688806,325.5411017541619L284.10904445963934,325.69543502192573L282.7662781427571,325.5178642519568L281.78660463781125,325.64535022028304L280.6784015012345,325.24428305202764L280.0809849555062,325.54042462159305L279.3193672231664,325.5330743763225L278.1784634219348,325.75595865537616L277.99952683509036,326.0146047112403L278.0637724108328,327.2626895598469L277.0118633976963,328.6220954871387L276.82738332631016,329.1295749291212L276.22432424602084,329.61495333398125L276.0505745148639,330.23261151629686L276.3556081983843,330.76331779656175L277.2724562097228,331.42010408402894L276.81352583208536,332.2317427806747L276.187050145425,332.70099150101123L276.2955920457771,333.1975666006683L276.9193072535527,333.8316500027804L277.32605665907613,334.60027565156724L277.36224040315574,334.9410017799437L276.9837552580666,335.44751635978446L276.464911729141,335.52920237195394L275.99118403391003,336.1780714481383L276.23080296167245,336.51586761349336L277.059699409574,336.8495404839714L277.1452392746851,337.2261022464663L276.548185512298,337.95554961238395L276.4688557353202,339.0082024960775L276.13017810666133,339.78476260638035L275.6990933631314,340.3690498148535L275.00371456414723,340.76341801608305L274.5699715983901,341.3132161795447L274.7601020514394,341.749103610925L275.35011297781057,342.355875506184L275.55842105783813,342.96390190650163L275.3763058352579,343.5408249230304L274.66538644429056,343.9858859202186L273.8344571626294,343.6628806505705L273.569089653467,343.02250927162186L273.06558174376187,342.54609902618176L271.8730073617444,342.06106373707917L271.6646301700912,341.6992986840078L271.67575317534283,341.160088216383L271.4626624362445,340.8862360916719L270.3656087008658,340.7474007780793L269.8487149636312,340.27934354534864L269.1332145004999,339.99158511521546L268.6047327541364,340.08440425085246L267.23953042735775,340.63240254071206L266.79500753099455,341.0385616461781L266.0803734370347,341.9585945996987L265.94359368346886,342.36713775419867L266.0335123655441,343.1216708808506L265.8064193055525,344.0103434461571L265.1795693092008,344.7879852715705L264.8165440259345,344.8377397653485L264.1155688566305,344.56836466693676L262.95160695939194,344.9716432018622L262.1635761247653,345.8707950916214L261.7641197919238,346.83444947526004L261.49104094280483,347.1299619258425L260.95508510552645,347.0301395358174L260.625760150122,346.18639856867594L260.1182844135983,345.7186106146828L259.2611994942381,345.6195029723958L259.01390284171066,346.04125048653077L259.44521375533805,346.4747586127314L259.23074281691333,347.1072246543199L258.7759707008463,347.6031706217109L258.6305292813613,348.5386154386724L259.34151012561597,349.4975515944752L258.5907292338252,350.78837940305675L258.4848721734161,351.83822799800055L258.22854143778204,352.50170540764793L258.1970939961848,354.06369626848027L258.08362026756186,354.47205540762116L257.2056045222089,354.3370382231442L257.1362278960605,355.1922728752006L257.8838675965726,355.65415428074357L257.9928706976971,355.9176954338427L257.7870692499455,356.47289163585447L257.14691433878215,356.99200025214304L256.1513483865019,358.067703329466L255.92202625057325,358.25755562830454L255.81275939245825,358.31805998281015L255.51485424767634,358.52545169824225L254.3880605141003,358.8476631776721L253.9403025487136,359.15368639995813L253.56347156324045,359.7162824476218L253.25947747220926,359.7994229119813L252.77983392843998,359.7289938164258L252.65050413604877,359.65715148545405L252.45576244881522,359.5533562032815L252.21386904623614,359.4102591952369L252.0320972501977,359.32338984177477L251.86946837668074,359.2839794591855L251.80062720012393,359.2453761384186L251.78716762983277,359.2399506597303L251.19542830056525,359.2375459433388L250.8434273363473,359.40341921330037L249.93847684187313,359.06505638583167L249.61887795640723,359.0283058527666L248.9072770266721,359.0249352032406L248.62759083308447,358.96820838282747L248.42690939250133,358.86704640091193L248.2335345178617,358.4848031979336L248.84046589155696,357.4134655864991L248.85640861950742,357.2478295935898L248.33120156249242,356.91317261183485L248.17953422651772,356.89951866253887L247.6015101430039,356.8150797071721L246.4533080281435,357.1020919876855L246.15306376457738,357.3131089883682L245.90332658866828,357.5457667117653L245.77908463768472,357.77902286067547L245.57002739557902,357.7441324482252L244.6502855787312,357.58044426985634L244.52220554589258,357.5404700270001L243.81528199687637,357.4798175383103L243.29325826966124,357.79556628471255L243.12595272148974,357.85254412522136L242.44951774053698,358.1210561892367L241.78750722614495,358.244740856333L240.8173061927937,357.9945611939247L240.3288671187347,357.79784777433633L239.83793633123605,357.9848376669306L239.454266558987,358.26467473004504L238.97384082325152,358.28552655493604L238.3372229481265,357.96739299468027L237.64591928676055,358.18997695397684L237.5227278796192,358.2685466104158L237.16621954011862,358.40715688059845L236.82018123610214,358.47866271966177L236.47486234913777,358.36847624641905L236.3189910260644,358.16696952882467L235.9795314818184,357.6550023266518L235.2493392504366,356.92597720778576L234.05707734644602,356.08895950749684L233.85157228357093,356.0846878936936L233.07216916481593,355.9238269552625L232.24596597599157,355.52036731985027L231.24436356624574,355.2658769149457L231.11483169765233,354.8400316056259L232.0417799693023,353.896786830991L231.69344017909316,353.3171643385285L231.12132125624885,353.3507180892784L230.6926926911401,353.630776188621L229.8449428456879,353.6927112148305L229.4422427940426,354.0635967363969L229.5899750581557,354.5660624236534L229.00055557916858,354.8581497771356L228.0894008193136,354.799435107564L227.5557943330441,354.576953449191L228.2643739348896,354.09034902239546L226.8176201225633,353.31536855123795L225.92572896198362,353.2002781780129L225.48638093567024,353.2889073195074L224.2815174593161,353.1882977542373L222.96045862105893,353.3388745929533L221.95600429136175,353.17578760068955L221.27131432245915,353.4138278039454L219.00041092204447,353.4183164676988L217.22449071006486,353.8664656685478L216.5765752997395,353.91703223010063L215.72938519626405,354.47722169748704L214.8670174659037,354.12089103866856L214.1399378007809,354.1988196638167L213.6500305602076,354.08302572884895L212.1416625487309,354.0427025646295L210.34797943889134,354.9275258002417L208.99869286207831,354.46055734911806L208.04450656549125,353.9473123878588L207.11390951933026,354.2322271709645L206.22214904156317,353.8790812362813L205.66883406519446,354.18829008473585L205.3650166413936,353.86040295777275L204.74025551239902,353.628920527226L203.55021445392413,353.7287416618383L202.43176188304096,353.38700120737576L201.38705513891182,353.42511727082456L200.69679315615213,353.6848968526647L200.1465932506635,353.53271624709487L198.2092995081075,353.58098517540293L197.91770828747394,353.4663398286357L197.07510103239474,352.7424601223174L196.54749591321706,352.5334628631572L196.5632258288988,351.381483393493L196.87266592004016,351.0718124267014L196.44521056827216,350.49255841079594L195.68533510641464,349.9536032427459L194.63722708070418,349.47250930415976L194.55111520095488,347.86319578628627L194.17585228291682,346.3152585711314L193.2936107556743,345.418382914434L193.20964377798555,344.62120384631817L192.99933812509153,343.9147195072883L192.26468603875583,343.05420484614206L190.94039315633017,341.717378951339L190.19498086650128,340.42889863970777L188.69114601944057,339.763485319786L188.04032527965683,338.9309919354055L186.74658909960272,338.3279892798764L185.8274456041836,338.04165403116804L185.2387869783306,337.7043033761438L186.0884807481143,336.028657120306L187.42683919746923,334.8635553071799L188.4006659438819,334.45577272982155L189.20529611542224,334.52574444116544L189.61070305053363,334.8867965107793L190.73533603225405,334.9866601928161L192.47540645550362,334.3955216894228L193.12616799786156,334.63262537152605L193.6151950107742,334.13264975842594L194.7198067147383,333.67112319112766L195.72156021979754,333.47067880299164L196.05280208216573,333.28538133931943L196.50299302776875,333.451868375716L197.03491342746747,333.20422824619527L197.32405655866023,332.686202423798L197.37143303184166,331.5561212778066L197.6543191824603,330.4005988459421L198.78556321245742,329.65516167690384L199.69756054377467,328.8747239718332L201.5236619733896,328.0402745987494L201.8166658330938,327.69300392574405L202.63024092412343,327.320484085968L203.31322265297604,326.74994777426946L203.27231017170925,326.31952078953327L202.89715095591964,325.82141839085944L202.5454030901874,325.0374581066226L201.9943893152922,324.5589663844339L200.66668463865972,322.8145059357894L199.8931534997737,322.2580861140468L198.81820407847772,320.5896550227553L198.18144433867928,317.7199304682672L198.20150852130064,317.2187364156871L197.1920452282502,315.6263862186579L196.8912300491047,313.9807987265249L196.66643560442026,313.2454840295122L196.98083164084164,312.0000031345162L196.93732825021107,310.47146195084224L197.15534073196432,309.9596344009051L197.8640185707245,309.50362453795697L198.30798423409942,308.7479454675731L198.89008884816394,308.27348026303116L198.53009828467657,307.46297977708764L198.53033606584177,307.0505316839299L198.92433506907219,306.3626066726192L198.80119628898865,305.2371453286396L199.16959649171622,304.4036341855108L199.46567529423737,304.1151516961554L199.718117354676,303.0859142164627L201.03125493836342,302.40946502747374L201.55126521125203,301.82365829532046L201.89241460944504,300.9232392271797L202.1896844298226,300.8111824991256L202.8945992442077,300.1758197365871L203.44423008510603,300.0093437939995L204.1941040779093,299.3968710683175L204.93873082482787,299.1703060706932L205.52383603116868,298.70394868629865L205.71357301070202,298.3595576175712L206.1704591099351,296.19700376644596L206.0082266024947,295.7065288315489L205.11239818872673,295.2282501073578L204.987837224533,294.72211006726684L205.1292050319662,292.64846540350663L204.9105130287462,292.11426753728665L205.0242666260765,290.903352024352L204.66060616156756,289.6361043043198L204.93314408559309,289.22950689524714L204.71656480849379,288.3518635903729L204.77432786175814,288.00257531162424L205.15068995305774,287.95297994697194L205.878851826732,287.4509313247545L206.86729051459042,287.1372585384388L207.8459531490953,287.3553616725085L208.4433000793415,287.2905518685966L209.29880799163948,286.88011308084606L210.4037431346842,286.7300657860578L211.84816240289,286.40433521493014L212.328515558469,286.45018347826044L212.6328602577687,286.11816087769057L212.8518251581827,285.45176943674596L213.78560386834943,285.05000082072456L214.3626877994775,284.6187204794187L215.27704110708692,284.1240300588406L216.35921693928321,283.72652155603464L217.44489089682793,283.07224339408185L217.62114616752115,282.85957477245483L217.5027856534034,281.857887111697L217.5654206835643,281.3782849792251L217.94055269782257,281.0238361721358L218.61618069000178,280.85508042324545L219.3004235507633,280.98258021376023L220.64333713943233,280.5213197079029L221.18096242138745,279.4670444491039L221.5310612769772,279.0983275962917L221.6119415241501,278.4592867899064L222.02861907671104,277.61984722031684L222.78884385734455,277.82979637063363L223.42977606136265,278.35536615776255L223.72958220376313,279.0074576497009L224.53331007118504,279.312814513999L225.6513692780063,279.58966707008403L226.01813754022078,279.98368981078875L227.05918955317065,280.3744944940672L227.55455407927911,280.9167229215818L228.10059182735495,281.1804294262456L228.53489209653344,282.3786612559725L229.21150075688456,282.95328195060483L228.67073594057183,283.7633536735757L229.21987463646474,284.8586066668231L228.9262188035318,285.72540561671303L229.53859190761796,286.301300948694L230.26112394056872,287.40278559195303L231.35918582930026,287.7915441744717L231.83486077744783,287.8439081470933L232.84571806944768,288.59363958623L233.74425731381598,288.6113739889015L234.2765657450691,288.8494465937956L234.58213512207294,289.20993643565544L235.86147796640398,289.6335000289391L236.472938458488,289.1565725512746L237.10882264958673,288.85799337965454L239.07310165777562,288.4420278644784L239.43003199733903,287.9401066381588L239.61412623172146,287.0862425421701L240.15505747925454,286.6844179196987L240.87904792134395,286.45606490698447L241.11584905623204,286.05397500526215L241.83454450992758,285.58468850439294L242.77278380531425,285.33340515465625L243.54395748103343,284.8513437451302L244.35194200370825,284.85188379171905L244.73308754886602,284.5124748002909L244.35970463584817,284.05139688724375L244.00506171790948,283.0171339720064L243.5389513181599,282.25513534760375L243.79392891913085,281.2719363033766L243.77032037727258,280.79123304298537L244.15228687300805,280.47525358587154L245.0189983538021,280.61907675180737L245.24812371286498,280.39292282967926L245.65864851353217,279.29169213726436L245.9782064453393,279.10076088824917L246.50928286474846,278.2397027421666L247.48238667305668,277.83770069425464L247.66207931840472,277.4007183500098L248.8023501550815,277.42190313819447L249.25140832329635,277.2489127418057L249.2924167307374,276.1786366672195L249.49908812209105,275.66232665570715L249.77232945464493,275.56210129682313L249.47655178472814,274.1870254266769L249.9793957865004,273.8438915073448L250.06997679325468,273.2753106149621L250.83438700772786,273.31016881247706L251.20647145368457,273.068483039483L251.66814153071573,272.07035142351924L252.4086617185858,271.6382603607235L253.2208579741382,270.8876221262599L253.24515546466318,270.1704182982521L254.0385508770487,270.0111158805321L254.43068937230055,270.77220912816665L255.26792127422414,270.8599879035419L255.87843439349126,271.5160310157462L256.54146237354144,270.7854317936035L257.35446449111805,270.58309124668267L257.97468933146774,269.86275604801267L258.65643506888773,269.37418013225124L259.348671867383,269.31050785605476L259.6302944956624,268.7702038804773L260.38460802337977,267.8358533664132L260.10104670467445,267.4894112287893L259.90487524899254,266.1920446591548L260.6270769080347,265.9297659095582L261.1067615488082,266.2567562366794L261.95696690853947,266.560152673007L262.6162902656306,266.1788899697285L263.6630864392464,265.8984191142399L264.3685147791748,265.2382548649184L264.7139482447765,264.23578921714034L264.6996969964457,263.1124453847897L265.44268298749193,262.9150170307257L266.0772772237651,263.0817461755214L266.53222794222347,263.68798065633473L267.08226705519155,263.7575880112172L267.79622530123197,263.4308995517131L268.7756632598721,263.1712259170308L270.30088676763444,262.0887674383366L271.8517467949805,262.55905124954734L273.0594054424291,261.48835480049L272.47166358996583,261.0628713275928L272.3384673464352,259.83279187868084L273.2454670420502,259.73038983874267L273.96935888128974,259.4751410945337L275.02131328919677,258.64395962969775L275.9509210066153,259.2204136977725L276.22849784038954,259.80211880882325L276.48361099853355,260.91405682857294L279.37252100147816,260.16881515243676L279.9097870173191,260.26730233628496L281.3839368061472,261.013217950499L282.13784349657,261.2906753547204L282.7504133358834,261.89519295196624L283.8365795817954,262.0659084261315L285.10042867847005,261.73628503890177L286.7037706189767,261.0419007509345L287.6928416129358,261.16096969900264L288.1262939387834,260.8178856282884L289.31102013266354,260.76658859041345L290.07140372965114,260.94531848296083L290.13982118724016,261.255425155412L291.0722960506391,261.22640991328353L292.09170926069055,261.6942637703878L292.3894514107251,261.9687024004861L293.54700278062955,261.9875963544009L294.7762442321109,262.4625630781211L296.55095433378665,262.8755985881153L297.4140138494986,263.5573088747806L298.02591395100717,263.6958199214205L298.4332225818598,263.55463683485596L298.7150063812205,263.8011268080063Z" fill="#FF7B46" stroke = "#222"></path>
    <text x="250" y="312" font-size= "4" font-weight="500">
      जाजरकोट
    </text>
  </g>
</svg>