<svg  viewBox="118 187 110 110"  version="1.1" xmlns="http://www.w3.org/2000/svg" xmlns:xlink="http://www.w3.org/1999/xlink">
  <g>
  <path id="path-0606" d="M206.96440923222144,197.91911046577115L206.54424070547066,198.70033715223872L206.80508295870095,199.69276314582203L206.61826488000588,201.61962057240544L206.8532603871099,202.3015475633456L206.50577329943007,202.83046190722234L206.280400877562,204.7163886533417L206.6926126755352,205.51668560884082L206.85630729019795,206.26487273471776L206.53808883806232,207.38454630955857L205.7002116324893,208.16776285566084L205.75693931968271,208.82856533047106L206.05924992171276,209.13610892524048L206.03313048026394,210.01381630377182L206.32891010811363,212.1937992073572L205.8976847486374,213.10450699681314L205.83670515801896,214.38024737771502L206.37988603710073,215.15803163812325L206.7900419765574,216.05072405887768L206.6104732205058,216.56177924161693L206.9320059431393,217.23726292083484L206.81582324529518,218.1859582695697L206.35460235347637,218.952341593661L205.92378287501197,219.27513117008493L205.0309938680184,219.58899861062673L204.63266634576394,219.94828538288857L203.79818835619517,220.43189055534003L202.357403281605,220.5369940500077L202.1621757035191,221.33665027708503L201.78227342937316,222.02011669815693L201.10938541163705,222.6711311594563L200.65936021713242,222.85950433017024L200.3622122880679,223.61782653502178L200.65942644874667,224.52071049986807L200.35582471318958,225.30020878184405L199.41017870894575,226.36847586780914L198.26640883299842,227.21048475065254L197.6963632362349,227.41535697381823L197.1730642269231,228.29820292137356L197.07294055255807,228.74223854582397L197.10329678785274,229.89442468363904L196.66701673940952,230.31061399768078L195.78838196489232,230.44188274573298L194.6536335965011,230.3376839242692L194.19210156299596,230.13752878522791L193.554119645416,230.22048998679384L193.12514115054728,230.07626888099003L192.77632864312363,230.4594988868912L192.0146167530056,230.63010510033473L191.82929518912533,231.3326627807901L190.6879981937309,231.42751090904312L190.49314631826564,232.00934479777152L190.37861616821283,232.92277952366476L190.87969353133303,234.497009245767L191.09726686430076,234.7936782630286L191.09043696939443,235.711336944305L192.09672209489509,236.2605883695942L192.89224133378048,236.4058210605308L193.31852237008025,237.0667778488505L193.24872083150876,237.43013858423092L193.5889753084466,237.8885346072184L194.01876402729795,238.14061973334992L194.5609075327484,239.12814316291679L194.9545073870613,239.43924964100006L195.39942307495585,239.1053023797176L196.1066145849054,239.11876506269164L197.07925005756442,239.95576047523718L197.9073369975522,240.26357871037817L198.30288516230212,240.6326649804205L198.89625529858495,240.77716555491133L199.7919322582784,241.70837003954784L200.215338390135,241.8517706452567L201.3705516688642,241.9589943333558L201.48459163169355,242.41507866005577L202.11690671131873,243.22079851031958L202.66626404124145,243.53086183040887L203.0041732119571,244.33326661040064L202.90110633786207,245.25026531467938L202.59283737700753,245.97270250150723L202.56081136775902,246.66163893062821L202.19801424808975,247.131287775459L201.2344773849636,247.63358446098755L201.09485626289643,248.03226806368002L200.58891558459072,248.4735658120553L200.07650050610755,249.15709536319173L199.86069437530023,249.76259185193157L200.08837114674498,250.73309556351523L201.00629775982088,251.48322003747853L201.11616243629032,251.99364675822108L201.4413372086965,252.24383496077098L201.62441561914966,252.8170905383895L202.91188107155722,252.73296923616726L203.78970048693373,252.8870435305107L204.3509275339984,252.6353735771727L205.0912273122958,252.90479700896958L206.0912918662998,252.80250425260238L206.80113672264088,253.26362649458406L207.72261789395816,253.48267334752836L208.1905015919856,254.11452950611056L209.12288360685488,254.3898413791194L209.36185822385596,254.31637741585928L210.4193416186663,255.1805490227489L210.73721118095818,255.78309888106833L210.71504153630485,256.3315192718719L210.3859961149028,256.74251426089904L210.53688541264455,257.08926439785137L210.2462917363282,257.97485082147705L210.51686963270913,258.2402267134903L211.58899031038527,258.5289844821609L212.22712104995662,258.5423868406815L212.84115674871464,258.95612468647505L213.64129365219014,259.8150333846097L215.1366595653144,260.8390293789771L215.66541713657352,261.8206743322562L216.75439700103198,262.5195528148006L217.6221844218744,262.57232785442466L219.00577491041804,263.073208662272L219.8319443599994,263.6690277194102L220.14366421498744,263.4808278396249L220.97289479292158,264.04089629873033L222.45548987804614,264.5259029371846L223.2920790267326,264.97868288507016L223.85387262159202,265.5947384821193L224.0509817749953,266.61030142421714L224.31096123866337,267.29568220438887L224.00438399573432,268.8038479229717L223.55240184622744,269.14743421380354L222.9806881167442,269.22047407624905L222.91003058850038,270.3498203053541L223.32219416485168,271.19062025565654L223.77765850951982,271.76741173695245L223.13917485404454,272.578170585155L223.2172926479143,272.9372672720483L223.89859173871628,273.50471080925035L223.57867428650388,274.1415013157284L223.58217539686484,274.74758283745723L223.29609215764503,275.14237381949897L223.2461285470672,276.07341995134084L222.7608131281504,277.288063727784L222.78884385734455,277.82979637063363L222.02861907671104,277.61984722031684L221.6119415241501,278.4592867899064L221.5310612769772,279.0983275962917L221.18096242138745,279.4670444491039L220.64333713943233,280.5213197079029L219.3004235507633,280.98258021376023L218.61618069000178,280.85508042324545L217.94055269782257,281.0238361721358L217.5654206835643,281.3782849792251L217.5027856534034,281.857887111697L217.62114616752115,282.85957477245483L217.44489089682793,283.07224339408185L216.35921693928321,283.72652155603464L215.27704110708692,284.1240300588406L214.3626877994775,284.6187204794187L213.78560386834943,285.05000082072456L212.8518251581827,285.45176943674596L212.6328602577687,286.11816087769057L212.328515558469,286.45018347826044L211.84816240289,286.40433521493014L210.4037431346842,286.7300657860578L209.29880799163948,286.88011308084606L208.4433000793415,287.2905518685966L207.8459531490953,287.3553616725085L206.86729051459042,287.1372585384388L205.878851826732,287.4509313247545L205.15068995305774,287.95297994697194L204.77432786175814,288.00257531162424L203.89810649901847,287.49838056949375L203.43034748251375,286.9921349683473L202.9993627750082,286.28720933526347L202.6769474438188,286.26028135963315L201.78931924182507,286.8780468429086L200.9464967523727,287.1464752341444L199.66226159398866,287.0808825170534L198.90188678794948,286.6930010520764L198.413343221373,286.80869787171287L197.9444486851644,287.20080907362444L197.4151253997661,288.1813784725264L196.52151353683803,288.39214612495743L196.01420533728378,289.0842000091452L195.397020774888,289.29372692983816L194.00759756804473,289.3165750467315L193.45770048447594,288.95983620728566L192.40507253059513,289.1202196139011L191.44118139034435,288.99075162496956L190.88088220561076,289.0853591304858L190.29852861183463,288.61707016100627L189.8568743083306,287.7668521308624L189.46498629613416,287.30065493344046L188.17914530505732,287.14763925008356L186.8603524905502,286.5705408177764L186.1735941908446,286.8678099875824L185.65150478305077,286.9097035699915L185.04017812473649,286.63366456092535L184.58097929747964,286.09507308124194L184.40902317762811,285.6303058952535L183.49455014180785,284.8736898950383L182.89965970299818,284.63890036683733L182.52188999044665,284.02657763612115L181.80823726366725,283.6178134560014L181.72163465241283,283.3878793826634L180.65620076740197,283.09462642772996L179.97454834784548,282.6197863630159L180.2367802317749,281.8485922780146L180.01173168903733,281.2893728252411L179.39950908112405,280.9007177430858L178.41196595694237,280.59255849301553L177.95830496448434,280.17789976793574L176.63644627954818,280.062802890272L176.12513546228547,280.1730253067908L175.68037976685264,279.8570448519804L174.8009616042018,280.0292814631912L173.86789515843157,280.5407510181212L173.45432077491932,280.95616845007225L172.7575783298289,281.0879489983836L171.75868461028222,281.62388999777613L171.3539400330319,281.31482885430887L170.47818060000282,281.3064264974728L170.1441244233356,280.91909041169583L169.33138985608093,280.3027808030365L169.0190589289541,279.860318274109L167.47806999215572,279.35324190599476L167.0022033997593,279.54253390925896L166.54374631699284,279.3994765701964L166.15708901451217,279.70816859919614L164.8704794029145,279.7158649607736L164.74711871553518,279.20638140073333L164.71805087876237,278.1678030809135L164.48776605370404,277.9198915522875L163.48125014660945,277.481320751398L162.16443719309063,277.35903441797836L161.7387405495101,276.4868074154574L161.72997773578572,276.1273546398661L161.3009920555687,275.56855434438694L160.92435611471592,275.35837942227135L160.01790580185116,273.93375829314573L159.22600062073616,273.8616186142781L158.3831393015298,274.0023172617766L157.8302298022736,274.36643156790615L155.66229661189755,274.8356266999226L155.23987161633158,274.77076937384845L154.47451083960914,274.99640362238824L153.66839781874296,275.5596171966299L152.94154878127665,275.48841968549186L152.12551102539146,275.781085351583L150.82645780885287,275.7465278021018L150.29278854670883,275.40932352216896L149.53737772087152,275.23507562535906L148.22203661662024,274.5233153725403L147.286736132246,275.45083352661914L146.84216712116358,275.3024360457557L146.21447575195452,275.57272294306404L145.7324585924598,276.32557300209464L145.24694488357818,276.719888792265L144.58361287208027,276.88307146929037L144.0479696980965,276.41954613188136L143.06014183000298,275.92128052291264L142.6135057753654,275.2150446282176L141.8102280362673,274.7123429722951L141.15812333896793,274.68822395232655L139.9192046676999,274.0359979111945L138.32682955088967,274.3619503172931L137.045819019173,273.77333851001094L136.32322539406596,273.3162455945767L135.6635551081199,273.4703895109051L135.0058968851099,273.1157218601329L134.97441977977178,271.5484298996598L134.62766641456983,270.6102121739077L135.31481481144692,268.7806788190219L135.43019507354438,268.1344117075523L135.35068041697377,267.0054473946584L135.48511294774107,266.12141867847004L135.7925775224303,264.8906477736382L136.1704743822047,264.35999391848145L136.89372727785303,263.983335977302L137.4746515848965,263.25109729201176L137.53537537813645,262.71910040273906L137.9122465229011,262.36617051065787L138.12274653885106,260.8472287083496L138.41433826551474,260.2910398934164L138.6217493398708,259.3295445959857L138.59552022526805,258.8480087036587L138.10883725795247,258.1872117755074L138.3441128728864,257.3774630494354L138.0407845518621,256.9893427627103L136.86327716740198,258.0355303239903L136.41701090410788,258.1795182205942L135.83073258632248,258.7892938763134L135.36134356553885,258.9097668135382L134.66027137537094,258.6504100872671L132.78619375660855,258.43573561034555L131.28463632127023,257.6767268721369L130.32205203852573,257.31519242769446L129.89554302939723,256.9089841559071L129.26334800832774,256.64783837044615L128.9876569729895,256.01192564446137L129.04572562402063,254.90785885179776L127.79864522930802,253.9392057574878L127.34864930299227,253.69827824682216L126.619940047829,253.69498102535727L126.10634667493468,253.52766201817394L125.22168560041428,253.61619884170705L124.91424275279314,253.9686868603003L122.33616067568437,253.89441504511342L121.9156615930242,253.28985791909508L121.60585633718256,252.28299241882178L121.48337998541501,251.19901400083108L121.58363495672529,250.53937288069665L120.9991084104604,250.45808146363925L120.26767341627965,250.04913377041612L119.92545233094097,249.15887746679527L120.59338597050737,248.09902855100518L120.70376805265914,247.37178093946113L120.55916230251023,247.05956877866174L119.51558651720006,245.85599314327192L119.35573528423993,244.94694675280607L119.03910044155964,244.18809390463048L119.34014584530996,243.5738027797761L119.70922463679744,242.31834027404875L119.815979193756,241.45138515507642L119.74057546614677,240.79993999107774L119.88064576029319,239.44506731758065L120.08034945251711,238.96437360556592L120.753704239125,238.37490332907146L121.49963904507786,237.32022189621966L122.16721483879701,236.82449429105054L122.16716936505145,236.3156706413356L121.57611739336244,235.64771038658364L121.38480166739828,234.62848569100152L121.1900423393472,234.19497468305963L121.511346864183,233.73375294991274L121.48602373902031,233.23500936217533L120.7909174587221,232.348309610843L119.97782077452757,232.0142322214151L119.42419599208915,232.07852681302575L118.52726937712941,231.79192195172982L118.18459991734744,231.89414435678555L117.72485054116623,231.36732292232773L117.37396017215724,231.2847424561396L116.2549352263868,230.34802938928624L117.1930335856232,229.7651570785638L117.83030381322169,229.60827006365525L118.36831997006266,229.1986320853057L119.35149108124097,228.8361412181075L120.10128977597378,227.42778788003125L120.70395199447375,226.67715332377065L121.69085470429127,226.09859147775478L122.5136571357034,225.3660681033607L123.26233333927303,224.2071357216264L123.65037098109678,222.9907059659963L124.07452851342532,221.9764579522116L124.68517052088828,222.34437789334424L124.96683778942133,222.2517338507687L125.70611868268497,222.4075371252975L126.05908097198517,221.90671872572875L126.67736879937365,221.778270690731L127.19426757331894,221.87577866678748L127.72938243081626,220.83196363666048L128.17937950287705,219.72505046860715L128.73306215195953,219.46820018635026L129.54959405030968,218.7363259933445L130.44220086410314,218.51181692999307L131.11038843566166,217.99112884611895L131.95648239810725,217.13301896835128L132.4287908247661,215.874199404514L132.38801990001957,215.13004008563985L133.59196353374318,213.8238863467668L133.95966247906654,213.5288017395551L134.1195219254787,214.1943303318758L134.4389325838747,214.7005042041328L135.53675060958085,215.20643501152426L135.66907123082092,215.4359886865641L136.32451272572143,215.09307363871176L136.87703018241154,214.03274870047153L136.97604734810375,213.33516487419L136.85393767859387,212.93015296801877L137.70458202040754,212.46391494656382L138.12185186385614,212.58773189977637L138.43595619925327,212.19433708295037L140.72667956094483,211.88614644176414L142.091744518033,211.97668644233636L142.85166651305735,211.7100108425002L143.9237553526109,211.6123347187695L144.36536080848418,211.0794633251353L145.54239443958068,210.99382510873875L146.54396053252094,211.34063723446343L147.29781406650181,211.421081163523L147.51202211796044,211.87607400099932L148.91802094868945,212.2160465846764L149.6110275792944,212.7807586259778L149.7010608422952,213.7992497052328L150.02045369265034,213.9829093769231L150.55631864400493,213.82501929821046L150.75221584272913,214.18889077026506L150.73281720630257,216.32967344308236L150.50221879288802,217.0575104696145L150.3322973095419,218.0875667276705L150.43689574739437,218.6043988321253L151.23628284520055,219.33854180496928L151.34594053906403,219.92656873751275L151.21152261140196,220.22518980949553L151.59096738013795,220.68634097172708L152.74541859975398,220.65614759855544L153.13227043194638,220.980750950147L154.7249089932793,221.04875239083322L155.83868455422817,221.5273096955043L156.60781186182976,221.00293362880984L157.4569392711037,220.63103823448546L158.25528989142913,220.91978753634248L159.92960058003155,220.80594875831503L160.23559886346993,220.4967679979345L160.52094280570236,219.85108662613402L161.66231331640302,219.06841737362993L162.3346699692047,218.84164531467195L164.00621453429085,218.82529687070837L165.5283157859467,218.50368073681693L166.10737829762547,218.47941058147353L167.57536839421664,217.93660476479454L169.4813375108697,218.1818236115414L170.33196602720454,217.51110064370732L170.69995629224468,217.06888635578434L170.98910842938494,215.6944033931677L171.57965213853458,215.30118846937876L172.00620251515284,214.5715606062804L171.586701751874,214.340210432194L171.71026509832336,213.83210773834708L171.34483020447624,212.64004835008018L171.4455101987678,211.7945387749105L171.89625164702193,211.24981155410478L172.1768808199049,210.62766999778069L172.78971005452695,210.00785098189408L172.98780952369816,209.5487986470407L173.11091378003402,208.70431757352617L173.41235827290438,208.51726922549278L173.53797949014734,208.0317264675914L173.8441509515651,207.82351432425367L174.74693044952255,208.0355558314568L174.82197609307332,207.1147610563712L175.19991245747042,206.76241901330468L175.78220068757582,207.0093458158981L176.76066152195926,206.92927046160548L177.4712592576252,207.04172989574363L178.23763338060053,207.3534436292539L179.21896211081184,207.39149564612308L179.23686362133412,206.49470679706883L179.43666509161085,206.01847115131386L180.2301735788078,205.3552811617028L180.33145805530148,204.7617645126993L180.8824581582794,203.79254879876135L180.61093842179798,203.58759008224752L180.8495696159498,202.79996048319754L180.6696904399978,202.38159957544758L180.7478899165526,201.82287848029773L181.06960650792098,201.13256662658932L181.21545871495437,199.89880980571888L181.11789247978777,199.5269149135147L181.6607215645745,199.1230575167483L182.1224120224324,197.90403019267796L182.37193808886514,197.52892173339478L182.01405830496333,196.96227018372338L181.92740514935758,195.9569819543458L182.3416050254491,194.9255384455164L182.84049446513927,194.66997472549156L183.30815414843892,194.4204127180974L185.01626740664506,194.3658879610066L185.79493399776402,194.48031826306942L186.2545246251375,194.3275608237209L186.81663000800654,193.89830177834392L187.3670388080336,194.11832112905267L187.9351153271091,194.0736956372948L188.39098842855674,193.54566171572696L189.63672238410982,193.16010476594238L191.57806103662733,193.42354710410837L192.37164204008332,193.40035169403745L192.87367723319585,193.73510654090296L193.37390336568933,193.57921315960266L193.98722163537423,193.6079374807996L194.4587026476911,193.3736358095157L194.6981572658733,194.12577777909246L195.77104052841423,195.30951128063225L196.67213202771018,195.63723058805226L197.93007816169484,196.72855395906845L198.3798462158229,196.54854586851252L198.98341652382805,196.6126901663174L199.8906308407186,196.21562509729756L200.43544954906974,196.1277906045234L201.49761198868146,196.36041787269187L201.99153318277604,196.3306128662698L202.51378644981742,196.56624817254487L203.5194888954793,196.72562373295295L204.2489665579924,196.55957397461134L205.13486548788023,196.53386650614084L205.62899824435772,196.69155891473838L205.953777441915,197.42317287614605Z" fill="#f9645d" stroke = "#222" stroke-width=".25"></path>
          <text x="165" y="250" font-size= "3.2" font-weight="500">
    धनकुटा
  </text>
    </g>
</svg>