<svg  viewBox="205 78 150 150"  version="1.1" xmlns="http://www.w3.org/2000/svg" xmlns:xlink="http://www.w3.org/1999/xlink">
  <g>
    <path id="path-0607" d="M382.60316308022266,148.44115676470392L382.6713540613964,149.05536940793718L382.3770834668503,150.34774541204388L382.4357607929105,151.079632477029L382.9660942444589,152.41110270090576L382.78584362065703,153.08807537240318L382.84436394180193,153.93444012420696L382.6773213379529,154.27537710275828L382.54468272651866,155.36122065091968L382.58378349468694,156.42566523837013L381.7903118199629,157.04752082274535L381.2642821212303,156.6106346456254L380.594656007941,156.7956067211071L380.0143876864113,157.16809942526288L379.80360323814966,157.74149518785907L379.208394389776,158.15701368641749L378.0764238084612,158.5809173904463L377.22191956191637,158.27127563089107L376.6025109561451,158.70430844476869L376.18582679848987,159.75872901347157L376.1849748855857,160.6741217502822L376.6476027659228,162.43352180597867L376.51157733025684,163.17863911663244L377.1491059082764,163.7258127110781L377.2169769916909,164.26665045569462L377.60627318628394,164.9301180134371L377.58296272579537,165.33787542424125L378.452147916807,166.11501752529603L378.4591345926874,167.0573180168367L379.1477544125846,167.43302543082063L379.07371450394385,168.35615973504082L378.76864649065647,168.61570166458932L379.3482925143726,169.632862923213L379.5539919510138,170.20032480141708L379.9173812987592,170.63333095840972L379.95655168880876,171.50197434983056L380.2179802048213,172.97638967379407L380.7741352420144,173.29233109502638L381.05301307519403,173.99043634156897L380.3823163051766,174.54890917358807L379.36534037222555,174.73258810026437L379.0458859398641,174.55423197543678L377.95941070364097,175.5050361041458L377.8455217235114,175.93304004260972L377.0973903764334,176.66291821560662L376.54256947655995,178.2220372392194L375.8199049646446,178.59060057950774L375.77774499442967,178.92912299826185L374.35193141239324,180.61777244468703L374.3812359671774,181.12491785093334L374.70464778787573,181.38716953566473L374.63683504690925,181.97255360612235L373.6747017678026,182.82737199343865L372.83788126601394,182.47305086257893L372.19033271810986,182.46664262602917L370.50887328899626,182.78586240658842L370.66285350825456,183.3515247061332L368.4742557488771,183.57260014854273L367.1064722639476,184.18127350398117L366.57510941059445,184.08593421492242L365.50711233532274,184.2671030515421L364.0933377036945,184.04318977782805L363.2524543949057,185.14075243085153L362.87348352278605,185.81622163245356L362.9556833491715,186.34893912274129L363.2982576888571,187.0431365436516L363.22696868779894,187.73115499232063L362.8430249767698,188.37838146429203L362.8001814891395,188.8411183807857L362.3103654260012,189.64938920862915L362.3840599107116,189.87144815861575L363.04474453902185,190.26027322311893L363.7438917887648,191.01738105156255L364.5179125985778,191.52893699789456L364.51109230939255,192.24106992275847L363.38755067993225,193.48497026456153L363.27741005288954,193.95809408426885L362.8570756156114,194.3515154700508L362.63369031028014,195.00562274140793L362.645692427257,195.65305168555733L361.04244115265465,196.55908629203805L361.48294127079134,197.18470840323153L361.23897531307557,197.54066202016747L361.22507250244234,198.05706723360254L360.76781357098844,198.46458606739452L360.59777449227295,199.0275709223306L360.00869946373496,199.35548270006984L359.11842977105516,199.4768196957375L358.18617125446144,199.92435811097494L357.3638034797623,199.63580589943558L356.56321186156674,200.04542403057349L355.77913850405275,200.29887361547844L355.03819708607625,201.09250004893966L354.88856187165766,201.6752031339156L355.2193554933201,202.42070572799366L355.1884629145752,202.77152453737108L354.48801604412984,203.231931732892L353.5260067327308,203.53274509778566L353.0712597538168,204.0119731899813L352.9206423829528,204.46873490282724L351.9377672712617,204.93468206149646L351.4603876409474,204.75600969351945L350.61229306493806,204.68802365051215L350.0305635096938,204.87288409169923L349.66709340176203,205.3472730793801L349.69481109905064,206.14082715071982L348.36093240318405,207.03299354685623L347.49158605531375,207.44534383112477L346.3979890194478,208.08852662265872L346.0824464224643,207.52553652899587L345.5515764394222,206.93954867590037L344.97019095739415,206.53531495757306L343.9919819114002,206.34866440310998L343.3993691228661,206.11431638805243L342.78093409117537,205.58498689213684L342.7872633301904,204.80257759994765L343.10160692157297,204.1279299186126L343.3603530850196,203.01539697030876L343.24005781914457,202.09241232688328L343.25010449086767,201.01029360622124L342.55382589407236,200.39736359491326L342.0280522656594,200.54556633418542L340.824761365835,200.67298253014087L340.21075579256467,200.58302100224864L339.76707323849405,200.6972601411444L338.4507996320099,200.6098317203141L337.1989498301755,200.76310313466547L336.7531767762739,201.07634021666217L336.2609939878439,201.08021752223158L335.68187699856935,200.82203560861763L335.1626425883205,200.93361810818715L334.71980764098225,201.83689230484288L334.31939603953106,202.07189148531143L332.9878237861012,202.52324447979572L329.95275390305505,202.99083766188505L329.6951696572396,202.7173784376373L328.9819617055273,202.54124465260793L328.05712782899354,201.83969473088837L326.6769752544642,201.17232195950055L325.5961393731577,201.14617672920212L324.83516821285593,200.97598367305272L323.4878846588945,200.8573733772546L321.92901709685975,201.14429416368512L321.715642455556,201.41275089234114L321.062077135819,201.218489882036L320.91871789804827,200.79091831481583L320.71045567768124,198.72694258295996L320.43400493229456,198.12539672840012L319.985920071842,197.9372687955265L319.4937879978479,197.37616738443649L319.52133898217835,197.11994860993582L319.01235258491397,196.42820301489155L318.94065997280813,195.19144822144426L318.5556025730093,193.92508339230426L318.87379945168504,193.66205083431214L318.8375452522323,192.84390395679202L319.03419711196693,192.2763872443511L319.61160756060417,191.65951977140048L319.5219881906014,191.23180049377606L318.64483448547435,190.6617884267207L318.5649265687607,189.55684173714963L318.8205578307352,188.8728624107007L318.11844425323216,187.3077603897591L317.64544498151554,186.90465191064595L316.4042556580516,187.34640141408L315.67591016369624,188.46134139302558L314.7788655901113,188.45222982092764L314.62592633076565,189.18156027486475L314.01657329314,189.67025775616275L313.51436098254635,189.71198003202335L312.9169921198445,190.554422798612L312.4957098905488,190.69517745603207L311.79477453927575,191.22844500783685L311.062003841309,191.47407972697056L310.4097131420167,191.9827167921494L309.22383516774244,192.63405746511944L309.0342643928252,193.98491394986922L308.813927301082,194.5805268211634L308.3021283918988,195.43152938903313L307.73438468821223,195.60039420900375L307.0309775538699,196.2495601783503L305.2329420053011,196.73844603815087L304.6028991457515,196.32283501019265L304.0789585397288,195.5932324948135L302.30967501145096,195.8682637600141L301.9387930540797,195.55667957756032L301.09408555392656,195.19015970776582L301.0439095083311,194.52794862387418L300.7701934633369,194.11620274695179L300.75874198911697,193.42877344955832L300.9632783227189,192.7180095344529L300.268291060298,191.72147451968522L299.7371172967687,191.25000110308702L299.2743736657121,190.44731672189755L299.09834718599996,189.77584831778586L298.1938273563628,188.85892525744293L298.1256125032287,188.25267343172436L297.6381783009165,187.41705580823782L297.5435843638952,186.86312581695347L297.0420165074029,185.9946727725528L296.1391661989983,185.28778262067044L295.75752568115786,185.3275557800307L295.0846866262382,185.94951946006495L294.11460687633553,186.25858744062862L293.40456159150926,186.89082732187035L293.11191577801947,187.35896885444527L291.96633367533286,187.52133838823738L290.90163510488856,187.25452878757824L289.6312377926588,187.09526766871386L288.26938994548436,186.82067284099594L287.6463489569178,185.55379709038425L287.1046133667114,184.81373548090505L285.9487045299593,184.8387980609932L285.1592082680363,184.5590633988768L284.9161083579547,184.06954529414816L282.6142149329535,184.34367761580506L282.17391712587596,184.70042991373157L281.2356042272113,184.9064221542967L280.18561700399914,186.77063362247281L279.41466838908855,186.797552341548L279.7204496441882,187.35128337490733L279.4600609684494,188.4046849191427L279.6126730233209,189.18188656936945L280.3012074410872,189.59660273104328L280.4794457280168,190.00763959573123L279.6944659995861,190.9140169592356L279.12316464075775,191.41850082462224L279.6486076608435,192.60600176456683L279.5608083150837,193.24074354944605L279.3363757829975,193.5735856226338L278.5862582224836,194.2071732406339L278.58219772692246,194.50636823665172L279.09195813092265,195.34452084348504L278.9100483426846,195.73922459991354L278.3811405281049,195.94137756396503L278.35419611211546,196.55241952831693L278.06338590266023,196.9460592862688L277.6002071447583,197.1139427284943L276.71896301242305,197.20000630429422L275.8812098258022,196.718971821384L274.9319590766827,196.8601257428827L274.615450400961,197.02329181157165L273.46837081526246,197.0056837631446L272.95960719676987,196.4253416577858L272.1368571385992,196.63941558504666L271.1375845469065,197.8388303708025L270.69921430637623,197.7931532429402L268.94024213598095,198.69776837224435L267.51124149363204,197.61962602566655L266.7555614958892,198.13108128824206L266.4271916738526,198.63324692235983L265.4266576593109,199.16766973723497L264.7529377366991,199.18002469885687L263.9986789039467,199.72031061852795L264.2894912628326,200.11150493572495L264.3319984304453,200.66087960174627L264.0625062252093,201.50574258414417L263.10122197680175,202.6081686002981L262.73631729525187,203.67097774694776L262.33149586960826,203.85867683570632L261.6826358560029,203.11815117960032L260.68669754940856,203.15288687201064L260.4192645208386,203.4205359178568L259.8047600371192,203.49676090349203L259.146416530064,203.19028788791002L258.3902963498276,203.0720975375698L256.8554447406095,203.9994530740496L255.9432853635808,203.87730894043034L255.5081164316125,202.75250174861867L254.8816845131496,202.21919175349922L253.99107816825745,202.00271683045503L253.6008434944688,202.22119373862643L252.23114560697104,201.9576949765933L251.4112725725554,201.44356731067273L250.43920062117832,199.96188682749926L249.59663813517363,199.68054830039455L249.1978401160559,199.75094042064575L248.6542280161175,199.5208291435456L248.38915124092637,198.70744982807992L247.8264208821547,197.76643090288144L248.41313317424465,196.81448340893076L249.02700080152317,196.06744897046065L248.45936660926782,194.8505545114076L248.44815823910176,194.04863537019992L248.2452888830394,193.50321893367436L247.93435681835763,193.2256085030458L246.74581487697833,192.85875031282194L246.16729134098568,191.54457390296648L245.4885739788224,191.51670798793384L245.0563009870457,192.0439211924995L244.2320618889189,191.86192213486993L243.64889002039308,192.19648379028513L242.57910736466147,192.50489149572422L242.22044075475424,192.46210361949397L241.31614213519788,193.58129550314516L240.88927519557365,193.7174327394432L240.2195545476552,193.42323188847786L239.65908120717904,193.34965652313622L238.7954090069543,192.61675184300748L238.77949075285505,192.09945314267225L238.218299938364,190.28300530216075L237.13220466162966,189.2627766848209L236.53152059625063,188.97853212010068L235.56914800560662,188.8208830464755L234.86361222324194,188.9301040697619L233.86765873823606,188.79390087895717L232.39761619316596,189.59678358877954L231.6814132206673,189.70335928056738L231.32537212387615,189.24038310938158L229.92534680073004,188.75149339843665L228.56902007693498,189.00915122834886L227.08641820685625,190.1499556469971L226.3787712167923,191.35251362140752L225.9440590111335,191.7682007901185L225.4813562725485,191.84507268801372L224.84219466535978,191.70003403831106L224.3529913840739,191.88635022354265L223.4053998635718,193.02484468113562L222.84027463579332,192.3800445568877L222.1854807742966,191.2748732910204L221.70965404640083,190.93886889787336L220.85956426646771,190.90415889697033L220.29682225625402,191.34195460597675L219.3055086202603,191.10556648235524L218.77298473926385,191.12855019818198L218.26684847514298,190.89183693752148L217.45871641154736,190.82749956957196L216.41147694589563,190.93690894553038L216.09262358137676,191.47384502404202L216.5048398978779,191.8406650896468L216.40506267307137,192.47247976041308L216.08607133788792,192.82905872758238L215.42675718968712,193.0178389847788L215.0909914829972,193.59841324658373L215.14389464080523,194.06205499135467L214.69927382305104,194.4358557149053L213.7269965609703,195.81367942885117L213.6237239972561,196.17184760462624L212.7478264705078,196.63540415771513L212.1099798489704,196.74309321268174L210.69878201373467,196.75111025580463L209.47220939723593,196.84847047925632L209.21048819638054,196.69852757186618L208.39364887499505,196.65475387589595L207.8365621310877,196.936381219728L206.96440923222144,197.91911046577115L205.953777441915,197.42317287614605L205.62899824435772,196.69155891473838L205.13486548788023,196.53386650614084L204.2489665579924,196.55957397461134L203.5194888954793,196.72562373295295L202.51378644981742,196.56624817254487L201.99153318277604,196.3306128662698L201.49761198868146,196.36041787269187L200.43544954906974,196.1277906045234L199.8906308407186,196.21562509729756L198.98341652382805,196.6126901663174L198.3798462158229,196.54854586851252L197.93007816169484,196.72855395906845L196.67213202771018,195.63723058805226L195.77104052841423,195.30951128063225L194.6981572658733,194.12577777909246L194.4587026476911,193.3736358095157L193.98722163537423,193.6079374807996L193.37390336568933,193.57921315960266L192.87367723319585,193.73510654090296L192.37164204008332,193.40035169403745L191.57806103662733,193.42354710410837L189.63672238410982,193.16010476594238L188.39098842855674,193.54566171572696L187.9351153271091,194.0736956372948L187.3670388080336,194.11832112905267L186.81663000800654,193.89830177834392L186.2545246251375,194.3275608237209L185.79493399776402,194.48031826306942L185.01626740664506,194.3658879610066L183.30815414843892,194.4204127180974L182.84049446513927,194.66997472549156L182.8717686483451,193.7180106446067L182.65195657689583,192.86928440445172L182.67046226491038,192.20633768452808L182.37685657931615,191.742184848963L182.01689360560886,190.41919949038038L181.14240135849468,189.32739324176146L180.9329681678937,188.7974577968116L180.40892869582603,187.97256941718842L180.08218649738228,187.72616584705702L178.90885838402937,186.12829583185248L178.96483069708484,185.63663031297438L177.962760576238,185.18469792189262L177.39946372556187,185.41433448042062L176.8471073327746,185.1732861497003L175.7388961435281,184.92946518455574L174.94145798125646,184.9845286571017L173.95610612616838,184.59339275200455L175.27036708196465,183.80661821938338L176.38836392455778,184.06772031101173L177.32749839037024,183.92689771538426L177.4803566786777,183.43138516384897L176.8470365488156,182.5688004122112L176.97080831589665,182.07974270814066L177.59962285009897,181.63828427300086L177.8570520807716,180.79375251570218L178.50989035825842,180.07884320805715L179.5293406566252,179.93858288932006L179.93631338426712,179.52107138504743L179.72375369839756,178.79441623738148L179.3751575799124,178.251733053512L179.42318047008848,177.69858507998106L180.0490258652735,176.27100478654575L180.83056548808418,175.42344076214795L181.1141936006079,174.03803338189755L180.88870111981123,171.25673334189287L181.03471294906194,170.74264141583444L180.48817552131004,169.90611830995476L180.21369473508275,169.16629796580128L179.32345274672298,168.06693539450043L179.53357239694378,167.26015122068748L179.28682201901574,166.69907091143432L178.93850260984618,166.56350779622517L178.15226982657987,166.5778603769386L176.9804067886762,166.09357243022532L176.5465377508226,165.7157421635975L176.16691522053043,164.90592866453335L176.3097574236308,163.8379301972618L176.71447797114342,162.8099163363222L177.04510314549952,162.41093642065425L178.03089421700497,162.02862869258115L178.3323758041024,161.18436587475117L179.5667053837551,160.68291081262942L181.34049002764732,161.50114377800492L182.22842293468784,161.54496553374793L183.58462262571265,161.73756382584907L184.50418384539807,161.4634026201329L185.7480857200444,162.05632507241717L186.4973463897295,162.13082876140652L187.13625619946288,161.90584520235643L188.70829483395391,161.9731850541857L189.82051423760458,161.73182005390845L190.46758672347096,161.85042847048408L191.0690061558289,162.17871516117066L191.6909957590815,162.2401769613025L192.8961384650629,160.93114481252633L193.55879120361715,160.4836968368918L194.40418479551408,159.54150752854912L195.20633639522384,159.4004539920261L195.61981232957805,158.99253220160335L195.59747966687428,157.9589270393053L196.31879975147058,157.06681956949615L196.44565258111106,156.29808960916762L197.30252855741674,155.74373029734488L197.6885097817285,155.32637829061332L197.53161889666444,154.95005072315234L197.73316986239843,154.38560847188637L198.54591355357297,153.48135019994606L198.82062763548493,152.89132186170082L199.27081051044115,152.6335542310735L200.2621304379336,152.55759365804715L201.84271130700108,152.96260978366263L202.8196918006488,153.66283634703632L204.37576925265603,153.5462551633991L204.96151271341114,153.20686813108387L204.76492166157914,152.41031625798678L205.28650539810405,151.5232697473848L206.54980205744323,151.18863763549598L206.90629350500967,150.82869017132907L207.2487563460145,150.82490095031244L208.12183686770368,151.72128529137353L208.36153660603668,151.7994579335882L209.70850503534348,151.47839489985017L210.5428855263999,151.05161830952147L211.50921904519964,150.1617119443381L214.19630087580845,148.35566678807572L216.06299660403238,147.43407580850453L216.73047420877083,146.96825639415783L218.08766433478013,146.39974413936488L219.38102521594556,145.27698323353252L219.99678423216574,144.16863483780526L220.31583949063133,143.96991429657282L220.1725033442999,143.45035176120655L221.40174280983956,142.54292773531233L221.69813096662438,141.11924675506543L222.82867464738592,140.36671855233544L223.6032428814724,139.39050650276295L224.51827439953195,139.21632168759425L224.85133600393056,138.78793534990655L225.41791477617335,138.5558490897056L226.12963592354026,138.49638967124974L226.3477643456772,137.66888258161634L227.14911370376285,137.1955535339839L227.46123381107645,136.8156431906309L228.87545381281598,136.68090065724482L229.58442857837326,136.45532807670497L230.58376931110615,136.99542997071057L231.42226080724504,137.02508175165894L232.3293784622474,137.39258055622668L232.1550384945931,137.8468804547265L232.5617672778517,138.83272707970627L232.4672318165267,139.45299208482993L232.15705275362416,140.16080542064265L232.50729367027998,140.89115721920734L233.36885212193374,141.23798285012708L233.8355798164721,141.60286685583833L233.61338034133587,142.15446178234106L234.4103284076864,143.42901390872976L235.18317343105628,143.98469784460394L235.70998577322825,143.728631447525L236.27391410396558,143.88484074911958L236.43712842094283,144.47094382288196L236.27160133959842,144.65611648607137L236.51022265954452,145.36262393705965L237.382871429405,146.0765322711186L237.89680501674047,146.09711316804623L238.7879815845954,146.70602320025773L238.64233909419454,147.3108203368056L238.85647687510027,147.9198990723262L238.81391687329415,148.49592533066698L239.79632635696726,148.70914101021117L240.34992317348588,149.1336447729018L240.3328582950926,149.53881768516294L239.7317268236693,150.22822712691686L240.07771146013147,150.59884468564633L240.08007086343787,151.03336240339104L240.5416972322837,151.7050715421401L240.38196668093406,152.09226708940423L240.33095498435614,153.2671363081963L240.63741428086723,153.40538210157501L240.74060600641315,153.9896979180803L241.8859357743877,154.780725155234L242.03848452360398,155.45208346201798L242.62185780404616,155.42603705017336L242.7854700996213,155.67536991555244L242.1429724227528,156.59422514124162L242.17393710204124,156.82609489236984L241.37921330855897,157.30345338879033L241.12021468451167,158.0261835950505L240.6566402861481,158.6495402286273L240.7276058114403,158.9979813880118L241.46347427039836,158.72520641248866L243.9795986946392,158.16774947765953L244.99971621353325,157.68310052949437L245.74827621085933,157.60901699329952L247.3390933289138,157.20491201786353L248.45313941822496,157.06332721998297L249.27366280086608,156.32297716995527L249.81808397731402,155.27042927664843L250.4788916128109,155.05648018905868L251.114221519485,154.62752611570158L252.50358734776455,154.87173452997467L252.79273405709864,155.2623653492592L253.73366304076262,155.47571629309823L254.58105065985183,155.09247924168267L255.36443925681124,154.91644675503358L255.7318942676029,154.6947245950032L256.6161020679119,154.61996548743537L258.242571604329,155.6184345050233L259.40830198806907,154.9182146836547L259.661915400844,154.38833407971288L260.16112546386466,154.26335327136803L261.0060315309056,154.79127102995335L261.77672680804244,154.98393826281517L262.74562587056244,155.08297034805037L263.4313480443143,154.43024093438544L263.4556915181165,153.57564486170122L263.93625223900744,153.60438302330567L265.3178317985694,153.33648558634104L266.3516576756265,153.72929817618297L266.70573814670024,153.46430566442814L266.93030531920704,152.47235073853972L266.3637855539928,151.92739276549037L266.069297198952,151.43402978140875L266.5920745954736,150.87004824861287L266.6608385165837,150.04769930032853L265.84804598654046,149.62288081570205L265.7784656466156,148.68697475991394L265.85213734767603,147.6887512660669L266.1544840071183,146.6320915917504L266.78944619869435,146.8501743213401L267.82127984421277,146.80192895541768L268.7102303787633,146.897790011104L269.51622706799753,146.73035489982794L270.29776127715195,146.2824885029113L270.91210622429026,146.20212377077587L271.70374655255364,145.8803700107146L272.06367680711264,146.04511864187498L272.16256771749977,146.5075103798381L273.0615089124349,147.10527493944937L273.918830421484,147.46797329831315L275.73434759552947,147.9553133891941L276.7757854874817,147.38729502455317L277.8323185649442,147.18852714184686L278.1500386330172,146.97637095795926L278.7922599339745,147.01183066992235L279.4236420050238,146.3568116823826L280.23096692749095,145.83038922815376L280.4973559596201,145.41268351923372L281.09447864170943,145.17239078494185L281.8481996397477,144.05588322298627L282.60080835774534,144.36831917537074L283.12979389776774,144.40585031322644L284.4262717337642,144.2857693333881L284.8227403382298,144.09040337499755L285.89210998309863,143.983589692828L286.2019649875183,143.63931952867006L286.9923074729468,143.3365861233524L287.85963147190887,143.51951506502883L288.9690207940639,143.87775165581934L289.667440798572,145.0707243475781L290.1168139986912,145.39751871000044L291.35319575608446,145.9277700103994L291.8582942809335,145.6783786376809L293.27123423858757,145.84192418013845L294.3950809727685,146.51478728885832L294.7564262981141,147.03214219208894L295.4268267944899,147.00376733119538L296.22371910860966,147.22866953482207L296.96098937113493,147.259816697715L297.4284796433494,147.13258268790378L297.9613893285841,146.13577326081213L298.46909798774686,145.967435968656L299.4657847780709,144.72097853966716L300.82483156635135,143.89433667048343L301.42969333790825,142.94963944185656L301.03011671843706,142.6386559497123L300.912489027236,142.24226640470715L301.1037613517783,140.86755217741302L301.6523782395834,140.2219281420803L300.66173928004537,139.39724284830845L300.47755834780764,138.8406076196552L300.3929522875151,137.99110809253216L299.9760896060161,137.38558407934306L299.1321107846761,136.68007738412052L299.0310294954943,135.67085810739445L298.5874813198225,135.10352227626208L298.4343016477942,134.11409576204733L298.90940408456663,133.69924071463083L299.8925511274374,133.39896623526602L300.41968911974254,132.8803983794087L301.1811385027122,132.45315696471334L301.3643379084733,130.96919499719024L300.6108162822402,129.65865923246838L299.68798690685435,129.3708433668171L299.51268474332755,128.7983964945788L299.51995980347783,128.16777125151384L299.3445902242165,127.91663824086936L299.5833575707311,127.2562114442153L299.60921867077195,126.36591388710895L299.0790474761998,125.80030624590927L299.90839549278826,124.79390284965939L300.14086625074924,124.69604177355995L300.9107075935808,125.0657712743814L301.78827927944076,125.08932289427867L303.3378137641357,125.4555383799343L304.0942207128246,124.560306803417L305.02238508718074,124.60040408711848L306.03029481437443,124.26395002028494L306.5271310434691,123.60773264907493L306.51451604048634,122.930493618931L306.7066314171898,122.10743259389346L305.8476096477316,120.5653344712764L304.75037680297646,119.9519206990908L304.81375126998864,119.10712219087691L305.8445287282666,118.26353449193721L305.9047893423467,115.96507720785576L305.75963066091754,114.9403533286868L306.7896944825952,114.5697160931868L307.4839361650247,114.99671605195726L308.3255144200357,115.04925803349488L309.69359981704474,114.90519512316496L310.9695802644401,114.36727760258873L311.1640687591407,114.04414832140628L311.06551455738736,112.62213854001675L310.43539076572415,111.80637672085868L310.5217021788303,110.876555590723L309.5818067917917,110.27438285513927L308.4448741553733,109.92201349241441L308.228252816205,109.46927460560528L309.8728697421029,107.73941037315126L310.6635827691334,107.61378831613365L312.07899183974223,107.53933962027804L312.3351443675929,107.23723845636505L312.5565660884622,106.38185584890834L313.1449948274094,106.22709984677567L313.4570430658259,105.94597788315878L313.36294434211595,105.04200167155432L312.9126711828594,104.40584725399003L312.65639904655654,103.57431751192507L312.86494742222203,103.26992675504971L314.5405214935872,102.65843254110769L314.9841970544039,102.19761298514095L315.59231828222255,102.00777977655707L316.19023247173936,101.54163030677319L317.1585796402196,100.32748237840406L317.3119650235585,99.8934523705575L317.705956166481,99.52070548233678L317.903918045924,98.95173160150807L318.02846351910375,97.97156039871152L318.34689053278635,98.23158296600286L319.3136361101915,97.80338320827559L320.12848741554626,97.6509509173211L321.4446330069932,96.86176252638688L322.16747545754515,96.22076556203774L323.01917246695666,95.14343641186133L323.5637026112581,94.07575053804158L324.233599416837,93.33948084920485L324.6625989549193,93.3050835483964L325.49340905159625,93.83987183802219L326.19985790415376,94.1042733431932L327.14683039677584,94.61707563132495L328.1223083060995,94.83833742722436L328.51508113184536,95.43552099653243L329.5980914209704,95.84879791166259L330.85795167000833,96.43079414283238L330.7876389383018,97.56298085983235L331.18369388056453,98.155302124831L330.93060926309045,98.77460191864793L331.3095335886137,99.51960108648746L331.57307042984576,100.46031739415321L331.5596804524248,100.88872377162079L332.2537268809119,101.34745694453068L332.54802197130994,101.96478915848093L333.5572817520042,102.42367694895529L334.1520080571263,103.04088230521666L334.72657431232074,102.94453487848114L335.1074463942987,103.0774517080863L335.81893768060036,104.43727182216844L336.1422053814658,105.49275885634506L336.868597690127,106.02994921518257L337.2715962209859,106.59667308537428L337.2783794211482,107.14773816190518L338.41627753215835,108.65867430873732L338.55982659137953,109.39567933561557L339.77854311835654,110.29236414615661L340.9107409182634,110.88198024645862L342.1070863156001,111.35649315490173L343.54920019504425,111.60310049301643L344.10329168938733,111.61988374207613L345.4829641098204,112.17751791553928L346.4208329880785,113.10307425300834L346.47382472079335,113.6837164640101L346.03272819773156,114.51651799054162L344.59646448240164,115.34104250667497L344.1825877479896,115.89957252118529L344.3504429109489,117.05402193779628L344.0803766052759,117.29417539325277L343.4804686577245,117.2570864068739L342.36554426496696,117.57366452973929L341.80332878716763,118.61243448474306L341.9956581049537,119.37283162945641L342.4458018428177,119.63860863518676L343.2595428007371,119.69200820953392L344.1591021569948,119.93459407588853L345.7741810759253,120.20783728282368L346.40716200824136,119.92333021637478L347.1673550304313,119.76657524087295L347.5744009832506,119.36551176115609L349.0171464428022,119.33354908595174L349.39574022950364,118.80949635109664L350.3074993913233,118.50853675681265L351.02438352125864,118.80625138657342L351.32179428732707,118.40545894957813L352.3531349653731,118.19618257886577L352.997600014236,118.36164946527879L354.58239759317075,117.64924879394857L355.0354927488934,116.63967848310949L355.85141759115686,116.26119341900903L356.45201238048685,116.34937903854097L357.1413160420798,116.00180858652675L357.7970658468512,116.4390846562801L358.1374460073512,117.0293247292384L358.45402481919336,117.97248989994841L359.37938732331895,118.77843707925967L359.7651523933073,119.23963654624822L360.6952423504881,119.41753045270798L361.49424500743044,119.20203570185367L362.0324772752192,119.24897255546148L362.4909241752648,119.49559427011991L362.9817950717861,120.06101864939319L362.9946948343295,120.88297453133055L363.4980568780775,122.03967262793049L363.54956221413886,122.38480720187727L364.1325393904244,123.40461352096736L364.486129871244,123.77646775869289L365.00599519136813,124.00618698821472L364.4873464573775,124.6228576535459L363.65361678251975,125.12411224969219L363.3567564153618,126.12143282234865L362.83905754759326,126.45968041711785L361.6048110014399,126.80353566191116L360.63903637484145,127.42285835539224L360.2423782470396,127.94736457186355L359.4619209252469,128.34038696098196L358.8764158308659,128.32665382898904L357.89176002136446,127.8686964618746L356.5365813390581,128.5781788980812L356.8302957135529,129.5609039984356L356.93137446366563,130.41514311189076L356.5959373265523,130.84806141004174L355.0441790963123,132.04705592954633L355.57200091006234,132.70258490351353L355.6986232508243,134.0038706951882L356.3689717740508,134.45425148817867L357.243810334523,134.3607532842152L357.8200261777147,134.060729379662L359.1114533251239,133.67857530619312L359.8309016741259,132.93918145586122L360.7822996700834,133.02229147079652L361.37834581133575,133.48193246897245L362.3978190106427,132.62390463945576L363.1405191205504,132.87972010751764L363.9003427675416,132.6160808915638L364.4040986378077,132.60462204944452L365.38854472688763,132.98063120312418L366.45906480806116,132.82768057171052L367.0874953459788,133.45730453213946L367.9214823750881,133.5948442589015L368.8750106938787,134.27580507775838L369.1665459812157,134.66644796836317L369.215424240987,135.32367414614964L369.82995585584285,136.65979703281573L369.7349038088232,137.1367172143664L370.7691948634474,138.12551850825184L370.79309897598796,139.2872942874028L370.6751216582725,139.82275800566822L370.0232846095005,140.33448161906654L371.526627705005,140.89197928846806L372.24004297776264,141.02812457429718L373.1574145340692,141.5199841032154L373.77571510785856,141.42588947718014L375.0297948884345,141.98233751398402L375.8894713743848,142.50311430540933L376.8237016494986,142.71384378198036L378.46268502102794,142.243318513978L379.4257882674774,142.1709948912112L380.7949327586357,142.30327250327355L381.44728858846247,143.28311425412267L381.4794090217729,143.73630913058696L381.26522040512646,144.3322648535568L380.22096223678636,145.34802916450099L380.3615825444249,145.98943024089385L380.93697018150124,147.18918980921717L381.4243821734199,147.47745273862347L382.28620810721077,148.3166652953969Z" fill="#FF7B46" stroke = "#222" stroke-width=".3"></path>
    <text x="285" y="170" font-size= "3.5" font-weight="500">
      मुगु
    </text>
  </g>
</svg>