<svg  viewBox="255 276 110 110"  version="1.1" xmlns="http://www.w3.org/2000/svg" xmlns:xlink="http://www.w3.org/1999/xlink">
  <g>
  <path id="path-0608" d="M295.3553162257176,372.7848197590438L295.3533748360078,372.42540330585325L294.6996658446624,371.7534629727488L294.19167832255334,371.4424190612408L294.18301628586596,370.5586607802052L294.4793254676715,370.1328707686025L293.9949897487568,368.5962513977074L292.33336366997537,367.2670114767334L291.8511695568959,367.02167529975486L291.02378365675213,366.93379832394294L290.5964561409546,366.6846279073161L289.86636158732836,366.65301480913786L289.5724594967123,366.070991017712L289.0339973657792,365.5311878870725L288.4883018594901,365.25213509187597L287.9200030134307,364.5440756014341L287.0994439136721,364.0567693388002L286.0735087341036,363.93569199087415L285.5588775001561,363.985448603391L284.3109957210436,363.52056122410977L283.96129810763705,363.73860907602557L283.2051667645519,363.726825092278L282.9550914869724,363.53783666843356L282.17384250019495,363.5824162274621L281.92301711369873,363.2210436213463L281.3736268219236,363.15649436628973L280.82969204967594,363.4089604815317L280.4357130302433,363.1496486323131L280.30665681236496,362.6197113966027L279.6309898579566,362.68969090316386L279.207227134053,362.48979230198347L278.6666946608584,362.60751087751396L278.2887476546184,363.0800018428981L277.78701598718544,363.32497187120407L276.71010063322865,362.7435957122225L275.37356994898255,362.68851234748035L274.348097113354,363.08730645977266L274.1210048965004,363.33184404685835L273.5158043064748,363.2311285370124L272.08731294406425,362.604649471883L271.35581165473195,362.66458672728095L270.8488732078167,362.11084544769074L269.4470389661383,361.91707175016563L268.25004831884144,361.0210700474736L267.610135254803,360.667749402799L267.0892358521651,360.14974665217414L265.31982481277737,360.25344631133066L265.04677620227085,360.1807118802453L264.02518635608794,360.61706909322584L263.60424849153605,360.1751834574525L261.50018514573094,358.7408410953185L261.1768577621315,358.3966895301237L260.57202140346635,358.11191790107387L260.1064667537594,357.6184217308464L258.97911561213186,357.5814862778316L257.9697621663545,357.41035287378236L257.5706955429978,357.555381480528L256.70701008485594,357.493886093881L257.78706918149146,356.47289163941514L257.99287062929943,355.9176954373761L257.88386752815495,355.6541542842742L257.1362278274082,355.1922728787413L257.2056044536039,354.3370382266912L258.08362019927335,354.47205541115L258.1970939279545,354.0636962719982L258.2285413696045,352.5017054111513L258.48487210533676,351.8382280015012L258.5907291658077,350.7883794065465L259.3415100579059,349.49755159792403L258.6305292134093,348.53861544216124L258.77597063296344,347.603170625177L259.2307427492233,347.10722465778144L259.4452136877426,346.47475861616294L259.0139027739533,346.0412504899714L259.26119942657533,345.61950297582916L260.1182843462411,345.7186106180943L260.6257600829322,346.1863985721002L260.9550850384203,347.0301395392298L261.49104087586966,347.1299619292404L261.76411972511414,346.8344494786561L262.1635761247853,345.8707950916232L262.95160702578323,344.9716431984916L264.1155689226216,344.56836466360073L264.81654409170005,344.837739762047L265.17956937484996,344.7879852682672L265.80641937095425,344.0103434428729L266.0335124308476,343.12167087757734L265.94359374879787,342.367137750909L266.0803735022855,341.95859459645544L266.79500759596704,341.03856164292756L267.2395304921847,340.6324025374897L268.6047328185123,340.0844042476483L269.13321456467384,339.99158511203404L269.8487150275887,340.2793435421736L270.365608764645,340.7474007749179L271.4626624996854,340.88623608854687L271.67575323871097,341.16008821322885L271.6646302334557,341.69929868086547L271.87300742506886,342.0610637339587L273.06558180671163,342.54609902305856L273.569089716264,343.02250926853594L273.83445722532997,343.66288064746004L274.665386506751,343.9858859171445L275.3763058974728,343.54082491996087L275.5584211199475,342.9639019034512L275.3501130399982,342.35587550313176L274.7601021138071,341.74910360784634L274.5699716608051,341.3132161764761L275.0037146264294,340.76341801300805L275.69909342516985,340.3690498117976L276.13017816853426,339.78476260336083L276.46885573533655,339.0082024960784L276.548185512318,337.9555496123903L277.1452392747051,337.2261022464618L277.0596994095922,336.8495404839432L276.23080296167245,336.51586761348244L275.99118403392276,336.1780714481274L276.46491172915194,335.52920237192757L276.9837552580666,335.447516359769L277.3622404031721,334.9410017799346L277.3260566590816,334.6002756515627L276.91930725355815,333.8316500027595L276.29559204578254,333.19756660065104L276.18705014543593,332.70099150098577L276.8135258320708,332.23174278067563L277.27245620971553,331.4201040840053L276.3556081984025,330.763317796539L276.0505745148803,330.2326115162932L276.22432424603176,329.6149533339758L276.8273833263265,329.12957492909754L277.01186339771084,328.622095487106L278.0637724108419,327.26268955985415L277.9995268350958,326.01460471124483L278.17846342194935,325.7559586553525L279.3193672231828,325.5330743763243L280.08098495548984,325.54042462157213L280.6784015012345,325.24428305200763L281.7866046378331,325.64535022025484L282.76627814278254,325.51786425194587L284.1090444596575,325.6954350219203L285.1374973668935,325.54110175415644L286.2075264592986,325.9358007097708L287.21950124078285,325.45161686156916L287.85182888171585,325.5525033458416L288.23617447907964,325.4069237341655L288.5473306068325,324.50427558551746L289.3275694239819,324.1398758981486L290.0819545318409,324.4462499364099L290.59146648648675,324.40275184372695L290.8734105293879,324.0210165456765L291.4128901296481,323.93228786232794L291.8770594021862,323.6531721854062L291.8892699728258,322.9853870464576L292.1611220833656,322.58235341316686L292.7251274273003,322.212751509348L292.67114814618253,321.84046373370256L292.83090311044,320.7440615833948L293.85409600273124,319.5706838821525L293.8840053044005,319.0038549962601L294.098307004042,318.5087451501331L294.8509879627054,318.0315214712955L295.40871472530307,317.8940105607535L295.7285346142762,317.281090144229L296.3604762409068,317.02852479291596L296.5927360621117,316.75643017798393L296.75525317281244,316.0287402428894L297.6722331332203,315.8445856819044L298.58886457386325,315.3488291735357L298.799906735856,314.75338751406434L300.0280274638153,314.18136121520274L300.85761505663504,314.1285627362049L301.42497946637377,313.94974071382967L302.2296676651313,313.15014874481403L303.01372120096494,313.11728988794493L303.679203520378,313.32940800615233L304.92829124758464,312.76401954597713L305.661971239977,311.9659962386522L305.8701726551426,311.4037454500758L306.2349726077391,311.2935859610134L306.87540767110113,310.71076550309044L307.38809196251714,310.0107746055437L307.8382503962948,309.7216405989784L309.1122360013269,309.1412607708626L309.78175536880735,308.42886091220225L311.0649069247211,308.13553881004464L311.3535210760783,308.86270802411036L312.2550478256544,309.4962116991301L313.44982534317387,309.2267980207225L313.904366107834,308.82202265078104L315.09353833289424,308.7647854443985L316.3437063224883,308.3414193740873L317.9776603003447,307.307507967379L318.18389272890454,306.90173177912584L318.23521967851775,306.2102961193441L318.60605471810413,305.9524311722553L318.82561995702963,305.31613157917946L319.9589269828102,304.22547209767345L319.8525921479468,303.20955231507105L320.0958364832386,302.20921873685893L320.0109606300812,301.31506371647174L319.35526311262583,299.05301341709037L320.0145575790393,298.42112901426935L320.9819158424434,297.91624726347527L321.60229008767965,297.32903018498564L321.5439512034227,295.6371802605472L321.3561993741041,295.3603272578139L321.31617629683024,294.6981890478519L321.09244816690443,294.04779882325147L321.09279223223166,293.43913281057394L321.75477424136443,293.10826841939706L322.3304302118322,292.28109817312725L322.4833981906486,291.75960800174835L323.96706746955715,290.6559612095689L324.0900087692935,290.2996785319492L324.5632769740423,289.99656972319735L324.88190532481894,289.20056085122997L325.397083335145,288.92575551332175L325.47412402831105,288.6362838167006L326.9387302892301,287.1718737406145L327.57539960034774,286.9461793125556L328.6856361960963,286.0311498899364L329.41982859552263,285.8106347831135L330.70151579648154,285.8159075590156L331.6656299058868,286.0562518630077L332.86995793195456,285.67876560361765L333.31454104020304,285.2364516398966L333.750468166003,285.60623542784833L334.5025122291663,285.8082479274144L335.011810846725,286.1564994987757L335.5086344072988,286.09115181984816L336.0307423113427,286.3796107178314L336.3702170803699,287.0293746428115L336.81807232628853,287.3725566059111L337.9796226308863,287.05454497349456L338.7440260442272,287.3701654705292L339.3590119157707,287.4720807599797L340.5832705768298,288.01680945264343L341.01342022022436,287.8881674197228L342.6608933513744,288.78624387458785L343.9200432660218,289.30205561912953L345.46521268325887,290.6257110686156L346.03000142908786,290.91085026896326L347.4123957702195,290.9053191849325L348.4644812817987,290.53361582523576L348.9982225577878,290.74884649837986L351.2350956309274,290.97325078297854L351.1617824958048,291.5026395362347L351.3774630762291,292.07645824736846L351.52614754211027,293.047477919662L352.05740077353585,294.48724228454194L352.7607618856691,295.29098939148935L353.4156604842756,296.70127218495963L354.6974502596495,298.2743036292768L354.72039266211505,299.1413557607684L355.04176750858824,299.8499082031285L355.7631537901634,300.5196547299165L356.52662436517676,300.7164495839079L357.51192111475575,301.3553775301225L357.7469691944352,302.86179733808603L357.63844144522227,303.15148999823487L356.3841853485883,304.36907279102525L355.913982129583,305.51542494366277L356.0705544889988,305.8662045667743L356.69587600909654,305.9167290093437L357.19708040790283,305.6510726704164L357.64543688374033,306.6050885787763L357.3523637051858,307.8275077120197L357.3635127192465,308.7225334581217L357.0599282627827,309.0989904990365L356.84072582997396,310.1443213773018L356.21625620578016,310.46732246829833L354.83525153969276,310.79812376866175L354.21522181270666,311.47389075777573L353.4704182895257,312.087209301696L352.5232540516281,312.526615616267L351.69742575640703,312.55553156182486L350.93808087292746,312.2757105055307L350.1910466678273,311.46003479351384L349.54846248027206,311.0491388777591L349.00820507090793,310.1297725396853L349.0803577699644,309.76216153141013L347.61344957764413,309.26406258427414L346.7505317422365,309.65598394493463L345.532664942908,311.0668568666215L345.295102180944,312.00504647653725L343.95478260835625,312.36254675533655L343.65416552015813,312.9371444691369L342.93705433783,313.65215391381025L342.89659840196146,314.10167603820355L343.27429363966075,314.61500193469874L343.1963020794865,315.1462524457438L342.7260287813806,315.8180735627175L341.5546271143994,317.23175051534326L340.7716944560252,317.62081703907097L340.82322486481644,318.01502796728437L341.4547854725806,319.02921355220315L341.83707978870734,319.896113721431L342.027436367016,320.62970210729964L341.8257873176426,321.19935043320584L340.9826814436874,321.39232240106594L339.6958642418431,322.16011457471996L339.1414493569828,322.5848916990881L338.7035561437897,323.2029701481042L338.1494346414602,323.598144954447L337.3520578739044,324.39500586638314L336.4558223070617,324.4724229913418L335.9905782608985,324.91357381376565L336.0432889882286,325.56236217476726L335.40570046216453,326.43542504126617L334.4551510552101,326.6067325861377L333.61208113177236,327.43204517351114L333.10508128361835,327.55983093731083L332.54194585207006,327.94991087746166L332.1654938781994,328.4569277304645L331.74034099642813,328.59182815988606L331.6914955450393,329.02819656946485L331.05165915925863,329.5366990827324L331.20924838316205,329.91208406977876L330.892747556014,330.5289850396566L330.97848387273007,330.9245794873823L331.5353476429409,331.14366795627575L331.6271886800805,331.8539262095228L331.53147999907014,332.62851120463256L331.3150352775374,333.13251291920005L331.45803003242145,333.72774153143746L332.18548084083704,333.8513212601738L332.78112446787054,334.38917601096364L333.18285292405926,334.48085546997845L334.49431057434595,334.34904118683426L335.4357798189885,334.5677200703867L336.1410249784931,334.5912866566414L337.0202307460695,334.1555678910099L337.2277139526486,333.8342628993123L338.36779254873727,334.0195889062534L338.5599947483115,335.2279043913595L338.41988444689196,335.6616653874571L338.7142545868319,336.37648914901L338.7197900892952,337.043037167341L339.21683121851675,339.5089262355177L340.6790487027374,339.99296532060544L341.1055369089663,340.5526353482164L340.88678860026994,341.6688306558108L340.6535169593426,342.2003283916247L340.75736680871523,342.6055246959586L340.52812626059676,343.23778292794304L341.2116971880714,344.0994003171745L340.97023192948654,344.61154705547324L338.5357654446598,345.10203427875786L338.13050659965484,345.50938107755246L338.04524926214253,345.8647815345157L338.2903814925194,346.98769424153306L337.98098624787417,347.7357419012669L338.0595475919672,348.2300149715429L337.7218303858499,348.599969069146L337.2035888763148,348.793646788602L336.61026899259923,348.75914154966176L335.99443677726777,349.27478410268486L335.48465857194424,349.5024486356051L334.3950609807416,349.2543654242163L333.93860420322017,349.3652366136257L333.1585633169925,350.5271721688496L332.1639487659031,351.36692681323075L331.58900433271265,351.60507614770177L331.11503964110307,352.011909503678L330.3865170149238,352.9006383416954L329.01932652950927,353.22815686255854L327.8343486567046,352.95351001419203L326.09257395156055,352.77863945771605L325.61693791735706,352.18569346821096L325.1153497874475,352.23709118697843L323.9530168512483,351.2904702040505L323.4136323890016,351.2291542920093L322.9293039503027,350.801231848136L322.71465521777645,350.38850483678925L321.876205397175,350.03077802601456L321.00767702959274,350.3621107488043L319.3980762865813,349.72960879408856L318.76640622797095,348.7468746379427L318.6480136476421,349.3944407172603L318.1958264012974,349.92635789598353L317.3771837077875,349.77307905718044L316.5191931116151,350.40148805222634L316.42726770811896,351.1258458694019L316.7368558584076,351.56775745856066L316.7015065060841,352.0027784940967L316.2570394496506,352.79044879554476L315.71199623667235,354.060624779484L316.3515634517844,354.24004239504484L317.3808764712776,354.9108995638735L319.68384948554376,355.937493403233L320.1551511207108,356.5905014400132L321.1035899798226,356.8651883916946L322.10029558979477,357.2110084119013L324.00753627506856,357.1871235453327L325.1462317882597,357.4134790087992L326.3474295896867,357.95836775646785L326.9819292711272,357.6058622728506L327.130006038582,356.8139094150465L327.6235953254745,356.6759951453905L328.1630582660837,357.01368916564843L327.55964022856824,357.97495846911715L327.4863989089117,358.42706539125993L328.5410850282133,358.94047999216946L328.9634490209919,358.9907747503803L330.0550293169508,359.84511151554125L330.4937458544937,360.04910049503997L331.3052690788336,359.9777226797296L331.82446007992075,360.1410976678717L333.1571604163364,359.6686421579943L333.72938142665043,359.17374755098353L334.28987391006194,359.58781696883125L334.2320335175209,360.39559242245195L333.9150776395363,361.59464386482796L334.3696955437226,362.06066886666304L334.2671568588448,362.37426872148535L334.4064397886359,363.59816405551646L334.00353252042805,364.0187871811395L334.3650371015501,364.5291128723684L334.1737810985942,364.8498297991091L333.58154625970565,365.2246987453964L333.2142355015367,366.0162750565187L332.7276892595055,366.21236508640595L331.5954548306745,366.3754815098073L330.26777244352706,365.9841909819206L329.6428441081043,366.0146961130995L329.06660236276184,365.6229909004096L327.7318041462422,366.57880806722187L327.15390469049817,367.3095169996968L326.70531244853737,367.53225714276505L325.4641901319428,367.7149343766969L325.0128658924332,368.57073797432895L324.42400186547457,369.1080215544116L324.18655174700143,370.207291146261L323.65528827127855,370.2170353551637L322.89879717664917,370.64033335523345L322.45025783856545,371.08284346066375L321.7810286077911,370.9230590485704L321.41325552185845,371.20512516723375L320.2614296426473,371.58110414363455L318.4519466808397,371.03877123709117L317.3519201513227,371.1028902008675L316.9608641297109,371.309879173471L316.89392420337026,372.1256034344524L317.33059540756767,373.01227073302107L317.1143141957218,373.7679841021536L316.7320547216932,374.15411781632065L315.4679262100708,374.6760278384045L314.7762776138661,375.480505295518L313.52751803051433,375.9421081706432L313.2052241444726,375.8745184346235L312.5489279556987,376.4128929481258L311.9428508666424,376.6172026815102L311.3681849686054,377.37397431058616L310.62110661237784,377.50651537111935L308.2634124252854,377.09227477920285L307.5720196795246,377.13397500346764L306.2903710132632,376.57796638572745L305.32534083826613,376.49660704397684L304.80575411106656,376.80675885139226L304.27219648290156,376.5929363197911L303.02666884074824,376.2921048165099L302.43486226484856,375.9592491851381L302.239589478595,375.607098186646L301.4457811854263,375.3128251185117L300.79683454742553,375.236237932887L300.4841709488719,375.4005308376627L299.7846781447479,375.1713766645071L299.1913128386295,374.64804721419296L297.9863570304733,375.5842785244622L297.7446849045282,376.18519546489733L297.35660448720955,376.369538637804L296.78718403584026,375.95436692690237L296.2044833209875,375.97758406507637L295.5412280032233,375.6653665198828L295.1534037741367,375.1004415588877L295.1412102448958,374.66268993766516L294.7425456102428,373.99644118296237L294.6491413670119,373.51895964640244L295.0888531530236,373.21752923009444Z" fill="#f9645d" stroke = "#222" stroke-width=".3"></path>
            <text x="302" y="338" font-size= "3" font-weight="500">
    धनकुटा
  </text>
    </g>
</svg>