<svg  viewBox="300 194 55 55"  version="1.1" xmlns="http://www.w3.org/2000/svg" xmlns:xlink="http://www.w3.org/1999/xlink">
  <g>
<path id="path-0301"  d="M345.3034428017636,209.32445001292763L345.3033939569177,209.3613037843843L345.2757192352874,209.3902085425525L345.25265818875414,209.40257715965436L345.1790223226926,209.40239243604537L345.1422038975652,209.41490783707832L345.0730827036532,209.45152847188547L345.0499640479611,209.5051152993192L345.07728012784355,209.63671974959834L345.0726340341207,209.68623024469434L345.0587694828246,209.71886718049882L345.0311635765793,209.74777141858976L345.01273607501935,209.78045705088334L344.98971304571023,209.84616568226465L344.95294033386745,209.88729056925058L344.8838796150703,209.92827516254692L344.86091456601935,209.95276582072165L344.85172249731477,209.97323019797295L344.8424571567448,210.0387920953417L344.81485395619893,210.08806276095493L344.7687917324183,210.20299351808353L344.7411867337105,210.23189799862303L344.67676769521495,210.26846928507894L344.51574892101416,210.4200267542392L344.46971825533547,210.48161738488852L344.4328656520447,210.5722046597366L344.39139156226156,210.6584771725402L344.327010666344,210.7280227220699L344.22120838283445,210.80189061045712L344.1797984019977,210.822214815591L344.1108255515974,210.83410551650013L344.08782548323506,210.85083853777633L344.1016187914429,210.8836649239065L344.15672091480883,210.99460504709168L344.1750453415698,211.06035696466006L344.1841943110703,211.14269400223475L344.2483849801174,211.35682322780212L344.4045971868909,211.54620845684622L344.4321115443636,211.59149610208533L344.45506543600277,211.65719878355048L344.4642130966022,211.73953598632488L344.4779552790242,211.78885013074068L344.48256329717697,211.81741067619714L344.4916834747164,211.88762540625794L344.5099216058479,212.068302571809L344.4960951797548,212.13391333704203L344.46388235748236,212.19972054139998L344.42369702818905,212.24343745454007L344.3396386767199,212.3348837853955L344.2706248961804,212.42920940047497L344.23375080882033,212.5280406512611L344.2319560039432,212.5534233462322L344.2291184388523,212.59355323677755L344.24291041360993,212.62637977301983L344.2750608247152,212.67210267960672L344.3210189389356,212.72155733832733L344.40368504406797,212.8365678146556L344.45880125589247,212.89853256104834L344.49551551369586,212.96457327695225L344.51862189435997,213.0467614814479L344.5051261906883,213.22777776650128L344.56048353875303,213.3430804915397L344.57436714709183,213.39287816394517L344.5744389287138,213.4588254315613L344.5607383022834,213.4832173400082L344.52853895071894,213.4791970089318L344.5055235897962,213.4542274024161L344.4732811369686,213.4419640896249L344.45490713139225,213.45816246222967L344.46422202852773,213.50752397655924L344.4700808595335,213.5180488757578L344.49186073170495,213.557174680529L344.52881400329716,213.65618696319234L344.5658709181989,213.7881722238344L344.565960604039,213.87060632885732L344.57994124028846,213.95289210905412L344.6030103822086,214.002106832947L344.67210862151114,214.10126107442375L344.6813368088515,214.13413660423703L344.6814584356798,214.18359636067999L344.6722838231399,214.20018131205507L344.6263872265117,214.24091898961433L344.57132492363235,214.31909284810718L344.5576062086584,214.35221337127678L344.54391685968585,214.4178227105549L344.53953041231944,214.5167916634864L344.5399308330889,214.5188150818767L344.55341536044216,214.58695568563508L344.5627904018511,214.66104717347662L344.5491190925968,214.74314334739574L344.52158963773763,214.79241347065908L344.48499005421036,214.89124155042646L344.416202719447,214.98168506636375L344.3840507053428,215.00627415570943L344.3473547882422,215.04739884763057L344.31526408334685,215.09671788362266L344.3061942937711,215.14627586181177L344.3062485088012,215.195736346388L344.35251385600714,215.34411013106364L344.3892928461246,215.38493477437441L344.4399318449032,215.41833774002407L344.47676938657605,215.46352608880716L344.50447365624495,215.5131762307783L344.55992170482205,215.68618291287748L344.5507999820984,215.7066466353417L344.5463096280655,215.77264270586966L344.50504549776815,215.8385465195006L344.4867090983644,215.88771850733883L344.47302716499325,215.95381274526517L344.47314249698684,216.00278769975375L344.47781690590637,216.0565630974961L344.4318876333782,216.08954275613632L344.3860107829096,216.12640122462653L344.3492554560253,216.14279598001758L344.32172614388037,216.1464844778793L344.27122623828836,216.18387742202322L344.23920983175776,216.27392839835647L344.24380776035105,216.3068533259475L344.2347203822246,216.33992450205005L344.1841713804097,216.36858967925036L344.13817053910316,216.33562241260006L344.09677690168974,216.33121580844636L344.06922945701444,216.34363315393875L344.0462620126309,216.37248857865416L344.01418031530557,216.39707727287805L343.9728050332342,216.40915766983653L343.90375694058093,216.36382955386398L343.8210259613297,216.33901434184827L343.5728068082608,216.33827707008913L343.5038412431895,216.3545328873406L343.4487748308129,216.3914911840775L343.3936218417257,216.41196349023085L343.3246872906493,216.3952453523434L343.28328460619014,216.39520418802476L343.0490445769028,216.5014870009627L342.88363688567915,216.54641883771365L342.7181426485731,216.5748655025509L342.5526361805205,216.58731111934776L342.4146064853521,216.56212413080357L342.3042954429111,216.56234008471347L342.26284935192234,216.5540573017397L342.2306716765779,216.54131070137737L342.1847620648077,216.5704142202212L342.15259915167553,216.5988850287904L342.12502473578934,216.59918164041846L342.0559626448994,216.57810361958127L342.01456497173785,216.5533336730441L341.93172096872513,216.52028147319834L341.8075336202601,216.4915539600388L341.76613554676806,216.46678437671562L341.73390908716465,216.42542908570067L341.701634277033,216.40056133693724L341.65561487206287,216.371477495808L341.572829110537,216.342789904862L341.517622526404,216.33417155648203L341.43488527402224,216.33409358859717L341.2831515846992,216.36288479283394L341.21880039724056,216.3878244898424L341.1912633335887,216.39588014596302L341.12231644163694,216.45335866084224L341.08106321452215,216.51926682976955L341.0490422653129,216.6180493455422L340.97562620676763,216.71727875547458L340.90668076619113,216.7747577242635L340.79658427262984,216.9354824162583L340.76905988936414,216.9643894738474L340.7323581775745,217.0093977602246L340.6909740387564,217.05057739505992L340.65422952796143,217.0674614061445L340.599113082797,217.0753307129762L340.58526841817365,217.0837238320437L340.553208970814,217.14953331680317L340.5533120928121,217.23196703972735L340.60866406636706,217.33126041464584L340.6178963705461,217.3641345805463L340.61806731046454,217.44656758838482L340.61325671962186,217.48721297483462L340.6043906440573,217.56212419580697L340.60918477658925,217.69396817040342L340.5727910123496,217.9411811996788L340.5407326470231,218.00699068716858L340.4947891225602,218.04821984252158L340.4764572175409,218.07702777179293L340.46730765848406,218.11010063800404L340.4674109093794,218.19253440036482L340.4308951463463,218.34082706998834L340.4309637652259,218.3907721707974L340.4126377061875,218.43994633884267L340.3621394702932,218.50159119373893L340.32076142307415,218.51804075770724L340.26565510383807,218.52639539080155L340.2518794707976,218.53478789811925L340.247279393865,218.54696043739295L340.2565446838271,218.61717231033526L340.2520665302618,218.6831686597543L340.2707027505894,218.83134986759342L340.26615649002633,218.89734696040705L340.252425492552,218.91398247002508L340.20659103033904,219.01291527589547L340.1882932960325,219.0790611583816L340.1883557296169,219.1285214227937L340.17465993349833,219.1776456338166L340.1196358708585,219.27667799466417L340.1013385507358,219.34282392420755L340.09224590866506,219.42487231898485L340.06936676520127,219.4745808724374L339.9867303155879,219.5608197166648L339.93629509286984,219.62682875544397L339.90428407801664,219.77555818406017L339.8492708957383,219.8702266907103L339.7941714621775,219.9236787744003L339.72067095188686,219.96084332591363L339.6564349588334,220.01827392839823L339.61510241577344,220.06769786236146L339.6059547103687,220.10077095780798L339.60599707414076,220.13374445617137L339.61520829464644,220.1501316091153L339.6153314780895,220.2039554132516L339.55571479917853,220.29043082518274L339.41092302193647,220.40159049900922L339.40620521744495,220.40444507037228L339.32539546224143,220.48891588542665L339.3334955615319,220.773646194918L339.34498541351786,220.88966412316677L339.3529648096155,220.94357549760844L339.35491909931807,221.0798566428375L339.34778758850734,221.20343190861604L339.33309062533954,221.2527340098377L339.2946044898563,221.3391172111924L339.23295215222606,221.43688805432248L339.2041974104832,221.49864605927905L339.1427110393997,221.5842961294029L339.09973356762566,221.6706311279413L338.9911220384165,221.81735644830133L338.9199615190337,221.94363518794944L338.9149417149092,221.95230942108537L338.80673449868846,222.09952478557807L338.778289426682,222.14867891694303L338.75416547221175,222.2104873986018L338.7519386439599,222.3341159000047L338.82017565909337,222.63258791071712L338.81858621073116,222.719369998993L338.8133134853051,222.75665133609346L338.7371854549565,222.90809253304906L338.63902565165336,222.99771257237535L338.5787096784625,223.03779493195452L338.513569962317,223.0821896417474L338.4047272394855,223.26673819383814L338.3395357859081,223.31501206018766L338.2469515921948,223.3552324915272L338.23225846438436,223.4045353483698L338.23992819604246,223.49141727441565L338.23307612345525,223.6149961909623L338.21868395196,223.65217949393445L338.1761924014463,223.71330591768765L338.1523790851352,223.76251065367433L338.1191972712113,223.8198580893095L338.1096048905383,223.84448539090408L338.0982549166474,223.96850089038708L338.0683984847128,224.09183233186832L338.0610409447145,224.25274421521317L338.08263090970286,224.32716822036582L338.15870167646426,224.44000183205208L338.1901840276041,224.4776790165297L338.2713890070481,224.5532298803546L338.30269982264144,224.60351306329903L338.4114776846327,224.68372544266367L338.52815389971147,224.8338507505623L338.54078652594035,224.89605571608445L338.55419214766516,224.92141564689427L338.53439923294354,224.99539400671438L338.4873054955897,225.06471400943246L338.4499688525975,225.0972858298146L338.3193660567631,225.21080349790554L338.1059756114082,225.3355535978826L338.01725575019736,225.41267002314362L337.9849080804888,225.42880908973802L337.8824936136407,225.50189932637113L337.82708957710565,225.52166995037987L337.7902850657156,225.52515357101402L337.75331625220133,225.54075830703277L337.7070848855001,225.55674845248268L337.647053099452,225.5764696834476L337.61451721870253,225.596486453569L337.55910703918926,225.61674243777816L337.419785398768,225.70107581306274L337.37795934515816,225.73360085603963L337.26549319867263,225.85556169920437L337.1957604788731,225.90815390626358L337.0844536889672,225.9646645523726L336.91794695983845,226.03610105831376L336.80641862390985,226.1090974907147L336.5779976309532,226.29964635110628L336.5263956898707,226.36067792918857L336.367426900375,226.51948298257594L336.31571478662227,226.588757332368L336.2827889471737,226.63786634718235L336.24925748024543,226.71169957299753L336.2211232379086,226.74873705822574L336.178753837401,226.80162451408432L336.1034007193193,226.9079848942729L335.9471552635332,227.1783519919336L335.8958378110656,227.2185364913521L335.7577689914069,227.24130733204856L335.684609607888,227.2153104832587L335.5754165125145,227.15595492883585L335.4625327324684,227.04709902629656L335.3383933237492,226.8135002518702L335.31250125468796,226.7143013775394L335.31865249361726,226.63144648735124L335.29664548567234,226.57738618046642L335.26006452346337,226.56438825604164L335.1310532249081,226.59162273218226L335.0573119137189,226.59859539706486L334.99679104911775,226.6348040332241L334.9541707310018,226.69641910376322L334.93456007287386,226.7577944429031L334.9335649082095,226.81160945691317L334.9649909761647,226.85364698299873L334.9957082681758,226.92816632387712L334.98303192571257,227.10163100904992L334.973308156852,227.12625810307418L334.9394825544405,227.21221271826198L334.9713763938853,227.22952453504604L335.01233738418523,227.25081231913646L335.03936306909236,227.27583098475407L335.0937386092919,227.32199251657858L335.0088058272231,227.4326180331318L334.90567515905786,227.5299572642698L334.7455765457926,227.71349030005058L334.70800246925864,227.75430817551205L334.62792837127927,227.84801456194964L334.52865572832525,227.98273481064825L334.4722991318522,228.0437196883986L334.42957235039285,228.11357811724156L334.3918633661124,228.1543950006444L334.32217660796596,228.1943870542009L334.2519904743167,228.25134604127834L334.2050526609055,228.30030867192L334.14299939747434,228.4106951670601L334.1137998168233,228.49718499259598L334.1033118604246,228.55865796777198L334.0696540019562,228.6324926648049L333.86458583120475,228.76997117687006L333.808861998823,228.7941104872607L333.735075935263,228.8049655008508L333.5407242598267,228.86400352185956L333.45211665893294,228.92464853315596L333.4286492281317,228.94913053698747L333.41846137584434,228.99848408261641L333.38480631246784,229.0723196817935L333.3790775450034,229.13432835134245L333.3540749535641,229.23298647279444L333.32042045748676,229.30682217670892L333.1848233925157,229.4207960266258L333.073988942484,229.44386823468358L333.032375820163,229.45118636646748L332.9666556154989,229.52080375023252L332.9187910796063,229.61922036824126L332.8797475841384,229.72985334930672L332.80764797169104,229.8900832290492L332.65204761095083,230.0857992291285L332.5563494433118,230.27051115784525L332.5234685585601,230.30701741787925L332.3811467977539,230.52809109450754L332.33422392131615,230.57657222004855L332.3009818326318,230.63004707480013L332.23075623419936,230.69089018242084L332.16967542906787,230.7600736051745L332.1137967115683,230.7963376208063L332.02092833892675,230.8404550797659L331.9469487579772,230.85616188262247L331.89142582711065,230.87594285852356L331.7439712214509,230.88990555641885L331.65198143495945,230.888451109563L331.5982077771805,230.89952253971205L331.5756886924428,230.9041344700454L331.5142279410393,230.89960767029697L331.440259832023,230.89397944330722L331.41332611001053,230.8825426889416L331.39473241861924,230.86828425987278L331.37244306844514,230.83507510005984L331.35593441564197,230.73549294809436L331.3425441743166,230.71886473866834L331.3073082483679,230.63557269848206L331.3182005505878,230.5532511802885L331.3053902088359,230.50316970077074L331.2560473376543,230.43670137493973L331.1747600751478,230.3568041659346L331.15246996079804,230.32359515111784L331.143925147735,230.2905307718156L331.1452144526338,230.22411047490277L331.17412431341654,230.1584657326448L331.1793249397997,230.125545990084L331.1937220740874,230.09708729557497L331.180311054115,230.071730398392L331.1442751899922,230.03837674283113L331.0805917139587,229.99600373125668L330.95390230341945,229.89089863987374L330.89560591058034,229.81172883428644L330.85962708013903,229.77401183728762L330.8142061154649,229.7400749814169L330.73794817354064,229.63986516780915L330.69815965379166,229.56089022615106L330.62160403844246,229.47280053297436L330.60837953548616,229.44356648533721L330.54558968194397,229.36435012129368L330.455773540114,229.28048583158125L330.4462260521941,229.2716570484863L330.41021868995085,229.22569664459024L330.3386668556668,229.10904995814872L330.2735191538304,228.9095495202273L330.2115748184624,228.77651670214345L330.15313719960614,228.69734677676297L330.10863936822716,228.61395889908545L330.08335943330894,228.49779815952115L330.07965807712753,228.4482976244508L330.08037266688916,228.4148457246638L330.02157970767075,228.352159549313L329.9743542104552,228.4132490565862L329.8996088810891,228.46580655098023L329.7910829864559,228.592202862651L329.7348213417499,228.63671086132126L329.67834221337034,228.6977039437852L329.64978822621197,228.74686662142085L329.54131618467,228.86938514922713L329.4664644889126,228.93018632671465L329.326207121303,229.02715722064386L329.2559838769921,229.08800738594528L329.2327445612573,229.0955230300242L329.1720449997156,229.13610639742183L329.12035568004285,229.18502772857937L329.01589415721173,229.34444415882353L328.97224082708635,229.45503456413007L328.93875979129007,229.5167544408796L328.919167259246,229.57813454403367L328.84775111163617,229.68843512835974L328.7628855930452,229.78647246630499L328.6787332524509,229.85105803680744L328.6087820823268,229.8915460722028L328.5345121956925,229.91889637293207L328.497521885849,229.9267540622377L328.3638314302116,229.92875397642638L328.3031928402088,229.96497559037653L328.2294864874202,229.95984288550972L328.1738854278119,229.97526570995524L328.0075880302138,229.99341470285526L327.6943156391535,229.9886983104916L327.52755827289,230.0315761654938L327.341889623498,230.0946250710649L327.26756453588314,230.12634230666754L327.10121787423486,230.14837526585507L327.02705191698624,230.16797174313433L327.003757189701,230.1798528945692L326.96173156040095,230.20851184364165L326.9049685922182,230.2816306300947L326.88074848012184,230.34344915807287L326.84265333338044,230.4046388036686L326.80902066318595,230.47848276043624L326.78913354602264,230.55246937411266L326.7826621242166,230.65181109975947L326.7680266844909,230.68851328389064L326.69196811265283,230.81137928095904L326.6662178495135,230.84457179893343L326.67947532307153,230.8611966205417L326.6540636878999,230.89972680013489L326.6029684918831,230.97678441456264L326.4428398895652,231.13805822708218L326.2920149866695,231.2645149712016L326.1958575940953,231.3217097793431L326.0359890865511,231.34866526083715L325.7634468539982,231.39482309981213L325.70449553867365,231.3961533016136L325.4133795093876,231.34271329560215L325.24747347470475,231.3002667788278L324.54027257496637,231.0059007508089L324.45351768570254,231.02052489768448L324.319365713196,231.15298263727982L324.19099307596116,231.3436912440593L324.06516660302077,231.4956328154849L324.0109737355597,231.64443195023887L323.9877090607479,231.67522786692734L323.9520501165862,231.6961979400885L323.60968279002554,231.81682122358234L323.4589916195291,231.923897328782L323.33372117843464,231.9808029216183L323.23331183154005,231.99917008013745L323.0692968194526,231.96839325619476L322.9618253297631,231.9750507833287L322.8750606464673,232.00131773353223L322.8060545344415,231.99091255973508L322.75190198018754,231.92634812566666L322.67205571342856,231.9332895388443L322.63489032185316,231.94454733417388L322.49378013121895,232.0478471332599L322.40798548299426,232.0411505425127L322.3128785990375,232.00720323594487L322.2477602106519,231.96968333483437L322.08011177504886,231.78757838451838L321.9668788562012,231.75538667792352L321.7299942936297,231.5803354386835L321.5419175443749,231.4833716379053L321.5004073415839,231.45142824793038L321.3979704288977,231.37328089620405L321.23539994730163,231.14467947542744L321.1367522223918,230.91963942895745L321.1144099513549,230.90001489529914L321.08695215888656,230.87597396201818L320.9653379227093,230.7539895169548L320.8972820548988,230.71159329622878L320.7933436394378,230.62276429421308L320.5935089718587,230.50774438832286L320.5205827789032,230.4735432004827L320.41096666388694,230.43460502241578L320.2835164699827,230.37463432110053L320.22014135481004,230.32792281393176L320.1524858136145,230.2646805299828L320.1071795042626,230.23124568071853L320.070786788292,230.2139038941441L320.0484867607556,230.18021773151304L320.0357820459467,230.13062644302317L320.0191439857772,230.04802034627392L319.87318761321876,229.98737859919402L319.8181238856632,229.98245577053967L319.7084546791157,229.9473989585913L319.64039416909145,229.9050054596537L319.6004134082614,229.83816549897256L319.56914860536926,229.79226569264665L319.4895327519698,229.64210204974097L319.45521844259565,229.52585732154694L319.43339344209744,229.47617387712216L319.40681101301016,229.4259573354284L319.3620961479792,229.3673134509163L319.3350554751232,229.3423084332362L319.2987165134218,229.32060376564004L319.23902361541695,229.31563509307307L319.146734351998,229.32633917220664L319.0726580678238,229.34983586291037L318.97972583182855,229.38962947808068L318.9425333016261,229.41349958485353L318.831574098931,229.43662390861664L318.7394215369095,229.4473306501768L318.5923642671587,229.44051062032213L318.51908574393747,229.42279809824686L318.46447735215406,229.39266619782757L318.4093562923408,229.39210968144653L318.2615575505406,229.42213814147L318.1148394166521,229.39932133213915L317.9491669750314,229.40056046821792L317.8760793148649,229.37848710273101L317.794482985566,229.3189888916313L317.68499275014983,229.2800617751327L317.6304321433563,229.2460524421531L317.5133143326675,229.13237052658405L317.4815946397284,229.11119944693655L317.4139220014804,229.04844789383787L317.3916170734883,229.0147635639496L317.36457384702953,228.9897602479623L317.2149622305333,228.883511375715L317.1246376715717,228.80356026032314L317.04327184185604,228.73630752301597L316.99347273951935,228.7023471647708L316.9618564111479,228.67293390964187L316.9261486883697,228.62262775556064L316.8907857082304,228.55583761387788L316.8521743745514,228.42306492245734L316.8344895959599,228.38991231807722L316.7939621681726,228.34392224133262L316.7494791735917,228.27704067278682L316.7232344923068,228.21034227528617L316.71583915174415,228.12783057580145L316.5992157205146,227.9850614604884L316.52345830105696,227.8722832874946L316.47928649136156,227.78067398465282L316.4265798372544,227.66424789612938L316.4184941586682,227.6147043214687L316.4205679523293,227.51531526061262L316.41218667301655,227.47837680498924L316.3809677997888,227.42811628874097L316.34594618678966,227.34484269060977L316.31333620477017,227.14618090071963L316.28722528200524,227.0794842098976L316.24723042115147,227.01264834489757L316.22560488001545,226.94648159952067L316.202249455735,226.74791271816775L316.1895412131198,226.69783794983232L316.15831477308893,226.64806250177207L316.11300196297816,226.6141484749478L316.0755612714747,226.64674826270402L316.0198550533278,226.67043643797297L315.96385360186105,226.70672984332487L315.8660304407131,226.7668508817278L315.8101334996645,226.79490189084936L315.72122286240483,226.87160014768142L315.6789211510513,226.9119106382168L315.6518737372862,226.88690875588327L315.62956433931686,226.85322562518922L315.58430004140973,226.8154334629644L315.50813512056993,226.72350548528266L315.4134636672825,226.6309077335245L315.23411119794764,226.40895850271954L315.17676747567384,226.2924881475583L315.1597725396896,226.22588344437008L315.1604601312065,226.19291531601357L315.19015554362704,226.09428700017997L315.2058140652225,226.00764163052463L315.17093908898823,225.91224762925685L315.1355673492362,225.84545935806182L315.0997966764626,225.79951897410683L315.0815788570726,225.7867289298074L315.04516936885557,225.76987780897434L314.95345104956505,225.75586899310656L314.9170963492761,225.73465423471498L314.8622672655001,225.72101395463687L314.67819168365895,225.72208693381708L314.63691989289146,225.71294663018034L314.58691997852293,225.6833524354097L314.50617424428856,225.58701687039502L314.48322408316017,225.58242375880855L314.43785193085205,225.55287593363573L314.25475580190323,225.50837814633996L314.0894857916719,225.49703393881282L314.03451340377796,225.48387865793666L313.97989004268675,225.45375451065956L313.8894867620111,225.37817629821802L313.8530818223844,225.3608417184896L313.70599664941255,225.35404483977163L313.6505775743535,225.3656170899685L313.52181464782916,225.36336759499045L313.37522979702044,225.32748169101615L313.24675445587854,225.3131130553984L313.2101096080187,225.30402062851772L313.1780869586946,225.29545904516272L313.13232158146275,225.2862761987917L313.0415239632857,225.23106351304523L313.00463966625466,225.2302127228786L312.9492205817005,225.24178627884885L312.9032643028768,225.2369662328747L312.8627569211276,225.19922521473836L312.8595521209172,225.12887897567634L312.85077381922383,225.11230442043143L312.8237273829909,225.08682008376036L312.74609587065424,225.05647007826337L312.7006659124818,225.03128859966364L312.6512977610437,224.97260818043014L312.61612342876106,224.8893371398217L312.57606607806156,224.82638472465715L312.5449596307735,224.777098973198L312.53307422671423,224.75855402483194L312.4627223413154,224.76658608786693L312.40771977622353,224.78834822781573L312.3434605094808,224.81001885869227L312.28854586984016,224.83566151567902L312.2471837496596,224.8444658912622L312.2054283687212,224.84114324452548L312.1351793923277,224.7972898509979L312.06407674554794,224.7126942535442L312.0216431495501,224.67639007062007L311.9092106870121,224.60884365656784L311.8758640282249,224.56438570494356L311.8607858417745,224.5070152452863L311.8681234688811,224.42077062182398L311.93886775782084,224.2721120499691L311.93180562042835,224.16147876332616L311.94468020616114,224.11165847869052L311.9473837256446,224.02585303043998L311.9422466441647,224.0010709511298L311.91832590092963,223.96494988596532L311.90753704401504,223.89113427674056L311.93751565806815,223.77989726369105L311.94013751393504,223.68972667927392L311.93028396291265,223.66101856602563L311.91537494737713,223.6118935376935L311.9542179228665,223.48862100400765L311.9441948137064,223.4516674473034L311.8639997870014,223.37522616302977L311.8307391969247,223.33464851808094L311.79653689107727,223.24944828744083L311.74500643246574,223.2217832671895L311.70818856995174,223.22626885795944L311.6118182528335,223.25683742160527L311.5528687037622,223.31105221806138L311.5030071503861,223.35711307126985L311.394278803833,223.46175431443226L311.33958592402996,223.49128025390655L311.3256938898485,223.49162814539795L311.2834267358958,223.46357036782592L311.27382388423575,223.44747304502107L311.212744557055,223.39934780009207L311.1146233512154,223.35182737849118L311.0313454461211,223.33694370173544L310.9623329586502,223.34644718769232L310.9072463626435,223.3638468509589L310.8934084661523,223.3598311248088L310.8557355009143,223.3235754154366L310.8497079606277,223.24980701756704L310.826014916267,223.21708352098722L310.80732409386474,223.20914062007068L310.7473168811739,223.20612514747245L310.7239574831001,223.19037748956725L310.66250263904294,223.11751831400852L310.5929797002391,223.10228629237008L310.5649973583386,223.08600833758283L310.5461844883539,223.06594119630336L310.53144223491836,223.02506221023577L310.5486854097253,222.96316107688835L310.5475436462766,222.90156399744592L310.5377700817662,222.87722144460622L310.5047306322449,222.84052681490994L310.47674190765974,222.82473380122065L310.40309927430644,222.8341930038314L310.34848808292736,222.86808590222063L310.3212194755288,222.8930340669267L310.2673228163767,222.9681530332482L310.25084879154747,223.06691644563307L310.23315028125944,223.09971761419092L310.1740272371062,223.14617465214997L310.1374616592839,223.16327280246878L310.04543535425546,223.1730372449656L310.0315491307847,223.17290086470166L309.98949803068535,223.14921135124405L309.96579766329523,223.11697336398447L309.9652870898499,223.09223700807706L310.00104982222547,223.03003243517833L310.06003670224527,222.9835737183721L310.10072086600485,222.94178460309195L310.1359677963228,222.85532874027012L310.1901164819901,222.79282014370983L310.1939828139257,222.75551867667855L310.17920580231294,222.70639573366407L310.1923238041345,222.66967010977987L310.2474455225274,222.6605132809591L310.37757682076335,222.7073758315555L310.414483341734,222.7067689064088L310.4646843114351,222.67719711593963L310.5177263038495,222.56133620862875L310.5347998500147,222.49118965201524L310.5567942028756,222.44145849486176L310.56503210943265,222.39207692176024L310.56902925140093,222.35526174499228L310.55926152708344,222.33043431793158L310.5312722520539,222.31464123781097L310.4990820337989,222.31917382106167L310.4717246011169,222.34024152241818L310.4534211258615,222.34491075962706L310.43418555260723,222.30398762779623L310.4186406851695,222.21800252229605L310.39519809936246,222.19788993278507L310.3206151917366,222.16224175185107L310.30163134120085,222.13392929839665L310.30010075386963,222.0597202977906L310.30421952010875,222.03502947398738L310.32248328813876,222.02260091682365L310.33624004818193,222.02225124961478L310.4115914902359,222.09476154362164L310.4301471767758,222.10270288785432L310.45329792949633,222.10244567053724L310.4900353954654,222.0935934303252L310.50816306382694,222.08116364909984L310.5260929424039,222.05175946520285L310.53492288900816,222.03147938172242L310.53433095810396,222.00237789874882L310.487309393975,221.96215121284968L310.37174742018397,221.94792152835453L310.3656689496529,221.9439823327657L310.28761369960193,221.8918125292721L310.2449404433173,221.83029214029648L310.19813622670335,221.79443238007298L310.1498609427654,221.6795150097405L310.078904337679,221.58183227424888L310.07316637045005,221.52843385006508L310.0260750663401,221.47171963092205L309.97948001736586,221.4518648664498L309.9378203067572,221.44030240913798L309.88238945641933,221.44121292505952L309.68897726134674,221.45677205220727L309.60632485821407,221.47875284509973L309.5924316272685,221.47910150303505L309.51912569377964,221.50505363980028L309.4642942098544,221.53458157199748L309.3818126454498,221.56480845495844L309.3133066544833,221.59905193629857L309.2449233506886,221.64541998865843L309.0942241340308,221.73074624559376L309.01149091816114,221.7483635868075L308.97008398692196,221.74941309582027L308.90056177329825,221.73369998535054L308.8313746283493,221.73496280920244L308.7199679015175,221.70380763467983L308.525698902944,221.67863201673663L308.4704046969928,221.67954651366654L308.40147644714307,221.69293607987947L308.249467909809,221.7079392404503L308.1710225665811,221.70911321382118L308.0928782356823,221.71901905074355L308.0969123506693,221.68996268269711L308.1554344459728,221.61488488631403L308.1918840842045,221.58517506341923L308.2775387663605,221.48514608995356L308.32159319682614,221.36870846430793L308.32316201308277,221.20821241618796L308.3432535658685,221.0474123560034L308.4047538988307,220.88556203699773L308.45415677261553,220.8103958592601L308.5298052926846,220.66080730899284L308.5837021647312,220.58568530166121L308.63722364223213,220.48582839616301L308.68699784101045,220.43588255902887L308.7634197536099,220.32315680381907L308.80767797700173,220.22369457603781L308.82117695383204,220.2112185134465L308.83006607186326,220.18608922655858L308.94185951188774,219.99903118966995L308.95550083705166,219.98607166039437L308.97737188830797,219.92421498627937L308.9858663803607,219.88695869897674L308.9803500988055,219.83744206046958L308.951046576778,219.75132298888275L308.8097745274172,219.60155256146118L308.7436947171045,219.51604374219914L308.71939508650394,219.45470515055695L308.75928428392945,219.36732340381968L308.8043090122119,219.30520821130267L308.8488283239203,219.2178719096819L308.9232089523575,219.00620156871537L309.0521354400953,218.7446331368028L309.17809154332645,218.56935333807542L309.2189525766262,218.53580878849607L309.2739613056583,218.51452613391393L309.3294392696407,218.52137396199578L309.4040290469311,218.55750490992523L309.44620508073785,218.59380308729305L309.5456778848129,218.73201310534841L309.61108957528995,218.7724188641114L309.7082793501031,218.78695058206358L309.781594050135,218.76099926725965L309.8634873743795,218.7021573452812L309.91833207635136,218.67214558887736L310.009913662474,218.63376618128405L310.07848351153007,218.59516090439047L310.13753013124733,218.54482393758917L310.1915191571934,218.47407044844113L310.2097917259671,218.4611570803154L310.23209577062516,218.41967268932876L310.23482093865096,218.32077444185052L310.25670305987296,218.25843408304536L310.2837191140934,218.2213604212211L310.3245002737349,218.18345232911815L310.41091087253517,218.11204836768047L310.46112789579274,218.08199214386786L310.71597113687676,217.8924703419916L310.94877010734854,217.75656033310224L311.039595906208,217.68083749750895L311.1029036195687,217.605813382419L311.111654037948,217.58116846548546L311.125243647999,217.57257384187596L311.15681589389715,217.5306967282786L311.202399201713,217.5010810381882L311.33048089182194,217.44124439134794L311.3623929855603,217.41585834489342L311.40717691286045,217.3411369971318L311.46159962754245,217.29075719936463L311.5071837743126,217.26114201119344L311.7134763405811,217.18753191595715L311.7869675767033,217.16983123459977L311.8239644428104,217.1735915095196L311.9529298983434,217.16322877067887L311.97137386863324,217.1585619739435L312.03543007823464,217.13300977098788L312.07209419856736,217.11979467623678L312.1587709871492,217.060521845322L312.1900341523542,217.01088404464554L312.20317093067206,216.97318994000852L312.2062919747732,216.8869041581902L312.18662904503435,216.82560890997047L312.17021395159463,216.68966735584308L312.1778348519256,216.6029412087164L312.1998539626984,216.5410888042952L312.2267449635001,216.50353091536635L312.2996159631439,216.44848620806897L312.35471984752076,216.43108981975183L312.42855241969664,216.42988163464543L312.4655017867153,216.43752166190097L312.54465342973344,216.4683715186893L312.58395681594993,216.48379382328676L312.66993640558576,216.56756850488L312.687629172724,216.60120378091415L312.7417314055929,216.663810764333L312.7815947644267,216.74324894904748L312.8223885296902,216.78099288151316L312.8951287138989,216.8234182171782L313.00545144888383,216.83372686003622L313.06083580532504,216.82651796852133L313.172111574695,216.78252513252392L313.2047766658252,216.7624827989357L313.2381495100308,216.6968646261621L313.2439602068589,216.63533694428043L313.22647498987135,216.58521598626794L313.2042016202686,216.5476555054547L313.16488287039465,216.43573226012268L313.1523155434479,216.3735370847835L313.1457167857152,216.23720775719994L313.1246295471756,216.13758878429053L313.130756241113,216.05084816687122L313.14559369489507,215.99716894285575L313.2336949486671,215.96603922669146L313.30770531244707,215.95077222575856L313.43588825207917,215.98162689835226L313.4896953664902,216.05684029804434L313.55162332881446,216.19032547365896L313.59217705648916,216.23631176543768L313.6740191984318,216.29143757794918L313.8207686970709,216.3185992223689L313.894538480592,216.31157497318782L313.96402167075576,216.28802079289562L313.9970315478531,216.25149538932965L314.06233209721904,216.20316865806035L314.1555719837779,216.14251252518352L314.1926777769404,216.12687990715676L314.2675340835085,216.06604089061875L314.3046461699232,216.04992355713694L314.37841688684057,216.0429005444812L314.43340470228577,216.05654203612175L314.4882947456972,216.07794143120645L314.53825962405244,216.11189978581024L314.56532008833165,216.1369009748414L314.6326144909035,216.23310268239766L314.70026887891436,216.30069763307984L314.8140381267658,216.37263273516055L314.87346983171665,216.39019879603075L314.96531160729137,216.40808887074854L315.0201130782043,216.42560894431426L315.05701093627795,216.42646272494767L315.14945367803375,216.40750518819368L315.172970997206,216.37864497667488L315.18786177767106,216.3210880237475L315.19757019243116,216.2964540353596L315.1719106316086,216.1929087172548L315.1544292798426,216.1427867781631L315.1373900289145,216.0684231033738L315.1197494145199,216.030907598044L315.1041970862243,215.88188062288464L315.11062032544214,215.7830205050186L315.1397461373999,215.70911851853907L315.1549816217739,215.6350776414556L315.19264740276776,215.5859922173113L315.23464816811247,215.54955821574185L315.2902503774276,215.52538345022913L315.3823754707264,215.51030295246346L315.5570298089624,215.5173857824475L315.63056815688105,215.5181223707741L315.6487062012893,215.52703268826826L315.70380474157355,215.53194903423628L315.77678362044753,215.5661400516965L315.8315863476382,215.5836616594579L315.86835539996173,215.58403026626638L315.9975392508095,215.5572001669998L316.0903544603643,215.50915405243904L316.1091883840236,215.48461196676453L316.1465666344702,215.4476479940722L316.1845244770593,215.38644376157117L316.20008288974714,215.28719079769235L316.1558567323045,215.18733781490027L316.0839909086935,215.08672264067627L315.9910424356094,214.88697196295107L315.959807225463,214.83671165755277L315.881060862961,214.612372700346L315.88211876734204,214.5503132319427L315.8919882798109,214.51307316817565L315.9302662754926,214.42665591536206L315.9537313621222,214.4021602126095L316.1071006514867,214.30525963815762L316.1671456263939,214.285495516192L316.3516789328023,214.25534339571004L316.38865289498426,214.23971232923122L316.5178508222998,214.21239994358166L316.5735066676025,214.1843488794757L316.62889807087413,214.1771469083451L316.72036980053963,214.20328252310992L316.81234073997257,214.20081304663745L316.8672565744928,214.20960915654268L316.97665691548536,214.26114186016912L317.0402720759994,214.303485438576L317.10796217964526,214.37884485455288L317.17525062788627,214.4750520059306L317.2563982485008,214.56315523643116L317.2971013197566,214.5970248770118L317.35647985539254,214.61895970880323L317.4115800069085,214.62387927895816L317.4668898935306,214.61231372991006L317.527738150231,214.55085720346779L317.53760406604124,214.5141026402298L317.5706461870577,214.4649738223943L317.58046283477233,214.43209815324917L317.57245617792796,214.3655831682472L317.5889232425252,214.21687834564364L317.63678363553845,214.10582913414328L317.68387231633096,214.0447191292269L317.7814322931081,213.98848279423055L317.8888162353578,213.89888640754998L318.08425414528756,213.76168772569144L318.2180868605792,213.7344296787851L318.3193763027921,213.72769480891566L318.42938825558304,213.74190009631639L318.44303217710694,213.75076666446512L318.5897103249299,213.7735870619008L318.6266677446729,213.77008169299188L318.7007128439982,213.7422208236503L318.8310311423156,213.6489807836224L318.905423849159,213.60463666565647L318.9615362672266,213.55186387698632L319.05114816070636,213.42523787727623L319.07966988117187,213.36782143533583L319.0989674784869,213.31807024811133L319.10450334599227,213.268664492658L319.1012306593111,213.19443851353935L319.08859742636196,213.12787637674774L319.1122780123733,213.08689820470317L319.16416458349704,213.0132314538796L319.19649952702093,212.98785855369442L319.2668157450571,212.93232093337429L319.35501705616844,212.88423874381988L319.4575638099959,212.81157150114632L319.5318546983435,212.77547168145884L319.62434027208656,212.74392109444216L319.67092761880485,212.71190459717582L319.86373537087275,212.48401156670388L319.9197468522725,212.4394833600727L320.1199194052315,212.30671123076263L320.1936726372405,212.2914592110901L320.3224310069527,212.28889020641054L320.43234211705567,212.31134564046806L320.67094872323287,212.33608252592876L320.78080929949283,212.36241807179795L320.92451858178174,212.2989042891495L320.96659012538294,212.25811530346982L320.99021864850874,212.2215025002224L321.02789577992735,212.17291007813856L321.0524340103839,212.0868448883466L321.05379831068785,212.0126662256771L321.0369116534166,211.93830133928623L321.0145107533572,211.90073403241786L320.9874589937208,211.8752422644984L320.90101298566515,211.82877811017443L320.7288489391576,211.6897906547092L320.6676358668119,211.5242943179419L320.6226501206547,211.47388923310336L320.590774163451,211.45271292035432L320.5506248891543,211.38635489339686L320.5490679163813,211.22146660588533L320.5966243988041,211.1356355880198L320.6200976021355,211.1111439187298L320.65264052621205,211.09110897086794L320.7867968528262,211.0401053012356L320.8790285949144,211.02892287455052L320.9340498219717,211.02996901261304L320.9707131759242,211.03907157175854L321.0206847997215,211.07255589643682L321.057161862067,211.08553600726918L321.13881671585114,211.14455963328783L321.22983940040285,211.19543551133484L321.32495137418664,211.26720491986725L321.3660589262581,211.28023269411642L321.4294310179903,211.33082671786633L321.4998863951114,211.32863715431176L321.5169182417412,211.32832630059147L321.5540925378955,211.30833968346542L321.62837096727526,211.2843681808181L321.6657317073441,211.2605042683581L321.6892559360531,211.23213464375112L321.73227158398004,211.15013846368402L321.7520197798949,211.07663288621734L321.755208799721,210.90354973138164L321.76075101919196,210.85414477596532L321.78018644948315,210.80488194372083L321.7764666129806,210.75538224932643L321.7403088555948,210.71767370026828L321.63969461219676,210.67106244095612L321.61244966079175,210.64993239183332L321.57674689274063,210.5874978609445L321.58239525049066,210.5298503515769L321.6713381340378,210.457052238502L321.82403400308976,210.4266095799212L321.8790360872117,210.43978025501474L322.0435592547765,210.51662660769307L322.10731080721234,210.55898235085806L322.1256425895808,210.56353435189976L322.16255521928906,210.56391241848632L322.21841250050784,210.53199511849107L322.3671764817627,210.4685405741202L322.42282712811357,210.45262383644695L322.49651019983503,210.4538642221496L322.5920861582272,210.52127812804156L322.62869931237583,210.53426155840043L322.6653626757361,210.54336620807953L322.7391879145398,210.54412372852767L322.7763644449624,210.52413873424393L322.8045218593179,210.49581761472837L322.8574126608182,210.37755580795147L322.88734730290525,210.25420923346246L322.9005576659001,210.04437571030303L322.896840145997,209.99487598370524L322.88068536746505,209.87493556377103L322.8865446255477,209.80128831889033L322.89626397645407,209.77665734553193L322.92916061684446,209.7401414596834L323.01760326278963,209.69595257210221L323.1426037714009,209.669111727565L323.20258821512107,209.66584890111517L323.2762736143959,209.66709130868912L323.3356370410911,209.7011609641786L323.38550081143694,209.74289169925396L323.5134601446989,209.8028829526711L323.5687563127576,209.80393687000924L323.6238445032177,209.82099100154664L323.6978798801356,209.80575087547186L323.77237312018406,209.7657849030511L323.99984087510893,209.67453932433273L324.0779932723344,209.68843758054572L324.13278097322836,209.7180973807299L324.18808357175294,209.71866760479952L324.2301879180159,209.68661241487644L324.249844232083,209.62086652290782L324.24688191456517,209.53452086613015L324.2627669065805,209.42363888358705L324.2774412816543,209.37432879353673L324.2962318464306,209.35415614887097L324.3102331982336,209.3460570141633L324.3425162486892,209.34639007808073L324.39770596227027,209.3556880417991L324.46167095990313,209.3815638281858L324.5443541590066,209.40326874953735L324.5993568469239,209.41644447985254L324.67328651378557,209.40944931987724L324.7104094835995,209.3938305429274L324.78445311816904,209.37810835259097L324.8772246142398,209.34706259702398L324.98823348374935,209.32784367374734L325.08100541951353,209.29679857253177L325.18412988123964,209.20330675023433L325.21212701424156,209.18759420537845L325.30520710158817,209.1434602975096L325.37900153942974,209.136465523663L325.43465080501846,209.1210394806485L325.6019288845928,209.04954981107585L325.78646155422393,209.04418845621967L325.89676187451914,209.0584247943798L325.970584930561,209.05967535677974L326.03078703818755,209.03993343535785L326.1055878695952,208.9873689031774L326.14276957776383,208.96738833765176L326.1989881153713,208.91899543915315L326.2831033621369,208.86264874900098L326.3751801270373,208.86408987295817L326.4491118534497,208.85709921605485L326.5411313357945,208.86290449259195L326.68897326707156,208.84019550392986L326.72623458741145,208.82458075006434L326.81871512623184,208.8056610356016L326.85549394026384,208.8060436111864L326.82161701238147,208.89588534256563L326.7698630085397,208.95693123738693L326.6949524474876,209.01773646343645L326.6522746144874,209.08275626855448L326.6517055602817,209.1157245601371L326.691970670563,209.18257649030693L326.7604055169868,209.22062650695898L326.7739467785723,209.23725442827254L326.8471209167401,209.2671103732555L326.86550359342436,209.2677865078358L326.9962803845483,209.17507375585865L327.03335414968024,209.16333673984718L327.0886577232086,209.16391240474331L327.16158067193464,209.20249496495762L327.2248708841471,209.2691024188507L327.3340800854312,209.34540173217192L327.3973694273118,209.41200952638337L327.4431354242697,209.4333377746525L327.53510120505234,209.44302481802606L327.608324737299,209.46900379681756L327.6766486323868,209.515298253762L327.7634632390764,209.554027128318L327.89250189250015,209.5519791855204L327.9480153715849,209.5365564456315L328.0547987896789,209.49693851660868L328.10598370693697,209.4688631125655L328.14820231057456,209.42857129052481L328.18122246515486,209.38333429919112L328.2326463501122,209.34750299876123L328.2785204243228,209.36059010689587L328.4196032077525,209.45759278242622L328.50127146259547,209.52487990041027L328.6480759117658,209.55987448021278L328.7217607105813,209.56113038310104L328.7403945996921,209.55308185066679L328.79549676316674,209.55850769503468L328.8137765522224,209.5669425697106L328.82731613145006,209.58357136722498L328.8540410832502,209.6333123381537L328.88112009240285,209.66656997183873L328.8990391767111,209.69197309994706L328.9444489619091,209.72978694755147L329.03578911208024,209.77632547420944L329.1175635193831,209.8353718000917L329.1906748378897,209.8695969575465L329.2826379448161,209.87928931616807L329.35651562582643,209.8761845648114L329.3884366843122,209.89349126461002L329.41094126152166,209.92233716606188L329.41516010632404,209.943232691272L329.3672728345882,210.04116796379276L329.3617144534728,210.09057086479424L329.38421246747384,210.1199015900438L329.4161396032723,210.13672346271233L329.4620114154968,210.14981231970432L329.5174729699429,210.13827125828902L329.57317356895874,210.11897419465822L329.6848642186669,210.0585623246143L329.74056513142204,210.03926558796138L329.8322303231653,210.06107932840496L329.86404145106644,210.0866288958914L329.9553782975454,210.13317013577853L330.04624401015826,210.20492218419713L330.19233149409047,210.27289078619924L330.2513276745558,210.32345713651466L330.2780487924356,210.37319926422606L330.327730916204,210.4275471180017L330.3955817981114,210.49857322214575L330.4552175026438,210.53168981287763L330.51850484290844,210.56678460053263L330.62852195776577,210.58103525667048L330.77605698711704,210.55009963447174L330.8413219431277,210.49793160777062L330.8597679280283,210.49376172207212L330.9527083831272,210.42976271877615L331.04557256077896,210.38176533779915L331.1010077279534,210.36198344237073L331.173841915348,210.39621044215255L331.2415276096144,210.4589931510136L331.2915366681664,210.4886154578553L331.43276680525014,210.55265947579392L331.50085900948034,210.5950807146619L331.59588872819586,210.6707605994079L331.6822580894077,210.7216187612221L331.7320198596535,210.75948268225784L331.79578434352516,210.78925112885008L331.83244322794417,210.79836693132802L331.97945360209997,210.79652647715375L332.05321787821595,210.78130435148432L332.1087629267204,210.75328198241914L332.13229987287923,210.7249211249973L332.15208709040235,210.6509388781751L332.2319863448938,210.553831971004L332.26136652020796,210.4552208139594L332.2987191768225,210.42264210859048L332.3172107968094,210.41507923550034L332.37697963492974,210.40746841586133L332.5423219405093,210.41018909911054L332.78148195376707,210.39381170566685L332.85530634725365,210.37422805639653L332.91021713417285,210.3835387162435L332.9284362654689,210.3963396285808L332.96496553440375,210.40497054423759L333.00173488980363,210.4058454653741L333.0938888713754,210.39082105419857L333.1671354445534,210.40420603710027L333.221688845053,210.4300004640263L333.2579969540093,210.45511637734853L333.285042954245,210.48013399621232L333.30742508164985,210.51770981605205L333.35676875588615,210.5764231437388L333.3739998903184,210.64255408612826L333.3394126606945,210.77359781021187L333.3249935574495,210.80253939616796L333.3128470988049,210.96679544536528L333.3394247498254,211.0165386214294L333.407512006841,211.05896405448493L333.5722122433035,211.09902170016176L333.71870027359546,211.12579402048323L333.7569437901111,211.1276451909307L333.84707407978567,211.1320081264157L333.93869864796216,211.14607530879675L334.01152600358546,211.18030902304508L334.06100927478474,211.23854003021825L334.09220936752536,211.28881793906112L334.16456748101336,211.34777748967008L334.2043311223606,211.3608550928584L334.2228399067062,211.36694234832885L334.2422782357535,211.37333533239416L334.28807884227353,211.38505870063545L334.2978000840776,211.38754701215476L334.5321468424081,211.44753302308982L334.53482542291385,211.44821867475002L334.5715155252292,211.44473044731512L334.6554789002694,211.3801625627093L334.7202282644175,211.3566074462724L334.76231798533263,211.31632381758573L334.7675877921756,211.27904188942466L334.75030222533314,211.21727385260056L334.7512406138994,211.16782295757275L334.7753604333666,211.10649654673307L334.8127153362657,211.0739210797874L334.9466586039525,211.0307384602429L335.11199554182895,211.03347325042796L335.1676207008968,211.00982172844488L335.2047223793379,210.9859724601738L335.23769452181295,210.94510726223234L335.3077687284276,210.88039297883097L335.60377251553655,210.77008812289205L335.6590464530964,210.76243583493215L335.8600241109307,210.81938110348074L335.89674011050374,210.82413829417783L336.20919914552724,210.81681660548747L336.5575959954258,210.85158590788342L336.6452307018262,210.82828057847564L336.82936809043895,210.8108604834806L336.8843876883111,210.81193612227253L337.05036804413976,210.77735061942167L337.0970409745787,210.7409989669086L337.1501971177895,210.61840321685395L337.19761473641483,210.5573293728621L337.24894362315536,210.5292714834086L337.34558326304614,210.5351596298906L337.49325116390537,210.5251101228996L337.60384290953516,210.5267850334685L337.7515636449243,210.5128581122308L337.7886399768249,210.50113462095396L337.95242327336746,210.3879753907413L338.00807662998704,210.37257306921583L338.0818694332629,210.3656098103138L338.23813198056087,210.38475119462964L338.29847592334045,210.36503582815476L338.3354998972609,210.35719173756752L338.3725172888189,210.34983253128576L338.47992203258764,210.2855288018891L338.53582447856024,210.26188673285287L338.60987290547564,210.24619920979785L338.68427580655407,210.21451373059608L338.8431259948884,210.1139139465813L338.97318423839897,210.06682862341677L339.1027757552365,210.0439842350288L339.1771203139142,210.01666357077465L339.2194988921947,209.97590478800976L339.2776839280559,209.84512423276556L339.3252808083853,209.77144835309173L339.4109080602757,209.70012321803915L339.4447477167014,209.70412001776003L339.5275512034823,209.73716480205985L339.6102630851565,209.77845425433134L339.67919793763576,209.77867620699726L339.73441572378215,209.76207530679585L339.78957021141105,209.77069041481354L339.83092259638215,209.79109306880673L339.89992147008525,209.8407754751688L340.03785712285026,209.77139339044243L340.1068473529376,209.75076467809595L340.21721155160776,209.74714472898722L340.299933181268,209.75934152657464L340.4103386207171,209.71886880544662L340.4931140736808,209.71506357735507L340.534439301533,209.69861446994037L340.603474714957,209.6862298495298L340.6816135509398,209.66210913448685L340.7230100091292,209.6209291738951L340.74141929948746,209.56739017702148L340.76446351657796,209.5390163275124L340.83344959530586,209.49802314935914L340.8886366779443,209.49403231178349L340.9438031583777,209.4735549031193L340.96684109784474,209.44469636177655L340.97602449129045,209.4038648081023L341.0127961207654,209.38310136539167L341.123170940431,209.37512043471997L341.1507841709026,209.36706369513922L341.19214093772825,209.3428565939821L341.21973901007004,209.33867935106355L341.2473284765838,209.33886640587207L341.3162902903059,209.37594490313677L341.3576899342261,209.37986228145746L341.3990672176333,209.37214214477808L341.4404262950047,209.34308626766597L341.49565309636455,209.32697339156312L341.6198011166489,209.3149664509474L341.6749648394507,209.31922076418778L341.8543442512164,209.26637193338593L341.9278680313364,209.25830615735867L342.04746212491955,209.19688930079246L342.13487104958404,209.14794212595461L342.19005930840285,209.0988570973377L342.2314791895333,209.0741658141942L342.2590778066151,209.0699895171265L342.3418167644304,209.0332159211348L342.4062640794946,208.9636654655087L342.4338633320476,208.9143927452169L342.4476807524734,208.87351173794013L342.4753127575059,208.85672763083403L342.5304733791345,208.84061734199622L342.6960406351063,208.82865437401688L342.77879163416947,208.8127329386416L342.916744698774,208.80882646200826L342.9719057735092,208.79271697644344L343.0823386511656,208.74352527759947L343.2754481862903,208.7482417163592L343.31682076210564,208.740039344264L343.39958494128587,208.74012150323324L343.5513334871903,208.7035810518537L343.62029656619416,208.69556828500572L343.7168934332476,208.6959879997503L343.9375533097664,208.71302126042974L344.0617807560011,208.67629312481586L344.1446539134631,208.66425342845378L344.19988704950447,208.66851165406388L344.3793400458635,208.7262365820534L344.43449816465363,208.75522648712013L344.5309904917849,208.83372057635734L344.6000263700298,208.8664417993732L344.668959672239,208.9117719624901L344.7655666702776,208.95341241788992L344.80695957809075,208.98206511795524L344.9495542954937,209.0193359667246L344.9863407307166,209.03979459908442L345.01393916839515,209.06083621627204L345.0644934536176,209.12236549577574L345.0690062652866,209.1388043302768L345.1563182194768,209.23388547825198L345.25287542426304,209.28716598619394L345.29427369220866,209.3163042582546Z" fill="#FF7B46"></path>
  <text x="325" y="221" font-size= "1.5" font-weight="500">
    
  </text>
    </g>
</svg>