<svg  viewBox="235 145 150 150"  version="1.1" xmlns="http://www.w3.org/2000/svg" xmlns:xlink="http://www.w3.org/1999/xlink">
  <g>
    <path id="path-0306" d="M350.65127782644777,202.59649184109003L350.5975579591068,202.62518015728529L350.43701996817254,202.7015409047799L350.2931681544469,202.7156585625753L350.07827152707614,202.8134431754479L349.97331684414894,202.83200284836676L349.8365673491862,202.78058495414007L349.73261542604814,202.72591326143538L349.6496663181024,202.73405949376593L349.5553778295398,202.7195344405618L349.52782711729014,202.702367572997L349.4630060360978,202.71080845191136L349.3929825423147,202.78913150910194L349.3169280129259,202.8340593433386L349.21642670096116,202.82881410969821L349.1982105890347,202.8372495174881L349.0901725767508,202.99258979343267L348.97320083517843,203.00400593978065L348.8940023586074,203.0838815853258L348.80404341699614,203.11295524815432L348.70786397806296,203.11493978415365L348.5442426428708,203.0002880644979L348.38316952394234,202.97968311833483L348.3098211379838,202.98724673554443L348.18485253766994,203.0273602123816L348.1259072970897,203.06241196855171L348.0560254300981,203.1509196744055L348.00282061836697,203.28919698585833L347.9058193833662,203.4182394358022L347.87180840851215,203.48357729693726L347.8485085902903,203.5958382233348L347.927928212368,203.7419260807601L347.94501634782137,203.7970251945435L347.88955830123086,203.97557415436404L347.73999998260115,204.0513479914771L347.68465207567715,204.1004249029147L347.67540359698614,204.11700977336386L347.5600763258626,204.21521296606534L347.48620667003706,204.32607005187492L347.3985187918006,204.41234324543439L347.3247184734173,204.5028337162712L347.2784652407354,204.58478891248615L347.18153140855065,204.70801392892554L347.1584199060708,204.75771985816664L347.1076553527637,204.8232361632472L347.0661807965698,204.8600442879424L346.9324831345766,204.9341990731491L346.89095055766666,204.9666438505401L346.80791598856376,205.06935628616793L346.76181675653424,205.10669881109334L346.7433153610509,205.13938422836873L346.7293086247737,205.23796980368206L346.67381868213124,205.35736206673573L346.51673686363574,205.65337113158603L346.4243590487604,205.780429357701L346.2905588493559,205.9326585867475L346.14300283128614,206.0598193141086L346.0737684402593,206.12941299243903L345.9769139623568,206.23227461428996L345.8847257175621,206.30211295011213L345.8247042898038,206.36772984127583L345.6864409914742,206.4661840836734L345.61723446838005,206.52753499675146L345.57568927443936,206.58907628094676L345.5387160632381,206.67142005993537L345.38178072258233,206.86026794368354L345.3125516416112,206.97544482957073L345.2755294726994,207.07427639165144L345.22917234046326,207.23867046243777L345.19664253617157,207.40291713369515L345.19642601131636,207.51832815607486L345.18245938345353,207.58394003876674L345.1822428863634,207.6993510720822L345.20046668478244,207.79807849229837L345.2003508685666,207.88051454252218L345.1818209974517,207.94617509820364L345.1494471136575,207.9954963556347L345.0895410248704,208.04899062587356L345.05259757006934,208.09787581911405L345.00643352144107,208.18031827764753L344.98327294498085,208.24602835915812L344.9509838081249,208.29146962911545L344.93706846267014,208.3405941164856L344.9229701181248,208.4721553818481L344.9411618476188,208.60385695083096L344.968687449109,208.66999598542952L345.0053738318784,208.72342962597486L345.03291578579956,208.7604739076478L345.11115234807585,208.79358308237897L345.19850760283225,208.851325694377L345.24906950370496,208.8881247370182L345.31336257337534,208.95823636903515L345.363722257418,209.1065673385765L345.3728000758674,209.18890549493426L345.326529222948,209.30383767212788L345.3034428017636,209.32445001292763L345.29427369220866,209.3163042582546L345.25287542426304,209.28716598619394L345.1563182194768,209.23388547825198L345.0690062652866,209.1388043302768L345.0644934536176,209.12236549577574L345.01393916839515,209.06083621627204L344.9863407307166,209.03979459908442L344.9495542954937,209.0193359667246L344.80695957809075,208.98206511795524L344.7655666702776,208.95341241788992L344.668959672239,208.9117719624901L344.6000263700298,208.8664417993732L344.5309904917849,208.83372057635734L344.43449816465363,208.75522648712013L344.3793400458635,208.7262365820534L344.19988704950447,208.66851165406388L344.1446539134631,208.66425342845378L344.0617807560011,208.67629312481586L343.9375533097664,208.71302126042974L343.7168934332476,208.6959879997503L343.62029656619416,208.69556828500572L343.5513334871903,208.7035810518537L343.39958494128587,208.74012150323324L343.31682076210564,208.740039344264L343.2754481862903,208.7482417163592L343.0823386511656,208.74352527759947L342.9719057735092,208.79271697644344L342.916744698774,208.80882646200826L342.77879163416947,208.8127329386416L342.6960406351063,208.82865437401688L342.5304733791345,208.84061734199622L342.4753127575059,208.85672763083403L342.4476807524734,208.87351173794013L342.4338633320476,208.9143927452169L342.4062640794946,208.9636654655087L342.3418167644304,209.0332159211348L342.2590778066151,209.0699895171265L342.2314791895333,209.0741658141942L342.19005930840285,209.0988570973377L342.13487104958404,209.14794212595461L342.04746212491955,209.19688930079246L341.9278680313364,209.25830615735867L341.8543442512164,209.26637193338593L341.6749648394507,209.31922076418778L341.6198011166489,209.3149664509474L341.49565309636455,209.32697339156312L341.4404262950047,209.34308626766597L341.3990672176333,209.37214214477808L341.3576899342261,209.37986228145746L341.3162902903059,209.37594490313677L341.2473284765838,209.33886640587207L341.21973901007004,209.33867935106355L341.19214093772825,209.3428565939821L341.1507841709026,209.36706369513922L341.123170940431,209.37512043471997L341.0127961207654,209.38310136539167L340.97602449129045,209.4038648081023L340.96684109784474,209.44469636177655L340.9438031583777,209.4735549031193L340.8886366779443,209.49403231178349L340.83344959530586,209.49802314935914L340.76446351657796,209.5390163275124L340.74141929948746,209.56739017702148L340.7230100091292,209.6209291738951L340.6816135509398,209.66210913448685L340.603474714957,209.6862298495298L340.534439301533,209.69861446994037L340.4931140736808,209.71506357735507L340.4103386207171,209.71886880544662L340.299933181268,209.75934152657464L340.21721155160776,209.74714472898722L340.1068473529376,209.75076467809595L340.03785712285026,209.77139339044243L339.89992147008525,209.8407754751688L339.83092259638215,209.79109306880673L339.78957021141105,209.77069041481354L339.73441572378215,209.76207530679585L339.67919793763576,209.77867620699726L339.6102630851565,209.77845425433134L339.5275512034823,209.73716480205985L339.4447477167014,209.70412001776003L339.4109080602757,209.70012321803915L339.3252808083853,209.77144835309173L339.2776839280559,209.84512423276556L339.2194988921947,209.97590478800976L339.1771203139142,210.01666357077465L339.1027757552365,210.0439842350288L338.97318423839897,210.06682862341677L338.8431259948884,210.1139139465813L338.68427580655407,210.21451373059608L338.60987290547564,210.24619920979785L338.53582447856024,210.26188673285287L338.47992203258764,210.2855288018891L338.3725172888189,210.34983253128576L338.3354998972609,210.35719173756752L338.29847592334045,210.36503582815476L338.23813198056087,210.38475119462964L338.0818694332629,210.3656098103138L338.00807662998704,210.37257306921583L337.95242327336746,210.3879753907413L337.7886399768249,210.50113462095396L337.7515636449243,210.5128581122308L337.60384290953516,210.5267850334685L337.49325116390537,210.5251101228996L337.34558326304614,210.5351596298906L337.24894362315536,210.5292714834086L337.19761473641483,210.5573293728621L337.1501971177895,210.61840321685395L337.0970409745787,210.7409989669086L337.05036804413976,210.77735061942167L336.8843876883111,210.81193612227253L336.82936809043895,210.8108604834806L336.6452307018262,210.82828057847564L336.5575959954258,210.85158590788342L336.20919914552724,210.81681660548747L335.89674011050374,210.82413829417783L335.8600241109307,210.81938110348074L335.6590464530964,210.76243583493215L335.60377251553655,210.77008812289205L335.3077687284276,210.88039297883097L335.23769452181295,210.94510726223234L335.2047223793379,210.9859724601738L335.1676207008968,211.00982172844488L335.11199554182895,211.03347325042796L334.9466586039525,211.0307384602429L334.8127153362657,211.0739210797874L334.7753604333666,211.10649654673307L334.7512406138994,211.16782295757275L334.75030222533314,211.21727385260056L334.7675877921756,211.27904188942466L334.76231798533263,211.31632381758573L334.7202282644175,211.3566074462724L334.6554789002694,211.3801625627093L334.5715155252292,211.44473044731512L334.53482542291385,211.44821867475002L334.2422782357535,211.37333533239416L334.16456748101336,211.34777748967008L334.09220936752536,211.28881793906112L334.06100927478474,211.23854003021825L334.01152600358546,211.18030902304508L333.93869864796216,211.14607530879675L333.84707407978567,211.1320081264157L333.71870027359546,211.12579402048323L333.5722122433035,211.09902170016176L333.407512006841,211.05896405448493L333.3394247498254,211.0165386214294L333.3128470988049,210.96679544536528L333.3249935574495,210.80253939616796L333.3394126606945,210.77359781021187L333.3739998903184,210.64255408612826L333.35676875588615,210.5764231437388L333.30742508164985,210.51770981605205L333.285042954245,210.48013399621232L333.2579969540093,210.45511637734853L333.221688845053,210.4300004640263L333.1671354445534,210.40420603710027L333.0938888713754,210.39082105419857L333.00173488980363,210.4058454653741L332.96496553440375,210.40497054423759L332.9284362654689,210.3963396285808L332.91021713417285,210.3835387162435L332.85530634725365,210.37422805639653L332.78148195376707,210.39381170566685L332.5423219405093,210.41018909911054L332.37697963492974,210.40746841586133L332.3172107968094,210.41507923550034L332.2987191768225,210.42264210859048L332.26136652020796,210.4552208139594L332.2319863448938,210.553831971004L332.15208709040235,210.6509388781751L332.13229987287923,210.7249211249973L332.1087629267204,210.75328198241914L332.05321787821595,210.78130435148432L331.97945360209997,210.79652647715375L331.83244322794417,210.79836693132802L331.79578434352516,210.78925112885008L331.7320198596535,210.75948268225784L331.6822580894077,210.7216187612221L331.59588872819586,210.6707605994079L331.50085900948034,210.5950807146619L331.43276680525014,210.55265947579392L331.2915366681664,210.4886154578553L331.2415276096144,210.4589931510136L331.173841915348,210.39621044215255L331.1010077279534,210.36198344237073L331.04557256077896,210.38176533779915L330.9527083831272,210.42976271877615L330.8597679280283,210.49376172207212L330.8413219431277,210.49793160777062L330.77605698711704,210.55009963447174L330.62852195776577,210.58103525667048L330.51850484290844,210.56678460053263L330.4552175026438,210.53168981287763L330.3955817981114,210.49857322214575L330.327730916204,210.4275471180017L330.2780487924356,210.37319926422606L330.2513276745558,210.32345713651466L330.19233149409047,210.27289078619924L330.04624401015826,210.20492218419713L329.9553782975454,210.13317013577853L329.86404145106644,210.0866288958914L329.8322303231653,210.06107932840496L329.74056513142204,210.03926558796138L329.6848642186669,210.0585623246143L329.57317356895874,210.11897419465822L329.5174729699429,210.13827125828902L329.4620114154968,210.14981231970432L329.4161396032723,210.13672346271233L329.38421246747384,210.1199015900438L329.3617144534728,210.09057086479424L329.3672728345882,210.04116796379276L329.41516010632404,209.943232691272L329.41094126152166,209.92233716606188L329.3884366843122,209.89349126461002L329.35651562582643,209.8761845648114L329.2826379448161,209.87928931616807L329.1906748378897,209.8695969575465L329.1175635193831,209.8353718000917L329.03578911208024,209.77632547420944L328.9444489619091,209.72978694755147L328.8990391767111,209.69197309994706L328.88112009240285,209.66656997183873L328.8540410832502,209.6333123381537L328.82731613145006,209.58357136722498L328.8137765522224,209.5669425697106L328.79549676316674,209.55850769503468L328.7403945996921,209.55308185066679L328.7217607105813,209.56113038310104L328.6480759117658,209.55987448021278L328.50127146259547,209.52487990041027L328.4196032077525,209.45759278242622L328.2785204243228,209.36059010689587L328.2326463501122,209.34750299876123L328.18122246515486,209.38333429919112L328.14820231057456,209.42857129052481L328.10598370693697,209.4688631125655L328.0547987896789,209.49693851660868L327.9480153715849,209.5365564456315L327.89250189250015,209.5519791855204L327.7634632390764,209.554027128318L327.6766486323868,209.515298253762L327.608324737299,209.46900379681756L327.53510120505234,209.44302481802606L327.4431354242697,209.4333377746525L327.3973694273118,209.41200952638337L327.3340800854312,209.34540173217192L327.2248708841471,209.2691024188507L327.16158067193464,209.20249496495762L327.0886577232086,209.16391240474331L327.03335414968024,209.16333673984718L326.9962803845483,209.17507375585865L326.86550359342436,209.2677865078358L326.8471209167401,209.2671103732555L326.7739467785723,209.23725442827254L326.7604055169868,209.22062650695898L326.691970670563,209.18257649030693L326.6517055602817,209.1157245601371L326.6522746144874,209.08275626855448L326.6949524474876,209.01773646343645L326.7698630085397,208.95693123738693L326.82161701238147,208.89588534256563L326.85549394026384,208.8060436111864L326.81871512623184,208.8056610356016L326.72623458741145,208.82458075006434L326.68897326707156,208.84019550392986L326.5411313357945,208.86290449259195L326.4491118534497,208.85709921605485L326.3751801270373,208.86408987295817L326.2831033621369,208.86264874900098L326.1989881153713,208.91899543915315L326.14276957776383,208.96738833765176L326.1055878695952,208.9873689031774L326.03078703818755,209.03993343535785L325.970584930561,209.05967535677974L325.89676187451914,209.0584247943798L325.78646155422393,209.04418845621967L325.6019288845928,209.04954981107585L325.43465080501846,209.1210394806485L325.37900153942974,209.136465523663L325.30520710158817,209.1434602975096L325.21212701424156,209.18759420537845L325.18412988123964,209.20330675023433L325.08100541951353,209.29679857253177L324.98823348374935,209.32784367374734L324.8772246142398,209.34706259702398L324.78445311816904,209.37810835259097L324.7104094835995,209.3938305429274L324.67328651378557,209.40944931987724L324.5993568469239,209.41644447985254L324.5443541590066,209.40326874953735L324.46167095990313,209.3815638281858L324.39770596227027,209.3556880417991L324.3425162486892,209.34639007808073L324.3102331982336,209.3460570141633L324.2962318464306,209.35415614887097L324.2774412816543,209.37432879353673L324.2627669065805,209.42363888358705L324.24688191456517,209.53452086613015L324.249844232083,209.62086652290782L324.2301879180159,209.68661241487644L324.18808357175294,209.71866760479952L324.13278097322836,209.7180973807299L324.0779932723344,209.68843758054572L323.99984087510893,209.67453932433273L323.77237312018406,209.7657849030511L323.6978798801356,209.80575087547186L323.6238445032177,209.82099100154664L323.5687563127576,209.80393687000924L323.5134601446989,209.8028829526711L323.38550081143694,209.74289169925396L323.3356370410911,209.7011609641786L323.2762736143959,209.66709130868912L323.20258821512107,209.66584890111517L323.1426037714009,209.669111727565L323.01760326278963,209.69595257210221L322.92916061684446,209.7401414596834L322.89626397645407,209.77665734553193L322.8865446255477,209.80128831889033L322.88068536746505,209.87493556377103L322.896840145997,209.99487598370524L322.9005576659001,210.04437571030303L322.88734730290525,210.25420923346246L322.8574126608182,210.37755580795147L322.8045218593179,210.49581761472837L322.7763644449624,210.52413873424393L322.7391879145398,210.54412372852767L322.6653626757361,210.54336620807953L322.62869931237583,210.53426155840043L322.5920861582272,210.52127812804156L322.49651019983503,210.4538642221496L322.42282712811357,210.45262383644695L322.3671764817627,210.4685405741202L322.21841250050784,210.53199511849107L322.16255521928906,210.56391241848632L322.1256425895808,210.56353435189976L322.10731080721234,210.55898235085806L322.0435592547765,210.51662660769307L321.8790360872117,210.43978025501474L321.82403400308976,210.4266095799212L321.6713381340378,210.457052238502L321.58239525049066,210.5298503515769L321.57674689274063,210.5874978609445L321.61244966079175,210.64993239183332L321.63969461219676,210.67106244095612L321.7403088555948,210.71767370026828L321.7764666129806,210.75538224932643L321.78018644948315,210.80488194372083L321.76075101919196,210.85414477596532L321.755208799721,210.90354973138164L321.7520197798949,211.07663288621734L321.73227158398004,211.15013846368402L321.6892559360531,211.23213464375112L321.6657317073441,211.2605042683581L321.62837096727526,211.2843681808181L321.5540925378955,211.30833968346542L321.5169182417412,211.32832630059147L321.4998863951114,211.32863715431176L321.4294310179903,211.33082671786633L321.3660589262581,211.28023269411642L321.32495137418664,211.26720491986725L321.22983940040285,211.19543551133484L321.13881671585114,211.14455963328783L321.057161862067,211.08553600726918L321.0206847997215,211.07255589643682L320.9707131759242,211.03907157175854L320.9340498219717,211.02996901261304L320.8790285949144,211.02892287455052L320.7867968528262,211.0401053012356L320.65264052621205,211.09110897086794L320.6200976021355,211.1111439187298L320.5966243988041,211.1356355880198L320.5490679163813,211.22146660588533L320.5506248891543,211.38635489339686L320.590774163451,211.45271292035432L320.6226501206547,211.47388923310336L320.6676358668119,211.5242943179419L320.7288489391576,211.6897906547092L320.90101298566515,211.82877811017443L320.9874589937208,211.8752422644984L321.0145107533572,211.90073403241786L321.0369116534166,211.93830133928623L321.05379831068785,212.0126662256771L321.0524340103839,212.0868448883466L321.02789577992735,212.17291007813856L320.99021864850874,212.2215025002224L320.96659012538294,212.25811530346982L320.92451858178174,212.2989042891495L320.78080929949283,212.36241807179795L320.67094872323287,212.33608252592876L320.43234211705567,212.31134564046806L320.3224310069527,212.28889020641054L320.1936726372405,212.2914592110901L320.1199194052315,212.30671123076263L319.9197468522725,212.4394833600727L319.86373537087275,212.48401156670388L319.67092761880485,212.71190459717582L319.62434027208656,212.74392109444216L319.5318546983435,212.77547168145884L319.4575638099959,212.81157150114632L319.35501705616844,212.88423874381988L319.2668157450571,212.93232093337429L319.19649952702093,212.98785855369442L319.16416458349704,213.0132314538796L319.1122780123733,213.08689820470317L319.08859742636196,213.12787637674774L319.1012306593111,213.19443851353935L319.10450334599227,213.268664492658L319.0989674784869,213.31807024811133L319.07966988117187,213.36782143533583L319.05114816070636,213.42523787727623L318.9615362672266,213.55186387698632L318.905423849159,213.60463666565647L318.8310311423156,213.6489807836224L318.7007128439982,213.7422208236503L318.6266677446729,213.77008169299188L318.5897103249299,213.7735870619008L318.44303217710694,213.75076666446512L318.42938825558304,213.74190009631639L318.3193763027921,213.72769480891566L318.2180868605792,213.7344296787851L318.08425414528756,213.76168772569144L317.8888162353578,213.89888640754998L317.7814322931081,213.98848279423055L317.68387231633096,214.0447191292269L317.63678363553845,214.10582913414328L317.5889232425252,214.21687834564364L317.57245617792796,214.3655831682472L317.58046283477233,214.43209815324917L317.5706461870577,214.4649738223943L317.53760406604124,214.5141026402298L317.527738150231,214.55085720346779L317.4668898935306,214.61231372991006L317.4115800069085,214.62387927895816L317.35647985539254,214.61895970880323L317.2971013197566,214.5970248770118L317.2563982485008,214.56315523643116L317.17525062788627,214.4750520059306L317.10796217964526,214.37884485455288L317.0402720759994,214.303485438576L316.97665691548536,214.26114186016912L316.8672565744928,214.20960915654268L316.81234073997257,214.20081304663745L316.72036980053963,214.20328252310992L316.62889807087413,214.1771469083451L316.5735066676025,214.1843488794757L316.5178508222998,214.21239994358166L316.38865289498426,214.23971232923122L316.3516789328023,214.25534339571004L316.1671456263939,214.285495516192L316.1071006514867,214.30525963815762L315.9537313621222,214.4021602126095L315.9302662754926,214.42665591536206L315.8919882798109,214.51307316817565L315.88211876734204,214.5503132319427L315.881060862961,214.612372700346L315.959807225463,214.83671165755277L315.9910424356094,214.88697196295107L316.0839909086935,215.08672264067627L316.1558567323045,215.18733781490027L316.20008288974714,215.28719079769235L316.1845244770593,215.38644376157117L316.1465666344702,215.4476479940722L316.1091883840236,215.48461196676453L316.0903544603643,215.50915405243904L315.9975392508095,215.5572001669998L315.86835539996173,215.58403026626638L315.8315863476382,215.5836616594579L315.77678362044753,215.5661400516965L315.70380474157355,215.53194903423628L315.6487062012893,215.52703268826826L315.63056815688105,215.5181223707741L315.5570298089624,215.5173857824475L315.3823754707264,215.51030295246346L315.2902503774276,215.52538345022913L315.23464816811247,215.54955821574185L315.19264740276776,215.5859922173113L315.1549816217739,215.6350776414556L315.1397461373999,215.70911851853907L315.11062032544214,215.7830205050186L315.1041970862243,215.88188062288464L315.1197494145199,216.030907598044L315.1373900289145,216.0684231033738L315.1544292798426,216.1427867781631L315.1719106316086,216.1929087172548L315.19757019243116,216.2964540353596L315.18786177767106,216.3210880237475L315.172970997206,216.37864497667488L315.14945367803375,216.40750518819368L315.05701093627795,216.42646272494767L315.0201130782043,216.42560894431426L314.96531160729137,216.40808887074854L314.87346983171665,216.39019879603075L314.8140381267658,216.37263273516055L314.70026887891436,216.30069763307984L314.6326144909035,216.23310268239766L314.56532008833165,216.1369009748414L314.53825962405244,216.11189978581024L314.4882947456972,216.07794143120645L314.43340470228577,216.05654203612175L314.37841688684057,216.0429005444812L314.3046461699232,216.04992355713694L314.2675340835085,216.06604089061875L314.1926777769404,216.12687990715676L314.1555719837779,216.14251252518352L314.06233209721904,216.20316865806035L313.9970315478531,216.25149538932965L313.96402167075576,216.28802079289562L313.894538480592,216.31157497318782L313.8207686970709,216.3185992223689L313.6740191984318,216.29143757794918L313.59217705648916,216.23631176543768L313.55162332881446,216.19032547365896L313.4896953664902,216.05684029804434L313.43588825207917,215.98162689835226L313.30770531244707,215.95077222575856L313.2336949486671,215.96603922669146L313.14559369489507,215.99716894285575L313.130756241113,216.05084816687122L313.1246295471756,216.13758878429053L313.1457167857152,216.23720775719994L313.1523155434479,216.3735370847835L313.16488287039465,216.43573226012268L313.2042016202686,216.5476555054547L313.22647498987135,216.58521598626794L313.2439602068589,216.63533694428043L313.2381495100308,216.6968646261621L313.2047766658252,216.7624827989357L313.172111574695,216.78252513252392L313.06083580532504,216.82651796852133L313.00545144888383,216.83372686003622L312.8951287138989,216.8234182171782L312.8223885296902,216.78099288151316L312.7815947644267,216.74324894904748L312.7417314055929,216.663810764333L312.687629172724,216.60120378091415L312.66993640558576,216.56756850488L312.58395681594993,216.48379382328676L312.54465342973344,216.4683715186893L312.4655017867153,216.43752166190097L312.42855241969664,216.42988163464543L312.35471984752076,216.43108981975183L312.2996159631439,216.44848620806897L312.2267449635001,216.50353091536635L312.1998539626984,216.5410888042952L312.1778348519256,216.6029412087164L312.17021395159463,216.68966735584308L312.18662904503435,216.82560890997047L312.2062919747732,216.8869041581902L312.20317093067206,216.97318994000852L312.1900341523542,217.01088404464554L312.1587709871492,217.060521845322L312.07209419856736,217.11979467623678L312.03543007823464,217.13300977098788L311.97137386863324,217.1585619739435L311.9529298983434,217.16322877067887L311.8239644428104,217.1735915095196L311.7869675767033,217.16983123459977L311.7134763405811,217.18753191595715L311.5071837743126,217.26114201119344L311.46159962754245,217.29075719936463L311.40717691286045,217.3411369971318L311.3623929855603,217.41585834489342L311.33048089182194,217.44124439134794L311.202399201713,217.5010810381882L311.15681589389715,217.5306967282786L311.125243647999,217.57257384187596L311.111654037948,217.58116846548546L311.1029036195687,217.605813382419L311.039595906208,217.68083749750895L310.94877010734854,217.75656033310224L310.71597113687676,217.8924703419916L310.46112789579274,218.08199214386786L310.41091087253517,218.11204836768047L310.3245002737349,218.18345232911815L310.2837191140934,218.2213604212211L310.25670305987296,218.25843408304536L310.23482093865096,218.32077444185052L310.23209577062516,218.41967268932876L310.2097917259671,218.4611570803154L310.1915191571934,218.47407044844113L310.13753013124733,218.54482393758917L310.07848351153007,218.59516090439047L310.009913662474,218.63376618128405L309.91833207635136,218.67214558887736L309.8634873743795,218.7021573452812L309.781594050135,218.76099926725965L309.7082793501031,218.78695058206358L309.61108957528995,218.7724188641114L309.5456778848129,218.73201310534841L309.44620508073785,218.59380308729305L309.4040290469311,218.55750490992523L309.3294392696407,218.52137396199578L309.2739613056583,218.51452613391393L309.2189525766262,218.53580878849607L309.17809154332645,218.56935333807542L309.0521354400953,218.7446331368028L308.9232089523575,219.00620156871537L308.8488283239203,219.2178719096819L308.8043090122119,219.30520821130267L308.75928428392945,219.36732340381968L308.71939508650394,219.45470515055695L308.7436947171045,219.51604374219914L308.8097745274172,219.60155256146118L308.951046576778,219.75132298888275L308.9803500988055,219.83744206046958L308.9858663803607,219.88695869897674L308.97737188830797,219.92421498627937L308.95550083705166,219.98607166039437L308.94185951188774,219.99903118966995L308.83006607186326,220.18608922655858L308.82117695383204,220.2112185134465L308.80767797700173,220.22369457603781L308.7634197536099,220.32315680381907L308.68699784101045,220.43588255902887L308.63722364223213,220.48582839616301L308.5837021647312,220.58568530166121L308.5298052926846,220.66080730899284L308.45415677261553,220.8103958592601L308.4047538988307,220.88556203699773L308.3432535658685,221.0474123560034L308.32316201308277,221.20821241618796L308.32159319682614,221.36870846430793L308.2775387663605,221.48514608995356L308.1918840842045,221.58517506341923L308.1554344459728,221.61488488631403L308.0969123506693,221.68996268269711L308.0928782356823,221.71901905074355L307.8192796323892,221.64506610242552L307.7452036986906,221.63416056269944L307.63393103477574,221.60301071221147L307.54613866799264,221.60021583187063L307.47197393496754,221.5854306675028L307.44407011007206,221.57352068647833L307.3600698665541,221.51693613069074L307.2485713950373,221.48190606402204L307.2067390855882,221.4621019191727L307.16503026265127,221.45442226443538L307.0533249389264,221.40290330663993L306.9554297950417,221.34666969144655L306.8758319228655,221.2862498147424L306.8520427758631,221.24964895887751L306.84257215706384,221.23355427104707L306.80039648798993,221.19725974492758L306.7676913934629,221.17705993812342L306.6279963450179,221.10926798812943L306.29193023750486,220.9091256089623L306.2592717483858,220.8850473583925L305.7820014103163,220.53903260822517L305.63185105455705,220.40131408569778L305.5705981141691,220.33234634857035L305.50475103644567,220.2715781020861L305.4158455338038,220.2033130814416L305.3460554451194,220.17548227448788L305.2898985708998,220.13517521401354L305.23408514292896,220.11135919025674L305.1451782382974,220.04309493604433L305.11727135294495,220.03118704148437L305.04696472824435,219.97862050044114L304.9769599494357,219.93478577275891L304.9350756615095,219.9188636587778L304.8371632574126,219.86312153963172L304.79493479909434,219.83070867570586L304.6553978928714,219.77117102982538L304.61338824243285,219.74312489587282L304.53351782849495,219.67058517145415L304.34668699105896,219.5582205906112L304.3049377431671,219.54230064033436L304.2493771563459,219.53109703222526L304.2078359754378,219.53166684750704L304.16603356604173,219.52011094919726L304.11004527501063,219.48805147830444L304.0788633959637,219.47659793641833L303.9427626498764,219.42534043552496L303.91477119579577,219.40906845229074L303.83953289774945,219.3360901519709L303.7881732653732,219.30407578333416L303.7463702260284,219.29252045462636L303.5922431961553,219.20035705523242L303.5892828605247,219.19741902654823L303.54040194919435,219.15185083683537L303.48328821249015,219.06643934269687L303.4738565768639,219.0581049299908L303.4595807521182,219.03372128651426L303.3938804219215,218.99381095022L303.35164838716446,218.96140002765515L303.3042632748693,218.9046931681496L303.27086194199,218.8515151160591L303.22686216293005,218.7288903178187L303.1544347234412,218.5696230181411L303.1342374570813,218.48311160373396L303.096288787081,218.43425448219296L302.9666058320072,218.18957556857458L302.9429332443942,218.1651020541958L302.90935748905395,218.10367889496138L302.8618804017169,218.043092374337L302.74365642332486,217.90908837694406L302.71071777971156,217.88501118359727L302.61672607723085,217.80797671388154L302.57461086910916,217.7881761509443L302.3509875544987,217.70941644252252L302.2067698004139,217.675061489168L302.1605060206093,217.67170946697024L302.09146944552776,217.69335619370304L302.0355474276075,217.6777887624039L301.93824787869016,217.67152465463005L301.882461869227,217.65595880699038L301.8128229088361,217.64850457565353L301.6603823762307,217.66353666916166L301.6046330376121,217.65621551482946L301.53538101779486,217.6618587621906L301.4234153236466,217.6181167025352L301.33923452919043,217.5741550428529L301.26946274669535,217.55506245877677L301.22734588145977,217.53526375024558L301.0463056284534,217.50492779064007L300.9484850715053,217.47393043612192L300.8642132543682,217.42608977173404L300.75168781886896,217.349369524969L300.65360900758606,217.30576244288932L300.4845945681154,217.18098260241823L300.3858670961563,217.1005154177119L300.3526674915702,217.06383005914995L300.2398754121823,216.97498585856192L300.1136175418105,216.90735120183763L299.9586205868218,216.7943456919893L299.8605004383353,216.74249691472232L299.5813338923617,216.6486827921417L299.4694522794307,216.59718978992896L299.4274306542684,216.5691506218318L299.3716402058708,216.55358934367905L299.301657887856,216.51752666177526L299.27382776010927,216.50998920764232L299.2643037598755,216.4977757500883L299.1575783963308,216.4705792988807L298.9622474891912,216.40423557176746L298.90654620496935,216.39255544940806L298.8223124980723,216.34084130464726L298.72921820520423,216.3011669701691L298.66386430255807,216.26514948435852L298.5105536539231,216.22684676950485L298.3720098365302,216.22941849088966L298.22034849283955,216.281330233036L298.1512729248607,216.29474185416075L298.09621613800846,216.32040910665L298.0685596420117,216.3211182538571L297.83410241988895,216.39504347235925L297.6965982496258,216.45921460595127L297.6006415351876,216.52280748809972L297.55965653021485,216.5563671166483L297.4648242920084,216.68592190767595L297.4473892330752,216.74346493343455L297.4301230329693,216.8097383541417L297.3946799081823,216.8928135149008L297.3095551507977,217.04234242227085L297.28288757592236,217.10901251594623L297.2480133915051,217.22458375881797L297.2316595609045,217.34032909582766L297.12078264532465,217.60600065780636L297.0385725422457,217.91219139241457L297.02507072959634,217.93679621692445L296.9573850232009,218.02878304296792L296.8708769440782,218.1002261876174L296.8437910484099,218.13343243432428L296.8039356553636,218.23295481302102L296.8005676973662,218.29887419644092L296.8111663282216,218.3814123629263L296.78611900734904,218.53005203893917L296.77959673553414,218.6783805971254L296.78998771089755,218.74394414115886L296.81925273158413,218.82568757629178L296.82963780861974,218.8917360145051L296.83294336795007,219.07264737000241L296.7897220977429,219.2380893111631L296.77686879254543,219.30004029679094L296.7236070766521,219.41640985903177L296.7106309009978,219.4657514479968L296.6574472187567,219.59860965191274L296.6078189740001,219.6611858419128L296.43070008691575,219.84137644203838L296.3212679543103,219.91745607876874L296.23887348723656,219.96420822712753L296.19789652887266,219.99777007726516L296.06063179932244,220.07843956991837L296.0196552892412,220.1120016833247L295.99204211317556,220.12095716913882L295.909785147418,220.1677115544926L295.7442603212039,220.21999212837545L295.6065185238913,220.27204817920483L295.5379359008148,220.31408199545876L295.4323076115288,220.3451016089566L295.382022222846,220.38294217029033L295.24546367959556,220.4965977483962L295.17307831384096,220.5841808859177L295.11904128139213,220.66320643613562L295.1067193664894,220.74989498260584L295.10400695029966,220.85316092323865L295.1006444223094,220.91908078688994L295.110688636807,220.96815289388178L295.1396064061082,221.03340382868464L295.20634364110083,221.1479859204792L295.31992140296643,221.28579705565335L295.43301775460714,221.39499292457276L295.471029606957,221.43947681687587L295.50391979000415,221.46791007814772L295.5645060337192,221.4917526058398L295.7319481510749,221.530171559064L295.76885693442455,221.5295465343279L295.8061674197197,221.54104868948343L295.8432123365601,221.54042502873563L295.9175161949861,221.55566764178548L296.1399147653319,221.56405178172008L296.2328253761516,221.58334875014316L296.2699993742972,221.5948502019237L296.34037334001187,221.6430326516229L296.3878550562149,221.7040941243058L296.41760424156746,221.80232958509805L296.42406003973156,221.9013167840376L296.4189210951481,221.9444278722558L296.4162011603039,221.96719434578972L296.37592728893287,222.03373824267965L296.30324442359415,222.10046373427576L296.1685895793853,222.29560227980255L296.1300729252762,222.4441170629898L296.1357520483143,222.49363359494328L296.1704861561411,222.60791836055614L296.1964481945797,222.73860888860963L296.2109503821921,222.76735577489853L296.23638137234593,222.87379460179272L296.2568721284115,222.97194331528863L296.2660619393173,223.18540091864543L296.24466751629006,223.26763973664129L296.2174137237271,223.29260135681398L296.18072158850555,223.30971573027637L296.12048494855117,223.3028480678513L296.0645716345716,223.2872921163098L296.0369679284122,223.29576282333255L295.982280093609,223.33792582817932L295.93734215146105,223.3961829537957L295.8871141421987,223.42965899123737L295.8455280846392,223.4346046590572L295.77664989323966,223.45626816120966L295.74921592814644,223.47346957413447L295.6810834327189,223.53587488264202L295.62246882175896,223.61097755732135L295.55552459173487,223.72285774349348L295.54268402233356,223.77268629836908L295.5542700680562,223.88723934963582L295.5642341530729,223.9198230735892L295.5784764766722,223.93595891114728L295.61369805513823,224.06673552384837L295.6015641670092,224.14906138296283L295.56164699731016,224.23209778290402L295.4900249379061,224.34829897555028L295.4401501677057,224.39826698294382L295.3219267443019,224.49463642663613L295.2672429979357,224.536800915791L295.1576614677542,224.60464037786187L295.06219237616097,224.68812971098032L295.0483915099685,224.69236556363012L294.9665035069411,224.75561441560512L294.8474457031771,224.81900238983962L294.77918386513556,224.86977028458023L294.7379572648497,224.89072383189432L294.63378966212986,224.973163801802L294.5468042647626,225.0417007613887L294.4920836683377,225.07562248323757L294.4377201768184,225.12555055100893L294.3700322726472,225.2088155557267L294.30292302698217,225.3124534663275L294.25331351476416,225.3750344360169L294.19511068847714,225.46226748996742L294.1683888031075,225.51196787726167L294.0939124559336,225.710100697318L294.0821364527146,225.80891860786596L294.0835482266484,225.87439826383252L294.1152019180481,226.05460390072676L294.11753200368184,226.1695557150906L294.1324770457213,226.21867314880456L294.13388302756357,226.28463770396502L294.15844165030285,226.34984734328282L294.16897360875373,226.4154116989166L294.2316235129292,226.52946885181336L294.2514173045347,226.59463431482163L294.25212014061253,226.62761659697298L294.23038486576115,226.69336624963398L294.1989909479598,226.73526429147205L294.10296711873525,226.78577619534553L294.0477635854768,226.80320652130104L293.964569957614,226.80437430796974L293.90870861073563,226.78494351967947L293.8569024393073,226.74469811631934L293.7773666260873,226.70080112518463L293.7072684810955,226.6647508246906L293.6374311701329,226.64131148687557L293.45626683854425,226.6032628542016L293.38696276822884,226.60407593220043L293.2628017020397,226.63929699448818L293.20817751230425,226.67710164395703L293.14914136779043,226.731353483332L293.12767056225493,226.809714862683L293.11554711282224,226.89204222436547L293.1500743583638,226.9898341752887L293.16572535326486,227.07193351785827L293.2001160369,227.16972426315078L293.2914688476594,227.33253894715926L293.296449016274,227.34907293838387L293.3398336764949,227.43433868096145L293.50538053077616,227.6085094689497L293.61026736408894,227.75447758978498L293.70086056973014,227.88867507066516L293.79551330128015,227.98993464830164L293.9566065635954,228.1718255505657L293.9854345335989,228.22107173132463L294.02330264538614,228.26555243128496L294.08449144173574,228.3180085992244L294.145640320432,228.36222056859424L294.3515613997806,228.48197263048314L294.3658019605464,228.49810787102888L294.4501341884061,228.55029482312057L294.5395357523121,228.6228965239361L294.59094005163206,228.6505309073018L294.63397320411605,228.68390679485947L294.6991238338487,228.734946203027L294.7740688657432,228.77492328911103L294.8673093817124,228.81022143008613L295.1461071298145,228.86713024244727L295.2950721164525,228.90973796648905L295.3138546831142,228.92155153521708L295.41784229593395,229.0267825714336L295.42780470923753,229.0593662917281L295.428862311157,229.10835486424276L295.406770028083,229.15809746265404L295.38965619240116,229.22437438019097L295.36364349825453,229.30657130386953L295.37395656179433,229.35564616626198L295.3657532917823,229.40503335472476L295.3713481582163,229.45018473250184L295.40109325006415,229.54841948718695L295.4259959717201,229.6301212330609L295.432031838478,229.69564412878844L295.4469722061367,229.74476216581297L295.4432025371716,230.0075633954093L295.4677540751145,230.07277401735791L295.51566319410995,230.1542054442234L295.5441407432627,230.1864769562917L295.6712585549976,230.30356305621171L295.82746796846914,230.4815385184511L295.8516676367508,230.53025826180965L295.8757311083573,230.5789767520564L295.8764317973473,230.61195907702404L295.85888279165374,230.6573793822363L295.7901106731915,230.68340890913169L295.68744888094807,230.6397761920707L295.6181510942697,230.6410693695907L295.5905562330008,230.6495408302062L295.50746105875805,230.65507000683556L295.43886461083093,230.68934594181428L295.38428599395047,230.7353912196486L295.3529407124952,230.7850477018519L295.3766967226402,230.87158813831684L295.3805853576414,230.89975080622116L295.4148908387324,231.15417827636793L295.41358669902183,231.46210202034945L295.44159557134117,231.6383957890066L295.4314352876281,231.7154063005164L295.41070598159786,231.7768002701896L295.35814743768424,231.84808132895068L295.2165186823877,231.9936982248728L295.13437415181033,232.16217686029267L295.12930695785326,232.24602409884847L295.2123199399248,232.5600676685308L295.2403454045452,232.75818378403437L295.2589437934075,232.88977548328785L295.3227603654195,233.06494802717498L295.52293886896587,233.4494305666749L295.5537063249649,233.52973236995058L295.5501179712228,233.61504818615776L295.53489116537094,233.66000555283154L295.4230104431772,233.73024872535098L295.3862055502359,233.73524007816195L295.21509399433853,233.715218424868L295.1130902557925,233.67450366730463L295.01144852129437,233.64931067912858L294.8745831002416,233.64512772520902L294.7923306925659,233.70740492962523L294.7862507555219,233.77330016881024L294.85287717391475,233.8830311237325L294.9394116601252,233.95463719705822L295.04325023490674,234.03610333460983L295.2126218804442,234.1230293848057L295.2638315549957,234.1661809572397L295.4248093698516,234.37668953588673L295.5831686257334,234.5202528961172L295.6316055795178,234.6370899989497L295.6336882708274,234.70306117309156L295.621738662132,234.75871776798795L295.62625535517145,234.89551279880652L295.6870378121166,234.95766696370447L295.6977251772696,235.05572441038748L295.7526272651412,235.2128719847915L295.75371938913304,235.24731287512805L295.72249096702944,235.42644918320275L295.6603661028821,235.55971309308552L295.6126237928511,235.62715946196113L295.53420432521307,235.67637718644983L295.1460148016304,235.8565535840862L295.03386589488946,235.99711241490604L295.0270091764469,236.07124445344925L295.09359969862635,236.36913235240536L295.1576778947492,236.81150922125562L295.14970497314425,236.86477844542515L295.1273896375533,236.88784789911097L295.0561651053031,236.9041580645562L294.89538306101895,236.87550594789718L294.72683959340793,236.8239903596459L294.6342138999389,236.78530438522557L294.6117349160995,236.77588169857245L294.5324600818167,236.75914237743382L294.482461999145,236.71745816747716L294.3852715279136,236.71995051829163L294.275308017779,236.75578558485086L294.1362558466717,236.85875807864068L294.05303681004807,236.98164642028405L294.01899931689695,237.0647407437982L293.98124556722905,237.30298179064266L293.87787295286034,237.60220252324416L293.7965961999289,237.6989229028768L293.67535184231383,237.76908670498415L293.60758808477476,237.75730586766258L293.5110004400085,237.6967643775124L293.47412069459097,237.65035378778975L293.47997858135204,237.54469075874113L293.5651261349012,237.43103237983178L293.58928098154865,237.3783973061236L293.58778840293235,237.33134419491398L293.5346599055629,237.2779939889324L293.4447489990962,237.22818316354733L293.4145811891103,237.18959378298678L293.3865460662382,237.17818086453917L293.06789547094013,237.13935016193318L292.7786235730782,237.20699611405234L292.7384865565655,237.2299029884325L292.5956096061127,237.3115102108768L292.5895388786739,237.40068351224636L292.6183892271438,237.4707811543767L292.8535533315044,237.71445159789891L292.91922125591736,237.83629315107737L292.98218138323136,238.09728811891637L292.92057063261745,238.2000119327722L292.55064308464716,238.50017319964536L292.50021148828455,238.56614542882016L292.4628245721542,238.63369278444588L292.45903405062927,238.72579687370217L292.4796787739833,238.77593616726608L292.50864426965563,238.8125737788323L292.6632067844039,238.8838303634284L292.7687851217124,238.89644275513365L292.8271061530395,238.88922175376774L292.9487055533391,238.91653087129907L293.2062260756102,238.92133388184266L293.39519978094177,238.95848129213482L293.6287185778456,239.15461801040965L293.71316437880523,239.25238790511958L293.7164268754568,239.34601186359396L293.6591466846512,239.42743687949132L293.606836033563,239.444410731051L293.4262867817197,239.45534922153274L293.38315380174026,239.4670739723124L293.01058675479,239.46896625724548L292.96947217777415,239.48265001594427L292.84507174043756,239.48586639299901L292.7749400337161,239.51431590772518L292.7079402324416,239.57771032467735L292.64516664386247,239.6755747808893L292.5802280461503,239.84276620778655L292.56960598108344,239.85527680332234L292.51316314407086,239.92361844342122L292.4884888633169,239.93939417464935L292.4174326799948,239.94213410446628L292.3299035089585,239.94569238067925L292.09163605073627,239.9711408032981L292.0117393207802,239.99707761639638L291.920586504948,240.09031820466316L291.73916647426813,240.31802858525316L291.35670265457884,240.61227174019677L291.19656562226373,240.71797526319187L291.11828913673526,240.79242377896935L291.06931336711204,240.9452169922224L290.9370092212521,241.22139239346598L290.7968759435098,241.3980833198848L290.5329871422073,241.59401033402537L290.33388659017146,241.7051817548736L290.19640247356074,241.85328823588407L290.1336510385554,241.95067378089334L290.0989056382132,242.07353233449794L289.99450743065245,242.26704187581618L289.9333848124297,242.3649277282302L289.824031729906,242.53996484787058L289.73706434154883,242.63761539598454L289.5842983319126,242.68374722097087L289.3747252966641,242.6653496879917L289.2015811228521,242.6259475766583L288.97765430030995,242.60160283124242L288.96744349942674,242.59035623509953L288.7584581712581,242.29457967562303L288.6645486274574,242.20255675198678L288.5992721375951,242.08121248638236L288.4862486077909,241.94731122235044L288.4294764437873,241.79597791429023L288.37865988254634,241.44490136074364L288.33005201780907,241.32904333187707L288.2604736450194,241.20281128923125L288.18762126751244,241.17256883869868L287.87027081971974,241.1308967959967L287.796034019073,241.13846847794048L287.6449579174696,241.13128135671377L287.47368530906533,241.10548438059595L287.18607451266143,241.00880479080024L286.97515288285285,240.90409121493303L286.8125218517671,240.85994806864983L286.7552000314463,240.8875577378558L286.721265100703,240.92847200438428L286.66226532989094,240.97206993627515L286.5161433545509,241.01973206223283L286.07147564785555,240.99875432671706L285.76464177512753,240.96495831596167L285.678662428767,240.96418564068063L285.65471881049234,240.96397050934866L285.58129273650775,240.97203993647418L285.471176830637,241.00014785822532L285.36106214571555,241.01613254233325L285.21440312584673,241.00317797682237L285.1961304129545,240.99476999003673L285.04942734229553,240.9856954081888L285.01264638421344,240.98973023845792L284.9252926262052,241.0384119791197L284.8518224813961,241.06248606091322L284.7418512365439,241.05374204664804L284.57687592016737,241.0241384233268L284.4215299402167,240.91266578947943L284.2212337255951,240.62427151395786L284.15748475110377,240.55823403329578L284.09803946789543,240.50872332265772L284.0797168607605,240.50468008045573L284.0477520616987,240.47966228705263L284.01587445609766,240.4468861539981L283.9565212911002,240.3891324392498L283.9615242276377,240.30722107176825L283.9436768765081,240.21249707606603L283.9165723881597,240.13029907192322L283.78767347042594,239.8561235358884L283.78501786548804,239.85028047725336L283.7444988154348,239.70249510214762L283.7494520400214,239.6370714698005L283.777267440797,239.57136688520131L283.80965950479003,239.52219136560234L283.8057813163505,239.4072243753817L283.8155577265097,239.27589106375763L283.79307768432045,239.1937344567159L283.78433898905496,239.1117004876278L283.7849505088925,238.99677359137513L283.7992051206711,238.9149448249891L283.8131813622531,238.88209319052385L283.82258127816385,238.82058887250696L283.82749138864165,238.75904448696565L283.8285725520218,238.57816909338726L283.84269156751543,238.4963391690053L283.90336674934224,238.31599583415027L283.97736455714767,238.18523616820312L284.0881848989593,238.1076648353146L284.157315589935,238.07094173634232L284.24018267042993,238.04695020319195L284.29542962913547,238.02271191494492L284.30931376362423,238.0102274714618L284.34179606974794,237.96541797765894L284.35577366827783,237.93256666097386L284.4345302010006,237.83870670432498L284.45313410659946,237.80589683182188L284.4768299800671,237.70766484124033L284.49543405364966,237.67485500324347L284.6530928475113,237.47452887081636L284.63949332427364,237.44967486548467L284.6258944490837,237.412697228895L284.61285408223193,237.31413649460046L284.5077783373272,237.23172502465513L284.47595247507707,237.18197574125952L284.40392406274987,236.96844008737207L284.37298465085405,236.80376671549675L284.3597074516729,236.73818028140977L284.33712782158545,236.6889987970162L284.2915093466363,236.6313672036813L284.2641660564732,236.60639045192784L284.2274771708762,236.58957423912216L284.1818518450964,236.5566749739328L284.122533424179,236.49504159387016L284.0861663758333,236.44961663050526L284.02208460435577,236.40006451700538L283.9810471741912,236.3584775152949L283.74325921959826,236.21765979120755L283.5376741288528,236.05676336646957L283.5011692181033,236.01133785689217L283.47414589852997,235.9456292057912L283.47026621145415,235.83066245583086L283.52275015081614,235.56828988913185L283.53724089920433,235.4534870065063L283.54210195694395,235.42055405985957L283.5398040383661,235.09222540613519L283.56859511197763,234.9280857017111L283.6109452927194,234.78055516988843L283.6213610418308,234.6167365691108L283.6086486340064,234.4522266778058L283.5640442131189,234.26754951868134L283.50939450314763,234.20159441684336L283.4550281415941,234.08617752030932L283.3924211394551,233.85624017079226L283.3927046862518,233.80677828738317L283.4210277908969,233.70858695609968L283.45361294408576,233.64292499552175L283.4724535736859,233.57714048995695L283.51568960016084,233.3146859276194L283.5159187493082,233.28219665776032L283.4933890330576,233.21604317161655L283.47524620996774,233.18339003255096L283.42064306238535,233.1009473598042L283.4026853293799,233.05180778450995L283.39917595393854,232.90386828426017L283.39496876685735,232.84224276522218L283.38589988413514,232.82567377330088L283.31380075803463,232.62862829153528L283.2503610339518,232.4966427666368L283.200845761603,232.34877826718275L283.17825987564356,232.29959758536643L283.15105214994037,232.24989079724764L283.1198595798378,232.11867780364082L283.08797531184246,232.07329391382518L283.0514636850676,232.02786884389388L283.00120087094547,231.994929930539L282.96459113183664,231.98248033797518L282.81806979567045,231.90358498236856L282.7814163094263,231.89501477985505L282.65321813165065,231.8327713735971L282.598142285653,231.8162784477263L282.3601165164473,231.69195689989647L282.3053654244213,231.63424705834404L282.2600094343434,231.551888543333L282.2419175467476,231.50226349451987L282.22835068722634,231.4861398427538L282.21974633045465,231.40362278761495L282.21534645285647,231.37109240496648L282.16976179027915,231.30909968228207L282.12408019450595,231.2800824278902L282.0689592775634,231.267469606968L281.9956925434162,231.23432820552716L281.9590322688673,231.22624387134056L281.9040520605013,231.20102402581688L281.8582771752044,231.16812677981216L281.78496647734573,231.13886505571008L281.7576089205468,231.1143752955577L281.62042499770905,231.0273243470674L281.52873906931563,230.9857768228021L281.4738931203283,230.9484353084481L281.3638282803222,230.9193341290611L281.29041970885373,230.91092537617442L281.2168759090564,230.91463924075288L281.14310607754305,230.95084263065564L281.0098082699551,230.95451359427625L280.91283458101316,230.9720845509928L280.8993334981169,230.97438999252608L280.7703417573575,231.03144409286142L280.74276171832753,231.02683604421418L280.70610483258497,231.00614467798096L280.69258519000505,230.98565760512338L280.61336522566853,230.90009285540873L280.5864629978423,230.87124364663032L280.45702686458753,230.84585440960745L280.41527434238014,230.83045284895616L280.3867277748541,230.80255920428954L280.34928593637596,230.7789516682269L280.3064900970239,230.73492925814026L280.28239557931374,230.69834593306405L280.24995749580194,230.5428773839094L280.2452037088624,230.3949270490457L280.2289594690483,230.3133130096512L280.1895716766667,230.2319799764955L280.12730691870456,230.1514153300168L280.11705138947946,230.1188336220057L280.11555905956993,230.06935601979967L280.1276774778671,230.0199983284283L280.2104298416598,229.87378900097883L280.2226900694295,229.82394766572452L280.23994932965434,229.64273018030053L280.2383211577726,229.5932513950247L280.250576225033,229.54389498492765L280.30318737165,229.46434279857567L280.37450134453684,229.39222983202126L280.3963789085319,229.3589615545443L280.5077280956757,229.24889138777326L280.5430906214606,229.20264869929997L280.6460065703868,228.9698135730614L280.65663557461085,228.87097863079816L280.68578705967957,228.7713373601846L280.72042462824174,228.70472083325512L280.8086712439472,228.5915382566236L280.86192490776375,228.5279960539283L280.8884319398858,228.49476909877103L280.91762918207314,228.4033725776835L280.9283957865773,228.30453901714282L280.926272215449,228.23856777078436L280.94916563676816,228.08989212346296L280.96632435864376,228.05270307043065L281.0173581207564,227.91979451239695L281.0737630009462,227.67151679138624L281.13914151696736,227.55861809985072L281.21459543078527,227.47005594621896L281.25736346327176,227.37053591947551L281.2736228318754,227.3042424713185L281.3343697604869,227.19178822983667L281.3563923472029,227.15803712386423L281.41854221300673,227.0906953033591L281.4592201829655,227.06874816286017L281.55786753228676,226.98815152770385L281.5939995012159,226.97101373703572L281.67898641435386,226.89466096193883L281.80693096153846,226.72655011417464L281.88746575109326,226.6588874805475L281.96863867806314,226.6072338828908L282.0088164561603,226.56927995224942L282.08845297128573,226.47251330753716L282.1186058428357,226.40585885564724L282.1302400237946,226.3395249147361L282.1287465667665,226.2905323586765L282.10724609417593,226.1923828382014L282.1320461877367,226.1053132631232L282.1943372195783,226.0379744781285L282.30361068324055,226.00596925646823L282.38487398143843,225.9586821817984L282.4115714051004,225.9332175396521L282.47736447797433,225.83293438394503L282.4891307016369,225.7670867554989L282.53191284294735,225.6670840494271L282.5489887592703,225.6255308419477L282.53923061133173,225.6094409159923L282.4878048831197,225.581826692739L282.4594835185744,225.55781261147513L282.31206480776746,225.39744065837294L282.1549093910253,225.0973192928268L282.10765849359086,225.0614987507406L281.93920682686803,224.97950255604974L281.89195535997715,224.94368234056856L281.7840129456454,224.8806518824431L281.722689580085,224.8369480095571L281.59378281721365,224.70050586815887L281.5470754485141,224.67681458559855L281.5283697110426,224.66937465233605L281.448164765221,224.60950086619414L281.39668680063187,224.58625249024317L281.2670326632906,224.56522160501027L281.1738842957857,224.53045099826977L281.11346484238675,224.51536800380563L281.0578101743922,224.50032728301267L280.98435549095666,224.50646674288964L280.9113102118281,224.52473359286523L280.84339065492895,224.55953401487022L280.825001109446,224.5603413523886L280.7158652602484,224.60399172255165L280.6063634783459,224.63163612926837L280.51533895005923,224.66283867102266L280.40538484056015,224.68223579145797L280.33215994316924,224.69225845671735L280.25847684785185,224.69451816003766L280.1661414916525,224.68448999077282L280.0633246032885,224.63751398574186L280.03045850930357,224.6178265863382L279.9875152282584,224.57380323310917L279.95823958071924,224.52505090629165L279.92796336183164,224.4437985463901L279.8935557373261,224.37899792241842L279.85865034902235,224.2977048579969L279.8098583489591,224.21628955559845L279.7281935953288,224.1156721331172L279.6906046000986,224.09206396671289L279.5870571608175,224.02471546310335L279.51269331751973,224.00223882848604L279.4751970351208,223.98251129429173L279.39497902102084,223.9231277168101L279.3434096616802,223.895517517828L279.24970924824083,223.8486243613288L279.1566426661084,223.81822516076681L279.0081922148711,223.78491527527876L278.9147146467003,223.7423896049404L278.81125661629267,223.67892406551164L278.63088620140843,223.51537096031734L278.4992742188333,223.43662640396815L278.45215046735393,223.40081260653005L278.3588569290805,223.36604935535252L278.2271552137245,223.28294068317155L278.1888351377165,223.2389602937783L278.1155138792092,223.10932347334438L278.06970454202747,222.97895759771927L278.0501853207388,222.9462955746676L278.01195773784275,222.90619576643348L277.9371832086035,222.87111081830153L277.8615919280819,222.81128674677984L277.8328034096194,222.77951372553161L277.78885466743304,222.7025084101433L277.7779578896225,222.65343379723708L277.7481763286669,222.5881910094522L277.67607847675754,222.49542168941753L277.59489788959036,222.41130221930143L277.5753775613266,222.37864048361007L277.53315443230167,222.35499448773044L277.46382355265087,222.34469038001407L277.35326784525387,222.3437256266925L277.27908336505425,222.32901510030206L277.1488249015674,222.28714391233552L276.9260831302963,222.23525363438057L276.8885764820152,222.21601411889242L276.8327772904522,222.2009798696572L276.7230254778369,222.1515299602588L276.65961428716037,222.1228513246897L276.5570012314056,222.09286192590753L276.53316265386457,222.06889228812815L276.5459197814016,222.03554204871034L276.53502014966216,221.9864678199483L276.51559375577926,221.9450785560348L276.51013907906963,221.93339244241997L276.44611431745943,221.81159950218353L276.3444501071317,221.670081741202L276.2324321662345,221.4916185534803L276.172085092021,221.34464099790148L276.1336697354818,221.2962978160831L276.1048823709207,221.2640414652651L276.00113348398736,221.20058283914932L275.8889809100583,221.15838922271632L275.85165909564967,221.14691168990157L275.7961324984717,221.14400530818875L275.6844850429916,221.11782001392294L275.6469331584558,221.10246117985935L275.5539905981386,221.0841976363963L275.3854905807093,221.01436074549747L275.31011523359484,220.97103294002318L275.19609695799227,220.8749968258344L275.1583620102974,220.8513929429555L274.95244765172174,220.76571650362803L274.8057332976605,220.65824544323368L274.7862076844358,220.62558540509417L274.75205692953386,220.57291627596987L274.6904790405533,220.5253446842553L274.62445914191994,220.48549398411615L274.5106605113069,220.39382681173447L274.31808486982845,220.29566119146966L274.2519697179596,220.251930909787L274.0140563674686,220.0398990926069L273.90589156619535,219.9807740342021L273.87269478620874,219.95284630221886L273.746005198067,219.8940472632703L273.73160903092503,219.8779201751713L273.64214970194735,219.82671614978608L273.37945582118846,219.70128133558228L273.298935360639,219.64191105845657L273.2167770009328,219.532577524702L273.1967460716369,219.4834259901727L273.1157221477988,219.40756371419684L273.06112118965757,219.29361773018627L273.01991215025555,219.16281367370357L273.0172643352853,219.0803501988703L272.9707863104122,218.9330128462525L272.9779004850243,218.8671212973195L272.98130058356037,218.8298096680437L273.01657098658325,218.7796780163435L273.12848344482336,218.6695861962471L273.2346212182674,218.5269538882103L273.34003316789676,218.36346311950456L273.4330626369665,218.24933072361728L273.51787372654144,218.16470961841696L273.56177351801307,218.09767981952973L273.61966305863825,218.03416506377653L273.6549413098619,217.98354937488693L273.7043686789548,217.80890961038585L273.7212346775632,217.6228359567267L273.7216244908632,217.49917839337013L273.71998282953064,217.44969989848323L273.72315416553465,217.408506892506L273.7119752641156,217.34682269321365L273.7026916064533,217.21095827366207L273.71152632527446,217.06215630664792L273.7229598556587,216.98757325102997L273.76367345782273,216.82546730722697L273.81773471667475,216.65086783058177L273.87316664301034,216.51313606849817L273.95693498634137,216.39989579170742L274.05102086280385,216.31487147283588L274.1217674411346,216.22188712609204L274.1939673089182,216.17062069369513L274.22057373009375,216.14126857963038L274.24536232821265,216.05370752188446L274.20730002775963,216.02185784663288L274.1172372574583,215.9497944089935L274.08362239585404,215.90973918316377L274.0529600287409,215.823639755562L274.0463962415306,215.6257260026414L274.0262226004088,215.57705771086512L273.9822065354456,215.50393675014402L273.9244294328746,215.43118222669L273.90384771070967,215.36990195407907L273.9161034904864,215.32005831375227L273.94212019111,215.2698483093127L273.97767493124775,215.23184412780938L274.06962324707274,215.0808492541364L274.10540865441726,215.04672678026418L274.1580338048334,214.967164864418L274.18827457262523,214.90438300058668L274.2629252400184,214.79106522402162L274.284312599495,214.74081562405627L274.30147680791197,214.7031381333809L274.3232717839528,214.66550061885937L274.3723128024503,214.61500481895837L274.41604470455786,214.53924620734688L274.4320651789858,214.4690677171402L274.44482391104975,214.43571677992986L274.47002274798433,214.36076813676482L274.48813096565937,214.21156194803734L274.50488327868516,214.1617574627735L274.53962069434056,214.09901487053594L274.5819854497422,213.98638906449833L274.6210831141252,213.91107573251247L274.62448683087496,213.87376451680393L274.6537743132358,213.78624289177787L274.6890446774851,213.59984462419925L274.75075990014375,213.51163354747678L274.7767804986106,213.46142445131318L274.7969381038238,213.37430901629068L274.7906677878236,213.32479061303093L274.77553739664654,213.288289059612L274.722257723497,213.2150869678544L274.6796029913821,213.1793174113527L274.6648848917648,213.15494304926688L274.64934693738905,213.10582951760534L274.65315813100824,213.08113036637315L274.64225642908787,213.03157196698885L274.62263080537014,212.99503163884674L274.6224271647443,212.98872562091583L274.62189954708083,212.97465771641782L274.6016364598545,212.92162383346476L274.6272448786149,212.85928749917912L274.6679843074089,212.8334526889148L274.7695900801227,212.83481603978817L274.9179809581401,212.8554972502534L274.9926514751096,212.87845075321638L275.0675979747466,212.91353039719343L275.1690785261817,212.98860530490128L275.19069666011274,213.00479563901445L275.2912656265835,213.11332409768784L275.35657916561104,213.13231788076337L275.3748838239335,213.12762709584877L275.4200299117765,213.09746702918346L275.41871028722744,213.0562354704707L275.3648236680456,212.98884632181216L275.29333758856956,212.89899741205318L275.22505965825985,212.78977875313103L275.1805417483847,212.7001637214198L275.1647285350482,212.63892400441546L275.14047232291705,212.6023432521033L275.13501660121256,212.5780488797318L275.1329656702146,212.5164434157241L275.1408654082552,212.47917124945434L275.17615564075095,212.42855791359398L275.20322235263666,212.40745488228913L275.54291226676287,212.21302768967507L275.59650391217656,212.15820915522272L275.62252789251215,212.10800094751448L275.62511477233056,212.04595079413957L275.60548993853445,212.0094098635036L275.5536604469198,211.97792394359203L275.4977885544067,211.96725556868478L275.3870529314554,211.96581050199165L275.3453046037903,211.95914438388263L275.2893440898697,211.9441111488386L275.24719405291034,211.92434824387237L275.1810525461224,211.88110034924102L275.1567956265826,211.8445195780505L275.1415764565718,211.80365261463885L275.1106318484417,211.70591123077338L275.1043618898584,211.65639282253323L275.0746486597309,211.59551775350246L275.0457546794314,211.5593818619882L274.91833532842065,211.47632375055218L274.8801782836272,211.44010785914816L274.8117120388779,211.322644462447L274.8425491331727,211.2807212342277L274.87434742960977,211.2630534714035L274.9249474782155,211.25767199915936L274.980591304633,211.26445782551218L275.03673595982764,211.2877361260298L275.16505179465094,211.2515067444283L275.31226328806224,211.23144477254573L275.439530865744,211.16659593152326L275.5290971170107,211.07377891345095L275.58177887679267,210.99034098903303L275.59022821349936,210.96519732108027L275.59089645674976,210.84202789593655L275.59934586259624,210.81688423501328L275.6054644735159,210.7184941455671L275.6565576729445,210.58121408420539L275.68312657940623,210.54361923603392L275.7236412958555,210.51390454498232L275.8066743419913,210.50783631165177L275.8626378622612,210.52287060310846L275.98997041320763,210.60156752378407L276.0604218449698,210.63709562970416L276.0842720119763,210.66106509052042L276.12829520145897,210.73370411256565L276.23031615205036,210.7476847460921L276.3995217664087,210.83402173913964L276.4929152602417,210.8644161785087L276.5487838908666,210.87557137825752L276.62255290237954,210.86942472145165L276.7226997357393,210.81840856931376L276.749825858602,210.80458167822326L276.83867198057123,210.7035185003142L276.89444392294536,210.5750104660865L276.9116155452102,210.5373348126468L276.9504034870879,210.45426325427798L276.9828319863773,210.31779276935686L276.9949556981701,210.12004263093695L276.98418871669855,210.0709696651793L276.9651120831295,210.0465561994206L276.94507645622434,209.99788733501464L276.94425906599645,209.97314821930468L276.95270490856274,209.94848990715673L276.9800512089387,209.93951458930678L277.0122161152649,209.93834039350986L277.0494186098731,209.9498186539522L277.29234995731167,210.0591114669096L277.4778665625563,210.09952768843686L277.57098895770105,210.12992316522377L277.7348810295953,210.2162212528974L277.809284336945,210.23917958099446L277.97599237090617,210.26779569040355L278.00846897047813,210.27535422118217L278.1286187470505,210.28853028696267L278.23900131487244,210.28561818122762L278.34919736638403,210.27494580509756L278.458993659704,210.25117694541586L278.7160515264404,210.2282164693006L278.7893640957227,210.21431220086106L278.8804431059325,210.18310639531228L279.04361519865415,210.10064614752991L279.15268019747964,210.0569909220958L279.20687614320195,210.02255206643076L279.26520594373505,209.97166174239374L279.32630850582063,209.86745257803432L279.3411707539017,209.75604728352027L279.3820626254892,209.59492240980398L279.4383542824253,209.48242720219423L279.7080832628126,209.12982836352057L279.78417887812975,209.06212292993223L279.82892306594294,209.02032786045402L279.92332811556844,208.94793492301687L280.01310193941026,208.87550142150394L280.043770900189,208.82533849313495L280.05595055029335,208.77161778620393L280.0101706560381,208.6373704720927L279.9419077581333,208.51553321902156L279.8769156978451,208.3568696104594L279.82773928647293,208.11154158166391L279.7827767379604,208.0015487711271L279.7485758033945,207.94062976390978L279.6818024095155,207.86826999098503L279.59158935835876,207.7840652205432L279.55419873584833,207.7648230628365L279.45013186485085,207.6766171070658L279.36413920036284,207.58032670566354L279.2647905974409,207.49652737747965L279.1899700976501,207.46143813145773L279.0366046229101,207.41983883831654L278.7869196877946,207.38951725654078L278.75907153620574,207.38199847010492L278.7308183104469,207.3618677305949L278.70687451927006,207.334015846096L278.59335181391725,207.2379707026921L278.5038549111705,207.17462779896778L278.35239634360914,207.04672951180328L278.3282276607388,207.01451149339118L278.3031980634514,206.94931006919523L278.30197146884166,206.91244392337285L278.31928445886297,206.87477052533268L278.34622421417225,206.8536695287139L278.38302556541385,206.8525375934223L278.66137578842245,206.9155986074211L278.7918083429722,206.96135895238513L278.81061125337874,206.97364767353974L278.9779320299094,207.02264267175906L279.10845106913985,207.07276959267165L279.2382908180116,207.0981592114622L279.47820527678414,207.1128805082899L279.70103903645577,207.1686728960085L279.7749522238737,207.17514404075337L279.866448783363,207.156553707684L279.9753484777102,207.10465652135554L280.1589480700459,206.93994394512447L280.25318222614806,206.85930690827354L280.3883482075544,206.76157429536852L280.4975241187931,206.72180500168633L280.6989687780115,206.67994314215775L280.7544796046677,206.68722372799948L280.8464809124562,206.68464390330155L280.9012713017182,206.6710660478284L281.03685021148704,206.585463589352L281.21232042455085,206.45414649044505L281.27997740900173,206.41110227953777L281.3117815468722,206.3939267109963L281.47489023970047,206.3080856943261L281.729507075077,206.20317630564023L281.83832786564017,206.1469210387495L281.8931200170846,206.13334507487616L282.0023447989661,206.089702389374L282.2580503403551,206.02166256097553L282.35018501665763,206.0195735819825L282.4797976399932,206.04109587978746L282.5352221777903,206.0440146092178L282.7180483674456,205.99860614245063L282.9206781996545,205.99750486225548L282.97497598416885,205.96743865384178L283.0194214807925,205.91691721233383L283.0279677240396,205.89614126294055L283.0269718058553,205.86364160885478L283.03340095739986,205.77689536544676L283.0448942755356,205.6640077852726L283.0778879303434,205.56033420215044L283.09829475166043,205.49621182951068L283.11871416444046,205.41347012248752L283.1360304777154,205.37628473851692L283.2065200299912,205.27604791023896L283.3000474197288,205.17504737738363L283.3674400158343,205.11988235866556L283.4222353497389,205.10630932855292L283.468125129737,205.0970211472304L283.5422226851442,205.11174734636006L283.6727416163594,205.16189427147037L283.80258608539225,205.18730397454783L283.914204727429,205.22176467914142L284.1355555167829,205.2285986003062L284.2281876053821,205.2430078049074L284.6705730558642,205.24843520926333L284.83707784462604,205.2732090282616L284.9109950281527,205.27969308170304L285.0031325095115,205.27761242849647L285.07723389613966,205.29185751998466L285.29817629105673,205.28657301724888L285.4445240878267,205.2505517250711L285.58462330652037,205.16501141898516L285.66056993381426,205.08907666004143L285.6781038875306,205.0809909386162L285.75398444263556,205.04676025941444L285.7643414156264,205.0347303452245L285.8098328407941,205.00071052215117L285.9546198441785,204.86284137714392L286.0773604465285,204.77035766465815L286.16303030455674,204.6785092823793L286.2033497690354,204.62019661653267L286.30960626920205,204.40827099764738L286.37246849143776,204.32106638804362L286.3953227182719,204.3125443041672L286.4793569384492,204.35209938932985L286.5076487452243,204.38048162237556L286.577870991081,204.42427639276775L286.6341420692261,204.46067098618005L286.7089101224592,204.50014280590858L286.76068198656503,204.54862024561498L286.77618882419847,204.6224707565152L286.75052586976017,204.7216498651269L286.75230762212595,204.8041048754958L286.76229095702,204.8366859198204L286.824315215581,204.92987030818313L286.87648659908155,204.9909598526965L287.00360149384505,205.09976748147255L287.10139861024436,205.13896409746758L287.1569968176773,205.1506218776667L287.23149200087573,205.1779691205993L287.2686046377785,205.18557990583304L287.3239829344602,205.18074822934614L287.48869730815204,205.1119282802083L287.52545413943153,205.1030483898594L287.6362583911214,205.10114549076843L287.673457139681,205.11312197132702L287.7999480185281,205.19283119068587L287.9116406848989,205.23215678598353L287.9483057984871,205.2193971103352L287.9847071184413,205.19402679500672L288.05786543140493,205.159777298677L288.16804470375064,205.1292595854793L288.3898304678987,205.133704480706L288.4265875583733,205.12482571467808L288.5187701818177,205.11887692612981L288.62983776959663,205.1295884099918L288.7405558680148,205.12332443926425L288.8141562678247,205.10993301794588L288.92505189467556,205.1119152292049L289.0177200502294,205.12294509965614L289.1279005930737,205.0924309920365L289.18261672181325,205.06238020508226L289.2560402206218,205.04074440509612L289.3109787148205,205.01506029536085L289.35214669916604,205.0018586203032L289.3890815628474,205.00122655138603L289.4821043128686,205.02874884906214L289.6851776886797,205.02527329602617L289.75949293656595,205.04438130291874L289.814871883922,205.0395542954975L289.8511896682503,205.00982116175146L289.8822468611579,204.9519137547377L289.90911718533243,204.91433520418832L289.94882279598096,204.82741115349472L290.0156621939568,204.71551939932215L290.1010437229306,204.60282799267043L290.16431941034534,204.53988214994843L290.20018757685466,204.49026311442503L290.2132918187817,204.45304351760205L290.2127609421914,204.42830707792655L290.17753497526064,204.29317261554024L290.1756739775992,204.2068375253748L290.21048096077357,204.10774566223154L290.2553582741348,204.04511620569792L290.2557769485393,204.03251180058214L290.25651177489635,204.00439245446978L290.21865327147316,203.83771319759126L290.19911321563995,203.65422942272835L290.1622735823621,203.5171404800867L290.1702320618315,203.31257200640994L290.1538648553833,203.07868444964333L290.193926735421,202.84385985342033L290.29804934371714,202.54949175553884L290.4164152211197,202.42546606695396L290.51098546561843,202.28521951943367L290.4934646237234,202.01010218903048L290.36387714464945,201.762081687094L290.12527763856633,201.3714612725371L290.095017441854,201.301353472576L290.0398476126211,201.18155417301296L289.91597509812345,201.12174149613838L289.6613637165574,201.0888575781064L289.60587444324847,201.10241240176038L289.4823468142713,201.08333894967473L289.4431217258207,201.0340017902936L289.38048486098705,200.89958733967887L289.31452759643435,200.8165454358541L289.2347220914962,200.74065099990003L289.0820407932806,200.64954259841852L288.9590756468169,200.54609820786118L288.93773239796064,200.48237710382455L288.9567230250359,200.39574775713027L289.05707868653553,200.2502153574087L289.07766976901985,200.19027200251912L289.07598603800943,200.13545930020518L289.0011731009072,199.94565207975847L288.97574102348153,199.81109353759894L288.9947548303644,199.65172470245307L288.95748664638086,199.6096800090063L288.75617647532636,199.53898091633255L288.440888635123,199.47112291354642L288.0735570838806,199.43673942479927L287.97053566718387,199.44695475194567L287.93993115953344,199.42970350533506L287.8449845792238,199.41332149830396L287.8076550272963,199.38825026974064L287.7587562464141,199.3262189771649L287.7650804637269,199.23850375819984L287.8865351330387,199.11886082027831L287.8731497443441,199.08576360101597L287.848989111797,199.06517656247343L287.6214249692639,199.04855850019248L287.2355888711463,199.12943088750035L287.1139148751208,199.12590169143914L287.01593477244023,199.11240435997024L286.9854487029734,199.09660994622755L286.9651920302131,199.04453840047063L286.94897883137673,198.92509790711028L286.8932680790567,198.86252126159798L286.8493837698188,198.83836162494117L286.7635543256183,198.8467972420658L286.7200350684725,198.87404396959846L286.63442732160183,198.97025480683806L286.5965566704981,198.968456932972L286.52401590942463,198.93530941049994L286.49799030047507,198.91082708925933L286.4640451985142,198.85184285273408L286.4987888511205,198.71007213659686L286.623760327584,198.6758039867509L286.7247722295033,198.56760945280712L286.7601177614815,198.551927042251L286.85488355272173,198.4179749462237L286.92001975296444,198.24108037811038L287.1298865268109,197.94766087923108L287.334606541237,197.72305663805946L287.47966222868126,197.62593357475998L287.53882543191503,197.57797821037457L287.7606851310011,197.59405912741477L287.96257653617795,197.74622567881033L288.1228675385828,197.92420081987348L288.4609976290303,197.91613000310554L288.7333211039331,197.83472234275905L289.00006036403283,197.7295045546989L289.3432705495434,197.56534250035565L289.3960406479382,197.5401241779009L289.41423494019546,197.5344715660476L289.6140342462277,197.48974800203268L289.752386989403,197.43088443893976L289.8483193254433,197.37454211494423L289.8667119703168,197.36355736779024L290.0741106075875,197.20446303603785L290.1035420943299,197.18194141970707L290.1598481566798,197.12232689174562L290.3136132043037,196.91036954396623L290.35157223733404,196.85786084642405L290.36074240024755,196.8429122556854L290.4042425461994,196.77105733206918L290.54443158070717,196.601650437613L290.6496448123362,196.4978730443554L290.74534716721246,196.40322221330553L290.7700041903772,196.38114231028067L290.80007757782005,196.33874521710732L290.95593865909905,196.21700779606817L290.96847181197154,196.20596981977815L291.0432153419788,196.1203406968889L291.26993658233914,195.86056794858905L291.5951134369607,195.45816663822825L291.7535896417794,195.28844987062803L291.77995807549087,195.26008260173057L292.0060730348596,195.0769291851184L292.0922286729656,195.00692617126424L292.1373626318127,194.9709739237942L292.344263378669,194.7527306763477L292.4531562311058,194.65044903739272L292.4947576044942,194.60766998835243L292.5111101208968,194.59085461608174L292.6168011920381,194.4827248272568L292.83198156027356,194.16369690608735L293.0541312604073,193.84376557906853L293.20711162404405,193.56344270508725L293.3823653219806,193.31387817678296L293.5332934504404,193.1159758685717L293.6509047051586,193.05014966846102L294.04428931360235,192.80164942103147L294.572349679991,192.55586612594198L294.63321947967415,192.5273387178686L294.66913589168325,192.51070160849758L294.9551000258398,192.37807849784986L295.05743429123686,192.25586382709025L295.137166990331,192.09658373182356L295.1422890004869,191.8134346332081L295.1324976776523,191.40794468151307L295.24127784672237,191.34058779429415L295.571435573107,191.20789980410973L295.7669301997412,191.1292342983097L295.9058422321177,190.94723506100763L295.94998376409785,190.9156440601837L296.3648703455401,190.71005156298907L296.6034921485116,190.66283223430128L296.6234541562044,190.6581707130008L296.90949004089634,190.59103297828915L297.06153294691467,190.62398489469433L297.315628973156,190.7999825655961L297.4071113296086,190.85758140751932L297.5091459124851,190.92206902201724L297.8030351573725,190.98497378992852L297.93600271518153,191.02793337705043L297.96452739399683,191.03693155303517L298.23115976906047,191.0758216478307L298.288780215742,191.05745465094788L298.8183573671886,190.5896683610854L298.8982343425778,190.5346593417362L299.02602803028276,190.4747708802779L299.0948471765514,190.45505696861346L299.2328729423425,190.45151767514653L299.3320453044398,190.42481861999659L299.5246213925093,190.42034399396107L299.750135778424,190.44333957697108L299.9096356550399,190.43418858918358L300.0519966918109,190.41032758403526L300.21475906717023,190.4133323895394L300.29271339839397,190.42765294016044L300.63059172655267,190.40420361903125L300.7596524922228,190.420467762312L301.1230103684793,190.37593065793953L301.22074247330966,190.37831958302468L301.32687732266277,190.36236212475706L301.6718388087429,190.27207314610678L301.82400054249956,190.2497693309042L302.1130053708257,190.17543689302238L302.5303002480541,190.16974335697068L302.67627170854394,190.18569333502L302.8119385237187,190.1632361275124L303.0297904132094,190.14350984027988L303.16158784426807,190.1365345138911L303.3180619638915,190.1409506218979L303.58858557971325,190.1067032141591L303.8458619460289,190.07427015686062L303.93604306696216,190.08095948740902L304.1289716509127,190.12598021202848L304.28784019898376,190.19103970060678L304.4402349140437,190.28367792868085L304.6005005174957,190.33468984750743L304.7452052977642,190.42046631238463L304.9221611846806,190.4556390881762L305.1239586248812,190.47747586413425L305.34437781573433,190.53731842094658L305.42698492716227,190.5943705218051L305.5009629244596,190.62127402695296L305.7103192924005,190.78236029719028L305.9034707347273,190.98596352480217L306.0222152950737,191.0976794944836L306.1316596244469,191.20057690743852L306.3610383005944,191.38465356080815L306.4465564563543,191.43737244042768L306.64762615000654,191.46212178241421L307.032946614956,191.42708435939312L307.5666291147718,191.3130048240464L308.0395660019385,191.21628235613844L308.36540573348975,191.15158505149975L309.15112882027825,190.8455530067904L309.73721709440724,190.53224181430505L310.07090790722214,190.3638684591915L310.172614613668,190.32074374053082L310.6456327563792,190.55817287362242L310.86301095006274,190.75089351051884L311.2818654475086,190.9572473166154L311.9717920485964,191.2695824737184L312.1864913794125,191.33766211149668L312.3027331529556,191.37470032427336L312.5354239307235,191.37798224572907L312.5440305507691,191.37661304730955L312.5668452191712,191.37296050868736L312.8534073562805,191.24488311231744L313.13313769626984,191.15068469835933L313.37005266381675,191.13267896562502L313.5261260306834,191.1032005546549L313.67966848758806,191.01502283174432L314.15648957318626,190.8505492179238L314.19747156539233,190.8335019002161L314.47446677552216,190.74074383360494L314.63412521212376,190.70839774285923L314.86194328205966,190.6985565701316L314.9504608062671,190.6853810398743L315.2352724918637,190.7076335170559L315.313361672459,190.69968852913007L315.38194410971846,190.67807069721493L315.53820933938914,190.58023189681353L315.62620141117077,190.49043652503042L315.7081159936715,190.2352243172445L315.7480881554475,190.19052890129205L315.7957387533279,190.15318444815966L316.33180106678265,189.83610924468485L316.3997229299239,189.79169623213056L316.4216528465404,189.77203562652267L316.4323793409785,189.7648699581032L316.63386014262505,189.629184536112L316.8802140276821,189.75968624800134L317.05942307434816,189.93751859595613L317.22818139546507,190.05802654670333L317.3607552208632,190.10785723204935L317.7027217823161,190.22429947817636L317.8214748273531,190.27787168603936L318.2252756776652,190.32463314476536L318.5970423659928,190.40259441662056L318.7109530388443,190.45078693733103L318.8699456425493,190.47082775081253L319.14126014378417,190.63069602560972L319.4201567221098,190.84737867961576L319.70102048102126,190.79447218717087L319.9237678889076,190.79722603228856L320.1455333227932,190.8761028514973L320.41208001577616,190.95010426357112L320.6425686823204,191.0605930766351L320.86106819271663,191.19132741375415L321.1337078255965,191.2154514664844L321.26410709512857,191.1687794396912L321.29520274415336,191.15745981294185L321.3482148234543,191.14878914211477L321.49956139453934,191.15858244331775L321.5172706358353,191.15973366117487L321.7578725073472,191.22572264204882L321.9544936892198,191.24519572769987L322.1872879157163,191.24031092133282L322.25899049875807,191.25171514178146L322.5891026771242,191.25947079440994L322.6125159427065,191.27280408625847L322.74152567265264,191.2702512882106L322.8560009218163,191.28452141708658L323.092353028831,191.2471912526671L323.3218635601479,191.19088096013184L323.79852912350907,191.03238135210268L324.1147944351069,190.95224231889097L324.45073989666344,190.83739669986244L324.6559092611569,190.78714903716082L324.8211122211833,190.69672630258265L325.0812837437443,190.4967291386347L325.1826864774739,190.5099030030051L325.24906207379536,190.5532632953864L325.4072313719116,190.65625003348669L325.51773397556826,190.69279510305114L325.8069770659713,190.84369588209938L325.9796890211401,190.918711886462L326.1254599911481,190.93768410838402L326.1558708563425,190.95788164935584L326.1836676756393,190.9591405609408L326.31320377525844,190.89599515008376L326.3575844181105,190.8596038541873L326.46757598381373,190.76910083982602L326.5390845257971,190.63988968471585L326.66956471668163,190.5466913818509L326.7585543230198,190.49815784158L326.9091160214848,190.44347772310994L326.97042792157663,190.43635846404595L327.06046148029054,190.44311635803479L327.70967312223365,190.39558551373102L327.8610266268588,190.36370928074393L328.1494369117245,190.27798864104716L328.3273036577375,190.2003261042064L328.41217227188827,190.17503008849053L328.57611856420044,190.06764387357634L328.6908859803443,189.9161011647966L328.77717406753436,189.75310733164042L328.84920204397713,189.54486777095372L329.0521315204569,189.61342995644736L329.1840413965692,189.70112868261822L329.2296818455543,189.79616504076512L329.2602836236183,189.9865702432453L329.24008136798875,190.30639699877247L329.26126057916554,190.4055406330308L329.32470183123223,190.52549442335294L329.43887739463025,190.89037499731876L329.52714800045214,191.02950156993484L329.6710698259376,191.18715525607058L329.7853885102777,191.33576977866142L329.84834568895167,191.3892871830576L330.0541604611208,191.49570893518558L330.1698498750775,191.52068789192072L330.4550191334165,191.5343612988927L330.4830874812942,191.53562707821857L330.55508317627755,191.55529773523813L330.63333356643125,191.65795368249474L330.64159153666697,191.68277107201993L330.6960925241656,191.84869947305287L330.7312935906011,191.98969402679631L330.9653569515358,192.1647919082352L331.3272108981946,192.24426093496731L331.6132077009315,192.29723142605144L331.7021091804563,192.30641573917546L331.85805607152724,192.40941236773415L331.9734520004022,192.5473783516427L332.08375129348497,192.6789869596687L332.15737538816757,192.8310581691403L332.3679781324863,193.11744655245366L332.48355264008205,193.36355048398946L332.64553297962993,193.6154813876792L332.9556418614702,193.93202454311904L333.0110861077519,194.02620068120996L333.0364441220954,194.66509225836217L333.05601096693863,195.07553137456125L333.0598426225006,195.1555817323988L332.99610043639404,195.4560316191937L333.0298586639037,195.6624758121734L333.1580779424621,196.01103198199507L333.1571586601858,196.08957716359873L333.110017047351,196.31116359569478L332.9789681959228,196.54883043954396L332.9528756591717,196.62419882137237L332.98026674014545,196.82766599833212L333.12115371206164,196.95329924507678L333.30868145392014,197.06682146030016L333.50222522397235,197.24975056854328L333.63086032359206,197.38398409601086L333.70606593851335,197.50795112305332L333.77175524712584,197.7414060338342L333.78023102111183,197.8205361767541L333.9462540972563,197.95128987727276L334.1055864575974,198.06257685916898L334.11862341210144,198.06611017682098L334.13195905186876,198.06770705542567L334.2014719623985,198.08784444101184L334.41220762680314,198.10657899156922L334.53900034583785,198.08368673636596L334.7042336948143,198.03017149203788L334.8602753517698,197.95085892137922L334.9091310435615,197.9261658285095L335.09821927437224,197.79192838080235L335.2346699607224,197.67991965937927L335.4633096207908,197.54416818525533L335.548529013955,197.51162210674647L335.7826642914588,197.4433339920024L336.0666739903463,197.44637893848903L336.30464309639865,197.46735877986885L336.88679745689296,197.5565321826134L337.30465916802495,197.69922660065276L337.4222836375666,197.6893405308483L337.5237467919942,197.63515442733933L337.6194237705895,197.5455082558101L337.6975155318323,197.42609362756866L337.71704280250924,197.406348902814L337.72598584571824,197.3973062865598L337.9686479168304,197.1540769745452L338.4315959259511,196.72023758566502L338.64937290182206,196.5834243262425L338.87904724614054,196.49377718046526L339.10690698490725,196.33768039936785L339.4106106517138,196.25853719533916L339.500891014075,196.26676888311886L339.74550288546016,196.3567276229569L339.9876654132495,196.51169218105133L340.1127941134291,196.576281366476L340.2667663924658,196.62213194855576L340.45877827668664,196.65884279793136L340.5672162794799,196.64942444815097L340.696552881087,196.62329341056557L340.72312361210425,196.61767172921918L340.84155884785287,196.5518971749152L340.980718172108,196.44662155252172L341.06128794567485,196.3628311845523L341.1635783318161,196.3074155133727L341.2365609349763,196.2867452749888L341.3536203251315,196.279661059104L341.4093381472703,196.2873023215634L341.54610132181915,196.30570592396452L341.6729805757823,196.2640886420295L341.76276559037797,196.26602881550116L341.89004207300604,196.3034477100582L342.1938824272838,196.2492559211596L342.33728411350967,196.169640717314L342.4131060719701,196.1421540633537L342.4529638295935,196.14123983522586L342.5064221000648,196.15812070025004L342.5962388461485,196.21243285050969L342.682940102648,196.22313730596943L343.03096935908616,196.21066525145397L343.1937197610787,196.19048951749937L343.27356756832523,196.1682957410394L343.39815881954564,196.10343482112694L343.56179108950164,196.03767043023163L343.7285708950658,195.94762784174054L343.73994033697454,195.94168699855163L343.8142406036968,195.882216374398L343.98782001488144,195.8260457083552L344.0739696707569,195.81106007879862L344.1761171650687,195.81481465645356L344.23956143954274,195.79910294310503L344.2889390725577,195.78645144225902L344.3489744958024,195.69513105246733L344.3721319129654,195.67888119244435L344.4520836589945,195.65911393398983L344.60381836454326,195.65555053766366L344.64011506409224,195.63819049568792L344.6667755897797,195.60881090486782L344.7386374529051,195.4897250773065L344.79866519680945,195.46823218561258L344.8925108041258,195.47789683966403L345.0109280161523,195.56585413117773L345.1367378959476,195.5552968612401L345.3288213940068,195.48099469890803L345.40088227791057,195.4874991702627L345.5384501857916,195.54519000881464L345.71785446220383,195.55152018441277L345.8485518273228,195.53945909243248L346.0360859780012,195.47636279586277L346.11760113004857,195.50167970919483L346.2105704407004,195.47159546720377L346.24604730073406,195.4033307906484L346.38727470309095,195.36836930879872L346.4131953418946,195.34966706068008L346.45797858419974,195.2080825767789L346.4645299533877,195.14788435582432L346.4651948088722,195.141573485992L346.5141501681901,195.07704500490308L346.5813321386013,195.03996252245906L346.7539249913498,195.03618822560475L346.8870022435367,195.11478407552113L347.0985416247422,195.07762437495876L347.2766149032177,195.2842450236849L347.3030758721943,195.29560209869305L347.43176768080593,195.3116938673029L347.47686230557156,195.34031021015926L347.50346665075995,195.39288314557052L347.530560897565,195.44642073316572L347.68459755546064,195.62468927019472L347.8411952541901,195.73989346423423L347.932945810222,195.85287551353395L348.0250236546635,195.883419941807L348.0801406012906,195.8818668561762L348.12097956344223,195.8625233093153L348.17149484687616,195.8838097888165L348.30423877686553,196.11661684566025L348.4335498984692,196.07742694150693L348.49666199047715,196.08257886478987L348.5235622121436,196.116723156817L348.59469005391657,196.31381459368913L348.672590898841,196.35469396967073L348.77928653367417,196.33174644013434L348.87162069227634,196.29488849172412L349.03686907425435,196.3440603531808L349.08122962365087,196.37414173346588L349.19508034095634,196.41755282309168L349.20979248494405,196.4270959026162L349.3521790374143,196.52015246746487L349.4921026083248,196.55116725227617L349.56745691238393,196.59547023948835L349.5810389084909,196.6583654872984L349.59053116085124,196.82361978088466L349.6496965318147,196.85500091144695L349.6873732528802,196.85411938597463L349.7561910719669,196.8170268323911L349.8547112653032,196.76361990187524L349.97659415071394,196.76039822553594L350.0189968094128,196.81765662468024L350.00914161748733,196.9632332823985L350.03420332938185,197.01824951971048L350.07779342506547,197.0367027291777L350.13765592601703,197.02831490301196L350.21471182757887,197.00083501980498L350.2574814161926,197.01396310506425L350.2878055341971,197.0393447571587L350.29775280738977,197.08530673494442L350.27201704191975,197.1539494634426L350.2816283830434,197.18488274838273L350.319070155645,197.22279733617324L350.4120176642391,197.23733825122235L350.4664995907042,197.26004187132094L350.5822623248205,197.35047474422663L350.61054903958575,197.3661799248839L350.64089926567976,197.3833182121034L350.7193266146569,197.3873444493811L350.82685438189947,197.3605163248494L350.9077372060492,197.42125186646444L350.94528261289815,197.52365933915826L350.9656561116717,197.62624686972867L350.9952096206034,197.675882919355L351.0545536934478,197.7004763519153L351.13774091509913,197.69863491586148L351.1768740952939,197.7151968543394L351.1963235065632,197.80470166935174L351.2287278271906,197.8586723165654L351.29578088311973,197.90452160775476L351.4049204150142,197.97902518072078L351.4817152452233,198.07617354523245L351.5143878126364,198.19172547458857L351.542012280177,198.23992758724762L351.560296020878,198.26204223055538L351.5803834041035,198.28656257592047L351.6275284260955,198.3112848360397L351.6305761655858,198.32531539155025L351.672735080705,198.51932399476118L351.7113854669442,198.85011446709268L351.7420755019775,198.91380194017438L351.8542440814963,199.016885508403L352.02441791322417,199.21392144931815L352.15072586646784,199.4953061982842L352.29954148549587,199.67511008351266L352.3932823477844,199.82300013468557L352.5676593109565,200.00884274173768L352.594904618225,200.06480856049257L352.62618028605357,200.20947140124554L352.70701184141944,200.38125788733214L352.7794456166848,200.44839097140084L352.95550219263896,200.56051188223955L353.0680480807787,200.6155901915572L353.27225685587473,200.68717228619698L353.55820486143057,200.74093436876865L353.64626171567943,200.78899571982856L353.67775273496227,200.81048969998574L353.8193285339621,200.90745689278083L353.98390090768225,200.94987583917919L354.0120020911345,200.9675260570175L354.0322034027158,201.03229488545912L354.05336768863344,201.42000627852758L354.04336863788194,201.63444190565042L354.0381456888499,201.74020730572465L354.03821739396517,201.75087466671994L354.0385324174131,201.78530028304158L354.0021190387015,201.89235910597472L353.87461683169386,202.05224904426632L353.8105691486235,202.21342035744692L353.8014522220401,202.33910769939575L353.73716256570697,202.71024941789528L353.7206716307992,202.91262978823306L353.6961122241737,202.99338053676092L353.6753984944735,203.01929608092996L353.62312610784284,203.0339014684905L353.5486690736798,203.02982576866634L353.4540308805699,202.9988047963452L353.2735931566276,202.8731481643672L353.17360570939854,202.7825393556177L353.0143265033803,202.57180444726055L352.913661593102,202.49720578794313L352.829741996502,202.46801496094486L352.758057028881,202.4779749170948L352.6921053736478,202.49902831843065L352.6160282741548,202.5531614828369L352.5311546000594,202.63260201655066L352.43084434303455,202.67292576156888L352.3790744446669,202.67395052620031L352.3228974382946,202.65077569112054L352.28313453326336,202.61676163932225L352.22983999718053,202.60034570075732L352.1564651481822,202.59577733214428L352.03932813254505,202.63627799933147L351.8776683282558,202.66415150554894L351.6173163375679,202.61741109249124L351.425101161607,202.62233069947888L351.2549551218581,202.59065210866174L351.0490816740712,202.51085744053853L350.9056480773397,202.46920287530156L350.7585101408404,202.49256609039548L350.69880218021717,202.56301945888572L350.66839823320333,202.5875838841439Z" fill="red"></path>
  <text x="300" y="208" font-size= "3.5" font-weight="500">
    
  </text>
    </g>
</svg>