<svg  viewBox="240 20 180 180"  version="1.1" xmlns="http://www.w3.org/2000/svg" xmlns:xlink="http://www.w3.org/1999/xlink">
  <g>
<path id="path-03011" d="M404.39023903845737,108.12531296194902L404.4352649671164,108.16274120900835L404.41481892569936,108.43931946251814L404.3333884533313,108.8114750099403L404.3193460007242,108.99974350192315L404.2122378006061,109.38182285437688L404.08356801225455,109.61570915025732L403.9467575589515,109.71486228049798L403.8400023559225,109.76089669222074L403.15537135713384,109.85565813291305L403.0290771923319,109.8916844449277L403.0045434739659,109.95493902125418L403.01772218686165,110.11726786337385L403.12144614434146,110.4354250514607L403.10709461850274,110.57084154469521L403.033197206194,110.66702004434046L402.7273968177142,110.89132049834916L402.4363910659122,111.03160384972125L401.6651261057632,111.31385479719302L400.1602818929314,112.05361782963155L400.0144058507467,112.5204310734789L399.9158127059236,112.74727796519619L399.8267038522281,112.86348114036537L399.8037385096068,112.85301796172098L399.7520542889106,112.8675414049485L399.40510494850605,112.72225643641741L399.0309300962108,112.60728360878875L398.69816263809844,112.63256835769243L398.2897309372929,112.6987830279777L397.65359638572045,112.5745413903951L397.2156071289828,112.42525247404865L396.78707350170953,112.4504518707181L396.3627124941413,112.59442226489955L395.61851496933014,112.5613945620762L394.6917927168179,112.77443832499739L394.29233397431744,112.78728680217773L393.99142343231506,112.71001913022519L393.57293446508265,112.66874134323643L393.1415728191496,112.80263857039427L393.1308059281873,112.80613139592788L392.865087490718,113.02531625560005L392.64926169888713,113.11166676205994L392.3677263849677,113.37561229176208L392.18681537989687,113.45243265612135L392.03909631972783,113.47803412261783L391.35423456772696,113.41644440058008L391.14996287959,113.3615917353809L391.00205117428777,113.3648945034347L390.7834315440414,113.50947292619458L389.9905862615051,113.60068681113262L389.50157401725664,113.69152861839666L389.4474641849192,113.68524154654915L388.84203777852235,113.86833583932912L388.34327495949765,113.85697239294223L388.1629931670104,113.7316060748908L387.98249954178027,113.06993872593648L387.93951982314684,113.02184896727613L387.80430961728416,112.96589114002109L387.16344811054296,112.90204962459666L387.02801998076393,112.92562167452525L386.3354160795643,113.2603880245706L385.8287403625327,113.60069663069498L385.73949676840857,113.66505745490667L385.68903616622265,113.80372911833729L385.59705154742915,113.89042166924264L385.5783451987372,114.09328713757805L385.68372790390276,114.35462928382003L385.76233167561804,114.68750432399793L385.7449770020503,115.392232516695L385.7096031455512,115.4425099732789L385.54510138529804,115.50418419487323L385.0366820894269,115.54582127988397L384.45349476776755,115.49507130370239L384.0154856851259,115.24948381948252L383.73849751409944,115.11972529839477L383.6218537476052,115.08882581078524L383.4088885741767,115.15824429407076L383.28969790615884,115.25635434377546L382.87913044543893,115.71508732957409L382.81341988712666,115.8408159841947L382.6169362862893,116.08464843315505L382.4959168811547,116.16095832589872L382.13860242886585,116.26521633285483L381.6936461696896,116.33831031421778L381.48954275912547,116.39262590422186L380.80204699654496,116.69352705895926L380.4317625729782,116.7984143665708L380.11134848764414,116.7752991216521L379.97276835120283,116.7790522532141L379.91180355806137,116.79903300919977L379.68311591835663,116.77164844903746L379.4526322829479,116.82671612920421L379.3256513099441,116.81144972068796L379.0551342477702,116.61863602401354L378.964461218573,116.48567591046776L378.8984636002315,116.44654930401975L378.0090953953768,116.33389925996562L377.3164842115293,116.5156447923282L376.883798497267,116.71670580529735L376.6770007927262,116.78417285091382L376.3603969343967,116.94774792475073L375.5957134588607,117.22139440254796L375.29470988487446,117.27427173005435L374.7866004946882,117.18176457320988L374.5858755654481,117.18130094963453L374.365320830595,117.23049228685068L374.0083898099401,117.25677539256867L373.30431048616447,117.49545941511224L373.08865399200295,117.66244236206694L372.7041680519578,117.6720403419622L372.5037361267605,117.74917159605047L372.32984066631616,117.85368201092842L372.24559563652656,118.02325624051264L372.04577450678335,118.61195172491534L371.94592177072263,118.7744071547504L371.81244621863516,118.900342325579L371.534242000831,119.00734107332846L370.9583550543175,119.11292194472026L370.5273306954077,119.13367596048829L370.33584834109206,119.22479490557362L369.8700532361145,119.6052119472879L369.4745745272521,119.96457115748126L369.3291715741834,120.14058016418039L369.26925152854164,120.31719389869795L368.9903583010382,120.66424690718031L368.9854261567889,120.90092576180177L369.062898395041,121.24103702977118L368.9241969527611,121.43783176457327L368.668522823642,121.68961651887639L368.5918906818915,121.83633455580912L368.44841392408125,122.25962599718605L368.40200534338874,122.32555009493353L368.30052547868036,122.40511606008658L368.15070715530965,122.43085652089667L367.71233405171733,122.39014167341702L367.4531799512006,122.47419706643541L367.3478770475558,122.53780289830956L367.24308770815696,122.5558236666293L366.8990455472631,122.49720485886883L366.5431685742842,122.29905882790626L366.32341960262056,122.21883360843367L366.0513471132399,122.07852425573401L365.8521285027964,122.01070348216763L365.5220218219656,121.99463164651115L365.2283523786391,121.93019138766795L364.9445369581081,121.81328594529532L364.6100463597468,121.5150598138789L364.50171410942494,121.17284935555745L364.5076421127269,120.88427706752645L364.46503398612185,120.58067898492482L364.4711659191307,120.28143706619358L364.54083246825394,119.98300744546395L364.7462508729841,119.59010633637354L364.75735526113203,119.51774487595412L364.5056631696825,119.0780654924256L364.3640153763372,118.90057239523867L364.3210497527034,118.34677345403998L364.2567810330438,118.11419003789615L364.1932396879929,117.99651924475893L363.853273354518,117.76139566590427L363.6893331396859,117.71747791191046L363.3888851325646,117.7151927550376L362.95381719410943,117.51983701283007L362.7475837790007,117.22566514419213L362.48333223827285,116.91414468106996L361.74360331043863,116.358242886261L361.6224621414294,116.3143850050592L361.523055612608,116.31685515944355L361.3446124948787,116.37880542693892L361.14143861271805,116.39542993932082L360.9283650292382,116.51301459791102L360.7052784599182,116.71216507197641L360.5729270992124,116.76831395116733L360.388409761621,116.77311497465416L360.0938534117631,116.83529387563703L359.49318518418295,117.07954728188179L359.0402538898925,117.29319711128664L358.713485814209,117.21898229269846L358.27272230003655,117.33263084905866L357.9494933867827,117.36118470205747L357.61849734997304,117.0959792269914L357.1679449353833,116.81989438185883L356.9608338904254,116.64651178655095L356.8684062039938,116.54031005155048L356.77986170682925,116.51068081876383L356.5728495028852,116.53658949384044L356.2199029094336,116.65081164313506L355.97706033985014,116.42398509861687L355.7270799307771,116.13371466092212L355.53217205826513,115.98445996879218L355.2957120742212,115.72944947999986L355.08031022623254,115.59786769710809L354.868384971629,115.55304617060665L354.6369650349079,115.60055860409557L354.43892970919114,115.56141367059627L353.6442892109262,115.31032068161676L353.0296223785663,114.95553190509236L352.3619332557246,114.44275708898203L351.9774555240547,114.25188424348471L351.6203366107511,114.16837239381402L351.47900966301313,114.17180412731432L351.11870760512465,114.23816162877483L350.88270908856066,114.22029261018452L350.66695689930566,114.16196565211885L350.2577398909307,114.14108745804424L350.0997016823312,114.10736687818371L349.76551616580764,114.20304180840685L349.5370814928938,114.21856033075164L349.34410019159986,114.26619086161008L348.8403661086086,114.26573291243585L348.4705757229822,114.3327085568526L348.0537869870859,114.29303127306412L347.7585545943075,114.30006405044242L347.4676096198018,114.35069342194402L347.36744115401234,114.37794878770546L346.9857222025312,114.34712420567485L346.9063707734931,114.58168805772493L346.9121535206905,114.77994328375917L346.8440359370434,115.15597283253192L346.6817838506213,115.43458046290016L346.4456588706489,115.75713610744606L345.66895157157705,116.51123031642874L345.54561003276467,116.53340715139711L345.4192889475671,116.51779570775307L345.11633951567273,116.54336283825342L344.91543912245106,116.59983493917116L344.701669497088,116.73499818377513L344.58699238682675,116.76047968866806L344.5434944737026,116.77016191916664L344.4689879379184,116.81751491090654L344.4099290991435,116.91900810288098L344.347213929992,116.9783561272452L344.0730436353588,117.06714258693592L343.8404754132316,117.0730515510877L343.5534502119044,117.15179930761224L343.03653833520366,117.17776534217683L342.7977600334598,117.219146209889L342.5869909089888,117.30289438430191L342.34562333102076,117.34479186711269L342.0561840510527,117.46091610205167L341.4819036197259,117.48171471726255L340.6057668142421,117.64449699005036L340.5234009226042,117.69630950182272L340.2375363162646,118.01412242353945L340.02276737831926,118.32000747432267L339.89263553803175,118.57017567486128L339.52643998239,119.12792075906873L339.4090683389586,119.23830557901147L339.3000894774268,119.37724665153655L339.2002867822739,119.4537370158123L339.1018551730449,119.57921562256251L339.0489110726958,119.6790077008709L338.8689884389969,119.87245050773527L338.83251149455464,119.88950816862689L338.7058518639242,119.99964894992627L338.4325530503702,120.16201371463467L338.10570518500026,120.39943959576976L337.99644708278356,120.46807329158855L337.8223365388585,120.52921364644408L337.80769726658036,120.67791300192403L337.8328715356838,120.92402166666852L337.83622605026176,121.04721803933626L337.95325846534615,121.61192342995218L338.00223037973046,121.7094325740909L338.05379725473904,121.90588587917773L338.1528310962567,122.15037434782244L338.27976716715784,122.39419720052047L338.4582691056239,122.83398965089054L338.80456769570446,123.42932018635565L338.8075013845337,123.43468588024734L338.84059537519715,123.63142390489247L338.89078724413775,123.77840567140447L338.89809945998786,124.04953433161972L338.8724556315901,124.12392639900918L338.774819870785,124.28238771540691L338.73193572266246,124.40701967299992L338.6440599244561,124.58158902899322L338.49819309700615,125.00427147404025L338.2775848838719,125.40432145240811L338.0635544406905,125.70504397794411L337.8914652926287,125.84039427255084L337.5846933624198,126.13526362818175L337.5140632835755,126.26008130772425L337.48903531541146,126.35969549197853L337.5015575810139,126.48250694103717L337.52200761061977,126.55594638663933L337.58959192350085,126.66141516372682L337.6292538687776,126.7593075169143L337.6365816271609,127.03043692347273L337.6571675168452,127.10387793919017L337.6617540996922,127.27654627323318L337.63002957709614,127.4750039145083L337.5874611783147,127.60739968916278L337.45110054374527,127.70095632809898L337.0821032889944,127.74204726019707L336.67281983059365,127.6610006427345L336.2286240380672,127.66298219464352L335.82071336707304,127.63093549590303L335.0078176739771,127.68229312714811L334.7105092440979,127.63981618658818L334.56253813125295,127.64355777533638L334.1949178833347,127.73415813483098L334.0486570426983,127.80289538329725L333.6665719023367,128.04220711770722L333.4315442019142,128.24479387755218L333.0051204662668,128.5587968505115L332.62568410914537,128.8965832063559L332.4257534972385,129.03263938030068L332.00911830047335,129.36276354048096L331.6379219516821,129.65943599618913L330.9683438864158,130.2176882487911L330.6959792826383,130.40486985377083L330.4769923439526,130.51649318448108L330.45381594388164,130.52206582974304L330.3667206101236,130.5439312411545L329.4790360725019,130.56410306785256L328.85451366058624,130.73497086628322L328.56047207215306,130.80751001804583L328.44974784966325,130.81797943578385L328.27605818146185,130.896155000406L328.1488838017831,130.98161012684614L328.031342928738,131.0826837711229L327.99567999431747,131.1327367711665L327.9285188800641,131.38126317122624L327.9153476897154,131.57895974229177L327.86400563598363,131.72825041669057L327.74848430556085,131.90353487229186L327.6107704392489,132.2769067346644L327.54808671965293,132.3853480279513L327.5049899878577,132.46005301857895L327.38880225978573,132.59363151030539L326.815190714613,132.5905187808985L326.5577695164611,132.64552193956752L326.23934631257,132.81674755551194L326.10347705303866,132.9098793352996L325.957080880009,132.96217075705772L325.84666169289267,132.9813815187381L325.697965686988,132.9599466312029L325.55003432076774,132.96324996815292L325.4676709670639,132.99002860926066L325.40409769118196,133.03252020564923L325.23362417144017,133.19996828241528L325.18071784070344,133.28330265496515L325.10875517837485,133.35043692285763L325.0018782440966,133.48412249597914L324.41777406283654,134.038089563609L324.12907467068726,134.56895427605286L323.93133448808294,134.75358332250562L323.94280297854857,134.82692138362563L324.11281086413874,135.2413324100844L324.29880317232164,135.57299380190398L324.36948131703684,135.76768635828194L324.37394861234134,135.915625371621L324.350670981672,136.0637606958071L324.34675611081184,136.235857237677L324.23694213731505,136.58286904455326L324.19366784778686,136.6827922032253L324.0607937078348,136.8826422701104L323.8990696184119,137.04243207956006L323.6905430678562,137.18670538998504L323.25209315342,137.37805601021773L322.8105720743988,137.4709479075127L322.6625262219386,137.4747502221926L322.4771095214164,137.46265034222324L322.36534240199035,137.44064481506575L322.1757612451729,137.29806696548167L321.8750186819816,137.1494943691796L321.75177477408215,137.05415351709962L321.5646437666801,136.9848239324274L321.49836454922115,136.9744430370156L321.3783449257462,136.95623530747616L321.15641292206783,136.97722534566674L321.0462168648155,137.01245860051404L320.6176906544133,137.25098587153116L320.52702797732854,137.3184249529786L320.2177053795349,137.81663262448274L320.1462687080784,137.9085150634255L319.9299223115049,138.10995346903837L319.82051082069665,138.16944439877807L319.70273991316935,138.26230802364262L319.4956978039627,138.4633602357817L319.44238511400545,138.53845862927028L319.3364021347261,138.71290717466763L319.2783062479393,138.93536576088172L319.26034318811435,139.2556992436812L319.23478066258394,139.33011208260632L319.2129533761181,139.52724221109747L319.2168250549512,139.64996087462532L319.2383689622984,139.74813044209714L319.2242888384062,139.89588026831552L319.18104891054463,139.9953271727627L319.0819050218706,140.3909603416405L318.9959276221416,140.61458971949833L318.966494965498,140.8611021960387L319.04958855064615,141.15434452783938L319.12982347590514,141.34136518554806L319.2693346872111,141.66670304229774L319.28081558160557,141.7400400357692L319.255256090928,141.81445307507784L319.1475741852628,141.93166771881442L319.0011429734477,141.99223879304282L318.8898988207802,141.99449711990474L318.7787912799977,141.9967572610276L318.6333065413164,142.08982806754375L318.53663627660353,142.2643754557339L318.36387994261895,142.37462595424222L318.216847084921,142.41870836692488L317.84574782113486,142.41008158952263L317.7705985773355,142.3787684886729L317.71356393743554,142.33066830912958L317.5627878797568,142.2520364179527L317.3934319737964,142.17321652296687L317.25646903097004,142.2416510003559L317.074726250652,142.36054614555815L316.82854888482325,142.49673037450975L316.65704742512753,142.64822035056295L316.6218738891621,142.70605194176187L316.58084436764693,142.8792304524568L316.5900593426777,143.18238632975954L316.5212883493914,143.35625379260182L316.47668453454025,143.4144750137557L316.3969030656881,143.5310131052256L316.33509861317725,143.63076187166644L316.21909335482997,143.7808769293879L315.9012007945421,143.9924734937449L315.46200941515417,144.18199864471444L314.99697801257935,144.448369498572L314.5942294085653,144.63100167988796L314.1561801549542,144.87195801749385L313.8656269194289,145.08482198251113L313.54116829120903,145.3967540513404L313.35887844648823,145.50839442034703L313.17548137109407,145.57832325343225L313.0647212476688,145.59758044313276L312.91489617766274,145.55195518341407L312.7658492687515,145.53106849634332L312.57868954889636,145.4777981179168L312.54319567141283,145.4866566438177L312.50510044625116,145.4959741301045L312.32217342510194,145.5828846320146L312.1945590027208,145.66016523558483L312.150438361492,145.73536990653247L312.10079699095513,145.93368502476005L312.029885976659,146.04256592222555L311.89502084811465,146.18572250228135L311.7872533653499,146.30344985538704L311.4702550049369,146.5582617520613L311.3607617922862,146.61827004260795L310.9197896691294,146.76081188637818L310.5897441619054,146.8923383734973L310.197621371728,147.11587022647018L309.95090277066265,147.2370771380074L309.72358889378665,147.39048188627658L309.6790037413921,147.44919925148497L309.5699950970193,147.5257060099202L309.313990529452,147.6473115584704L308.7256178808748,147.82625394545812L308.5408159314866,147.84722315508498L308.318370072524,147.85279081634235L308.20762407275834,147.8720667735488L308.02190237176546,147.8682999909406L307.72683295049865,147.92504292178455L307.46705610787467,147.92297667369257L306.9078028915501,147.83796755253206L306.7226948962889,147.85070177307716L306.5015125112768,147.8975125907118L306.3551779346817,147.96687770688095L306.07259052454174,148.12995403275454L305.9450100187205,148.20726298482896L305.7293830406561,148.4345195278347L305.6577229267896,148.5186792554996L305.46324719971744,148.83633707883837L305.32024573910894,149.01241980112263L305.10654900366717,149.3056476445836L305.0619790791243,149.36437258571732L304.94829377130736,149.58923349476026L304.78925518102915,149.8480823959835L304.7063229898231,150.1711949836581L304.64767763783675,150.2971861283395L304.6301435952628,150.3678123916452L304.6093760725271,150.47913957961464L304.5575205598143,150.6527179916593L304.504465324957,150.7685807310254L304.3704512166041,150.9927620233584L304.35290238470407,151.04253728699496L304.3268904046781,151.12520422846137L304.3065570962317,151.25690213133748L304.23385841769414,151.53744393967827L304.164082203868,151.73606469747938L304.10187640977165,151.85232449906925L304.0658939090972,151.90192122682947L303.96670599294157,152.0270360484701L303.88549834881997,152.12274598764088L303.86344522452055,152.17247797687833L303.8338241321253,152.30457129818024L303.78989035090854,152.41228053517898L303.71332758752396,152.50803601702955L303.6271363092819,152.58721156740376L303.5878856114905,152.6139865507712L303.4719330294174,152.6923896019398L303.42640099066557,152.73025696342393L303.3575252612354,152.75626077209017L303.27537397274864,152.80686679361406L303.05473725419506,152.88038025490187L302.9996598150501,152.906033326969L302.88920862763916,152.93697069485552L302.8064891196336,152.96720634486064L302.73779282091346,153.00097193553393L302.6688354848011,153.0226124115561L302.4199545124393,153.07209760822025L302.29574913815304,153.11114813355834L302.226441905048,153.11678423687954L302.15639786054817,153.09331876270699L302.01554798627694,152.99692006931855L301.95393250304187,152.93183387069894L301.86905539523286,152.85925031347506L301.6766448836788,152.735202129551L301.6204440031943,152.70750679825687L301.4948211039591,152.67235566318595L301.4254653834578,152.68187243877946L301.31424097227136,152.67547013755848L301.1605763160187,152.63277747389202L300.9935313657188,152.62341612083583L300.8968425345811,152.6457645747223L300.78101124778186,152.6475635919096L300.72550046630204,152.65285051860337L300.6702156454885,152.6620190061294L300.63323468251474,152.67087802858805L300.5363734166858,152.68498252987683L300.384127513742,152.716498920885L300.23262711432835,152.7766330246177L300.14982656385473,152.80251120115008L300.08055525050804,152.81639617081237L299.9150385479552,152.87251864270183L299.8457368147974,152.87767546804662L299.7488238961232,152.89614629999778L299.61008408406633,152.9064595978789L299.5544008150282,152.90350359711374L299.1107914657223,152.9521289729455L299.0417473270136,152.96989786871836L298.9447515016691,152.98400636367933L298.91697321079846,152.98859098606408L298.78296070742726,153.00331741436457L298.5896329469688,153.05578838117435L298.5617650568165,153.0564931889503L298.21212285929505,153.161305948066L298.07451181471697,153.22546256158148L297.9090922643445,153.28547670178614L297.66673196713236,153.42962218741923L297.571009076426,153.49708778063723L297.45723256263227,153.5895981925305L297.38845542033596,153.61949639816248L297.291811257488,153.6501008011719L297.23639335021653,153.65927455150904L297.14930463722703,153.70160778610807L297.062785288781,153.7647979533158L297.0400891483223,153.7897988103805L296.91225498205677,153.8705405572373L296.8571920195682,153.89572054317523L296.7658892792424,153.9593513321215L296.73833909433233,153.96781950969944L296.66973824962406,154.00596464531827L296.58693985054197,154.03233796483892L296.50331342192294,154.02524464622093L296.2813441416838,154.04157712310462L296.15584161179504,154.0190575409797L296.01605634295265,153.9804017418346L295.91880140165813,153.98239503108016L295.6245538896692,154.08194193160216L295.54167236219655,154.1039532049208L295.4168220546053,154.11829638668678L295.21728282136246,154.09750936663386L295.0633418144862,154.0548457386658L294.96977054006857,154.01129477136965L294.89521510168197,153.9878040397507L294.82481558605286,153.9478653826136L294.7922158022593,153.9446500633121L294.74184385583794,153.96599874002277L294.66474569503407,154.04140735544388L294.63255574015784,154.0726250118505L294.5788111332804,154.12497691222688L294.4656857919217,154.22138466599608L294.3844855377574,154.3088785091868L294.2905920519588,154.44183576328396L294.2018676520602,154.59957241287339L294.0311559705988,154.80794336065264L293.9586335904896,154.86642474362543L293.84498849713054,154.93809951541607L293.70882805528527,155.04302355033087L293.5867769595534,155.15583866169345L293.5554193942735,155.19773350526702L293.5467975760548,155.22238370190098L293.45680143744175,155.32677024252553L293.4128880877797,155.42576813108644L293.3994430292805,155.44261471248956L293.30459169024107,155.53046931576318L293.2319827465326,155.58507247098805L293.18245448831294,155.63940610850568L293.1560124928619,155.6929852442354L293.13004573460785,155.77566380674307L293.05924558727565,155.90835579406394L292.94692851526634,156.04163100273308L292.93330851160863,156.05023261215047L292.84734851661415,156.12556382276034L292.7792538294925,156.1797253051427L292.7434785458354,156.22594422327347L292.7134505225222,156.3289519163236L292.7152135195138,156.41091921950374L292.6983184071687,156.47719553240495L292.6893857474497,156.4935995574724L292.650465840783,156.60961733999648L292.5864281574504,156.84081168042303L292.58748853512225,156.88979813661172L292.63125617652986,156.98767361549835L292.6366011798491,157.0206976890995L292.63266226510314,157.05363537945505L292.5973366979233,157.11974031326827L292.55678482907024,157.16591509079717L292.4931543192288,157.2123602122856L292.39282621813254,157.26767772690255L292.3381734358736,157.30547815364662L292.29280462463794,157.34336495926345L292.2248850432843,157.40625801176793L292.1888003689455,157.44423124339573L292.15342526209133,157.5147005627623L292.1132268646579,157.57736646569538L292.0236379214439,157.70649246165522L291.98308822567924,157.75266811529946L291.92397145189534,157.79867152392853L291.814005783981,157.83789940786482L291.7864166013205,157.8386133353879L291.70272260471756,157.81504605574173L291.6329142757895,157.7833641291163L291.50725620898083,157.74049663089318L291.47949643257016,157.73248074546336L291.40017069671376,157.69731675735238L291.3301397904761,157.66126920993247L291.0911253578888,157.49273014747996L291.0210933416565,157.4566833008348L290.97931067465834,157.4451437466014L290.9232438655199,157.41746988484465L290.77017478980997,157.3830805311245L290.71433515900935,157.3592884993468L290.68607951666127,157.33526647378585L290.6489440459918,157.32328539393257L290.57996406256643,157.33719582735284L290.4245470521091,157.409953428677L290.36994305893313,157.4438786881583L290.3147640724128,157.45694727186947L290.24552257777395,157.45824821813767L290.18941476798136,157.4223317423166L289.91855680823573,157.27872404417758L289.8349895783249,157.2556480553112L289.73713711318123,157.21643847636642L289.59776846491513,157.17781699782608L289.4855039956674,157.10986544013576L289.2878151007353,156.93202235489116L289.09109393707695,156.7997717633425L288.97453819607836,156.7482698983058L288.8909680404722,156.72519649275364L288.7798533923233,156.71059913096815L288.72387345970856,156.68680949684585L288.6859358387883,156.637969668589L288.6701003600865,156.54375023127432L288.64077855501455,156.47025862827377L288.59846126690536,156.4339866275186L288.5377469447267,156.40627457321898L288.46828432402253,156.39109035064484L288.32980047905585,156.39321598456354L288.3018099056171,156.38132156328265L288.2594004453931,156.34116984002412L288.22667616413673,156.325352790147L288.1713632538376,156.3263011369727L288.1438186925516,156.33477753308762L288.08930112803864,156.37307206180958L288.0342065615805,156.39050990672513L288.0067071438207,156.39510749615692L287.964875910875,156.38745103788278L287.9425917590779,156.42507087796184L287.8750806044518,156.50058573180831L287.81998648718945,156.51802399242933L287.74601406560396,156.51492320867874L287.71806828807894,156.49915039298594L287.64748961665464,156.43886042170197L287.5855818664131,156.34906975458125L287.53701686689965,156.2390344683954L287.4970721514328,156.10386218791518L287.46788825502153,156.02988801006268L287.4572635383265,155.96869120505744L287.4279428262562,155.89471581695489L287.37102471237085,155.8219432961987L287.3382130668215,155.80176213582308L287.3059791887026,155.8024378005357L287.27842866855644,155.8113998578765L287.23744330088084,155.836726615501L287.1969050199805,155.88242411222927L287.1572497484485,155.96983276796527L287.13488040315497,156.0030881787361L287.0734812833143,156.1523683370915L287.03087613278694,156.31782230997487L286.96403372717396,156.43019926946909L286.9186715471442,156.46809452960588L286.86357799423786,156.48553459283175L286.8496908776433,156.48201364804936L286.6839723066514,156.50135602934097L286.57294102470405,156.49113194457732L286.50351857814167,156.48419631395063L286.41995034646243,156.46064491782363L286.36432318273,156.45335016343233L286.18315660925145,156.40321136570947L286.08552234622766,156.36789501117164L286.0433285569743,156.3442356103542L285.95984557724296,156.3250505475362L285.8617680329371,156.26887933973558L285.73599839823873,156.22215560663244L285.6770210366594,156.22113569453268L285.6333355420138,156.22025457295786L285.528638663367,156.2052426168284L285.31588403766364,156.18246316678778L285.0480050905826,156.16791493531582L284.99256072168646,156.1683831159844L284.9277425060973,156.15276424518652L284.8582875610409,156.13661866623625L284.7378961521972,156.10885964836325L284.6683933307613,156.0849553513417L284.5895638610091,156.05272331406104L284.4507837261117,156.02091997627667L284.3119532253986,155.99348111221389L284.1872234686416,155.99865975703779L284.131780802134,155.98700654388358L283.8772039659634,155.93137055996067L283.77989045459253,155.90333840721087L283.5578980188184,155.8640010081781L283.39147197744023,155.84941097465617L283.2250086730528,155.8260929610051L283.1146096283628,155.8677739976074L282.99036548134245,155.9141803417533L282.92170885401356,155.9596314254286L282.8256800366398,156.04654025455602L282.7431773581775,156.10883977004414L282.66041171878896,156.13428314697467L282.507917709052,156.13146118072927L282.4570296888196,156.11548762717484L282.38775082369466,156.11971609246666L282.3043187124531,156.09569251082394L282.2347702244151,156.0635498036827L282.1650905097995,156.03092116024345L282.06746125039354,155.97040203358392L281.99778101230913,155.93777377012793L281.9143478106889,155.91375125829381L281.77538309850934,155.8737150641091L281.65030077530173,155.83768291374508L281.6086952077567,155.83391677364853L281.49767423515004,155.8222569622858L281.40977748268415,155.8064396712689L281.22938453925235,155.7830085105461L281.1185368310398,155.79220330454064L281.00792389022536,155.80479506299798L280.82802003790493,155.83471213541543L280.7033823362217,155.8437856788887L280.588165517951,155.86506663556702L280.57432592561963,155.86930778958958L280.4500045886598,155.91087501942275L280.40871528968637,155.9274801188185L280.3395233609699,155.9360784552664L280.2286329928247,155.93703255169112L280.1590808915571,155.9170176859734L280.0756946822585,155.88863643509467L280.03385951016753,155.86886802585832L279.9919423471147,155.8321266579851L279.9265403762183,155.77093075885114L279.8889920151014,155.70998218260047L279.78189560899045,155.6285347641906L279.7030136883841,155.60019449561423L279.6475238620733,155.59242858763992L279.5227921981859,155.59762687511557L279.329415119264,155.6478004259643L279.17795259416016,155.74732342141306L279.0637776902222,155.85833030997128L278.99954093165434,155.8999503924415L278.9443697519346,155.92467847650641L278.847543775697,155.9500082804807L278.7234063429678,155.99982817494674L278.5943968128486,156.03360311251072L278.447224366515,156.0919494058171L278.29572863680005,156.17062510100368L278.19885998470636,156.18771299758646L278.17113763453017,156.18795350010532L278.1433275528507,156.18382894366005L278.08788283978356,156.18431007858726L278.04627711245485,156.18054895229852L277.9767670054025,156.15666017458807L277.9114969784241,156.09546978492926L277.84581476266976,156.01002972465358L277.7621558243336,155.95692143713313L277.6879092138697,155.9291122378654L277.61867350891407,155.92947287946754L277.57720501936274,155.9378367019808L277.4660886514466,155.92231177108806L277.3965379342335,155.88969534630087L277.2709464385953,155.8129435029723L277.2013911533795,155.79293550561215L277.00761124208293,155.80626664750253L276.8964937858,155.79074382725412L276.79917037643463,155.76273437158943L276.72956965082267,155.73448336574347L276.72167193004134,155.73247442383035L276.61872295787543,155.7068408508503L276.3970378512895,155.67531840867287L276.3416349212639,155.67192376535695L276.2448549437395,155.66865200476514L276.0927223665749,155.6697456117181L275.96826439494544,155.67496132264205L275.94983148002575,155.67480018316655L275.87135316526474,155.67120471240833L275.73296590959217,155.66417657921374L275.60832387615665,155.64902536908085L275.34525402849613,155.61811935856167L275.26240315585164,155.62709540651394L275.05509959824485,155.64080636640665L274.98595115452554,155.6455382407812L274.9628704506358,155.64582216356393L274.88007063418263,155.66255853151506L274.7694514568102,155.66353544795857L274.67240053072237,155.6476584242073L274.5474841615687,155.60777810902346L274.4224760320358,155.5514100642049L274.3530538062696,155.53140985792015L274.2561331947509,155.51602024117892L274.1869898098121,155.52026909869528L274.09038866062474,155.53785770886498L273.9521394239455,155.54296221485765L273.70258529562125,155.49957993465614L273.55053980908633,155.5050516895053L273.370590398692,155.48991584776013L273.13486773951445,155.44277863046227L272.9414017952913,155.452259727027L272.886231834691,155.46487610077747L272.8174948667147,155.49434781501532L272.7215444728172,155.56480345495856L272.6530833915167,155.61900916621926L272.5346096491594,155.73873352005103L272.4388440123839,155.81743546661164L272.3020230874354,155.9418518812936L272.2153607345208,156.01238930519412L272.18350634440867,156.05333362706006L272.0235625737114,156.1571853385094L271.9542287444092,156.14155585172466L271.9126174065859,156.12568012823886L271.87073399857036,156.09719403521922L271.83348855943404,156.05662473526445L271.7818565395428,155.98295675220925L271.71094724941577,155.82377605725833L271.67268333017637,155.7012456369439L271.63851284726115,155.5414111257369L271.5902693075659,155.35720939221665L271.57099582951923,155.28381988379897L271.5562290998241,155.19786103415026L271.5038949626214,155.0630867754826L271.46465798849385,154.85423140854436L271.43568096806484,154.74390424599187L271.365324585724,154.63370666468654L271.2766738556202,154.548083423354L271.24866799888696,154.51147355330522L271.1871819025873,154.37662128511602L271.17241330416437,154.2906626179747L271.1763135175788,154.233474802998L271.1848617356154,154.17584195306972L271.21091935355435,154.04028628656397L271.21909657603464,153.95403963747594L271.25416262524595,153.8064382132161L271.2581107054684,153.74488651065167L271.25644001362525,153.58484661698913L271.1977816962644,153.29047802776222L271.1968047285045,153.20463777414898L271.16796651743425,153.0938271847872L271.16698945958706,153.00798693974502L271.18431185237205,152.90969568945638L271.2251358735339,152.84797562376752L271.3577403102863,152.7482497343135L271.39452295124283,152.73159329001464L271.54152083970985,152.6896980428237L271.57830369733347,152.67304183474698L271.6332033264989,152.6356896511952L271.6924698158982,152.57364393721582L271.71490151738544,152.52049508145774L271.7191793268976,152.4914363564294L271.7190385336362,152.4793120121376L271.72777203512305,152.42992475244318L271.73172173911735,152.36837321470284L271.71188872070707,152.24600144683882L271.69753813093484,152.19690056287436L271.67854438415816,152.14775975249177L271.63618990988107,152.0741718022764L271.59354918296594,151.96421205704883L271.58835321330116,151.91470501155527L271.5970814062093,151.8658026094172L271.60145244544765,151.8532321368939L271.6329412752748,151.78367367538794L271.7471079240204,151.67215302529075L271.9571981459885,151.49405407264203L272.07606148729246,151.40294206448743L272.12622355651547,151.34954758129516L272.263202768725,151.2256175864295L272.40924615334734,151.08479409633674L272.4407384916449,151.01523663681655L272.43963125210576,150.91678740629868L272.42528150053477,150.8676862341099L272.3875706212748,150.79413732900048L272.2520426471492,150.63536814104918L272.1958884808191,150.5621453955364L272.00393121054003,150.41743870347273L271.93050160435087,150.37510282516268L271.8925434506709,150.33646696337473L271.87657335638505,150.29802043324344L272.1238611433582,150.1794041567864L272.094476582286,150.08119622118556L271.98065393501383,149.91049214094983L271.96055559625165,149.8123643174522L271.9690176762415,149.76297491020614L272.0320689027758,149.65537988564756L272.1050086195355,149.5803601505122L272.1079934471527,149.5197703431404L272.111999327426,149.44076221839805L271.9686100385443,149.1631200824786L271.9480985968912,149.04025761011053L271.9345305042698,148.76955310692756L271.92653175949454,148.27680144700298L271.9430446724,148.15328807805236L271.9406955771701,148.005850996542L271.9580390996525,147.93132211980992L271.9831932121706,147.76714965299925L272.03142451913664,147.61626901102682L272.06239840746275,147.5195511931297L272.11589273568825,147.38714318740222L272.17830464698636,147.23880971449034L272.349320349902,146.94060207632265L272.41297630076224,146.86598826689442L272.59347440850615,146.57562285054973L272.63501978376735,146.49936385278124L272.67433736296516,146.42696505990534L272.7098499314634,146.32786268761902L272.6611752636745,146.24452031353212L272.65272927378464,146.22989965943998L272.5780320348713,146.18997568479244L272.5129036946637,146.17438066296745L272.2530694277302,146.13722385277197L272.16991232326836,146.14620515678598L272.0862859733097,146.12317772263214L271.8914016789204,146.09288800821741L271.81794011155216,146.07722272845876L271.6875914794218,146.05427905129727L271.6043358503666,146.04725862727446L271.55301333673196,146.03081463866147L271.4558108217607,145.9999134163918L271.2329097702677,145.92040984269988L270.84354055344375,145.83511516093313L270.6216040667241,145.82981773521988L270.59668499099644,145.83493833582725L270.4557870294775,145.86476633739585L270.2351875131935,145.95016404816397L270.09646137996606,145.94364307596697L269.95727344522675,145.90414396978122L269.7341296650484,145.80864701355586L269.6688564396354,145.76832583508985L269.588478020607,145.77297380884283L269.47488489797615,145.7792782990564L269.17006279472844,145.7829832065545L269.0868051642792,145.77596982839168L268.9753968554287,145.74447074724867L268.84484182381857,145.66431667563847L268.6203001472859,145.46989149891579L268.5794547685,145.43172009822229L268.4984361545212,145.35635302223727L268.47023685642125,145.32362342074066L268.33986198520506,145.25171676435548L268.2836946340867,145.20274727957985L268.21692561185773,145.17405472429527L268.11629364814144,145.1310121086908L268.00501220890146,145.1000026087031L267.92175688560746,145.09250755359517L267.76585513826285,145.0945804163248L267.6998597269303,145.09547598239533L267.56159240732813,145.12194557940438L267.31232897351583,145.14165758932086L267.28436044575574,145.12541848640012L267.17336387051546,145.11866075991293L267.061944375655,145.08765361953738L267.0060067857012,145.05517590026466L266.8957377891347,144.9805358330068L266.8568143669254,144.96662923786698L266.71667684393833,144.86167226825182L266.4187527903996,144.7175613272948L266.1956307026485,144.63033454484048L266.0842126324533,144.59884611288635L265.97321302931596,144.59209281428684L265.85287547257394,144.5770176623546L265.7232432459423,144.56234979205692L265.39052600077775,144.5668287728604L265.30707711855575,144.55158059878704L265.19631632298115,144.5608347667785L264.89049560927015,144.51559763726254L264.66783459614817,144.4613610794131L264.58452654823486,144.44563118356746L264.4826783457902,144.43896004046837L264.3159690320572,144.41622940955767L264.1495383255169,144.41871820301003L263.9832985949288,144.42896835011106L263.651284932188,144.4829352694842L263.54047484958573,144.48395149577482L263.31762393288955,144.4214797160057L263.0660425346032,144.2850618061866L262.9265957741409,144.22910576174218L262.86159132133616,144.21353282350356L262.76850939928045,144.1657216334488L262.5731096550553,144.07778228672942L262.4610249014877,144.00508306746906L262.20843359176797,143.79495503899216L262.0578953949407,143.6239834175185L261.9258846967823,143.4449221489267L261.6817257511502,143.18540573738665L261.60600207799143,143.0713066831495L261.4928569319127,142.91664960636535L261.44511214426166,142.81829984323667L261.3317278212162,142.6471538707574L261.2079117494068,142.4022133187973L261.13279401924956,142.32109546322772L261.04771928570335,142.19916179152187L261.019218186786,142.1417053103778L261.00807592897036,142.01844198335948L261.04283034078617,141.87034107627096L261.0873098408447,141.74608188636103L261.25849695194484,141.44829521043357L261.30442978429346,141.34199070400155L261.31213253709575,141.3241120431394L261.3748225848649,141.18351630071356L261.47393483636915,141.00976181622627L261.6185298443452,140.78595150940964L261.6718823448391,140.63703554947733L261.86940821973985,140.2400610491095L261.9500826845506,140.06615578501805L262.05736357568094,139.81827760349734L262.26698969608697,139.6100425452114L262.32134369714913,139.53532991883094L262.47690534318826,139.4265426804359L262.6317606245975,139.2682880575585L262.78751685112366,139.16726296273828L262.8967021532153,139.05081876917302L262.9607729743184,139.00091939294362L263.0787854650662,138.8510895219124L263.205007347693,138.63586367027438L263.2590818014978,138.53641944121955L263.4489648517083,138.24607675802963L263.54894815725856,138.12179972396825L263.61194543897,138.0059432025264L263.66588652804785,137.9064987155134L263.765691762208,137.77349237654562L263.9203320231936,137.59875589072726L264.0199000028733,137.44974602192542L264.15637526852515,137.30007518267757L264.2743553079563,137.14200662991607L264.41994077785057,136.98416960598752L264.52886121789925,136.84299868702783L264.71102509722914,136.6515248401456L264.99399625759906,136.40125209491725L265.13973315059775,136.24293524970017L265.4208861728366,135.86948117794964L265.45680513483967,135.79510491872315L265.6744376709503,135.49628278175715L265.82028193745646,135.35445788426478L265.9209964611546,135.27917298936973L266.1139796540301,135.20272623235087L266.2242756919186,135.1517692847665L266.30686748657536,135.10979260640215L266.38875998385265,135.01834819747728L266.4335585008557,134.9193171517245L266.5144715533861,134.75367177967564L266.65233403411185,134.69422063686488L266.919276251243,134.6169493536736L267.0293920761287,134.55775033969257L267.1026460739231,134.50745332270526L267.2392953628514,134.35779930147964L267.3027388261944,134.2666863362101L267.5400271137187,134.04999727066297L267.7655776944048,133.94619729988062L267.94415353770455,133.86382165895247L268.2387686592192,133.7693404878728L268.33025172628913,133.7022293951395L268.4208031651251,133.56964635570694L268.74783250346445,133.1709160259088L269.0124384226183,132.92052780050108L269.05776219494146,132.86272391420516L269.1200608863437,132.68916897527652L269.072045689536,132.56655944166323L269.0155664267768,132.49333966348422L268.9404933039841,132.42044637106937L268.87812050896537,132.38645514129803L268.763294151664,132.32389170342776L268.596219127965,132.2768861546774L268.51231303111126,132.2368932990994L268.28954484903807,132.1826265850459L268.1222358413397,132.11913439570708L267.954241372634,132.03042144601204L267.81459809658554,131.9744397545719L267.76561259048685,131.9536573237183L267.62832333244296,131.89478695154048L267.2933446775314,131.77508162513186L267.23784113707006,131.77558135922573L267.12631563226023,131.73584339851277L266.95905543320623,131.70533272866305L266.7089086467022,131.69206448016757L266.5693564624853,131.6525766789564L266.31748800727655,131.53212961091776L266.1501336874135,131.48465044347358L266.0378594464637,131.4124205003127L265.87027013602346,131.34845358944585L265.6477341880018,131.33494190985857L265.42604124560967,131.37041606532694L265.17734212948926,131.46434057541046L264.92635194616014,131.4016182752539L264.7599307258788,131.4201041208771L264.53870345014366,131.48904851670704L264.3445309241106,131.50778917342086L263.9011961919823,131.587487959584L263.679841305282,131.6559529076285L263.40269412432826,131.70067796818876L263.20923022339775,131.76889417860184L262.68264327215365,131.84985762427004L262.3230025391058,131.95306778102167L262.2403139904018,132.00378326057853L262.1573450207252,132.02928064983098L261.8815231797744,132.15646813755575L261.7713213378047,132.223929307218L261.605380996436,132.27541192888475L261.4755454134138,132.260274724199L261.0847009636891,132.133873215942L260.6652018386594,131.95001950684855L260.4330849757098,131.91173712569162L260.2935223068198,131.87227874452128L260.20959957318337,131.8323090598824L260.0693231035475,131.74338360142065L259.7502828075376,131.46774869427736L259.60046463239996,131.36274452424732L259.23621143505807,131.1614221583286L259.1243439982318,131.11346762218545L258.92740683709417,130.95134457826134L258.81007198317457,130.81121083240214L258.80480666306903,130.80486372656287L258.74815347961703,130.73166150542056L258.74243913239843,130.3611326719365L258.77691498394415,130.18781195232168L258.8100834890174,130.1138900243477L258.8216965765423,130.08828410210026L258.82097603860166,130.03930088037487L258.8820659284902,129.79151991370236L258.8764907402983,129.42099246044017L258.82756249889644,129.24892889025523L258.81011250256415,128.99468602800607L258.80381626867165,128.90346884313112L258.81007804099136,128.86666590299683L258.81007257719466,128.85405784401792L258.89152386522983,128.5812278120693L258.96292419751626,128.4072401343774L259.03488312295667,128.25847326198345L259.10376121497393,127.92007636409016L259.0998072686125,127.65673067974967L259.14507197355124,127.59018234401628L259.31853409091127,127.42333665412025L259.51125971555666,127.29738373652162L259.65858356254466,127.2379784158511L259.8523139049503,127.18622923199564L260.1111545527492,127.15780857438858L260.57339365150983,127.09469776619608L260.94269213606094,127.01579387381935L261.0534407951709,126.98955319493416L261.2751204284905,126.94580320602017L261.4229290344447,126.91890063606661L261.4965694036,126.88508072992681L261.7548374407161,126.80769279714696L262.0497887227393,126.71363927089897L262.22352618037985,126.5880319553089L262.3336644546325,126.52930136956184L262.7375570981858,126.33529649455886L262.88462139502735,126.27590548235094L263.1687936125454,126.11630936425536L263.30627393652685,126.03259458788034L263.3975887336783,125.95722381244195L263.5164719939821,125.87383981528728L263.93795771590885,125.62180835990966L264.22994676583767,125.37160816706091L264.33084758704354,125.32105162286189L264.5869931656598,125.1374739175235L264.75968248910067,124.94592434480182L264.79566632393835,124.87979230313431L264.91348706025747,124.7304562344525L265.01242685600664,124.55671610032186L265.16474498026946,124.25055704688384L265.3820776526227,123.95173469920701L265.46284283521527,123.80305920243609L265.73389410175514,123.4304992772768L265.77067395925405,123.37989271064089L266.1165147944412,123.02202961652984L266.3430329324401,122.72329262323547L266.3968816340421,122.62433926458561L266.4407338309611,122.47583988190945L266.45654248083883,122.30285766979068L266.43598861395367,122.17951475542759L266.3873848029034,122.0321738653247L266.32060152855047,121.9094103161442L266.26400008865676,121.8444381543759L266.16130596023504,121.7800468044652L266.07676014212484,121.70659550091568L265.9819718397157,121.56807899236264L265.942667761934,121.42033234017345L265.9305673491581,121.24808434857005L265.9012611176404,121.14988373392953L265.7874053110245,120.97823260400946L265.70144435055045,120.80681694912982L265.6620006098601,120.6590695026016L265.6322739650568,120.53613479277828L265.6201762217097,120.36340207379362L265.6375184455392,120.28935573358831L265.7084362671194,120.09113698651254L265.81722246047866,119.95821670284295L265.9345610970813,119.76766380439585L265.99776815983205,119.67654764282815L266.2249701774381,119.41903480312067L266.3618509461958,119.29411269604498L266.4708295361961,119.16944027394493L267.05415290804376,118.6113892515259L267.1454566156026,118.52827257843182L267.34603353956845,118.34473560525839L267.5653978053888,118.16960321325769L267.76530931814705,118.03552508420307L267.81216500268783,117.9777334201408L267.9584156344681,117.86065753271942L268.2228683491194,117.60250832270322L268.5333282572501,117.32778183727623L268.5966944081265,117.2361882018522L268.82514775839445,117.04465614387664L268.88851058900036,116.95354808203865L269.01611998637964,116.8285599725923L269.09772256176075,116.72063619875917L269.1697892641678,116.59662895566817L269.2318636716009,116.42307513234755L269.3494797297353,116.24902674967052L269.44779886892866,116.02583733491429L269.7831203930473,115.56949489652379L269.8643171664153,115.43683939149741L270.08363476637896,115.24523961198065L270.37678677232907,115.04457749714584L270.6611022841207,114.87681658608471L271.1666402385781,114.63240818945724L271.35083271080293,114.5641686056324L271.60147464392503,114.47419776907282L271.6823654454747,114.44531649849887L271.7930486736259,114.419117401535L272.23645823199695,114.34003148544252L272.4948497992664,114.27971516171692L272.86457232137036,114.23394441521668L273.5683485143636,114.22599646190065L273.7165639511295,114.23262036164033L273.75387091561424,114.24846234302458L273.97665432792564,114.2785277371122L274.1248239606757,114.27690977732436L274.383038561602,114.20836511336438L274.43812967803024,114.17490214776353L274.5012051423837,114.05083046879281L274.55570599382554,113.98438857443489L274.67351121655884,113.81036453827255L274.7001948773359,113.73592130026373L274.77257999957146,113.61144674375828L274.87109979252637,113.3882789659483L274.9526465119634,113.26436995830136L274.97043845868393,113.21457972586632L274.96934990094815,113.1403787484578L275.1772030152606,112.7925768863197L275.32252252943,112.59358137726576L275.34879637824633,112.49488971864685L275.4207811341694,112.34568305020912L275.4099786087063,112.24715144027778L275.49648212592,111.8270071042607L275.503882005014,111.70341973951963L275.4450591890163,111.48226963541674L275.3035412706595,111.30306711888898L275.30204588678316,111.20413223297965L275.32764223334016,111.05597385604506L275.2803045991823,110.98233757339676L275.1957003367752,110.90110127954085L275.1765468516969,110.8519575542341L275.19216063064596,110.65425077934742L275.18217293726775,110.60518733547269L275.21694078456494,110.45662433713642L275.44406884754426,110.14972689734805L275.54261110948937,109.92656253353653L275.5504199879433,109.82770935643566L275.59422382410776,109.65449580609493L275.59245355373423,109.53131312320238L275.60956609951245,109.43254162122503L275.66213013875677,109.23467470224296L275.6781572904947,109.06170253783148L275.7133385680936,108.93787442374469L275.9676349557958,108.58951808413076L276.02034105915664,108.39165327169485L276.11040744208367,108.2178776133178L276.19089578803323,108.01977257519684L276.23470835293483,107.84656044006624L276.2236378070629,107.72329612411704L276.17398592601967,107.50174082938247L276.1600637656775,107.18109348834878L276.1952508666618,107.05726627312833L276.27656359948014,106.90814477208369L276.3210561037449,106.78439963363417L276.3555625286972,106.61159089895045L276.35366533340493,106.48792247206802L276.16197514797386,106.04593869285236L276.01044365870985,105.81766894426437L275.9330033528604,105.5963548231557L275.9171782456797,105.51863036672421L275.91302755992,105.49822772850712L275.8934643145076,105.42434970469276L275.83572219453345,105.27691505162147L275.82514526507657,105.19487258122354L275.75850457538036,105.07209023856103L275.673565934856,104.95787572607787L275.579586693515,104.8687973406968L275.5140746149809,104.82845989175894L275.3350212931837,104.62468232934134L274.81145653688145,104.30199558725326L274.698815595646,104.20451315933133L274.5963017877548,104.1560954909146L274.4845667619884,104.12456937940078L274.34454754139733,104.05206423670097L274.2601424700406,103.98731901738392L274.1856334602344,103.9556342370297L273.83939001555336,103.72082680266067L273.6809317788102,103.6568923379964L273.475387721257,103.54405779062199L273.2878607310122,103.3984075782264L273.16649557463097,103.33382876271207L272.9600743883311,103.16377080898292L272.8747500479767,103.0330738077173L272.7878228558875,102.78743964463501L272.7478456196768,102.59070428588802L272.72566421117153,102.34417786407721L273.0004851956801,102.13514501161626L273.0451983990133,102.02788393450646L273.02411380522244,101.85555801199007L272.86185026142266,101.52828916117869L272.8685467807554,101.35620474540701L272.92275003209215,101.25726945780752L273.28961056360276,100.98260733728421L273.46282131090265,100.79209162662482L273.5443171326915,100.651693211973L273.60701266101023,100.50337269172996L273.697498384754,100.35480967645253L273.78730335764703,100.15678043677417L273.87861567178334,100.05720096544064L273.94199668839065,99.95834787040985L273.9681457089573,99.83492459152876L273.9548685185255,99.56423023966909L273.82755374769476,99.09760813061348L273.8062007120752,98.90054942049119L273.85904528603714,98.70316817347157L273.95707023642535,98.43150564620646L274.0560618596428,98.23307296519033L274.0557842696617,98.20882518328835L274.0920659491421,98.15919657102495L274.1180813031133,98.03577246465284L274.12520360462804,97.88793802179862L274.15204281414117,97.81349677885373L274.2892291808457,97.68910457813581L274.6017563483474,97.5056335845129L275.07005888253843,97.18921225131453L275.27233567455914,97.07218430735065L275.6307501414303,96.86342733727452L275.86945185501463,96.69726333410654L275.96240547395064,96.56327718479679L275.9649129965146,96.55942000030882L275.73879224802295,95.99397089755439L275.7185681786541,95.69751576124327L275.5040634517609,95.18163095218551L275.07112453386435,94.63328223747521L274.8732757200596,94.53602143827993L274.3618903255083,94.18095775007168L273.97984762062333,93.64422252101394L273.8655005524306,93.5229674751854L273.8161162804172,93.49441187738012L272.9440493695838,93.24920948354793L272.73504234676875,93.08203918723393L272.5895382710587,92.84317087894306L272.44785445199886,92.48165518929818L272.3456464701303,92.01719778553797L272.1378566955973,91.59013250285625L272.03964339409504,91.0112730890105L271.88130243178966,90.76744782792775L271.65183690456615,90.60253213508895L271.5212939137891,90.45738528237689L271.4789342881959,90.34985459815562L271.24443346990665,89.95796248112947L271.10397749910044,89.5562165611027L271.12800082130707,89.25287314475645L271.10540684634543,89.09120435782006L270.9546616896987,88.86442123199504L270.92296427920155,88.70849285345685L271.0133235555404,88.40038834477582L271.0354406995575,88.19546440206068L270.9649756756662,87.69249389936067L270.80151998266956,87.33807170103319L270.511499022894,86.87248546943101L270.5240574558811,86.7145146671337L270.9517772690451,85.72172630149635L270.98616075626705,85.60952544788324L270.9839889566065,85.45870137438487L270.87882816536876,85.35644804072763L270.5279392832199,84.5950293323267L270.2360014394253,84.07608978649023L269.7937716574306,83.45839434771733L269.7622432463577,83.36065742842402L269.2489612144418,82.74914765068752L268.879786020585,82.0981492246392L268.6914635869216,81.88172319496334L268.42144938210186,81.41826789896368L268.0843926826383,81.05898145326319L267.95281146708294,80.88911076353816L267.88420348702493,80.74838757078305L267.59614493628396,80.34151935504724L267.28619151928797,79.78026776297793L266.96888891923663,79.32660557579129L266.77956110404193,78.99720009604425L267.20559548933306,79.04058723099843L267.5391574716159,79.0453693301497L267.8939919367731,79.0091200406705L268.2812902006699,79.06140517508084L268.5264783271996,79.15418016641433L268.75167872329257,79.32049124229889L269.0049819924534,79.6475480890067L269.1354117265473,79.72237237448826L269.4446326876241,79.80940065754658L269.8552387587879,79.85851219259712L270.1696004061996,80.07554631818311L270.4811430243244,80.14999789520789L271.04122271535743,80.33424888838817L271.16668109479724,80.42407103065125L271.1935969565711,80.4926751585408L271.26331936598945,80.56795341799625L271.3889739452861,80.63983677335273L271.51366215675444,80.63800706401253L271.59614230931766,80.58780678819949L271.86657146877405,80.34091119491131L272.3050380937093,79.86563419901177L272.9800334463871,79.37448274786857L273.369019324924,79.06462804555213L273.5821455756377,78.93459543174413L273.9429749451738,78.7917937294078L274.0351471974027,78.7213195587683L274.18595532019026,78.43072905494137L274.22838145180503,78.25120231294659L274.4545861130682,77.93314947005547L275.05178084956424,77.40015025385128L275.46797044405685,77.16232931368268L275.731931924478,77.12004245307253L275.9392690717759,77.11750542605478L276.28235382864295,77.25193969797601L276.81820882841566,77.54470488209336L276.91747476280216,77.64789683585332L277.61553759120943,78.06139718278064L278.25404344065464,78.63779497165706L278.72141712406665,78.9716863590038L279.02773207930295,79.04666677057594L279.4771949165988,79.23154623293885L279.64639103565787,79.36398099532653L279.8862788634797,79.48444180476872L280.32329769968055,79.78559823342493L280.916162228772,80.24623730821077L281.20480137573395,80.39090657985889L281.56466007011113,80.46542469695214L281.6643611071231,80.5516646639262L281.8158974998478,80.81196559226828L281.8924575399542,80.89702795558878L282.1416793717981,81.02534924364682L282.41532850671865,81.06661161248849L282.8945830489756,81.19265383245511L283.22888146637706,81.31981457035454L283.58137415936653,81.555276238857L283.78154323622584,81.65940621783375L283.8703850916427,81.73585692056713L284.03651578402423,81.82173828190662L284.32317220904224,82.02751656630335L284.4676061298669,82.30619205241692L284.78861883670106,82.66648476081264L284.89465297378774,82.81873908811758L285.00187110034676,83.09271379599522L285.0377352555806,83.42422574077955L285.30151027600004,84.00414527203884L285.3693781221009,84.33934411945211L285.45237582383197,84.55151734586525L285.4429861522476,84.8399456597599L285.5385304271076,85.16230549526699L285.58414235428063,85.22090993013171L285.67541736559724,85.28672031749556L285.6985903947607,85.31370807822441L285.7030253439116,85.33532022646978L285.70557595072023,85.3577448283977L285.7486683956122,85.38291474711059L285.78000346476983,85.39726326798427L285.94740537583857,85.52389792715257L286.06442604140466,85.60158258251704L286.1813486285173,85.67587250991983L286.29050961924077,85.7462126099208L286.3843014818958,85.7955616735162L286.47381990310896,85.85893388326622L286.55554379882597,85.9329026309997L286.5863376724046,85.98167474666297L286.71500647672656,86.07013647966414L286.8197039207698,86.182138714129L286.87765409599524,86.26267870464017L286.93152500859287,86.3640319386559L286.98894577633837,86.48966273806127L287.0432249905207,86.55610730419721L287.09999085014715,86.73749550187586L287.1369682426375,86.93615829608825L287.16418816832083,86.99750548955126L287.186740077439,87.04814206474657L287.2571579110336,87.0696398531436L287.3239460573859,87.07364812731703L287.44196140648273,87.05388284126002L287.49013436221867,86.96365018682809L287.5885675107347,86.94370535729922L287.8950863231985,86.94313369628617L288.07993105512287,86.92398683865667L288.186336118677,86.89005552242361L288.32060398268004,86.83941032579696L288.69119949618107,86.72451789781735L288.7663661606057,86.6801172375117L288.9081050126915,86.64651523495104L289.1447320417683,86.5686967653819L289.28701598140105,86.50067403108642L289.3706096439528,86.40398422279759L289.4928479834889,86.36341590427037L289.52881046358743,86.32204818899663L289.68261694909233,86.26431708138716L289.76923708925824,86.24766439362702L289.9856265364906,86.22542814842564L290.1191497839318,86.22666832466166L290.2444528425658,86.26274519970411L290.34206813419223,86.31214223192L290.42785958994136,86.36530877380028L290.56076570723235,86.4184290385374L290.6618095086924,86.51343920371346L290.73119390310603,86.62173198907476L290.8437654074987,86.73770060315564L290.9100576853016,86.78341345385888L291.02638114064393,86.90620623638188L291.104409218653,86.955423167562L291.1739114311313,87.05353524374095L291.22734577274605,87.1898043561605L291.24936988078844,87.31850712383584L291.2637498618933,87.43356152791148L291.2580815182082,87.57606798428333L291.24924280804044,87.66278187418447L291.18444352705774,87.82558741615503L291.1322467204045,87.91917051980545L291.0681123521281,88.02621954637834L291.06141313387707,88.25551290257044L291.08457712066956,88.4841148458454L291.2368452683113,88.49717204057742L291.534950258163,88.48831624154172L291.7660603878103,88.48174675784412L292.2349942543224,88.47982869850694L292.49619490248733,88.47645601532986L292.68721858064237,88.46660887722737L293.1057958028723,88.46132329194006L293.7154582108669,88.45250746520105L294.10069371581994,88.44110360087416L294.25449521532937,88.45176640196678L294.3750277721774,88.46163126095507L294.66281566026373,88.47937915023522L294.83978297903377,88.52226679125943L295.16084045334355,88.5519713800577L295.2947597315724,88.55323854386552L295.38880988273013,88.5332783838212L295.503420745903,88.46647855468927L295.5781689632495,88.37796616710966L295.6331404025441,88.2601729455746L295.67087277702376,88.18634178768662L295.7215908905491,88.1485159153981L295.8160009613566,88.09898207704828L295.930116237967,88.07339526718988L296.1684101642786,88.02813726696695L296.2864549973274,87.9608883424853L296.37440999853425,87.89044462672337L296.4989071458331,87.84459320579026L296.6362638023202,87.83377693545572L296.8097275149303,87.89458419424773L296.9164102979121,87.92857238494707L297.0704975864319,87.92713039233968L297.17104916675817,87.92469412584069L297.2277297535329,87.9373566123395L297.37127781392337,87.98042589192846L297.4882104977114,88.00481602155651L297.58504309951604,88.0265903260215L297.67541973636617,88.02745293026328L297.8165890427481,87.98467565610827L297.89773221945507,87.92289962160066L298.0566970467953,87.79107334112359L298.18163573430866,87.70935134324645L298.27890690853746,87.69525011219957L298.5427385244802,87.75741711035971L298.6601036476277,87.74641892127966L298.8015313754331,87.68279859717677L299.01306576960997,87.6314887675826L299.1575265736974,87.59990215827929L299.3250411572153,87.58696352753304L299.57709260295815,87.51519658410507L299.7285622019954,87.4482831114301L299.9537645744749,87.38838357311306L300.34707540941963,87.26755456101455L300.5926739512688,87.17536890478095L300.8074607563249,87.13865033785169L300.90119858226535,87.13373671861245L301.2718675966353,86.95063571140417L301.3298939589731,86.86537124839106L301.6660731097727,86.75855453885652L301.8307517819121,86.7097210680322L301.94673830337706,86.54501267707656L302.08619288384216,86.36550079941662L302.2048452044255,86.2512479506322L302.31683048514606,86.13353667754745L302.36480100656627,86.04235816878463L302.6564782812384,86.0243409563991L302.83053525806463,86.0260329436287L302.94153139812624,85.98832130925621L303.0462512067643,85.91563699432481L303.0970643912333,85.87152170109312L303.2678718486786,85.8702753477055L303.3950581984682,85.87442361544527L303.69732659636065,85.80900090071827L303.9328473635687,85.72547370018037L304.131321579418,85.64740518538201L304.30331622898666,85.55113833515679L304.6103411223412,85.37958114370485L304.69483436251176,85.31494812375513L304.8462173284206,85.25727390752127L305.03111719603476,85.20283825905426L305.2870197032971,85.08945892467909L305.4654725252476,85.01411266600644L305.5862350469688,85.00657018544462L305.72617759721834,85.06419156726588L305.8494845804853,85.11583145597797L306.024862155602,85.27465912199477L306.05822584447014,85.29001873937068L306.24556201180167,85.30349902185571L306.32922204163697,85.31644462759596L306.50958515571983,85.35070810516572L306.6971827576672,85.34334367580504L306.9351711585623,85.3369623728131L307.0920783437141,85.37390735975441L307.17872486221677,85.41064431442192L307.22843813832515,85.44362259410991L307.2549802976537,85.46764415874986L307.2681016049755,85.49153320340338L307.2833176611566,85.60999592016287L307.2746636095726,85.76410455523546L307.2323691845304,85.93582185316973L307.201495982732,85.99467327069942L307.1972475105358,86.06009110629475L307.2032489570702,86.11639728100545L307.22259745432893,86.1786538835795L307.2779216374838,86.30963485315078L307.26866919915847,86.51125661953574L307.2499617317917,86.6589625551369L307.2568444723329,86.91699064664863L307.2543392800835,87.11576980169957L307.2686931583157,87.3025932507262L307.2648812260959,87.34425594883578L307.1588483972264,87.52067811772667L307.0426047705914,87.70330353369627L307.0467016246512,87.910875969872L307.0659698861782,87.9794352662293L307.08159495618384,88.06541459549953L307.1305054763616,88.17257256530593L307.20633684888526,88.26254036006503L307.28257337024115,88.33117727244189L307.38898035250895,88.38556570790297L307.51863906817016,88.46394376728313L307.6385372733821,88.51264774048377L307.77505074358487,88.57945735537669L307.978280137253,88.65517086130603L308.2286887346454,88.71438195312112L308.3491480983139,88.71848467696873L308.50338157375154,88.70498188915644L308.64135807563434,88.655921881822L308.79205221011944,88.65159837754345L308.87560445628696,88.66115566208191L309.07604865166286,88.70775579422298L309.20593769823245,88.75656531864843L309.34595874318256,88.80547614680927L309.44638902406587,88.81229353962681L309.7068672812893,88.86531374949209L309.80360903410474,88.89294576919383L310.1785751051684,88.90250090080735L310.3188954539364,88.92765984793823L310.34223566204673,88.93371133800702L310.4224195663228,88.9495429083072L310.5228487382228,88.95636395258407L310.66023955319906,88.94270436003262L310.96599354546925,88.859934852283L311.10680825840245,88.84631160560912L311.2341238695335,88.83885746495343L311.4652547703663,88.84117137118119L311.5455930466924,88.8448853982527L311.702691305436,88.86440038940873L311.8329518636965,88.88364708394056L311.99328644603156,88.91774264227206L312.13330000751375,88.9666665341665L312.38240630559085,89.12627097785662L312.5924169953796,89.20547830727992L312.74871508162687,89.2870561066793L312.87164034019224,89.36538956918776L312.98439516449434,89.44653046146686L313.1504422269172,89.5577864764673L313.2161812702616,89.65300128638864L313.327256276767,89.86456065668608L313.35608156562375,89.9657072952441L313.43091529553203,90.14150517983398L313.49296043895447,90.25753340657957L313.5575045138721,90.44534998630024L313.56410108251293,90.45414444770722L313.5975331103873,90.46320956312775L313.7085545864611,90.42311429923484L313.8470057406448,90.32656478426543L314.0495056281725,90.20108490633629L314.2353787698994,90.06961980114193L314.33763432177875,89.9344009793931L314.38874139393374,89.85782114124413L314.46670928697495,89.79024105171175L314.5646616642953,89.72334830138425L314.7708631319874,89.57706111131756L314.9667782698598,89.44279331480448L315.3579309954184,89.22710733358326L315.50640910442235,89.13988062142835L315.5617491522098,89.0012808526235L315.67157516138104,88.80068466266766L315.71219708033095,88.7623066567403L316.02894510652914,88.61472775857328L316.1407916154858,88.51210051183443L316.3197161799362,88.40094379179573L316.5547091398985,88.35921285255517L316.6756719228106,88.32456426387216L316.7876741095024,88.21030400735708L316.933864540646,88.03675240981374L316.98244764702395,87.91311812971253L317.006172077221,87.8896009749269L317.1736134878629,87.63044336666917L317.26522710509016,87.53634201194836L317.3198106302443,87.45689399209186L317.52979795963984,87.27526963305627L317.7061043608519,87.1141522454418L317.78553739416384,86.92537605813777L317.81042893712583,86.81265327615165L317.82269021062893,86.64985843066097L317.84222148908884,86.43380101886942L317.87389998572326,86.31532923246232L317.91193407973697,86.22407593968273L318.00007344313053,86.14497294524062L318.0609483332737,86.0980780196478L318.1514431292453,86.09027722417977L318.23537117538945,86.08192452533694L318.36332492164,86.02698994505045L318.5151596458054,85.9369045796193L318.5733718345473,85.84246508625256L318.72536742409284,85.74026049380973L318.8573325444122,85.6407602846657L318.98536646938373,85.5800107860241L319.1401274640557,85.52826447288317L319.2753440183733,85.43170894560717L319.4609732273093,85.32403572063959L319.62682372628115,85.18949162212357L319.71174687241364,85.09532966371262L319.81401895636736,84.96304118656826L319.8919590019832,84.88965770138111L320.0704190120596,84.81731091454003L320.1446394493614,84.77686162595091L320.23263869033326,84.70940142539894L320.29379654603326,84.64166447195385L320.35596429970974,84.49732706158011L320.40786709573877,84.3732487818279L320.46235417255957,84.30253407745295L320.52642611876945,84.27361814158121L320.6337517156353,84.25727123600973L320.7713883489232,84.2378438915166L320.8186542743533,84.20584560670886L320.9369021900311,84.12997258039377L320.99135304066294,84.06216782795127L321.063353886806,83.94120805702914L321.16468204305056,83.62223646026723L321.24161301751883,83.37719921361895L321.28708812622426,83.23220641464559L321.32976185917505,83.040151444804L321.36895697599175,82.86260690720337L321.416114554846,82.59059360507854L321.43867894482537,82.40705839211296L321.4354191086786,82.14615992569452L321.42368388326213,82.01851526568771L321.40578897983505,81.84910724244128L321.38997732489224,81.78106042424679L321.34226377755476,81.58758446384036L321.3240689132326,81.45114513700628L321.26987365930836,81.24014653570703L321.245336306074,81.06533618800404L321.2213331705243,80.86046895003801L321.2295773303158,80.74466842864695L321.2502421192912,80.6944551236611L321.28599376130296,80.5289971150687L321.3069882980599,80.46424093770838L321.36847548071455,80.37275116627006L321.4807782462085,80.24057362311123L321.55870161002895,80.17010442899846L321.59629266949196,80.11424839349093L321.65047931447407,80.06729233752412L321.711294478755,80.02670856372515L321.9227273513352,80.00223447842927L322.12695803053793,80.00435537443263L322.2914298784817,79.98812395161531L322.35876502621613,79.9621556484235L322.5852186104021,79.8074105636033L322.7236696540713,79.72884662811248L323.01722628411517,79.56607580238142L323.13511193625527,79.5197863768517L323.52167748749343,79.4200545874628L323.6932011879144,79.36850878482073L324.0154027358112,79.31853872665488L324.2029864325923,79.3263187411967L324.4403088383806,79.36419801338889L324.6071391123369,79.40764418779327L324.7044716704513,79.40284525601965L324.90270869059896,79.35158649110781L325.09496918381774,79.2556578320391L325.2164272152477,79.18856476245492L325.3717971494334,79.09564499527278L325.5446411497978,78.94617925102557L325.61937160734306,78.86986929745945L325.70069750476614,78.8023566323618L325.79221892084024,78.72040515550907L325.89407312304684,78.62401641580254L326.06620714708333,78.5278827460188L326.2851519229407,78.43515234775805L326.4367280220904,78.38050365840445L326.6144617739337,78.36734588727359L326.7791240031838,78.32786808554101L327.0345234317283,78.26510533728288L327.24219205162444,78.26729856465226L327.5468581084424,78.27973146880049L327.6916863899605,78.22792726674197L327.8596184836424,78.20012718292946L328.1678611674215,78.19126997863077L328.29850519295724,78.19556386734075L328.43519897025544,78.23871238007723L328.56852574178265,78.28764427610622L328.6355109352189,78.28835506278665L328.91375285482354,78.27918732183389L329.1916656826397,78.2942623872259L329.30553874759426,78.29256397861809L329.4329614085873,78.28179758304123L329.5637626182761,78.27446181617961L329.66787989565637,78.25472068473573L329.8698447978568,78.18268627301404L329.9576136191172,78.13610401310143L330.22351619793335,78.04729817818406L330.3711385557035,78.02220521044273L330.4784375586096,78.0204412422454L330.54534391461857,78.02697404013179L330.6293261904357,78.00702139091845L330.79127838341446,77.92583844473302L330.8720529952989,77.90003376516597L330.9991140234706,77.91593835555159L331.24002080163336,77.9422741589924L331.41746757019064,77.9504769759751L331.5544879400186,77.96939983018365L331.6277811430591,77.9997622265746L331.8176823507674,78.07889215489104L331.86103752522104,78.09438801963552L332.0315313122301,78.11997534160218L332.1353652197831,78.12108948716286L332.2926401464938,78.13150544381642L332.4497485712418,78.15404223459245L332.5396825873977,78.19961664652965L332.5960847755341,78.23270914562636L332.7625564139562,78.31159327499336L332.88591286863084,78.35752813125146L333.12282091384986,78.42505026407798L333.2264931537975,78.4378034012334L333.3533356198568,78.46923160000551L333.55722479078395,78.50682437420983L333.6909854655787,78.52329760019529L333.7778081799479,78.53587096089814L333.9182003474707,78.55823520019385L334.0622641208247,78.56269953841729L334.20257551273244,78.59088270223765L334.26235858374275,78.62692407076156L334.5098845982211,78.65917643384546L334.5800281581178,78.66914746194652L334.60992265256573,78.68692610376911L334.7874017093127,78.69224027899236L334.9279190959387,78.7053981308909L335.0012856004432,78.72995115356298L335.13838761201623,78.75228555058766L335.2084969931857,78.76468204842422L335.23522414244144,78.77369933345835L335.3189184528528,78.77460643640461L335.4567585192126,78.74361463111745L335.61451730999033,78.71865802994125L335.85498249413286,78.7658760304248L335.87854290104224,78.76613185910446L335.99578110201765,78.75867751080477L336.18047566196765,78.7277132793397L336.36825841152313,78.72102727505444L336.5414560335994,78.78788388095927L336.66783971782206,78.85180750363907L336.7673096915205,78.92998465355868L336.85026125101285,78.98422362387828L336.89630016351293,79.05260677150909L336.9760444944113,79.1009927170071L337.05586071777,79.13434871625304L337.18628653706037,79.15371061029327L337.4108159892385,79.14452265968248L337.6286084116218,79.14689972665929L337.80262411076546,79.1546185839943L337.9166695207932,79.15004621680055L338.0039810827475,79.12724192432597L338.0477900341102,79.10978069656812L338.1121070085137,79.06587601544197L338.23989344838265,79.02896900032556L338.3205088961586,79.01482005366961L338.5316160077964,79.00549387917908L338.7035196577781,78.93901017440112L338.8412255522926,78.90803291424345L339.0120363316855,78.90990545219393L339.1562995062741,78.89985090738628L339.23698273089394,78.8711592237396L339.34780505578965,78.81115254220731L339.3983636458215,78.70685207015958L339.3940206488878,78.65437663928151L339.4064139029724,78.63597146446045L339.4187895270661,78.62896070380157L339.4570081497659,78.62960333528463L339.9472692165655,78.69255272697137L340.89091998997174,78.54061136157816L341.30285097301385,78.54822020899792L341.80759179389133,78.72694872671764L342.4146724400234,78.98990650397354L342.8609281622703,79.0674691549093L343.13759095860587,79.08191164713571L343.42974399778177,79.16116090248943L343.86148035599035,79.2146533604373L344.84258926914845,79.62100375006412L345.49975757933134,79.7651762849564L345.8107956846725,79.92861342697688L346.4445927953384,80.34167902903937L347.0899286147651,80.64893277284136L347.4891757090809,80.86817060999329L347.72189466709824,81.08144193189491L347.8998008116687,81.28366583507977L348.2442549497682,81.55441370031804L348.5407367334665,81.67827737679636L349.1849809746236,81.74945716270122L349.5351789204251,81.9808847114191L349.84337231939935,82.30198105174713L349.8950471936514,82.37998033470376L350.0612085713328,82.54161388835018L350.1705980487677,82.60299851516902L350.37594307614563,82.66966638193662L351.0104560760665,82.75796134194388L351.13444587410777,82.80028457838216L351.70932367377463,83.06766188013898L352.1708586631066,83.33624891240288L352.33854646612235,83.41981482153551L352.67730692613986,83.47248300116371L353.17416644240075,83.74653211870827L353.2764534665657,83.75951588186035L353.8354335308686,83.65229353429913L354.04897314995105,83.63695723581714L354.2667259923801,83.69576451734974L354.52544379446044,83.79632800436775L355.0411884546229,83.81516556802671L355.30517627607696,83.78767301866719L355.6081590848589,83.7108024178242L356.2197887177317,83.63216755595658L356.52006335665646,83.74249773742395L356.76439582066087,83.87959712624343L356.9302173358301,84.05097242653665L357.07762338944303,84.33648697338322L357.1896821032351,84.49775596211566L357.26311478395655,84.50426556425009L357.47500619141647,84.47345534586748L358.32812291300434,84.15331085633807L358.82738869388777,84.05552993089987L359.6655436883957,83.99547433941098L359.9118985391433,84.03802791374164L360.25359134159953,84.22700567199536L360.7711966797069,84.47721364378685L361.0218134951647,84.65210559617935L361.3315327114142,84.78032969625747L361.5245223811071,84.92187563555308L361.50991055533814,85.01415299574546L361.38531126444286,85.15313709392831L361.28046088833435,85.32537592775952L360.77145912024207,85.88045825118206L360.67235982114653,86.06767137806855L360.7057937821701,86.87271663933097L360.69297072489644,87.06971056058501L360.72629491490807,87.46988079579842L360.84702615105925,87.7682977322902L360.9734371619088,87.90470621174973L361.0681648279351,88.17866224644786L361.0785910232189,88.54076264379728L361.04825186979724,88.59780530828812L361.1174154097789,88.8283846430586L361.1426488635225,89.10305436904855L361.099768924636,89.85991197770272L361.17477275653073,90.31735723417387L361.68483728195133,91.74690110289612L361.76056838432123,92.28774151612743L361.8352036642136,92.50372101376615L361.9904129185743,92.76154646151826L362.1739214271256,93.45741950771117L362.4559064784153,93.69455708351416L362.5603291086445,93.80695423306133L362.7491240686322,94.21669559597194L362.83059103486084,94.63286635539589L362.8718934692297,94.99271532309194L362.89962492358245,95.09862261249327L362.96130693770465,95.14648250388018L363.2632217738683,95.128375660227L363.57272780068524,94.9724870376167L363.8959894810032,94.76845809155384L364.4433717661559,94.4952444749606L364.62606638101715,94.36732173194468L364.75504108271343,94.33595182161844L365.53188682533073,93.97606384562823L365.65110618399194,93.90455076323633L365.8565910691832,93.72743165885186L366.9008578347566,93.14765126310249L367.1911141797391,92.92265446070178L367.36899896752584,92.63623837923205L367.6423738040867,92.32704498876774L367.94988080002804,92.06842502346626L368.4492764975985,91.73854815169489L368.8721277119548,91.49332997756756L369.01222708643036,91.46283688652056L369.3117664104684,91.18394496936617L369.5879423287697,90.70406039739464L369.8393856741495,90.41595541897277L369.9516825117644,90.2228212562477L370.24889373015685,89.9202021206047L370.45112973471623,89.5947704554037L370.5516321805735,89.2591986548232L370.97472986372304,88.40644232627892L371.0083525178925,88.22282097771313L371.09273763193414,88.05178794063522L371.32040302552923,87.82357213042269L371.92181543686456,87.44910057685865L372.2392371908318,87.16957529750016L372.6598148108533,86.64707573985379L372.9437702984105,86.43286312167857L373.01737378934195,86.34485753179797L373.36222179786637,86.05489088329432L373.9198676420783,85.61349028235963L374.30789900642776,85.3522032747851L374.4488350199099,85.22087010469932L374.64529932401274,84.82036475951554L374.5786208657082,84.59263601765542L374.47238563571227,84.46566746407188L374.345845447333,84.18858321960397L374.2342008729174,84.02918121939547L374.0377018791696,83.89728220117831L373.4348930861597,83.17927424294794L373.0538765881174,82.49836784755462L372.9783085401359,82.42589516407497L372.9347734122857,82.31916456716317L372.9518472747004,82.10322140392873L373.1579714001782,81.50720214720059L373.71151258524696,80.58385909650042L373.8815289684899,80.41538541255704L374.0506069684925,80.33565621684193L374.27813644188427,80.26311202161287L374.58136445180935,80.21843510913095L374.71674081608217,80.02897094037144L374.84375157543036,79.62526921689096L375.0168328826585,79.36658278361938L375.1687311605019,79.19392978291671L375.2380616663286,79.03566260821208L375.2391676983425,78.19291804025215L375.5244603696665,77.57674409519586L375.53312031097084,76.55936700105576L375.6530063986138,76.0325774136918L375.65164105323856,75.98361723203197L375.54970799989314,75.80908535959497L375.49273454103604,75.6578733638371L375.5289343658369,75.53387317200486L375.6226807774292,75.43694863704695L375.68651951218635,75.40286716199898L376.06268685292525,75.33421640161396L376.37496217584703,75.21285610732048L377.7755302653568,74.96066208787761L378.09658226934334,75.05985839079858L378.92041660032555,75.17843722080124L379.40204346872997,75.68776605526546L379.74167868500444,75.87311164197854L379.8494847940892,75.87061795339741L379.9236982606053,75.76613677087789L379.9125942196406,75.3594223148275L379.8650436691969,75.27017612623149L379.74200819554244,73.01905746673219L379.6663064470813,72.28081907326941L379.6507482591005,71.71365109755516L379.5816275032885,71.04856814522918L379.44323905907004,69.15254295868272L379.45275905413655,68.48039885363687L379.40536913964024,68.17246907892877L379.4349372501347,68.13048330449055L379.5258686157031,68.07384333614391L380.3322733493769,67.88666060624928L380.6171518332085,67.77336516065134L381.0845159826713,67.73590143914225L381.30406211009176,67.676577507822L381.62435298469427,67.49943177858222L381.885735610711,67.4309832356048L382.18772302803336,67.48821921776198L382.3390103774509,67.48483303228295L382.8785987889023,67.64211704418904L383.09145930622253,67.66918016711588L383.4472180106204,67.59499701633922L383.69032765366137,67.51704072119355L384.2094155979139,67.4655577678086L384.4917394944496,67.50118442267649L384.70669271534643,67.46908307712965L385.1494992441076,67.34366704655258L385.35959532707056,67.31210129922874L385.4390651546819,67.34335254064445L385.4729933867384,67.40024866784916L385.4770546621221,67.71926704892758L385.56735227448735,67.98316298714508L385.8528829992756,68.31358524023835L385.99674824181784,68.59297855605837L386.08548056441214,68.70512084625989L386.16341117996853,68.9332538467952L386.3868140243976,69.27929932105326L386.70828640599575,69.61472610783494L387.11410143754256,69.93239311335947L387.36183239409,70.0406219658189L388.12013148020196,70.08830741285328L388.1300873927539,70.13573353011361L387.905131010888,70.36670823088207L387.2544240295174,70.87806633626133L387.0755387956524,71.08097590298075L386.95514317337074,71.38370912108076L386.95908873342705,71.52962412871238L387.00059121151935,71.6931271925605L387.12085907721485,72.03626989244731L387.2495964646041,72.25180738945164L387.3113923575147,72.43936511791799L387.302999736683,72.67655566542271L387.17268450518895,72.92313388938601L387.1767663334831,73.07486652588068L387.38232346283985,73.56607191465537L387.5814540362735,73.8876272337202L387.5728196926466,74.21355544586368L387.62847943855377,74.3071027573933L387.76728719361927,74.40956903723236L387.97296075249324,74.4658301984582L388.2905860845749,74.613660364319L388.54151942066164,74.96625668783236L388.64063010905375,75.21068679077507L388.6439026449407,75.32993983429697L388.613159838711,75.43496370275443L388.64399249449707,75.57868896755826L388.72850302223014,75.75391617955665L388.901128439833,76.02772476343944L388.967282114736,76.2036089085932L389.00062346689447,76.39143658333796L388.94589506396005,76.5936624558617L389.01412179424005,76.70794603468767L389.12768777754536,76.8038662115132L389.33260180578145,76.91930165994381L389.64655747947836,77.15397788800601L389.8275380496343,77.40056090666712L389.84848206326205,77.80864700031816L389.759451683949,78.04173873948275L389.0853714868972,78.7220150455314L388.9978728117094,78.88720954689234L388.8170230733631,79.34130185823142L388.7913377149707,79.50252625240319L388.8102977492599,79.65654573968095L388.9295733852814,79.83048036872333L389.79143420373657,80.25110546216729L390.42418875582734,80.61229806830397L390.6078785977261,80.77836952456892L390.6441362135265,81.23771453561585L390.739638736115,81.47103468219848L390.8976229876389,81.71735407193864L390.9022702408438,81.87878137765074L390.83192209885965,82.22031418497772L390.87225480987036,82.60785773049793L390.77728603836294,83.00441185604359L390.7805444346195,83.117847397084L390.96084211433845,83.52640142405289L390.9931575314513,83.7690356637886L390.98577544111686,83.83408006409809L390.64501976231986,84.37061948594055L390.62402835258035,84.43142592222102L390.6270640802031,84.53759015224932L390.7168388053433,84.75690206703803L390.6897324337333,85.09997495723837L390.54516759957187,85.55226754248906L390.5468026711169,85.60947022621531L390.58994704694487,85.70217088116624L390.7014544303929,85.84854723038643L390.70541522397616,85.98670622084956L390.6347974412638,86.1478608371126L389.965247795506,87.03173043922925L389.9302526369138,87.17025086000922L390.03325819613383,87.36228411129287L389.99309897288913,87.57358697046038L389.99762956125414,87.73065163538013L390.0249193535856,87.79731427597108L390.28802688642827,88.14642525702129L390.5405824562331,88.37974599753943L390.68087927626766,88.68635746205018L390.7887652606514,88.8405266494683L391.03296592671904,89.045805212294L391.1077493676312,89.1396693508459L391.1741757222371,89.33204524436587L391.2597277403729,90.07266495234671L391.242663284178,90.43746628902772L391.36976638614215,90.9919871098773L391.53206721536844,91.24506183908579L391.7967488026443,91.53550121923035L392.0617325956737,91.78811824906734L392.1222164547871,91.93642580399137L392.16755509345603,92.22937295152133L392.1574534576721,92.38366399877032L392.0245986773152,92.86445241308866L391.99304432813733,93.23811576452408L392.0011664585945,93.52170749947709L392.1284692526933,94.13151031472444L392.10403073530324,94.5749340552311L392.14132354626054,95.12204369033407L392.3086610463033,95.38768534474275L392.5568612329771,95.68015666139127L392.6974103058019,95.80205360119999L393.0095314649734,96.29821125581748L393.07626723970316,96.46782210712627L393.1412234831769,96.56126412285539L393.2448207082598,96.6732999676633L393.29405388435043,96.79989056452087L393.302563584617,97.13003073069376L393.2277416121615,97.72132636739207L393.2584892097948,97.97464853715701L393.2764028273814,98.69407931650494L393.39418551221024,99.1507490527456L393.5457307337856,99.316169121229L394.44384830274794,99.73565337648597L394.56614621838526,99.84703645885475L394.7319347328594,100.0908876083331L394.9715561020348,100.82963967273554L395.148687839941,101.13206379079384L395.5103722428539,101.35037969090445L396.19777262644857,101.45325175077869L396.37326401247265,101.45505780424355L396.53167866560034,101.424045792186L396.63955670516225,101.47350063724662L396.93241257572663,101.80204522063104L397.205306929347,102.19865972961634L397.4779208294676,102.48229663579241L398.00099052203586,102.84951173060199L398.40472133320145,103.08106409607353L398.80961382117675,103.46293278826761L399.1329147803699,103.84990184823346L399.195492493589,103.97881185885672L399.21625499445145,104.19731902188505L399.11695988966676,104.50272917568691L398.99191496371714,104.70411526783118L398.9376171285585,104.92280966557155L398.9692750556169,104.98071495907789L399.1454618806383,105.1178210187054L399.23008577804285,105.2722340727214L399.2685347798397,105.45179068493508L399.3094516754245,105.50573432063902L399.4888891868577,105.56231892101914L399.86253361972194,105.60262352047357L400.24757330185093,105.57397444730577L400.49664761473105,105.51453670043975L400.5470421140235,105.52960511831861L400.65707459912664,105.59651297252094L400.80566406673097,105.79933751774297L400.8673902957671,106.01748224791208L401.0180259477056,106.17179900366227L401.10682837780405,106.22531986774811L401.32298483405975,106.30486541165283L401.5107224278836,106.34005299735963L401.79353190779875,106.43889232025231L402.01781229854896,106.47472932205164L402.30116246648686,106.46397940509087L402.44528597404496,106.53932119052388L403.22021269790275,107.26324278313314L403.50816387185114,107.4134542195352L403.95450235445605,107.55160889129274L404.21397682857787,107.73796095320449Z" fill="#FF7B46"></path>
  <text x="325" y="110" font-size= "4.5" font-weight="500">
    
  </text>
    </g>
</svg>