<svg viewBox="178 157 165 165"  version="1.1" xmlns="http://www.w3.org/2000/svg" xmlns:xlink="http://www.w3.org/1999/xlink">
  <g>
    <path id="path-0101" d="M291.336777424327,220.90764430936724L291.9972931669836,221.40732142676188L293.4995194486801,221.62238478114523L293.7002726686733,222.06732972374084L293.91317161554616,222.80448848038031L294.0400402348714,223.34825731157707L294.1827543054387,223.63838179054528L294.91585353634946,224.27282147360893L295.48124035207366,224.4819271939632L295.7007518454411,224.5605129685964L295.76133720282814,224.5933943346854L296.0148462012876,224.7301291736585L296.102609296664,224.75786420941222L296.2342779388673,224.80409483895164L296.72043825281435,224.8825006289553L297.46815509141015,225.2098620090892L297.75931341114847,225.56984311338692L297.9790269266123,226.1362169856293L298.2206613667113,226.71240422273786L298.2291554866679,226.84874513241266L298.28255966049255,227.04267731396885L298.3438784856735,227.1048884048787L298.59423558088747,227.34861869377164L298.7448644112992,227.5116581316197L298.76755065154794,227.5502276874422L299.0640085015875,227.6669200432152L300.0266340592643,228.12639684466558L300.11003322056786,228.20304140674853L300.2611564434337,228.3902487954001L300.2788090033282,228.448382220412L300.41269962292426,228.83629390122132L300.3781811741537,228.99269323109365L300.47020212715506,229.93218316339062L301.63852933653106,231.2807727526042L301.8692130831805,232.29125062777166L302.60582560347757,233.307215855938L302.6141111268553,234.80969171923698L303.9238077719747,235.44017020859246L304.2536962081904,235.91071468468363L305.57391652223305,236.96232407553816L305.409860184649,237.61143666304633L305.77876756405385,238.2862690190268L306.2665421960264,238.60181393621951L306.77450819702426,238.5205068828227L308.67987675190307,238.6725383859748L309.15895862770776,239.2319934609286L309.0761292244606,239.70353303599222L309.9048842359225,242.82512032252998L309.9513685447928,243.46948163113666L309.71927472616153,244.2426693407897L308.6536222173745,245.09538557285487L308.5037593880079,245.71000641807677L309.0667104397253,246.70736692591163L308.8067329174919,247.26081308599987L305.27576905225214,250.43973541567811L303.8971467344127,250.83183208155515L303.4365217790437,250.68259472356385L302.7307628121489,250.90970960956474L302.42397616398375,251.2571952169228L301.99992770646713,251.80463813607003L302.1095503591896,251.94803489034348L302.37744850431045,252.24994645294373L302.4700600605902,252.52621153983637L302.5212321857107,252.64192052557974L302.52304014248875,252.99338351859205L302.2937911927911,253.4652443384066L301.7662014297057,253.68002514382624L301.6252305140406,253.69243821731106L300.6723516244456,253.8225351356723L300.49881848769655,253.84524048186358L300.39082474444876,253.88131112692918L299.7121549386611,254.42029897215343L299.5758245028228,254.6420985967634L299.49274956731097,254.81912999184533L299.31457069527096,255.11507518005783L299.27243517544775,255.17426114653426L298.8033636543696,255.59742386403468L297.759113898388,256.08523052911823L297.6509128378093,256.1115033539136L297.39148222270524,256.1847128149893L297.2619503351343,256.2311073989258L295.9354295948251,256.2669606363779L295.8049408835941,256.26904996126996L295.36528504976013,256.31208850231997L295.1239534689885,256.4624216379534L295.0252191497457,256.66417886982526L294.79753742662433,257.40931127812837L294.38105671391895,257.98735830813257L294.143743565397,258.3137176169739L293.9721717391403,258.41929816278207L293.02538570711476,258.88092776008034L292.72984192458534,259.0375388306593L292.6930909948969,259.09672470082387L292.09881403978216,259.9851507705198L291.901707163368,260.1787209918548L291.72389532856323,260.50402777402905L291.36448162297893,261.22196758176415L291.1129234703185,261.41660616989884L290.96081717656125,261.4388331862492L290.5663858033404,261.3490984715818L289.4361022554949,261.4867180988231L288.7672244429632,261.78203468856464L288.3493039156492,262.08692162848547L288.18179860900636,262.3823568157932L288.17902924419104,262.49969176423474L288.20551064808024,262.703948017539L288.50154262463184,263.73629873561185L288.46547736085995,263.82483026721L287.6662758356506,264.38115359012863L287.428750513016,264.4780526715613L286.9510209305008,264.5550735800416L286.77759973727734,264.597406419859L286.38336489361245,264.75105597912625L286.39249675860265,264.9121383949214L286.4292528327496,265.08647526413824L286.3960045735621,265.77441045398245L286.39256546899196,265.86241567330853L286.37066584216154,266.0964963994202L286.3310818182872,266.27304908347105L286.2865912686284,267.18012114543126L285.72071013030654,268.4000317516429L285.3411136336981,269.18703462181384L285.2732357921268,270.0515064915817L285.2811132968818,270.4024117950339L285.59377265980584,271.24035115058723L285.79782163542404,271.60184739336L286.1716191170781,272.25349958927563L286.2276491425946,272.3254767553499L286.45283757856305,272.6576747475756L286.70876511570896,273.3850829255798L286.69097433754723,273.5610935634022L286.86972165605766,273.75747702388526L287.2476117366168,274.3360835973908L287.25876872219305,274.5845976175224L287.38052389716177,275.14848807554245L287.55813907195625,275.296567493162L287.95311307737575,275.43054377421504L288.0142884200686,275.48816664184505L288.0866633822152,275.5595699903324L288.39924257478197,276.3739468053527L288.54459287092686,277.01438732741735L288.5845380973078,277.3256387765723L289.06473409160026,277.8422703369888L289.2272958856083,278.04383179985143L289.63305384675914,279.5750890335976L289.7044504273763,280.0710328890609L289.754000807774,280.33283304612814L289.8363207408147,280.5946804205896L290.25184369244744,281.37528083685993L290.24224900703484,281.9016073432258L289.9477120432748,283.6568089938082L289.53382853825315,284.2631024244847L288.76153123721815,284.6969126730073L287.951552161172,285.60409388411244L286.1827896553623,286.18391719585L285.29218068977934,286.8926102453188L285.3375203104806,287.65198061669616L283.87290240987204,287.9918395008708L283.279006513083,288.83153140061313L283.21115292381,290.0802851510325L282.90867639123826,290.8363638378896L282.35139896476176,291.3879194193287L280.82146948465015,291.93433029784865L280.5281624469644,292.3884446696693L281.42426460063507,293.7297749321242L281.27196525756153,294.3957269399052L280.1089978874588,294.8189177585473L279.9123828717493,295.6533771863142L280.7122080977242,296.6563417096959L280.8696778038684,297.1218869409995L280.37266045717115,298.13201150154055L279.2349028693134,298.8923585428129L277.59515946381,299.29212258465213L277.49429301702185,299.61586676720344L277.95474794796974,300.7334797769563L278.34476908205033,300.93983264468716L279.3573736410435,300.8603967584413L280.03162731934935,301.6175894773878L279.85219300503377,302.06031090059696L278.90418125172437,302.5775570541746L279.36909010856107,304.1191370055012L279.4831311296948,305.2490392435702L279.0238556405857,304.88786602350774L278.09253730134515,303.12143815145737L277.69237984320716,302.71489121176364L275.97170448839097,302.2138144179953L274.2207568164522,302.2644432754387L272.9589529614277,302.5928597563179L272.0999118480795,302.9907142484808L270.9385754225623,302.9603533480322L269.1711309544917,303.3529026249071L268.32717140878594,304.2599569302074L267.4045843802087,304.7430137563633L264.92110830056845,304.76246162351435L263.33951122483995,305.1209143655433L263.23491815621674,305.49994063751546L263.6196364625175,306.5379138198332L262.5636870666276,306.7426032264275L261.6339015196245,306.5930393397757L261.0732569002321,306.1480367313261L259.28105047994904,307.0179236071117L258.12997808512955,307.19967340656694L257.11045684777855,307.1519925089124L256.4586546017854,307.35417360846895L255.94996450777398,307.1088863829964L255.638662943089,306.43053189492L254.94383004982956,306.5544904628023L254.3888582995387,306.91321201334995L254.2289732733734,307.4624983387039L253.5804148973075,308.1226280760111L252.50430332349788,308.6106103203965L251.35187607202897,308.0222989361673L250.4328172364294,307.3812026911246L249.86032797644293,308.03164478536655L249.6848846120156,308.8587912916828L249.31393822487735,308.9104633463694L248.35130970932005,308.31139493969386L247.46620232756686,308.5453154636389L246.82407625382984,309.03413449419077L246.26780551740376,309.7323705599456L245.11648177778625,310.0773377081241L243.96241150770584,310.8612314799175L242.67313202518199,311.41679846768693L241.87088695241619,311.2136708545095L241.0670870950089,311.3079669657136L240.7068378251024,311.71062395710123L240.53391317648857,312.61663094461164L239.7740323934122,312.6183487993676L239.29961699254636,311.9878869789827L237.94794950357755,311.65773174151036L237.5665840144211,310.953075682939L236.6969345841062,310.68622354521995L234.9926419362091,310.4465330278117L234.52631024807488,310.1313698217982L234.11473730398575,309.29848229057734L234.40430364874555,308.24171427838155L234.22953284026153,307.75564967149785L233.6441699169627,307.59409929305457L232.48311552195082,308.8161390399446L231.9948261121317,309.00031472858427L231.06544145284715,308.9677192253703L229.675836541006,308.34222795548885L228.459055831132,308.0612984471809L227.34062176487714,308.06453597421296L226.88119366750834,307.2679888555276L227.57119773594968,306.32319589047347L227.86384701055795,305.6506459191796L228.4129759714706,305.4681101205015L228.8060461984678,304.4952511407846L228.36957763632017,303.8534455238114L228.49556250202295,303.3241537751501L229.03880937194117,302.9730955164414L229.79273395577547,303.0620434882876L229.91651195238228,302.1427824817101L230.38935955752822,302.46995784815954L230.78352736505622,302.1598140577862L230.71432499182265,301.4591673444784L230.99631956156372,300.18783515131236L230.68216386820131,298.6514304228185L230.9641467770416,298.31543188808155L231.12822695252544,297.2765093075059L231.94541441181718,296.716043708876L232.3403748310957,296.2252694711651L232.45075227723646,295.1788919254677L232.78885673508194,294.72898276752585L232.38407363924853,293.3156976641385L232.69483303267043,292.5011028676199L232.43513013665506,291.77232461288895L232.6978653293736,290.5458716114081L232.0930872571189,289.85168647518094L231.75546378356012,288.97106723386696L231.26945473208252,288.5213476613835L230.36876518378995,288.66192622682684L229.587593533397,288.3175662565782L229.08205250886385,288.5627595764763L228.7427037814923,287.4630037111074L229.24973480507833,286.8720985823502L230.3851122696069,286.55424704314555L230.76306304973332,286.2682555758911L231.1773719312696,285.43809401150156L230.99050857945986,284.90202095956556L231.6262252474953,283.44194319366034L231.13082158580437,282.4664392042823L231.3101245105281,281.8411119851735L230.26007806759662,280.9624169536455L228.24141299009716,280.20425995374626L226.82816601681043,278.80002563195103L225.6822469286344,278.58933662771415L226.35323950852398,276.6379015319726L226.9261965506994,276.2609064283197L227.13898024924129,275.37556198604307L226.9151301083948,275.04256739128505L227.07883383168883,274.27975234003134L227.49356159998933,273.6681380046939L227.70214370591202,272.239771283138L227.95437413288528,271.4568014554234L228.7946300765543,270.93882458295593L229.99192051508362,270.90625584086683L230.67527492366207,268.9405300827111L229.53570268540716,266.82570212052997L229.16605487738707,266.51690990832776L228.67266878303417,265.2831895844283L227.91486922934928,265.0142167510294L227.48461257628878,264.3240912078991L226.96082197357464,264.15745771767433L226.1907647100452,262.8352910106705L226.0812703103402,261.99317417423663L225.00945440475334,261.47360563778966L222.34137494861352,260.82019321778535L221.4117276977886,260.4231666544847L220.39499547461674,260.41278114444503L217.74171539714007,258.2773484739837L216.83013523979753,257.954052187818L215.00663497180722,257.0579099231045L214.4596429598605,255.8687189237935L213.7490308536253,254.89019188686325L212.86988295694027,254.43987386422396L213.44803598531144,254.18518419878183L214.62486719973094,252.5029496417401L215.14276537101978,252.02861459844007L216.23271684962674,251.38074461651559L217.07487500693605,251.16508231013995L217.98874389033517,251.24561562391682L218.57269279703178,250.85756396617307L218.35479769527228,250.38371967945113L218.9031235478542,249.17657086144663L219.12520894013142,248.2106452908265L219.45969907059407,247.8572647407118L219.1987184067948,246.24735201179828L219.9665671877956,244.1864826539686L219.89277395172394,243.36279793576978L218.9681945354714,241.58760839956358L218.46997930544967,240.98736918878876L217.45436802745098,240.507676089268L217.595567769833,240.03245546598555L218.43907040172417,238.6474113780705L218.24202730879188,237.38317744131837L218.39458053705675,236.67325503205575L218.79853810785062,236.02244971242908L219.39688668132658,235.55848462212361L220.29934741964098,234.10381923643126L221.25820430356907,233.43893678117274L221.65700954593194,232.4827104145379L221.76173879557246,231.77917734678886L221.53768140021202,230.71110741986467L221.3825268610235,228.29640169658978L221.14143978764696,227.96981193556985L221.49440519756536,227.41915238556794L221.4219553702569,226.8370516677669L220.35957484252867,225.784402112532L219.06890808276876,225.5187843008298L217.66392691896908,224.73504706509448L216.91452323624253,223.74901721823153L215.97236063022865,222.90234281643734L215.6442220541976,222.3043470389357L215.46157207994474,221.39275479083517L215.11857162007436,220.8632006280577L213.66352435636145,219.5424004385568L214.1631023435184,218.35480048892623L215.45084743538246,217.60611310043078L215.85665574688028,217.08584979603802L216.6563997901394,216.58200488425518L217.34044732400434,215.73773957443973L218.4315523948062,215.4028740474978L220.28214492682673,215.30921272868363L221.66974514553658,215.34414193943303L223.01827175726794,215.583933862481L223.80917759670047,215.9591844251454L224.63708418930764,216.0445304222294L225.94315986973743,215.76272862694987L226.4959913488783,215.89365921354874L227.16527395509547,214.45596493016183L227.74993542745142,213.8788233184323L229.08746721042917,213.27385224538284L229.74911647268527,212.4476535042122L230.32100831095522,211.45698043570064L230.90371724600482,211.19626856726063L231.08746735168825,210.69636947815252L231.11269200430252,209.53442740011633L230.83858084281746,208.50083404588077L231.99727605079534,207.26214637932026L233.82323927189645,206.42831195357667L234.18946270760716,206.0480386342333L235.72759270763345,205.36966797479454L235.53306977961984,204.98084935117913L234.22236852593414,204.28098954501547L233.71893121414905,203.82953404663022L233.28805268361248,203.83996076954827L231.63403403914708,202.68929583956924L230.76641796157128,201.42289131181406L229.6160948201832,200.87272023769856L228.74511737115608,199.60636357816475L228.10762024966607,199.03481946927968L227.04846690930935,198.4007201227614L226.45233766896854,197.6359113402159L227.14448387310767,197.06391371352038L227.2537824500214,196.2401781753042L226.967873285932,195.510333396217L226.1137462864899,194.0496292027874L225.1218055101126,193.4494944658909L223.95824454251488,193.64728745763023L222.81584756778102,193.4838831259458L222.24216326380702,192.65125395777886L221.812348902753,191.07022832205348L220.78334621937393,190.15098809145366L220.2734473112032,189.2597142989125L220.8029909864017,188.80444900899874L221.20122862289645,187.40591908730312L221.98440734754695,185.58671351714747L221.38882202019522,184.92381802052387L220.76254188647,185.15134550270614L219.5263676223476,184.57970045712864L219.13273917952756,184.04785319018265L218.85590563503138,183.0954783779389L217.90306094805783,181.86396529864396L217.7707250453168,181.17611308355936L216.8579598691431,179.84337113930633L216.8105096106883,178.7361390196138L216.5651626842373,178.12254510411822L216.4579838877944,176.82552316778947L215.78736751048564,174.12197484537774L215.7314151495084,173.23792601761943L216.78382056504051,172.73968454655642L217.54970509057603,171.94485307604828L218.24715885792102,171.49806036594418L219.12582182019833,171.63789079864637L222.0478596524663,171.18363484878046L222.6399161255431,170.75828765732876L224.07375230573962,168.8721269462203L224.43893293539804,168.88634725332668L224.273677925863,167.9212254228023L224.43630324228798,166.6798790493758L225.7351917748456,167.02504196222708L226.92107677730746,167.06312896149575L228.17933124937554,166.92638339748828L228.95664218594175,167.75327351859505L229.74828342770707,168.2482962098784L230.5861791391835,169.0826889611817L232.12518894784444,169.30203728102333L232.90351234011905,169.80747935039653L233.32943655844792,169.80683456868974L234.6988394709042,171.08873122288787L235.30414426179414,171.1082046395395L237.19349420229992,171.6521651514886L237.93370762877385,171.9926381499281L238.86373971051944,171.79128054967623L240.10194883414442,172.16687349536915L240.62824824622658,171.96786494680055L242.25925098669904,172.58168923836547L243.8542792892622,172.35118130255069L245.36984667991783,171.47709359896908L245.87061347076815,171.47372320273007L246.87323607314465,171.0085720005818L247.63701672670504,170.88622117190062L248.67676705457052,170.11454897764088L249.6250021964006,169.65349309875546L250.4325770304422,169.55709375007973L251.11110298050335,169.7315943812655L251.8092831737158,170.42839000715594L253.1243950915814,171.03052618574384L253.92726171026516,171.26033846495284L255.1987973570067,169.46280676359947L256.1035055760731,168.81610290687695L256.714728482777,167.75630279819597L258.3432998405333,166.49456992690284L259.4472973440934,167.08415585974308L260.802830001423,167.1706552545802L261.64328448655215,167.01126248672335L262.2994662832025,167.48333036383156L263.2581607327156,167.4137727101961L263.71732113226244,167.62001258013242L264.67741619025765,166.77970920256848L265.1412696276129,166.69378285446146L266.0453540475937,165.93632380065537L266.8672046001593,165.91854564944242L267.4656033176034,165.57561139211248L267.72692251452827,166.61232732839107L269.3612694400217,167.16124683368253L270.427593654731,167.1661665800084L270.92777972120894,167.55083750709127L271.4607805039486,167.10726568228347L272.3302429615942,167.57338733070264L274.20583327586064,168.30737771835174L274.7719478944673,168.29930633418553L275.46416890752516,169.65344797668786L274.74822915410914,170.52874837832405L274.15520581113014,171.8844901482662L273.73372412167373,172.50357635425826L272.70417146669934,172.65272862777238L272.0983818807799,173.04157736124762L271.4069581349613,174.56812154007548L271.29623490536324,175.0759213070678L271.9471160334215,175.73684024552313L271.7249260415265,176.98596242700842L272.8704798364197,179.3959503693677L272.72806923308235,179.85367828721974L271.7134281098479,180.73397054876386L271.6090618585258,181.26995288468515L272.41479897521276,181.6284749742017L272.6315997796446,182.31258186800733L273.1424522865236,183.0895795975257L273.77941673108216,183.34040834822463L275.5935902038691,183.18515632880826L276.0018198522812,183.3816948938029L276.46949266507727,183.82739968433998L276.6001736359576,183.87643424499674L277.0245902194947,184.13110624474302L277.17692239291864,184.2394052728696L277.81875226994816,184.78308515046956L278.2860309451062,185.41343501868687L278.88351868571044,186.3620284636272L278.9215778849284,186.3914053105209L279.0304501084793,186.4599721713439L279.22619464993477,186.61721172694433L279.63990339440716,186.76493634992585L281.1637674789381,187.16470801623746L281.37583982720025,187.26792386163288L281.7347651299315,187.5220075684283L282.6700999527311,187.92806668694902L283.42752857323285,188.70666912642537L283.7723546728266,188.9383216568658L284.00795953493434,189.16698102716964L284.33116466872525,189.97957290953218L284.47910662328286,190.38585316416356L284.58208671278044,190.5545171978647L284.9305276808627,190.722906026258L285.6451097429308,191.1074935378938L286.25450846175954,191.8209550817419L286.36889540219636,192.00919862048704L286.67646027257797,192.27534332836785L287.4113731349753,192.80148108608137L287.6616011156948,192.97151260093415L288.696913083837,193.9007256948853L288.8334525646278,194.4830164182049L288.82584029109057,194.6003514129534L288.76771905699206,195.05008031566194L288.68561596148356,195.22712757495083L288.54729549408876,195.5036197180134L288.36358694912633,195.71791643167217L288.13838025523,195.99659272590725L288.0489950740339,196.09597447465876L287.9484422360256,196.1861480652924L287.8227361918871,196.34070094547133L287.50201043894776,196.69460707451526L287.4409828416756,196.83257420161135L287.37805807299446,196.9072617882439L286.982171761887,197.29212399138487L286.8837551700635,197.45073889597188L286.82822367864355,197.58872185673408L286.725590228325,197.9619011136465L286.72083130057945,198.15745929944205L286.8688206195402,198.54474932900757L287.04062007319953,198.64853943070284L288.52451388508416,199.75550729541192L288.5301417896917,199.950507699451L288.43923464776526,200.38121508885615L288.3930216512272,200.4749085559124L288.2244467394921,200.6639218496166L288.0640102687248,200.75573744279336L287.887452090381,200.85674574852328L286.7052072420047,201.90722048637508L286.1505716981046,203.0356205341559L286.4470693835792,203.51170963500408L287.80267816160995,204.13933544072643L288.4138159154172,204.96845908521937L290.3560187165858,205.9582273655069L291.06277537937785,206.90258123850435L290.9233881187538,207.91994791393427L290.6019700579782,208.66321784457796L291.13261378464813,210.38730609571303L292.4177193111973,212.0066796882229L291.87172596660093,214.20030185452106L292.35959960368564,214.6721179684837L292.5893895301342,214.8904539266423L292.97485700785546,215.2125802866185L293.08525820103023,215.26335174361338L293.14198928961196,215.33994897896537L293.1383183049911,215.74489375556004L293.1080196793664,215.8190550320951L292.8200915726702,216.00671629123644L291.94369681215903,216.15554722068555L291.462152125634,215.8833516204695L290.67051531516336,215.6032276868973L290.3969711235768,215.7213321283798L290.17017012002543,215.94651077982599L289.9430540710164,216.33213471846557L290.2066257486622,216.9359147387313L290.9707977498874,217.2067670820943L291.4949527007848,217.277700359763L291.77720516980844,217.61289232139916L292.0552402574285,218.8557608187093L292.11085923837163,219.0692407971319L291.791683690004,219.64744532942586L291.4461043812189,219.93281498299802L291.2356569995136,220.54856793060753L291.23843154594215,220.66534515716103Z" fill="#FF7B46" stroke="#222" stroke-width=".3"></path>
    <text x="256" y="242" font-size= "3.2" font-weight="500">
      भोजपुर
    </text>
  </g>
</svg>