<svg  viewBox="260 215 130 130"  version="1.1" xmlns="http://www.w3.org/2000/svg" xmlns:xlink="http://www.w3.org/1999/xlink">
  <g>
  <path id="path-0102" d="M343.3805586004055,248.97616997363002L343.27949862120295,249.1864027968477L343.002250680227,249.67108934039152L342.82416392604864,249.80977553464072L342.0801807873286,250.46971604126065L342.04410113057384,250.62606764093198L341.2047354055212,251.05393685657327L341.05868406689115,251.1334850463054L340.82710369823326,251.35485626428363L340.57059595378814,251.7665606012024L340.4511376593837,252.05326456873172L340.31499863552745,252.28468680723108L340.3536363546882,252.53790010584544L340.29284898608967,252.73387358903528L340.3100121255666,253.7043198020565L340.2840567684216,254.23171399631065L339.8773562564784,255.46326783175118L339.9330566657736,255.75506672964275L339.9462069232395,256.0864241042864L340.12401866862274,256.4740483158439L340.10761521457243,256.70811303571827L339.6291710618134,257.60526765055874L339.65998439109535,257.75145381378843L339.85576720115205,258.19204968134727L339.8507701755916,258.4267195934108L340.38852725007746,259.08168255277906L340.61451258595116,259.4245704828536L340.80240762383255,259.77311474793623L340.91606556551415,260.8456478186117L341.4281803488848,261.77952262958115L341.83765516607673,263.51210513308433L342.04261962686724,264.91682265817235L342.61988289820147,265.47872951102363L342.7406502423619,266.0289827108527L343.3040775314148,266.94291049855747L344.05973242437904,267.4628030179174L344.42274553992684,267.4218687187513L345.63756515356,269.0435382897904L346.1420698906113,269.4793173912867L346.7486845816129,270.3537345036939L347.1760142647945,270.497667271944L348.4530712963824,271.93727147592654L348.50293058270836,272.47468524034593L349.26767899255356,274.2924149783412L349.2288331732125,275.4254902760031L348.9406455839453,276.1286765306995L349.1338349488324,276.7160008966239L349.1750714642658,277.77970936625843L349.41686482077057,279.0505546196964L349.6884835315468,279.7393448274015L349.4414533824456,280.10040306216615L350.1799592365496,280.99541721436344L351.0694879965158,281.14542755700313L351.26329931102373,281.7620976113858L352.1019645702181,282.06439733114894L352.30164405647156,282.93534872570035L352.1039797779122,283.85451569714405L352.3641085562158,284.36957396343587L352.0566924116174,285.0680926884834L352.1506214473993,285.8443655354977L351.33685201490516,287.5168927099421L350.99211487831417,287.71312619361925L351.1582012341023,288.8025458210668L351.6712989315456,289.52029509551267L351.3635121683765,290.7480238648368L351.5983554721388,291.1117181486661L354.0626674067171,290.37801624881376L354.7459241650322,290.49868460253765L355.5148047201146,291.1563359945085L356.66385597858243,291.7778481411915L357.9327746886229,291.8826702121105L358.14935050642816,291.0406746692843L358.54951443300524,290.2936271389681L359.10452975311637,289.74785445321686L360.1997458784681,289.42190984012177L361.5787742455468,290.075981688653L363.03825173501536,289.9601660398557L363.33159850150696,289.1483750983307L362.7104624490312,288.6136001587656L363.31176787184086,287.85866297265056L363.9669763942038,287.5244099969714L365.2575893613466,287.4748242742062L366.18351255860034,289.4384353738278L367.38896474202556,290.3291238148122L367.8498238836619,290.970992654984L368.6119816558712,290.90986608833464L369.5540311391851,291.6374692537929L370.2784408602529,292.64328677692083L371.3985343457098,292.7399864268973L371.64792224748817,293.0935162070991L373.4827645516925,293.88664529333346L373.8816393758716,294.62842122112306L373.6513674425878,295.6635696599824L373.9224066415518,296.07986887355037L373.69549612728224,297.116721921765L373.6481816686246,299.2586869210545L373.1820036653844,300.1399420304224L372.62756687499495,300.1971298227036L372.80393868099054,301.0220877264801L373.24464595558675,301.6875195507637L372.83906904518153,302.5920016022992L374.2434294980376,304.05486371682036L374.1822550254401,304.7546845366451L375.0741764900813,305.753170700742L374.9797229828582,306.4672507483774L374.4806551005713,306.9543152081087L375.14217455411926,308.1555806904662L375.1317008115293,309.2640098319489L374.0769552713937,310.6055184518291L374.04537145127324,310.9148754454063L373.3603531421795,311.82117870234924L372.8216830433448,313.1013739876307L374.83319535247574,313.07838091294616L375.85318480410933,312.6703588828832L377.54795822309825,312.4846797150449L378.4521132987902,311.9934499017436L379.73976933373706,312.930306288521L381.38123452160653,313.2841617369222L382.3648109678252,313.08729545397455L383.18008001260387,313.6536908897706L383.43561392050105,314.5762115120242L384.39812791115037,316.4392153538156L386.0013839206258,316.4658240415092L386.4513642702659,317.1912694543971L386.53285089165,317.9440119928495L387.57477945683786,319.07802421168617L386.6028640695404,319.98234125473755L385.8088959218476,320.20058413271454L384.0357678997716,320.0691815356058L383.19471361724936,319.08565397659277L382.0629487963306,318.5450252841865L381.0391976957544,318.865424560051L380.05957813920395,318.61885542354594L379.4343491722757,318.8637804088039L378.25223881365673,318.84425364435265L376.8728687019866,318.5933582834532L376.34231970167093,318.9951583299562L376.004773704517,318.7637763088178L375.438673921999,319.4662985980285L375.25960985464917,320.07825975612286L374.16459141775704,319.9895890259522L373.2274626334038,319.1784730726404L372.3521404431485,318.87209547787734L371.01788080322876,319.09385284965356L369.68696600499607,320.007097792035L368.93915164288046,318.17345171763463L369.06443645300897,316.97626652137023L368.7548893917665,316.41314391166543L367.7380040370954,315.99419738056804L367.0568701372067,316.78099892616956L366.1984748884788,316.8561946120499L364.72749566195125,316.27354482151804L363.7660139458858,316.414029319355L362.6323526147826,317.2741393918441L361.4876812576258,317.32950552929833L360.8253547872373,317.8098975989542L360.1118855114655,318.06060720653113L360.0465558447213,318.88815036446795L358.0447542078364,318.5887229315249L357.53688805328056,318.87525865364205L356.7882233149139,318.9257427136681L355.2234461143853,319.8882357476414L354.8718832069535,319.7525062413315L354.8814735278029,319.03119482934653L354.4056725497212,318.4406412528242L353.62142699980177,318.1539851032221L352.6469932583459,318.27919154855863L352.1268511704984,318.1464123487058L351.1142156832175,318.28074817331617L349.61248115803755,318.0103707343078L349.20361347373546,318.5124568679812L348.60356023494387,318.266741203558L348.0818573964134,317.43223052310896L347.11777686270216,316.7534414466545L346.1680721070152,317.0796542257376L344.7917562849507,317.343104747506L344.28763816693026,317.8248321938436L342.96872127749884,318.10749498565474L341.7938064820846,318.57182126268344L340.50721055130634,318.01539122645954L339.60967021208853,317.941564964739L338.81744680665724,318.53301722290325L338.1599104981178,319.51085195271935L337.687262201518,321.0166827124649L335.94328660946485,322.2832778157972L335.1110353365293,322.4294952232731L333.75263387390805,323.066138997242L332.6145078012014,323.01602291449944L330.8711737041049,322.30114693455107L329.4242626511332,322.2882998996811L328.2723527609851,322.0680204931605L327.2149661819458,322.1275748968628L326.7943900061982,321.9332667288827L325.5990576809054,321.20503052540334L324.8570390082896,320.6608102129712L324.304893397868,320.5875991277626L324.0287658387424,320.5967327066264L323.57630302590405,320.7090094410287L322.69275833979555,321.0187319272718L322.0972145708329,320.8183410385145L321.7865398928807,320.4057544783809L321.41935174074024,319.6697609942348L321.3872502985905,319.62537661119313L321.3071316330643,319.4929082279441L321.16627592468285,318.94956947412356L320.91260673571014,318.77641529412085L320.8477519780572,318.746353839786L320.61125485690354,318.5145876459919L320.169901035988,318.13968121605194L319.6837528242213,317.89643286894443L319.457055263043,317.76246951832127L319.2786291870689,317.6878658040587L319.17139637853325,317.5553182435733L319.1318007348855,317.20318666748335L318.72464693165966,316.6771063514134L318.4926760783237,316.53336120025415L318.13580798674957,316.3836121046279L317.87462420442534,316.4255800818046L317.43706023289633,316.7007553575504L317.3873101900899,316.7783104082482L317.2061493733854,316.94761684836703L316.96026125919525,317.08745129435556L316.47134635072143,317.08352485065006L316.1755858616016,316.80735882352565L316.0532164822507,316.56722662239736L315.9686512107728,316.34672126997066L315.9615386935584,316.0090389275583L315.8223949739877,315.8028090940097L315.768611891217,315.7635868756943L315.57382482192406,315.6837898054273L315.37879943439475,315.6333224911932L314.9863799076775,315.75733961309743L314.3645281955032,315.99648124814485L314.1376078267349,315.8723475898096L314.07229215155166,315.8911956154452L313.75420906419095,316.1770109687932L313.5952866228399,316.3026649108788L313.4081322643651,316.3086106292376L313.0200907209655,316.2968760054937L312.3351827802726,316.43068016926645L312.07390436331116,316.51587009563536L312.02431362706557,316.59342514153286L311.7472629068834,316.6394559048249L311.4431771437594,316.6601402481274L311.11634483358284,316.79812806710834L310.9527536098176,316.8748726173126L310.20291201904183,317.0131865108824L309.6959369481556,317.25149767617677L309.196921916664,317.2459304606373L309.06729249245836,317.20541913067973L308.6447122745885,317.1568675869985L308.5960116331553,317.1418132483177L307.7145370852486,317.41051222451097L307.3222460508805,317.58233953398485L306.38506923495515,317.4689720748411L306.1126878270261,317.5881439167997L305.68299020164704,317.70585283398304L305.1600995670997,317.91026219816104L304.8728195966032,317.8781017044421L304.7598049949229,317.79390611601684L304.7280693244138,317.7202238383461L304.53778241968394,317.26313870097965L303.88035849750304,316.82650179505254L303.4735977535165,316.78838504902524L302.7876096181935,316.33444711940774L302.77124877243114,316.3361520693479L302.3072630052884,316.2174233242313L301.917708748173,316.23745597080506L301.5708278758575,316.02402878431803L301.16381999177975,315.61144392793176L301.16850163454365,315.5199974741199L300.8176574886784,315.46590052536067L300.66547106675716,315.46851595324915L300.22893518765704,315.4045270956958L300.1414908937695,315.3865261235942L299.3356660705758,314.67706619911587L299.11813162620456,314.67614599857916L298.74032540308326,315.01949074316417L298.5763702152617,315.2079145688158L298.5020548859684,315.28257052469326L297.77618572946085,315.995849035221L297.6843303892492,316.0589709482929L297.5227201475973,316.39063416128647L297.45799551994423,316.4831331429059L296.9819232834052,316.591682290421L296.67345709254005,316.63605672054655L296.59802839270924,316.7924090353108L295.90103698525854,317.2906128156201L295.7183552356437,317.8460173103922L295.64300628832643,318.0069738053162L295.6160366905715,318.06042420479207L295.30270036941147,318.3193790625319L295.2977335884425,318.4850340924986L295.25991462079037,318.5143167127153L293.8524144544717,318.41093053524764L293.1752246650467,318.1648656454845L293.0504044694244,318.0387228233931L292.61713380131914,317.94717253163617L291.9887588164129,317.8375434952568L291.1651729658515,317.93759134426364L291.0134812033684,317.97707207107214L290.36765759718037,317.6632184209302L287.5548055209183,316.61243104198L286.79554644858945,316.63847629094926L285.98015144580495,316.1185367197668L285.3899416074055,315.05013803676684L284.19687295999756,315.1090414747032L283.1904572985113,314.81732288386775L281.7038483488541,314.86329513619785L281.8876040630312,314.6104124448648L282.6068755561646,312.3269649608583L282.68312857101773,311.25192715888625L282.58681772790806,309.3563763357379L282.336079895671,308.45410462354994L281.1439778036838,306.80982749247687L279.8847485007682,306.12385845209883L279.4831311296948,305.2490392435702L279.36909010856107,304.1191370055012L278.90418125172437,302.5775570541746L279.85219300503377,302.06031090059696L280.03162731934935,301.6175894773878L279.3573736410435,300.8603967584413L278.34476908205033,300.93983264468716L277.95474794796974,300.7334797769563L277.49429301702185,299.61586676720344L277.59515946381,299.29212258465213L279.2349028693134,298.8923585428129L280.37266045717115,298.13201150154055L280.8696778038684,297.1218869409995L280.7122080977242,296.6563417096959L279.9123828717493,295.6533771863142L280.1089978874588,294.8189177585473L281.27196525756153,294.3957269399052L281.42426460063507,293.7297749321242L280.5281624469644,292.3884446696693L280.82146948465015,291.93433029784865L282.35139896476176,291.3879194193287L282.90867639123826,290.8363638378896L283.21115292381,290.0802851510325L283.279006513083,288.83153140061313L283.87290240987204,287.9918395008708L285.3375203104806,287.65198061669616L285.29218068977934,286.8926102453188L286.1827896553623,286.18391719585L287.951552161172,285.60409388411244L288.76153123721815,284.6969126730073L289.53382853825315,284.2631024244847L289.9477120432748,283.6568089938082L290.24224900703484,281.9016073432258L290.25184369244744,281.37528083685993L289.8363207408147,280.5946804205896L289.754000807774,280.33283304612814L289.7044504273763,280.0710328890609L289.63305384675914,279.5750890335976L289.2272958856083,278.04383179985143L289.06473409160026,277.8422703369888L288.5845380973078,277.3256387765723L288.54459287092686,277.01438732741735L288.39924257478197,276.3739468053527L288.0866633822152,275.5595699903324L288.0142884200686,275.48816664184505L287.95311307737575,275.43054377421504L287.55813907195625,275.296567493162L287.38052389716177,275.14848807554245L287.25876872219305,274.5845976175224L287.2476117366168,274.3360835973908L286.86972165605766,273.75747702388526L286.69097433754723,273.5610935634022L286.70876511570896,273.3850829255798L286.45283757856305,272.6576747475756L286.2276491425946,272.3254767553499L286.1716191170781,272.25349958927563L285.79782163542404,271.60184739336L285.59377265980584,271.24035115058723L285.2811132968818,270.4024117950339L285.2732357921268,270.0515064915817L285.3411136336981,269.18703462181384L285.72071013030654,268.4000317516429L286.2865912686284,267.18012114543126L286.3310818182872,266.27304908347105L286.37066584216154,266.0964963994202L286.39256546899196,265.86241567330853L286.3960045735621,265.77441045398245L286.4292528327496,265.08647526413824L286.39249675860265,264.9121383949214L286.38336489361245,264.75105597912625L286.77759973727734,264.597406419859L286.9510209305008,264.5550735800416L287.428750513016,264.4780526715613L287.6662758356506,264.38115359012863L288.46547736085995,263.82483026721L288.50154262463184,263.73629873561185L288.20551064808024,262.703948017539L288.17902924419104,262.49969176423474L288.18179860900636,262.3823568157932L288.3493039156492,262.08692162848547L288.7672244429632,261.78203468856464L289.4361022554949,261.4867180988231L290.5663858033404,261.3490984715818L290.96081717656125,261.4388331862492L291.1129234703185,261.41660616989884L291.36448162297893,261.22196758176415L291.72389532856323,260.50402777402905L291.901707163368,260.1787209918548L292.09881403978216,259.9851507705198L292.6930909948969,259.09672470082387L292.72984192458534,259.0375388306593L293.02538570711476,258.88092776008034L293.9721717391403,258.41929816278207L294.143743565397,258.3137176169739L294.38105671391895,257.98735830813257L294.79753742662433,257.40931127811746L295.0252191497457,256.66417886982526L295.1239534689885,256.4624216379534L295.36528504976013,256.31208850231997L295.8049408835941,256.26904996126996L295.9354295948251,256.2669606363779L297.2619503351343,256.2311073989258L297.39148222270524,256.1847128149893L297.6509128378093,256.1115033539136L297.759113898388,256.08523052911823L298.8033636543696,255.59742386403468L299.27243517544775,255.17426114653426L299.31457069527096,255.11507518005783L299.49274956731097,254.81912999184533L299.5758245028228,254.6420985967634L299.7121549386611,254.42029897215343L300.39082474444876,253.88131112692918L300.49881848769655,253.84524048186358L300.6723516244456,253.8225351356723L301.6252305140406,253.69243821731106L301.7662014297057,253.68002514382624L302.2937911927911,253.4652443384066L302.52304014248875,252.99338351859205L302.5212321857107,252.64192052557974L302.4700600605902,252.52621153983637L302.37744850431045,252.24994645294373L302.1095503591896,251.94803489034348L301.99992770646713,251.80463813607003L302.42397616398375,251.2571952169228L302.7307628121489,250.90970960956474L303.4365217790437,250.68259472356385L303.8971467344127,250.83183208155515L305.27576905225214,250.43973541567811L308.8067329174919,247.26081308599987L309.0667104397253,246.70736692591163L308.5037593880079,245.71000641807677L308.6536222173745,245.09538557285487L309.71927472616153,244.2426693407897L309.9513685447928,243.46948163113666L309.9048842359225,242.82512032252998L309.0761292244606,239.70353303599222L309.15895862770776,239.2319934609286L308.67987675190307,238.6725383859748L306.77450819702426,238.5205068828227L306.86852952726986,237.7165421566715L307.40452286125947,237.1503778427632L310.3593555359621,236.32950678709585L311.68029939674307,235.53087317888003L312.38322187058657,235.26942610302194L314.1962191337334,235.20471226112477L315.42323064505035,235.62719159895187L316.5967551205722,236.42694379154273L317.9440206163672,236.52419702034695L318.0083081087796,236.83495411101376L319.32762245940467,237.26009234533103L320.20146245172145,236.8421319485551L323.26437951307526,235.76143330525792L324.29245415700643,235.75061345747508L324.8362701136284,235.92734690295129L326.15452154449304,235.83617972767752L326.9439583973617,236.04058165794868L328.57240185694536,235.43428245700943L329.6487308352225,235.42720560953694L330.703306721065,235.07898968854806L331.3318851311815,235.74151834418717L331.86942407065726,235.9039614086405L332.6292684005275,235.69942027733578L333.5622795568088,236.18907167065117L334.6992135726505,237.0934301722191L335.59661427541505,238.06102476232354L335.8038799164824,239.06879480638236L335.4254763694007,239.76033666494004L335.08173678721505,241.10484303630983L336.30866649786185,241.42505855508352L337.1950615576425,242.50428482419102L338.2589205522272,243.3769252157772L338.3554301684526,244.8537660514212L339.0416257372999,246.0325513640537L340.9148176622548,247.04155025757882L342.4859402157417,248.4748719875015Z" fill="#FF7B46" stroke = "#222" stroke-width=".3"></path>
  <text x="316" y="288" font-size= "4" font-weight="500">
    धनकुटा
  </text>
    </g>
</svg>