<svg  viewBox="396 238 150 150"  version="1.1" xmlns="http://www.w3.org/2000/svg" xmlns:xlink="http://www.w3.org/1999/xlink">
  <g>
  <path id="path-0103" d="M540.5803376466538,339.337593393303L540.0819743149768,339.2856979361504L538.9869821477805,338.98268623379136L539.0210200425608,339.4114801739097L538.9777040724257,339.4019221087783L538.9131239759517,339.54347409272486L538.9351426197318,339.64545080207427L538.3985749859239,339.49145147832314L536.8692392697521,338.8743276494788L535.7405208710625,337.8366225242098L535.429344303182,337.0972662972117L535.7304723000852,336.60335443832264L535.6639643920498,336.03798091750014L535.1310861449529,334.89763457107983L534.7143180899911,334.7527299002468L534.4219052454828,334.5927518086628L534.0844095778484,333.7887463212501L533.4500973645081,333.224514371278L532.9750161398224,333.4898292663711L533.5666243108062,334.33211332140127L534.0465894413246,335.86255773256926L533.8154136453741,336.3656766710492L533.0843766586186,337.4991638471729L532.7939192562226,337.86089239480134L532.7672368968924,337.93430493401047L532.8453102027379,338.4853877483574L532.7381977438017,338.74910274786544L532.4976896111548,339.38848341963876L532.5184710465692,340.426862077431L531.6990034935006,342.3108648393991L531.4412368900266,342.71140176533845L531.2940293111351,342.3904179182564L529.6390044082218,343.3721751240073L529.2334865782504,343.3637388951038L529.0235920540617,342.3692866608635L528.5563633973688,341.8783680678889L527.8832867641686,342.4999612514748L527.3166501828964,342.7117003980484L526.6173710910261,343.4941378213671L526.8277773704503,344.576021761889L526.661242149672,344.7961335131977L526.4314384643112,345.39194151631364L526.0220569862722,345.7148313993648L524.9825602905294,346.4905838481045L524.7346612551155,347.8765594873257L523.7894867625328,347.7811156230546L523.6488377939968,347.94682104969525L523.053485933393,348.5069811887379L522.7159221201509,348.20640898196416L521.99938983233,348.2807422296346L521.2813645277238,347.8500649526304L520.6957970927288,347.1351525287082L520.7409359240046,346.7403388904104L520.1737427355365,346.2930423734033L519.8272513433549,345.71228419520503L519.8983712458212,345.2290984185465L519.267780280592,344.37349633401755L519.3618778863274,343.4326318962894L519.1347880952308,342.87466942770243L519.3509222844295,342.239033112136L519.2361886177277,341.5243351432464L519.4305609420044,340.86956557694157L519.54553911115,340.42523577710017L518.9908391663812,340.1327766607201L518.6964357112411,339.3028021322343L518.879671872266,338.62376920353836L518.2185108721606,338.517996581234L518.5940248988445,337.5545840440909L518.4957481225065,336.85841405087376L518.4297283950473,336.7422910389132L519.2824196788315,335.9142869582938L518.8390740277864,334.8438779818989L518.0765690187145,334.36749428520307L517.4206782732872,334.83756323737543L517.5175167588422,335.3346859168241L517.0714791422324,335.68039025701637L516.7656307859725,335.96160158795647L516.5250481414005,336.8282919096473L515.7557316666898,337.35676756887096L514.6779159862344,338.5892270584327L514.2691093971007,338.972066885156L513.6762478836172,337.65152118866354L512.4706245505004,336.9930014934862L511.8500021364598,337.3587666883077L511.1936172523383,338.51914464517995L511.2144178376366,339.0013091025685L510.83193670968103,340.4324049126308L510.1241500825745,341.895560715212L510.3990444278461,342.29277413490763L510.1005274620038,343.4208047613902L509.7175413187106,343.6577918326984L509.5394187626662,344.3311690028213L509.3949443029305,345.10717585847306L508.83052708340983,346.24244421785716L508.1719728220851,346.57921488632473L507.97734825061343,346.6490937065664L507.8909248524469,346.6933050126381L507.19467896693095,347.0551205799693L506.9556133067854,347.3789154065835L506.7604190662096,347.6184799409166L506.62254083329026,348.43482507278804L505.96372781546233,347.89675289520164L506.1469671235827,347.35394966302374L505.8171812277542,346.5111668836962L505.4503833167364,346.1581807889852L505.13009827533824,345.58580207060186L504.4898595904524,345.00590955148346L504.2399350480482,344.88615752020814L503.7524048461928,344.8411760395029L503.58563439479985,343.8184128965795L501.8187308716697,343.53002243184346L501.56417581997084,342.94204565267137L501.58501507383335,342.31809067892664L501.46825460664695,341.44181617291815L501.5995980337684,340.4850515463195L501.36448635142006,340.24350344101913L500.84090568784086,340.9397325549935L500.9969739026237,341.4015660321229L499.910674097875,341.53697115309205L499.77135930417353,342.2296564844428L499.0926998957293,342.5422913683715L497.21395889583073,342.8014822182995L496.7301004977089,343.097720101875L495.696797583023,342.3173217246531L495.5541676466237,340.82768752316406L495.1731904437256,341.1378953955427L494.6203549410893,341.5711448545435L494.4448692753831,341.908703255378L494.13438428135487,342.8613448876622L494.2981709836895,343.67813055978786L494.18342880655837,345.40409634692605L493.82464584891204,346.5398866311052L493.25705301978087,346.7332089699157L492.3681798959842,346.01774445875344L491.5153930157394,346.84987466693656L491.1186147412591,346.5543219275987L489.8568409364416,346.8389280600413L489.11999308670784,345.3273670591425L489.602061864236,344.08652268823425L489.31927078515946,343.9051166004547L489.15992855447985,343.0780232163679L488.51129603151276,342.569089450124L488.48698752903874,341.94483262227095L488.9438052804908,341.37678907376176L489.0477375819464,340.6711680890403L488.31198036488786,340.1909762220903L487.9904594178115,340.61842241158683L488.0233300541586,340.86081856445344L487.8012164736938,341.261928288287L487.1822491569328,341.552783780151L486.0980671590769,340.9367987071364L485.28444234562994,340.54354607835467L485.2545080091659,340.5243811088658L485.1903601825761,340.05572731932807L485.4686123675383,338.8864984892771L485.9442135711106,338.3668861688029L486.09652534428096,337.56148575890256L485.6257812200347,337.29540753399397L484.6994899284073,338.13062972318403L484.0738706215743,339.44015705470065L483.7918849070011,341.0620616782671L483.8164998273496,342.55891492736737L483.68898051864744,342.84507764015234L482.80313519095944,342.87592105153726L482.7008663520355,343.1714669189132L482.17678320406776,343.4866161080654L481.43202726037634,343.10083405310615L481.16273449292567,343.1387238891166L481.5662132499492,343.85985287014046L482.17810374504916,344.1176282766992L482.95975639664175,344.55024807717473L482.90536645260363,345.1544327287229L483.2013872816242,346.3637824375264L483.6415165298822,346.80966339808947L483.82674291685544,347.49023493006734L482.2496505005365,349.1448544150817L481.54773194492736,350.1559555641452L481.9759262613916,351.1861698699295L481.90050319281363,351.5905906763546L481.7689614294177,352.23452567263394L481.9470025428054,352.8937651647648L481.5276474658749,353.1762530174283L480.4861915678557,353.2590356951514L480.02513191739126,352.92926337824247L479.15196060798917,353.3646534185982L478.1759007967412,353.4605942658136L477.38087312473,354.04033760189304L476.7790902550332,354.82673999135204L476.35231659003693,355.3387521311115L476.4085552357428,356.1841207741618L475.9707729662332,356.67650558803143L476.00796234671,356.9873749801354L475.98118328359124,357.0119258041932L476.0654931073623,357.1999948528837L477.53046881108094,357.8463543942853L477.5326373075659,358.6413169727339L477.8678014240031,359.2072113692884L477.7130448320713,359.68767435600785L478.02380801217805,359.7662266316902L478.3559178648102,359.82018038661954L477.9403746221651,360.29891156961276L478.4131990619353,360.9802107893265L477.72469588985405,361.3604747196896L478.306949809099,362.0890723920693L477.75877833151026,363.0725297459003L477.30243385602444,362.72786142278983L476.8790361037427,361.7575650857307L475.31112591805504,360.8522897118455L474.0075179148298,361.1389197871895L473.23428199021873,361.6521808453517L473.07134918810334,361.9669252006215L472.0690921905443,361.7511042516926L470.3657663531594,362.08074047101127L469.68948326566533,362.5141673485132L468.08303968799737,362.45741673505927L467.6053457203343,362.72187123170806L467.00418260384686,363.4423015245666L465.8362839056208,363.51090742962606L465.62627797189634,363.21566988880295L465.02963709407777,363.13025630931224L464.7123790792466,363.27093659487036L463.84840949166755,364.141063370962L461.84107603289885,363.0064469400577L461.29257934054476,362.27139641873055L460.7347623565911,362.2133364038991L459.64182620813517,362.65247421354707L459.43229048567446,363.4375312415532L460.14959935401566,364.6119039408459L460.1721022944621,365.0014589521961L460.1516921193106,365.58633411576557L460.5646650567578,366.28832937160587L460.2953217438808,366.9171319889847L459.39655479397334,366.87024604324597L459.1689500143839,366.78257946379654L458.4754295743551,366.4913653488502L458.30742265115987,366.4425863253855L457.3006468770691,366.47392565971586L456.63445073693947,366.3186380425641L455.39005813561744,366.63849991302595L454.1271167196792,366.00171138515634L453.66014157046084,365.43637694089284L453.50729007775226,364.90971836448807L453.4799662098485,364.79278213485213L452.7310782238019,364.13549653670634L452.193158402828,363.3465975732988L451.23336947774806,362.9774038839505L450.4829853217816,362.37882565083055L449.1151505392918,362.22015726011523L448.2349985404071,361.8072622143354L447.32872769763344,361.73533216613487L446.6299182414914,362.1564125080322L445.83284283951434,362.3531959699085L445.1774508932649,363.05181702003756L444.4123175324712,363.2873610785382L443.924223502745,363.6740257289848L443.2732207280387,364.0264407246259L442.93205784273596,364.490449840182L441.92880209746,365.20500856368017L441.631935194222,366.0495232299136L441.25269734986796,366.49435158287906L441.2793212861761,368.8063525541447L440.5045135838045,368.84633842607855L438.8834397157225,369.23832856482204L437.1627660646045,368.88377351941926L436.448795880573,368.83041602194044L434.7300629803576,369.0661683197932L433.4463624817254,368.36496930420435L432.9191912465176,367.3606771533723L430.31895049928426,366.3833781416479L429.60491377175276,366.20188412114203L427.95641167750364,365.36031979184463L427.5457058966058,364.87672851472144L426.2200207148635,363.8517238963814L423.8392234943458,362.74716067002646L422.83679481818035,361.96492936765753L421.2849201451354,361.45148708991746L420.42525253137865,360.91681175633585L419.9740213679761,361.26200616392543L419.32175298321454,359.8575028076866L419.4723459314082,359.1150476019302L420.0931842112841,357.70535969512093L419.47844761757733,356.25271091220293L419.2178740939453,355.0848460684347L418.43192901846123,352.8881706779239L418.5557272799924,352.1852737212912L417.8283804791645,351.6455617258498L417.39245069814933,350.90827883886595L416.5691117466231,349.9487753642743L415.86806627154874,348.67524527567184L414.8745494087452,347.4664498375096L415.81269503339354,346.70825625743146L415.7067521423087,345.84144495429064L415.10128981693924,345.93801619928126L414.4052818383716,345.53313136145516L413.64120490231653,346.7052203778776L412.7493299251146,346.37650720996226L412.04440434573917,346.8517384645402L411.22999958397486,346.4745286319712L411.31314666335675,345.95721767067243L410.9331907032283,345.6269499900691L409.1563569958744,345.0715324719822L408.7371787158154,344.70545163938914L409.76037893530156,343.96014510032364L409.96919675965546,343.12705502388053L410.7072836573316,342.3591468858185L411.1985372869749,342.2147993344406L411.7954761224246,341.3783567092314L411.76382644049227,340.87489222823297L412.2648443364087,339.95634073354813L412.8384835416655,339.43851119228657L412.6991679198727,338.67163838506985L411.384749002169,337.7841060588398L410.7321137047038,337.0734804044596L410.0839101950587,337.21539326013226L409.2309870682693,336.93640141375545L409.03518939423884,336.5477895623553L408.20033793483526,336.54673710917723L407.9384699737784,335.91391356183885L406.9317886509489,335.16489951097265L406.9291430351441,334.39867747085464L407.496101530709,333.6247503504392L408.27459375450417,333.0807577558908L407.76482827234577,332.49394863075304L408.2137336992746,331.4445214260486L408.29030007174515,330.87022390269885L407.24069266446895,330.44944588188173L406.8678382528524,329.9582069553762L406.02392114698523,329.90886651087567L405.8091384144682,328.28687567199086L404.8392094015144,326.82363913517656L404.30392649409987,327.1157196052409L402.7289337897273,326.47696126841674L402.37925078509215,325.6326814885979L401.6209196167183,325.13168351757486L401.3770827451881,324.3850933667891L400.6733821249036,324.7782776868107L399.7999416094244,324.56039918692204L398.08827184090114,323.60084806308714L396.3089034285331,322.2424389269854L396.44336586596546,321.8340343692371L395.50691011214076,321.20643253875187L394.4452464577007,320.9315069633758L393.0077856262724,319.6460417337139L392.5459039982561,318.87673730168626L394.3357215532087,318.74112881896053L395.22533005908554,318.88301411590237L395.561715383079,318.49907662239366L396.30231117294534,318.8019675901269L396.7195812754908,318.61223274672557L397.7124820898571,318.6315397826056L399.0451122385566,318.9169592941207L400.5741106619025,318.74543007344073L401.9917363654822,319.25280470117286L403.19857746313573,318.83201812261814L403.79685697401146,318.1134044121436L404.6441344785999,317.40630465563027L405.8346251284893,317.453774878838L408.3004630302894,316.5414014694379L408.929280387325,316.4736019513384L409.6479232806996,316.0472958983719L410.22385290735474,316.0862538243364L411.207263223092,315.5806841556814L411.5823426335919,315.1205777801415L413.6071150684329,314.6304269355378L414.2647431466139,314.2039307866844L415.1270561466772,314.070059420108L415.42510538899296,311.25350508702195L415.2265150548992,310.65316467511275L415.66741583027033,309.28053680750236L416.54002057813705,307.74667512689575L417.6641098837572,306.28599789535474L417.53858721854704,305.3868781965948L416.9707036563959,304.6828945928237L416.58982136999475,303.53805317364277L416.93296995513447,302.831073984843L419.7373180657705,301.8176731501271L419.09532625131396,301.18689580807677L418.6905393113484,301.08306206691304L417.67709598770307,300.00756564585754L416.05135973391225,299.18620245798684L415.0244631386995,298.4759820396439L414.365437830671,297.68759541470536L413.1273546848097,297.31058459110955L413.1265961938625,296.8762939217331L412.34612729269793,295.93436240725714L413.2311800713069,295.3881375058645L413.7130984665382,293.83911624885604L414.84710867112153,291.5000438203706L415.64266111798497,290.18670643510177L416.1397254767726,289.87104812198413L417.47859350191356,289.8477322068902L419.34383224325575,288.52366957336017L419.5651793709003,287.3392596489457L420.71311150690235,286.3522233484673L421.6834435245146,285.18599357722815L421.79439141563125,284.7499643803976L422.8797769320081,283.65453178243206L423.7594377260066,283.49050184072985L425.04712303602355,282.88567382515885L426.7887122814209,281.78916192382803L426.92917189101354,281.0007131257398L427.5714213997526,279.63736975019765L428.38356772477346,278.7719281392401L429.32113047124585,278.3276314849245L430.69889102158413,278.5506305344361L432.09372420429645,278.5460010601237L433.58942271617343,279.5865350006379L434.4671456019969,280.3764469647558L435.3553964447892,280.36115261347913L436.13234996250685,280.1220715393447L437.31224767891763,280.2177024075545L438.01855936269567,280.46779704337496L439.0600588368834,279.5164171017532L440.6157420213058,278.6807058995146L442.8084729437978,276.820767666989L444.09364168422326,276.23905607942106L445.8483448250372,275.9752953408988L446.6243349789511,275.40514328379777L447.9838922751878,275.1696998614234L449.76454160457433,273.2819209245954L450.69421768136453,272.79672834829944L451.7833185468953,272.56272365458244L452.1295993213098,272.29500566432034L454.0126948115867,271.61136978798004L454.3173360554247,270.79583454384647L455.00804393337603,270.01024334087833L455.20689580369435,269.4931852903019L456.11289376698915,268.78885636101313L456.87152733329276,267.8696789106816L459.0055486105193,267.9062344398526L460.00892732105785,267.0283308317321L460.2639659510605,266.46736474211866L461.7783945347401,265.90266362061084L462.3022365271863,265.50443213034487L462.67107454410507,264.50820147833747L464.1667193083049,263.8802369909954L464.23585199331137,262.8844260374817L464.92997576743437,262.3958443131869L466.5434697618475,262.1811229008472L467.6789035957481,260.8308819386739L467.8526948859435,260.25048099386186L469.09627681075654,260.0404342393931L469.39761510004246,260.39149361400996L469.9716529717771,259.90971679102586L472.822918508733,259.67450077402646L473.80023976813754,258.3343791300458L474.83884047827087,258.11686426274173L475.29534408194013,257.76035837968175L476.23598738461806,257.5784839013686L479.20964002328765,258.344252966971L480.67002303795744,258.10786752447166L480.8076959905993,257.3846419911588L482.3376856322757,256.6782941290685L483.10237107853754,257.0751796919676L484.5564733949723,257.3594492686325L484.97141991393073,257.9702525140965L485.87359250442387,257.87751503444906L487.56886667679646,257.29791452187146L488.1413539774694,257.2806024659467L489.7361609632353,257.74725239890813L490.7532537890511,257.4690709873221L491.4345831218343,256.89293028648717L492.4788115968622,256.85712908486767L493.40406560306656,257.35890418492636L495.4837725818252,257.11313957311086L496.7115451421814,258.02265802379407L496.7056454510166,258.48447832266993L497.6893968141667,258.9683772835606L497.8350247189701,259.8718776663227L498.64884491961857,261.1454368592713L499.50795003177336,261.4547615493175L499.9952541871389,261.37605132388126L499.950121478887,262.72393052785355L498.7063273992535,264.1051284946516L498.76113202561464,264.921119247706L499.3439158931178,265.82606137444964L499.9841616710037,266.02281864481756L500.46558406846816,267.186441229981L500.3744227713469,267.640743490535L500.7095757170391,268.40586005358455L501.25783327170575,269.1207727696383L501.2152021825532,269.7980344709249L501.64387254173926,270.7312099539231L502.28613435551597,271.3087920439966L503.1817127309805,272.6480351074524L503.5306616598864,272.71675686436356L503.9938846864352,273.59960434905406L504.20860195986097,274.4024169183058L504.6256409104717,274.5561793860579L506.2839175029003,274.38383453064944L506.96985983954073,274.88991557893314L509.3661501070346,275.64119760291396L509.7444246798841,276.27730070805865L510.68760060549175,276.072182122135L511.0439970459447,275.7884368144387L512.2806852439426,275.75524478924945L513.026614558541,275.2076041163673L514.3432163807447,274.69597387730755L515.37545625239,275.6615587250226L515.8135541991251,276.4431306034976L515.9524726595264,277.9258501843906L517.1795813054268,279.74537198522376L516.9768243053804,280.86137232883357L517.5199749534877,281.87214776931796L518.1921586545141,282.6170093515584L519.8948900177129,282.784974877748L521.2262922285154,284.3799891100998L522.3542518551949,284.9870194997766L522.4158848345396,285.5437103098702L523.9517776933135,286.5922886870658L524.7534057639314,286.9443107046409L527.4430579304972,286.8570524231691L528.8973217003368,287.2167094723318L529.1686789472406,287.5898822810159L527.9368412242075,288.6486441416873L526.1532429020626,291.1524765546501L525.7070710506669,292.58284046165954L525.9999248812128,293.9109428306965L525.5948413872829,294.7756446221647L525.3212821511224,296.32990410438197L527.425402736706,299.1702004776462L528.293620905959,299.49926411637716L529.074629673436,300.33032875702156L529.7325475066864,300.7313585476777L530.1473791601238,301.8844678970545L530.8147005322426,302.4765472439094L531.0339355693322,302.99136740957783L531.8440988031689,303.872774856095L531.3185168906675,304.82100741917384L531.5832643438844,305.2585593102867L530.8464763206721,306.379349105202L530.6984928732745,306.9613907585572L529.9693674531518,308.0788188821116L530.0895647413563,308.7602199406101L529.5372195166747,309.0306980298574L529.3822890184456,309.55919427273875L530.0588301522002,309.9701490361831L530.7761788209027,310.76737655059515L531.0644304439957,311.48004792762003L531.5502873523656,311.5012437184405L531.9594663563148,312.08088541356847L532.3779044086077,312.1078655550209L533.5837887330126,313.02934925647514L534.0860827352662,312.89943510615103L534.7749828736305,313.1667677845344L534.7711998762497,313.5388783218232L535.8311975994475,314.08422359397355L536.2914852067297,314.7816613705181L536.5594370926156,316.01704345024154L537.0907291445292,316.7593747057572L538.541204277768,317.2361279774723L538.7699002929003,318.36363906926545L538.4583977008733,319.3900433124072L538.873452611464,319.85765509264456L538.8309342779357,320.5917922474L539.1641847509163,321.0610305443388L538.8925091962883,321.39755521189727L537.9482019973148,321.60715060312486L537.2932340435327,322.0221924276557L537.2978325918557,322.4806352667656L538.1103838819581,323.29259767364783L537.3268865347782,325.1019609200821L538.9819237992269,326.0629782644346L538.9560153560851,326.5401570423528L538.3978348659075,327.30914575474435L538.4941820899257,327.91675293407206L540.0566429910577,330.1533700582049L540.2382430619655,331.08150020320045L540.0001042910626,332.2269906299025L539.8770271233589,333.7939131774174L540.3233274579652,335.1866787592853L540.6851855017376,335.4772774024086L540.8333960967975,336.4678275505603L541.7392137015304,339.0084923780578Z" fill="#e1b03d" stroke = "#222" stroke-width=".3"></path>
  <text x="465" y="315" font-size= "4" font-weight="bold">
    इलाम
  </text>
  </g>
</svg>