<svg  viewBox="100 164 160 160"  version="1.1" xmlns="http://www.w3.org/2000/svg" xmlns:xlink="http://www.w3.org/1999/xlink">
  <g>
  <path id="path-0105" d="M215.7314151495084,173.23792601761943L215.78736751048564,174.12197484537774L216.4579838877944,176.82552316778947L216.5651626842373,178.12254510411822L216.8105096106883,178.7361390196138L216.8579598691431,179.84337113930633L217.7707250453168,181.17611308355936L217.90306094805783,181.86396529864396L218.85590563503138,183.0954783779389L219.13273917952756,184.04785319018265L219.5263676223476,184.57970045712864L220.76254188647,185.15134550270614L221.38882202019522,184.92381802052387L221.98440734754695,185.58671351714747L221.20122862289645,187.40591908730312L220.8029909864017,188.80444900899874L220.2734473112032,189.2597142989125L220.78334621937393,190.15098809145366L221.812348902753,191.07022832205348L222.24216326380702,192.65125395777886L222.81584756778102,193.4838831259458L223.95824454251488,193.64728745763023L225.1218055101126,193.4494944658909L226.1137462864899,194.0496292027874L226.967873285932,195.510333396217L227.2537824500214,196.2401781753042L227.14448387310767,197.06391371352038L226.45233766896854,197.6359113402159L227.04846690930935,198.4007201227614L228.10762024966607,199.03481946927968L228.74511737115608,199.60636357816475L229.6160948201832,200.87272023769856L230.76641796157128,201.42289131181406L231.63403403914708,202.68929583956924L233.28805268361248,203.83996076954827L233.71893121414905,203.82953404663022L234.22236852593414,204.28098954501547L235.53306977961984,204.98084935117913L235.72759270763345,205.36966797479454L234.18946270760716,206.0480386342333L233.82323927189645,206.42831195357667L231.99727605079534,207.26214637932026L230.83858084281746,208.50083404588077L231.11269200430252,209.53442740011633L231.08746735168825,210.69636947815252L230.90371724600482,211.19626856726063L230.32100831095522,211.45698043570064L229.74911647268527,212.4476535042122L229.08746721042917,213.27385224538284L227.74993542745142,213.8788233184323L227.16527395509547,214.45596493016183L226.4959913488783,215.89365921354874L225.94315986973743,215.76272862694987L224.63708418930764,216.0445304222294L223.80917759670047,215.9591844251454L223.01827175726794,215.583933862481L221.66974514553658,215.34414193943303L220.28214492682673,215.30921272868363L218.4315523948062,215.4028740474978L217.34044732400434,215.73773957443973L216.6563997901394,216.58200488425518L215.85665574688028,217.08584979603802L215.45084743538246,217.60611310043078L214.1631023435184,218.35480048892623L213.66352435636145,219.5424004385568L215.11857162007436,220.8632006280577L215.46157207994474,221.39275479083517L215.6442220541976,222.3043470389357L215.97236063022865,222.90234281643734L216.91452323624253,223.74901721823153L217.66392691896908,224.73504706509448L219.06890808276876,225.5187843008298L220.35957484252867,225.784402112532L221.4219553702569,226.8370516677669L221.49440519756536,227.41915238556794L221.14143978764696,227.96981193556985L221.3825268610235,228.29640169658978L221.53768140021202,230.71110741986467L221.76173879557246,231.77917734678886L221.65700954593194,232.4827104145379L221.25820430356907,233.43893678117274L220.29934741964098,234.10381923643126L219.39688668132658,235.55848462212361L218.79853810785062,236.02244971242908L218.39458053705675,236.67325503205575L218.24202730879188,237.38317744131837L218.43907040172417,238.6474113780705L217.595567769833,240.03245546598555L217.45436802745098,240.507676089268L218.46997930544967,240.98736918878876L218.9681945354714,241.58760839956358L219.89277395172394,243.36279793576978L219.9665671877956,244.1864826539686L219.1987184067948,246.24735201179828L219.45969907059407,247.8572647407118L219.12520894013142,248.2106452908265L218.9031235478542,249.17657086144663L218.35479769527228,250.38371967945113L218.57269279703178,250.85756396617307L217.98874389033517,251.24561562391682L217.07487500693605,251.16508231013995L216.23271684962674,251.38074461651559L215.14276537101978,252.02861459844007L214.62486719973094,252.5029496417401L213.44803598531144,254.18518419878183L212.86988295694027,254.43987386422396L213.7490308536253,254.89019188686325L214.4596429598605,255.8687189237935L215.00663497180722,257.0579099231045L216.83013523979753,257.954052187818L217.74171539714007,258.2773484739837L220.39499547461674,260.41278114444503L221.4117276977886,260.4231666544847L222.34137494861352,260.82019321778535L225.00945440475334,261.47360563778966L226.0812703103402,261.99317417423663L226.1907647100452,262.8352910106705L226.96082197357464,264.15745771767433L227.48461257628878,264.3240912078991L227.91486922934928,265.0142167510294L228.67266878303417,265.2831895844283L229.16605487738707,266.51690990832776L229.53570268540716,266.82570212052997L230.67527492366207,268.9405300827111L229.99192051508362,270.90625584086683L228.7946300765543,270.93882458295593L227.95437413288528,271.4568014554234L227.70214370591202,272.239771283138L227.49356159998933,273.6681380046939L227.07883383168883,274.27975234003134L226.9151301083948,275.04256739128505L227.13898024924129,275.37556198604307L226.9261965506994,276.2609064283197L226.35323950852398,276.6379015319726L225.6822469286344,278.58933662771415L226.82816601681043,278.80002563195103L228.24141299009716,280.20425995374626L230.26007806759662,280.9624169536455L231.3101245105281,281.8411119851735L231.13082158580437,282.4664392042823L231.6262252474953,283.44194319366034L230.99050857945986,284.90202095956556L231.1773719312696,285.43809401150156L230.76306304973332,286.2682555758911L230.3851122696069,286.55424704314555L229.24973480507833,286.8720985823502L228.7427037814923,287.4630037111074L229.08205250886385,288.5627595764763L229.587593533397,288.3175662565782L230.36876518378995,288.66192622682684L231.26945473208252,288.5213476613835L231.75546378356012,288.97106723386696L232.0930872571189,289.85168647518094L232.6978653293736,290.5458716114081L232.43513013665506,291.77232461288895L232.69483303267043,292.5011028676199L232.38407363924853,293.3156976641385L232.78885673508194,294.72898276752585L232.45075227723646,295.1788919254677L232.3403748310957,296.2252694711651L231.94541441181718,296.716043708876L231.12822695252544,297.2765093075059L230.9641467770416,298.31543188808155L230.68216386820131,298.6514304228185L230.99631956156372,300.18783515131236L230.71432499182265,301.4591673444784L230.78352736505622,302.1598140577862L230.38935955752822,302.46995784815954L229.91651195238228,302.1427824817101L229.79273395577547,303.0620434882876L229.03880937194117,302.9730955164414L228.49556250202295,303.3241537751501L228.36957763632017,303.8534455238114L228.8060461984678,304.4952511407846L228.4129759714706,305.4681101205015L227.86384701055795,305.6506459191796L227.57119773594968,306.32319589047347L226.88119366750834,307.2679888555276L227.34062176487714,308.06453597421296L226.26852925842832,308.0217786838484L225.4520368717749,308.31258903860726L224.43122665226838,308.3256545487302L222.9589323292712,308.0277624815799L222.3054216970777,307.312468965466L221.57403934055037,307.9732054058195L220.40231875769678,308.06068917598805L219.67536367050707,308.6530000841085L218.63305647174275,309.8489579486086L217.74024386930614,310.32578485489285L216.77577707550518,310.1693549802576L216.33722636716266,309.74740296946766L215.83886485355106,309.7511873283529L214.36883321874848,310.21698371996354L212.05523371568415,309.80623201503386L211.15075117797824,309.8811412353416L210.6248079530742,309.6244314162677L207.1495123712084,310.22967822273404L206.1813501064389,310.83572612371245L205.39891052024177,310.7933142436905L204.70323993245984,310.4810544805223L202.5435743827693,312.069740999812L201.85599370671844,312.3649779812213L200.76949968823465,312.31377717866417L198.26936678436687,313.3738809455972L198.01126667858261,313.8349406704565L198.12746536175473,314.57055604246216L197.81324594231774,315.2519960636164L197.3202135984393,315.6431686932692L196.0838898228758,315.5416749488177L194.40880410012323,316.3117011230979L193.49711116283652,315.9320391986248L192.2780049653702,315.6632652357248L191.0268299778836,316.13085796208725L190.050466259323,316.12760878941117L188.78992816313985,315.2981292172253L188.46899411855338,314.8700256259608L186.95115504589194,314.62314654644706L184.72864447200118,314.05870264212535L184.3703250987055,313.07730151041505L183.8987153791859,312.52350161429786L183.18775447237203,312.3577951923826L181.83453270462996,313.0853266514496L181.43784773645166,312.64589712568977L182.00421584707146,311.0682467950919L182.0355841207238,310.3514439315577L181.80454288700275,309.71675610495276L180.8487203387558,309.26615232651875L180.57516359323563,308.8023934239545L180.38174377604446,307.0930989196813L180.02158048309866,305.5549266570115L179.43989061445973,304.3156634779252L178.8098599166333,303.49702243813226L178.7222580448033,302.81205262232925L179.2897032828987,301.6951389614005L179.52771736742943,300.61329601011585L179.44575962398812,299.40083686390426L178.86376259065946,298.69772966795244L178.8819798357399,298.34562909292345L179.49387625752934,296.6913798351288L179.65305867408097,294.5702044519885L178.72655527955067,292.1920261977366L178.63064602206578,291.1596401539773L177.46389898824782,290.6398977264507L177.15393578298244,289.9564930602155L177.6068698527779,288.7983190616251L177.61431071611514,287.367136037793L177.3717096538967,287.0086036759012L176.55528125521596,286.56076965885495L176.62319851877328,285.28364241260624L176.9969003734186,284.4678837356696L177.04026565875392,283.80857725151054L176.85640895123288,282.32308735850347L176.59916367446567,281.7845461882962L175.75529897114393,281.16995853037224L175.33851935041457,279.7078918506377L175.36056737931358,278.2168543194193L175.18367114426655,277.41587356750824L174.59588513213384,277.16958399311443L174.46882503888628,276.59113240423176L173.13091807156889,275.32463974182883L172.52901583893617,275.0042056045595L171.4091782791911,274.9171596820788L170.02642695748727,273.68135170683036L170.02493122017404,272.2777940456317L169.7187544234621,271.3562943949846L169.28923760091493,270.9809417116776L168.27130971845327,269.4407578115297L168.037597314913,268.3068911714827L168.23617929227112,267.810066583922L166.3224347123287,267.05060116963523L165.68593509761558,266.18161717485145L165.99402862424904,265.11162621189305L165.19015663439131,264.05659805025516L163.5874476862009,262.730622142798L162.84511035000105,261.40458365352515L163.24698507468565,260.933771592031L163.0258151027374,260.02998627922716L162.5547309612084,259.466707380393L160.4981589615927,257.5735331971564L159.401739935136,257.4966033255587L158.54832273028296,257.15337569379244L157.63416744509595,256.3397900531172L156.74276992158048,255.187374725273L156.0388472742452,254.86574752253728L155.31692131345335,253.7284959975459L155.2619317430399,253.14247584090754L154.4337009326482,252.79298673736685L153.03140540559252,252.42188857151723L151.68793615048708,251.77286589265714L151.0462432520144,250.90700462900713L148.90488346324491,250.28597121828807L148.00196700976085,249.82636546964386L146.36324919223625,249.7247671246405L145.19657299845858,249.52249007414048L142.86488032555644,248.50999323872747L141.16007380532028,248.03376884469162L140.62169802009157,248.20091452348424L139.43004663939791,248.19387734101474L138.94289693002065,248.02555439196294L137.7201294260849,247.11614662594548L137.03830619055952,246.95302065348187L136.0727118740324,246.19478165098917L133.9816503512011,245.05162716402901L132.94374311377396,244.88270825417658L131.68518838048112,245.14245961233246L130.77232494652344,245.87806038011422L130.10878381467046,246.16020110700993L127.92637868685415,246.65647005957908L126.44208837693805,247.80236222668827L125.60862073336466,247.65199988191398L125.13272468423384,247.78928899103266L123.87077569812027,248.74819036103054L123.04603914900872,248.64675322267885L120.6880487804483,249.30104877433132L120.20225035084877,249.7450017833071L119.46783360452173,250.78630731377598L118.4386008511392,251.74635174294144L117.70450023461672,253.41984754842633L116.91151399998853,254.08289456678813L115.92775454807634,254.62352786575593L114.79342947457917,254.96685319029802L113.80473638259355,254.98871200088342L113.07371285404952,254.53342063731452L112.47011882684455,254.80418526043468L111.97130971667139,255.47205446661155L110.27844698362605,257.03524154671504L109.57025907280331,256.9026245947807L108.41822090477217,255.8352077484942L107.73523882784139,255.86246208196917L106.71423637288171,256.54786470874296L105.96640542197201,257.5687782169298L105.33937352464636,257.66313469666875L104.42313864938478,257.1793929555106L103.39193566850736,257.63656233659094L101.8880246774388,256.81862142410137L101.92776849364964,255.90847514310644L101.67236661761854,255.14501438563548L102.0924894558193,254.271376443211L101.74048454740478,253.55372014199475L100.56741834183413,253.25913642025353L99.91223162029928,252.35631448450567L99.1188836115507,251.73646862329952L98.79394863477864,250.4377614560908L98.18359693779348,249.8137703267439L97.41150976167046,249.6281665769584L94.9056855912313,250.44120495439438L94.03776059955999,250.3262267654718L93.43422439089409,249.5659741620375L93.60990951918575,248.85947684588882L93.97476347235715,248.49445017312155L95.5371076174415,247.7777491383349L96.05225062340105,247.3408214537103L96.45857845138744,246.516061359961L96.11322174263842,246.03715309860218L95.26875882947206,245.73799149044316L95.47301989324114,244.85307783277221L97.24649302294347,243.33720586450545L97.55775213258676,242.7923941365607L98.59271371771683,242.29074422207395L98.77208531158976,241.89027331287798L99.91082445685606,241.6114223983168L100.81515036455312,241.68843537787598L101.97582378832885,241.29913161258992L103.1887891262304,241.24961206903754L104.0348782443798,240.8592781078687L104.84315524535123,240.07105781599512L105.48967511679803,238.7036697924632L108.19722734792595,237.76234812551047L109.09607343310199,237.10849178892113L109.7571016338552,236.275474868542L110.20207493434282,236.08462491340833L111.32439537715618,236.08231163506025L112.32480394896265,236.36402561486375L113.97294913058795,236.30815787865686L115.29799881525832,236.05560646024696L116.45583303271633,235.50169933425695L117.72116285580341,234.71334373041464L118.56051996871611,234.63743214064561L119.05552856597569,234.29926356051146L119.12502224042328,233.73188112627577L119.64733423453436,233.30561137951008L120.18669524360303,232.28108502401392L121.70234749469091,231.622040371376L122.2563967241149,230.60208607695495L123.00854905118467,230.53003136087955L123.3849861995077,229.49746243061145L124.07289749573829,229.03851451668925L124.18430179293136,228.3254864206483L124.88436506511061,227.7186629490334L126.22593117182987,228.03534045391916L126.51215939129906,227.3228988217561L125.58815654588034,227.13141911449566L126.7496406090977,225.91750542055343L127.18514247270286,226.07028017289758L127.84518344139724,226.7486920147785L128.89541834367628,226.79487508907005L129.61681301077988,226.19499732991608L130.4473068718471,225.8513425635765L130.9656940094028,225.89406170786424L131.22892889644572,226.42012828176757L131.7435409837417,226.48762083298607L133.5221078156028,226.277518721452L134.30139975396014,226.65023661098257L135.3767601657055,226.08165797043512L136.15368651620884,224.60800510978424L137.07848346177343,223.94443005031553L138.18716062499516,224.37608847840147L139.88428867477342,224.1262866420957L140.4155146913472,223.36840438818035L142.10176370057525,223.93494411475785L142.97451605009337,223.3239913710877L142.72595406376422,222.09257729679666L142.9902256584246,221.1945350884671L143.6113554519361,220.74476475344727L144.3758878591325,220.7605555439659L144.95779832118205,220.4104209192874L145.62430957259494,220.45755047820876L146.52363435333245,218.36948471707183L147.2172049350629,218.09274416785502L148.9054118952954,217.84969732569698L149.86193623669897,216.88148124248164L150.47546759585384,216.45718534424122L152.41018187831287,216.7233180171288L152.69412508909954,215.69645407975804L153.13138191053076,215.23003856959713L155.04433057332426,215.30023118169356L155.74784396908944,214.38169357939114L155.51575055308422,213.71557347596354L154.9051179486887,213.3736163144331L154.79835570501382,212.89471997823057L155.5296260083669,212.23380873295355L155.216823562223,211.38726681765002L156.27114415839605,210.30454998331425L155.83102150656123,209.37776376865258L155.08016757961013,209.08331650915716L154.863117373563,207.89429544475388L155.78051043710366,207.41700641347234L157.13838796574782,207.65428126675397L157.37546197894335,206.5861398840525L157.90790853379804,206.28639713185112L158.70136708756763,205.38092174226767L159.59682226532823,204.8462481380011L159.4830084843852,203.9008802784083L158.77935724086274,203.60221040323995L159.12470432535702,202.15996580945557L158.28185605997714,201.39283526595227L158.1524356091686,200.69886533034241L158.7702316459763,200.05898551747669L158.8265668165368,199.51355682464418L158.5428340828512,198.4903510742579L157.9548228956628,198.137369038036L158.01906615225016,197.1553399583454L157.7418332933412,196.13844294797036L158.29333063083322,195.7310672712647L157.93403981902884,194.7730541771043L157.75299374909082,193.61846035024064L158.09083367643325,192.7382123168918L157.87791765158545,191.92651075526283L158.094122306371,190.85843353463133L157.79874141782057,190.44036664430587L158.6936279577676,188.67016457212594L158.71546899501118,187.20680064407406L158.97803622042557,186.3295968368211L158.45477427726655,185.55369856410562L158.34676774268883,184.26837039483416L159.209260449461,183.65843740896798L160.14306776479862,183.44465356397632L162.2722908586984,183.46813133217893L165.69982414034166,182.89600675976726L167.03354735026005,182.9847055733644L167.72238988794925,182.86941392257177L168.57427457731683,183.07419734954874L169.4553374180541,182.96028838173243L171.9154457289551,183.15567613817439L172.72552742770858,182.59734583513L173.70365453011982,182.4045587597684L175.09809418061923,182.6930522656021L176.40538116094103,183.18191660697266L176.84164374853572,182.42417936482525L177.64338853213485,181.63130699575777L177.87721494353173,182.13304668807177L179.93104483322895,179.5612673707792L180.4011932951289,179.586367065388L181.3633922057743,178.7829452924143L184.07496794587496,179.00982492051935L185.42048044446346,179.8469650574043L185.79925023544274,179.87342050937968L186.4858294626174,178.97909890786832L187.37625377173026,178.5998839656213L188.32796982428408,178.5030043657298L189.66785804444226,177.85458854917852L190.20048784058963,177.19866722228835L190.7949980422527,176.06470697735585L190.9030527934774,175.18334772421895L191.50992159876114,173.88429008683033L192.580849762875,173.1730773503623L193.65886804263937,171.78082865624037L194.5592690000085,171.58525484814982L195.1403442407318,172.38175134125868L195.91292848309968,172.70922382732533L196.57050450955285,173.568345351041L197.6549013803633,173.90929034421606L198.78614032127734,173.78545160778413L199.52321363083684,173.32903569855898L200.1622112501027,173.32027814883986L200.83624982563924,173.00893474457553L201.98661584963702,173.34763223567552L203.31420598652767,172.72101071504585L203.79275016455358,172.75503180362102L205.33392943737272,173.8331628165106L207.05707772943424,174.55686458983837L207.89518615898123,174.20811133405186L208.3586604800439,174.26982146985847L209.8877252160164,173.57711288487826L210.4825045406178,173.813604194047L211.65982937224544,172.88830321092246L212.1392152017579,172.8004967884035L213.14389236584975,173.034415926365L213.55612959116843,172.9219488613253Z" fill="#FF7B46" stroke = "#222" stroke-width=".3"></path>
  <text x="178" y="245" font-size= "4" font-weight="500">
    खोटाङ
  </text>
    </g>
</svg>