<svg  viewBox="288 309 150 150"  version="1.1" xmlns="http://www.w3.org/2000/svg" xmlns:xlink="http://www.w3.org/1999/xlink">
  <g>
  <path id="path-0106" d="M387.57477945683786,319.07802421168617L388.47873102901576,319.46313437208664L389.60467311858883,318.925348911107L391.78419322482296,318.9868370946824L392.5459039982561,318.87673730168626L393.0077856262724,319.6460417337139L394.4452464577007,320.9315069633758L395.50691011214076,321.20643253875187L396.44336586596546,321.8340343692371L396.3089034285331,322.2424389269854L398.08827184090114,323.60084806308714L399.7999416094244,324.56039918692204L400.6733821249036,324.7782776868107L401.3770827451881,324.3850933667891L401.6209196167183,325.13168351757486L402.37925078509215,325.6326814885979L402.7289337897273,326.47696126841674L404.30392649409987,327.1157196052409L404.8392094015144,326.82363913517656L405.8091384144682,328.28687567199086L406.02392114698523,329.90886651087567L406.8678382528524,329.9582069553762L407.24069266446895,330.44944588188173L408.29030007174515,330.87022390269885L408.2137336992746,331.4445214260486L407.76482827234577,332.49394863075304L408.27459375450417,333.0807577558908L407.496101530709,333.6247503504392L406.9291430351441,334.39867747085464L406.9317886509489,335.16489951097265L407.9384699737784,335.91391356183885L408.20033793483526,336.54673710917723L409.03518939423884,336.5477895623553L409.2309870682693,336.93640141375545L410.0839101950587,337.21539326013226L410.7321137047038,337.0734804044596L411.384749002169,337.7841060588398L412.6991679198727,338.67163838506985L412.8384835416655,339.43851119228657L412.2648443364087,339.95634073354813L411.76382644049227,340.87489222823297L411.7954761224246,341.3783567092314L411.1985372869749,342.2147993344406L410.7072836573316,342.3591468858185L409.96919675965546,343.12705502388053L409.76037893530156,343.96014510032364L408.7371787158154,344.70545163938914L409.1563569958744,345.0715324719822L410.9331907032283,345.6269499900691L411.31314666335675,345.95721767067243L411.22999958397486,346.4745286319712L412.04440434573917,346.8517384645402L412.7493299251146,346.37650720996226L413.64120490231653,346.7052203778776L414.4052818383716,345.53313136145516L415.10128981693924,345.93801619928126L415.7067521423087,345.84144495429064L415.81269503339354,346.70825625743146L414.8745494087452,347.4664498375096L414.05123419292795,348.2919516524689L413.6760581400995,349.42740735922234L413.4958601250182,349.9114393107311L413.5174249462689,351.10226557793794L412.61810102084564,352.509584608114L411.81590778837926,353.2374582368875L411.1032706765036,353.66722132703035L410.0082547074526,354.421355182546L408.71078603178466,354.968065419137L407.2205107547561,355.66808725091323L406.7368141453553,356.0777407719106L406.4065541519085,357.54421895860924L406.25487665378023,358.9511263452787L406.23154335945947,360.62955083378256L405.867942370478,361.4717565055853L406.07411309078816,361.9576296209243L405.68274327473046,362.7318404426933L405.7946318869581,363.0429793030353L406.0663532949038,364.0508924021233L405.4827736935549,364.5923962364095L404.95411226131546,366.074092528077L404.2618296481778,367.0011070829996L404.0713413805388,368.2559815632376L403.5121939362107,368.5433786235917L403.53638793027494,369.7681707429347L403.29480745130786,370.92159478777467L403.2875352843839,372.7376029278212L403.8267783374504,373.58277173641636L403.90392884132234,374.206677113164L404.75265003298773,374.6540484854904L404.9734275307419,375.0623193722822L405.394657358971,375.99154453304163L406.4026704282878,377.1696560242608L406.3987811748375,377.79493296223063L406.1902742283273,379.0077329212754L406.6750886370537,380.15986958270605L406.5892522997128,380.8198625813002L406.77680766324556,381.65654624029594L406.5527839475799,382.137583915146L404.82986874135895,383.4366476824889L404.6574483949189,384.0830208521893L405.0008145435095,384.55684743133315L404.4975084548896,385.7545337341862L403.7262130592462,386.1364398303085L402.5283649937228,386.222522719323L402.39208240439257,386.4537220996717L402.3789476708589,387.5489605760695L402.5986985519812,388.3621766878159L403.36746647765904,389.6806484648441L403.0952204351379,390.1672470751255L401.85380769790936,390.5258060325359L403.0672684973433,391.9158498633806L403.0771265497824,395.4030653096752L403.30187469931116,396.715636239941L404.0083426664751,397.5483438340443L404.344642369153,399.05932288563963L404.134167542692,399.8959340322972L403.4670558096914,400.84668607740696L403.2920277760786,402.4491206575394L403.00403503788766,404.0677435894886L403.5110729928929,405.2303151199958L403.31632548338166,406.9626550040948L403.63164734744714,408.61219019664986L403.5090909075152,409.29101488613287L403.94567743956213,410.1990033676784L404.1248390044457,411.11849891107886L405.0019567778654,411.92668508847964L405.0797668927262,415.0345562893899L405.679417718482,416.5335185271233L407.38395981242866,417.90180750888885L407.9238750226323,418.88914869518794L407.85824499293085,419.10513233634083L407.19098370195934,420.50798675883925L407.6782070054396,421.81894415964507L408.157764423926,422.2548994262006L408.74544399657316,422.69308318103776L409.545683345812,422.9286471647447L410.7779426168454,423.5953559646905L411.20848014647345,423.98856805887044L411.2202968881393,424.53971590011133L411.01554604667035,425.6023941473577L410.9957036753949,425.9394240431093L411.9433152083984,427.4803914287422L412.44466035442747,427.6611087743213L412.61035362994517,432.648792738637L405.45658686340175,435.18295768014013L405.85763288597445,438.3354953017597L399.64429779728016,438.2536536105381L395.73291679576505,439.18704986784815L394.4771284241215,441.48218670700953L393.69688894308274,441.55769952466017L389.3626463477158,441.2370759578225L389.32586264498605,440.522440128947L389.6799687497405,439.65178086286505L389.4437223806599,438.50029261575855L385.91145579908334,437.6869115154632L380.6185331022243,435.22003754022626L379.2689354444665,431.957111949263L375.87663745965256,431.17514515763014L371.3604582702901,429.0271889910264L371.3277792872468,428.7969643905899L364.85692793678754,427.40962515493084L361.89880006004387,427.0331375455744L358.6368826612925,426.3866811382977L356.7674665114391,426.9006619610036L353.03544431791306,428.28391036585435L352.6285400723209,428.25157667042095L348.737031830693,430.96593102515817L346.53684848080593,430.89096425865046L342.7246597202102,431.397730078108L338.7319418006009,431.8215758687611L335.56307635747726,434.889101347273L333.67484517505727,434.62416260317787L332.52587616304663,436.3591317532291L330.5404488416243,439.6896008439144L329.7675759796293,443.78596855369597L331.0312167394768,446.60856677808806L328.33715318053146,449.01752624487654L326.6124460296196,450L325.58686695642245,449.0517946840164L321.74647008638567,446.82870915290823L319.57509864608437,444.93983621164625L319.31143936843,443.95266535859173L316.5046585303753,445.27957946576316L313.4781714083256,443.37950560867466L311.7218424645689,443.64753460369775L309.13317359830035,443.66207700265113L307.46908715153404,443.34081655101727L307.102902710787,440.3544118399577L307.3842940901304,439.1577810387007L307.35252264695373,437.4065665224816L307.54321687529955,435.30887135328794L306.12311139843587,434.3023957642381L305.01618451624745,433.84304797406094L304.12248691465356,433.9444351509155L303.37134202950983,434.24571155197737L302.85788232674895,433.7172907244967L302.9088511515729,433.2669241563917L302.17458176997025,433.0476247503839L301.6980803092556,432.4663587239229L301.61579938391515,431.7879678638137L302.34040421176906,430.76866224071546L302.2916058093615,429.90623089319433L302.6287568737898,429.55243572671225L302.95105902346404,428.385181855002L301.9484829352514,425.88904640602505L302.1034096035546,424.3993432612533L302.6473026875683,422.9557548845478L302.1723408573598,422.8554269520664L302.2896734197748,422.22799731989926L301.995500640769,421.699939162414L302.368550053885,420.8992348460888L302.16815689868963,420.1487404123627L301.4057900743974,419.38979613091124L300.51236555344076,418.8486845931993L300.62861909834464,418.4214493681493L301.6335461395174,417.62006499399195L301.8744248853436,417.1401264324886L301.841399149449,415.59257958155376L302.5131602145957,414.51219382091585L302.21209377931154,413.44455415180164L303.11697753164117,411.98953674036784L303.48529148455054,411.00358184868946L304.05502607337985,410.3930795066799L303.8741432051611,409.41594423535935L303.44739721559745,409.0084734259508L303.4092286203813,408.33591278699987L304.36554894856454,406.7044061069146L304.453537438294,406.0976560249246L303.925149581999,405.5214412743453L303.56416018573873,405.59616595637635L303.02359491000607,406.95229061838745L302.62368597470413,406.9947388948158L302.3998493172694,405.80985853006405L302.7587880813844,405.1995510392744L303.57872101183966,404.8592732950892L303.66667764825615,404.2530808204265L304.56405129496125,403.973373027261L304.8017122521087,403.506100028907L304.5323849553206,402.6766506942795L304.96994926867774,402.4047572907457L305.74444367242904,402.62015270342545L306.24687264866225,402.0975771052781L305.94661995400384,401.09203820984476L306.28368519108335,400.45525306263426L306.9116803537945,399.93062012723476L307.3313731495582,399.0483461281492L308.02377570933095,398.49336269462765L308.84615206057424,398.43394007711777L309.2473683324679,397.6989365421987L310.10163779457434,396.88715155528644L310.31496972811146,396.29331969868326L310.882912275516,396.0643273559772L312.0906562863747,396.1259609524641L312.11425858519215,395.0577421935941L312.5588622497162,393.9529694015482L312.92678519413676,392.5713415534947L313.8901506524817,391.86169105601493L313.9415306363153,391.27560470355456L313.29149581698584,389.2389898064512L312.407169493672,388.04065900015394L312.63604493194725,387.2207917626647L313.47432732343805,386.75594580751385L313.2530051026515,385.45655039281974L314.1118682354463,384.9089243676499L314.3300490685324,383.8554866333043L314.94344946999263,383.2337518807235L315.1929522632927,383.01451512037056L315.3382669864077,382.7530778225255L315.7306290491797,382.17460076079624L316.3188808190789,381.8324152396772L316.40214758546426,381.6795676496613L316.38208728907557,381.51902698464164L316.2668538284488,381.2282804092856L316.4602103277248,379.2451804886505L316.26370984597816,378.75924346570173L316.4494140328643,377.992811019657L316.2707447374123,377.7226330345575L315.9386656630195,377.6103381950725L315.2845587663069,377.33687071529585L314.93296038189146,377.0335583813521L314.70128955552354,376.7678739873527L314.8059650528303,376.5132560582106L315.0562464720024,376.2031304851571L315.06059398767684,376.1300848069495L314.9690807762672,375.8094663973425L314.11356120341225,374.794681190494L313.7504838219793,374.0823296268536L313.4890745955272,373.2804575910013L313.5094640600146,373.1924838849527L313.27044578121786,372.7709105964468L313.1343958881116,372.7142608144277L312.6630669285878,372.64139869905557L312.4515852336699,372.6001240641235L312.34174026738765,372.4894662807319L312.7321411869452,371.8361752934834L312.368471939797,371.01166649710376L312.7348536062527,370.55852246960967L313.108741723463,370.24691312135747L312.9204496055572,369.9468320272654L313.12024465583454,369.55432593023033L313.18466797942165,369.5239754322938L313.3011341214187,369.35680491665426L313.4092932703861,368.8634544810093L313.4535929921549,368.69211119373085L313.44320466710633,368.6242116276844L313.4304594252426,368.5948502281344L313.3747152857868,368.48314002751613L313.26242910999645,368.19701353852724L313.3822052695941,367.86476150539784L313.6898099604696,367.75895550833684L313.77140769982,367.7775301261281L314.1222723042956,368.03653714923894L314.65304439043757,368.3620866011506L314.6889569370869,367.84039541884704L314.8157286929709,367.60021098646484L315.1085199001718,367.59217642249587L315.286145677539,367.4924585036333L315.68937961347547,367.2442238605272L315.82960094453665,367.18928984105696L316.10776959688883,366.53349958689705L316.46533460359933,366.49514637867014L316.53034790052334,366.4895214461567L316.81051920259415,366.3549437653937L317.05275948253984,366.2254488741264L317.1819723470544,366.15609710388344L317.218834422838,366.07795280243954L316.98671668055977,365.77315678113337L317.0077922238488,365.7340766184725L317.280648447806,365.4677461533647L317.418332666879,365.2229732780488L317.584447344052,364.7044501735145L318.48320942819555,363.81302322537067L318.5380826685141,362.70118382550936L318.936001037815,360.4982427108753L319.5585398484909,359.613718917949L319.73667512221436,358.76848982071806L320.8640363027953,358.2780051082709L321.6861366879857,357.25590993280275L321.70237673475276,356.8273861040716L321.0824839991692,356.31861090802795L321.6648904421236,356.0391953077906L322.56487407333043,356.379490737123L322.676160358802,355.3730527016469L323.17594640566676,354.2018450242458L324.00554667972756,353.752197772611L323.7883764816106,352.9233212756981L325.12929148984404,351.7972484888651L324.93306180846776,351.31300026929057L325.32958634355236,350.94980454930555L326.07908247811065,351.0344191165532L326.126177846294,350.4897546482498L325.6590461394335,350.0278789188678L326.0483472068663,347.8911809127176L325.95890357748794,346.7778624952489L325.4535717093495,345.66815190302805L324.54607517474506,344.89114438031265L324.41439893322604,344.4996637442473L324.18004886538984,344.1033417614053L324.09338553742055,344.10256264585587L323.980530124707,344.0137150636965L323.9598813151788,343.89689027432996L323.78283810976063,343.6807676529561L323.81606795981133,343.60260748884866L323.763556343798,343.42645462709515L323.7040542276409,343.3923783519522L323.2834592954241,343.0692645535555L323.21885917423424,343.0277005975968L323.149112288389,342.93434366407473L323.1720340977445,342.8176296291949L323.1020330606116,342.7582066390405L323.042928673869,342.6994047828739L323.0338599167444,342.50897659984184L322.8629958237543,342.200244488974L322.698200181072,341.83803047303445L322.69391203214764,341.71089776457393L322.54819158355895,341.6271488184466L322.4949963267718,341.51427559717285L322.381869665518,341.40586422958313L322.2698400037807,341.1956510274804L322.31363679627975,340.6101384715739L322.152095499976,340.45273882010497L322.1173114108933,340.1207285056016L322.19362287433614,339.53531096953884L322.4195455317167,339.2004602757461L322.24137704656096,338.5206853818145L322.1987123329418,338.42221398679067L322.16764352596147,338.2466980104391L322.35800252355693,337.6275835060933L323.2872376091327,335.9016838917096L324.02577697461675,335.4242219790449L324.3305645896762,334.7145034430714L325.5496564921814,333.5691876824503L325.58042637913604,333.1884579222133L326.39362646997324,333.13230124672464L326.7448735059588,332.66719300600926L326.78074177260714,332.3112046608494L326.8854189402264,332.13657845599664L327.06916912425004,331.6308161697116L327.1788971845199,331.49474392665525L327.4480229698238,331.11171584065596L327.9806641229625,330.9456213336616L327.86873034844757,330.74976235800386L327.8910479509432,330.6865301352236L328.00010820397074,330.6091492765863L328.1579682312622,329.9813686578618L328.24012133608994,329.8993044345634L328.51143721777044,329.86257771246983L328.80618692219286,329.0844338835486L328.6706519802974,328.536458955321L328.1089136843657,328.3561729210169L328.07701902558256,328.2974183858223L328.160602581509,328.0640852511269L328.31615787278497,327.67500522985665L328.81533426418537,327.04521123618906L328.85402846744546,326.97224462415943L328.8401635766859,326.738100707169L328.8905645388804,326.55817029743775L328.86556457913684,326.3481467557067L329.08956299627243,326.16921696214376L329.37458926103136,325.85929791053604L329.36501230276554,325.74191533643534L329.62035409194505,325.18227171438775L329.55767799462046,324.97675743247873L329.5633804476929,324.94224986428253L329.78601193492796,324.9054124780823L329.85949440120385,324.6271847667631L329.6564033248942,324.3620735022241L329.2298276347392,323.73283752614043L329.15373161764,323.24369631830996L329.042561644088,323.00815215847706L328.6784235341038,322.60458372375433L328.3776294278905,322.352458299456L328.2723527609851,322.0680204931605L329.4242626511332,322.2882998996811L330.8711737041049,322.30114693455107L332.6145078012014,323.01602291449944L333.75263387390805,323.066138997242L335.1110353365293,322.4294952232731L335.94328660946485,322.2832778157972L337.687262201518,321.0166827124649L338.1599104981178,319.51085195271935L338.81744680665724,318.53301722290325L339.60967021208853,317.941564964739L340.50721055130634,318.01539122645954L341.7938064820846,318.57182126268344L342.96872127749884,318.10749498565474L344.28763816693026,317.8248321938436L344.7917562849507,317.343104747506L346.1680721070152,317.0796542257376L347.11777686270216,316.7534414466545L348.0818573964134,317.43223052310896L348.60356023494387,318.266741203558L349.20361347373546,318.5124568679812L349.61248115803755,318.0103707343078L351.1142156832175,318.28074817331617L352.1268511704984,318.1464123487058L352.6469932583459,318.27919154855863L353.62142699980177,318.1539851032221L354.4056725497212,318.4406412528242L354.8814735278029,319.03119482934653L354.8718832069535,319.7525062413315L355.2234461143853,319.8882357476414L356.7882233149139,318.9257427136681L357.53688805328056,318.87525865364205L358.0447542078364,318.5887229315249L360.0465558447213,318.88815036446795L360.1118855114655,318.06060720653113L360.8253547872373,317.8098975989542L361.4876812576258,317.32950552929833L362.6323526147826,317.2741393918441L363.7660139458858,316.414029319355L364.72749566195125,316.27354482151804L366.1984748884788,316.8561946120499L367.0568701372067,316.78099892616956L367.7380040370954,315.99419738056804L368.7548893917665,316.41314391166543L369.06443645300897,316.97626652137023L368.93915164288046,318.17345171763463L369.68696600499607,320.007097792035L371.01788080322876,319.09385284965356L372.3521404431485,318.87209547787734L373.2274626334038,319.1784730726404L374.16459141775704,319.9895890259522L375.25960985464917,320.07825975612286L375.438673921999,319.4662985980285L376.004773704517,318.7637763088178L376.34231970167093,318.9951583299562L376.8728687019866,318.5933582834532L378.25223881365673,318.84425364435265L379.4343491722757,318.8637804088039L380.05957813920395,318.61885542354594L381.0391976957544,318.865424560051L382.0629487963306,318.5450252841865L383.19471361724936,319.08565397659277L384.0357678997716,320.0691815356058L385.8088959218476,320.20058413271454L386.6028640695404,319.98234125473755Z" fill="#e1b03d" stroke = "#222" stroke-width=".3"></path>
    <text x="355" y="382" font-size= "4" font-weight="500">
    मोरङ
  </text>
    </g>
</svg>