<svg  viewBox="28 125 150 150"  version="1.1" xmlns="http://www.w3.org/2000/svg" xmlns:xlink="http://www.w3.org/1999/xlink">
  <g>
  <path id="path-0107" d="M157.75299374909082,193.61846035024064L157.93403981902884,194.7730541771043L158.29333063083322,195.7310672712647L157.7418332933412,196.13844294797036L158.01906615225016,197.1553399583454L157.9548228956628,198.137369038036L158.5428340828512,198.4903510742579L158.8265668165368,199.51355682464418L158.7702316459763,200.05898551747669L158.1524356091686,200.69886533034241L158.28185605997714,201.39283526595227L159.12470432535702,202.15996580945557L158.77935724086274,203.60221040323995L159.4830084843852,203.9008802784083L159.59682226532823,204.8462481380011L158.70136708756763,205.38092174226767L157.90790853379804,206.28639713185112L157.37546197894335,206.5861398840525L157.13838796574782,207.65428126675397L155.78051043710366,207.41700641347234L154.863117373563,207.89429544475388L155.08016757961013,209.08331650915716L155.83102150656123,209.37776376865258L156.27114415839605,210.30454998331425L155.216823562223,211.38726681765002L155.5296260083669,212.23380873295355L154.79835570501382,212.89471997823057L154.9051179486887,213.3736163144331L155.51575055308422,213.71557347596354L155.74784396908944,214.38169357939114L155.04433057332426,215.30023118169356L153.13138191053076,215.23003856959713L152.69412508909954,215.69645407975804L152.41018187831287,216.7233180171288L150.47546759585384,216.45718534424122L149.86193623669897,216.88148124248164L148.9054118952954,217.84969732569698L147.2172049350629,218.09274416785502L146.52363435333245,218.36948471707183L145.62430957259494,220.45755047820876L144.95779832118205,220.4104209192874L144.3758878591325,220.7605555439659L143.6113554519361,220.74476475344727L142.9902256584246,221.1945350884671L142.72595406376422,222.09257729679666L142.97451605009337,223.3239913710877L142.10176370057525,223.93494411475785L140.4155146913472,223.36840438818035L139.88428867477342,224.1262866420957L138.18716062499516,224.37608847840147L137.07848346177343,223.94443005031553L136.15368651620884,224.60800510978424L135.3767601657055,226.08165797043512L134.30139975396014,226.65023661098257L133.5221078156028,226.277518721452L131.7435409837417,226.48762083298607L131.22892889644572,226.42012828176757L130.9656940094028,225.89406170786424L130.4473068718471,225.8513425635765L129.61681301077988,226.19499732991608L128.89541834367628,226.79487508907005L127.84518344139724,226.7486920147785L127.18514247270286,226.07028017289758L126.7496406090977,225.91750542055343L125.58815654588034,227.13141911449566L126.51215939129906,227.3228988217561L126.22593117182987,228.03534045391916L124.88436506511061,227.7186629490334L124.18430179293136,228.3254864206483L124.07289749573829,229.03851451668925L123.3849861995077,229.49746243061145L123.00854905118467,230.53003136087955L122.2563967241149,230.60208607695495L121.70234749469091,231.622040371376L120.18669524360303,232.28108502401392L119.64733423453436,233.30561137951008L119.12502224042328,233.73188112627577L119.05552856597569,234.29926356051146L118.56051996871611,234.63743214064561L117.72116285580341,234.71334373041464L116.45583303271633,235.50169933425695L115.29799881525832,236.05560646024696L113.97294913058795,236.30815787865686L112.32480394896265,236.36402561486375L111.32439537715618,236.08231163506025L110.20207493434282,236.08462491340833L109.7571016338552,236.275474868542L109.09607343310199,237.10849178892113L108.19722734792595,237.76234812551047L105.48967511679803,238.7036697924632L104.84315524535123,240.07105781599512L104.0348782443798,240.8592781078687L103.1887891262304,241.24961206903754L101.97582378832885,241.29913161258992L100.81515036455312,241.68843537787598L99.91082445685606,241.6114223983168L98.77208531158976,241.89027331287798L98.59271371771683,242.29074422207395L97.55775213258676,242.7923941365607L97.24649302294347,243.33720586450545L95.47301989324114,244.85307783277221L95.26875882947206,245.73799149044316L94.652145740376,245.83481714615118L94.06690782903752,246.28758183754053L93.31446498381774,246.18251103299917L91.9107133209618,245.48998053117793L91.68154031742233,245.04975176371954L91.71844882162623,243.40623500636502L91.13018268526866,241.54155311697468L89.66920188157383,240.56807319900508L88.54721794933721,240.66081305285752L87.29846346530394,240.29740693176154L86.63655324045249,239.35689146905588L86.54519062008694,238.61354938334716L85.80816823615169,238.4832748255876L84.15033914144442,237.87612508193888L83.28725607708839,237.7096405652619L82.58477671058063,237.0719341004151L81.6503579597047,234.75340419033L80.78938719848156,234.28036746886028L79.41785408928627,234.6442641083404L78.76545891261412,234.66042961828225L77.85789707597723,233.73385833552766L76.22850641480909,232.4689321050555L75.3309983481522,232.3626210949451L74.32542243508215,232.55188733599425L72.69622691970653,232.22469973457737L72.11477472951447,231.64934676686426L71.76543680407485,230.48449589958364L71.43885001271337,230.16794434868098L71.47797027645356,229.15081886005373L72.22316746975412,227.89166739275697L72.22157759416223,227.29116485516442L71.81068921350743,226.4055767100599L71.69002364859989,225.36331418621376L71.08721602389414,225.14987540006132L69.3130669160455,224.82756528758637L68.45260528302242,225.07153750998896L66.09006876526473,224.67110972153841L65.29085726312042,224.74746655599938L64.20609593910558,224.4778458424953L63.35876412676953,224.10584588450638L62.800868139278464,223.27571747759157L60.113761824679386,223.0136275569821L59.78274921856428,222.8341180578118L59.0121567020542,221.75318511130808L58.15403415262335,221.11390411807497L57.49736519586804,220.92111333293997L56.59347490526852,221.09369761363723L55.950168722378294,220.75360481100597L55.40986115493797,219.96378258309596L54.20172723129144,219.4552406316152L53.24720305334995,219.34287661623694L52.65272174617348,218.86859275057213L52.849484696525906,217.47847861044738L52.223785326827056,217.29597898910106L51.44674903477426,218.10532349955884L50.78059945894347,217.82470302448928L50.29513054747076,218.02686484029618L49.92156282925498,219.15852674982398L48.079663094787975,220.46768931314728L47.003561710735084,220.64605956513697L46.43882437261345,220.98617275918696L45.700447160954354,222.3240250848021L43.18428646195389,223.22876428559084L41.7432311316079,222.80533177423422L40.44425642188071,222.1160176229514L39.30525439797202,221.24866731172733L38.585436649038456,221.08361413066996L37.59937766634539,220.59511008847858L36.6623341937775,219.947020325204L37.055312825759756,219.91373300260602L36.840977503732574,219.00443567293132L37.892360067155096,217.58583777755757L38.587967934563494,217.22528241080545L38.648425435709214,216.48756170572779L39.36959130741161,215.614396988085L39.7910195129225,215.45270204695953L40.55242968214952,214.73464481634437L40.70171991445386,214.1379314920796L41.62612570912097,213.81297895053012L41.725263928059576,213.11876626898265L42.59743607132987,212.94654899165107L43.13533666321018,212.16363877205367L43.79436950728268,211.89599596501466L44.28323480132167,211.08979485639338L44.81582297024579,210.70668335175378L45.988267319029546,210.242454254113L45.99327631092092,209.80816404967027L45.42384121692521,209.4787918542679L44.87793669198436,208.43782710016148L44.78267324224362,207.7952832615556L45.40874233631621,206.63118082076562L45.047012023635034,205.54374106426894L44.33745190986883,205.29453807868413L44.19286609623305,204.61374378092205L43.76199206642559,204.0737242185396L43.76142457639435,203.60551616254452L43.09276971648433,203.12605589142368L42.994408122074674,202.12578835799104L41.14640574618534,201.8633974729555L40.5872426635251,201.3764635270809L41.34210171325685,200.49338894026005L41.34940749906309,200.1902460468982L40.10978508608969,199.98491117916092L39.75207962182321,198.6312257691161L40.3090043510274,197.9862015846811L40.090342212810356,197.3800472000621L40.30791500838677,196.94858922803905L39.98733022738452,196.44538530458794L40.44392378317207,194.32503512330004L40.11620149605733,193.79654819062125L40.8380832095645,192.88200966165005L41.31960012436684,191.87736717566986L40.71387835601854,191.7127900837022L40.65965750523901,191.30875466297312L41.37700752386081,190.0479949449891L42.052039936039364,189.2752307774481L41.808243085437425,188.1072558925889L41.81963120264845,187.24614739518438L41.385338080981455,186.23914665032044L42.28187954095483,185.85166380693863L42.102801571949385,185.07271679126097L42.61362756100061,184.65691444088407L42.76052667507247,183.99406997841743L42.527004399984435,183.54155834883932L42.81502181820542,182.31254128624641L43.54900630542761,181.9357830254039L44.00543730769277,181.1694269969521L44.78836182222585,180.831540526774L44.9511586217086,180.11397143184422L44.5315836910122,179.77232960169567L45.33100725438271,179.19104287160644L45.324748461003765,178.5359596106664L46.02603549257401,177.8033899390939L46.26009148106459,177.134904295438L47.148108642992156,176.68605381147336L47.839282239994645,176.82266979608448L48.104883883810544,176.2863346039412L47.976593556672015,175.53180960242935L49.002446784590575,174.49500834472929L48.8170871318689,173.48542255858138L49.987660382143076,172.6963521574762L49.998758390418516,171.68225445519784L50.28745482173326,170.17722586801392L50.98158555603004,169.28833739278343L51.497128306240484,168.18933268537876L52.09043525069501,167.38555147728493L52.9860935628858,166.67738540329992L54.812613910686196,165.85742876506902L55.317704324173974,165.42169631079105L57.45323781873594,164.8251404462835L58.484024837936886,164.31659252072495L59.24338328714293,163.7714866470924L59.18705496587427,163.15577076625596L59.444683796278696,162.2750147270781L60.067512463047024,161.57072460760628L60.54989336909057,161.49582286086297L62.00355620451228,160.73561527722904L62.6169991035822,160.65489632835124L62.886741755122785,160.07666147980672L64.37762466726781,158.8493126684034L64.53392745607925,158.40509471206315L65.20581772500736,158.20909513033712L66.01688376763559,156.7585589742539L66.39673023700016,156.48579094984234L67.35819669048942,156.44373155252651L67.619439701175,156.2095195455695L67.87916671369749,155.11427900699164L69.09425384720453,153.75158169349925L69.70813940639346,153.51339673562688L70.0162290649896,152.2775926170516L70.99981617967569,151.16513378976924L71.79089445297359,150.70468680620252L73.10550524152495,150.2878191715754L75.24907320739658,149.94708943026944L75.41673640000954,149.5879768279774L76.21963910447812,150.0443977361565L76.7470511612155,149.73713568078892L77.62978135890444,150.86732607349586L78.68564439693364,151.15009036368247L79.08521155161361,151.54457689438914L80.58422802231507,152.21191763466686L82.42146524490818,151.9276380473866L83.30299746143646,152.17049715382836L84.2233412970163,151.8771364508175L86.2894404957442,151.6432439324053L87.11586957748659,151.9439508960013L88.56263319924255,153.34348383690667L88.97790310026903,154.2447320874826L89.42282170889666,154.48328127186778L89.6649420090871,156.1922546289352L90.27423728183567,156.58711992014196L90.53387594927335,157.3067369356313L91.33032169598664,158.26509274403452L92.33019817608147,159.0052007715385L93.20470330823082,159.90749264080296L94.07825505593792,160.18573552769521L94.7474004173273,159.76483228587222L97.0169950788586,160.09039930668314L97.30693488726683,160.85019482046937L98.05243839309696,162.00273940230636L98.64789532150098,163.38598923037443L99.05707040047128,163.85600640546272L99.54181890439213,164.97224782171907L100.31842926246827,165.85266758628768L100.63223901220044,166.87641422219804L100.63106592120675,167.88184516262027L102.24528327122243,168.8050582320384L102.97210712913147,169.5476722250969L103.92109816638185,170.15948557070624L103.64411844388087,171.2643332410771L102.83106394382048,172.1095241625717L102.14181167004062,173.1636214656928L103.2072565125527,174.52040125396434L103.89228582645228,174.88129953220778L104.5957311502898,175.98412302623456L105.45520190160096,176.34036633935193L106.42679314041743,175.95766135973463L107.68521285491443,176.10999175518282L108.38439556828234,176.05218059587787L108.93456896350108,175.56986377423164L109.33999098941786,174.8689546312362L110.02050157875055,174.75084341857018L111.6156067724769,175.15056679222107L112.1903351157307,174.93164346171488L112.8883002837465,175.29555253892795L113.53926869821225,176.34583516326802L113.56515988898173,177.25626674471096L114.50262087734882,178.7777794982967L114.96578459341254,179.21674547835664L116.25886334761162,179.81502716258728L118.45076844945652,181.07521142210044L118.9806970109421,182.2105698784835L120.38758023799164,182.59004767445822L121.42672983976809,184.9724759972496L122.50719120633585,185.29962474958393L122.99289425530878,185.61438911195182L124.46145758571947,187.29434656904687L125.68065603456853,188.1865799290481L126.19048973028839,188.29652971362884L126.93206074270347,188.81529133578806L127.88642018491373,190.14444810332589L128.54285203964537,190.4173258610963L128.80672193608189,190.8392805617359L128.59632500032603,191.5894144941476L128.67025826912868,192.26734239133657L128.45476989428425,193.3137368662492L129.22524384525968,195.51834361463898L130.26787608601808,196.87432741065004L131.1210557304803,196.5570865207019L133.11123485408825,196.55969683258536L135.5116694817698,196.15743518712043L137.29362991462767,196.71192895901368L137.87879137488562,196.4186216419539L139.49860785057535,196.1937377919112L141.3459450305345,196.6084801024881L142.43419163995713,196.70384264732547L144.3588433884106,197.24221133578249L146.63197534337814,197.56463968462776L147.8485218669266,197.37109983463324L148.38081845457782,197.50373553608733L152.46328320509565,197.05979993430446L153.1830793959998,196.21997920721606L155.72538243894815,193.8532607275838Z" fill="#FF7B46" stroke = "#222" stroke-width=".3"></path>
  <text x="84" y="202" font-size= "4" font-weight="500">
    ओखलढुङगा
  </text>
    </g>
</svg>