<svg  viewBox="362 166 160 160"  version="1.1" xmlns="http://www.w3.org/2000/svg" xmlns:xlink="http://www.w3.org/1999/xlink">
  <g>
  <path id="path-0108" d="M492.4788115968622,256.85712908486767L491.4345831218343,256.89293028648717L490.7532537890511,257.4690709873221L489.7361609632353,257.74725239890813L488.1413539774694,257.2806024659467L487.56886667679646,257.29791452187146L485.87359250442387,257.87751503444906L484.97141991393073,257.9702525140965L484.5564733949723,257.3594492686325L483.10237107853754,257.0751796919676L482.3376856322757,256.6782941290685L480.8076959905993,257.3846419911588L480.67002303795744,258.10786752447166L479.20964002328765,258.344252966971L476.23598738461806,257.5784839013686L475.29534408194013,257.76035837968175L474.83884047827087,258.11686426274173L473.80023976813754,258.3343791300458L472.822918508733,259.67450077402646L469.9716529717771,259.90971679102586L469.39761510004246,260.39149361400996L469.09627681075654,260.0404342393931L467.8526948859435,260.25048099386186L467.6789035957481,260.8308819386739L466.5434697618475,262.1811229008472L464.92997576743437,262.3958443131869L464.23585199331137,262.8844260374817L464.1667193083049,263.8802369909954L462.67107454410507,264.50820147833747L462.3022365271863,265.50443213034487L461.7783945347401,265.90266362061084L460.2639659510605,266.46736474211866L460.00892732105785,267.0283308317321L459.0055486105193,267.9062344398526L456.87152733329276,267.8696789106816L456.11289376698915,268.78885636101313L455.20689580369435,269.4931852903019L455.00804393337603,270.01024334087833L454.3173360554247,270.79583454384647L454.0126948115867,271.61136978798004L452.1295993213098,272.29500566432034L451.7833185468953,272.56272365458244L450.69421768136453,272.79672834829944L449.76454160457433,273.2819209245954L447.9838922751878,275.1696998614234L446.6243349789511,275.40514328379777L445.8483448250372,275.9752953408988L444.09364168422326,276.23905607942106L442.8084729437978,276.820767666989L440.6157420213058,278.6807058995146L439.0600588368834,279.5164171017532L438.01855936269567,280.46779704337496L437.31224767891763,280.2177024075545L436.13234996250685,280.1220715393447L435.3553964447892,280.36115261347913L434.4671456019969,280.3764469647558L433.58942271617343,279.5865350006379L432.09372420429645,278.5460010601237L430.69889102158413,278.5506305344361L429.32113047124585,278.3276314849245L428.38356772477346,278.7719281392401L427.5714213997526,279.63736975019765L426.92917189101354,281.0007131257398L426.7887122814209,281.78916192382803L425.04712303602355,282.88567382515885L423.7594377260066,283.49050184072985L422.8797769320081,283.65453178243206L421.79439141563125,284.7499643803976L421.6834435245146,285.18599357722815L420.71311150690235,286.3522233484673L419.5651793709003,287.3392596489457L419.34383224325575,288.52366957336017L417.47859350191356,289.8477322068902L416.1397254767726,289.87104812198413L415.64266111798497,290.18670643510177L414.84710867112153,291.5000438203706L413.7130984665382,293.83911624885604L413.2311800713069,295.3881375058645L412.34612729269793,295.93436240725714L413.1265961938625,296.8762939217331L413.1273546848097,297.31058459110955L414.365437830671,297.68759541470536L415.0244631386995,298.4759820396439L416.05135973391225,299.18620245798684L417.67709598770307,300.00756564585754L418.6905393113484,301.08306206691304L419.09532625131396,301.18689580807677L419.7373180657705,301.8176731501271L416.93296995513447,302.831073984843L416.58982136999475,303.53805317364277L416.9707036563959,304.6828945928237L417.53858721854704,305.3868781965948L417.6641098837572,306.28599789535474L416.54002057813705,307.74667512689575L415.66741583027033,309.28053680750236L415.2265150548992,310.65316467511275L415.42510538899296,311.25350508702195L415.1270561466772,314.070059420108L414.2647431466139,314.2039307866844L413.6071150684329,314.6304269355378L411.5823426335919,315.1205777801415L411.207263223092,315.5806841556814L410.22385290735474,316.0862538243364L409.6479232806996,316.0472958983719L408.929280387325,316.4736019513384L408.3004630302894,316.5414014694379L405.8346251284893,317.453774878838L404.6441344785999,317.40630465563027L403.79685697401146,318.1134044121436L403.19857746313573,318.83201812261814L401.9917363654822,319.25280470117286L400.5741106619025,318.74543007344073L399.0451122385566,318.9169592941207L397.7124820898571,318.6315397826056L396.7195812754908,318.61223274672557L396.30231117294534,318.8019675901269L395.561715383079,318.49907662239366L395.22533005908554,318.88301411590237L394.3357215532087,318.74112881896053L392.5459039982561,318.87673730168626L391.78419322482296,318.9868370946824L389.60467311858883,318.925348911107L388.47873102901576,319.46313437208664L387.57477945683786,319.07802421168617L386.53285089165,317.9440119928495L386.4513642702659,317.1912694543971L386.0013839206258,316.4658240415092L384.39812791115037,316.4392153538156L383.43561392050105,314.5762115120242L383.18008001260387,313.6536908897706L382.3648109678252,313.08729545397455L381.38123452160653,313.2841617369222L379.73976933373706,312.930306288521L378.4521132987902,311.9934499017436L377.54795822309825,312.4846797150449L375.85318480410933,312.6703588828832L374.83319535247574,313.07838091294616L372.8216830433448,313.1013739876307L373.3603531421795,311.82117870234924L374.04537145127324,310.9148754454063L374.0769552713937,310.6055184518291L375.1317008115293,309.2640098319489L375.14217455411926,308.1555806904662L374.4806551005713,306.9543152081087L374.9797229828582,306.4672507483774L375.0741764900813,305.753170700742L374.1822550254401,304.7546845366451L374.2434294980376,304.05486371682036L372.83906904518153,302.5920016022992L373.24464595558675,301.6875195507637L372.80393868099054,301.0220877264801L372.62756687499495,300.1971298227036L373.1820036653844,300.1399420304224L373.6481816686246,299.2586869210545L373.69549612728224,297.116721921765L373.9224066415518,296.07986887355037L373.6513674425878,295.6635696599824L373.8816393758716,294.62842122112306L373.4827645516925,293.88664529333346L371.64792224748817,293.0935162070991L371.3985343457098,292.7399864268973L370.2784408602529,292.64328677692083L369.5540311391851,291.6374692537929L368.6119816558712,290.90986608833464L367.8498238836619,290.970992654984L367.38896474202556,290.3291238148122L366.18351255860034,289.4384353738278L365.2575893613466,287.4748242742062L366.00602386096944,287.82028382190765L367.5281089532509,287.69277335745574L368.19906198523313,286.86456629061104L369.6500975464187,286.0955305064008L370.21445837078863,286.00324560157424L370.62843277597494,285.19196229876616L371.2973216924511,284.673255030968L372.2647926974787,283.0811468108641L373.02344769532647,282.39655994831446L376.32481022074717,280.2835320001068L376.31840376814944,279.4684167596715L377.11971350809836,278.4355204085159L377.6957185842184,278.293338052782L377.88781824247053,277.87762004225806L377.70835095076836,276.1248161984149L377.20743399533967,275.13237717518496L376.3343980404825,275.1854126170929L375.58582157096316,274.90358324022236L375.5234038040944,274.14348023247476L376.3677098088556,273.0750560584356L376.5698667445831,272.17043437024495L378.0378047473896,270.692593292888L378.73809632592383,270.31795330606565L379.3421588271922,270.327198611687L380.8255312110523,269.448888545061L381.39341341066756,268.678052373818L382.44464628281276,268.42567973648966L383.2246823452988,267.8345939899764L383.5940409558789,267.30744842791955L383.64474588791927,267.18915670144725L383.97086858292096,266.6687509091171L384.034144170957,266.60803511854647L384.89383656527934,266.13178162930126L385.1705296632317,265.768795113705L385.1621120888085,265.49553950226345L385.1210842985238,265.2238776203967L385.1029817159979,264.9902595637159L385.4010143196647,264.2845240378847L385.4798377799052,264.199719656237L385.83332142459403,264.0291674133241L386.0808356426278,263.9450450455897L386.2784502655704,263.661701135964L386.41218359692357,263.4241134223839L386.4380860985184,263.38394983955914L386.5888583031301,262.833516473911L386.87333154593944,262.02650514143716L386.9580495902119,261.95092494707933L387.1387330111029,261.80959404336136L387.5702430797428,261.5323954497753L387.7248170025159,261.4358163817715L388.23275958186787,261.01456448762383L388.3588005660713,260.8753215839097L388.4733392214912,260.7216290872566L388.5096123199146,260.6671429687276L388.65389158406106,260.41982096628726L389.06127721889425,259.90843089482223L389.5720738499367,258.88841236771077L389.7564325704443,258.53831603749586L390.24291642437674,258.11757433273215L390.80158378046326,257.75294179452067L391.9460324120664,257.0140377141188L393.21281528387044,256.36371012771997L393.6632372944223,256.1821475093402L394.25246617178345,256.09899077978935L394.4379689061352,256.3229672974994L394.71427161124666,256.31093408542256L395.29360048855597,255.91713072777657L395.423949697426,255.37872595650697L396.0730387342519,254.95820434209054L397.05305380500795,255.0890314108974L398.7907872532014,254.69004533311636L399.32192069700614,254.0792409312844L400.57941379558906,253.334806556506L401.374266030929,253.47873258371965L402.0596749045799,252.25262199149984L402.792989243364,251.80672007689827L403.6726690963951,251.78945042816122L404.2966548258519,250.82254518337504L404.0823508906178,249.9656137921893L404.96751362662326,250.06806867435898L405.6169061558212,250.3885812004164L407.02527728507266,250.2553690037348L407.94291099449765,249.83458758529196L408.82891599080176,249.8451022019044L409.0059412759547,249.26325158689087L409.6854389606815,248.70449242771247L410.44586038539273,248.6511721037541L411.3348168942939,248.14925245644827L411.6423813278743,247.68079933706304L412.2859911458472,247.3042484974594L413.62701671577815,247.59720302611186L414.1523955019293,247.5301540680157L414.98008159361416,246.9958150722632L415.8500016928592,247.23362355583959L416.2857367663637,247.1063395120027L416.4853897936446,246.7932675052498L416.8822761199699,246.24419975731962L417.89356252063953,246.34067801764104L418.0455257446956,246.33051101013734L418.7182967688277,245.60163621375068L419.55582063025577,245.44190848754624L419.8141332771811,245.2430159162932L419.97876930985876,244.87746643737773L420.9812655241476,243.72925467438836L421.13225111331485,242.76023909921878L420.9958713539381,242.20966755777044L421.0518191290903,240.7627588485493L420.9389189572321,240.10933362565993L421.61397623513767,237.63999873605917L422.4874046230725,236.6326868313945L422.7309694414216,235.9126458582532L423.2276630434244,235.41476395394784L425.1135078402003,234.45874871509295L427.05837231227997,234.03692888669138L428.0019750629872,233.70367413801796L428.3832336176238,233.17076112896666L429.5961154477736,232.90626147989315L430.0613050729917,232.02006765982242L431.2401183531365,230.68101015874072L431.07348662860386,229.4584040417767L431.19261872376956,228.147612299319L430.2072878560648,226.84472678126895L429.77955436234697,226.46281062615162L428.1346703781892,225.67989095180565L427.2198105084026,224.78237917660772L426.7832268001366,224.0214228194509L425.2089738281029,223.67441740107552L424.0491143671934,222.05386257584541L423.19507617538693,221.76817998823572L422.1453640365107,221.63453451481928L421.21202676996836,220.8348738817167L420.14854203107825,220.33136479905534L419.19489941500433,219.11175230280514L417.1331652041881,218.0522867202135L415.4102888843372,217.46570730227631L414.5713640139693,216.96058505654128L413.30214499386057,215.5566836720327L413.0013037919125,214.64354796998487L413.31741232343484,213.71096469866825L413.5418308987646,212.40695798661L414.9050364279574,211.5025383114098L414.9635154254538,210.68318434263801L415.2969184552712,210.17346842943334L416.5834983645909,210.0233869198246L417.1807453132933,209.46266971576915L418.52562466155723,209.6983186587604L419.11596512011965,210.1602712545282L419.8454663358207,210.1725888561732L420.3107503534011,210.63221774828617L421.6376847504398,210.56416635731148L422.35696668287346,210.93712368765318L424.2988264916421,210.7998868280365L426.2446680602734,212.70926381106437L427.8288921376625,212.29540028957854L429.6572946437591,212.91766406179067L431.3249638778798,212.49807961130318L431.92334534557085,212.08716547487347L432.66010028975506,212.32639413189645L433.3775882452828,212.27277177331325L434.2142931254457,212.52925232666075L434.72726145102934,212.44749881962252L435.2818287091068,213.22358781125513L436.9220645977366,213.47189676393373L437.6823409159879,214.04093725214898L438.96733441124525,214.1769361876395L440.74884266057416,213.66236645765093L441.36203199323063,213.60829991050377L442.59804212567906,213.21096355513055L443.59563149628593,213.45823277831005L444.42068003714667,213.23576722166854L445.70785634171625,213.38350754190196L446.2757318254189,213.03364312347094L448.1813114534307,212.6351951844672L449.00573231218004,212.13502902538858L449.7565669337637,212.23664177448063L451.59997470943927,211.40089337541758L453.7507395069879,210.78333605219177L455.31375450946507,210.83071923092484L455.96529606583863,211.07566878187936L457.03800422675704,210.85901359363925L458.3048685575086,211.684668056213L459.11245095619597,211.89093324320493L459.8189936721901,212.49116840455372L460.79707640224296,212.41437689031318L461.4911825857271,212.55674323055064L461.7717491321964,212.301962776859L462.76799588675203,212.35362597127005L462.9661633937976,211.87402281401046L463.69659363933533,211.40983147311908L464.3685064026904,211.47040629587173L465.3269724328202,211.82618507876396L465.8255641622127,211.43706685755296L466.73956931937937,211.87310895716928L466.85895785301545,211.33320681454825L467.69621629140966,210.72024587689884L469.3870473357638,210.9209028279256L469.90732438057603,210.6861278081933L470.68609573877256,211.2237829958949L472.0694370057863,210.97739398055546L472.7896403780687,211.2317099115744L473.6350299909245,210.89961976149152L473.82224798906464,211.5795534555018L474.7899329235879,211.71705563357227L475.52640684885773,212.1981709829197L477.7076778087139,211.52302078464163L478.0395233735253,211.86746793106158L478.78820327265566,211.789660972815L479.3878297595584,212.17214740998133L480.0282366043939,211.76347867532604L481.5492981697571,211.46949990608664L481.98059631488286,211.67891047955345L484.2610489096005,210.1754678187981L484.2765944034618,209.36172235719096L484.83529690701835,209.1475777814203L485.4092976687207,208.45039220672606L486.4844302933052,207.67330127738023L486.5757796430371,207.09014581900192L487.9949020762906,206.87281495656862L488.48675407230985,205.75410140441L489.3840099386143,205.23812975955389L490.10276366615653,204.12046347862452L489.9749531152411,203.51564535078523L491.6743418453334,201.77913668477868L492.28839675627023,201.26642028849892L493.3479004182409,201.1387740221826L494.5229558110732,200.5829367868364L495.5946004070465,199.84349182917322L495.4953805975747,199.02662595830498L495.997279957548,197.69932211934338L497.245403910998,196.21119265947345L497.16288263673414,195.52846905965907L497.9505037188428,195.0435656884738L498.0091763808923,194.34689947506922L499.08468798451577,193.43102987361726L499.3072216954206,191.93667435873886L499.5095013532882,191.54877235608637L499.23292269088415,190.65757380253945L499.5289335200032,189.35643321343287L500.5995583481672,187.24771449725813L500.86123747998863,185.90837101458146L500.87590277068375,184.92957611748625L501.4156438651262,183.19198975180097L502.22670690454834,181.68188309448306L502.6034600294006,181.2895329857747L503.2451917618346,179.6378628860066L504.14072411639427,178.32052484702126L504.7775615810133,177.88067832474735L505.7734484898392,176.85228657962216L507.37739018301,174.88410494463733L508.05126864643535,174.5302873907558L509.011395129437,173.67886251641175L509.62866101367035,173.5518457103035L511.06921131496347,172.705860400667L511.94380898597956,171.99995470171507L513.174151077259,173.10791418461122L514.6576024013266,173.59788915160152L515.0396021711713,174.11675243893933L514.9333008300346,174.9901308208655L514.135886073007,174.9506039371754L511.7300961724941,175.31917449508455L510.59780616348144,176.17611487372506L510.0220735416333,176.3799362820082L509.43268335886387,177.05413312858036L508.4690709384304,177.35050739215512L508.03817602328854,178.0339733645278L507.5023871638987,178.4670630909004L507.2079433112376,180.00910262935122L506.5748002353139,180.38335943427228L506.9307084555985,181.7134671012309L506.2802367357399,182.940549108288L506.30109160189386,183.6861073467826L505.8579767511328,185.68890231009664L506.0896211590116,186.85185986180568L505.39524928083483,188.29489311878297L505.27330840553986,189.3637662963656L506.63751418208267,191.0516749806884L506.66688282826726,191.40562282281098L507.39954319268145,192.3020065410692L508.1630432485508,192.41993263811946L509.3036366638589,193.0692761412747L509.61044004608266,194.13331415081393L510.3305230963924,195.37074206695615L510.2889223561215,195.81561186633917L511.1147140411813,196.71682109768244L511.5637367289419,198.0149209381825L510.8086621690709,198.500333565873L509.9592920866562,199.60909670128694L509.946253827733,199.9960711895128L508.0026775550941,201.00572936995832L507.8814878072699,201.4960052123888L507.21511129719147,202.4773772862518L507.25269852767815,203.4433465197044L506.9863020492194,204.02397216220015L506.1039288491047,204.6833901374648L505.0958857109399,206.36165677688223L505.0771152631387,206.87339035022433L506.0370053394363,208.8573603842715L505.5707245653066,209.39108763956665L504.5758153824718,209.31868186556676L503.6138183069088,209.89533757215304L503.2484598508818,210.47180695620864L502.7004805940269,210.7662776135603L503.03941855031735,211.93117696521313L502.33288274895676,214.38016841826902L502.510564034681,214.62017201220624L502.690286750847,216.33085304015185L502.5105621746152,217.97047066829964L502.31122289025006,218.75409328776732L502.5576541246337,219.37074632915846L502.48142403666134,219.99596052756442L501.6746149141218,220.1677640190901L501.4691893207237,220.9191415554651L500.78878070523206,222.0322667977116L500.97872964670387,223.00167448105367L499.9895457662351,223.19688460264206L499.5195181944582,223.6012487710268L499.6580271445855,224.58924938458676L499.48902865526543,225.05964373338975L499.4292070362062,226.3648267448798L499.1121182091774,226.92045695551133L498.6649937262664,227.09491432135746L497.72103865661484,228.7278868159574L498.19965142559886,229.63550712911092L498.60098710771126,229.98465279969423L497.9335527250296,231.38666234058928L497.63587808379816,231.70950222644205L498.5515234624072,232.79801580209642L498.69744018534766,234.47567176476332L498.1605244027087,235.09987490449566L497.93524988879653,237.26835307904093L498.06924427333433,237.99230641082158L497.7941471115446,238.47173586116787L499.3766567544517,239.6812682069367L499.2933027002982,240.1833804706357L498.57593677153636,240.70213685293766L498.2699182094693,241.19055220396058L497.4626640019269,241.40844527913578L497.5575840429883,242.29778347319825L497.42601668503994,243.19467734782393L497.0664835069547,243.54466553391921L497.2488586854888,244.22985683918432L496.733322243741,245.5588180630184L496.82564990709943,245.9459977922188L496.4031321077273,247.23019000194472L495.7714172875203,247.37866660722375L494.7861936459012,247.98763165229866L494.3906068425131,248.9292499222047L494.2710634967698,249.6669249268689L492.37495369234966,250.39258850936494L492.27823465659094,251.62910789653415L491.7940958230465,252.18592014320348L491.7144558040418,253.47719553559273L492.33261663590747,255.5406702410619L492.3053519016212,256.61319028015623Z" fill="#FF7B46" stroke = "#222" stroke-width=".3"></path>
    <text x="438" y="258" font-size= "4" font-weight="500">
    पाँचथर
  </text>
    </g>
</svg>