<svg  viewBox="200 28 230 230"  version="1.1" xmlns="http://www.w3.org/2000/svg" xmlns:xlink="http://www.w3.org/1999/xlink">
  <g>
  <path id="path-0109" d="M409.3336584052922,78.0428442207949L410.0901432866849,79.30548990871466L411.1417301301917,79.92773530378145L412.07830250097686,81.46277289652062L412.3682759862313,82.23373618847381L412.24176532351703,82.71509012129172L411.2507883587459,83.85191010098151L410.7130824623491,84.7200703321123L410.59600467514974,85.96240377830236L410.90604712297136,86.5730011536325L410.3520654325548,86.99304301561733L409.81867911346126,87.962463210044L409.22603627560966,88.50082836194179L407.443389980559,89.33777014183215L407.3625445026046,90.14891934111529L407.8400782194294,90.56588328362432L408.36553227379045,91.69281367126041L408.92224731396345,92.34654876182685L407.4045145829732,93.92154005265911L406.7478492504961,95.27865339366235L405.8876400858826,95.41089999325322L404.60581431675746,96.49999484558339L403.15162951656384,97.40368312730607L403.8936899056098,98.36304299069525L402.9184518360962,99.47833934545906L402.2914757507315,100.59585966817758L402.7589532573802,101.52919269674021L402.6823541869635,102.72228148213617L402.030550088748,102.81705353575308L400.95946645709773,102.29911128961066L399.4185438999448,102.05742835724959L398.2296377035491,102.27465912271964L396.5141632225241,104.13855419017636L395.90433337504874,105.46332589888516L396.4764386868919,106.17043100064166L396.892442262415,107.71772969815538L396.3521796832101,108.94560530875333L395.32050445021014,109.61514182604333L395.1942752148243,110.55783757016616L394.6411837897431,111.58896050189651L393.2731072753122,111.92636515303639L392.86992611216556,111.67038666491953L392.89590463426066,110.78936325617724L392.65507414808235,110.5542041371773L390.734939009315,110.43322446010279L390.3895359780727,110.0619174315907L389.5833649499473,110.24139959148215L388.61600571036615,111.06610682752853L387.8932039554056,111.405283905131L386.8958174772124,110.9513366966039L386.49337858329454,110.41534772613977L386.1420129798935,109.16347990713166L386.25281881619594,108.11426707026385L386.1742395465044,107.04586037054469L385.6389433672448,106.72961579202638L384.3923439764585,106.60253791331434L383.52371301232415,105.60108952741757L382.7125062772211,105.71052135271384L381.9227652307309,106.80819405362308L381.8448037882699,107.65106264870064L380.62521117302094,108.39101936709358L379.73727357021926,110.20097127210465L379.6107454484045,111.31054850146666L379.80472978780017,112.50132225428479L379.4885948269184,113.64810281639075L378.78642586966816,114.0951191993754L378.90915695993317,114.8122534480699L378.74206199333275,115.61280987749342L378.04464417651616,116.22376038397579L376.6053629633425,116.80827834061074L375.3840481156112,117.47767484934775L376.3491231163316,117.76322770256684L377.2760538628172,117.78637499175329L377.52370956087543,118.31938765352788L378.44243795277725,119.11726365348659L378.60791032261477,121.17529618206754L378.35106861430904,121.59300654545586L377.11516911093713,121.91659613232514L375.982447763512,122.70249743195018L376.3601278341448,124.51516644545518L375.87122535978415,125.72631311725127L374.9463357669192,127.17392177133297L374.79725959656207,128.0263346501506L374.4870532906716,128.59227184206065L374.22120179993726,130.0073205809067L374.3866069663454,131.2284761686078L374.64609054648827,132.07841222602656L373.5238295710478,132.6021619568246L372.9778845891233,131.9783615860024L371.9746350879468,131.5011863514601L370.41357131438053,131.05309613120608L366.7701408320572,135.6446750433588L366.10551561220564,135.8781142063508L364.54060962861695,136.69046947983134L364.16962030998184,138.33185770934415L363.6339096060983,138.69406811435056L362.9932084758002,138.75855421096185L362.52126943568874,139.16011403782977L362.7764629009798,140.50116782841178L362.3934768300096,141.41034860906166L362.5787388016324,142.25189020164908L363.8475776166306,144.4644215909493L362.81042840410737,144.72136635636343L362.0930703980157,145.5632430223759L361.6876990940109,147.75442496756932L360.7749201315273,149.35777890568352L360.708790648936,150.70807883020552L361.4268959557048,151.89024030875225L361.12583296349476,153.1172194576875L359.99848115170244,153.9537187708911L359.33979386574356,154.00498209440502L358.94363614554095,155.05278237477887L359.44584945649694,156.29916733362188L358.8779436158802,156.7039151926965L358.6107354068081,157.32076842157676L359.9226844269251,158.91154398115577L359.8252694296316,159.67505872458878L359.4594327840714,160.23980210130048L358.00617373627756,161.2512820416432L356.6623878005739,162.8320371772852L356.7282511702142,163.77958865393612L357.1016747281501,164.7816359232702L357.14277866767225,166.2945140703323L356.9892931631439,168.00978843692974L357.2335217918262,169.86155596337994L356.79156318218884,170.91442332485803L356.7118832369524,171.86207306752567L356.3574764583209,172.7599261904179L356.0313606692944,174.2698796673758L355.991123989872,175.16301140984433L355.21004698958495,176.89121758268175L354.3909232785518,177.73926159565508L353.66484271396257,178.22067428255195L353.2474117857164,179.7286380091964L352.98955124198983,180.18796128575195L353.3766927216384,180.55963418711872L353.7498760480921,181.50872553563386L354.0051880427054,181.76723998537182L354.2873928095869,182.09946860535365L354.5583162564435,183.02984240021578L355.0199915401208,183.83201265512162L355.68407968324027,184.49334554520556L356.24177643585426,185.59781267352537L356.1370716688325,186.6535257248952L356.1349055439314,186.67364714148152L356.3211992874312,188.06047347362255L356.5745672654557,189.0005976466964L358.3192441965548,189.9381936337668L358.90930157366165,190.57287463147895L360.0166350780528,192.12098993286872L360.53888561706117,192.5092928192389L360.652528066541,193.58357800190606L361.80008854275366,195.91473764248258L362.83597388336784,196.8138721154337L363.4463800118174,197.67648354843732L364.8928812424383,198.61394159412976L365.2476035434702,198.9792903550151L365.55347961978623,199.93461222080532L365.6737793954744,201.6358941751232L366.50818330578113,203.70726598427518L367.58316277503036,203.90492357210678L368.8914519437676,204.9772276709482L370.4382275708231,205.48560308419292L370.9744976718939,205.89423423842527L371.30394647016874,206.63801836267157L371.36862669303446,208.10501397728876L369.77144712843074,209.74940411913667L369.04309296359133,211.14102661417837L368.0655560239866,212.0940616823018L367.62196477964244,212.81778620878777L366.0696365198055,214.037427995082L365.0701832730483,215.18659513404873L364.3274551104623,216.38387052181133L364.1451191912238,217.418029946386L362.6484125600291,218.96761038017667L361.95057391376395,220.0189850343977L361.8211031468345,221.36163949943602L361.48499267449006,223.32423697853847L360.6086546806546,224.58555908972903L359.88096729732206,226.58999954477622L359.29451066506954,227.38756877837568L359.15962809857956,227.52459733730666L358.83520319691524,228.44556662584455L359.18896160006625,229.16172532894961L359.08012212353424,229.8429866182496L359.16308933135224,231.96117879259782L358.8896160476579,232.4008749440245L359.14381785423757,232.87972103610355L359.2802323218566,233.56410048592443L359.182848987919,233.62357422452715L358.5337593611803,234.0131409548212L357.5610591099139,234.6973013709212L357.2693405301361,234.93331465687243L357.0159193453874,235.1637193947954L356.88098855015414,235.28177363539453L356.3313907960692,235.86496904077376L355.9110834838975,236.29155627190994L355.44778204448085,236.85029539740754L355.1680466517937,237.23190570671704L354.9968466745013,237.57878357318077L354.61405615660624,238.00031986949125L353.9439120759307,237.94814056959785L353.16480137886174,237.88296318579614L352.60911982219477,237.83460536933762L351.6467945231743,237.98976279720682L351.3859614033936,238.03612790671923L350.4538345787405,237.91358422014673L348.7087548184754,238.19811879918325L347.63378778267725,238.5578217205748L347.306713637965,238.56085455298125L346.8239850695245,238.78374375825206L346.50109361018986,239.1808242347497L346.4039024223239,239.28407750372935L346.02119110962303,239.68616151737206L345.978051848615,239.74009014410694L345.6976614376181,240.03952619055053L345.5196711319295,240.21616102343341L344.51811186577834,241.2376696979709L344.41674889165733,241.43350051818106L344.2592064783239,242.00078931567987L343.8934878122527,242.87117709363793L343.8585895484939,243.13970179123862L343.49412091167324,243.63044382556564L343.3051696004186,243.7783067105811L343.21019024410634,244.48035826915748L343.5374657771281,244.9340314442079L343.914264746596,245.8646585728129L344.0586121130873,246.5254116176593L343.9991534109904,247.00784793125513L343.86533949022487,247.20361561031223L343.6462675980365,247.55154580409908L343.38486408526296,248.45043304391038L343.4263377941679,248.71745882885625L343.3805586004055,248.97616997363002L342.4859402157417,248.4748719875015L340.9148176622548,247.04155025757882L339.0416257372999,246.0325513640537L338.3554301684526,244.8537660514212L338.2589205522272,243.3769252157772L337.1950615576425,242.50428482419102L336.30866649786185,241.42505855508352L335.08173678721505,241.10484303630983L335.4254763694007,239.76033666494004L335.8038799164824,239.06879480638236L335.59661427541505,238.06102476232354L334.6992135726505,237.0934301722191L333.5622795568088,236.18907167065117L332.6292684005275,235.69942027733578L331.86942407065726,235.9039614086405L331.3318851311815,235.74151834418717L330.703306721065,235.07898968854806L329.6487308352225,235.42720560953694L328.57240185694536,235.43428245700943L326.9439583973617,236.04058165794868L326.15452154449304,235.83617972767752L324.8362701136284,235.92734690295129L324.29245415700643,235.75061345747508L323.26437951307526,235.76143330525792L320.20146245172145,236.8421319485551L319.32762245940467,237.26009234533103L318.0083081087796,236.83495411101376L317.9440206163672,236.52419702034695L316.5967551205722,236.42694379154273L315.42323064505035,235.62719159895187L314.1962191337334,235.20471226112477L312.38322187058657,235.26942610302194L311.68029939674307,235.53087317888003L310.3593555359621,236.32950678709585L307.40452286125947,237.1503778427632L306.86852952726986,237.7165421566715L306.77450819702426,238.5205068828227L306.2665421960264,238.60181393621951L305.77876756405385,238.2862690190268L305.409860184649,237.61143666304633L305.57391652223305,236.96232407553816L304.2536962081904,235.91071468468363L303.9238077719747,235.44017020859246L302.6141111268553,234.80969171923698L302.60582560347757,233.307215855938L301.8692130831805,232.29125062777166L301.63852933653106,231.2807727526042L300.47020212715506,229.93218316339062L300.3781811741537,228.99269323109365L300.41269962292426,228.83629390122132L300.2788090033282,228.448382220412L300.2611564434337,228.3902487954001L300.11003322056786,228.20304140674853L300.0266340592643,228.12639684466558L299.0640085015875,227.6669200432152L298.76755065154794,227.5502276874422L298.7448644112992,227.5116581316197L298.59423558088747,227.34861869377164L298.3438784856735,227.1048884048787L298.28255966049255,227.04267731396885L298.2291554866679,226.84874513241266L298.2206613667113,226.71240422273786L297.9790269266123,226.1362169856293L297.75931341114847,225.56984311338692L297.46815509141015,225.2098620090892L296.72043825281435,224.8825006289553L296.2342779388673,224.80409483895164L296.102609296664,224.75786420941222L296.0148462012876,224.7301291736585L295.76133720282814,224.5933943346854L295.7007518454411,224.5605129685964L295.48124035207366,224.4819271939632L294.91585353634946,224.27282147360893L294.1827543054387,223.63838179054528L294.0400402348714,223.34825731157707L293.91317161554616,222.80448848038031L293.7002726686733,222.06732972374084L293.4995194486801,221.62238478113522L291.9972931669872,221.40732142676188L291.336777424327,220.90764430936724L291.23843154594215,220.66534515716103L291.2356569995136,220.54856793060753L291.4461043812189,219.93281498299802L291.791683690004,219.64744532942586L292.11085923837163,219.0692407971319L292.0552402574285,218.8557608187093L291.77720516980844,217.61289232139916L291.4949527007848,217.277700359763L290.9707977498874,217.2067670820943L290.2066257486622,216.9359147387313L289.9430540710164,216.33213471846557L290.17017012002543,215.94651077982599L290.3969711235768,215.7213321283798L290.67051531516336,215.6032276868973L291.462152125634,215.8833516204695L291.94369681215903,216.15554722068555L292.8200915726702,216.00671629123644L293.1080196793664,215.8190550320951L293.1383183049911,215.74489375556004L293.14198928961196,215.33994897896537L293.08525820103023,215.26335174361338L292.97485700785546,215.2125802866185L292.5893895301342,214.8904539266423L292.35959960368564,214.6721179684837L291.87172596660093,214.20030185452106L292.4177193111973,212.0066796882229L291.13261378464813,210.38730609571303L290.6019700579782,208.66321784457796L290.9233881187538,207.91994791393427L291.06277537937785,206.90258123850435L290.3560187165858,205.9582273655069L288.4138159154172,204.96845908521937L287.80267816160995,204.13933544072643L286.4470693835792,203.51170963500408L286.1505716981046,203.0356205341559L286.7052072420047,201.90722048637508L287.887452090381,200.85674574852328L288.0640102687248,200.75573744279336L288.2244467394921,200.6639218496166L288.3930216512272,200.4749085559124L288.43923464776526,200.38121508885615L288.5301417896917,199.950507699451L288.52451388508416,199.75550729541192L287.04062007319953,198.64853943070284L286.8688206195402,198.54474932900757L286.72083130057945,198.15745929944205L286.725590228325,197.9619011136465L286.82822367864355,197.58872185673408L286.8837551700635,197.45073889597188L286.982171761887,197.29212399138487L287.37805807299446,196.9072617882439L287.4409828416756,196.83257420161135L287.50201043894776,196.69460707451526L287.8227361918871,196.34070094547133L287.9484422360256,196.1861480652924L288.0489950740339,196.09597447465876L288.13838025523,195.99659272590725L288.36358694912633,195.71791643167217L288.54729549408876,195.5036197180134L288.68561596148356,195.22712757495083L288.76771905699206,195.05008031566194L288.82584029109057,194.6003514129534L288.8334525646278,194.4830164182049L288.696913083837,193.9007256948853L287.6616011156948,192.97151260093415L287.4113731349753,192.80148108608137L286.67646027257797,192.27534332836785L286.36889540219636,192.00919862048704L286.25450846175954,191.8209550817419L285.6451097429308,191.1074935378938L284.9305276808627,190.722906026258L284.58208671278044,190.5545171978647L284.47910662328286,190.38585316416356L284.33116466872525,189.97957290953218L284.00795953493434,189.16698102716964L283.7723546728266,188.9383216568658L283.42752857323285,188.70666912642537L282.6700999527311,187.92806668694902L281.7347651299315,187.5220075684283L281.37583982720025,187.26792386163288L281.1637674789381,187.16470801623746L279.63990339440716,186.76493634992585L279.22619464993477,186.61721172694433L279.0304501084793,186.4599721713439L278.9215778849284,186.3914053105209L278.88351868571044,186.3620284636272L278.2860309451062,185.41343501868687L277.81875226994816,184.78308515046956L277.17692239291864,184.2394052728696L277.0245902194947,184.13110624474302L276.6001736359576,183.87643424499674L276.46949266507727,183.82739968433998L276.0018198522812,183.3816948938029L275.5935902038691,183.18515632880826L273.77941673108216,183.34040834822463L273.1424522865236,183.0895795975257L272.6315997796446,182.31258186800733L272.41479897521276,181.6284749742017L271.6090618585258,181.26995288468515L271.7134281098479,180.73397054876386L272.72806923308235,179.85367828721974L272.8704798364197,179.3959503693677L271.7249260415265,176.98596242700842L271.9471160334215,175.73684024552313L271.29623490536324,175.0759213070678L271.4069581349613,174.56812154007548L272.0983818807799,173.04157736124762L272.70417146669934,172.65272862777238L273.73372412167373,172.50357635425826L274.15520581113014,171.8844901482662L274.74822915410914,170.52874837832405L275.46416890752516,169.65344797668786L274.7719478944673,168.29930633418553L274.20583327586064,168.30737771835174L272.3302429615942,167.57338733070264L271.4607805039486,167.10726568228347L270.92777972120894,167.55083750709127L270.427593654731,167.1661665800084L269.3612694400217,167.16124683368253L267.72692251452827,166.61232732839107L267.4656033176034,165.57561139211248L266.8672046001593,165.91854564944242L266.0453540475937,165.93632380065537L265.1412696276129,166.69378285446146L264.67741619025765,166.77970920256848L263.71732113226244,167.62001258013242L263.2581607327156,167.4137727101961L262.2994662832025,167.48333036383156L261.64328448655215,167.01126248672335L260.802830001423,167.1706552545802L259.4472973440934,167.08415585974308L258.3432998405333,166.49456992690284L256.714728482777,167.75630279819597L256.1035055760731,168.81610290687695L255.1987973570067,169.46280676359947L253.92726171026516,171.26033846495284L253.1243950915814,171.03052618574384L251.8092831737158,170.42839000715594L251.11110298050335,169.7315943812655L250.4325770304422,169.55709375007973L249.6250021964006,169.65349309875546L248.67676705457052,170.11454897764088L247.63701672670504,170.88622117190062L246.87323607314465,171.0085720005818L245.87061347076815,171.47372320273007L245.36984667991783,171.47709359896908L243.8542792892622,172.35118130255069L242.25925098669904,172.58168923836547L240.62824824622658,171.96786494680055L240.10194883414442,172.16687349536915L238.86373971051944,171.79128054967623L237.93370762877385,171.9926381499281L237.19349420229992,171.6521651514886L235.30414426179414,171.1082046395395L234.6988394709042,171.08873122288787L233.32943655844792,169.80683456868974L232.90351234011905,169.80747935039653L232.12518894784444,169.30203728102333L230.5861791391835,169.0826889611817L229.74828342770707,168.2482962098784L228.95664218594175,167.75327351859505L228.17933124937554,166.92638339748828L226.92107677730746,167.06312896149575L225.7351917748456,167.02504196222708L224.43630324228798,166.6798790493758L225.15339851360113,166.18490939156527L225.23572893319943,165.48312938845993L226.0069197133671,164.75060554034735L226.3466809398924,162.88453773210676L226.64239308690594,162.42771530468508L227.68817774402123,162.22200641818472L229.15391540438577,161.4260473545528L229.35487022372763,160.91118847759572L230.23997241961843,160.47896965349992L229.58787170233336,159.41042976301742L228.7451276208485,158.33163342357238L227.48685571174428,156.96478864894743L226.24106872093762,156.0990023738077L226.1699425546467,155.58824269512752L225.24064178888875,154.2840822185799L225.0781852499531,153.08139126453443L225.2137471148235,151.97353471849692L226.43042646972026,149.16267126478215L227.55584075427032,147.88015713225195L228.85000678046708,147.19871607210462L230.81651831838826,146.01328895822098L231.20254467434643,145.68762822434383L231.10583784038317,144.6477073346732L231.3566204877643,143.2637256263779L231.18933764040776,142.81052785619886L231.16134433550178,141.248310521446L230.8366536767753,140.25158374199873L230.28584115657213,139.21061946135615L229.68331322353697,138.69313026173768L228.0238126835502,138.17022718852513L227.82366743879538,137.83841140167988L228.50864467829524,136.56242105749607L228.50961707639726,135.16356390841702L228.70659627856003,133.5426194914089L228.65755074797198,132.3496926048365L228.44555380554084,131.33974081392353L228.60696693768114,130.7575884462285L227.94646001017827,129.9243557754371L227.98167117722187,129.4015023439024L228.80616297615052,128.53615747793083L229.05649303556856,127.57725765694977L229.1509682644064,126.41995088121348L229.4071673742692,125.75382240328236L230.13972928297153,125.17497363714392L231.47345443287122,123.21901943222292L231.50402706290697,122.57709477208209L232.90989266847828,121.60531778218956L233.63407336180535,120.24372735229099L234.52346430904072,119.97324406584175L235.53249491415772,118.98552678319083L235.67482935745647,117.26859671798866L236.29257179447814,116.39540134178242L236.51163706524676,115.76325522218121L236.44163802475668,115.08110557133386L236.62563065258655,113.33538674444117L236.28337624926644,110.56710417174872L236.36670841416708,109.0831242210752L237.05804104233175,107.0687929245305L237.7896878462525,106.18181487724723L238.7364426325039,105.79296020806032L239.54556112945284,104.93018057711197L239.52018626337303,104.3469482538485L239.78749841708486,103.39273203305038L240.99427603035656,102.35916065203946L241.59325182396424,100.77400712048257L241.5089827293814,99.56037020772692L241.79101628810895,98.67002273565231L241.33794846771707,98.06376125980205L240.3959388885669,97.64903585534012L239.45123275403603,97.75139606531866L238.50764312437605,97.20730768876274L238.19974795462622,96.4176094461036L238.20402927948817,94.82609403182778L237.59477726336263,94.2509493909838L236.8703060294647,94.02035526710097L235.72276184635484,93.06280283951492L234.3257190052209,92.48091735380422L235.05605976070729,91.61057176880877L235.3538550484118,90.99739861413946L234.90949779499715,89.5273044885289L234.93146946958223,88.96306160414406L234.55338369839956,88.18260487033695L234.63880737494037,87.61375668136861L234.40142127480794,86.80854004105913L234.51441393965797,85.9250620955263L234.9722527742597,85.46371236145478L236.13368379277745,84.80097712316729L236.15563043341535,83.83468938008355L235.38277500195545,82.07992296135126L235.56762945950686,81.82511280929248L236.66305236472908,81.55465766695215L238.05365043827987,81.04669189369906L239.92551454275963,79.06979442089687L241.46807554707993,77.14187596702413L241.69808493600794,76.5040263041983L242.27894071117043,76.03703464171849L241.9097128494177,75.27778250488791L240.3921405487854,74.8032132351318L239.77594779853462,74.45177755083114L239.23324795098597,73.5930528580293L237.44617722255134,73.19510252254531L236.7363052218825,73.25727956284845L235.69661050448485,73.63525474645849L234.72928886923182,73.29948591125049L233.75947141512006,73.19782906310047L233.88192309586884,72.85098433166058L234.86651674881796,71.91732286232309L235.9562117897658,71.26438673044231L236.20358198845497,70.46430732609952L237.05840896605514,69.75507382349588L237.01333524698202,68.80201041538476L237.33327948728765,68.42409591537762L237.0881347859795,66.90453140836962L236.30297644273378,65.66224669442272L236.1728843269666,64.8823272961954L235.66775345890346,64.21347241806507L235.7077453961174,63.767137577925496L234.72983751730135,62.36501660201884L234.62972985341912,61.709329743755916L234.23695742937707,60.99619950384931L233.05900239995754,60.07670798007621L232.95910404258393,59.518250464064295L233.16923994942408,58.53641043155221L232.96500706861843,57.79448878639414L232.8570736720867,55.5715028151908L231.4699494469096,54.00677745501889L231.29309367182213,53.62205325319246L231.49681826241067,52.32615768589494L232.51730730412237,51.552335369826324L232.4940024541611,50.93117051766876L232.99894281497473,50.22823624662669L234.86979354248615,49.24670100432195L234.45919207363113,48.421987619390165L234.2905130795407,46.8276717874769L234.50715320650852,46.04599379147385L234.38072605128764,45.307511982935466L234.72143687960124,43.9224778161888L235.1633993544383,43.05852603585208L235.42969816994446,41.69307290644974L236.57300632181796,41.32314120256706L237.70309380873368,40.33550159970673L240.38645196260404,40.4240319044884L241.1435503718203,40.70528712972373L242.11197799240108,40.64264336933684L243.69685457272863,39.59544397245372L244.01373610571682,39.74387111073065L244.38337893481366,40.533615770971664L245.19321771979958,41.23713177458558L246.00309645936431,41.59732612475L247.05950881208628,41.50378977921173L247.9222586042306,41.730589566410345L248.81148887341988,41.417919827552396L249.66539283107704,41.45727092337984L250.70363211331642,42.92709905706579L250.88822306742077,43.69326860023921L251.59198828492663,44.796075196451056L252.5071310354033,45.57805145918155L252.71785356723558,46.570844709054654L253.2983434081907,47.52525255661658L255.37028525996357,47.829234107452976L256.45777336044193,48.206454119565024L258.9123490442944,49.62261574088552L259.7302836050694,50.45187817219448L259.32409355864365,52.35887415279376L259.52562926347673,53.578897185573624L260.589742135664,54.439380745751805L261.63072220013055,56.63311588709166L262.26388267408765,57.04762359275719L262.06954971465893,58.00916681735998L262.33290132408365,58.736350878909434L263.75766578819093,59.409649928570616L266.396477382561,59.99017445112713L267.0993473373419,60.951813030563244L267.2544903254857,64.15731979225257L267.42088768811664,64.89251912822874L267.2528241306063,65.83852881221082L267.70063948973257,66.64410801426311L267.6375680864767,67.27042036532112L268.1563428301306,68.24687851606723L269.23682593174817,69.51429767670106L270.7755974683678,69.78134395211237L271.8472829031234,70.87684751643155L273.49242276242876,70.39352279859577L274.969979531259,70.27015520654459L275.6294825450859,70.38011777178144L277.82054964299095,71.85311164140512L278.863612316316,72.45760988725942L279.64496027108544,73.55648023259437L281.7406570372623,73.93795168055021L282.58860970931346,74.26566125305362L285.3316808257987,74.51931926141333L286.3787510903312,74.12152504323058L287.5475663722864,74.52225835431454L288.9366031120917,74.70362818218109L290.61709195115327,74.15904645887622L292.11173158601014,74.25499017182938L293.55412861568766,74.1007161966345L295.2166527917507,73.78295015851563L295.9371421303731,74.04175868695529L296.6935321873534,73.9883269801885L297.2635194341274,74.7478941214822L298.14655159510585,72.98992735355205L300.12119420785893,70.74206605254858L300.5279304987089,69.73393537892389L301.50541065686775,69.1340206311661L302.7820578957544,68.70031277947692L303.2764077675638,68.84153569403315L304.3882309918081,68.20628263899835L305.1422755004787,67.2983541762469L306.2845935296391,66.81045010912203L306.93089504959426,67.13837037146186L307.29012615592364,66.83595393601081L309.0681204428547,67.39098763814218L309.9415160408789,67.78154604664724L311.0732242179474,67.98570232971997L312.28737986797205,68.44659168348062L313.08409924033185,68.0755347853501L314.24127209304424,68.5984939201744L314.9671070371005,68.54597079779796L316.06810131439124,68.77322816026117L317.21787068566846,68.79127343160326L317.3041170548604,70.75046816100712L317.76615172063975,71.24842765279027L318.43014840305113,71.40577004098759L320.1362107234345,72.44320795639851L320.68519769420527,73.04263298479327L322.6740864442072,73.0472646450553L323.8197095766991,72.87916744281574L325.35527936903964,72.4555233913461L325.8981763129668,72.16925800895388L326.9258303545903,72.60489945925292L327.77177043632037,72.69441852132604L328.394440080443,72.0431791226165L328.9970887789859,72.2546415924744L329.26667822164745,72.66713260819506L330.24978299529175,72.80194214408493L331.63227560575615,72.43224458200984L332.0987855129024,71.49307973922896L332.9197666539876,70.39956497167623L333.6416084179,69.89132403521671L333.84578021070774,69.3529344083654L334.600574506323,68.49222646688213L335.5112614934369,68.0828842335386L336.4294445536725,68.04628893749032L337.3097190445078,67.60586508167034L338.5088336387962,67.26698216250952L339.39576492857304,67.41729466836114L340.7091159661759,66.95459076783936L341.077364225559,66.66807364030956L342.1311814217479,66.6245297455871L343.5436668145194,65.3621790054458L345.5469901582037,64.73549641308091L346.3956798763611,63.86266290632648L346.55555630922754,64.35777617598887L347.7879299741544,64.51969630916392L348.19789825294356,64.80855702577173L348.37687584416926,65.9985500443936L348.2750741411619,66.49975391648604L349.269654776941,66.87957224058937L350.1176902283005,68.01699529948746L349.6016406557392,69.1651174223025L348.4024148611861,69.51913523487383L347.2665802387819,69.30572301438406L344.37237445992287,69.77207233774243L342.7947686026382,70.41905966047307L342.5824278973123,71.11035908553367L344.6278086254606,71.1785080538557L345.0468708309054,71.35863678084479L347.99102684582977,71.89615626681552L351.5738037508854,73.35273089028578L353.2631279890702,73.90970966089208L354.35497753299205,74.10765328800062L356.54819136508377,73.30677313463639L358.4642435006426,71.87530113505272L359.80575006570143,70.97859324544697L360.712485558699,70.53882198976044L360.96993773529175,69.66144287269617L361.9761027421155,69.47051834453578L362.5817137717422,68.95960295657369L363.5581645110906,68.62080365744805L364.6278500986082,67.94878135324325L365.10619894312185,68.4865212297882L366.7343480777381,68.31006688651541L367.5088288854349,67.96948696831532L368.3697793481624,68.21016280418917L369.1743992663869,67.7903713742071L371.20934995050266,68.0492670451622L372.4548139925937,68.68775893319344L373.36167040535656,68.65151420867642L374.16616381083077,68.27151941387729L375.35539227552,68.22317754049618L376.18474513665205,68.84754593030812L378.42181501804225,67.3102992083459L378.5428309751369,66.88803505095984L379.3116330450357,66.23080256198318L380.04594862536396,65.04429752861506L380.4418795566562,63.18356570531978L381.7223037674339,62.805091508369514L383.0681461076929,62.70530418280305L384.84766136254257,63.558063546631274L385.24629269897923,64.08828524537694L387.2387478498422,63.99076414274259L388.2040437948017,65.55347389231338L389.1660394786886,66.32421755999076L389.0722256576919,67.10315356268347L389.36619636463,67.81757613374339L389.62023227204554,69.3652438905956L390.14881590702134,70.11979334980879L390.37841310853764,71.62707546291131L389.81538233399624,72.70768135369326L390.02665665199675,74.10734716904426L390.3746328838206,74.83583620629815L391.40419353868856,74.35827324746242L392.87826519809096,74.37328525453904L394.32846091914325,75.25040988427827L394.9847790458116,76.08209688749957L395.4359440477965,77.0394068383348L396.2553190724648,76.75547807125349L396.41310565346066,75.7582805474749L397.0741471305191,74.882407320114L398.5806216457531,74.20417942367385L399.62128416620544,74.32735774038792L400.9395768420618,73.31019261066012L400.93594962349744,71.48349747973316L401.77561642968067,71.03071132486639L403.3935544810447,70.86908908171063L404.6375617543963,71.1964086596854L405.8336322974319,70.79598241891563L407.68093682525796,70.44988612503403L408.7924138933995,70.67491257380152L409.2356509485144,70.50795912864669L410.36514966495815,70.90222458327389L410.4242655777307,72.12871885590994L408.71490996758075,74.03167759095686L409.27208719862756,74.69347388270671L408.8874869717911,75.35993961092299L408.9731648091001,76.13796427341094L409.3128185479909,76.57956068217209L409.11781302751115,77.37290063681576Z" fill="#FF7B46" stroke = "#222" stroke-width=".3"></path>
      <text x="300" y="140" font-size= "4" font-weight="500">
    संखुवासभा
  </text>
    </g>
</svg>