<svg  viewBox="335 200 100 100"  version="1.1" xmlns="http://www.w3.org/2000/svg" xmlns:xlink="http://www.w3.org/1999/xlink">
  <g>
  <path id="path-01013" d="M413.0013037919125,214.64354796998487L413.30214499386057,215.5566836720327L414.5713640139693,216.96058505654128L415.4102888843372,217.46570730227631L417.1331652041881,218.0522867202135L419.19489941500433,219.11175230280514L420.14854203107825,220.33136479905534L421.21202676996836,220.8348738817167L422.1453640365107,221.63453451481928L423.19507617538693,221.76817998823572L424.0491143671934,222.05386257584541L425.2089738281029,223.67441740107552L426.7832268001366,224.0214228194509L427.2198105084026,224.78237917660772L428.1346703781892,225.67989095180565L429.77955436234697,226.46281062615162L430.2072878560648,226.84472678126895L431.19261872376956,228.147612299319L431.07348662860386,229.4584040417767L431.2401183531365,230.68101015874072L430.0613050729917,232.02006765982242L429.5961154477736,232.90626147989315L428.3832336176238,233.17076112896666L428.0019750629872,233.70367413801796L427.05837231227997,234.03692888669138L425.1135078402003,234.45874871509295L423.2276630434244,235.41476395394784L422.7309694414216,235.9126458582532L422.4874046230725,236.6326868313945L421.61397623513767,237.63999873605917L420.9389189572321,240.10933362565993L421.0518191290903,240.7627588485493L420.9958713539381,242.20966755777044L421.13225111331485,242.76023909921878L420.9812655241476,243.72925467438836L419.97876930985876,244.87746643737773L419.8141332771811,245.2430159162932L419.55582063025577,245.44190848754624L418.7182967688277,245.60163621375068L418.0455257446956,246.33051101013734L417.89356252063953,246.34067801764104L416.8822761199699,246.24419975731962L416.4853897936446,246.7932675052498L416.2857367663637,247.1063395120027L415.8500016928592,247.23362355583959L414.98008159361416,246.9958150722632L414.1523955019293,247.5301540680157L413.62701671577815,247.59720302611186L412.2859911458472,247.3042484974594L411.6423813278743,247.68079933706304L411.3348168942939,248.14925245644827L410.44586038539273,248.6511721037541L409.6854389606815,248.70449242771247L409.0059412759547,249.26325158689087L408.82891599080176,249.8451022019044L407.94291099449765,249.83458758529196L407.02527728507266,250.2553690037348L405.6169061558212,250.3885812004164L404.96751362662326,250.06806867435898L404.0823508906178,249.9656137921893L404.2966548258519,250.82254518337504L403.6726690963951,251.78945042816122L402.792989243364,251.80672007689827L402.0596749045799,252.25262199149984L401.374266030929,253.47873258371965L400.57941379558906,253.334806556506L399.32192069700614,254.0792409312844L398.7907872532014,254.69004533311636L397.05305380500795,255.0890314108974L396.0730387342519,254.95820434209054L395.423949697426,255.37872595650697L395.29360048855597,255.91713072777657L394.71427161124666,256.31093408542256L394.4379689061352,256.3229672974994L394.25246617178345,256.09899077978935L393.6632372944223,256.1821475093402L393.21281528387044,256.36371012771997L391.9460324120664,257.0140377141188L390.80158378046326,257.75294179452067L390.24291642437674,258.11757433273215L389.7564325704443,258.53831603749586L389.5720738499367,258.88841236771077L389.06127721889425,259.90843089482223L388.65389158406106,260.41982096628726L388.5096123199146,260.6671429687276L388.4733392214912,260.7216290872566L388.3588005660713,260.8753215839097L388.23275958186787,261.01456448762383L387.7248170025159,261.4358163817715L387.5702430797428,261.5323954497753L387.1387330111029,261.80959404336136L386.9580495902119,261.95092494707933L386.87333154593944,262.02650514143716L386.5888583031301,262.833516473911L386.4380860985184,263.38394983955914L386.41218359692357,263.4241134223839L386.2784502655704,263.661701135964L386.0808356426278,263.9450450455897L385.83332142459403,264.0291674133241L385.4798377799052,264.199719656237L385.4010143196647,264.2845240378847L385.1029817159979,264.9902595637159L385.1210842985238,265.2238776203967L385.1621120888085,265.49553950226345L385.1705296632317,265.768795113705L384.89383656527934,266.13178162930126L384.034144170957,266.60803511854647L383.97086858292096,266.6687509091171L383.64474588791927,267.18915670144725L383.5940409558789,267.30744842791955L383.2246823452988,267.8345939899764L382.44464628281276,268.42567973648966L381.39341341066756,268.678052373818L380.8255312110523,269.448888545061L379.3421588271922,270.327198611687L378.73809632592383,270.31795330606565L378.0378047473896,270.692593292888L376.5698667445831,272.17043437024495L376.3677098088556,273.0750560584356L375.5234038040944,274.14348023247476L375.58582157096316,274.90358324022236L376.3343980404825,275.1854126170929L377.20743399533967,275.13237717518496L377.70835095076836,276.1248161984149L377.88781824247053,277.87762004225806L377.6957185842184,278.293338052782L377.11971350809836,278.4355204085159L376.31840376814944,279.4684167596715L376.32481022074717,280.2835320001068L373.02344769532647,282.39655994831446L372.2647926974787,283.0811468108641L371.2973216924511,284.673255030968L370.62843277597494,285.19196229876616L370.21445837078863,286.00324560157424L369.6500975464187,286.0955305064008L368.19906198523313,286.86456629061104L367.5281089532509,287.69277335745574L366.00602386096944,287.82028382190765L365.2575893613466,287.4748242742062L363.9669763942038,287.5244099969714L363.31176787184086,287.85866297265056L362.7104624490312,288.6136001587656L363.33159850150696,289.1483750983307L363.03825173501536,289.9601660398557L361.5787742455468,290.075981688653L360.1997458784681,289.42190984012177L359.10452975311637,289.74785445321686L358.54951443300524,290.2936271389681L358.14935050642816,291.0406746692843L357.9327746886229,291.8826702121105L356.66385597858243,291.7778481411915L355.5148047201146,291.1563359945085L354.7459241650322,290.49868460253765L354.0626674067171,290.37801624881376L351.5983554721388,291.1117181486661L351.3635121683765,290.7480238648368L351.6712989315456,289.52029509551267L351.1582012341023,288.8025458210668L350.99211487831417,287.71312619361925L351.33685201490516,287.5168927099421L352.1506214473993,285.8443655354977L352.0566924116174,285.0680926884834L352.3641085562158,284.36957396343587L352.1039797779122,283.85451569714405L352.30164405647156,282.93534872570035L352.1019645702181,282.06439733114894L351.26329931102373,281.7620976113858L351.0694879965158,281.14542755700313L350.1799592365496,280.99541721436344L349.4414533824456,280.10040306216615L349.6884835315468,279.7393448274015L349.41686482077057,279.0505546196964L349.1750714642658,277.77970936625843L349.1338349488324,276.7160008966239L348.9406455839453,276.1286765306995L349.2288331732125,275.4254902760031L349.26767899255356,274.2924149783412L348.50293058270836,272.47468524034593L348.4530712963824,271.93727147592654L347.1760142647945,270.497667271944L346.7486845816129,270.3537345036939L346.1420698906113,269.4793173912867L345.63756515356,269.0435382897904L344.42274553992684,267.4218687187513L344.05973242437904,267.4628030179174L343.3040775314148,266.94291049855747L342.7406502423619,266.0289827108527L342.61988289820147,265.47872951102363L342.04261962686724,264.91682265817235L341.83765516607673,263.51210513308433L341.4281803488848,261.77952262958115L340.91606556551415,260.8456478186117L340.80240762383255,259.77311474793623L340.61451258595116,259.4245704828536L340.38852725007746,259.08168255277906L339.8507701755916,258.4267195934108L339.85576720115205,258.19204968134727L339.65998439109535,257.75145381378843L339.6291710618134,257.60526765055874L340.10761521457243,256.70811303571827L340.12401866862274,256.4740483158439L339.9462069232395,256.0864241042864L339.9330566657736,255.75506672964275L339.8773562564784,255.46326783175118L340.2840567684216,254.23171399631428L340.3100121255666,253.7043198020565L340.29284898608967,252.73387358903528L340.3536363546882,252.53790010584544L340.31499863552745,252.28468680723108L340.4511376593837,252.05326456873172L340.57059595378814,251.7665606012024L340.82710369823326,251.35485626428363L341.05868406689115,251.1334850463054L341.2047354055212,251.05393685657327L342.04410113057384,250.62606764093198L342.0801807873286,250.46971604126065L342.82416392604864,249.80977553464072L343.002250680227,249.67108934039152L343.27949862120295,249.1864027968477L343.3805586004055,248.97616997363002L343.4263377941679,248.71745882885625L343.38486408526296,248.45043304391038L343.6462675980365,247.55154580409908L343.86533949022487,247.20361561031223L343.9991534109904,247.00784793125513L344.0586121130873,246.5254116176593L343.914264746596,245.8646585728129L343.5374657771281,244.9340314442079L343.21019024410634,244.48035826915748L343.3051696004186,243.7783067105811L343.49412091167324,243.63044382556564L343.8585895484939,243.13970179123862L343.8934878122527,242.87117709363793L344.2592064783239,242.00078931567987L344.41674889165733,241.43350051818106L344.51811186577834,241.2376696979709L345.5196711319295,240.21616102343341L345.6976614376181,240.03952619055053L345.978051848615,239.74009014410694L346.02119110962303,239.68616151737206L346.4039024223239,239.28407750372935L346.50109361018986,239.1808242347497L346.8239850695245,238.78374375825206L347.306713637965,238.56085455298125L347.63378778267725,238.5578217205748L348.7087548184827,238.19811879918325L350.4538345787405,237.91358422013764L351.3859614033936,238.03612790671923L351.6467945231743,237.98976279720682L352.60911982219477,237.83460536933762L353.16480137886174,237.88296318579614L353.9439120759307,237.94814056959785L354.61405615660624,238.00031986949125L354.9968466745013,237.57878357318077L355.1680466517937,237.23190570671704L355.44778204448085,236.85029539740754L355.9110834838975,236.29155627190994L356.3313907960692,235.86496904077376L356.88098855015414,235.28177363539453L357.0159193453874,235.1637193947954L357.2693405301361,234.93331465687243L357.5610591099139,234.6973013709212L358.5337593611803,234.0131409548212L359.182848987919,233.62357422452715L359.2802323218566,233.56410048592443L359.14381785423757,232.87972103610355L358.8896160476579,232.4008749440245L359.16308933135224,231.96117879259782L359.08012212353424,229.8429866182496L359.18896160006625,229.16172532894961L358.83520319691524,228.44556662584455L359.15962809857956,227.52459733730666L359.29451066506954,227.38756877837568L359.88096729732206,226.58999954477622L360.6086546806546,224.58555908972903L361.48499267449006,223.32423697853847L361.8211031468345,221.36163949943602L361.95057391376395,220.0189850343977L362.6484125600291,218.96761038017667L364.1451191912165,217.4180299463842L364.3274551104623,216.38387052181133L365.07018327304104,215.18659513404873L366.0696365198055,214.037427995082L367.62196477964244,212.81778620878777L368.0655560239866,212.0940616823018L369.04309296359133,211.14102661417837L369.77144712843074,209.74940411913667L371.36862669303446,208.10501397728876L372.492220516051,208.0234885229038L373.7844236269666,208.5672681553715L374.60080792339795,209.14497438487342L376.4266079743211,209.5344485775886L377.61826539836693,209.0777210501592L378.14482411157223,209.0636600057078L378.7878676510081,209.71613551403334L379.77153686898237,210.12205023105162L380.00845419984034,210.61419930682223L381.7958773369646,211.01297812135363L383.1487002708309,210.99826484312325L383.8150269539401,210.6126965153362L385.04394122339727,210.62862158944063L386.564541292948,211.0719972544848L387.74085691719665,211.29370940344324L390.1741673471406,211.29353780915972L391.56253594863665,211.46047387964518L393.19201015766885,211.35069275648857L394.36029374959253,211.44202229692928L394.85130283641774,211.76970673124106L396.64745280622446,212.02202777870025L397.5207999595077,212.35258885246913L398.36545016544915,212.433998986171L399.4935017624557,213.6227809711072L400.80218301769855,213.71092165752816L401.4326192712506,214.0922446454797L402.32883487729123,214.06582998932572L403.5457624874907,214.4815223135065L404.2320707824256,214.98969024501457L405.74084918254084,215.38033306665875L406.5390187541125,214.99350368032174L407.51083910777015,214.85254072697444L410.43593437282107,214.95672675255264L412.346452760532,214.5736369002325Z" fill="#FF7B46" stroke = "#222" stroke-width=".3"></path>
        <text x="370" y="251" font-size= "4" font-weight="500">
    तेह्रथुम
  </text>
    </g>
</svg>