<svg  viewBox="80 226 150 150"  version="1.1" xmlns="http://www.w3.org/2000/svg" xmlns:xlink="http://www.w3.org/1999/xlink">
  <g>
  <path id="path-01014" d="M95.26875882947206,245.73799149044316L96.11322174263842,246.03715309860218L96.45857845138744,246.516061359961L96.05225062340105,247.3408214537103L95.5371076174415,247.7777491383349L93.97476347235715,248.49445017312155L93.60990951918575,248.85947684588882L93.43422439089409,249.5659741620375L94.03776059955999,250.3262267654718L94.9056855912313,250.44120495439438L97.41150976167046,249.6281665769584L98.18359693779348,249.8137703267439L98.79394863477864,250.4377614560908L99.1188836115507,251.73646862329952L99.91223162029928,252.35631448450567L100.56741834183413,253.25913642025353L101.74048454740478,253.55372014199475L102.0924894558193,254.271376443211L101.67236661761854,255.14501438563548L101.92776849364964,255.90847514310644L101.8880246774388,256.81862142410137L103.39193566850736,257.63656233659094L104.42313864938478,257.1793929555106L105.33937352464636,257.66313469666875L105.96640542197201,257.5687782169298L106.71423637288171,256.54786470874296L107.73523882784139,255.86246208196917L108.41822090477217,255.8352077484942L109.57025907280331,256.9026245947807L110.27844698362605,257.03524154671504L111.97130971667139,255.47205446661155L112.47011882684455,254.80418526043468L113.07371285404952,254.53342063731452L113.80473638259355,254.98871200088342L114.79342947457917,254.96685319029802L115.92775454807634,254.62352786575593L116.91151399998853,254.08289456678813L117.70450023461672,253.41984754842633L118.4386008511392,251.74635174294144L119.46783360452173,250.78630731377598L120.20225035084877,249.7450017833071L120.6880487804483,249.30104877433132L123.04603914900872,248.64675322267885L123.87077569812027,248.74819036103054L125.13272468423384,247.78928899103266L125.60862073336466,247.65199988191398L126.44208837693805,247.80236222668827L127.92637868685415,246.65647005957908L130.10878381467046,246.16020110700993L130.77232494652344,245.87806038011422L131.68518838048112,245.14245961233246L132.94374311377396,244.88270825417658L133.9816503512011,245.05162716402901L136.0727118740324,246.19478165098917L137.03830619055952,246.95302065348187L137.7201294260849,247.11614662594548L138.94289693002065,248.02555439196294L139.43004663939791,248.19387734101474L140.62169802009157,248.20091452348424L141.16007380532028,248.03376884469162L142.86488032555644,248.50999323872747L145.19657299845858,249.52249007414048L146.36324919223625,249.7247671246405L148.00196700976085,249.82636546964386L148.90488346324491,250.28597121828807L151.0462432520144,250.90700462900713L151.68793615048708,251.77286589265714L153.03140540559252,252.42188857151723L154.4337009326482,252.79298673736685L155.2619317430399,253.14247584090754L155.31692131345335,253.7284959975459L156.0388472742452,254.86574752253728L156.74276992158048,255.187374725273L157.63416744509595,256.3397900531172L158.54832273028296,257.15337569379244L159.401739935136,257.4966033255587L160.4981589615927,257.5735331971564L162.5547309612084,259.466707380393L163.0258151027374,260.02998627922716L163.24698507468565,260.933771592031L162.84511035000105,261.40458365352515L163.5874476862009,262.730622142798L165.19015663439131,264.05659805025516L165.99402862424904,265.11162621189305L165.68593509761558,266.18161717485145L166.3224347123287,267.05060116963523L168.23617929227112,267.810066583922L168.037597314913,268.3068911714827L168.27130971845327,269.4407578115297L169.28923760091493,270.9809417116776L169.7187544234621,271.3562943949846L170.02493122017404,272.2777940456317L170.02642695748727,273.68135170683036L171.4091782791911,274.9171596820788L172.52901583893617,275.0042056045595L173.13091807156889,275.32463974182883L174.46882503888628,276.59113240423176L174.59588513213384,277.16958399311443L175.18367114426655,277.41587356750824L175.36056737931358,278.2168543194193L175.33851935041457,279.7078918506377L175.75529897114393,281.16995853037224L176.59916367446567,281.7845461882962L176.85640895123288,282.32308735850347L177.04026565875392,283.80857725151054L176.9969003734186,284.4678837356696L176.62319851877328,285.28364241260624L176.55528125521596,286.56076965885495L177.3717096538967,287.0086036759012L177.61431071611514,287.367136037793L177.6068698527779,288.7983190616251L177.15393578298244,289.9564930602155L177.46389898824782,290.6398977264507L178.63064602206578,291.1596401539773L178.72655527955067,292.1920261977366L179.65305867408097,294.5702044519885L179.49387625752934,296.6913798351288L178.8819798357399,298.34562909292345L178.86376259065946,298.69772966795244L179.44575962398812,299.40083686390426L179.52771736742943,300.61329601011585L179.2897032828987,301.6951389614005L178.7222580448033,302.81205262232925L178.8098599166333,303.49702243813226L179.43989061445973,304.3156634779252L180.02158048309866,305.5549266570115L180.38174377604446,307.0930989196813L180.57516359323563,308.8023934239545L180.8487203387558,309.26615232651875L181.80454288700275,309.71675610495276L182.0355841207238,310.3514439315577L182.00421584707146,311.0682467950919L181.43784773645166,312.64589712568977L181.83453270462996,313.0853266514496L183.18775447237203,312.3577951923826L183.8987153791859,312.52350161429786L184.3703250987055,313.07730151041505L184.72864447200118,314.05870264212535L186.95115504589194,314.62314654644706L188.46899411855338,314.8700256259608L188.78992816313985,315.2981292172253L190.050466259323,316.12760878941117L191.0268299778836,316.13085796208725L192.2780049653702,315.6632652357248L193.49711116283652,315.9320391986248L194.40880410012323,316.3117011230979L196.0838898228758,315.5416749488177L197.3202135984393,315.6431686932692L197.81324594231774,315.2519960636164L198.12746536175473,314.57055604246216L198.01126667858261,313.8349406704565L198.26936678436687,313.3738809455972L200.76949968823465,312.31377717866417L201.85599370671844,312.3649779812213L202.5435743827693,312.069740999812L204.70323993245984,310.4810544805223L205.39891052024177,310.7933142436905L206.1813501064389,310.83572612371245L207.1495123712084,310.22967822273404L210.6248079530742,309.6244314162677L211.15075117797824,309.8811412353416L212.05523371568415,309.80623201503386L214.36883321874848,310.21698371996354L215.83886485355106,309.7511873283529L216.33722636716266,309.74740296946766L216.77577707550518,310.1693549802576L217.74024386930614,310.32578485489285L218.63305647174275,309.8489579486086L219.67536367050707,308.6530000841085L220.40231875769678,308.06068917598805L221.57403934055037,307.9732054058195L222.3054216970777,307.312468965466L222.9589323292712,308.0277624815799L224.43122665226838,308.3256545487302L225.4520368717749,308.31258903860726L226.26852925842832,308.0217786838484L227.34062176487714,308.06453597421296L228.459055831132,308.0612984471809L229.675836541006,308.34222795548885L231.06544145284715,308.9677192253703L231.9948261121317,309.00031472858427L232.48311552195082,308.8161390399446L233.6441699169627,307.59409929305457L234.22953284026153,307.75564967149785L234.40430364874555,308.24171427838155L234.11473730398575,309.29848229057734L234.52631024807488,310.1313698217982L234.9926419362091,310.4465330278117L236.6969345841062,310.68622354521995L237.5665840144211,310.953075682939L237.94794950357755,311.65773174151036L239.29961699254636,311.9878869789827L239.7740323934122,312.6183487993676L240.53391317648857,312.61663094461164L240.7068378251024,311.71062395710123L241.0670870950089,311.3079669657136L241.87088695241619,311.2136708545095L242.67313202518199,311.41679846768693L243.96241150770584,310.8612314799175L245.11648177778625,310.0773377081241L246.26780551740376,309.7323705599456L246.82407625382984,309.03413449419077L247.46620232756686,308.5453154636389L248.35130970932005,308.31139493969386L249.31393822487735,308.9104633463694L249.6848846120156,308.8587912916828L249.86032797644293,308.03164478536655L250.4328172364294,307.3812026911246L251.35187607202897,308.0222989361673L252.50430332349788,308.6106103203965L253.5804148973075,308.1226280760111L254.2289732733734,307.4624983387039L254.3888582995387,306.91321201334995L254.94383004982956,306.5544904628023L255.638662943089,306.43053189492L255.94996450777398,307.1088863829964L256.4586546017854,307.35417360846895L257.11045684777855,307.1519925089124L258.12997808512955,307.19967340656694L259.28105047994904,307.0179236071117L261.0732569002321,306.1480367313261L261.6339015196245,306.5930393397757L262.5636870666276,306.7426032264275L263.6196364625175,306.5379138198332L263.23491815621674,305.49994063751546L263.33951122483995,305.1209143655433L264.92110830056845,304.76246162351435L267.4045843802087,304.7430137563633L268.32717140878594,304.2599569302074L269.1711309544917,303.3529026249071L270.9385754225623,302.9603533480322L272.0999118480795,302.9907142484808L272.9589529614277,302.5928597563179L274.2207568164522,302.2644432754387L275.97170448839097,302.2138144179953L277.69237984320716,302.71489121176364L278.09253730134515,303.12143815145737L279.0238556405857,304.88786602350774L279.4831311296948,305.2490392435702L279.8847485007682,306.12385845209883L281.1439778036838,306.80982749247687L282.336079895671,308.45410462354994L282.58681772790806,309.3563763357379L282.68312857101773,311.25192715888625L282.6068755561646,312.3269649608583L281.8876040630312,314.6104124448648L281.7038483488541,314.86329513619785L281.4770367077508,315.3410665460797L279.98980931785263,315.518265927818L278.9761559816543,316.4553699531061L278.5185947322316,317.2705729332838L278.1273762516539,321.34575813406536L277.7808513032687,322.8479540212966L276.32627368009344,324.8477235554128L275.9180028746814,325.6975287431378L276.446081485803,328.91370753176307L275.86396492845233,330.8016551399205L274.7696496190256,331.53402585551885L274.319558615156,332.2946476782736L274.1512209942048,333.15217544139796L273.51208090665386,333.9667125011538L272.54380289758046,335.85782128240044L272.0450630282721,338.26191375578037L270.7527900169116,339.63391866294023L270.49644496642577,340.2181443908712L268.4941503353257,343.6248753986574L267.8476358595435,344.5148638178689L266.1489677191348,346.5545777230536L264.96919642846115,347.13415159079614L262.96518622705116,347.0822021543354L260.99810887761487,347.2788778763015L257.24651378082854,347.35394810822163L256.1624742450658,348.8537034193041L254.68402893164603,348.4940930653993L252.81255982994116,347.5700869430075L250.73105893810862,345.8689336539319L249.34860025711896,346.4276885735844L248.47656881184957,347.262717407144L248.04914560569887,347.9523642973172L248.13384918502925,348.68353554864007L247.6279802291574,349.24660863223016L246.87822521826456,349.708919675194L246.15272831416223,350.707450177777L246.15236669387014,351.6732927906378L245.94089056297526,352.63107775741446L244.50340269984372,352.98866749783065L244.1344007710577,353.8296459823432L243.23466334679324,354.5555290943412L243.29846722161892,355.3557315888438L243.0550191858747,356.36699890818L242.2383682537038,357.44956925391944L241.67282078064818,357.9252754301524L240.4990598929544,357.9741255050285L239.82505282520287,358.3083306327244L238.38506584914649,359.5066216569394L237.47860501156902,359.45949620198826L237.36781499049903,360.5962212051345L236.65879252582454,360.2039380223214L235.74557519756127,359.32445945958534L235.5234886449034,358.7693805888248L235.65119717251946,357.63493350343015L235.552460760573,357.0015814230401L235.150956796002,356.1997278889121L234.9690871091334,356.00243626458814L234.8326224399607,355.91615402284697L233.43261439507842,355.28301556038696L233.27499298784824,355.1639627436916L232.56657875200108,354.1591163031435L232.40124701451714,353.3020244660538L232.29432037592414,352.5835509468343L232.0252526223776,351.96232563794274L231.29890391997833,351.12375579897434L231.158346380922,351.0996380463748L230.4723355629758,351.0629757341949L228.50829061190234,351.51396446318904L227.8491292250692,351.7632548070924L227.74151756339415,351.7897506185609L226.7529077304025,352.0155955780401L225.76999298720693,351.8612210759675L224.4298484292558,351.02419121757157L224.0148025623057,350.9306012487741L222.48471029503344,349.841746650759L221.318308014801,348.32767611158215L220.5189166519849,347.478433490779L220.54066944699298,347.07517693317004L221.29269605368245,345.56359056379006L220.74319617999572,344.04979621264465L220.58511234214893,343.9095227558764L220.3731829851822,343.788829945036L220.25309439345438,343.6675142274871L220.0021159652315,343.41570647906883L219.73030210630532,343.25706605035884L219.48710382172794,343.2830862507235L218.89715282370162,343.8678911434763L218.4140298844468,344.28637014212563L218.07563476596624,344.56211703213194L217.62331824809007,344.8097628518153L217.46155868443748,344.86968371626153L217.18605347623452,344.9256555445663L216.41354342776322,345.10907137302183L216.60613457376894,346.0569717906228L216.39710921100414,346.8981226544747L216.44759462842558,348.4323018944897L216.70927524605577,349.27776209077L217.10169160988153,349.75152400800016L216.88692289393293,350.2049678688254L216.084318371868,350.32915117732955L216.08418434017221,350.76748835945364L215.10408635638305,351.2185875200712L215.23988172537793,352.043402766697L214.53293714428946,352.7175212276952L214.1229436206304,352.73103811639703L213.7438553706961,353.4745322934423L212.73893984693132,354.0470771101909L211.31211569102743,355.43339034115525L211.2848191104822,355.8435771704453L210.77587711033993,356.4848097673903L210.65107793195057,356.59421299365476L210.1569651326099,357.1261557699354L209.5595816320092,357.30209672480305L209.32746736161425,357.1504176211347L209.0089297099148,357.04312494534406L207.9577852537659,356.96636943643716L207.72385717886937,356.92284879747604L207.3403095100548,356.97439352674064L207.21201702202598,356.87326304955695L207.20392422517762,356.87442618217483L205.82305983711558,357.49179250434645L205.72476901096888,357.5816155538114L205.6373310220988,357.85955666559767L205.38847386945417,358.4735898530362L205.31503361551586,359.9980849642143L205.0384280119033,359.99950759787953L204.67779865792545,359.76686719450026L204.16903744656156,359.920391103723L203.99529781303863,359.9740511130449L203.76346063624806,360.1175334830468L203.65918996560868,360.68426380009714L203.5258352979181,360.76205922444933L203.27419008113793,360.6173424797744L203.14889639796093,360.696284828392L202.7643823328217,361.00155341742084L201.58632795121957,361.41351239646883L201.336643720344,362.0908570753072L201.0604251149125,362.31205368640803L201.00615169322555,362.43694104489714L200.90285504604253,362.3588151100739L200.86975014086056,362.3208829565783L200.67559281147987,361.88388732718613L199.84295770345489,361.9561346425544L199.34838261302502,362.4755712350343L199.13054272310183,362.3435034580616L199.01881977061566,362.31543419992795L199.36589759356502,361.3066186626256L198.94046807250925,360.61102812588524L198.9013775746389,360.02774751998277L198.92910346143617,359.57730198104673L198.8955494219772,359.3944098148195L198.82864695405806,358.95843162830533L198.78483476753536,358.83480453285665L198.50419000612965,358.4266940631933L198.2789299737451,357.71247628184665L198.01293041626195,357.53272658421156L197.54770060316878,357.3394067219242L197.38679820726247,357.2538736632232L197.07281834257083,357.2208850560173L196.56588325505436,357.0949239632L196.32609273660637,357.0543666606609L195.8459861687479,356.98188689540893L194.66002888116054,356.58124781481365L193.48549737785288,357.845983904238L192.6402576203218,357.7550299214481L192.10026289154848,358.2234229827627L190.802202675859,357.90531056912005L190.6111972327999,357.35389542172834L190.04329186729228,357.07164810194536L188.69336623822892,356.99414884916496L188.1404367412979,357.5097787870782L187.39301456968678,357.54939706154255L186.7882796711965,358.13128666748617L186.0284330003342,358.24113086082434L185.49393470495852,358.72513660328787L184.73405932334936,358.9840033213068L183.99321649206468,359.77438977130987L183.31997747755668,359.513683515057L182.48485736036673,359.5926538821104L182.13835886781817,360.1253269081717L181.4452526950554,360.54694789195673L180.83526000324127,360.34486818706137L179.45757770990895,361.5246772362989L178.60744560794774,361.3564080936203L178.04099380594562,362.01086465370645L177.6307961793791,362.92046029044104L176.97407170254155,363.146522425538L176.67929380849455,362.61433826251505L176.93723125422548,361.9857117932261L176.7607388950928,361.4401113630365L175.63381430208756,360.7195522955353L175.0669392016207,360.9426018580416L174.83467173989266,360.3234629349372L174.01239481063385,359.7888183866762L173.93331261715502,358.94104501914626L173.32338424424597,358.7661283792331L173.42994000975523,357.773041355993L172.99834787956206,357.1951204266543L171.65666006109313,357.1906983871713L170.85953632368546,357.34121609126214L170.16225615714575,357.7556042398064L169.26833613512645,357.8562582328923L168.9122979147396,357.76604464234606L168.75923823944686,357.90672170161815L168.7249272014451,358.0868429434304L168.71380835122545,358.12541310542383L168.07446206013628,358.24287041660773L167.98679790125607,358.3736210879133L167.45080879350644,358.4189869555785L167.38617690985484,358.3794303327986L166.95011483316557,358.1133829938917L166.70627977560434,358.1604644893305L165.8652540753319,358.4618853519805L165.68724242400276,358.39263448429665L165.65487092467447,358.3823433355583L165.3467854021801,358.34616830944833L164.72924780199537,358.4394732056344L164.72198353798376,358.4469610973547L164.67471818202466,358.5028652599385L164.65788111295842,358.58516727204096L164.75847331003752,358.8438281318613L164.74190615492262,358.8829719171872L164.69293584533443,358.9216223787289L164.23782985245998,359.0951392246334L164.12238492456163,359.3427473464926L164.0318611353614,359.8491609972425L163.96551365940832,360.043732581883L163.8437307610984,360.4086916674596L163.6488510142117,360.46144391436155L163.08077912344015,360.5897811620889L162.99956456621658,360.6089321099171L161.9968114028743,361.73972960764604L161.82264398749248,361.9046227821391L161.64885799058538,362.02580012756425L161.41909634985495,362.3852487728527L160.78844104558084,362.91816554270827L160.38322707872067,362.94551073506227L159.9447835052124,363.0649879048615L159.34373630285336,363.2572744300078L159.03635070776,363.1722536407915L157.8387188781635,362.89192870562783L157.45721882742873,362.5873263808362L157.03661266930794,362.4674814207874L156.74577790561307,362.32434252231087L156.12655919455574,362.01856530108034L156.07846251367664,361.9352766419197L155.92200588488777,361.89995933045793L155.6473886251115,361.7567882943504L155.64067000006617,361.1959226992567L155.83691580125378,360.9532997497254L155.57924691279914,360.7174712780725L155.28312288139568,359.80347469495064L155.0462618116253,359.6751989008035L154.26680556840074,359.08049213611685L154.22865223618646,359.11911054877237L154.129568396791,359.3770578762724L153.74643070955426,359.984290506246L153.5279622287053,360.2609274142533L153.47355953354418,360.2996098278036L153.11850458585832,360.75605107520096L153.0417052994162,360.8919951979524L152.98109207544985,361.0480285694912L152.99124201497034,361.14579953317934L152.40766411630102,361.7759608737988L152.3911288207346,361.815120588637L152.12194296522284,362.3841158775731L151.03425459058053,362.3574332263079L150.34895567180502,362.8359928732343L149.83626774074582,362.6180915608393L149.7101963427267,362.07537387965203L148.80334657262938,360.9426651419417L148.23152246955578,360.66567518965803L147.59705214720088,360.8375540996749L146.44584328698693,360.59084364665887L145.67285621042174,361.5753867069034L144.91055588102245,361.6671008572757L144.7540735360053,362.68513727329264L144.1168103062846,362.61721646200294L143.13719739798398,361.8892467088672L141.94004070214578,361.4719433514074L141.16081015241798,361.76225887621604L140.553905121993,362.93858156090664L139.55659940033365,362.5081632556812L138.97846041715093,361.9287631522484L138.4431365077471,361.0253809449832L138.38320761538125,360.3875993705233L137.94275157020456,360.25767013588575L137.41131318189946,360.80103615869575L136.61387152344105,360.982795271334L134.74570236798536,360.87830073989335L134.08156380878427,360.0397775274532L133.45500228536548,359.7908118495434L133.4269822818278,359.1333703737455L132.9278831748561,358.1465706529425L133.39759456305183,357.0642935191963L132.71185153828628,356.87360598367286L132.58314403505574,355.96911767778056L131.97781197396034,355.4221225652618L130.98402702462045,354.9925007829497L130.51672437000525,353.9423572247888L130.81762509755936,352.456731268996L130.5134448502904,351.76448432924826L131.01141812995047,350.71948627986967L131.07227726022757,350.1342763967041L130.00479987807194,349.8567690780246L129.35521162899386,349.2817991619977L128.29163565302224,348.92608443488825L126.53318247889547,348.8590746875707L125.834278868806,348.5811150632053L125.80640825429145,348.21131541735303L126.96544113344862,347.0393646964085L127.0598517506005,346.5178958738652L128.3599940335189,345.10106091670787L129.08093408669447,344.0599623364278L129.51515388587723,343.8423477430897L129.77888303700092,342.87455734706236L130.7633863139381,342.83015577870356L130.74524887343068,342.4367456122054L131.9138805148541,340.91170666583L131.8515901887331,339.3409016357091L132.09713390937395,338.7309949604496L130.89541020122488,338.55051230149365L130.27397103032126,338.7082757202579L129.68509002041537,339.4210732995489L129.2036503464733,339.5836137745491L128.80277460106663,339.0889818467431L128.89522423655217,337.73802780889673L128.10202530422976,337.40050224047354L126.90127336125443,337.21842641241983L126.58760827457445,337.7572482314763L125.22588927140168,338.2010249752666L124.59088795590651,338.876081781641L124.50617785142822,339.3342389589352L122.36372060245776,338.81537287616356L121.48368806211874,338.7100969792191L121.59426738577895,338.1413912557382L120.20014011630337,337.57937025688625L119.96161350012699,337.0308077419404L119.90744775130952,336.97288201760693L119.9797383369878,336.82307766849226L120.78142477283109,336.2307977219207L120.8953754241702,336.13667297765915L121.45354422887976,335.53254416335767L120.99734455549697,335.2061648919489L121.24383117429898,334.7382868319328L121.81198378689805,334.6668088966044L122.37300746026449,334.9784816965548L122.61029488793429,334.9294089206551L122.89403532864526,334.830677128346L123.94070873830424,333.6687651634411L123.72283367248747,333.3737986305032L124.20240083193858,332.8016295651214L124.39071058126501,332.4397760759666L124.44026620126533,332.2049142680744L125.00340117288215,331.4006548871339L125.04575913869121,331.3108009715452L125.35084714683398,331.22986420912093L125.85834680949483,330.93948959833597L125.38555665521562,329.54199357836205L125.39715240068108,329.4545298961784L125.45680890550284,329.2576006267691L125.56686894399172,328.99667399824375L125.44183199071995,328.4034219626692L125.58960384610691,328.3206876091954L125.66165596773862,328.19506715858097L126.04872681855704,327.50988218124985L126.05527210581204,327.4028707351972L126.1545900188321,326.9135992746751L125.33255582124184,326.5451672754916L125.57331099100338,326.2510373640871L125.59408220256591,326.13304893117675L125.48829398404996,325.74911947953024L124.55944491506307,325.4172837569231L124.33830943546491,325.3788768487884L123.42888820610824,325.43989362808134L123.11556268474305,325.4575828001871L122.23931500735853,325.7917591041032L122.13890654968054,325.9359082700048L121.92540822935916,326.1989077246335L121.77199516534529,326.19940419174054L121.70707865264558,326.2600243338775L121.75838273958652,326.5975146225619L121.71181891467495,326.68050216526444L121.49898227919766,326.59089153696186L121.28224609011522,326.6669358573381L120.38819688490548,326.67335539526994L120.13295462787573,326.67997124629983L120.05253688485755,326.7112937724396L120.03501321089425,326.7182242352592L119.03135627804659,326.5242761791951L118.62806796618315,326.4525756800331L117.34354518647888,326.6927475642806L117.27174542147259,326.69760785907056L117.27585125637052,326.49279348370055L117.47727041841426,326.05552046120556L117.53187835171411,325.9287691800473L117.33300956232779,324.91703193150624L117.01157566727125,324.1933208560122L116.67129932569514,323.6422588729065L116.63888009359653,323.63430964317104L116.18979218237655,323.6237546981956L115.67105492111295,324.3658807455049L115.14807282358743,324.0029878177893L115.02414203036824,323.7393727464014L115.07835090994922,323.5752463691915L115.15093144478669,322.8191400760343L113.9711480641381,322.80770530700556L113.83258142144041,322.75871853817716L113.58742664006786,322.16362051724354L113.71720972139883,321.9399890227796L113.64417544456592,321.5709389767808L113.68552929958969,321.45862178754214L113.39252455873793,320.39028183480787L111.95414659434027,320.05654293304815L111.71023306539428,320.15634144648084L111.38899227774527,320.28346364497065L111.04050002292934,319.93898449802055L110.9151056700648,319.7737778208566L110.49596005306012,319.40481327969155L110.78318828031843,319.2576817969175L110.41139494851086,318.4208904031093L109.85677613314692,318.13988550389513L109.1158524845705,317.34815439278645L107.56713612863678,316.9143202584628L107.01609080772687,316.11218273372015L107.03484212334297,315.3924966102413L106.46700082332973,313.594120121209L107.16074848707649,312.6280432626054L106.70862877229229,312.3794889390965L105.69996016477307,312.4907709736881L104.81817456067438,312.3462401148199L103.83509326577769,312.5783137071867L102.71541720521054,312.59232037592665L102.09167646498099,312.3847445438214L101.23286710541288,312.43578735000665L99.97017363560008,312.10932612942906L98.28795207967414,311.4054885975038L97.00617770733152,310.51491219341096L96.52752166205391,310.46964317451875L95.24592497924823,309.6953183089445L93.93454690766521,308.5944477246567L93.3211288039638,308.36224174472045L92.69140486623655,308.47582740881626L91.65358662166182,307.9968828120718L91.50282724865974,307.6742263968872L90.71999191758005,307.7384431784303L90.20338447979157,307.4840271730591L88.63246834988604,307.40890512368605L87.7583990480598,306.77811544962333L87.02885834062181,307.1424313897087L85.84960936481002,306.77644289476666L85.42217878978772,307.11880025871415L84.59314177654596,307.06138144649503L83.31592931125488,307.200372647897L82.76968867385585,306.84840907901616L82.31917344538306,307.142590225184L82.38870790914007,308.51246770080616L81.77387653519327,309.2595020785393L81.27700072866719,309.4526469680768L80.88769616751233,309.9749490161448L80.878450979857,311.24393417827196L80.23027953768906,312.13436778442247L80.17848154704916,312.55508546679357L80.18335960755576,312.71094242019535L80.14207937430183,313.2978564514078L79.7878484055691,313.5381400010674L79.75705486006336,313.56589304321824L79.55182199643605,313.7042926915219L79.3990810790201,313.8499243215183L79.27449046426045,314.0282148805527L78.92424591105737,314.44739222483076L78.87685644512021,314.6627379609963L78.75505900009739,315.0947044002651L79.00294906519775,315.46461177681886L78.89175620141759,315.6428543175789L78.53229940409074,315.8572971977401L77.74556531057897,316.12658317352907L77.4266424980633,315.8731834270202L77.15713753983437,315.6529361277153L75.80864463154285,315.49107962137987L75.2864591666621,315.1264660717043L74.01709140685853,314.82742281689843L73.69395395661195,314.91001668747504L73.52223779924316,314.9729327230107L73.04484155110549,314.98721526877307L72.60280634714218,314.75169263186945L72.49307465222591,314.7159603058144L71.64309702808896,314.29253346068435L70.31543071231863,314.37466620691157L69.13657538589905,314.54934204506844L69.04048107719791,314.5457750166079L68.64989127286026,314.55166024634036L68.28216277533647,314.59079395594836L67.87360199567411,314.5438509133064L67.13769873891943,314.6123842427269L66.53083372347828,314.6440341858006L66.23837397834723,314.49071514132265L65.8690159888356,314.31071226329277L65.73038472693952,314.2170537943084L65.11610176946488,314.5266114591723L64.82981129063046,314.5688504277823L64.79645183070897,314.54543180583823L64.39208884073742,314.1171224806376L64.02143611141582,313.7277808333138L63.47905828538933,313.73733281992736L63.228853255302965,313.89101142971504L63.07701744517544,313.89518799886446L62.64231138880132,313.70691780713514L62.07491664772533,313.4445368922916L61.901953544849675,313.2981300828869L61.529060161272355,313.17688231906595L61.31200383275791,313.1779533517165L60.94439589283138,312.8852675468588L60.38674122437442,312.9300282097938L59.760410393049824,313.0355205711812L59.5062325151448,312.8959019010572L59.08900339745742,312.75128349087026L58.56527855468812,312.6682099135196L58.46168070488784,312.65666136859363L57.911910538412485,312.64274649541676L57.78215513139003,312.6658332821371L57.62116047623931,312.73394276771705L57.540918189923104,312.77519053981723L56.96133096100675,313.01568491954004L56.75907712429398,313.1530489519846L55.73694503560546,313.16227437429734L55.04843918672486,313.3958881961262L54.83377430044493,313.4849961795908L54.20618484112856,313.58543828922484L53.85725675796493,313.7270106596734L53.74021528724916,313.8081513059724L53.50845966538327,314.0394315152889L53.34852057986427,314.30716160254815L53.23849308484205,314.6028186268104L52.97710821889996,314.9274414873962L52.891624825835606,314.9738989177222L52.71903207839932,315.01736269496087L52.50219920241216,315.0386188181392L52.11369815848593,315.1320949055307L52.02819883490156,315.1785682671971L51.8712371724323,315.36805912786804L51.69461644034891,315.5317573562734L51.50681137518404,315.6495095717537L51.07174711698826,315.85598795624173L50.42665333822151,316.12856927919984L50.209730170914554,316.4052378381475L50.157750600275904,316.52286033747805L49.934900684260356,316.77481937128414L49.84497400876717,316.8886189635432L49.57047351279107,316.99015444213455L49.473838577436254,317.0355287207558L49.183886074690236,317.1762716674002L48.893933571405796,317.3169986822204L48.50704313906681,317.48817224453524L48.47763834168654,317.64995624858693L48.41559135240095,317.8067542637127L48.219759871764836,318.05398121602593L47.88386608103974,318.338219176836L47.725437045377475,318.4437355736618L46.9660462047359,318.23724522354405L46.21694175569792,317.79547957244995L45.85670829587252,317.4309748078658L45.585305211221566,317.0936634895588L45.09977239501677,316.53199362897794L44.751614986886125,316.19391888242353L44.473792090015195,315.8698466788237L44.48086267099279,315.7409614201215L43.9943653591763,315.53077043959274L43.988215951121674,315.52390410244607L43.20238289165354,314.68261106548016L42.74598828726448,314.1633820151692L41.584740901151235,313.78090402277303L40.43521018561296,313.764242959066L40.097142434351554,313.6913305017815L39.54233289222975,313.4217642769072L38.653944776266144,312.91995544994006L38.21812342375051,312.7222060593094L38.157537754799705,312.6707804633479L37.73532118325602,312.46952593538936L37.27511105088706,312.32887513676724L36.8809497251641,312.1861362243708L36.01595191022716,311.8758066684695L35.79243016026885,311.99499328946877L35.10576479748852,311.0952303298445L34.500856920483784,311.0106605105793L34.3618717624704,310.750327593365L33.44352459554648,310.5697602850314L32.5413362066065,310.63130239492693L32.485092938368325,310.25602295641966L32.50033664536386,310.1587295618983L32.2995958285901,309.5058635803516L31.443484276747768,309.0448705002909L30.929516970434634,309.3423663177964L30.429864989950147,309.3297410069126L29.901349322404712,308.68224936068054L29.30791999277062,307.462247536846L29.106549086267478,307.1545356398856L28.232771330196556,306.74033341628274L27.950284688544343,306.60624340540744L27.89347466855179,306.5576854024148L27.749907103010628,305.79925694691246L26.65442748992791,305.6866559820519L26.480607167773996,305.6853843552044L26.355022931526037,305.57799278705534L25.74869884562213,305.5706584724303L25.628069057391258,305.4626614282797L24.89653389113664,304.90330574197196L24.534625866024726,304.44705202381556L24.910962939204182,303.928844719484L24.995008123951266,303.66777526665646L24.704789341391006,303.2559371401667L24.595698414719664,302.61925598354355L24.91239626924289,301.59522732931964L25.177664096398075,302.6123480183387L26.364989941532258,302.99296160675567L28.37601478392753,304.1499151781072L29.76664858985896,305.29333736067474L30.276899484932073,305.54690918008237L30.96490231270218,306.41320018730676L32.399075472552795,307.58639747100005L33.69629580762921,308.1696886690206L35.7410310590858,307.82845159029966L36.103700474810466,308.124355628167L36.69038855706458,309.2191207321803L37.77165943844739,309.40113507514707L39.230941134304885,309.88306791573723L39.80271782393538,310.19682759075386L39.91246670630426,311.0636380486676L40.364037096162065,311.71860281432964L41.10246810533863,312.1695132608602L41.674248564409936,311.8954356325876L41.857180181548756,311.0741841390354L41.386887107229995,309.45409465036664L42.00118276091962,308.22091335497225L43.05616385468602,308.2059361852298L44.95533479114238,308.3831255864161L46.44631246748395,307.7964264270886L47.043697603297915,306.1791868102355L47.539063441061444,305.3861924406183L48.104209705921676,305.5430915044117L49.10808486877431,306.28955706986017L50.142658045053395,306.2432590496328L50.85455667449787,305.55501009875024L50.96464511913655,304.35972209513966L50.91033359801804,304.1851306412336L51.07722119028767,303.2817529851345L51.32998558503459,302.8651263715601L51.470474845162244,302.6757154512334L52.193860734256305,302.0461098423666L53.0258022956441,301.5902344803717L54.44106208651647,301.05027929684L55.67024971278079,300.4566702153161L55.86596786863083,300.1243535910726L56.07063055891558,299.381850718657L56.03366108866976,298.89425450212L56.25184207279017,298.5854044752414L56.45308244491389,297.2124956452808L57.028458219407185,296.6993511317787L59.39480226100204,296.311811757736L60.4674249949785,295.8359224830674L60.93552688892305,295.5016895251929L61.80764572995031,295.04523992668146L62.49117390649917,294.46607381002923L63.11738484429952,293.9619934024522L63.71914394534542,293.54660358003L64.3950788815564,293.2418880389405L64.81582329555022,293.1288316754508L65.33465343418356,293.02334108718514L65.56829354820366,293.0176018594075L65.81491863251358,293.07968243932373L66.96858771696134,292.92399724585084L67.11574020129774,292.9353698056548L67.45938293185827,292.97052466796686L67.86478676813203,292.89208751727074L68.82735449378379,292.91799177016946L69.03998259144646,292.9422836060321L69.5543658098286,292.7293197695535L69.75009118988964,292.7439255893087L69.84930890092801,292.7946495432425L70.11186482479025,292.86128623642526L70.27448573350557,292.8570776126662L70.50377787829711,292.9048839336401L70.92860442835081,292.97652036507225L71.18794039512795,292.9499902064954L71.5749915185188,292.84751285517723L71.9463352346138,292.7595014903536L72.22477419209463,292.8301207683435L72.37285167282243,292.8898132866152L72.9992984876335,293.00022338820236L74.74813847177575,292.7689654649748L75.2874444958652,292.1354756074543L75.36962797415254,291.982102508995L75.71010744109662,291.58824038269086L76.06404254916924,290.9159287874372L76.93596406060533,290.16648450809316L77.49318948572181,289.40582980615545L77.85072737601877,288.85029540992764L77.99559285534633,288.4366338278005L78.12734571920737,287.9459600156406L78.18637314243824,287.3785298800758L78.24199340386258,286.1478910093447L78.52879095496246,285.2187821060297L78.61663461308126,284.5338732532491L78.40966681115242,283.98317558968574L78.34173622245726,283.89201718938966L78.26716170733926,283.7623686076231L78.35074704395811,283.60724303318057L78.64087422408193,283.44258699513284L78.98574001311499,283.30587373272374L79.34532406492508,283.08625314948404L79.89792354290694,282.7990641917968L80.04194212620496,282.26403712911997L80.12180364883534,281.54006459373613L79.64997143026267,280.9928444509451L80.10836454021046,280.3298828508596L79.59452238426456,279.75522952837036L80.11806467544739,278.73361887464125L80.47390331143833,278.43407045746244L80.13013856067846,277.89892417803367L81.05801336111108,276.6120805568253L81.50671285647331,276.34033088733213L81.4755872982496,275.73074778263435L82.21795483921233,275.4967983986089L81.42311024082665,274.9164782557018L80.41929758994229,274.8771923970662L79.32874631866798,274.2826823537571L78.26923724254448,274.1212034979235L77.587632303992,272.9709670458087L77.6165856128464,271.0392828695494L77.427546726929,270.05709859322724L76.76716372014198,269.76789088525584L75.52976761151149,268.63864550862763L74.28446501251165,268.035790036517L74.07580870037054,267.49261208351163L73.19542392594667,267.2850087753541L72.91029157111916,266.3378115254118L73.20560453410508,265.8118628672828L74.29945683278493,265.8119718704047L74.36719156201434,264.9235555819596L75.10746718904193,264.45536671254376L75.36046278405047,262.9206896116857L76.09895149215663,262.3260053665672L75.99492234287027,260.7463917951418L76.22731124790153,260.3334775639214L75.7798838381168,259.7344322092458L76.37618003613534,259.3900328318514L77.15955533898887,258.5012221236284L76.5390327064597,258.2900776884735L75.99430049807052,258.45360688918754L75.4747918673529,258.10914670164675L75.55953267449513,257.6008536139325L75.23902881505637,257.16113616343955L73.9191636344076,256.99293868938366L73.51234944011594,256.6669570371032L72.47287176297323,256.807537421043L71.54221035245064,256.63472918979915L69.92632124404554,258.0274484919655L69.38273831007245,258.29806859888595L68.33716826496311,258.1143811383181L67.59873803682422,258.4590218589683L65.74609007865365,257.761050207313L64.09581940243152,257.4958678305584L62.8814034635725,255.98619600564052L63.13914301090699,255.80315569326194L64.27471829095157,255.82518562902533L64.61664837429635,255.48012145545636L67.48853520776902,255.71813609629407L68.64220709404981,254.19349661616798L69.07691828500538,253.87218460212534L69.43877767198137,252.76951781129446L70.21371076380456,251.17829143333984L69.99550813237147,250.45512062930993L70.84454483304944,249.32717840659097L70.53017475498564,248.9081876401333L71.69978533943868,247.76492991860323L71.74233184690092,246.79781297685713L72.37521525044576,246.18629105351283L72.67256453972004,247.03907845284994L73.6307354212222,247.0754495943811L74.06690898500528,247.35527743149942L75.40709529204105,247.21854734102544L76.61590885836995,248.21616771026493L77.43658189510825,247.5147097805302L78.62389049250123,247.83030685083122L78.73734994336337,247.11194172617252L79.36796449901522,246.1847548602036L80.16323698061387,245.90798094315141L79.2042401901781,245.23698213219268L80.03580360777778,244.24162136489394L80.01489827300975,243.29032538524734L80.41253375800807,242.74038232095063L80.97144316710182,242.52450225144366L81.40632403761992,241.9427753927539L81.1617309489593,241.54235949040958L81.87432884149894,240.79489347271647L81.93875986606145,240.37932156440183L82.87828616295519,239.39906194341165L82.7276539859522,239.06611397291636L84.15033914144442,237.87612508193888L85.80816823615169,238.4832748255876L86.54519062008694,238.61354938334716L86.63655324045249,239.35689146905588L87.29846346530394,240.29740693176154L88.54721794933721,240.66081305285752L89.66920188157383,240.56807319900508L91.13018268526866,241.54155311697468L91.71844882162623,243.40623500636502L91.68154031742233,245.04975176371954L91.9107133209618,245.48998053117793L93.31446498381774,246.18251103299917L94.06690782903752,246.28758183754053L94.652145740376,245.83481714615118Z" fill="#FF7B46" stroke = "#222" stroke-width=".3"></path>
  <text x="150" y="310" font-size= "4" font-weight="500">
    उदयपुर
  </text>
    </g>
</svg>