<svg  viewBox="436 222 150 150"  version="1.1" xmlns="http://www.w3.org/2000/svg" xmlns:xlink="http://www.w3.org/1999/xlink">
  <g>
  <path id="path-0206" d="M451.37639195318116,313.6099740803793L451.8100999619128,312.83865969217095L452.8997060683905,312.09449960273014L453.72064135021355,311.22314073539746L453.8096313092792,310.64589175443416L453.3998059343721,309.4349596395077L453.2319998846542,307.2494137699705L453.9472264322758,305.84472729768913L455.1608921891384,305.2813380343878L455.7749444280562,304.5923617841654L455.6567234809918,304.01179108020824L456.5326748100051,303.02175240957513L457.15755190929485,302.54137635373263L457.46502131683883,301.8321158374192L456.89194332228,301.28869362928344L456.7163087115514,300.7128862702448L457.01174060763515,300.42899882831625L457.0103512950991,299.3361893325882L456.81504781560216,298.74822276142913L457.2408638289853,297.20572825248655L456.8937694438391,296.2677580350237L456.1311811585256,295.2569361242049L455.81883425355045,294.48064647234423L456.19851778996235,294.09369030531707L456.1320155968933,293.3730092127571L455.4710571466676,292.55366680504267L455.73204334911134,291.7153439974236L455.6418572802686,291.0034131153416L455.366793578185,290.3724879350875L454.633806717422,290.03418862331273L454.1992789101314,289.31531722281943L454.2762888055331,287.8615384013301L455.0936529824612,287.36415268340534L455.4695279292355,286.7625094154537L455.3485593574587,286.17327355972884L455.4144254836101,286.1165748638814L455.67198888168423,285.3225365657281L455.78824474340945,284.9024032149309L455.83910507434484,284.810635113261L456.167823989148,284.2447949711468L456.5095792254069,283.8595020559933L456.5590700175999,282.95222706560253L456.10289354642373,281.8711762596822L456.1250912131218,281.5343014670798L456.72130318986456,280.69633940859876L456.69207485687366,279.67386707663445L455.90613973865766,278.6193953068523L455.8239265625052,277.83112549708585L456.06099352859746,277.2045314448451L456.0729702287972,276.56803600664625L455.4357101501446,275.76033153074513L455.15429396733816,274.53980234154096L455.1883853772488,274.3188868915013L455.23051117575596,274.2663310147136L455.80027941670414,273.5175018674363L455.76437728467135,273.3883971065079L455.7683778180799,273.34921314548774L456.1092387073695,272.64340418272513L456.18359936577326,272.52511857882837L456.5069543352256,272.156677458207L456.7875346782457,271.8062016250442L457.1091121578247,271.3304240001453L457.97124134766636,271.00236943452L458.2003032590728,270.93952481583256L458.5046846395744,270.7939996459718L459.0422270884119,270.54645998333035L459.3807616446902,270.43948408705273L459.86393158309875,270.0939503791733L459.95427101146925,270.0498898739643L460.4725310313552,270.07868081557535L460.6252718718679,270.03797264526565L460.9787075516542,269.6766041195424L460.91023432993825,269.03072621045703L460.9302503108702,268.7981586879332L460.8878897622999,268.4045451474094L460.88963559683543,268.3455086159074L460.2188486541927,267.8064278867769L460.0992829323295,267.603338698852L459.5690726209468,266.77585031868693L459.49021315623395,266.68657831234486L459.1241856736342,265.8906061823027L459.6776165561532,265.44053864547095L459.8416341765078,264.9831227640361L459.9016264631864,264.3195176698082L459.9508935430822,264.1728273389954L460.1296180697027,263.60649661818206L459.8208708621569,263.1659401777133L459.9994856947633,262.74410094340874L459.7865058992429,261.7593644440967L460.21815951222015,261.129611020694L460.20162309649095,260.6656886787441L460.30724591520993,260.45674841335494L460.58266312005435,260.472115802153L460.9375261813984,260.3208552058504L461.06578038926455,260.3046497073992L461.59861017650474,259.7320712145374L462.83158595330315,260.22912646394525L462.73378883644546,260.73209372994097L463.5120956874707,260.825200459617L465.4068996617134,261.2840892034692L465.4818178626265,260.8788918345208L466.0434174076472,260.28186693697717L467.2477310901086,259.88938772264737L467.5251386570999,259.4128499879271L468.5870919608242,259.5738791066069L469.2886025697517,259.8723890482943L469.2068394742164,261.0671821211381L469.56137674955244,261.5046380111198L469.9871653191876,261.36088609347735L470.50797574770695,260.7304829959494L471.05758083847104,260.5909559398042L472.1203935780213,260.7505760487402L471.9032330172049,261.2899817207817L471.95832301143673,262.6792125281954L470.9247771240407,264.02796749535264L470.94081800157437,264.3759021611886L470.07011651024004,264.4151712146222L469.8368726292174,265.2710917187587L469.4528456426451,265.4635515666787L468.81524128502497,266.384306334804L467.66538647884954,267.63736494727436L467.5818890775954,268.09855557213905L466.5568324017804,269.13503687636694L466.581481365567,269.4620902348279L467.1995965408605,269.7079196445775L468.7547846616326,269.7671835274823L469.69541859360834,270.0817800866189L470.26991892334263,270.59028744772604L471.2140032858624,270.83571683520586L471.1601790511122,271.35328049390773L470.7197680464924,272.27748397941104L470.98878715606406,272.889711949525L470.7226684763591,274.2036097958562L471.1359541685524,275.1323640048313L472.0148644350047,275.5123244735587L472.55022428671145,275.9960907254135L472.6640540906701,276.79602642424106L473.2705299534973,276.9646717964288L472.8551139607007,277.92184516137786L473.29652065475966,278.79457764351264L473.3213017392336,279.3760234211468L473.8754370739043,279.5962103845877L474.46280579831364,280.3378060995974L476.11502749002466,280.43022178423143L476.82029039522604,280.26947277085037L477.2902981728439,279.78891611097515L477.67984053840337,279.9038264226192L477.73284206433163,280.4678848478534L478.2062862236198,281.26684230542287L478.71759632958856,281.7792677548405L479.599620391371,282.1599326739288L480.1363713880055,281.11958477479675L480.8255282629907,280.8628277214384L481.88430190533836,281.2318936902275L482.7506783209028,281.8757151629943L483.31427831847395,281.93578479716143L483.4526723841591,281.03542636624206L484.1268560554563,280.95431373881274L484.8104911596929,280.0835770628464L485.8286282191657,280.3017694898308L486.3897581501915,280.1497585958241L486.895483332617,280.3947304208923L487.6975075266819,281.39650584437277L487.8090059410024,281.87648910644384L488.26243068484837,282.0692025306753L488.86851377727,281.64596107680427L489.83047288100715,281.6695593976983L490.06854270904296,281.1663360380144L490.0831666385384,281.13170291600454L490.5992869588881,280.5743838781591L490.5903102823431,280.48791456324034L490.64391703585716,280.3499175727993L490.7118388547133,280.2296876526043L491.02585190037644,279.82600786389685L491.0739660193649,279.7917968704396L491.2671810512875,279.54713728016395L491.6060306655818,279.01009655222515L491.6936610968369,278.7819661559115L491.7274041671117,278.7478117652863L492.4167606469782,279.2737745315353L492.626242211456,279.3872225289997L492.88813634812686,280.195567413818L493.1160204910266,280.4041357413971L492.9424593503354,280.61871315209464L492.94840134868355,281.11474655444727L493.1912747481256,281.2413680066802L493.3296460702004,281.2726028806319L493.3721831066432,281.3462639454974L493.9198244073996,281.61669542985965L494.17704067921295,281.74328845934997L494.54902766769374,281.84928016896447L494.8864289449739,282.1186725668085L495.9456227988885,282.36659387374857L496.2174767401957,282.441786846387L496.7490470332705,282.27172731674364L497.13680955500604,282.1660608833645L497.49518358333444,282.14187660655716L498.0529394860423,281.6705613381L498.2561422664876,281.35266247596064L498.40983980130113,281.2454923955256L498.56387466524393,281.0996597342182L499.4507164820425,280.0995746245653L499.5225431968429,280.0826373941618L500.0249498968151,279.9691350467274L500.19730288966093,279.92248059556914L500.30500852524347,279.59970826201607L500.36368669078365,279.42762780998873L500.44374655457796,278.97975208294065L500.54584684539805,278.76076575143725L500.948345725792,278.6073062556279L500.9916554054944,278.5731235207477L501.00630751179415,278.5385044869081L500.9173430785995,278.30974303768653L500.9322338986567,278.2369545702877L500.9740357056071,278.1875125431525L500.9804602708209,278.18089020004663L501.5266147855218,278.09837070604317L501.79908774745127,278.1303641487475L501.8277173248207,278.13946571170163L501.9851520575612,278.20071165692207L502.72896099007994,277.93413296614835L502.9446103974806,277.8924937667134L503.3302667069984,278.1277878690071L503.38742759086745,278.1627720191391L503.86146005615956,278.12265013274555L503.93899084316945,278.00701333684447L504.5044331145873,277.90313328036245L504.51426670244473,277.8690215629549L504.54461162120424,277.70972109383456L504.6799786541669,277.58530533192334L504.9948613129891,277.6650908538886L505.7854503486378,277.5760717678768L506.4021297392537,277.209584029968L507.10711147288384,277.0764651338768L508.29370943737376,277.08037601610795L508.67541249536225,277.59149327375144L508.58117384109573,278.4697862895446L509.12059870268786,278.6244837728327L509.19053954027913,279.3742603888313L509.9177669303426,279.8471037164354L510.1231858761712,280.3946744521754L510.62453412654213,280.1974078800213L511.62119401253585,280.83467529127756L511.77728507277425,281.31720807645706L511.54916341596254,281.8731696635068L511.80986701946676,282.34383700943L512.3906786782718,282.1439060972898L512.7534602896303,281.33945343982396L513.2544341719185,280.7606475422417L514.0062968689235,280.90946593310764L515.224728595349,279.866034669114L515.7642103410217,280.04475535450183L516.3771982227445,279.6718708471981L516.6836438804421,279.2007711474307L517.4222298745299,279.1309292099022L518.0176471044069,279.3614996218421L518.6728536163137,278.6624763916816L519.3448926470555,278.4335328800498L519.8176066275992,278.0054748617067L520.4896202663585,277.9083278991784L521.0244519833395,277.3937007165623L521.6854773092309,277.3586620412543L522.1744919716039,276.9026353662448L523.3683755126258,276.97117624015937L523.8706349365093,277.22079771732115L524.0395614683148,277.70847307851636L525.1875748798666,277.9898138921617L525.665149944034,277.5755638367582L526.4126858178679,277.6560041667326L527.451449583823,276.5374628423888L528.5003183922381,276.8917908097337L528.9249279536562,276.95589241424295L529.1370003427583,276.99176157245984L529.5853372320817,277.1031624320967L529.8630231909192,277.1323377839353L530.0053263801055,277.2079838112404L530.4167788369596,277.3789572313817L530.6520306810307,277.5379291042682L530.8512522079982,278.1695882382937L531.0994563714739,278.53052395368377L531.1382041715442,278.63986060994284L531.197373175808,279.02544272640716L531.2270485998342,279.18719382019935L531.2025276342356,279.58557096297227L531.2370995402889,280.10142835555325L531.6133523442295,280.71661342591597L531.3063943227244,281.60881684807464L531.4052028728111,281.6336414936495L531.5978619745838,281.7504431468906L532.0352675971953,281.2910498403162L532.7716558320353,281.2271538160876L532.9433699138499,281.61363576605436L532.9726481204234,281.64718322434237L533.0640043879503,281.71627834018L533.1120041765862,281.6058270985923L533.3562938171744,281.4101992894466L533.5771162738201,280.8111509817081L534.6189956976486,280.4468116180633L534.9590625900601,280.1768299715304L535.0698731880038,280.10701281369984L535.2924299541155,280.2350013012565L535.4103697423852,280.1661984911598L535.5025874429812,279.6649782882414L535.707625841842,279.5380814901637L535.8612823725562,279.4906242076577L536.3112342984132,279.35484660300426L536.630177387462,279.56059538100453L536.8748092919159,279.5593371939749L536.9397603592515,278.21106319841874L537.1598513421959,277.6680080105334L537.2371821028864,277.4221949734365L537.3241111877505,277.34275484869795L538.545357180712,276.79675181345556L538.5525145060856,276.79572313094195L538.665977267734,276.88516362277824L539.0051894725657,276.83957710855066L539.212077076143,276.87806706194624L540.1417164862032,276.94595016364747L540.4234333833228,277.04084054645045L540.6287168456802,277.17498659234207L541.1570469356411,277.0193831978404L541.594043704823,276.54892933601786L541.7044169593246,276.45217236781264L542.1545287760346,275.885061834475L542.1786700602061,275.5222897723079L543.4405631889749,274.29622478508736L544.3293174122518,273.78986219851595L544.6645856762552,273.1323108181223L545.0271867775919,273.12035638848556L545.6524134431238,272.5241613700673L545.5323150817785,271.7946890746107L546.3991205014536,271.3957338643131L546.399239040009,271.0080654358544L547.1090680174057,270.8982368609313L547.2990109517268,270.4972079815907L546.951955211829,270.078209672969L546.7205230679683,269.3304788415844L546.6758734164432,267.9736401356631L546.8607368895755,267.2297205076138L546.6904079511442,266.39139083764167L547.3736211684372,266.2291766133603L547.6172798755942,266.17967474219404L547.7603411498567,266.12668031621615L548.1603729993149,265.9076606444969L548.4596519770712,265.6637881922834L548.8869292381642,265.2936824783137L549.4086859715644,264.7764769959276L549.6237722125443,264.7534645511814L549.8641662649316,264.89376724097383L550.0861333186403,265.11646775118425L550.1923404977933,265.22376020887987L550.3797722834352,265.3305017635839L550.5195827204298,265.45456057665615L551.0055642003426,266.79337074620344L550.3404666802999,268.13022816144075L550.3212283582943,268.48687104351666L551.028215595481,269.23794707724846L552.0597898204614,270.5770015093958L553.413013979487,271.5399920291293L553.7800834080917,271.62276364331865L554.9653165023301,272.3630386257064L555.8346130834689,272.49956850053786L556.7089464413075,272.2998296600199L556.8041189374271,272.27639658153294L557.3870858162481,272.0559224812423L559.1241007231656,271.65706493743346L559.7308134241248,271.6894893393055L559.8551234815313,271.7108192461201L560.4975112858447,272.4524561979533L560.7354766636854,273.001872147679L560.8300433206641,273.63729508564484L560.9762638501088,274.3953130204209L561.6027902884489,275.2840061460229L561.7421917486135,275.38929727858977L562.9803685237603,275.9492493035341L563.1010588188037,276.02555791348914L563.2619056247931,276.2000439873809L563.6169985014931,276.90920878586076L563.7043216655147,277.46934973598127L563.5913753624845,278.47266256614785L563.7877902420842,278.9635781495708L564.5954459485292,279.74139505897983L565.2225103086421,280.08833301266804L565.3204937677438,279.08300557632447L566.1221739872017,279.12468365385575L567.3957084049362,278.0649068036628L567.9918049063999,277.7693334826663L569.0298871345913,277.7261301393737L569.5300612221181,277.30541231467396L569.5566449718244,278.4959206616013L570.2101568652142,279.5928615111716L570.426713623463,280.4715156745333L570.5000000000036,282.1672434373859L569.9101101734377,282.80975134343225L569.6946740085259,283.6013798949425L569.9616504462028,284.2088597147649L570.0088641629081,284.8951901988776L570.2747800235229,285.32105171229614L570.1717140554938,286.5008681465906L568.8593557948116,287.19471788386L568.6361584182123,287.4201172658486L568.2802986039278,288.4045821147274L567.8669981448475,288.79020060264065L567.7922296993383,289.6052441012116L566.1281851356289,290.10945032280324L565.2725795816878,291.1239633634941L565.1317849983061,291.7604471680652L565.266994216945,292.1638939799195L564.6883808553139,293.0466479477509L564.6892794123451,294.2213902736703L563.9991535427907,294.6335588212205L563.8612997112759,295.08739568646524L563.9968952565796,295.769131389985L562.5052683069225,296.61591554520237L562.6967361138995,297.0264626930666L564.3179953303952,299.34473870132024L564.819036896788,300.62169443618586L564.76670210663,301.6061822970696L563.7628495513236,303.30252051977095L563.3318553233621,304.4651107742784L563.2705665921421,305.1092158700385L563.5408861655342,305.9069511544576L564.061624070524,306.5001114070483L565.0254860261521,307.2077582924694L565.4102876073375,307.65696474024116L565.5683595825903,308.5305195275414L564.8111434579914,309.0805444710986L563.7842125411225,310.11091160794786L563.0176140969488,310.7149149770239L561.3864650135292,311.75408453940236L560.9922799456144,312.6323125516665L560.2306969302263,313.2206056263567L559.6742926731931,314.31969504667813L558.6591898572515,315.0276576788028L557.545761487203,315.23351557130263L556.8691394201524,315.94805236732554L556.2071091727157,316.44229387760515L555.0246127389073,316.53175656446365L553.4425815853901,317.03710251991197L552.2356010716612,317.2716771254072L550.7000308462921,318.8521916559821L550.1943097203257,319.47824116037737L550.0544347902578,319.6365431787772L549.6994858208491,320.3994026957571L548.9269895354737,321.27085992808134L548.5112454731388,322.0393423401265L548.3314351802801,322.563995616415L548.3590971885242,322.79039109389123L548.3426305743269,322.9679659424319L548.5571083535178,323.4857789109683L548.757139817284,323.7751531462527L548.641290226773,324.08252552776685L548.4146269309458,324.3141526849831L548.3927365786294,324.5217390401158L548.17558246724,324.7024875323614L548.1125060708619,324.76256779262076L548.0391866249483,324.8155187558041L547.8900813928994,324.88733734053403L547.4868628724435,324.99647022041063L547.3716695271905,325.0214676049518L547.213827137366,325.0073240713855L547.1453844532625,325.149294718517L547.1875696452335,325.2403567973097L547.206210841905,325.2922353627391L547.1616495562521,325.4382916638233L546.9634597607874,325.62666244859065L546.9570946779968,325.781848331324L546.9079820217994,325.9024584137969L546.8308443402493,325.95338050107694L546.6670869092995,326.0557461621738L546.5030763212599,326.17948615283694L546.445535828967,326.18360137405944L546.2540767943392,326.1862676213068L546.2243926089359,326.2768518699959L546.3093352665564,326.87256992097446L546.1595411253365,327.0141051690098L546.0770788769478,327.1210063811459L545.9857107644057,327.15921965222697L545.6683108179932,327.30799994611334L545.6385000959708,327.4113073455128L545.6533938456487,327.47743082914985L543.1943260965272,327.6201044123154L542.8415663938213,327.9739773802403L542.5078402067738,328.9465078238518L543.0703575816333,329.7723334321445L542.8618972663498,329.9877146605886L543.2896723464983,331.1698048147582L543.0877315516445,331.8745974095491L543.5082684915906,331.89362566271484L543.5610746232014,332.5427871375523L543.3898929010211,333.35237963486634L542.7976827841849,333.5517613059192L541.075835110034,333.64978559939846L540.6036870309945,334.20015786326167L539.7904432823998,334.3443250990331L538.7661703240483,335.1546788493233L537.1774332210734,335.0207957508992L536.6989344612484,334.39798955345395L535.768118888107,334.6914408947232L535.0344298596683,335.82775872666207L534.8207650448021,336.4512248109222L533.8593316265178,336.6562345757575L533.3873785068827,336.4252251469934L532.5360783700999,336.5085670497583L532.4516196464683,337.4900966909954L531.8585770818245,338.30682580114717L531.0313345078757,338.0599712887406L530.5240982541181,338.330195325766L530.0881438119904,338.1271818411278L529.7213110568882,338.58499596608L523.1892656972304,336.93924121208147L520.5048619940972,336.10454665560883L515.5823427450014,334.2596043393205L515.2203836805347,333.9844213091774L514.5833238813066,334.01293586790325L513.7395196998186,334.79173920556514L514.0969579968332,335.8336363913122L513.257602290043,335.7577061928805L513.2223953157554,336.53517143147474L512.5243021782808,336.62996573482087L511.53311883177594,337.15010981713294L511.60207347089454,337.9111304286007L510.74528374335205,338.24332753348335L510.2924750678467,339.2255396455448L510.11204444768373,340.41489636224287L510.27634879823745,340.86589607960013L509.60952316570547,341.1255412614264L508.82268064394884,341.84688515894504L508.14351631433965,341.5972946436459L508.06292125030086,342.0614443332097L506.9840180283172,341.9011480224299L506.70622828655905,342.3046159833075L506.2831922526311,342.02915215745725L506.5328455126946,341.61555405891977L506.0423508433487,341.3778662984014L505.78706187603166,341.79147858026136L505.2907468823796,341.48359520962276L504.1793445626281,339.52085349399204L500.7399493717385,339.16500140102835L499.7115841935083,338.9946722388404L499.3112256337481,337.738313946802L498.6964618103084,337.4124820861243L498.75283941329326,336.36529424884156L498.14308731705023,335.8440781618747L497.4476141441919,335.9066347668704L494.38972078543156,335.18839900416333L490.15614183700745,334.14865227507653L486.0234977152177,333.0710443461139L485.7695007922084,332.60311015404477L484.85824632290314,332.4629735728713L483.7492816671802,331.8598755775329L482.9854431126514,331.71483324726523L483.0284867843475,331.0807886811144L483.3161596618338,330.3143375694035L483.6922640771809,329.90023018210377L482.9235803570664,329.14925337827754L481.96106805530144,328.9559284257575L481.7386847990638,328.35970551605806L481.272897191182,328.5318914540403L480.5267382830316,328.27086107885225L480.35599670281954,327.89228341761464L479.74286404561644,328.08880501630574L479.30364051690776,327.8610638386481L476.3953718221128,326.9645464445093L474.5254169578511,326.322728176312L472.7303011513941,326.20991253270495L470.38987882260335,325.6302525064484L470.18920927826184,325.1363498335977L469.1182545265947,324.3855894507651L468.88600419820796,323.5656619927895L468.3850559005332,322.6697242312084L466.9855422003602,321.36907023184176L467.0898035222308,320.7241332435797L466.8191490443787,319.37725971388227L466.20291541276674,319.5068826649658L465.9039533105388,318.73043766561204L465.9597604968658,318.0301987933035L465.34925242597456,317.73551955890616L465.1582484486062,317.25736921816497L464.6336845390324,316.94513257933886L463.9803209285419,316.16270533483384L461.63348955702895,315.6503808868547L460.89813285331184,315.1781433114684L459.45389561866614,315.0328587258218L458.09180766182544,315.99800879557733L455.292768840638,315.56042447639356L453.9386864347907,315.29857293431996L452.8697728088009,314.4532414029072Z" fill="#FF7B46"></path>
  <text x="505" y="308" font-size= "4" font-weight="500">
    सप्तरी
  </text>
    </g>
</svg>