<svg  viewBox="345 205 150 150"  version="1.1" xmlns="http://www.w3.org/2000/svg" xmlns:xlink="http://www.w3.org/1999/xlink">
  <g>
  <path id="path-0208" d="M461.06578038926455,260.3046497073992L460.9375261813984,260.3208552058504L460.58266312005435,260.472115802153L460.30724591520993,260.45674841335494L460.20162309649095,260.6656886787441L460.21815951222015,261.1296110206895L459.7865058992429,261.75936444409126L459.9994856947633,262.74410094340874L459.8208708621569,263.1659401777133L460.12961806970634,263.6064966181784L459.9508935430822,264.1728273389954L459.9016264631864,264.3195176698082L459.8416341765078,264.9831227640361L459.67761655615686,265.44053864547095L459.12418567363056,265.89060618229905L459.49021315623395,266.68657831234486L459.5690726209468,266.77585031868693L460.0992829323295,267.603338698852L460.2188486541927,267.8064278867769L460.88963559683543,268.3455086159074L460.8878897622999,268.4045451474094L460.9302503108702,268.7981586879332L460.91023432993825,269.03072621045703L460.9787075516542,269.6766041195424L460.6252718718679,270.03797264526565L460.4725310313552,270.07868081557535L459.95427101146925,270.0498898739643L459.86393158309875,270.0939503791733L459.3807616446902,270.43948408705273L459.0422270884119,270.54645998333035L458.5046846395744,270.7939996459718L458.2003032590728,270.93952481583256L457.97124134766636,271.00236943452L457.1091121578247,271.3304240001453L456.7875346782457,271.8062016250442L456.5069543352256,272.156677458207L456.18359936577326,272.52511857882837L456.1092387073695,272.64340418272513L455.7683778180799,273.34921314548774L455.76437728467135,273.3883971065079L455.80027941670414,273.5175018674363L455.23051117575596,274.2663310147136L455.1883853772488,274.3188868915013L455.15429396733816,274.53980234154096L455.4357101501446,275.76033153074513L456.0729702287972,276.56803600664625L456.06099352859746,277.2045314448451L455.8239265625052,277.83112549708585L455.90613973865766,278.6193953068523L456.69207485687366,279.67386707663445L456.72130318986456,280.69633940859876L456.1250912131218,281.5343014670798L456.10289354642373,281.8711762596822L456.5590700175999,282.95222706560253L456.5095792254069,283.8595020559933L456.167823989148,284.2447949711468L455.83910507434484,284.810635113261L455.78824474340945,284.9024032149309L455.67198888168423,285.3225365657281L455.4144254836101,286.1165748638814L455.3485593574587,286.17327355972884L455.4695279292355,286.7625094154537L455.0936529824612,287.36415268340534L454.2762888055331,287.8615384013301L454.1992789101314,289.31531722281943L454.633806717422,290.03418862331273L455.366793578185,290.3724879350875L455.6418572802686,291.0034131153416L455.73204334911134,291.7153439974236L455.4710571466676,292.55366680504267L456.1320155968933,293.3730092127571L456.19851778996235,294.09369030531707L455.81883425355045,294.48064647234423L456.1311811585256,295.2569361242049L456.8937694438391,296.2677580350237L457.2408638289853,297.20572825248655L456.81504781560216,298.74822276142913L457.0103512950991,299.3361893325882L457.01174060763515,300.42899882831625L456.7163087115514,300.7128862702448L456.89194332228,301.28869362928344L457.46502131683883,301.8321158374192L457.15755190929485,302.54137635373263L456.5326748100051,303.02175240957513L455.6567234809918,304.01179108020824L455.7749444280562,304.5923617841654L455.1608921891384,305.2813380343878L453.9472264322758,305.84472729768913L453.2319998846542,307.2494137699705L453.3998059343721,309.4349596395077L453.8096313092792,310.64589175443416L453.72064135021355,311.22314073539746L452.8997060683905,312.09449960273014L451.8100999619128,312.83865969217095L451.37639195318116,313.6099740803793L448.66166896478535,312.0762957966617L444.76406241843506,309.60054692688027L444.5123130520187,309.48449294741204L438.86507401591734,308.3934119422729L431.802950075009,305.98344491358057L430.86886720879556,305.6445007029888L431.24912004280486,304.8482200763956L431.3758536535388,304.1969846783895L431.0980888119593,303.75452545324606L422.05116788132364,301.3119874282893L418.67943057647426,300.93670364985064L418.25331781372006,300.3912641218567L418.6047447634337,299.6310822545902L419.1612463789752,299.1365612626496L419.0445591608477,298.4533318830345L416.961114694499,298.0198919715185L416.0798008305319,297.90601826936745L413.79685947512553,297.8151060952205L411.22786510701917,297.7852781746933L407.8493475720825,299.30269909821527L403.96153788002994,298.38411878246643L398.92108810510763,298.95657437027785L398.4310900461787,298.8721560362537L397.69664548025685,299.5836918785244L397.82143546463703,300.3415691676928L397.1146451006425,300.2160965626317L396.46997845188525,300.9841594289128L396.6625909042268,301.5839614905626L395.9722720483878,301.51539754268833L395.9321556608629,301.9968768203671L395.40879435955503,301.91878537217053L395.260741229471,302.45377970977825L394.84059675418393,303.0120831598624L394.6445883127053,303.7696275933349L393.4091351853058,304.0657744983455L392.9723898079137,304.44054373223753L392.2626674298117,304.2439596408558L390.8070346608001,304.9000778424852L389.83442570770785,304.25476428625825L389.6311534372944,303.93587188561014L389.0936219888936,304.03653867837056L388.5968715183626,303.77220703803596L388.1993153099429,303.1039034604146L387.33284809661563,303.50963516846423L387.0535166840491,302.92971532219417L386.6496188116471,303.5714727061322L386.16857358198104,303.78836579685867L385.8897933642984,303.29239331129884L386.12841539488,302.90997656527543L386.14041450409786,301.975367949246L385.8176930427835,300.942910788508L385.77954140787915,300.3535045097833L385.0039074194101,300.05469958438243L384.70076816818255,299.62245593666194L385.540906560298,299.41470125644264L385.1634605025247,298.98034535539955L383.88673252130684,298.9097902731637L383.5654894372856,299.21178346400757L382.9589888728551,299.2040581104029L381.49269744575577,298.8121446771311L381.00628659960785,299.1456454988347L380.4967762189626,298.43128404298386L379.62573455891834,299.05957916938223L378.66397481193417,299.1262681786293L378.0905248877898,298.9821101867383L377.0932308443553,299.68344919307856L376.78032995172543,300.05210134625395L374.8785100773821,300.2913642509702L374.9664384332391,300.1575514377337L375.08806834738425,300.0260769874867L375.27174563041626,299.8092733459698L375.55087421843564,299.4235025750313L375.6420143863834,299.2632148682669L375.7990479385844,299.0002814732661L375.8899485057045,298.8359218019423L375.92538198823604,298.7863671940004L376.2617891714508,297.99073564181253L376.35574648567854,297.7958432012874L376.708152964733,296.70046377966264L376.76996072089605,296.61056947921315L376.79999851300454,296.585460861249L376.8343019144886,296.39142888302194L376.8185050612483,296.25416576022235L376.76391593523294,295.89379039720825L376.67411918045036,295.60383671626914L376.51014146539455,295.26447112846927L376.27542217369773,294.9545122344016L375.83981844378286,294.6559412461811L375.72484797354264,294.55234042165375L375.76601917788867,293.977219989295L376.17672565270914,293.5082605518546L376.9318501451198,293.3369013960173L377.43028349688393,293.21897519342747L377.64425622461204,293.1765048480429L378.1600065702369,293.12206725150554L378.86978981442735,293.54370861887946L379.16814244895795,293.46818208110835L379.5293996327964,293.19643916798395L379.8519609528157,292.59320484044656L379.85873225739124,292.3169449159168L379.8500493242209,292.1231672649228L379.86889625229014,291.90226618775887L380.0328295471918,290.75309481441036L380.43602988428756,290.4536364635687L381.5671724307431,290.47300548198746L382.9652949909687,289.9302552820791L383.3179276894298,289.5680415383122L383.7298379018357,288.71151239268147L384.41375710573993,287.94041965241104L385.2693384898521,287.79260295577933L386.1630365725505,287.2121565938787L386.4107701148241,286.6246900466722L386.1979376613126,285.24161919956805L386.2093604304755,285.064523611426L386.3305762220298,284.66345386178637L386.4572612040756,284.3875160328598L386.53415609931835,284.17798451667204L386.8122508458073,283.53490481463723L386.92412335228073,283.03113426223445L386.8239844378659,282.71119755944346L386.32555581861743,282.370611703569L386.2392426928527,282.25716160986576L386.22277139246216,282.21043992013983L385.9593080154591,281.11560612325593L385.9366768049258,280.9269855995926L385.7383279650203,280.226568063119L385.6936078900908,280.18917432479793L385.35939027480345,279.88176737451977L385.45866260237744,279.85271245353033L385.61275504521836,279.7653528052879L385.5295437330642,279.069878912539L385.10931201130006,278.1143259475757L385.29763288491813,276.92536448650026L384.44050121229157,276.35945960675235L384.2459555610403,275.614757614866L383.91036818815337,275.1557720372739L383.2738086740901,274.8241778108286L382.79992170995683,273.7051552643825L382.7304067122823,273.0859213795484L382.32508112570576,272.11555977212083L381.85664216149235,271.4625168314569L381.586014595272,270.72185991062634L381.5817856554713,269.92877024436166L381.2746207757082,268.9995775918642L380.9779364863425,268.66910495640786L379.9756640975793,268.43434226746285L378.6255056362097,268.4870465284357L377.7368855409404,267.97086529613716L377.20642453326946,267.2617880483558L377.25016074276573,266.7278804817852L377.02266383121605,266.1543708149329L376.38958538392035,265.1829140093214L375.41533739436636,264.3010179542507L375.11547701396194,263.67658876052974L375.3002607093149,263.13928322426364L375.1888144270488,261.75213896325386L374.41756394689946,260.1573634391043L374.6161948766021,259.49839179991795L375.58379796021836,258.5748281902079L375.8294221644355,258.1892693821701L376.1776389736988,256.8558421732705L376.19248682491525,256.06113193243164L375.99825000544297,255.26207138741574L376.1815044444993,254.3554567559122L376.4839756979127,253.81948783142798L376.7475518014071,252.85539936611895L376.5222597005013,251.93240500391585L375.58412636550565,250.5537988698843L375.5664308086816,249.2098667385626L375.86815531153843,248.6738978399153L376.32858445569946,248.29619762947914L376.7822509662219,247.2440021962957L376.61715932483276,246.8639593367352L376.4414128147,246.31914991957456L376.3900883884853,245.76749077596196L376.16682252751707,245.4030604400932L375.5259965423029,245.1927377342654L374.50437460892135,244.70951498210252L373.9804950114267,243.39968872217105L373.3854798086395,242.82539619944146L373.5088137661587,241.97610014489146L373.63676592424963,241.66196477560516L373.734043920198,241.25795074874713L373.5834642125956,240.87782312615127L373.1942945687442,240.37758346806277L373.0913271765494,240.2266124101916L372.22998821120564,238.54803218036068L372.21226050336554,238.3817863137101L372.20230670001547,238.05218257819615L372.14524241314575,237.9162164547115L372.12650190290515,237.8288315051459L371.8826603202142,237.2015553495512L371.6864940331034,237.12492389559884L371.45614403049694,236.89385414482967L371.3927557056559,236.17287749253592L372.060483880854,235.29888703538563L371.92570610686744,234.6175181440567L371.78296065159157,234.26789493742945L371.67153382453034,233.83159044748209L371.5724652549543,233.4913644498738L371.54735239684305,232.52647776349113L371.67188680641266,231.81809434208753L371.6938692085205,231.2883860247457L371.9753630084597,230.82678374690659L372.31833566174464,230.7254861213787L372.61976995155055,230.46724233288205L373.1299459808579,229.9828811524685L373.33793985603916,229.70182744402155L373.39456270733353,229.61144011047782L374.1811861205533,228.5470092667374L374.63570139398144,228.34839118518812L375.15951834228326,227.98658329842237L375.22694787013097,227.90681953292005L375.57136338666896,227.4026366793596L376.1419409754817,226.9637424396442L377.24147520464976,226.70534449287334L377.5786629763279,226.88494222193094L377.6278087858518,227.00521237337762L377.32547201936177,227.90744691376221L377.04538225156284,228.81310492149896L377.1418630198532,229.37619012960567L377.3985345137007,229.7404226104145L377.3242043723876,229.97131423591054L376.99136926808933,230.42962035156415L377.3114432227121,230.83313428811653L377.95841797144385,231.32783231671965L378.0651037885182,231.42334564776138L378.6013409938096,231.4298321662236L378.71240855889846,231.52481001011165L378.8661364511936,231.52593464566962L379.83498617996884,231.6255197159553L379.96195832556987,232.29627907526356L380.0122014992485,232.3392241081683L380.26203463432466,232.45781423902645L381.0348097109818,232.82413754363824L381.2129035301805,233.0962800685611L381.7377365240536,234.1752580997436L382.2051594272598,234.7479041794595L382.6470550864724,234.75907009151615L383.1016113186233,234.49596273775114L383.85876228236157,234.9036681986745L384.0362988458546,235.4810673776219L384.0228172062052,235.5671143270738L384.07255914071357,235.89901405196542L384.8704607771251,235.8445857853294L385.6826533482781,236.0042807587597L385.80557278104243,236.2345209870773L386.34055748141327,236.30931511877952L386.94784906634595,237.1050716887621L387.1455332443402,236.99966221874547L387.9105432804754,237.27411981930254L388.25914227671456,237.40035909834387L388.66615529329647,237.52475163515646L389.03956654252397,237.7027425283668L389.09314892619295,237.7482236802789L389.4785923375857,237.92311460585097L390.2642889173476,238.36691779497232L390.75496630466296,238.60532402429635L391.0539557565935,238.6698083046249L392.07060865333915,238.68454346433555L393.0976238543881,239.0228096399578L393.5012623916955,239.48201939480623L394.1962585718502,240.2260647617386L394.2016971507619,240.23213739769017L394.6319587302314,240.4180317512173L394.6257054596281,240.5320187633397L394.8714139466392,240.8186304563469L395.1793267607245,241.11762609496327L395.6087353336188,241.6143707952615L395.8487660944047,241.91269125266717L396.16735905193855,242.23506178160005L396.82987219558345,242.62576237167286L397.5014826949591,242.80838386212872L397.6415984272826,242.71506443269845L397.93866521351083,242.4636824188765L398.1118599262518,242.24503319635005L398.16673471170725,242.10635994984386L398.1927405174065,241.96327706032844L398.53490908536696,241.81188998069592L398.79134507998606,241.68743003775216L399.04778107412494,241.56295600459362L399.1332456777491,241.52282667949203L399.3760158104815,241.43302800161655L399.4555475827947,241.33238285699008L399.65263758621586,241.10954854893953L399.69860867715397,241.00552239892022L399.8904570231207,240.76083481633486L400.4609824122999,240.51976201346133L400.8457562442527,240.3371511054902L401.011852339765,240.23301023361273L401.168056933926,240.08823439086973L401.30687491127173,239.92064736617886L401.38249110300603,239.87954600444846L401.7260841069692,239.79687510776057L401.9178525986681,239.77807604575173L402.07049481541617,239.7396363812568L402.146096918088,239.69854910931372L402.37726749711874,239.41145041146774L402.474576572924,239.1499692991356L402.6160278037605,238.91318696258804L402.82099407488204,238.70864114960204L402.92450635918794,238.636879802134L403.2331007635912,238.5116722208395L403.7881452118636,238.42284052601462L403.9779963185065,238.34403281058167L404.5869156420449,238.13742313458715L405.49089631413517,238.12926410743694L405.6697710029039,238.00777840931278L406.18236194739075,237.79508352044013L406.2533287790902,237.7586037061801L406.3957135629935,237.6983672071683L406.51047014029245,237.6779490936906L406.99669066901333,237.69025550354309L407.0883133222196,237.700469116362L407.5514991869386,237.77393996139017L407.92049949756256,237.90184148124627L408.1452961666437,238.02532119649277L408.6992274756376,237.9320230241692L409.19242111231506,237.89243638501466L409.51753611093227,238.15128973040373L409.7095022255926,238.15034250173812L410.03929170704214,238.25757486068778L410.1922614686955,238.38705805315294L410.6940692928074,238.61910954470568L411.07852632859795,238.78561700136106L411.21281096676466,238.78192321478764L411.4340940218208,238.64600879188674L411.9137767136417,238.637560949016L412.24158454500866,238.9818973884212L412.59920596350275,239.3606971110221L412.62870930004283,239.3814087018627L412.8819065749667,239.34405226656872L413.42518266119805,239.07027733177165L413.5477891057926,239.1531095279979L413.874451860338,239.31230531537312L414.13310527694557,239.44790173623187L414.6698208840571,239.41991030818826L415.32065880216396,239.3592989587587L415.68199277482563,239.400815709585L416.00721439541303,239.36620558677987L416.3526547134934,239.3610006489953L416.4376411831727,239.364155353579L417.4802289681247,239.20967083702544L418.65442621887996,239.13703206953414L419.40615229462855,239.51151369307172L419.5031997627775,239.5431156087934L419.8941387472696,239.7514134540097L420.3163512832216,239.73878187198625L420.4682182376637,239.68313849602964L420.75400322836504,239.6100919069777L421.87664083395066,239.87456782497247L422.33846526223715,240.1970345641903L423.5310816951169,240.34018157522587L423.76943373979884,240.53496980646833L424.05149127579716,240.7590782907746L424.7472843366777,240.52091991567613L425.0651904085353,240.3312651527758L425.1635301445094,240.1736262198292L424.9442944604598,239.84647758359188L425.05201296125233,239.46444348407385L425.09392453192413,239.27399022909322L425.40368323151415,238.90326689343146L425.5138720308969,238.74558549279118L425.6489571521961,238.61678787434357L425.83046651292534,238.49438627040672L425.8577005370498,238.46984128842814L426.17098485003953,238.25733285911974L426.207493373171,237.73826204012585L426.2031791827976,237.60042107510253L426.2489896831321,237.22833545380217L426.8222369790601,236.4408298284061L426.8304134868158,235.31853059484547L427.17471712695624,234.85660305957663L427.6141575187612,234.68578438654276L428.15791862830156,234.02510202823396L428.0964218687586,232.8135729364467L428.49486064543817,232.55339710088447L428.9779596342887,232.8646761098007L430.1075351515392,232.74175133222252L430.84074120652076,232.79253292594603L431.21876375640204,232.48974971095777L432.26169968759496,232.81343246125653L432.9069105231865,232.49122893001368L433.67994344492035,233.04910367029242L435.0692725097506,233.1155421291096L435.5261636923933,233.34054939976613L436.21850866087334,233.28375563506506L436.35184129061963,233.56911519502864L437.2696949072124,233.9926971011746L437.8266271029206,233.89224115609068L438.3691383065052,234.09760572700088L439.528930121709,235.07122326790613L440.66238307117965,235.75604152197047L441.0857097804146,235.79607775464137L442.21931987973585,236.58370967152314L443.70708823136374,237.20618844133605L444.82382304882776,237.49491299744295L445.5833599723337,237.44977038744946L446.1350005868917,237.63335188566634L447.1252498207796,237.62096429118446L447.9946937013883,237.415716804755L448.7745509740962,237.54354089362096L449.66662445053953,237.44512229436714L450.06648224598393,237.66494545313708L449.45292702520965,238.51935049295298L449.95512978912666,240.10984706890304L449.93854599621045,240.74634244244226L450.4258942803135,241.45575840418678L451.79558971185907,241.83944430609972L452.45086769913905,242.53965676381995L452.94137640639383,242.78817943565718L453.27019299447056,243.52824351831987L453.01616636836843,243.65836761691298L453.38686164421233,243.98468240302645L453.49776127512087,244.1307923282593L453.80597022992515,244.43545206277668L454.0900777991301,244.32302431327116L454.3057966071683,244.23476181936803L455.57790800389193,244.52992280692888L455.8370434184726,245.47477003282256L455.80046978374594,245.5741041299898L455.8650618021238,245.90049453716802L455.75028074947113,246.09827577396027L455.9670973297216,246.624584569935L456.0896466246486,246.66790880630197L457.1330551871688,246.67802179493174L457.06886446134376,247.34672741784016L457.02092175418875,247.49188191833946L457.13052700285334,247.72502490645547L457.59305597855564,248.04596991573908L458.0518307917773,247.38962851872566L458.4490072392291,247.39896338489234L458.47767903179556,247.40599373852092L458.77862177624047,247.89335675878465L459.0629001309644,248.53341182765598L459.23878106052143,249.42819923139814L459.190485427509,249.5402989390568L459.0123489307771,249.9270262173959L459.0087177020614,250.1081654642212L459.07221790966287,250.10386698597176L460.20825871942,249.89145731432382L460.56492968517705,249.9548697305263L461.4525708019646,250.1263987295788L461.4680688601293,250.12026938043982L461.53919086694805,250.09256752219244L461.76492888027497,250.08671641789078L462.5556321664262,250.08103893424777L462.7473151475606,250.01378481259144L462.93554933658015,250.09303707058734L462.9767307046277,250.0196423151965L462.9313570161321,249.7211635751528L462.9887696279002,249.66755070315958L463.1244492002843,249.66711162422416L463.31326858794637,249.43451309181728L463.40207052074766,249.3070265748447L464.1770300128592,249.01147874579783L464.4541372659405,248.9958343199296L465.2584356763218,248.94187065929873L465.45400942034394,248.97583799386575L466.27548994614335,249.26931579665325L466.36904977655286,249.60886565285637L466.350679573723,249.71321543705835L466.13775404034095,249.97334596024302L466.8647667568439,250.29918976254794L466.77692930925696,250.73190481828078L466.771140612047,250.82654647956406L466.428812480739,251.4325288013879L466.3650890871977,251.54362839471014L466.2343986386477,251.61679922780058L466.34498218289446,252.1414754215848L466.24764432542725,252.372240732283L466.1948837009222,252.54640633698818L466.1846283436207,252.62375982102276L466.60276721838454,253.85971494400656L466.15393101490554,254.11652425341072L465.8841090753558,254.1881052845738L465.84664739811706,254.2675727075257L465.348606943513,254.9788652535317L465.3047796112405,255.1865786570106L465.1382371695727,255.5066043796587L464.7141046646757,256.0126346491288L464.9067948762495,256.2735050861702L463.98110969055415,257.30110804528795L463.73016768693924,257.3884271236693L463.52030904859566,257.4318274252837L463.02413584072565,257.1561818504215L462.52165774981404,257.2193974296342L462.30366328335003,257.6331920143366L462.7071294223315,257.9218440940331L462.2134810800053,258.4561397859743L462.11270233768664,258.53938435927375L461.40368532207503,259.06320083083665L461.33975102928525,259.1956888308641L461.3876555912939,259.2469187411607L461.59861017650474,259.7320712145338Z" fill="#e1b03d"></path>
  <text x="415" y="272" font-size= "3.8" font-weight="500">
    सिराहा
  </text>
  </g>
</svg>