<svg  viewBox="272 175 150 150"  version="1.1" xmlns="http://www.w3.org/2000/svg" xmlns:xlink="http://www.w3.org/1999/xlink">
  <g>
 <path id="path-0202" d="M377.32547201936177,227.90744691376221L377.6278087858518,227.00521237337762L377.5786629763279,226.88494222193094L377.24147520464976,226.7053444928688L376.1419409754744,226.96374243964783L375.57136338666896,227.4026366793596L375.22694787013097,227.90681953292005L375.15951834228326,227.98658329842237L374.63570139398144,228.34839118518812L374.1811861205533,228.54700926673195L373.39456270733353,229.61144011047782L373.33793985603916,229.70182744402155L373.1299459808579,229.9828811524685L372.61976995155055,230.46724233288205L372.31833566174464,230.7254861213787L371.9753630084597,230.82678374690659L371.6938692085205,231.2883860247457L371.67188680641266,231.81809434208753L371.54735239684305,232.52647776348658L371.5724652549543,233.4913644498738L371.67153382453034,233.83159044748209L371.78296065159157,234.26789493742945L371.92570610686744,234.6175181440567L372.060483880854,235.29888703538563L371.3927557056559,236.17287749253592L371.45614403049694,236.89385414482967L371.6864940331034,237.12492389559884L371.8826603202142,237.2015553495512L372.12650190290515,237.8288315051459L372.14524241314575,237.9162164547115L372.20230670001547,238.05218257819615L372.21226050336554,238.3817863137101L372.22998821120564,238.54803218036068L373.0913271765494,240.2266124101916L373.1942945687442,240.37758346806277L373.5834642125956,240.87782312615127L373.734043920198,241.25795074874713L373.63676592424963,241.66196477560516L373.5088137661587,241.97610014489146L373.3854798086395,242.82539619944146L373.98049501143396,243.39968872217105L374.50437460892135,244.70951498210252L375.5259965423029,245.1927377342654L376.166822527528,245.40306044008503L376.3900883884853,245.76749077596196L376.4414128147,246.31914991957456L376.61715932483276,246.8639593367352L376.7822509662219,247.2440021962957L376.32858445569946,248.29619762947914L375.86815531153843,248.6738978399153L375.5664308086816,249.2098667385626L375.58412636550565,250.5537988698843L376.5222597005013,251.93240500391585L376.7475518014071,252.85539936611895L376.4839756979127,253.81948783142798L376.1815044444993,254.3554567559122L375.99825000544297,255.26207138741574L376.19248682491525,256.06113193243164L376.1776389736988,256.8558421732705L375.8294221644355,258.1892693821701L375.58379796021836,258.5748281902079L374.6161948766021,259.49839179991795L374.41756394689946,260.1573634391043L375.1888144270488,261.75213896325386L375.3002607093149,263.13928322426364L375.11547701396194,263.67658876052974L375.41533739436636,264.3010179542507L376.38958538392035,265.1829140093214L377.02266383121605,266.1543708149329L377.25016074276573,266.7278804817852L377.20642453326946,267.2617880483558L377.7368855409404,267.97086529613716L378.6255056362097,268.4870465284357L379.9756640975793,268.43434226746285L380.9779364863425,268.66910495640786L381.2746207757082,268.9995775918642L381.5817856554713,269.92877024436166L381.586014595272,270.72185991062634L381.85664216149235,271.4625168314569L382.32508112570576,272.11555977212083L382.7304067122823,273.0859213795484L382.79992170995683,273.7051552643825L383.2738086740901,274.8241778108286L383.91036818815337,275.1557720372739L384.2459555610403,275.614757614866L384.44050121229157,276.35945960675235L385.29763288491813,276.92536448650026L385.10931201130006,278.1143259475757L385.5295437330642,279.069878912539L385.61275504521836,279.7653528052879L385.45866260237744,279.85271245353033L385.35939027480345,279.88176737451977L385.6936078900908,280.18917432479793L385.7383279650203,280.226568063119L385.9366768049258,280.9269855995926L385.9593080154591,281.11560612325593L386.22277139246216,282.21043992013983L386.2392426928527,282.25716160986576L386.32555581861743,282.370611703569L386.8239844378659,282.71119755944346L386.92412335228073,283.03113426223445L386.8122508458073,283.53490481463723L386.53415609931835,284.17798451667204L386.4572612040756,284.3875160328598L386.3305762220298,284.66345386178637L386.2093604304755,285.064523611426L386.1979376613126,285.24161919956805L386.4107701148241,286.6246900466722L386.1630365725505,287.2121565938787L385.2693384898521,287.79260295577933L384.41375710573993,287.94041965241104L383.7298379018357,288.71151239268147L383.3179276894298,289.5680415383122L382.9652949909687,289.9302552820791L381.5671724307431,290.47300548198746L380.43602988428756,290.4536364635687L380.0328295471918,290.75309481441036L379.86889625229014,291.90226618775887L379.8500493242209,292.1231672649228L379.85873225739124,292.3169449159168L379.8519609528157,292.59320484044656L379.5293996327964,293.19643916798395L379.16814244895795,293.46818208110835L378.86978981442735,293.54370861887946L378.1600065702369,293.12206725150554L377.64425622461204,293.1765048480429L377.43028349688393,293.21897519342747L376.9318501451198,293.3369013960173L376.17672565270914,293.5082605518546L375.76601917788867,293.9772199893041L375.72484797354264,294.55234042165375L375.83981844378286,294.6559412461811L376.27542217369773,294.9545122344016L376.51014146539455,295.26447112846927L376.67411918045036,295.60383671626914L376.76391593523294,295.89379039720825L376.8185050612483,296.25416576022235L376.8343019144886,296.39142888302194L376.79999851300454,296.585460861249L376.76996072089605,296.61056947921315L376.708152964733,296.70046377966264L376.35574648567854,297.7958432012874L376.2617891714508,297.99073564181253L375.92538198823604,298.7863671940004L375.8899485057045,298.8359218019423L375.7990479385844,299.0002814732661L375.6420143863834,299.2632148682669L375.55087421843564,299.4235025750313L375.27174563041626,299.8092733459698L375.08806834738425,300.0260769874867L374.9664384332391,300.1575514377337L374.8785100773821,300.2913642509702L373.87375109293134,301.10986052247154L372.48868632417725,300.8175891671908L372.8808619716983,299.48332966316866L373.26976254029796,298.52963724586607L373.59381328481686,298.4193224398168L373.0880543900603,295.8074799577598L368.73519989479246,295.5212596000756L364.5311861560185,293.9323309209349L359.2999073840183,291.49241994209297L358.38479966660816,290.9825230545621L357.5823007223298,289.4483622902653L357.1466707960608,289.24467238422585L353.73975021939987,288.7020010042788L347.90630303908256,287.2595065713467L347.8052754888449,287.5817009313496L346.8571314598812,287.91278573686395L346.0445174509623,288.5130831806264L344.8975980867144,288.64260175920117L344.0322519513247,290.13663363723754L343.1424199508656,289.60206497140643L341.77590908036655,289.9133321507652L338.8475461803464,289.4568967730047L337.583667888066,289.38758119088834L336.4170165202486,289.16705170047135L335.9939212040226,289.41987285049163L335.72972994286465,289.940680445975L335.0606160749812,289.8951529294509L334.51979967256557,290.5822957593591L333.79053636315075,290.41768176664027L333.49474207354433,290.89803790092265L332.97235010065197,290.6719042344457L332.5880474317819,291.16919781212437L332.03948236864744,291.1788160151327L331.6433248101057,292.0867304158901L331.301414256679,292.4621319710359L331.4349861298615,293.44551711543863L331.09771157177966,293.8524376015175L331.26627406634,294.48351945603736L331.8040640992331,295.335228349727L330.86710211170066,296.82859911565265L330.4238941102012,296.71894497408266L329.67713717089646,297.5155129612731L329.67847458791584,298.16361808936654L330.0302893685366,298.46217640519444L329.55027332262034,299.41143182497217L328.2898823274991,299.00264922698625L327.8490221035099,298.637602327869L326.6538847887314,299.24480992961435L326.18326402733874,298.67908170707324L325.22442535647497,299.6696704202195L325.3961119256419,300.1160342428766L324.57342826537206,300.226526133667L324.19470528615784,300.04116614054055L322.7179746459624,300.3789943452066L322.4099252247979,300.28517499220834L322.08944388052623,301.3376359905742L321.44638003871296,301.24182130216377L320.70410645822994,301.4861091377943L320.55817615218984,301.7970323303507L319.87087708417675,301.9529054326513L319.3345626708069,302.3167141688291L319.55278585926135,302.75404564672954L319.3732321143616,303.44576180657623L318.37068811738936,303.7129639484774L317.5260178587887,303.45602092484387L316.64223800216496,305.420935955256L316.57353649086144,306.01107655953L315.99448742427194,306.2791172334264L315.312138398509,305.9665166433606L314.7208535858372,305.92080461712067L314.3676039590864,306.4384011520624L313.8055853775986,306.53489755795636L313.0262921684771,307.12761398900784L312.64866714512755,306.891009148796L312.2970068550858,307.2712718363555L312.1807966189044,307.8750099160634L311.2103986614493,308.56593571596113L310.27974150667796,309.0067941199932L309.54500665664455,308.59502995335606L308.73311945542446,308.9108530596095L308.52839677643715,309.32863465582705L307.792387469206,309.30098813550103L307.6240414224121,307.50711277155915L309.749291214368,304.5801647471444L308.59183614973153,301.33526171673475L308.9483685588857,300.8175665261706L308.9368955332866,299.89384994259126L308.1894034142788,299.8612158191463L308.4649989005702,298.93212637236775L309.0091584901711,298.4419174624727L309.1051968052998,298.0341696177102L310.73122673705075,298.17526732805436L311.0498703973717,296.817521548126L310.9506953362361,296.0745792280304L311.48864624353155,295.8189805760594L312.34323138671243,295.88084939712917L312.9019357052639,294.9185174090935L313.44106809925506,294.5627257797223L313.69764882154413,293.92226730842594L314.6769166345257,294.3250663006238L315.20252090407666,293.8478203422919L315.41542154238414,293.03883383074754L316.46889718349485,292.7243312273822L317.23773047536815,291.8530021961151L318.17194359036876,291.69006607571646L318.95914414258004,290.5637667422088L320.50127509139566,290.13014056775137L320.2739460083285,289.4827718223387L320.6135194810231,287.7917443153201L318.8428293445977,287.3608207713951L318.6776334269998,286.69059728843695L320.10004619946267,286.17139128203144L320.4387265135265,285.6076789190429L320.7371274647121,284.43432742392724L320.6585683763187,283.8636473601937L320.4525987594752,283.92475839890903L320.3374612675798,283.9205474018627L320.20276502521665,283.77407147120175L320.0433095206172,283.4069911064398L319.78385238637566,283.23450733214395L319.6397461702727,283.1700063223134L319.35109366568577,282.8766743492406L319.20199846202013,282.74302041994997L319.07733699369055,282.75670369110503L318.65989903601803,282.6841477215603L318.1788119151388,282.2142730100477L318.10142927878405,281.99359898331204L317.5587040975006,281.6447712036452L317.3854152012427,281.38974767209857L317.3853019651433,281.3637941642901L317.34193366449836,281.2857934406329L317.28810514078214,280.9097784017167L316.6969663085947,280.41331792908204L316.3125631381845,280.1156901098666L316.76197385858904,279.69908813057555L316.4917582694834,279.1111088588068L316.4530243817644,278.9857661550941L316.4854215692649,278.58311990040056L316.60948763047054,278.387832524435L316.6430763301796,278.38349230448694L316.8852547681272,277.594625686821L316.87074204796954,277.55556885018996L316.9074188627055,276.97892693568156L316.9457835633002,276.9618353212263L317.2237783066048,276.9433871897427L317.1942136434227,276.67501824250576L317.33788063971224,276.6179379155519L317.45759599629673,276.56562034773924L317.49097187208463,276.48754793109583L317.49037593293906,276.2794689941693L317.4708883946587,276.17534529835666L317.4368171771166,276.00671849334776L317.34041517169317,275.842136488649L317.5942874616194,275.7419957814127L317.75568252868834,275.17350987027567L317.8223353046087,275.00003452057354L317.7933096889683,274.91326967903115L317.6875684343504,274.8444001968046L317.64900474236856,274.7750082986986L317.6913938036305,274.50150947935253L317.66174398660587,274.2026219163099L317.63739513170003,274.0725729719097L317.15189945467137,273.6709355208195L316.96405609091744,273.4027945880389L316.7568949561719,273.06510645747494L316.7182606540264,272.9875706266521L316.6456680938645,272.7536520745116L316.6242938376672,272.0121034858712L316.69111691202124,271.8996653775739L316.7149551499642,271.86081926705083L316.7480755810684,271.6916700504071L316.74312895067123,271.6270963371335L316.67038036135637,271.34127077335415L316.77568180168964,271.2590406835725L316.6314480930232,271.15997727535614L316.28491404174565,270.72316930394936L316.0303613655851,270.61935940848343L315.9572722038174,270.2129669863707L315.7651638075549,270.1437748435992L315.3714933926967,270.0186633522944L315.1164015841896,269.7291914830548L314.62124103012684,269.3444620243363L314.9652244253921,268.35892763802076L314.92505359506686,268.24174299100287L314.72410826480336,268.02510069105574L314.7594694183572,267.8823840049463L315.0270565411993,267.38123179891136L315.0322841688903,266.70817357417945L315.21910292511166,266.4716864620341L315.26035442131615,266.3802990116774L315.3055360391336,266.2502207640355L315.48724475739436,266.22997069261964L315.67991620792964,266.2737306402141L316.78754359755476,266.3021600401271L317.5697800672824,265.6540563949475L317.6023252767591,265.6059812905869L318.29284002478016,264.9250356904413L318.7818640494952,264.23041212213775L318.77839470195977,264.0625738629069L318.7451208280254,263.6100788119402L318.848877168497,263.0644476110174L319.0916897876523,262.2878110277834L319.20409129841937,262.1607750941903L319.36254419127727,261.7174916886579L319.4258294340543,261.53488617989933L319.68304114011335,261.4489479852673L319.80064192365535,261.3386648005726L319.8111205735695,261.1529181150554L320.1537591546039,261.25097790158L320.3736353897875,261.2172432147818L320.4622120543754,261.0944628040306L320.34218101609076,260.86341937148063L320.43221028316475,260.8103273436327L320.4868879473215,260.6750920564591L321.0851588288024,260.61758162370006L321.226725440858,260.50762211427264L321.3348211800985,259.26199292913407L321.5341308866555,258.71920632841466L321.09486333941095,258.38124022040665L321.686760152279,256.6496441868967L321.25064247909904,256.00949299243894L321.40308239269507,255.72191664123966L322.07353171780414,255.62519296681876L321.8074968412948,254.85249577226205L322.78402429562993,252.82647195746904L322.96851541134674,251.75321680985508L322.75939619993005,250.73844097577967L322.8936619266424,249.8039576015226L323.2644022497152,249.59101163093783L322.88872457533216,248.80845336122366L323.5301607842521,247.8543204593425L323.4900178815442,247.03154428316157L323.7309814236978,246.78654602253118L323.38375946441374,245.77893011955712L323.67140321017723,244.9638275648449L323.24001977570515,244.33685035909093L323.3184782404205,243.41752860686483L323.0269640517872,243.0474211830733L323.06380969623933,242.46466437181698L322.6965531890528,242.16886805911145L323.0125437887218,241.31893494768792L321.9928073201045,241.3908803043023L321.1661308354014,241.21361532191804L320.850985142275,241.34830534960565L319.551749284994,240.88530592568077L318.6958655454582,240.69612140164372L318.2902719405138,240.38796891796574L318.1709778824188,239.67723656687122L318.46544413796437,239.02584390686752L319.350523967325,237.9842513852691L319.0886490541816,237.39162249431592L319.1917986065855,236.80328504341742L319.0445670395129,236.16601763955168L319.6961326108467,234.48377757449634L319.6479312975098,233.69415501745516L320.13430685812637,233.02399155227522L320.3319426215676,231.9252055042889L320.5679025177269,231.5855940044985L320.55384050234716,230.84759610831588L320.9020672352199,230.68822012358487L320.9532936374708,230.58405302948177L321.0594867824111,230.0124683771519L321.48418952087377,229.83061782988898L321.5988893038739,229.7900794556599L322.1433220499639,229.58544366029128L322.1806712440157,229.51598009199733L322.2704257522746,229.1174754171434L322.30475596831093,228.8577989345713L322.3334776035663,228.54624371966383L322.31326622335837,228.18371223273607L322.15931447775074,227.56734021666125L322.55633490308537,226.84549665630493L322.66797493699414,225.9976663443167L322.39346905001366,225.0632743332235L322.76822412651745,224.12999887371734L323.09395963317,223.73732353774085L323.10259857781784,222.4665458494792L323.2777191821988,221.3455687099722L320.9572344623193,221.3980632648736L320.681286860643,220.92812907148527L321.1480604209937,219.38318363004146L321.3215223198931,218.44992559173352L321.17622661106725,217.40110785117758L321.48475648118983,216.190080340647L322.3258318162989,214.2866971439662L322.36332945930917,213.8982675994548L322.3611924602119,213.4328235976718L322.42018772051233,212.22983141752957L322.4420795930928,212.09180690878202L322.25131943402084,211.80943540151566L322.17365808487375,211.7413545323143L321.9253361165247,211.10639962130517L321.8599922717294,210.52089707348205L321.86173474596217,210.29653031072576L322.1202286513835,209.5305033191953L322.4615551866809,208.85844016220472L323.23418882026454,207.83715304769976L324.3582246826627,206.9240701836834L325.3341758170427,205.68509157925018L325.32719067233484,205.15052288461266L324.5702805894798,204.10687216660153L324.26563879652167,203.91183142256705L323.9571097805092,203.7855069273819L323.25634485655246,204.09050728487455L322.5893305232894,204.04171102208602L322.4254921727588,203.62535873259003L322.664076963938,202.81215928378333L323.14837300111685,202.42793527899994L323.24897006085666,202.41850751665152L323.8696335899076,202.60551184723772L325.39605165112516,202.73576145854258L326.24268557416144,202.57620818453597L326.87934008540833,202.06115743006103L327.4099070030388,201.07793098076945L328.28252142173733,200.228946960965L328.4151124063792,200.0850028989271L328.51328169323097,199.8604513890441L329.0705101342828,199.1049305194765L329.4565143330874,198.46769673759627L329.4206726193115,197.8478849617104L329.10902927381176,197.00731801478742L328.279310163005,196.17067659121312L328.06564200781577,195.94388994064957L327.23086466583845,195.09763933095473L327.12031155802106,194.66761903526185L327.1175310052022,194.426020482073L327.21931916945323,194.10172689606406L327.3816032789691,193.6172448481475L327.9138323283769,192.61771645323006L327.98210031215785,192.20364292069644L327.9444896468776,191.20588516068437L327.5862376466066,190.29703962609528L326.4413694715404,189.42519291930876L326.132826376539,189.29884026834497L325.64568645485997,189.1000969335264L324.89307444155565,188.7828341912018L324.1553980088902,188.51277218604992L323.58409813705293,188.07767307204722L323.4868941123932,187.96651988011763L323.0095652752134,187.3241716758048L322.6945567046823,186.5854462535017L321.2959017896246,185.85309321826207L320.57825177710765,185.169395287322L319.92792743577957,184.15255594320115L319.8390763797106,183.9462116206987L319.72547453113293,183.25072463306424L319.7942413824385,183.1158977691275L320.10456756110216,182.2553130791266L320.51129059789673,181.9922207816726L320.534142382563,181.94473762617508L321.99424706884747,182.31235988271055L322.41097582844304,182.8473162604505L323.7283676100851,183.07369016571738L324.0873968925371,183.41427807829314L326.02965144747213,183.86028826816346L327.869162141611,184.74363486765378L327.8891944287425,185.29947895453734L327.42749010990883,186.68608240025424L327.36621404271136,187.27661703553713L327.6191042096398,188.06774362639408L328.47023116684795,189.89306914947701L329.0151222839959,190.74408687325104L329.2220356599173,191.36210638945613L329.7286072152965,191.68436099718747L330.1123815041901,192.23188609721274L330.6545642080964,192.23954202582536L330.78736317282164,192.61700682230185L330.59580363638815,193.19986466611135L331.30665042686087,193.28816809325326L331.80891484626045,193.12877545808078L333.2933523275424,194.20534204694104L333.2043210622069,194.82660713070436L333.52495224425365,195.61219533784424L334.0030398790659,195.47031677681207L334.32963312185893,196.3677782742934L334.1832730432725,197.00624801680533L334.561280768954,197.3559799597997L334.98497933724866,198.36059315359216L334.9281817717383,198.86054413812417L335.1945248458687,199.53820503380575L335.0119652030553,199.96938555277939L335.42818039678605,200.8779061291507L335.9406585850702,201.35589574446658L336.15226266294485,201.9240935303651L336.763752451614,202.7142139078578L337.7487527890444,203.7219176425342L337.8891828968299,203.84503241375296L338.13071212538125,204.39265853850884L338.6079341966979,204.63644729741463L338.6571077102308,204.73477953343536L338.6727348139466,204.83793105119275L338.89251349834376,205.54392742889195L338.92669507649407,205.59507301247504L339.14549222245114,205.84531918936864L339.33523680058715,206.069795514386L339.5238948322185,206.21291707566525L340.4964694880691,206.5854366009189L340.8721062849836,206.74299716953738L340.99774187764706,206.8270551285932L341.43937096428635,206.89868062403912L341.49722222139826,206.93691951641904L341.7776317268981,207.1897994794408L342.4701366462905,207.38786312800949L343.00076119322694,207.15111673527463L344.6286490139537,207.90829237336948L345.26891415204227,207.57570501484042L346.69049536449165,207.7606248656548L347.5230243881633,207.5223799451387L347.796045004794,207.4777528806244L347.872972753612,207.4985904941268L348.0269555159575,207.56264039816415L348.6590249072251,207.43365147221812L349.7439419940056,207.54828262068713L349.8593902062312,207.5907334238209L350.12815738246354,207.61941590818333L350.58891904130724,207.65950799240454L351.08822836625404,207.67389955428007L352.0668803885892,207.59807997034295L352.11940441196566,207.56362942125088L352.3672015253651,207.33763823888785L352.53491915811173,207.29731031564552L352.68877449144566,207.3308697872817L352.7177847103121,207.3525394939188L352.78092059687333,207.44674317561385L352.78135843468044,207.4986219905777L352.77863046497805,207.7575652718806L353.22109144214846,207.85835672213398L353.41338215805445,207.8870686493483L354.5663503310461,208.0004023862075L355.04593318996194,207.94123116757692L355.7176797963366,207.9026702125866L356.063402290285,207.92223528389786L356.6193908132518,207.8458027311617L357.3676137200746,207.799124751019L357.5791507247304,207.84554729599404L357.76156453274234,207.85757700291106L358.3952716070198,207.8889868595552L358.5297255100668,207.89676222678827L358.70226195451323,207.87020000109442L359.07186564947915,207.8855799871717L359.7299057481796,207.95961122957033L360.0369951739085,207.962691813108L360.55443692189147,207.9547365552644L360.6783783716819,207.8720270866079L361.1569890707178,207.81244726540262L361.77016719932,207.79982667635704L362.3461243690035,207.92480816760326L362.8262745465363,208.0463392351512L364.07324694795534,208.19297977278165L365.09200527230496,208.51560630924632L365.6922665806742,208.64863269537364L366.21169963459397,208.86815800666773L366.5778982520351,209.10136710656298L366.5924387179293,209.11857057081943L367.03522634064575,209.3431695008221L367.88069911261846,209.57693423244473L368.0155772165599,209.6579908940057L369.15576110390975,210.19059642975662L369.34796792232737,210.24943244623773L369.57090411593526,210.34266127415412L369.75837665105064,210.38728071119476L370.17633727248904,210.52762275366604L370.24833399321506,210.55821061992629L370.49256100861385,210.74593971355534L370.78053434031244,210.8942165017761L371.3563960384672,211.16994528212217L371.97597553941887,211.38996207050332L372.2782496552136,211.5473265736864L373.12244509098673,212.01067132817843L373.8841726483406,212.3061650756572L374.21976862036536,212.50048670017804L374.45648462768804,212.61859797256784L374.7739447065869,212.66703359495023L375.3263457808316,212.84478194916574L375.34515511222344,212.8533200851707L376.16980884856457,213.32042715389252L378.11313671151584,213.85566820785698L378.58758022181064,213.95000594496196L379.512990974672,214.64553598270413L379.8152745001462,214.57658931326296L380.1716058565362,214.57754148941785L380.63421715604636,214.8047607974313L381.105015189456,215.07416498031216L381.58657292665157,215.12730387406373L382.0425952434707,215.5850191506015L382.62976584507123,215.62891334213964L382.8022759900887,215.69201890721524L383.26471828042486,215.9218166599003L384.13326859255176,216.1197786731782L384.23446745250476,216.59330867693188L384.1940903143477,216.7217383358593L384.09427854743626,217.2325534350066L384.3211991306853,217.18647584304745L384.9983097471486,216.9511217875597L385.09280792150093,217.02535963445553L385.1947426137813,217.65253944879896L385.9672685322439,218.2336483682102L386.47736429219003,218.63669413166008L386.87516514452363,218.86895868822012L387.6834430079907,219.1324676904942L388.3343607071438,219.52712764614262L388.56556621491836,219.56702624827903L388.80600160013273,219.675049124804L389.9981948947752,220.48690053724113L390.58074118762306,221.06155948047763L391.197206151046,221.91685951289128L392.50703479647564,222.9275731325106L392.6774530962721,223.34888501974638L393.3839774641747,223.5678295207399L394.2565472361566,223.27818397819192L394.8367910195484,223.5650013966897L394.8644867540788,224.06289401063532L395.2902911115889,224.6863064682184L395.8790340937958,225.13538247693305L396.12006786007623,225.56192052800088L396.74962296653393,225.79661876651062L396.9485539933885,226.0285484924034L397.65708191380327,226.3849535505351L397.99739685720124,226.53166549402067L398.3795983316413,226.6385165476322L399.1522663100841,227.2718424803179L399.36486015391347,227.32260466609478L399.96994298777645,228.27123610459512L399.80784994867645,228.45675989094707L399.79589302432214,228.69032756527758L399.8233052415744,229.10479419135027L399.7339414421367,229.31433996136366L399.7207828919636,229.35358041871405L399.8165287663287,229.80483450904012L399.8637727124842,229.93329090089992L400.1122847213628,230.2077147996024L400.366260666382,230.35238516005484L400.2688976863137,231.4095061181024L399.6392896262332,232.0181982392778L398.7243059704342,232.05914452782963L397.8364718495286,231.39896523103016L397.3366525932979,231.26020261638587L396.89854762828327,231.9615323086473L396.37021609213116,233.3918301849726L395.0515851472155,233.91071096978794L393.37194526647,233.7540034407475L392.4389127076247,233.76724935301263L391.89562539277904,234.85788339978262L392.3115558327918,236.29070172240608L392.14976984833993,237.01702221005417L391.6440832649714,237.259418355673L390.9910097851789,236.86063004541575L390.5916378164875,236.2813746873162L390.4945751476407,235.5147615372225L389.98889189798865,235.2372703156525L388.69829309692796,234.81104558602965L387.74200966851276,234.65007084518584L387.22313868033234,233.68185303316386L386.90239134659714,233.4201534602944L385.09401338124735,233.72194588729963L383.9467427659074,233.2060791269787L382.6783501273385,232.16849535405436L382.06987567914257,231.40234160973523L381.6186062667366,231.17808094297015L380.3887201332036,230.1668304749346L378.6101558862356,229.14361275328883L377.56007671608313,228.8069954694056Z"></path>
  <text x="345" y="250" font-size= "4" font-weight="500">
    धनुषा
  </text>
    </g>
</svg>