<svg  viewBox="115 148 150 150"  version="1.1" xmlns="http://www.w3.org/2000/svg" xmlns:xlink="http://www.w3.org/1999/xlink">
  <g>
  <path id="path-0205" d="M217.79614586607568,189.25754423717444L217.50133434197778,189.5540837895087L217.19378836450778,190.665340504087L216.19892538170097,191.7105409722235L215.64781399793355,191.88799728343201L214.92907600611215,191.7229603886617L214.37916213868448,191.89689421662297L213.76693215408523,192.806206100101L213.64598989086153,194.2067806576033L213.7481395683826,195.0440538315197L214.3100319205878,196.4109004791626L214.12908143763707,197.0011128031847L213.6764993647812,197.34034710559354L212.22398000569228,197.91409466409914L211.9296637709267,198.32056316042417L211.9822046931804,199.8388978863677L211.5087471618208,200.4195478898191L210.876168893883,200.4548812414523L210.03089442489727,200.9488987411014L209.3704507608236,201.84816535000937L209.165706150372,202.5709353036318L209.2394264203831,203.54573992627502L208.43774768496587,204.2218256787919L207.08752211473984,204.38535986828447L206.70115093155255,205.00358608718216L206.6651020104182,205.98593053670447L206.5211725669942,206.30241889455647L205.75196551333647,206.77697709124368L205.7472566013712,207.32932720670215L205.3147987895827,207.91301995784215L204.63976063887458,208.20595856724958L203.9524429890771,208.81717284380375L203.38075654671775,210.17626008027764L203.96755989703524,210.90177904585016L203.94055194037355,211.66805562387162L204.1722169749446,212.1535597675529L204.3650736819618,212.30958762441878L204.73966772961285,212.47300975355392L204.87489780074247,212.54758514188416L204.96309777554416,212.61255200617597L205.58037333262473,213.19495995435773L205.65861294582282,213.29695508733494L205.88120031570725,213.57129489061936L206.04539789750197,214.35625157014783L206.77359356998568,215.41995274148485L206.84718866000185,215.77012646432468L206.85109399786597,215.90190871423238L206.81255911909466,216.57192368763117L206.85075821590362,216.73050427539874L206.91851627600408,216.8751213567657L206.83976325495678,217.1708825316382L206.04025468917098,217.87351353062786L205.91491134148237,218.31125880899071L205.63031957017301,218.8669386209367L206.44071786319182,220.94164122008897L206.1187921405217,221.62665231747178L206.7358027854243,222.34895837945805L206.05280022925945,223.15552831889L206.30732150788026,225.2394686712023L205.99695757205336,226.3600107943994L205.22719923001932,227.46125714002937L204.56315841115793,228.1490353024128L204.16612639626328,229.01238277981065L203.64132386653728,229.41007699745205L203.44046603264724,230.04596898950604L203.615796459384,230.9520982386648L204.18491375228768,231.47294850769777L204.13333980216703,231.81629067753784L204.4492171730526,233.7741823984552L204.63455451808477,234.14733492343294L204.61983152241373,234.87406121142612L205.16200978222332,235.37483389420686L205.53273186591468,236.3805611924272L204.92660836765572,237.60349898043387L204.94754446319348,238.29039272288446L204.57254265766824,238.88438430800034L203.9676255086888,239.1246116901002L203.5500856775725,238.8738190581862L201.98908393068632,238.99841214696517L201.33380515301906,239.61564232484943L200.41374447589624,240.09858637709294L199.91877269963152,240.6924671356046L198.49420405795536,241.16802200408893L197.92460321926774,241.13251052428222L195.86508529911953,242.16108778906437L194.8616623221642,242.83719083180313L194.6975733372674,243.26899084545857L193.52427790039656,244.02746580864368L193.7966391432965,244.84494027626351L195.6578489301428,245.86424075866762L195.95889282615826,246.52585290517163L195.9477980424781,247.6264955122424L195.57044869079618,248.49628178369312L195.1013129453495,248.90686732368795L193.21283914687956,249.25617036857966L192.92706288430054,249.0510126306881L192.0251785216169,249.59744520701497L191.28982073571387,251.1552020555655L191.33372757810866,252.11546666994946L190.84085368067463,252.64087073609244L190.44000264601345,252.7525672749416L190.03919688597307,253.73665075282952L189.67231630087554,253.9132868569959L189.29534219149718,254.52219961430274L189.6628885796381,255.2489622000603L189.4985471810287,255.74389883779168L188.98263956837764,256.3830646905244L189.8452345808546,257.5575243663261L191.1564236326667,257.62069665598574L191.86904535262875,258.4204251336996L193.10273752282956,259.6147456568051L193.28216104858802,260.17750541435L193.01055115522468,261.0330734037261L192.4229154926943,261.6898104524862L191.0260341346293,262.27230675838473L191.35872782963634,262.4890879068698L192.94020429321608,262.5116349148475L194.32614031234334,262.75112637823804L194.48525302952476,263.61484561182806L194.3079331881927,264.7159559076208L195.3436145571104,265.16429262059046L195.5567558834773,265.84082738881807L194.4180291809971,266.2888179611409L193.38633065238173,266.334978472315L192.7241746908221,266.15730183623054L191.4891673883576,266.1573494712575L191.40337340054248,267.3666965409402L191.20149182072782,268.2559945526318L190.22320928196496,269.2102589869028L189.89716510961807,269.684345229296L188.9824036532118,269.5409954200568L188.92677324687975,269.2312028109527L188.36126307297673,268.7218496202331L187.44254341043052,268.6227701724556L186.00876989123208,268.15268495190776L185.2474542670716,267.99866670719894L181.87320147511855,267.7800452965448L179.34768783359686,267.70070275247326L175.04865543476626,267.296447941716L173.651679124745,266.6207348650032L172.224358261421,266.13403756046046L170.523567897646,265.7920190846735L169.20764303161195,265.6330216840606L168.54449178658615,265.7116956834061L166.5292875489722,266.1866536944499L165.77003805741697,266.4980652784079L164.10907438980576,266.6938978580365L162.78321798059915,265.8783419006322L162.39596757142135,265.49658355979227L161.56659325561486,264.21933784492103L160.89251843097736,264.0696860323833L159.5708354747694,261.23020814207666L160.00326088968723,261.1377156317985L160.27187238254191,260.4105062917133L159.66631979392696,259.1291006189167L158.43392153452442,259.251011144318L158.50129707960878,258.56434144819013L158.29440341711597,258.196346087042L157.48252859276909,258.40269048119353L157.09943884614404,258.24332622186284L156.81469735089922,257.631042331539L157.49371659069948,257.00948635056557L156.21272581827725,255.0200060771358L156.26897432711849,253.78689009724712L158.04237073408876,252.17694252928322L158.49573317941758,251.382099077151L158.97109793100753,251.04982490369002L159.46416204303023,250.16124108960048L159.55611776098885,249.19042113208252L159.81495096354774,248.44788223684645L159.355929124049,246.57663119174867L159.4282830927259,245.42150229939944L159.8385571590261,243.00514384264352L159.78222590142468,242.15668245809866L159.16906119824125,241.39916566510328L156.12506919642328,241.59751383854382L155.9690478054399,241.02445412854559L154.84780689417312,240.78979124194302L154.41025928611998,240.47891976810024L153.7545136862609,239.55584797776828L155.29641381103647,239.61539568948774L155.0768026145197,238.7839010605112L154.7006715690768,238.5518753985407L154.36126649316793,237.3556811277931L153.4109414051709,236.35437307002667L155.4475888908055,236.5935021693267L155.93274255803044,236.1046474251989L155.8397390333339,235.36118417426314L155.37745468435605,235.25408042769777L154.8565938412794,234.76243757867633L155.00986257130353,234.34302279319036L155.9968450291708,234.475353222173L156.0452386613979,232.159193487003L154.97921074806436,231.0592161132745L155.485542958515,229.97330392676213L156.52334631127815,229.4356192124842L156.74304504476095,228.97659684230166L156.78292897850042,228.11622810501194L156.63068005995228,227.36821479935406L155.99636039504185,227.69357333032076L154.79599203407997,227.3407402232533L154.7271169532687,226.99018600326326L153.97449022512228,226.61109649140872L153.33164291585854,226.02791387902835L153.2668074859139,225.47443767892855L154.19758331872072,224.65144942725055L155.5472122805768,224.96075665468288L155.84939266010042,224.6661896493706L155.90393006433806,223.8400308436121L154.6577757011546,222.97256695969008L154.35141761317573,222.1734099707419L154.80768622597316,221.58051630784757L154.72371302593092,220.79389579311737L154.96557980211583,219.1854237295538L155.18201422082348,218.95221934305846L155.34379851733684,218.10457186950316L155.20685008321016,217.33532497875876L154.54990291332433,216.9295337510066L153.47941695773625,216.96950936598932L153.25237813945205,216.72804121403897L153.70152814547328,215.23622982885354L154.36508787969433,214.44411664568452L155.2007335323833,212.92757151978822L156.12133220711257,212.58780867403675L155.89113158759938,212.05025663900415L156.39565461071834,211.39624050003567L157.2277701324092,210.91945532720456L158.50292210135376,210.4504971264514L158.4507574963245,209.41590902820917L157.59574850602075,209.2535793346633L157.2704698048874,208.519870029897L157.56826235816698,207.9185813391623L158.666495690195,207.4511898952087L159.7357981842033,207.41496215125426L160.244952176261,207.25599253017936L160.71664954089283,206.71978207259235L160.87608533239836,205.38332988559614L159.65210980434495,204.6358689947283L158.40491094066965,204.38778063552127L157.67850332830494,204.67466125838928L156.79034378045617,204.58428891945096L156.39544236678194,204.1730267572275L156.32314006937668,203.64441931416968L156.70167084299828,203.39274060209118L158.99631721942933,203.47614447451815L159.25899876110998,203.56127115521758L161.49384591518174,203.41646278381177L161.68412529966372,202.91094444533974L161.27662943370888,202.56817321018207L160.76027529063504,202.6985687502538L160.23547317293196,202.39603995265134L161.00958541619184,201.31508328340715L160.6526651215827,200.7275707098279L159.82035795470802,200.76985336644248L159.2532060841295,201.31085586128938L158.4755673552936,201.46350337697277L157.7135981834581,201.0175860045565L157.6703536041132,200.77914430268356L158.06320797920125,200.26566202329832L158.57587662944934,199.719066727077L158.7414312129331,199.30642902646923L159.01374832293368,199.31686530261504L159.16251473096054,199.21944579355477L159.6910297008253,198.4659972876252L159.74206727671117,198.0721995126114L159.59983036725316,197.76783301024898L159.65340748243398,197.5505668153237L160.11044357701758,197.30266293740988L160.49886234629594,197.6325281648824L160.82344098910107,197.8728393706224L160.95069400820284,197.82050769158923L161.5529288333637,197.31798399865784L161.56359384145253,197.29010003468738L161.51659960007237,196.95449485190056L161.52832947618663,196.62649725652682L161.34328877061853,196.28817491610425L161.13055975949464,195.80058523848766L160.79111811541952,195.61863439334957L160.61214060926795,195.52505249639307L160.37040686470937,195.2920526146745L160.32148725851584,195.20313240129508L160.29855945369127,194.96945275228973L160.29441696476715,194.95670151171362L160.17136824137197,194.58330858242607L160.382221959484,194.28396658378006L160.83539856228163,194.08537720896584L161.18727905347987,194.16824809389982L161.20615814114717,194.14295653133013L161.28028554223056,193.62577366303776L161.51750016568622,193.32309195498146L161.54091835859072,193.41791621344328L161.8475466899872,193.6270468752482L161.90563588849545,193.58889066836582L161.99226494235336,193.29968122692662L161.9029218536416,193.13767764946078L161.76686210744083,192.42742501732755L161.50891838271127,191.82194637004977L161.57165370911025,191.61544467383646L161.712685011571,191.5128824945932L161.79272512345779,191.46830097360726L161.65146948389156,190.9121490175712L161.3797665168786,190.60816500208512L161.11336603609743,190.55400786597602L161.18260826395272,190.22956001344028L160.99308180995286,190.33325014571165L160.91075691219885,190.25980110833189L160.92181411922502,190.11543642767538L160.77865303849103,189.3873320943103L160.7067957275358,189.27734793576656L160.70784676859694,188.99098600245907L160.82005987701632,187.8865943608116L161.7157871104173,186.64241911781573L162.4841726066079,185.95211750846738L164.28830666612703,184.85519489201943L166.7892705210179,183.25015340213486L168.4961689696429,181.86525004741816L168.39734679119283,181.14259780747216L168.5279373776575,179.58927541800767L170.89114851823615,177.16953335314156L171.49921841717878,176.780207333225L171.9114030335586,176.26299094769638L172.06574934981109,175.48611700239144L172.1159535744373,174.28154763290422L172.73603011024898,172.60595996809843L172.70353374358456,171.56648257927554L172.93144000406392,170.79128417221455L173.00153428423437,169.3895413049695L173.79894868472184,168.25270403174545L173.91338630550308,167.78576494087247L174.73621815132356,166.6725700148454L174.85330243672433,166.09985846242125L175.44684135593343,165.4637914078703L175.5743179842102,164.6144679738345L176.1523329593001,164.0993342544698L176.07908851901811,163.66987713163235L175.54081241811582,163.13296421838095L175.59913509927355,162.08617280654562L176.83778128837366,161.60956426979646L177.4623323812084,161.0628263002718L177.08593106360786,160.70082207603718L178.09268486878136,160.3472919691385L179.38467224400665,160.5426692431647L179.63137795278817,159.9915271752634L181.2668438665387,160.03196709044914L182.42614048154428,159.607745805205L183.5731959572331,160.00900609495602L184.90876295216003,160.2828489571766L185.46444911129583,159.90094908401898L185.6654593583953,159.85247682577756L186.44544562415103,160.14358861101482L186.77435895205053,160.14210392020323L187.44524292494316,160.67280107063107L188.72394675329633,160.99612834127038L189.13256812546388,161.25430401834547L189.22844638442257,161.30251791447336L189.77636655621973,161.48369039262525L190.01098147919765,161.52660428996387L190.84921265678713,161.8158270997319L190.92406922354348,161.83689021176724L191.396678872341,161.84188454292598L192.31450596879222,162.41980688381227L192.7515722552671,162.61421149227044L193.94452921177435,162.2451654128472L195.01446226246844,162.04386083444115L195.50180989017827,162.78303418548785L196.67701711853442,163.95512093371963L197.18017366379354,164.03018353917832L197.42040628087852,164.58031747999757L197.88651313872833,164.20285729754778L198.10233110246918,164.15001694077728L198.7297555428886,164.2634441858636L199.31137585794932,164.37695670291214L199.4183413607425,164.37546146544446L200.45562726068238,164.75691315948006L200.5321454754412,164.73376232596183L201.44205101836997,164.43698753033368L201.80362899936154,164.72285049184393L202.24816435919274,165.00442881194795L203.19899807218826,165.35561690996656L204.0288593807054,164.89690885665277L204.1349502394587,164.83998420094758L204.48464853239057,165.003153025561L204.65442420269028,165.01755011739442L204.7186283150586,164.98920032899878L204.97586451012103,164.72980224686944L205.71377161721102,165.28597274584172L205.90964616999554,165.57937643042078L205.92876630877072,165.63094493808148L205.6709140369676,166.78399114087824L205.7043523618704,167.01066795251882L205.9318059484831,167.55515208633824L206.1249432971017,167.6547218876549L206.39369839748178,167.79322070395847L207.69882669107028,167.76304749602514L208.02941587066016,167.72160396800155L208.30212823398324,167.76960367506126L208.8720675052973,167.82874367248678L209.24500123715188,168.10461675723855L209.51076870751058,168.20749650323978L209.59830662661625,168.27957872069237L210.1371775516418,168.96202557649394L210.82924710065345,169.25537902858468L211.36939613429786,169.0365410378654L211.70946404065398,168.82890768398374L212.54814956036716,168.58515405464914L213.49445055994875,169.13344498881725L214.0529770969988,169.16966098982084L214.2580366288421,169.40216824293202L214.2986990646641,169.44581791546898L214.86543386165795,169.8956692361062L215.41601288191669,169.87282075074654L216.44035687293217,169.85233173680717L217.38918609519897,170.00962954452189L217.8284726259226,170.60977924652434L217.70033349152436,171.43650272229934L218.16009714284883,171.60706693992051L218.5793893361406,172.1225933854139L218.3813027853903,172.5315119383722L218.3345092156269,173.77412395572628L218.47609956988526,174.14892554272774L219.1285756789548,174.30777800685337L219.44326611054203,174.66352734552765L220.79039299369106,174.5564933262449L221.76042773899462,174.77212273522582L222.03720760478245,175.3060246385612L222.9072391091795,175.63151414949152L223.24430648640555,175.44686135077518L224.62689698133545,175.38766175190995L225.97886601520077,175.053555740511L226.62110332557495,174.71450153520254L227.7495491204172,173.8119867289406L228.0040824389398,172.96528178387143L228.57961239279393,172.8854676401579L229.30221363170494,172.49117995181405L229.797488448894,172.97111422988382L229.5758937193932,173.71506143506758L229.01477008537768,174.14779769838242L229.26658159041835,174.57031980549982L229.93303608451242,174.81955835400186L229.69453242109012,175.47264045025895L228.10336043837015,175.319255911264L227.31509244344488,175.87391523172664L226.64911336850855,177.54378354731762L227.0043516656151,178.54955299932863L227.00778695290137,179.12586974454098L226.65499196700694,179.81182528866066L226.494166955923,180.69717718614538L225.61975175339467,181.6777174569297L223.61531007134909,182.73082450138827L222.89619436711655,183.4012730205659L222.53176559460553,184.28451472125107L222.73808730738529,184.9265291518259L222.65728048716846,185.37937797898394L222.0318196434855,186.2324293498732L220.59160322813113,187.65480797643977L219.7095377928199,187.94776405237008L219.04765409669926,188.69470539998292Z" fill="red"></path>
  <text x="178" y="217" font-size= "3.8" font-weight="500">
    रौटहट
  </text>
    </g>
</svg>