<svg  viewBox="63 113 150 150"  version="1.1" xmlns="http://www.w3.org/2000/svg" xmlns:xlink="http://www.w3.org/1999/xlink">
  <g>
  <path id="path-0201" d="M160.70784676859694,188.99098600245907L160.7067957275358,189.27734793576656L160.77865303849103,189.3873320943103L160.92181411922502,190.11543642767538L160.91075691219885,190.25980110833189L160.99308180995286,190.33325014571165L161.18260826395272,190.22956001344028L161.11336603609743,190.55400786597602L161.3797665168786,190.60816500208512L161.65146948389156,190.9121490175712L161.79272512345779,191.46830097360726L161.712685011571,191.5128824945932L161.57165370911025,191.61544467383646L161.50891838271127,191.82194637004977L161.76686210744083,192.42742501732755L161.9029218536416,193.13767764946078L161.99226494235336,193.29968122692662L161.90563588849545,193.58889066836582L161.8475466899872,193.6270468752482L161.54091835859072,193.41791621344328L161.51750016568622,193.32309195498146L161.28028554223056,193.62577366303776L161.20615814114717,194.14295653133013L161.18727905347987,194.16824809389982L160.83539856228163,194.08537720896584L160.382221959484,194.28396658378006L160.17136824137197,194.58330858242607L160.29441696476715,194.95670151171362L160.29855945369127,194.96945275228973L160.32148725851584,195.20313240129508L160.37040686470937,195.2920526146745L160.61214060926795,195.52505249639307L160.79111811541952,195.61863439334957L161.13055975949464,195.80058523848766L161.34328877061853,196.28817491610425L161.52832947618663,196.62649725652682L161.51659960007237,196.95449485190056L161.56359384145253,197.29010003468738L161.5529288333637,197.31798399865784L160.95069400820284,197.82050769158923L160.82344098910107,197.8728393706224L160.49886234629594,197.6325281648824L160.11044357701758,197.30266293740988L159.65340748243398,197.5505668153237L159.59983036725316,197.76783301024898L159.74206727671117,198.0721995126114L159.6910297008253,198.4659972876252L159.16251473096054,199.21944579355477L159.01374832293368,199.31686530261504L158.7414312129331,199.30642902646923L158.57587662944934,199.719066727077L158.06320797920125,200.26566202329832L157.6703536041132,200.77914430268356L157.7135981834581,201.0175860045565L158.4755673552936,201.46350337697277L159.2532060841295,201.31085586128938L159.82035795470802,200.76985336644248L160.6526651215827,200.7275707098279L161.00958541619184,201.31508328340715L160.23547317293196,202.39603995265134L160.76027529063504,202.6985687502538L161.27662943370888,202.56817321018207L161.68412529966372,202.91094444533974L161.49384591518174,203.41646278381177L159.25899876110998,203.56127115521758L158.99631721942933,203.47614447451815L156.70167084299828,203.39274060209118L156.32314006937668,203.64441931416968L156.39544236678194,204.1730267572275L156.79034378045617,204.58428891945096L157.67850332830494,204.67466125838928L158.40491094066965,204.38778063552127L159.65210980434495,204.6358689947283L160.87608533239836,205.38332988559614L160.71664954089283,206.71978207259235L160.244952176261,207.25599253017936L159.7357981842033,207.41496215125426L158.666495690195,207.4511898952087L157.56826235816698,207.9185813391623L157.2704698048874,208.519870029897L157.59574850602075,209.2535793346633L158.4507574963245,209.41590902820917L158.50292210135376,210.4504971264514L157.2277701324092,210.91945532720456L156.39565461071834,211.39624050003567L155.89113158759938,212.05025663900415L156.12133220711257,212.58780867403675L155.2007335323833,212.92757151978822L154.36508787969433,214.44411664568452L153.70152814547328,215.23622982885354L153.25237813945205,216.72804121403897L153.47941695773625,216.96950936598932L154.54990291332433,216.9295337510066L155.20685008321016,217.33532497875876L155.34379851733684,218.10457186950316L155.18201422082348,218.95221934305846L154.96557980211583,219.1854237295538L154.72371302593092,220.79389579311737L154.80768622597316,221.58051630784757L154.35141761317573,222.1734099707419L154.6577757011546,222.97256695969008L155.90393006433806,223.8400308436121L155.84939266010042,224.6661896493706L155.5472122805768,224.96075665468288L154.19758331872072,224.65144942725055L153.2668074859139,225.47443767892855L153.33164291585854,226.02791387902835L153.97449022512228,226.61109649140872L154.7271169532687,226.99018600326326L154.79599203407997,227.3407402232533L155.99636039504185,227.69357333032076L156.63068005995228,227.36821479935406L156.78292897850042,228.11622810501194L156.74304504476095,228.97659684230166L156.52334631127815,229.4356192124842L155.485542958515,229.97330392676213L154.97921074806436,231.0592161132745L156.0452386613979,232.159193487003L155.9968450291708,234.475353222173L155.00986257130353,234.34302279319036L154.8565938412794,234.76243757867633L155.37745468435605,235.25408042769777L155.8397390333339,235.36118417426314L155.93274255803044,236.1046474251989L155.4475888908055,236.5935021693267L153.4109414051709,236.35437307002667L154.36126649316793,237.3556811277931L154.7006715690768,238.5518753985407L155.0768026145197,238.7839010605112L155.29641381103647,239.61539568948774L153.7545136862609,239.55584797776828L154.41025928611998,240.47891976810024L154.84780689417312,240.78979124194302L155.9690478054399,241.02445412854559L156.12506919642328,241.59751383854382L154.2474829925377,241.76049229303044L152.35115116876113,241.56733611861728L151.02171240591633,241.27769789981085L147.92938825408783,241.16205454565352L147.08870429383387,241.53680118076227L146.83061058368912,241.9071004089592L145.7510748303066,241.7214131284809L144.57265775466294,241.38137314658252L144.2539397986984,241.11788395002168L141.42124970047735,240.8660581196109L141.3441158731548,241.11318109624062L140.14847350744094,241.07379045721427L139.99367799614265,241.2302746784162L138.79449896824372,241.17717466957401L138.02710347163884,242.08279726083128L136.4547976685535,241.96381894433034L135.71259490977536,242.20279426001252L135.6829316431904,242.65123218299777L136.52209257184586,243.65931926499252L135.90222770213586,243.9485793280428L136.07749272491492,244.40775052509252L135.42561910847508,244.80155772810758L133.1421565047276,244.5740282039833L132.44382974247492,244.92126918493796L131.34439162187118,245.02994716473313L131.2478069290628,245.60812541369432L130.53119273166885,245.97662824689905L130.28031417419697,244.96599582173894L130.93910199085803,244.38492041471727L130.49944113734819,244.07793773508092L130.09811527285274,244.40403932207573L130.15215949541744,245.02301941271344L129.57027098906474,244.88589200945898L129.15574412541173,245.2444708902758L129.53020552934322,245.84042319729906L129.30645954778447,246.1164889876154L126.16567687819042,245.70349401253043L122.78032775807515,245.01229883618726L121.32665223637377,244.82981564698548L121.35807936320634,244.519725882079L122.84560860155761,243.8300331362325L122.87787358918649,243.1318245292141L122.53002213628133,243.02449350120241L122.36048449531518,242.2037486624704L123.10432206894984,241.9894024160867L122.64598262777872,241.1456815319052L122.88511763779752,240.3253671412831L123.47268318736678,240.4161247860602L124.66782720060655,240.18832981229116L125.85269164980491,240.24943313959193L125.67701789734929,239.78166716082615L125.99621464190932,239.3058341007163L126.59399639639378,239.4740575364558L128.03040001160844,239.00653419699756L128.11009891430876,238.0736726117466L128.59161497216337,238.17747908561705L128.94671781171928,238.77632008149885L129.51505436650768,238.28458979502284L129.47220279145404,237.9653146123237L127.93871817946274,237.38921887323067L128.3546134826247,237.12422472110757L126.16677245448591,236.77936757512816L122.89353920036228,236.48219322124896L121.44060049365362,236.51284711313474L120.32154074749997,236.130860673411L117.56097335225058,235.8562361335762L114.72054431282595,233.92240703535663L114.77865348091655,233.45787811753053L115.59025924476373,233.19041213597484L115.86695114305985,233.56931188644285L116.44610492511129,233.63648326801285L116.75698914088207,232.43815142956464L116.2526403577358,231.91062146908826L112.4516901388306,231.3798033648909L109.97747335608801,231.1403848563723L109.65965406158648,229.98393781598134L110.01323068033525,229.61859682202612L109.46527442642036,229.0242112437836L110.01167667487971,228.67135086180315L109.63684991736591,228.12193737896632L110.36429458001658,227.54294631785433L110.99921041475318,227.44712554573016L111.44876712191399,226.568151969499L110.80552478225582,225.94663084994045L111.4630343863646,225.57271851842688L108.94744529751915,222.08601491886384L108.12083079986769,221.42973702544896L107.94018548186068,221.06071279585922L106.62993901898153,220.89510703633914L106.3665176705872,221.16598831814827L105.7838993571313,221.1696748007662L104.53425723636246,220.61083471545044L101.37022603891091,219.36782161430165L100.41874749945418,219.17128307186795L99.2342415424173,219.4234532046603L97.70393234457879,219.1072022364824L96.05755228583803,219.33055168544706L94.19294384991008,218.81699174134064L93.82184952815442,218.9331541248339L93.04347655483434,218.26991509394975L92.02947548520024,218.35861222311178L91.2752625514513,217.53839790720303L91.25784155694055,217.19084408375238L88.87945442291311,216.65400155409134L86.19839558474996,215.77211758652265L86.53749321840951,214.9231149490397L87.20419000070615,214.60368798084255L87.91684745093153,215.09746950906538L88.67458915311727,214.79034155985028L89.6397530647846,213.77182846723736L90.79293754529135,213.4662161005399L91.29152357647399,212.52417577692177L91.82269535688465,212.17500723680223L91.81724872952691,211.75070588035578L92.29850740743132,211.66524355590718L92.57823987347365,211.17612452406138L93.32932117491873,211.06745205533298L93.56819066906246,210.36239276856395L94.11103567829923,209.66385237305985L95.0961204999985,209.31204199658896L95.31786130216642,208.80577652656484L95.75056753871104,208.67325487971993L96.36125289089614,208.00876857180629L96.1397656226327,207.05249458013077L96.82843633342782,206.46127423186954L97.16242358268937,205.09554089744597L97.61862764780017,204.80701617742852L97.63824511865823,204.3498287590337L96.32869889432186,204.68673712999953L94.19054681211492,204.84388607089386L93.57149989850586,204.43448719784283L94.2977460935108,203.08802271320474L94.22152730734888,202.56662939091802L93.82895737626677,201.76545903658462L94.16683530324008,201.23501362259321L94.24152036340092,201.13119852964792L94.62074879818101,200.52776710802937L95.05805250823323,199.89470385443838L95.37607906631456,199.38398452402635L95.88506699577556,198.6562787098601L96.09880849787442,198.3269958552737L96.14141269396714,198.24079355908088L96.25530642996819,198.05026898862525L96.36445225809439,197.86835338352648L96.42607633064472,197.75123768549838L97.08054608402381,196.83423262752694L97.08746371492816,196.82460916014134L97.27349275499728,196.5511224984457L97.49732122195928,196.1741172035181L97.51646791126768,196.1437110338784L97.81734992290876,195.74024382506286L98.31132073756453,195.844698217933L98.398237335663,195.84831795641367L98.50497832733163,195.8948268565L98.92612136385287,195.9738643104174L99.21668499334919,196.03632005214968L99.30416616753428,196.09183265837964L99.53696450303323,196.18492060725202L99.79854657054602,196.24768677534576L99.87145930038241,196.2944639077632L99.95898299924374,196.3632068721081L100.07582689611809,196.4570715637874L100.8694210682479,196.6413684149984L101.81088363354866,196.1923387902907L101.9448891031825,195.60517084593357L101.94312444379102,195.42458140721283L101.95166017554948,195.3035636476252L101.78145982056958,195.18390129192267L101.60720293868144,195.1247548575593L101.31699169623607,195.07042895088216L101.22019803501098,195.04079952452958L100.67861975241976,194.94055874021979L100.43164789455113,194.8605886538544L100.14273984823012,194.44001145498078L100.05915019255917,193.80715355465782L99.67122756839672,193.62400577071094L99.66092716739513,193.56391276856812L99.74230536023242,193.49883053843678L100.00174226725721,193.37641398641972L100.01039113751176,193.27727774661616L99.4403676088441,193.22468923979068L99.29540283812457,193.19524373019794L100.19775134915835,191.90197976975196L102.02399042873367,191.47357799912515L102.695924550786,190.96121874060645L102.92346760920918,191.05481399739983L102.62650209811545,190.71607071881226L102.76117988395345,190.65084675981598L102.76539105516713,190.57304260547335L102.66358104126994,190.51335963372458L102.58713629351041,189.9670132429701L102.68670042363738,189.73368396694605L102.72977022988562,189.6820863078101L102.76730094680897,189.52667480464152L102.63578881247668,189.36402375602665L102.63964658563782,189.2261968957755L102.58579516725149,189.10578597435506L102.61436714261072,189.05408991219247L102.53026245208093,188.74474881797232L102.51514285581652,188.65003715930834L102.86805004411508,188.64425483137438L103.23175271323271,188.07441383243713L103.21075472675875,187.81635876895052L103.1991672660879,187.50242326031912L103.1797662110439,187.4936455931429L103.12636757647488,187.47242712813022L103.22262383665657,187.39880622365308L103.24014515531599,187.10589230123423L103.4798255202586,186.80790257725857L103.59534160592375,186.72575702051654L104.24121472932529,186.42539387541274L104.39370979021987,186.07186336642098L104.45625091760667,186.01988497845377L104.45099463035149,185.9684712404205L104.44596392942913,185.92520142542162L104.97117781727866,185.6774516142359L105.23555745070553,185.42235097167577L105.30752352829586,185.3317803695536L105.37027682603366,185.32255054734924L105.42767479529357,185.24053270410514L105.42671337919091,185.06858033298795L105.48415352682787,184.98198329172374L105.49783149719588,184.84422673002246L105.51605962904796,184.6724149584952L105.56342463080364,184.51707375375372L105.62069512272137,184.40046535989313L105.80898313344005,184.36969021767527L106.02014753631374,184.10609423213737L106.22327474816848,183.5178966802141L105.92596195907754,182.71062404209442L106.25396788197031,181.69598150888305L104.88390019607323,180.88144116689546L104.36977230579214,180.29042275596748L104.48095499799456,179.79824889732208L105.00082536116315,179.36175170353272L105.31910031246662,178.5886796100949L105.22321664321134,178.2609233013245L105.57012445947475,177.669130615619L105.30591368999012,177.19017888810595L105.16180456940856,176.9658991021306L105.10409437019916,176.93142217016884L104.90226230068947,176.74132523132266L104.88808482276727,176.55149307117972L104.92181143142443,176.39606754690612L105.20620689197312,175.88675775133015L105.23042292398532,175.7139596062625L105.21109147226525,175.661954317834L105.10036211675833,175.55843801024912L104.77284516279906,175.63609221653223L104.66686699845377,175.69235459157244L104.56084799498058,175.82185594239854L104.34416012145084,176.05948443308534L103.99249936683918,175.67914884789116L103.95882440273635,175.59296183771676L103.97302662549191,174.88445414182024L104.11751920807365,174.5430692170812L104.15347368217772,174.4781990447209L104.21381511488289,174.33566530826465L104.76815042905946,173.31542562458435L104.8503231741779,172.81391067395907L104.8214951560658,172.74046080254266L104.79733075630793,172.6711110009819L104.75418275585616,172.32541751858025L104.75913271401805,171.8411920067647L104.76882476111132,171.7720671142897L104.96665202114673,171.06327476761544L105.29922075404829,170.66571072925944L105.40052061060487,170.57482969758166L105.48250116572672,170.332736836207L105.70926534357568,169.50257418473757L105.76238978885158,169.19162474192308L105.81546124654778,169.05310672522137L106.4179657943896,168.65993449788402L106.51902706667897,168.6168743764374L106.98985747246843,168.4227231526893L107.1725760083973,168.17675401226097L107.37457636759063,167.60636607515244L107.37948911526473,167.38156265056477L107.4039213416545,166.73721993870186L107.3367119496179,166.54702228240512L107.22158438180486,166.32241799430176L107.13540418329285,165.7902462069951L107.1641720449843,165.669383137385L107.30613788045957,165.08537127429645L107.63269909680457,164.40798317707504L107.74916840984952,164.07967407095566L107.77800849861887,164.0498595253648L107.99028641212499,163.81224519870102L108.03365215953818,163.76471950114228L108.05850083998666,163.5227684379406L108.22770801508887,162.56912338115126L108.25656091742349,162.4741997008241L108.2808990053818,162.05978904839594L108.2958867873349,161.17884996882185L108.1371751145416,160.6436500180189L108.15171419420221,160.5918555518756L108.20482758196522,160.43657063367027L108.14156954689315,159.8526747165306L108.21996222385496,159.14157354146937L108.20081190467681,158.98628975605607L108.22010975682133,158.7615706557117L108.30230028396181,158.45083212053487L108.36032844093643,158.17451543402876L108.52000752963431,157.03057322618406L108.53925207527573,156.96151863797877L108.68404244096382,156.71987568060013L108.99740707600722,156.30136036970907L109.05544863936302,155.99045313801525L109.17611780402513,155.727281289649L109.30001635872759,155.6147015580591L109.69259111971041,154.50035845697676L109.85716919298284,153.8681872088273L109.93299366959036,153.67440850702133L109.99003846677078,153.54559833298754L110.0845716757176,153.26139077150765L110.15025038977183,152.99072399507895L110.2491354044214,152.61651049483135L110.31656464027401,151.80461083070895L110.08600445456977,150.8894232597404L109.56750380778612,150.04040607943352L109.34918270745766,149.6151641776487L109.30079925774771,149.56396247436987L108.72591863364869,148.9770312155415L108.38736016185067,148.56114685374814L108.03927762484454,148.15842254875497L107.94225610063222,148.00412628356025L107.55289511618321,147.03800647384833L107.27460236786283,146.2130650767649L107.11286134813781,145.67072167898732L106.8029579242575,144.41265925627522L107.05805612073527,143.6178194817203L107.03230914835876,143.31600153112686L107.02002775672736,142.8245341918382L107.05802515463802,142.75967808545192L107.1348107290869,142.72053531900474L107.25932987603665,142.64254612852073L107.64300473105686,142.47680137837506L107.77724536290407,142.39430328779963L107.96368449489455,142.20381988308145L107.97295419350121,142.1519973248487L107.8549476756416,141.6867810100448L107.94584972603116,141.59990166124317L108.60008460731115,141.6578146996244L108.81156421077685,141.66537761996005L109.00389611769424,141.65145384264542L109.03248258370877,141.6211320690445L109.03021717842421,140.34026749036002L109.04889746641129,140.2366223723766L109.34507460356326,139.89074045605867L109.19451167322404,139.6195980418779L109.12049378647498,139.25792723774612L108.4469110838254,138.31679322565014L108.3717202331427,137.77453303383663L108.36194153929318,137.73578614248254L108.31155029423826,137.3229266030421L108.26239719464138,136.1083695555235L108.40077658754672,135.84990345865663L108.86045735430162,135.40493926397903L108.9272805691071,135.3016315480063L108.84430379682817,135.0350250067786L108.77168557320329,134.91854548788797L108.89403887947628,134.32423435344117L109.03195178910755,133.98795011057882L109.07345052144228,133.5741732958213L109.04846622809782,133.367475820678L108.94693689610358,133.25130673414333L109.00275072522345,132.85950983734165L109.10751326779064,132.60487670690236L109.21274323366379,132.47591080000893L109.4363000137746,131.90670616482112L110.12473098686314,132.04273268372617L110.8596626284816,131.77826902336983L111.33950583932528,131.37213609286573L111.89500117856005,130.6079370166035L112.62105778026671,130.4034680026898L113.59404981906118,130.57718033442143L114.31945380447723,130.14435738295924L114.81032236363171,130.12141139928008L115.11224754232171,129.75883294008145L115.79150626145929,129.88626478499827L116.18597373484954,129.7354832521678L116.5054197262325,130.48447971255155L116.65152798289637,131.34213971101508L116.56794777011237,131.91022905823775L117.36553812780039,132.55433326672755L118.31638435393324,132.13899222868986L119.3378652579886,131.99328723347753L119.96919673221419,132.33918271241419L120.57300610820676,132.39089697047984L121.20728227956351,132.73887769758676L121.34410934202242,132.35430759459086L121.20927429918083,131.58980939183948L121.8987525757293,131.24997988318773L122.96685476765924,131.10421777462307L123.38801883829365,130.82654275653204L124.3912429164775,131.53440020042308L125.37569169825292,131.1052787386052L125.93281026164914,131.2030392987208L126.40388701228949,130.64855459452883L126.83647866497631,130.43204335960309L126.91126431814337,130.4310840687849L127.49607945343814,130.38409931585738L127.51384488477561,130.32878234444524L128.16948568966473,130.23503230896677L128.29759569400994,130.06203529417962L128.370448316251,129.9196563637379L128.61269663215717,129.81720534559827L129.15842636087473,129.6763688176925L129.91387467732784,130.2599296378994L130.22139821297606,130.85638974468839L130.2958016001612,130.76183168695297L130.43917227020938,130.69070393323818L130.64114206644808,130.71969761775017L130.70435964718854,130.6779625271447L131.29494800595785,130.46119516502858L131.4175315514767,130.8227947437499L131.56780762493872,130.8361354392191L131.74463439229294,130.47074095648895L132.01128725316448,130.46820056593697L132.07937908465465,130.39497461706833L132.11668414940868,130.23198281844816L132.00196499361846,130.00117905187926L132.32707338255568,129.96246912970855L132.80051520776033,130.02155440148817L132.84371302917498,130.03257196834056L133.4285047953781,130.22731240522262L133.61576345715366,130.15702934426372L134.02431188368064,130.29803394110422L134.57632887817817,130.33129129852023L135.9895722468682,130.74817303473992L136.21616753622584,131.36033050256628L136.95419725821557,131.72572458940977L136.7943128064726,132.44575996218282L137.14191191812643,132.62294822087551L137.35042232496562,133.52184821849733L137.33445470460356,134.713017229883L137.0821790306254,135.02640734161105L137.27351421170533,135.90331339171826L137.7569550907574,137.16350061487083L138.65247014321358,138.027122901025L138.7581609002882,138.39876882038698L139.63513385398255,139.2287026100712L139.79017147539707,139.92017293270965L140.20690810218366,140.17832030338104L141.14194366769152,140.3413812515264L141.63169800544347,140.25625679375935L142.69331182418318,140.4458046225409L142.91719560457204,140.73651665864782L143.19490449018122,141.23926578373266L143.20338096914566,142.3939840709436L143.5519491440391,143.1236629797795L143.70434298463078,144.0664115040163L144.5600398807037,144.11906575246576L145.02112299579676,145.4712459471457L144.91224067922303,146.14689759755493L146.16359324763835,146.2821261076433L147.35207428718422,146.8574093840234L147.644847634092,147.51393476897283L148.49716972743772,147.8983060902492L149.00337631689763,148.3205845601442L148.8781218682234,148.97418589399604L149.17914417226348,150.6801644795587L150.47619003226282,151.6175971320772L150.584111193657,152.20547978348168L151.27422401855438,152.596222295163L151.53109338965805,153.0210409032161L152.75918217873914,153.02968667763707L153.5412125968469,153.38919056086343L154.30545826240632,153.54053146880415L154.7134741144364,154.52870165052173L155.9140402891535,154.92687549717812L157.15963781286337,154.72321530490262L156.82532752315092,155.39233290715129L156.3467810619586,155.82930863498677L157.4275208389845,156.35725178859775L159.14604703134682,156.61647751952933L159.8520778961538,156.86409520642337L160.7930959084224,156.74445753681175L161.39502807069584,155.91185127864264L162.00569382579488,155.70039537876164L162.9718438913551,156.13038778210284L163.1798965593007,156.68001496013858L163.52125377265838,156.83504002027075L164.87847729324858,156.4759811904487L165.33480916699773,156.95502842363476L166.0421626834068,157.11430279154774L167.02431687782882,156.77291857075306L168.62139814333204,157.24624126434082L168.94073574610957,156.7877105796042L170.23495919566994,156.07327882138816L171.13951622787135,156.05179149989908L171.72570852479112,156.5239467269621L172.50859218417827,156.56806362619955L173.06812463488677,156.88944391938003L173.07596710239886,157.33304826206404L173.68860742980905,158.63763072101756L174.55020627320482,159.3167894731141L174.30067354893254,160.1151659690904L175.16545960053554,160.94645266565112L175.84768809284287,160.90783563509558L176.64293109302162,161.10474254436394L177.08593106348417,160.70082207603537L177.46233238109562,161.0628263002709L176.83778128824997,161.60956426980465L175.5991350991535,162.08617280654562L175.5408124179994,163.13296421837913L176.07908851889442,163.66987713163599L176.15233295917642,164.09933425447707L175.5743179840938,164.6144679738327L175.446841355817,165.46379140786757L174.85330243660428,166.09985846242034L174.7362181512035,166.67257001484904L173.9133863053794,167.78576494087156L173.79894868460178,168.25270403174818L173.0015342841143,169.38954130497768L172.93144000394022,170.7912841722091L172.70353374345723,171.56648257927372L172.736030110118,172.60595996810025L172.1159535743136,174.28154763290786L172.06574934968376,175.48611700239508L171.91140303342763,176.26299094770275L171.4992184170478,176.7802073332241L170.89114851810882,177.16953335314065L168.5279373775229,179.58927541800676L168.39734679105823,181.14259780747034L168.4961689695083,181.86525004741543L166.78927052087238,183.25015340213758L164.28830666598515,184.8551948920176L162.48417260645874,185.95211750846647L161.7157871102645,186.64241911781482L160.8200598768599,187.8865943608107Z" fill="#e1b03d"></path>
    <text x="130" y="190" font-size= "4" font-weight="500">
    बारा
  </text>
    </g>
</svg>