<svg  viewBox="-18 92 150 150"  version="1.1" xmlns="http://www.w3.org/2000/svg" xmlns:xlink="http://www.w3.org/1999/xlink">
  <g>
  <path id="path-0204" d="M109.4363000137746,131.90670616482112L109.21274323366379,132.47591080000893L109.10751326779064,132.60487670690236L109.00275072522345,132.85950983734165L108.94693689610358,133.25130673414333L109.04846622809782,133.367475820678L109.07345052144228,133.5741732958213L109.03195178910755,133.98795011057882L108.89403887947628,134.32423435344117L108.77168557320329,134.91854548788797L108.84430379682817,135.0350250067786L108.9272805691071,135.3016315480063L108.86045735430162,135.40493926397903L108.40077658754672,135.84990345865663L108.26239719464138,136.1083695555235L108.31155029423826,137.3229266030421L108.36194153929318,137.73578614248254L108.3717202331427,137.77453303383663L108.4469110838254,138.31679322565014L109.12049378647498,139.25792723774612L109.19451167322404,139.6195980418779L109.34507460356326,139.89074045605867L109.04889746641129,140.2366223723766L109.03021717842421,140.34026749036002L109.03248258370877,141.6211320690445L109.00389611769424,141.65145384264542L108.81156421077685,141.66537761996005L108.60008460731115,141.6578146996244L107.94584972603116,141.59990166124317L107.8549476756416,141.6867810100448L107.97295419350121,142.1519973248487L107.96368449489455,142.20381988308145L107.77724536290407,142.39430328779963L107.64300473105686,142.47680137837506L107.25932987603665,142.64254612852073L107.1348107290869,142.72053531900474L107.05802515463802,142.75967808545192L107.02002775672736,142.8245341918382L107.03230914835876,143.31600153112686L107.05805612073527,143.6178194817203L106.8029579242575,144.41265925627522L107.11286134813781,145.67072167898732L107.27460236786283,146.2130650767649L107.55289511618321,147.03800647384833L107.94225610063222,148.00412628356025L108.03927762484454,148.15842254875497L108.38736016185067,148.56114685374814L108.72591863364869,148.9770312155415L109.30079925774771,149.56396247436987L109.34918270745766,149.6151641776487L109.56750380778612,150.04040607943352L110.08600445456977,150.8894232597404L110.31656464027401,151.80461083070895L110.2491354044214,152.61651049483135L110.15025038977183,152.99072399507895L110.0845716757176,153.26139077150765L109.99003846677078,153.54559833298754L109.93299366959036,153.67440850702133L109.85716919298284,153.8681872088273L109.69259111971041,154.50035845697676L109.30001635872759,155.6147015580591L109.17611780402513,155.727281289649L109.05544863936302,155.99045313801525L108.99740707600722,156.30136036970907L108.68404244096382,156.71987568060013L108.53925207527573,156.96151863797877L108.52000752963431,157.03057322618406L108.36032844093643,158.17451543402876L108.30230028396181,158.45083212053487L108.22010975682133,158.7615706557117L108.20081190467681,158.98628975605607L108.21996222385496,159.14157354146937L108.14156954689315,159.8526747165306L108.20482758196522,160.43657063367027L108.15171419420221,160.5918555518756L108.1371751145416,160.6436500180189L108.2958867873349,161.17884996882185L108.2808990053818,162.05978904839594L108.25656091742349,162.4741997008241L108.22770801508887,162.56912338115126L108.05850083998666,163.5227684379406L108.03365215953818,163.76471950114228L107.99028641212499,163.81224519870102L107.77800849861887,164.0498595253648L107.74916840984952,164.07967407095566L107.63269909680457,164.40798317707504L107.30613788045957,165.08537127429645L107.1641720449843,165.669383137385L107.13540418329285,165.7902462069951L107.22158438180486,166.32241799430176L107.3367119496179,166.54702228240512L107.4039213416545,166.73721993870186L107.37948911526473,167.38156265056477L107.37457636759063,167.60636607515244L107.1725760083973,168.17675401226097L106.98985747246843,168.4227231526893L106.51902706667897,168.6168743764374L106.4179657943896,168.65993449788402L105.81546124654778,169.05310672522137L105.76238978885158,169.19162474192308L105.70926534357568,169.50257418473757L105.48250116572672,170.332736836207L105.40052061060487,170.57482969758166L105.29922075404829,170.66571072925944L104.96665202113945,171.06327476761544L104.76882476111132,171.7720671142897L104.75913271401805,171.8411920067647L104.75418275585616,172.32541751858025L104.79733075630793,172.6711110009819L104.8214951560658,172.74046080254266L104.8503231741779,172.81391067395907L104.76815042905946,173.31542562458435L104.21381511488289,174.33566530826465L104.15347368217772,174.4781990447209L104.11751920807365,174.5430692170812L103.97302662549191,174.88445414182024L103.95882440273635,175.59296183771676L103.99249936683918,175.67914884789116L104.34416012145084,176.05948443308534L104.56084799498058,175.82185594239854L104.66686699845377,175.69235459157244L104.77284516279906,175.63609221653223L105.10036211675833,175.55843801024912L105.21109147226525,175.661954317834L105.23042292398532,175.7139596062625L105.20620689197312,175.88675775133015L104.92181143142443,176.39606754690612L104.88808482276727,176.55149307117972L104.90226230068947,176.74132523132266L105.10409437019916,176.93142217016884L105.16180456940856,176.9658991021306L105.30591368999012,177.19017888810595L105.57012445947475,177.669130615619L105.22321664321134,178.2609233013245L105.31910031246662,178.5886796100949L105.00082536116315,179.36175170353272L104.48095499799456,179.79824889732208L104.36977230579214,180.29042275596748L104.88390019607323,180.88144116689546L106.25396788197031,181.69598150888305L105.92596195907754,182.71062404209442L106.22327474816848,183.5178966802141L106.02014753631374,184.10609423213737L105.80898313344005,184.36969021767527L105.62069512272137,184.40046535989313L105.56342463080364,184.51707375375372L105.51605962904796,184.6724149584952L105.49783149719588,184.84422673002246L105.48415352682787,184.98198329172374L105.42671337919091,185.06858033298795L105.42767479529357,185.24053270410514L105.37027682603366,185.32255054734924L105.30752352829586,185.3317803695536L105.23555745070553,185.42235097167577L104.97117781727866,185.6774516142359L104.44596392942913,185.92520142542162L104.45099463035149,185.9684712404205L104.45625091760667,186.01988497845377L104.39370979021987,186.07186336642098L104.24121472931802,186.4253938754182L103.59534160592375,186.72575702051654L103.4798255202586,186.80790257725857L103.24014515531599,187.10589230123423L103.22262383665657,187.39880622365308L103.12636757647488,187.47242712813022L103.1797662110439,187.4936455931429L103.1991672660879,187.50242326031912L103.21075472675875,187.81635876895052L103.23175271323271,188.07441383243713L102.86805004411144,188.64425483137438L102.51514285581652,188.65003715930834L102.53026245208093,188.74474881797232L102.61436714261072,189.05408991219247L102.58579516725149,189.10578597435506L102.63964658563782,189.2261968957755L102.63578881247668,189.36402375602665L102.76730094680897,189.52667480464152L102.72977022988562,189.6820863078101L102.68670042363738,189.73368396694605L102.58713629351041,189.9670132429701L102.66358104126994,190.51335963372458L102.76539105516713,190.57304260547335L102.76117988395345,190.65084675981598L102.62650209811545,190.71607071881226L102.92346760920918,191.05481399739983L102.695924550786,190.96121874060645L102.02399042873367,191.47357799912515L100.19775134915835,191.90197976975196L99.29540283812457,193.19524373019794L99.4403676088441,193.22468923979068L100.01039113751176,193.27727774661616L100.00174226725721,193.37641398641972L99.74230536023242,193.49883053843678L99.66092716739513,193.56391276856812L99.67122756839672,193.62400577071094L100.05915019255917,193.80715355465782L100.14273984823012,194.44001145498078L100.43164789455113,194.8605886538544L100.67861975241976,194.94055874021979L101.22019803501098,195.04079952452958L101.31699169623607,195.07042895088216L101.60720293868144,195.1247548575593L101.78145982056958,195.18390129192267L101.95166017554948,195.3035636476252L101.94312444379102,195.42458140721283L101.9448891031825,195.60517084593357L101.81088363354866,196.1923387902907L100.8694210682479,196.6413684149984L100.07582689611809,196.4570715637874L99.95898299924374,196.3632068721081L99.87145930038241,196.2944639077632L99.79854657054602,196.24768677534576L99.53696450303323,196.18492060725202L99.30416616753428,196.09183265837964L99.21668499334919,196.03632005214968L98.92612136385287,195.9738643104174L98.50497832733163,195.8948268565L98.398237335663,195.84831795641367L98.31132073756453,195.844698217933L97.81734992290876,195.74024382506286L97.51646791126768,196.1437110338784L97.49732122195928,196.1741172035181L97.27349275499728,196.5511224984457L97.08746371492816,196.82460916014134L97.08054608402381,196.83423262752694L96.42607633064472,197.75123768549838L96.36445225809439,197.86835338352648L96.25530642996819,198.05026898862525L96.14141269396714,198.24079355908088L96.09880849787442,198.3269958552737L95.88506699577556,198.6562787098601L95.37607906631456,199.38398452402635L95.05805250823323,199.89470385443838L94.62074879818101,200.52776710802937L94.24152036340092,201.13119852964792L94.16683530324008,201.23501362259321L93.82895737626677,201.76545903658462L94.22152730734888,202.56662939091802L94.2977460935108,203.08802271320474L93.57149989850586,204.43448719784283L94.19054681211492,204.84388607089386L96.32869889432186,204.68673712999953L97.63824511865823,204.3498287590337L97.61862764780017,204.80701617742852L97.16242358268937,205.09554089744597L96.82843633342782,206.46127423186954L96.1397656226327,207.05249458013077L96.36125289089614,208.00876857180629L95.75056753871104,208.67325487971993L95.31786130216642,208.80577652656484L95.0961204999985,209.31204199658896L94.11103567829923,209.66385237305985L93.56819066906246,210.36239276856395L93.32932117491873,211.06745205533298L92.57823987347365,211.17612452406138L92.29850740743132,211.66524355590718L91.81724872952691,211.75070588035578L91.82269535688465,212.17500723680223L91.29152357647399,212.52417577692177L90.79293754529135,213.4662161005399L89.6397530647846,213.77182846723736L88.67458915311727,214.79034155985028L87.91684745093153,215.09746950906538L87.20419000070615,214.60368798084255L86.53749321840951,214.9231149490397L86.19839558474996,215.77211758652265L85.87238271673414,215.6734232890567L85.22537804016974,215.01832616316096L84.5410597948503,214.82237522982086L83.64399206429152,213.79288674065447L84.30553692102694,213.72008841912702L84.24828456535761,212.58380008133463L83.25610519067777,212.53758663014924L82.96560708825564,212.2194143526076L82.81724623230184,211.42746902437284L83.60172678113304,210.25761980381867L79.9411897178652,208.93943091645906L78.59365287085166,208.22991557497699L77.97154656123166,207.71194041051876L76.3683521878811,207.3052337429299L75.70007471661665,207.4824378598505L75.04631867100761,207.4211571349142L73.80173887950514,208.53974045283303L73.56686026726675,207.96862653358585L73.22316859624698,208.03482589073428L72.83189689152641,208.80022015339455L73.68876243014165,208.80921036571453L73.49275495089023,209.64948912120235L73.00688289140817,209.41065973873356L72.8135942011977,210.22857787827525L72.5236889922744,210.70307176606912L71.06060356896705,211.31894706255844L70.67524532092648,211.14073061443742L70.45752657969206,211.9956631384457L70.08908506621447,212.32067912711227L69.87568892687705,213.03014808683656L68.68946190414135,212.4272761899647L68.18222135554606,212.44324777438123L68.75439806233771,210.16131907960698L68.24101219261865,210.0511162524981L67.68544951772856,210.27388514879476L67.32900512736887,209.50272556020172L67.35604530975615,208.92040619099953L65.26312967930426,208.122375798559L64.72462691339388,208.23184803075128L63.8892054519456,208.97050657351065L63.31324144565224,209.18714669097244L62.443333312610775,210.86068065710333L61.52104917103861,211.46922086428094L56.179813342441776,209.00830109277467L55.286973105372454,208.74218590636337L54.94849935529783,209.0644679693023L54.0033641920636,209.0250168116081L53.168006778359995,208.6916076696598L52.9875133962305,208.15653473070324L52.57096439081215,208.12388086503324L52.417382063264085,207.62049556256898L51.89336826782528,207.2652705844066L50.8880588679167,207.27241543569107L49.0475293764066,206.01937794199785L45.6373407602332,205.2349220240112L44.19624360081434,204.84282387059466L37.921286858265375,202.40994293235326L35.83862915126156,201.64389617385132L35.90759082744262,200.63338608268623L36.62508333288497,200.52933577242857L36.179057726480096,198.91464724256548L35.8958431612773,198.55878455158563L36.38934396802506,197.66417099351293L36.2607126631774,197.1055109218496L36.56061418590252,196.26089106678137L36.8118578662652,195.01264040234219L37.92665777803268,194.4317557535669L38.01256524570272,193.97531417805203L38.939262127085385,194.25840710069497L39.09748966971165,193.80283798815435L38.341074154956004,193.4584657643536L38.700948612051434,193.09385755687708L39.21211381043031,193.49356431819888L39.48712665951098,193.0176758761072L40.53747274511261,192.67007762570302L40.529075840364385,191.9471564124924L41.108827142419614,192.33040518874714L41.17520366618919,191.70398412295435L41.756598065363505,191.80746507437834L42.02165186384809,191.43889906854292L41.41617277167825,191.01176084955478L41.844561566846096,190.56257029977587L41.99984186511938,189.9721755895016L42.730758976511424,190.47929988512078L43.01039993815357,190.36209634122497L42.94608334066288,189.66587623039322L43.183662063522206,189.24224756510102L43.12679934129119,188.5811533068163L42.81511326322652,188.37464334868037L42.91097396335317,187.5087650719979L42.15515062517443,187.92331372813533L41.93990994620981,187.21874066757118L42.51317208468754,186.44162105221767L43.5362704174986,186.13977289940703L43.541649513506854,185.24751984519753L43.147932632920856,184.8707073010446L43.22514430755473,184.27333933326372L43.96892624512111,183.3800745876697L43.72706119493887,182.90020665986867L44.02431725279894,182.23369649701726L43.684801898696605,181.8688454018229L44.16218152153306,181.55473336573596L44.5364573757106,180.57218700470548L45.02120959896638,179.72856473251977L44.826533159088285,178.71019665888343L44.94419854818989,178.2971935874275L44.37715795756594,178.02939678491475L44.72350101706979,177.36924039766927L45.105497198503144,177.09232699261247L45.66666861865815,176.20685674557808L45.19796912851962,175.8464459509196L44.55801454443281,176.19840578058574L43.481636669101135,175.33857600664396L43.587716392245056,174.70116431364022L44.31408006335914,174.3389175812199L44.410119887499604,174.0000696552679L43.953200247287896,173.70433102930838L43.37974327642951,173.86892320228617L43.193362559097295,173.43715715149574L44.39744082688412,172.59800442876985L44.73910914630687,172.0894406664438L44.553458336773474,171.51573360977363L45.333699620001426,171.17360633137378L44.52582867963065,170.74795073822133L44.09667196132796,170.08963796934586L44.62399580539568,169.6674279583167L45.011073215224314,167.6670458708477L44.359218131889065,166.8067023999065L44.94825090511222,166.2851017485027L45.17813369628493,165.69866520106825L45.85781258554198,164.96792773747802L45.25949758816205,164.15920861465656L45.75291412293518,164.0232482083502L45.94405496758918,163.61672535928847L46.645854964059254,163.67053772570762L46.33181477896869,162.66938936534007L46.371795868290064,161.72186147122738L45.86689228993782,161.63341326381578L45.39613159833971,161.055765480658L45.49995813631904,160.4778693272192L44.95322282814959,159.61701705039468L43.423833075412404,156.52736542119146L42.39198537141783,154.62798716796078L38.12537703085036,146.93351031933344L35.87736514655262,143.07273348658964L33.42049548057912,139.2630637942275L31.312142558424966,136.4633761663863L30.42255247972207,135.9481810645011L28.139299724352895,136.26981660044476L28.011345510447427,136.48799961364966L27.149613428293378,136.1576767573224L26.95359871680921,135.88315348919969L26.13168733923885,135.78753843634058L24.71626019809628,135.33892585972262L23.131330671774776,135.15875535295072L22.772966522221395,134.92529234868744L21.96859651406703,134.84307644503133L21.224453422346414,134.52409408672065L20.59698824969746,134.46350335467832L18.29530109834377,133.75414384968371L17.696720490308508,133.77817619515736L15.69402738392455,133.40136028371944L14.38764760324193,133.50966066272395L13.008829708607664,133.33846216450456L12.2671114728073,133.09597344554732L11.208419774844515,133.17076439444008L9.556660057685804,132.7275236031992L8.822807418764569,132.68253191636632L8.323197284211346,132.372901439604L7.7236204068794905,132.60773173559937L6.491937173657789,132.4765178943435L6.056856185707147,132.19055734365156L4.473944140336243,132.14563498905136L4.177389204141946,131.89682720261953L3.378402721049497,131.8863424921583L1.7633185882878024,131.50823838893757L1.402564287182031,131.5339296615548L0.40919564692740096,131.1519836197558L0.3188182016601786,130.67653776057705L0.18199302852735855,130.4344202041384L3.637978807091713e-12,129.57306938255442L0.036010334490129026,129.4821330673667L0.1462018360980437,129.46216609446037L0.592935592707363,129.064896502824L0.7382774095494824,128.92398188890456L0.8396038964929176,128.75340885469177L0.8602951083375956,128.44725061578083L1.1734532030568516,128.27691387152754L1.511549795864994,128.13565815531183L1.9711105250498804,128.03960075726263L2.0511783581823693,127.97325052236192L2.263043412403931,127.51362292967497L2.3966339768194302,127.32943862590491L2.630343372311472,127.18426753109361L3.0834533108318283,127.19656102352837L3.7449151409164187,127.22588593295404L4.124082901438669,127.13974900006724L4.2076892172663065,126.4482188514221L5.000245831670327,126.19012330294663L5.878034666431631,126.26809707803204L6.1184050031151855,125.95307297308864L6.788612457261479,125.78511193472059L7.089921882972703,125.63462793334475L8.112628985898482,125.52651509109182L9.078942045842268,125.68629305211653L10.40147980034817,126.19082961040658L10.616607080861286,126.1280702083559L10.731568384253478,125.77292018087792L10.957470776138507,125.5463945145957L12.300366771538393,125.2819359859277L12.543671000275936,125.14044217727678L12.543705805470381,124.75280276309877L12.190804259244032,124.30887989144776L11.771881918764848,123.93489995124673L11.617047235838982,123.51360231142189L11.617662431599456,123.26790384237574L11.556502759496652,122.62366138461493L11.510639386517141,122.47188643764275L11.439715599855845,121.81335704511184L11.42245469262707,121.73038230047769L11.462013467160432,121.5336594859109L11.70870889206708,121.16885591056962L13.107965834842616,121.11474357864336L13.974664145487623,121.07336253208359L14.203568277600425,120.88552749209703L14.056320384537685,120.08577690796483L13.769160046816978,119.68634872622988L13.048325306986953,119.61079603606231L12.700543631584878,119.4512481408874L11.643593146454805,119.21824675780135L11.323737431401241,119.11577633400248L11.057010048185475,118.9011218693422L10.956282015613397,118.68759204385697L10.974484304359066,118.63576937039761L11.15028938827163,118.61761897149063L11.290182645436289,118.68378266539548L11.903877202435979,118.46587402702426L12.221579545930581,117.9558454893795L12.272088072521,117.88483197162714L12.581426922191895,117.66067211941845L12.799274276534561,117.64269015130867L13.03845113054922,117.54188783577774L13.127777592409984,117.5798726450812L13.424840893447254,117.88777313401079L14.14363081524425,117.86616238411989L14.464894475058827,117.91778258544309L14.48469110862061,117.25299592889587L14.407533289191633,116.25412681109083L14.412936829143291,115.90568523868933L14.889941664478101,115.16589139914413L15.10862588636519,113.97893260936598L15.593066531451768,113.0687644401487L15.723194163008884,113.0423299187114L16.23396206891266,112.57635731044866L16.301892856878112,112.18899867288656L16.525672968018625,110.77522174476508L16.448284417980176,110.23263769703408L16.754758224062243,109.75469188013176L16.721442324887903,109.2916301535115L16.660451994492178,108.66416872683749L16.762762704867782,108.39089491450068L17.532275499830575,107.72760435790406L17.836181490849413,107.79342735974569L18.245993061464105,107.69538401669433L18.347336978542444,107.69935578758759L18.77205189797678,108.17111899731754L19.02518199161932,108.32424336247914L19.326143119607877,108.37889317402096L20.131743172900315,108.68792707840112L20.182670553243952,109.14748016766043L20.206652485554514,109.25390027939739L20.280453106759524,109.3172751948905L20.70171495087925,109.72597238584513L21.170871785579948,109.70095570939702L21.886421919563873,109.71817654317147L22.218016058483045,109.20120149957711L22.644187433725165,109.2167219216044L22.956885164800042,109.28519367164608L23.204607937983383,109.58991059429991L23.866186691764597,109.83738824832744L24.37030134325687,109.93770006030536L25.17896091511284,109.62982481082781L25.741390825176495,109.72634555605237L26.01457140931234,109.95693549232783L26.056658384230104,110.08277111130155L26.536500400150544,110.34325647768219L26.61680530929152,110.15183081271698L26.93011768555516,109.94766434582743L27.17624015724141,109.82816470187481L27.71713720547268,109.69165408283061L28.089014627716097,110.0132487040155L28.26115959033268,110.15389072639027L28.87979073927272,110.2135656934006L30.047762273236003,110.3367350373037L30.97413005317867,110.37697537069653L31.060395879976568,110.24612178846746L31.145233502800693,110.57358221251525L31.332327146155876,110.71430854234222L31.482953805116267,110.64630869617758L31.675286767160287,110.69040689177655L31.853656301929732,110.68307742402612L31.98396704703191,110.6541489896199L32.2254550132202,110.57842651198462L32.553943332473864,110.46899981632941L32.69591279942324,110.7967411550062L32.959863103937096,110.93222487970434L33.318413026547205,111.30009070747928L33.45740524038047,111.39992909414377L33.495770568617445,111.41790712414422L33.63477687160048,111.51773142080128L33.696756911071134,111.59533724629182L34.09903890827263,111.91663551118563L34.272730236847565,111.87926659670211L34.50776925999162,112.00547966045178L34.95528577052755,112.01719547966877L35.30615113811655,112.07984752847733L35.44119527502335,112.02044271645173L35.86783605029996,112.26403519097948L35.95143654977073,113.4567943813754L35.97423627979515,113.62935217960967L36.06899030885688,113.83224426991819L36.22694697057523,113.94946921514293L36.422763488375494,114.17419898005755L36.42597984540771,114.38074175270322L36.52386586417924,114.79882777439707L36.58887926987882,115.0916275338086L36.698075010997854,115.30731296886006L36.92403932857633,115.36940335736654L37.343713607766404,115.28233580531833L38.71938900533132,114.69765701236247L38.9029973903489,114.56933808588383L38.97992478508604,114.578847531061L39.39761664540856,114.70595951754422L39.686768746858434,114.64322711755995L40.0387574175038,114.50805792628671L40.23481254975195,114.6860235400045L40.31386118287264,115.09944612225718L40.721903207551804,115.29266774183088L40.78423379085871,115.28329703968302L42.118796019298316,115.38227152685795L43.73377284837261,115.30614733805578L45.12055734823298,115.0697689405606L45.54632840045451,114.78392194700064L46.60569434725403,114.60554235710333L49.316295388696744,114.69233593853005L49.832647813913354,114.49350632385358L50.954846991156955,114.79372910963775L51.72586243081241,114.60130640957505L52.089382402529736,114.78935773705234L53.10361033025765,114.80932136569754L52.98639610231112,114.5070681345187L52.982266695969884,114.44243814453239L53.40124136468876,113.88148729072054L53.44602794398088,113.723018267734L53.37066151133695,113.56291669128404L53.41529360462664,113.42985163586764L53.532146776524314,113.27987766142905L53.779830494790076,113.0237770486483L54.04140727967388,112.82317606311153L54.36785854230038,112.29278749071182L54.3928645791857,112.1723613188633L54.529623502810864,111.90296162987033L54.913386766849726,111.94057551181777L55.00909561219305,111.9756577023054L56.39168671259904,112.00478806268075L56.503239760702854,112.44437495841248L57.31993513170528,112.38714345241442L57.657211482499406,112.8111434854327L58.49087850878277,112.45338970888679L59.79926673893715,113.46403292007835L61.233277123232256,113.88380302343558L61.77898774906134,113.49253400745238L64.19650409267342,113.55003921945718L64.56974856928355,113.16701543341787L65.55612281459616,113.22285214973454L65.66320524514958,113.44014385681203L66.66209595779583,113.76263043033669L66.77054597210736,114.02723577034249L67.80631478659416,113.96590067258785L68.16159634487485,113.62658381396068L69.29566358300508,113.4549660656794L69.82911304332083,113.60246418533552L70.59464449006191,113.96036213386742L70.69561786477061,114.46658002073582L70.77345064090332,114.66286424775626L70.969166464929,114.77894731447395L71.12592524389402,114.87903903053302L71.20305313962672,115.05394899477051L71.29287424021823,115.16790614999172L71.39416187408642,115.17458314916894L71.67742883747269,115.32322645014574L72.06418304223553,115.56453695777236L72.78309763202196,116.14705573204537L72.8074017232866,116.15534017360278L72.9437726321703,116.2171501358971L73.353378634205,116.41030124272675L73.37895159466643,116.46132012392354L73.21415225791498,116.58549638365002L73.28860801825067,117.00609078730577L73.34299682709025,117.2287092794968L73.49312098799419,118.11926884316836L73.52775614904385,118.31429975460105L73.55239863134193,118.33529321935475L74.07089252305741,118.13026398167312L74.32896390020687,118.07275934847075L74.58597453477341,117.8087259764743L74.75955086801696,117.65405918187389L75.05115452726386,117.59170712183277L75.49431779273436,117.61666738187796L75.64135162218008,117.54428561893928L76.09960486997807,117.59022540174556L76.33237444493716,117.65823338352038L76.4281105040136,117.6435361930944L76.63805299191517,117.58272119843332L77.40861137202592,117.78973105726345L77.6695481070019,117.99932731906756L78.07633789300235,118.27491807443675L78.47987843906594,118.10639737635393L78.66831958610783,117.98596863668627L78.86832942321053,117.9383136981296L78.94331449503807,118.04863591024787L79.27937456116342,118.2342782826272L79.37470194374691,118.21501599181556L79.51472499761803,118.43102501731755L79.73233802521281,118.6754942907437L79.77122471650364,118.69606483753796L80.14732080100293,118.59709197616849L80.31958954326547,118.58033647189404L80.52243689267561,118.81656342446422L80.45754350853895,118.89959581988751L80.45867140705013,118.93828648121598L80.53907079185592,119.25464422460755L80.7204127430632,119.22470049546064L81.25343719169905,119.25132194189518L81.32542268669931,119.43437591553902L81.33136918353921,119.47713846319584L81.8417461845238,119.91312624816055L82.30382851185277,120.51312043746475L82.36272249957256,120.56333567854017L82.74643935664062,121.10487238187125L82.66648408790934,121.1628814723963L82.63441810441145,121.21966399839766L82.64214111375986,121.32704249008111L82.93507424216295,122.24038311484946L82.96925512982489,122.2609396457874L83.52862484542857,122.20534650693389L83.60507283386687,122.19513018246471L83.76802868588129,122.18291174840306L84.36089102634651,122.25522558286139L84.79045920432691,122.33112078888644L84.90934657246544,122.45343276467884L85.08802693276448,122.48810504639732L85.5903383118457,122.58836043357678L85.7780212654252,122.60122151318228L85.96787210255934,122.51948342276137L86.62517672974718,122.49611219064263L87.04229879730337,122.30134190382887L87.08019848450567,122.28326405516964L87.18905085860024,122.22950963935182L87.46032326565546,122.14168346481256L87.60445945907122,122.31044922256388L87.73233352309398,122.3188729398853L87.80418852136063,122.3137290256609L88.50580699249986,122.45292558306392L88.56825072067295,122.46501368137433L88.9629419687044,122.94820422093198L88.97444879784962,123.45746695495018L89.21346473622543,123.77028567824982L89.28215219709091,123.89431740042073L89.38034354097181,124.0704387724627L89.46888366726853,124.24191065106243L89.64573799226491,124.55942226409661L90.26460871595191,124.61319346164419L91.10539384491494,124.40539752243785L91.47836272225322,124.33604152009775L91.67217726182207,124.4893781342289L91.81945736244234,124.75992879807745L91.93077799707316,124.84049271824733L92.0890002521046,124.84760560409359L92.23204720784997,124.79409017642502L92.39029755166484,124.79663795573197L92.60253996427855,124.9068453024147L92.87407223984337,125.13697028841761L93.21326210552797,125.4219882036241L93.24812126136385,126.2595014255312L93.25963496008626,126.40149858328732L93.42767096082753,126.79680030824238L93.95117108031627,127.53725510709046L94.36997568972947,127.64271094402375L94.52117880639707,127.51244806512477L94.70071573008318,127.40017745898149L95.04257220833097,127.15925004012388L95.32370620351139,127.02626578546278L95.53470689697497,127.04138086760122L96.01259084587582,127.30798119804967L96.09485906609189,127.3675235432629L96.53170007661538,127.58351383623813L96.90405860182364,128.00000346949673L97.16442875766734,128.05461157938316L97.25106338102705,128.05010147363828L97.45370968970383,128.0921282675945L97.56969320661301,128.13917240174942L97.64181557418488,128.1172474894529L98.76338469080656,128.60331505546765L98.82712828927833,128.80110713781505L98.8852477378532,128.8696532658123L99.01575726058581,128.91680989057204L99.23917653662284,129.23467302910012L99.50132744936491,129.56909111497225L99.63261476534899,129.76275381746837L99.6813232841996,129.86582018596346L99.71567547052109,129.99932082047417L99.7301733767199,130.00349118371378L99.8653173984494,130.00692698223247L100.24596448124794,129.91484394524105L100.33266938259112,129.90171085938164L100.47689901908961,129.80648949972783L100.60672945544866,129.71124018634146L100.67899271671558,129.68932936066358L100.76573979526438,129.6716029881718L101.1865616479663,129.9022892281555L101.21554338130227,129.91113718869474L101.44673261816206,129.8582544131841L101.55678007030656,129.6768883462737L101.71573355236615,129.61181899849362L102.06763953218979,129.56738822684747L102.19357106707321,129.66588827645592L102.78678371100614,129.63733295659222L102.84467655111075,129.64585639666257L103.05869949745829,130.0237141958196L103.02528136800538,130.10182875901137L103.56105390446464,130.15987045824295L103.64804160370477,130.19810890060853L103.77832519108051,130.2193261435923L103.90907532785059,130.3219544388512L104.0357423922178,130.56696056900182L103.88230026670863,130.75718982597027L103.87773636588463,130.80853325214775L104.12372032833446,130.80765581821834L104.16701620717868,130.7901555644121L104.35964279025575,130.71616682064086L104.43639967764102,130.65157781636572L104.46525357555583,130.60802568662984L104.89870652787795,130.48584592666248L105.1556934120963,129.73119038886944L105.49174289329676,129.37689623649476L106.07606863441833,129.5207724335669L106.53230490429996,130.1648115656635L106.28394989095978,130.67434613272144L106.82994401605174,131.0814773909724L107.76965368906167,130.3600067585403L108.44749896680514,130.25939468332126L108.60116222643046,131.27982031311785Z" fill="#e1b03d"></path>
  <text x="69" y="160" font-size= "4" font-weight="500">
    पर्सा
  </text>
    </g>
</svg>